<svg id="svg" version="1.1" xmlns="http://www.w3.org/2000/svg" xmlns:xlink="http://www.w3.org/1999/xlink" viewBox="0, 0, 400,400"><g id="svgg"><path id="path0" d="M29.050 29.050 C 13.072 45.028,-0.000 58.190,-0.000 58.300 C -0.000 58.410,31.837 90.337,70.750 129.250 L 141.500 200.000 70.750 270.750 C 31.837 309.663,-0.000 341.590,-0.000 341.700 C -0.000 341.962,58.039 400.000,58.300 400.000 C 58.410 400.000,90.337 368.163,129.250 329.250 L 200.000 258.500 270.750 329.250 C 309.663 368.163,341.590 400.000,341.700 400.000 C 341.962 400.000,400.000 341.961,400.000 341.700 C 400.000 341.590,368.163 309.663,329.250 270.750 L 258.500 200.000 329.250 129.250 C 368.163 90.337,400.000 58.410,400.000 58.300 C 400.000 58.039,341.962 -0.000,341.700 0.000 C 341.590 0.000,309.663 31.837,270.750 70.750 L 200.000 141.500 129.250 70.750 C 90.337 31.837,58.410 0.000,58.300 0.000 C 58.190 0.000,45.027 13.073,29.050 29.050 " stroke="none" fill="#000000" fill-rule="evenodd"></path></g></svg>