<svg id="svg" version="1.1" xmlns="http://www.w3.org/2000/svg" xmlns:xlink="http://www.w3.org/1999/xlink" width="400" height="400" viewBox="0, 0, 400,400"><g id="svgg"><path id="path0" d="M294.167 260.764 C 292.516 260.952,290.492 261.535,290.504 261.817 C 290.507 261.872,291.050 262.173,291.713 262.487 C 293.467 263.318,293.427 263.242,292.621 264.225 C 292.233 264.697,291.871 265.121,291.816 265.167 C 291.721 265.246,290.011 267.633,289.667 268.167 C 289.579 268.304,289.333 268.679,289.121 269.000 C 288.591 269.802,287.402 272.176,287.098 273.039 C 286.960 273.430,286.612 274.387,286.325 275.167 C 286.037 275.946,285.741 276.771,285.667 277.000 C 285.593 277.229,285.297 278.054,285.009 278.833 C 283.852 281.966,283.317 283.918,282.248 288.917 C 282.013 290.017,281.717 291.367,281.591 291.917 C 281.465 292.467,281.274 293.479,281.167 294.167 C 281.060 294.854,280.872 295.904,280.750 296.500 C 280.628 297.096,280.442 298.146,280.338 298.833 C 280.234 299.521,280.046 300.646,279.921 301.333 C 279.451 303.898,279.182 305.452,278.997 306.667 C 278.892 307.354,278.706 308.404,278.584 309.000 C 278.461 309.596,278.273 310.646,278.167 311.333 C 278.060 312.021,277.872 313.071,277.750 313.667 C 277.628 314.262,277.439 315.313,277.332 316.000 C 277.147 317.183,276.984 318.062,276.428 320.875 C 276.185 322.105,276.039 323.124,275.575 326.833 C 275.432 327.979,275.244 329.463,275.157 330.132 C 274.804 332.860,275.002 335.361,275.685 336.782 C 275.869 337.166,276.111 338.204,276.222 339.089 L 276.424 340.697 277.170 341.039 C 278.461 341.631,286.738 341.132,290.938 340.210 L 292.126 339.949 292.222 339.139 C 292.275 338.694,292.547 337.851,292.826 337.266 C 293.228 336.424,293.333 335.982,293.332 335.143 C 293.331 334.560,293.442 333.596,293.577 333.000 C 293.713 332.404,293.906 331.354,294.006 330.667 C 294.107 329.979,294.292 328.779,294.417 328.000 C 294.543 327.221,294.730 325.908,294.833 325.083 C 295.010 323.676,295.200 322.514,295.747 319.500 C 295.871 318.813,296.060 317.762,296.166 317.167 C 296.272 316.571,296.460 315.633,296.584 315.083 C 296.708 314.533,296.899 313.633,297.009 313.083 C 297.118 312.533,297.274 311.821,297.356 311.500 C 297.438 311.179,297.617 310.354,297.754 309.667 C 297.890 308.979,298.114 307.985,298.251 307.458 C 298.577 306.204,298.991 304.564,299.167 303.833 C 299.244 303.512,299.431 302.762,299.583 302.167 C 299.735 301.571,299.934 300.783,300.025 300.417 C 300.115 300.050,300.290 299.412,300.412 299.000 C 300.534 298.587,300.723 297.875,300.832 297.417 C 300.940 296.958,301.129 296.321,301.250 296.000 C 301.372 295.679,301.668 294.742,301.907 293.917 C 302.146 293.092,302.419 292.192,302.515 291.917 C 302.610 291.642,302.803 291.042,302.944 290.583 C 303.085 290.125,303.300 289.487,303.421 289.167 C 303.542 288.846,304.022 287.571,304.488 286.333 C 304.953 285.096,305.447 283.871,305.584 283.611 C 305.721 283.352,305.833 283.066,305.833 282.976 C 305.833 282.886,306.011 282.424,306.227 281.948 C 306.444 281.472,306.717 280.821,306.833 280.500 C 307.358 279.058,309.005 275.657,309.335 275.333 C 309.889 274.790,311.491 271.674,311.497 271.129 C 311.501 270.766,310.812 269.333,310.633 269.333 C 310.560 269.333,310.500 269.253,310.500 269.156 C 310.500 268.669,309.137 267.223,308.125 266.635 C 307.781 266.435,307.500 266.211,307.500 266.136 C 307.500 266.061,307.387 266.000,307.250 266.000 C 307.112 266.000,307.000 265.941,307.000 265.869 C 307.000 265.797,306.794 265.614,306.542 265.462 C 306.290 265.310,305.896 265.010,305.667 264.796 C 305.438 264.582,304.987 264.225,304.667 264.003 C 304.346 263.781,304.046 263.555,304.000 263.500 C 302.567 261.790,297.505 260.382,294.167 260.764 M177.583 266.691 C 175.650 266.932,174.283 267.202,173.667 267.464 C 173.346 267.601,172.933 267.777,172.750 267.856 C 172.218 268.084,170.172 268.825,169.086 269.183 C 168.538 269.363,168.017 269.583,167.928 269.672 C 167.839 269.761,167.631 269.833,167.464 269.833 C 167.298 269.833,167.032 269.901,166.873 269.985 C 166.714 270.068,165.983 270.376,165.250 270.670 C 163.316 271.444,163.341 271.434,162.250 271.910 C 161.700 272.150,161.137 272.418,161.000 272.507 C 160.862 272.595,160.591 272.737,160.397 272.821 C 159.916 273.031,158.185 274.454,157.669 275.063 C 156.240 276.751,155.884 278.064,155.667 282.449 C 155.567 284.448,155.376 287.433,155.242 289.083 C 155.108 290.733,154.999 292.487,154.999 292.981 C 155.001 294.415,154.566 297.809,153.897 301.583 C 153.767 302.317,153.582 303.367,153.485 303.917 C 153.388 304.467,153.209 305.404,153.086 306.000 C 152.963 306.596,152.775 307.533,152.669 308.083 C 152.563 308.633,152.374 309.496,152.248 310.000 C 152.123 310.504,151.945 311.254,151.854 311.667 C 151.762 312.079,151.643 312.604,151.589 312.833 C 151.431 313.504,150.539 316.836,150.249 317.833 C 150.103 318.337,149.916 319.050,149.833 319.417 C 149.749 319.783,149.557 320.533,149.404 321.083 C 148.987 322.593,148.467 325.082,148.449 325.667 C 148.444 325.804,148.456 326.967,148.475 328.250 L 148.509 330.583 149.463 331.029 C 150.924 331.711,153.546 332.604,155.167 332.971 C 156.986 333.383,158.191 333.659,159.690 334.008 C 161.159 334.351,161.383 334.364,162.298 334.161 L 163.298 333.939 163.858 332.777 C 164.165 332.137,164.698 331.329,165.042 330.980 C 165.385 330.632,165.667 330.196,165.667 330.012 C 165.667 329.828,165.772 329.432,165.901 329.131 C 166.231 328.363,166.667 326.855,166.667 326.483 C 166.667 326.312,166.738 325.852,166.825 325.461 C 166.971 324.801,167.252 323.402,167.685 321.167 C 167.783 320.662,167.964 319.800,168.087 319.250 C 168.210 318.700,168.396 317.688,168.499 317.000 C 168.603 316.313,168.794 315.112,168.924 314.333 C 169.380 311.610,169.650 309.906,169.836 308.583 C 169.939 307.850,170.127 306.575,170.254 305.750 C 170.381 304.925,170.567 303.500,170.667 302.583 C 170.767 301.667,170.928 300.317,171.026 299.583 C 171.358 297.081,171.393 291.504,171.103 287.253 C 170.953 285.051,170.752 281.938,170.658 280.333 C 170.563 278.729,170.404 276.727,170.306 275.884 C 169.968 272.999,169.839 273.165,175.093 269.703 C 175.271 269.586,175.548 269.446,175.708 269.392 C 175.869 269.339,176.000 269.228,176.000 269.147 C 176.000 269.066,176.107 269.000,176.238 269.000 C 176.369 269.000,176.575 268.906,176.696 268.792 C 176.818 268.677,177.125 268.476,177.381 268.344 C 178.356 267.840,179.554 266.458,178.958 266.523 C 178.844 266.535,178.225 266.611,177.583 266.691 M304.751 276.291 C 300.523 284.811,300.314 285.302,298.354 291.333 C 296.971 295.586,295.780 300.165,295.165 303.583 C 294.167 309.136,293.437 312.961,293.003 314.917 C 292.388 317.687,291.973 319.792,291.424 322.917 C 290.296 329.332,289.839 330.923,289.890 328.250 C 289.924 326.457,290.284 324.411,291.925 316.667 C 292.148 315.612,292.589 313.438,292.905 311.833 C 293.220 310.229,293.667 308.129,293.899 307.167 C 294.130 306.204,294.509 304.329,294.739 303.000 C 296.560 292.510,300.442 281.904,305.001 274.965 C 306.104 273.287,306.019 273.736,304.751 276.291 M159.083 287.598 C 159.081 295.499,157.629 305.121,154.979 314.787 C 154.607 316.141,154.011 318.562,153.653 320.166 C 153.106 322.625,152.206 326.135,152.083 326.296 C 151.572 326.962,151.629 324.337,152.147 323.370 C 152.233 323.209,152.426 322.478,152.575 321.747 C 152.724 321.015,152.992 319.892,153.169 319.250 C 153.347 318.608,153.645 317.338,153.832 316.427 C 154.019 315.516,154.350 314.203,154.568 313.510 C 154.786 312.817,155.051 311.688,155.157 311.000 C 155.262 310.313,155.690 308.327,156.107 306.588 C 157.579 300.447,158.340 294.498,158.441 288.333 C 158.521 283.453,158.564 282.938,158.881 283.044 C 159.033 283.095,159.083 284.230,159.083 287.598 M145.205 339.608 C 144.763 339.793,143.724 342.511,143.495 344.083 C 143.428 344.542,143.221 345.629,143.035 346.500 C 142.849 347.371,142.577 348.758,142.430 349.583 C 141.871 352.731,141.796 353.104,141.579 353.833 C 141.273 354.860,140.881 356.415,140.675 357.417 C 140.581 357.875,140.390 358.742,140.252 359.344 C 140.113 359.946,140.000 360.601,140.000 360.800 C 140.000 360.999,139.929 361.482,139.842 361.873 C 139.262 364.487,139.084 366.212,138.836 371.661 C 138.687 374.930,138.502 376.730,137.924 380.529 C 137.680 382.128,137.000 388.833,137.000 389.632 C 137.000 390.042,137.090 390.118,137.792 390.310 C 138.227 390.429,138.846 390.625,139.167 390.747 C 139.871 391.013,141.891 391.657,142.583 391.835 C 142.858 391.906,143.533 392.091,144.083 392.247 C 144.633 392.402,145.308 392.590,145.583 392.664 C 148.912 393.561,150.198 393.894,150.803 394.016 C 151.199 394.096,151.586 394.200,151.665 394.249 C 151.743 394.297,152.207 394.419,152.695 394.519 C 153.184 394.619,153.846 394.761,154.167 394.836 C 156.979 395.489,160.698 396.248,162.333 396.502 C 162.929 396.595,163.634 396.745,163.900 396.835 C 165.091 397.241,165.457 397.087,165.585 396.125 C 165.649 395.644,166.214 392.175,166.840 388.417 C 167.466 384.658,168.211 379.971,168.495 378.000 C 169.213 373.017,168.138 373.334,177.777 375.258 C 193.626 378.420,201.853 379.184,217.333 378.932 C 236.075 378.626,242.236 378.490,243.833 378.344 C 249.614 377.817,252.451 377.655,258.500 377.505 C 262.212 377.413,265.813 377.292,266.500 377.237 C 268.363 377.086,268.815 377.894,269.166 382.000 C 269.319 383.791,269.816 387.366,269.927 387.481 C 269.986 387.542,270.482 387.374,271.583 386.922 C 271.858 386.809,272.346 386.622,272.667 386.507 C 272.987 386.392,273.475 386.199,273.750 386.079 C 274.025 385.959,275.300 385.431,276.583 384.905 C 277.867 384.380,279.029 383.894,279.167 383.825 C 279.304 383.757,279.979 383.457,280.667 383.160 C 283.996 381.721,287.697 379.944,292.882 377.298 L 294.093 376.680 294.389 374.298 C 294.551 372.988,294.759 371.242,294.850 370.417 C 294.942 369.592,295.123 368.279,295.254 367.500 C 296.138 362.233,296.343 358.297,295.810 356.833 C 295.660 356.421,295.210 355.053,294.810 353.793 C 294.411 352.533,294.025 351.502,293.955 351.501 C 293.624 351.498,292.814 353.165,292.551 354.390 C 291.792 357.922,287.137 361.526,283.694 361.248 C 280.851 361.018,278.929 358.723,278.599 355.162 C 278.421 353.242,277.436 351.161,276.072 349.822 L 275.380 349.143 267.315 349.072 C 262.879 349.033,258.387 348.927,257.333 348.837 C 252.106 348.388,246.423 348.325,239.417 348.639 C 232.344 348.957,228.037 348.883,222.750 348.355 C 219.276 348.007,216.026 347.833,213.006 347.833 C 210.096 347.833,208.190 347.652,205.167 347.087 C 204.073 346.883,200.641 346.712,191.917 346.428 C 190.633 346.386,188.721 346.275,187.667 346.181 C 186.612 346.088,184.625 345.928,183.250 345.828 C 181.875 345.727,179.925 345.543,178.917 345.419 C 177.908 345.295,176.183 345.107,175.083 345.002 C 173.146 344.817,172.548 344.733,167.917 343.992 C 166.725 343.802,165.300 343.577,164.750 343.493 C 164.200 343.409,163.488 343.264,163.168 343.170 C 161.488 342.679,160.469 343.644,159.687 346.469 C 159.109 348.554,158.820 348.926,155.501 351.869 C 154.162 353.056,152.035 353.174,149.899 352.180 C 147.669 351.142,147.035 349.509,146.852 344.333 C 146.704 340.112,146.360 339.127,145.205 339.608 M151.000 341.773 L 150.999 342.917 152.106 342.860 C 153.441 342.791,154.459 343.052,155.339 343.690 L 155.996 344.166 156.433 343.458 C 156.673 343.069,156.971 342.588,157.095 342.390 C 157.345 341.993,157.162 341.833,156.459 341.833 C 156.269 341.833,155.731 341.727,155.265 341.598 C 154.055 341.262,152.799 340.970,151.542 340.732 L 151.000 340.630 151.000 341.773 M151.726 344.339 C 149.502 345.024,149.238 348.092,151.281 349.497 C 153.593 351.086,156.664 348.096,155.349 345.535 C 154.799 344.464,153.119 343.910,151.726 344.339 M153.660 345.247 C 153.923 345.382,154.294 345.692,154.485 345.936 C 155.761 347.557,153.221 349.725,151.490 348.493 C 149.692 347.213,151.688 344.227,153.660 345.247 M288.417 348.043 C 287.592 348.115,285.792 348.286,284.417 348.422 C 283.042 348.559,281.560 348.669,281.125 348.668 C 280.690 348.667,280.332 348.723,280.331 348.792 C 280.329 348.884,281.240 350.780,281.781 351.809 C 281.798 351.841,282.264 351.588,282.816 351.247 C 284.439 350.245,285.849 350.245,287.305 351.246 C 288.167 351.839,288.332 351.842,288.335 351.264 C 288.337 350.812,289.072 349.239,289.611 348.532 C 290.130 347.851,290.217 347.887,288.417 348.043 M164.917 349.672 C 167.512 349.846,170.061 350.134,172.917 350.576 C 173.833 350.718,177.246 350.983,180.500 351.166 C 186.443 351.499,191.868 351.932,192.333 352.110 C 192.471 352.162,195.133 352.265,198.250 352.339 C 201.943 352.427,204.671 352.574,206.083 352.762 C 207.275 352.921,208.700 353.040,209.250 353.026 C 209.800 353.013,211.188 353.082,212.333 353.179 C 213.479 353.277,215.692 353.420,217.250 353.497 C 218.808 353.573,221.283 353.790,222.750 353.979 C 225.334 354.311,229.322 354.488,241.167 354.796 C 246.381 354.931,246.672 354.931,258.833 354.769 C 265.407 354.682,268.728 354.574,269.833 354.412 C 271.398 354.183,272.833 354.237,272.833 354.526 C 272.833 355.006,271.025 355.156,263.083 355.336 C 259.600 355.415,254.732 355.569,252.266 355.679 C 247.620 355.885,238.131 355.691,234.750 355.320 C 233.925 355.230,232.350 355.159,231.250 355.162 C 227.687 355.175,214.122 354.164,211.010 353.654 C 210.500 353.570,209.071 353.501,207.833 353.501 C 205.851 353.500,200.267 353.171,193.583 352.662 C 191.579 352.510,187.714 352.255,181.083 351.838 C 175.834 351.507,173.878 351.328,167.333 350.576 C 165.362 350.350,163.361 350.123,162.887 350.072 C 162.412 350.021,161.934 349.871,161.825 349.739 C 161.582 349.447,161.550 349.447,164.917 349.672 M283.993 352.384 C 282.680 353.078,282.191 354.554,282.817 355.933 C 283.861 358.230,288.134 357.872,288.588 355.450 C 289.057 352.953,286.343 351.141,283.993 352.384 M287.119 353.564 C 288.928 355.538,285.953 357.859,284.027 355.976 C 283.318 355.282,283.201 354.750,283.599 354.026 C 284.332 352.692,286.107 352.460,287.119 353.564 M170.270 375.542 C 170.139 375.748,169.981 376.329,169.920 376.833 C 169.858 377.337,169.630 378.837,169.413 380.167 C 169.196 381.496,168.897 383.483,168.750 384.583 C 168.375 387.375,167.715 391.614,167.179 394.667 L 166.726 397.250 167.155 397.362 C 167.390 397.424,168.221 397.558,169.000 397.661 C 169.779 397.764,171.092 397.952,171.917 398.078 C 172.742 398.205,174.167 398.388,175.083 398.486 C 176.000 398.583,177.762 398.773,179.000 398.909 C 181.204 399.150,182.945 399.282,189.500 399.706 C 193.689 399.977,206.301 399.978,210.500 399.707 C 216.521 399.319,218.574 399.162,220.750 398.922 C 221.942 398.791,223.704 398.600,224.667 398.498 C 225.629 398.396,227.054 398.211,227.833 398.085 C 228.612 397.960,229.887 397.774,230.667 397.672 C 232.044 397.491,233.604 397.229,236.167 396.748 C 236.854 396.619,237.904 396.432,238.500 396.331 C 239.096 396.230,240.033 396.046,240.583 395.922 C 241.133 395.798,242.033 395.609,242.583 395.503 C 243.133 395.397,243.996 395.209,244.500 395.086 C 245.004 394.962,246.317 394.659,247.417 394.412 C 248.517 394.166,249.607 393.894,249.840 393.809 C 250.072 393.725,250.822 393.515,251.506 393.344 C 252.789 393.024,254.191 392.642,255.500 392.258 C 255.912 392.137,256.813 391.883,257.500 391.693 C 258.188 391.503,259.200 391.191,259.750 391.001 C 260.300 390.811,261.162 390.545,261.667 390.410 C 262.171 390.275,262.771 390.081,263.000 389.979 C 263.229 389.877,263.867 389.658,264.417 389.492 C 268.137 388.368,268.719 388.057,268.589 387.259 C 268.528 386.887,268.415 386.058,268.336 385.417 C 267.518 378.703,267.562 378.912,266.934 378.673 C 266.266 378.419,252.471 378.781,248.250 379.163 C 246.209 379.348,241.739 379.569,238.167 379.663 C 234.637 379.755,229.500 379.906,226.750 379.997 C 216.764 380.330,213.830 380.362,209.083 380.187 C 201.821 379.918,197.420 379.689,195.750 379.492 C 191.473 378.988,185.382 378.018,182.083 377.315 C 178.409 376.532,171.160 375.162,170.712 375.165 C 170.600 375.166,170.401 375.335,170.270 375.542 M183.250 383.668 C 186.729 383.918,190.782 384.145,195.240 384.341 C 199.492 384.527,202.074 384.771,204.780 385.241 C 211.267 386.367,222.071 386.920,237.417 386.911 C 249.234 386.904,256.506 386.456,262.000 385.398 C 262.321 385.336,262.544 385.330,262.495 385.384 C 262.307 385.594,256.265 386.676,253.083 387.070 C 248.110 387.686,246.472 387.750,235.667 387.750 C 223.369 387.750,219.274 387.545,209.083 386.417 C 204.617 385.923,202.705 385.754,197.750 385.418 C 195.642 385.274,192.904 385.088,191.667 385.004 C 190.429 384.920,186.434 384.682,182.789 384.475 C 178.408 384.226,176.181 384.039,176.219 383.924 C 176.354 383.516,179.522 383.400,183.250 383.668 " stroke="none" fill="#343c44" fill-rule="evenodd"></path><path id="path1" d="M146.784 326.512 C 144.340 328.131,143.148 331.967,144.121 335.083 C 145.071 338.126,145.766 339.493,146.485 339.729 C 147.377 340.023,147.525 340.660,147.670 344.833 C 147.877 350.797,148.702 352.107,152.366 352.298 C 155.517 352.462,157.812 350.502,158.657 346.926 C 159.265 344.354,160.013 343.353,161.532 343.078 C 162.068 342.981,165.667 339.808,165.667 339.432 C 165.667 339.387,165.849 339.153,166.072 338.913 C 168.588 336.198,168.263 330.667,165.589 330.667 C 164.875 330.667,163.494 333.253,163.619 334.358 C 163.730 335.340,163.043 336.468,161.454 337.917 C 160.851 338.467,159.769 339.452,159.050 340.106 C 158.331 340.760,157.632 341.509,157.497 341.769 C 157.361 342.030,157.002 342.657,156.698 343.163 C 156.201 343.993,156.156 344.173,156.240 345.000 C 156.608 348.637,156.529 349.120,155.390 350.199 C 151.243 354.126,146.107 347.881,150.053 343.710 C 150.963 342.747,151.273 341.201,150.793 340.013 C 150.392 339.020,150.111 338.411,150.017 338.333 C 149.890 338.228,149.122 336.673,148.660 335.583 C 147.740 333.415,147.629 332.533,148.125 331.305 C 148.364 330.713,148.408 330.172,148.366 328.292 C 148.307 325.635,148.233 325.552,146.784 326.512 M274.667 336.524 C 271.889 337.287,270.844 339.874,271.851 343.489 C 272.417 345.520,274.766 349.000,275.571 349.000 C 276.895 349.000,278.991 352.726,279.334 355.690 C 280.240 363.516,289.919 362.247,291.587 354.083 C 292.029 351.922,292.741 350.746,294.012 350.080 C 294.410 349.872,295.092 348.998,295.637 348.000 C 296.444 346.524,297.167 345.008,297.167 344.793 C 297.167 344.654,297.279 344.271,297.417 343.942 C 297.806 343.011,297.755 340.409,297.329 339.445 C 296.518 337.612,293.836 335.770,293.208 336.616 C 292.290 337.854,291.973 340.046,292.672 340.335 C 294.491 341.089,293.229 345.437,290.624 347.383 C 290.281 347.640,290.000 347.947,290.000 348.066 C 290.000 348.185,289.858 348.410,289.685 348.566 C 288.563 349.582,288.135 351.994,288.882 353.099 C 291.024 356.268,286.976 360.687,283.583 358.883 C 281.252 357.644,280.342 355.284,281.332 353.047 C 281.787 352.020,281.773 351.927,280.917 350.277 C 280.504 349.482,280.167 348.754,280.167 348.659 C 280.167 348.365,278.805 346.648,277.661 345.500 C 275.963 343.797,275.088 341.258,275.982 340.632 C 276.467 340.292,275.886 336.278,275.362 336.348 C 275.300 336.357,274.987 336.436,274.667 336.524 " stroke="none" fill="#d3d3d3" fill-rule="evenodd"></path><path id="path2" d="M305.001 274.965 C 300.442 281.904,296.560 292.510,294.739 303.000 C 294.509 304.329,294.130 306.204,293.899 307.167 C 293.667 308.129,293.220 310.229,292.905 311.833 C 292.589 313.438,292.148 315.612,291.925 316.667 C 290.284 324.411,289.924 326.457,289.890 328.250 C 289.839 330.923,290.296 329.332,291.424 322.917 C 291.973 319.792,292.388 317.687,293.003 314.917 C 293.437 312.961,294.167 309.136,295.165 303.583 C 295.780 300.165,296.971 295.586,298.354 291.333 C 300.314 285.302,300.523 284.811,304.751 276.291 C 306.019 273.736,306.104 273.287,305.001 274.965 M158.597 283.363 C 158.553 283.576,158.482 285.813,158.441 288.333 C 158.340 294.498,157.579 300.447,156.107 306.588 C 155.690 308.327,155.262 310.313,155.157 311.000 C 155.051 311.688,154.786 312.817,154.568 313.510 C 154.350 314.203,154.019 315.516,153.832 316.427 C 153.645 317.338,153.347 318.608,153.169 319.250 C 152.992 319.892,152.724 321.015,152.575 321.747 C 152.426 322.478,152.233 323.209,152.147 323.370 C 151.629 324.337,151.572 326.962,152.083 326.296 C 152.206 326.135,153.106 322.625,153.653 320.166 C 154.011 318.562,154.607 316.141,154.979 314.787 C 156.619 308.805,158.264 300.103,158.861 294.250 C 159.152 291.400,159.167 283.140,158.881 283.044 C 158.770 283.007,158.642 283.150,158.597 283.363 M148.399 328.167 C 148.399 329.404,148.425 329.910,148.457 329.292 C 148.489 328.673,148.489 327.660,148.457 327.042 C 148.425 326.423,148.399 326.929,148.399 328.167 M146.513 340.579 C 146.776 341.328,146.833 341.953,146.833 344.065 C 146.833 350.378,148.408 352.717,152.675 352.741 C 154.394 352.751,154.971 352.574,155.412 351.900 L 155.660 351.521 154.731 351.947 C 152.824 352.820,149.869 352.237,148.813 350.779 C 147.974 349.621,147.806 348.746,147.670 344.833 C 147.545 341.248,147.391 340.296,146.864 339.875 C 146.292 339.418,146.182 339.639,146.513 340.579 M150.856 342.591 C 150.844 342.779,150.526 343.229,150.151 343.591 C 148.431 345.252,148.006 347.216,148.994 348.939 C 151.295 352.952,156.792 351.591,156.422 347.099 C 156.361 346.357,156.297 345.322,156.280 344.800 C 156.263 344.262,156.187 343.913,156.105 343.995 C 156.023 344.077,155.683 343.939,155.321 343.677 C 154.459 343.053,153.433 342.791,152.112 342.860 C 151.121 342.911,151.005 342.884,150.945 342.583 C 150.880 342.258,150.878 342.258,150.856 342.591 M161.132 343.165 C 159.868 343.546,159.227 344.518,158.657 346.919 C 158.248 348.639,157.890 349.407,157.044 350.383 C 156.709 350.768,156.974 350.561,157.632 349.924 C 158.942 348.654,159.202 348.215,159.687 346.469 C 160.089 345.017,160.483 344.239,161.172 343.542 C 161.466 343.244,161.679 343.006,161.645 343.014 C 161.611 343.022,161.380 343.090,161.132 343.165 M154.510 344.612 C 156.341 345.681,155.913 348.599,153.763 349.701 C 151.122 351.055,148.509 347.016,150.700 344.969 C 151.602 344.126,153.391 343.959,154.510 344.612 M151.816 345.377 C 150.043 346.559,150.660 348.833,152.754 348.833 C 154.329 348.833,155.381 347.074,154.485 345.936 C 153.732 344.979,152.730 344.769,151.816 345.377 M276.112 349.875 C 277.569 351.417,278.420 353.226,278.599 355.162 C 278.932 358.754,280.844 361.014,283.750 361.253 C 284.921 361.349,285.264 361.078,284.158 360.931 C 281.595 360.591,279.658 358.486,279.334 355.690 C 279.034 353.104,277.998 350.904,276.458 349.586 C 275.406 348.685,275.172 348.880,276.112 349.875 M161.825 349.739 C 161.934 349.871,162.412 350.021,162.887 350.072 C 163.361 350.123,165.362 350.350,167.333 350.576 C 173.878 351.328,175.834 351.507,181.083 351.838 C 187.714 352.255,191.579 352.510,193.583 352.662 C 200.267 353.171,205.851 353.500,207.833 353.501 C 209.071 353.501,210.500 353.570,211.010 353.654 C 214.122 354.164,227.687 355.175,231.250 355.162 C 232.350 355.159,233.925 355.230,234.750 355.320 C 238.131 355.691,247.620 355.885,252.266 355.679 C 254.732 355.569,259.600 355.415,263.083 355.336 C 271.025 355.156,272.833 355.006,272.833 354.526 C 272.833 354.237,271.398 354.183,269.833 354.412 C 268.728 354.574,265.407 354.682,258.833 354.769 C 246.672 354.931,246.381 354.931,241.167 354.796 C 229.322 354.488,225.334 354.311,222.750 353.979 C 221.283 353.790,218.808 353.573,217.250 353.497 C 215.692 353.420,213.479 353.277,212.333 353.179 C 211.188 353.082,209.800 353.013,209.250 353.026 C 208.700 353.040,207.275 352.921,206.083 352.762 C 204.671 352.574,201.943 352.427,198.250 352.339 C 195.133 352.265,192.471 352.162,192.333 352.110 C 191.868 351.932,186.443 351.499,180.500 351.166 C 177.246 350.983,173.833 350.718,172.917 350.576 C 170.061 350.134,167.512 349.846,164.917 349.672 C 161.550 349.447,161.582 349.447,161.825 349.739 M293.500 350.432 C 292.375 351.363,291.996 352.082,291.592 354.054 C 291.225 355.849,290.559 357.230,289.402 358.594 L 288.422 359.750 289.723 358.688 C 291.402 357.317,292.113 356.247,292.528 354.465 C 292.853 353.068,293.461 351.798,293.931 351.535 C 294.116 351.432,294.174 351.188,294.136 350.670 L 294.083 349.948 293.500 350.432 M283.487 350.886 C 282.174 351.575,281.669 351.913,281.668 352.104 C 281.667 352.207,281.516 352.631,281.332 353.047 C 279.272 357.705,285.504 361.582,288.579 357.555 C 289.628 356.182,289.767 354.422,288.928 353.154 C 288.700 352.809,288.464 352.330,288.403 352.089 C 288.343 351.848,288.253 351.692,288.203 351.741 C 288.153 351.791,287.862 351.641,287.556 351.407 C 286.250 350.411,284.757 350.220,283.487 350.886 M286.883 352.225 C 289.406 353.279,289.090 357.012,286.444 357.405 C 283.580 357.831,281.689 355.753,282.884 353.493 C 283.566 352.204,285.423 351.615,286.883 352.225 M284.500 353.130 C 284.179 353.305,283.774 353.708,283.599 354.026 C 282.565 355.906,285.828 357.659,287.240 355.982 C 288.624 354.336,286.447 352.071,284.500 353.130 M169.380 374.107 C 169.057 374.378,168.947 374.862,168.495 378.000 C 168.211 379.971,167.466 384.658,166.840 388.417 C 165.237 398.041,165.293 397.095,166.321 397.206 C 166.804 397.259,167.610 393.072,168.750 384.583 C 168.897 383.483,169.197 381.496,169.415 380.167 C 169.634 378.837,169.863 377.316,169.926 376.785 C 169.989 376.255,170.169 375.662,170.326 375.468 L 170.612 375.114 172.764 375.498 C 175.740 376.029,179.316 376.726,182.083 377.315 C 185.384 378.018,191.476 378.989,195.750 379.492 C 197.420 379.689,201.821 379.918,209.083 380.187 C 213.830 380.362,216.764 380.330,226.750 379.997 C 229.500 379.906,234.637 379.755,238.167 379.663 C 241.739 379.569,246.209 379.348,248.250 379.163 C 252.471 378.781,266.266 378.419,266.934 378.673 C 267.419 378.858,267.585 379.254,267.733 380.583 C 267.871 381.815,268.279 384.978,268.522 386.696 L 268.704 387.976 269.144 387.790 C 269.864 387.485,269.872 387.445,269.588 385.561 C 269.438 384.565,269.248 382.962,269.166 382.000 C 268.815 377.894,268.363 377.086,266.500 377.237 C 265.813 377.292,262.212 377.413,258.500 377.505 C 252.451 377.655,249.614 377.817,243.833 378.344 C 242.236 378.490,236.075 378.626,217.333 378.932 C 201.853 379.184,193.626 378.420,177.777 375.258 C 170.106 373.727,169.870 373.695,169.380 374.107 M176.847 383.647 C 175.207 383.943,176.430 384.114,182.789 384.475 C 186.434 384.682,190.429 384.920,191.667 385.004 C 192.904 385.088,195.642 385.274,197.750 385.418 C 202.705 385.754,204.617 385.923,209.083 386.417 C 219.274 387.545,223.369 387.750,235.667 387.750 C 246.472 387.750,248.110 387.686,253.083 387.070 C 256.265 386.676,262.307 385.594,262.495 385.384 C 262.544 385.330,262.321 385.336,262.000 385.398 C 250.862 387.543,217.517 387.452,204.780 385.241 C 202.074 384.771,199.492 384.527,195.240 384.341 C 190.782 384.145,186.729 383.918,183.250 383.668 C 180.865 383.497,177.735 383.486,176.847 383.647 " stroke="none" fill="#5b737b" fill-rule="evenodd"></path></g></svg>