<svg id="svg" version="1.1" xmlns="http://www.w3.org/2000/svg" xmlns:xlink="http://www.w3.org/1999/xlink" viewBox="0, 0, 400,400"><g id="svgg"><path id="path0" d="M299.134 266.394 C 296.356 267.301,292.913 272.681,290.181 280.384 C 289.748 281.605,288.886 284.034,288.266 285.783 C 286.272 291.401,285.541 294.409,284.592 300.900 C 283.591 307.749,283.042 317.707,283.378 322.936 C 283.860 330.460,283.870 330.314,282.878 330.808 C 280.565 331.959,266.877 334.468,255.249 335.872 C 252.741 336.174,248.638 336.715,246.131 337.073 C 241.591 337.720,237.745 338.182,234.433 338.477 C 232.102 338.685,218.251 338.684,214.457 338.477 C 200.843 337.731,194.899 337.070,183.923 335.080 C 168.694 332.320,165.588 331.549,157.536 328.534 C 154.513 327.402,154.124 327.202,153.944 326.685 C 153.635 325.799,155.143 318.782,159.072 302.819 C 163.212 286.000,164.653 281.777,168.122 276.305 C 170.354 272.783,172.161 271.120,177.846 267.357 C 179.166 266.484,179.054 266.432,177.304 267.109 C 169.553 270.104,163.983 275.041,161.240 281.344 C 159.780 284.698,158.830 288.082,154.895 303.942 C 151.169 318.960,150.894 320.251,149.781 328.009 C 148.812 334.755,148.291 336.680,145.800 342.711 C 143.245 348.895,142.741 350.495,141.825 355.309 C 141.074 359.257,140.875 360.892,140.613 365.267 C 140.340 369.830,140.027 374.046,139.581 379.124 C 139.345 381.825,138.974 390.494,139.090 390.597 C 139.285 390.769,147.407 393.079,150.990 393.982 C 163.558 397.149,175.612 398.951,189.802 399.785 C 193.278 399.990,206.636 399.989,210.138 399.784 C 237.373 398.193,261.199 392.246,285.063 381.083 C 289.499 379.008,296.701 375.272,296.701 375.045 C 296.701 374.694,295.162 368.724,293.283 361.788 C 289.343 347.237,288.759 344.504,288.424 339.032 C 288.357 337.932,288.277 336.960,288.247 336.872 C 288.144 336.574,287.701 332.763,287.525 330.654 C 287.083 325.359,286.983 314.235,287.339 310.078 C 288.341 298.379,289.990 291.216,294.205 280.264 C 296.453 274.421,300.694 268.506,302.636 268.506 C 303.152 268.506,303.193 268.257,302.805 267.456 C 302.293 266.399,300.610 265.912,299.134 266.394 " stroke="none" fill-rule="evenodd"></path></g></svg>