<svg id="svg" version="1.1" xmlns="http://www.w3.org/2000/svg" xmlns:xlink="http://www.w3.org/1999/xlink" width="400" height="400" viewBox="0, 0, 400,400"><g id="svgg"><path id="path0" d="M209.114 73.006 C 204.326 73.369,202.864 73.570,198.167 74.509 C 195.405 75.061,193.213 75.623,189.750 76.664 C 189.011 76.886,186.801 77.653,186.417 77.821 C 186.233 77.901,185.821 78.059,185.500 78.173 C 184.073 78.678,178.961 81.174,178.487 81.598 C 178.342 81.728,178.162 81.833,178.086 81.833 C 178.010 81.833,177.702 82.021,177.402 82.250 C 177.101 82.479,176.782 82.667,176.692 82.667 C 176.602 82.667,176.503 82.724,176.472 82.793 C 176.442 82.863,175.873 83.288,175.208 83.740 C 174.543 84.191,173.868 84.680,173.708 84.827 C 173.548 84.975,173.252 85.209,173.052 85.348 C 171.539 86.395,167.303 90.377,165.248 92.682 C 164.791 93.195,164.154 93.906,163.833 94.262 C 161.195 97.190,157.818 101.968,155.715 105.750 C 154.706 107.564,152.401 112.369,151.894 113.715 C 151.749 114.101,151.530 114.645,151.407 114.924 C 150.800 116.303,149.536 119.942,148.920 122.083 C 148.762 122.633,148.559 123.308,148.469 123.583 C 148.380 123.858,148.129 124.741,147.911 125.544 C 147.694 126.347,147.322 127.697,147.085 128.544 C 146.624 130.187,146.551 130.467,146.007 132.667 C 145.435 134.981,145.202 136.022,145.001 137.167 C 144.896 137.762,144.734 138.587,144.640 139.000 C 144.204 140.909,143.500 146.265,143.500 147.669 C 143.500 149.742,144.077 153.383,144.603 154.631 C 144.730 154.932,144.833 155.294,144.833 155.436 C 144.833 155.577,145.179 156.419,145.600 157.305 C 147.022 160.291,147.344 162.245,146.952 165.500 C 146.745 167.228,145.651 171.531,144.961 173.333 C 144.742 173.905,143.981 176.480,143.902 176.919 C 143.855 177.180,143.777 177.457,143.729 177.535 C 142.700 179.198,143.329 189.960,144.743 194.917 C 144.900 195.467,145.093 196.142,145.171 196.417 C 145.503 197.578,147.130 201.901,147.744 203.250 C 147.869 203.525,148.237 204.395,148.563 205.183 C 149.249 206.848,151.034 210.946,151.495 211.917 C 151.669 212.283,152.158 213.333,152.582 214.250 C 153.809 216.907,155.709 220.537,156.612 221.950 C 156.917 222.427,157.167 222.855,157.167 222.901 C 157.167 223.022,160.274 227.619,160.894 228.417 C 162.879 230.969,165.466 233.696,167.065 234.920 C 167.421 235.193,167.798 235.492,167.902 235.583 C 168.331 235.961,169.486 236.833,169.557 236.833 C 169.599 236.833,170.028 237.099,170.512 237.424 C 172.457 238.734,175.722 240.083,178.976 240.921 C 181.058 241.457,187.809 241.411,190.397 240.843 C 190.775 240.760,191.683 240.564,192.417 240.406 C 193.150 240.249,193.938 240.028,194.167 239.915 C 194.396 239.802,195.146 239.580,195.833 239.420 C 203.582 237.626,207.304 236.080,215.250 231.357 C 227.370 224.152,235.100 218.105,246.428 206.967 C 250.537 202.926,250.731 203.414,247.576 209.854 C 243.769 217.625,234.746 227.787,224.000 236.406 C 216.452 242.461,208.610 246.436,198.989 249.086 C 195.336 250.092,195.503 249.822,195.500 254.750 C 195.499 257.899,194.883 265.440,194.348 268.841 C 194.255 269.433,194.127 270.626,194.063 271.494 L 193.947 273.071 193.624 271.827 C 193.345 270.754,193.282 269.691,193.168 264.083 C 193.096 260.508,193.028 257.566,193.018 257.545 C 192.979 257.463,185.022 262.443,180.167 265.589 C 178.838 266.450,177.637 267.209,177.500 267.275 C 177.362 267.341,176.838 267.670,176.333 268.006 C 171.651 271.124,162.248 276.269,157.750 278.173 C 154.773 279.433,145.818 283.987,143.145 285.600 C 142.629 285.912,142.122 286.167,142.020 286.167 C 141.917 286.167,141.833 286.233,141.833 286.314 C 141.833 286.395,141.702 286.507,141.542 286.562 C 141.381 286.618,140.950 286.839,140.583 287.053 C 140.217 287.268,139.621 287.613,139.259 287.820 C 138.898 288.028,138.110 288.518,137.509 288.910 C 136.908 289.301,135.935 289.933,135.345 290.313 C 133.096 291.765,129.841 294.860,128.730 296.603 C 128.562 296.867,128.385 297.121,128.337 297.167 C 127.824 297.657,125.564 302.425,124.399 305.475 C 123.992 306.543,123.589 307.567,123.504 307.750 C 123.419 307.933,123.237 308.421,123.099 308.833 C 122.961 309.246,122.614 310.221,122.328 311.000 C 121.185 314.118,120.773 315.519,120.070 318.667 C 119.625 320.659,119.599 320.814,119.021 324.917 C 118.827 326.292,118.561 328.092,118.429 328.917 C 118.298 329.742,118.104 331.092,117.999 331.917 C 117.894 332.742,117.706 334.092,117.581 334.917 C 117.335 336.544,117.141 338.059,116.747 341.417 C 116.607 342.608,116.379 344.446,116.240 345.500 C 116.100 346.554,115.911 348.017,115.819 348.750 C 115.726 349.483,115.578 350.551,115.488 351.122 C 115.272 352.510,115.018 355.754,114.840 359.417 C 114.760 361.067,114.617 363.242,114.523 364.250 C 114.429 365.258,114.269 367.283,114.167 368.750 C 114.066 370.217,113.878 372.504,113.749 373.833 C 113.131 380.254,113.135 380.178,113.342 380.427 C 113.451 380.559,113.601 380.667,113.675 380.667 C 113.749 380.667,114.396 380.937,115.113 381.267 C 117.901 382.550,119.299 383.178,120.083 383.500 C 120.267 383.575,120.754 383.787,121.167 383.971 C 122.646 384.632,125.152 385.667,125.272 385.667 C 125.340 385.667,125.700 385.809,126.072 385.982 C 126.445 386.156,127.500 386.575,128.417 386.912 C 129.333 387.250,130.271 387.603,130.500 387.697 C 130.729 387.791,131.554 388.089,132.333 388.358 C 133.112 388.627,134.012 388.952,134.333 389.080 C 135.103 389.388,141.113 391.322,142.917 391.842 C 143.192 391.921,143.792 392.097,144.250 392.232 C 145.067 392.473,145.458 392.580,148.667 393.439 C 149.537 393.673,150.775 394.005,151.417 394.178 C 153.180 394.653,153.066 394.763,152.932 392.708 C 152.868 391.723,152.746 389.717,152.661 388.250 C 152.294 381.929,151.984 377.102,151.817 375.083 C 151.629 372.817,151.424 352.860,151.582 352.208 C 151.716 351.658,152.284 351.716,152.398 352.292 C 152.680 353.713,153.618 361.877,154.069 366.833 C 154.645 373.168,155.089 378.921,155.413 384.250 C 155.553 386.542,155.790 389.963,155.940 391.854 L 156.214 395.291 157.149 395.493 C 158.467 395.779,160.094 396.109,161.167 396.309 C 163.034 396.657,164.776 396.987,165.687 397.165 C 166.202 397.265,166.802 397.374,167.020 397.406 C 167.238 397.439,168.017 397.553,168.750 397.661 C 169.483 397.768,170.758 397.959,171.583 398.086 C 172.408 398.212,173.758 398.392,174.583 398.486 C 175.408 398.580,177.021 398.768,178.167 398.904 C 180.349 399.162,182.290 399.323,188.500 399.763 C 192.898 400.075,208.930 400.027,212.917 399.690 C 214.200 399.582,216.225 399.417,217.417 399.323 C 218.608 399.230,220.558 399.041,221.750 398.904 C 222.942 398.767,224.592 398.579,225.417 398.485 C 226.980 398.308,229.367 397.959,231.087 397.656 C 231.638 397.559,232.276 397.458,232.503 397.431 C 233.237 397.346,235.387 396.979,236.500 396.749 C 237.096 396.625,238.071 396.438,238.667 396.333 C 241.072 395.910,247.956 394.359,250.083 393.762 C 250.807 393.558,251.673 393.327,254.917 392.467 C 255.283 392.370,255.883 392.192,256.250 392.073 C 256.617 391.953,257.592 391.651,258.417 391.402 C 260.486 390.776,266.167 388.916,267.583 388.400 C 269.557 387.681,270.208 387.431,274.486 385.752 C 276.781 384.851,277.595 384.511,279.083 383.833 C 279.450 383.666,280.237 383.327,280.833 383.080 C 285.028 381.341,288.178 379.693,288.090 379.285 C 287.660 377.298,285.561 365.799,285.329 364.167 C 284.651 359.378,284.485 353.622,284.928 350.243 C 285.382 346.780,285.527 346.494,286.041 348.042 C 286.523 349.495,290.595 368.173,291.586 373.476 C 292.427 377.981,292.264 377.583,293.093 377.146 C 295.137 376.067,297.363 374.844,298.250 374.311 C 298.525 374.146,299.050 373.856,299.417 373.666 C 299.783 373.477,300.308 373.177,300.583 372.999 C 300.858 372.822,301.308 372.551,301.583 372.397 C 303.014 371.597,308.893 367.891,311.471 366.164 C 315.376 363.548,324.098 357.164,324.667 356.505 C 324.712 356.452,325.087 356.149,325.500 355.833 C 325.912 355.517,326.287 355.215,326.333 355.161 C 326.379 355.108,327.054 354.546,327.833 353.914 C 328.612 353.281,329.346 352.670,329.462 352.556 C 329.579 352.442,330.025 352.064,330.453 351.716 C 330.881 351.368,331.429 350.896,331.672 350.667 C 331.914 350.438,332.406 349.993,332.765 349.678 C 337.255 345.741,343.252 339.839,347.512 335.166 C 348.389 334.204,349.364 333.123,349.678 332.765 C 349.993 332.406,350.438 331.914,350.667 331.672 C 350.896 331.429,351.356 330.898,351.690 330.490 C 352.024 330.083,352.498 329.525,352.743 329.250 C 354.592 327.179,354.703 326.913,354.345 325.417 C 354.190 324.768,353.825 323.108,353.466 321.417 C 353.369 320.958,353.195 320.246,353.079 319.833 C 352.963 319.421,352.778 318.708,352.668 318.250 C 352.558 317.792,352.367 317.079,352.243 316.667 C 352.120 316.254,351.856 315.354,351.658 314.667 C 351.459 313.979,351.167 313.004,351.009 312.500 C 350.851 311.996,350.514 310.908,350.259 310.083 C 348.910 305.720,346.465 300.003,344.893 297.538 C 344.585 297.055,344.333 296.633,344.333 296.599 C 344.333 296.494,342.982 294.471,342.096 293.250 C 341.134 291.924,340.948 291.682,340.245 290.849 C 339.968 290.519,339.455 289.893,339.107 289.456 C 338.183 288.297,335.520 285.672,334.125 284.545 C 332.553 283.274,330.547 281.833,330.350 281.833 C 330.264 281.833,330.169 281.773,330.139 281.700 C 330.049 281.485,327.715 280.280,325.167 279.133 C 324.186 278.691,322.350 277.819,319.167 276.283 C 316.622 275.055,314.380 273.993,312.417 273.084 C 310.802 272.337,306.686 270.262,305.333 269.513 C 304.646 269.132,303.708 268.633,303.250 268.403 C 302.792 268.173,301.892 267.686,301.250 267.320 C 300.608 266.955,299.708 266.467,299.250 266.236 C 298.792 266.005,297.667 265.407,296.750 264.907 C 295.090 264.001,291.874 262.392,283.167 258.108 C 278.933 256.025,277.646 255.359,275.167 253.964 C 273.599 253.083,273.280 252.904,272.250 252.334 C 271.700 252.030,270.987 251.617,270.667 251.417 C 270.346 251.216,269.633 250.804,269.083 250.500 C 263.701 247.527,261.561 244.423,260.178 237.583 C 259.628 234.859,259.377 221.018,259.795 216.417 C 260.107 212.986,260.339 211.012,260.529 210.167 C 260.622 209.754,260.765 209.004,260.847 208.500 C 260.996 207.585,261.076 207.211,261.560 205.167 C 262.371 201.739,264.088 196.403,265.484 192.972 C 265.951 191.824,266.333 190.807,266.333 190.712 C 266.333 190.618,266.438 190.454,266.567 190.347 C 266.695 190.240,266.850 189.950,266.911 189.701 C 267.054 189.120,269.968 183.220,271.117 181.187 C 271.603 180.327,272.000 179.592,272.000 179.554 C 272.000 179.515,272.262 179.074,272.583 178.572 C 272.904 178.071,273.167 177.635,273.167 177.603 C 273.167 177.572,273.530 176.992,273.975 176.315 C 275.479 174.023,276.531 171.985,277.664 169.167 C 278.051 168.204,278.433 167.267,278.513 167.083 C 278.806 166.411,280.219 161.822,280.643 160.167 C 283.105 150.543,283.540 140.888,281.991 130.250 C 281.472 126.690,280.163 121.624,278.653 117.333 C 277.550 114.200,277.275 113.493,276.417 111.583 C 275.576 109.712,273.457 105.489,272.695 104.167 C 272.193 103.296,271.594 102.246,271.363 101.833 C 271.133 101.421,270.808 100.858,270.640 100.583 C 270.473 100.308,270.284 99.973,270.219 99.838 C 270.103 99.593,268.326 96.864,267.208 95.215 C 266.885 94.737,266.497 94.212,266.346 94.048 C 266.195 93.884,265.958 93.586,265.819 93.385 C 264.595 91.619,260.411 87.400,258.167 85.670 C 257.754 85.352,257.379 85.052,257.333 85.003 C 257.084 84.738,255.999 84.000,255.858 84.000 C 255.768 84.000,255.669 83.939,255.639 83.865 C 255.608 83.791,255.133 83.444,254.583 83.093 C 254.033 82.742,253.380 82.315,253.132 82.144 C 252.883 81.973,252.641 81.833,252.593 81.833 C 252.546 81.833,252.111 81.584,251.628 81.279 C 250.688 80.685,246.959 78.862,245.250 78.162 C 244.935 78.033,241.564 76.807,240.667 76.496 C 239.922 76.237,236.936 75.377,236.167 75.199 C 233.822 74.658,233.163 74.514,232.333 74.361 C 230.276 73.983,229.346 73.826,228.649 73.741 C 228.246 73.691,227.392 73.581,226.750 73.495 C 225.583 73.339,225.181 73.306,220.667 73.001 C 217.933 72.817,211.573 72.819,209.114 73.006 M230.831 172.416 C 233.730 173.915,229.751 179.324,225.083 180.229 C 221.932 180.839,221.765 180.857,220.916 180.668 C 218.231 180.073,217.596 178.115,219.722 176.986 C 220.287 176.685,221.762 175.842,223.000 175.112 C 227.306 172.572,229.603 171.781,230.831 172.416 M165.465 196.336 C 169.623 196.771,170.650 197.442,169.137 198.737 C 168.264 199.484,167.670 199.508,166.080 198.858 C 165.440 198.596,164.344 198.180,163.645 197.932 C 160.273 196.736,161.234 195.894,165.465 196.336 M182.667 286.747 C 184.751 286.911,186.817 287.163,188.833 287.499 C 189.887 287.674,191.650 287.893,192.750 287.985 C 195.296 288.199,196.351 288.478,198.417 289.484 C 200.118 290.313,204.093 292.892,204.387 293.358 C 204.865 294.116,203.813 295.053,202.875 294.703 C 202.623 294.609,202.042 294.437,201.583 294.320 C 201.125 294.204,199.963 293.814,199.000 293.454 C 197.328 292.828,191.204 291.195,184.417 289.566 C 182.675 289.148,180.968 288.734,180.624 288.646 C 179.030 288.239,179.378 286.327,181.000 286.583 C 181.229 286.620,181.979 286.693,182.667 286.747 M250.903 289.183 C 251.876 289.453,252.940 290.163,252.649 290.348 C 251.788 290.892,247.225 292.100,244.250 292.570 C 238.701 293.447,237.000 293.750,234.819 294.249 C 231.528 295.003,229.541 295.598,225.950 296.905 C 222.975 297.989,221.431 297.090,223.563 295.515 C 227.691 292.465,230.629 291.271,234.679 290.995 C 238.652 290.725,242.249 290.270,247.030 289.432 C 249.667 288.970,250.047 288.946,250.903 289.183 " stroke="none" fill="#fcecdc" fill-rule="evenodd"></path><path id="path1" d="M161.829 196.422 C 161.489 196.832,162.192 197.416,163.645 197.932 C 164.344 198.180,165.440 198.596,166.080 198.858 C 167.944 199.619,169.833 199.068,169.833 197.762 C 169.833 196.754,162.564 195.536,161.829 196.422 M246.428 206.967 C 235.100 218.105,227.370 224.152,215.250 231.357 C 207.305 236.080,203.556 237.636,195.833 239.420 C 195.146 239.578,194.471 239.763,194.333 239.830 C 194.118 239.936,194.072 241.071,194.000 248.018 C 193.918 256.001,193.886 256.434,193.334 257.083 C 192.899 257.595,193.142 269.970,193.624 271.827 L 193.947 273.071 194.063 271.494 C 194.127 270.626,194.255 269.433,194.348 268.841 C 194.883 265.440,195.499 257.899,195.500 254.750 C 195.503 249.822,195.336 250.092,198.989 249.086 C 208.610 246.436,216.452 242.461,224.000 236.406 C 234.746 227.787,243.769 217.625,247.576 209.854 C 250.731 203.414,250.537 202.926,246.428 206.967 M180.207 286.670 C 179.181 287.088,179.447 288.345,180.624 288.646 C 180.968 288.734,182.675 289.148,184.417 289.566 C 191.204 291.195,197.328 292.828,199.000 293.454 C 199.963 293.814,201.125 294.204,201.583 294.320 C 202.042 294.437,202.623 294.609,202.875 294.703 C 203.813 295.053,204.865 294.116,204.387 293.358 C 204.093 292.892,200.118 290.313,198.417 289.484 C 196.351 288.478,195.296 288.199,192.750 287.985 C 191.650 287.893,189.887 287.674,188.833 287.499 C 186.817 287.163,184.751 286.911,182.667 286.747 C 181.979 286.693,181.229 286.620,181.000 286.583 C 180.771 286.547,180.414 286.586,180.207 286.670 M247.030 289.432 C 242.249 290.270,238.652 290.725,234.679 290.995 C 230.629 291.271,227.691 292.465,223.563 295.515 C 221.431 297.090,222.975 297.989,225.950 296.905 C 229.541 295.598,231.528 295.003,234.819 294.249 C 237.000 293.750,238.701 293.447,244.250 292.570 C 247.225 292.100,251.788 290.892,252.649 290.348 C 253.160 290.024,250.869 288.976,249.750 289.022 C 249.475 289.034,248.251 289.218,247.030 289.432 M285.422 347.180 C 284.548 349.514,284.470 357.602,285.264 363.583 C 285.578 365.949,288.045 379.434,288.190 379.579 C 288.264 379.653,290.330 378.649,291.500 377.969 C 291.637 377.889,291.881 377.780,292.042 377.726 C 292.401 377.605,292.459 378.156,291.596 373.532 C 290.921 369.918,290.252 366.770,287.337 353.500 C 286.100 347.865,285.682 346.487,285.422 347.180 M151.582 352.208 C 151.424 352.860,151.629 372.817,151.817 375.083 C 151.991 377.175,152.320 382.338,152.679 388.583 C 152.774 390.233,152.904 392.252,152.968 393.069 L 153.083 394.555 154.583 394.931 C 155.407 395.137,156.111 395.278,156.146 395.243 C 156.180 395.208,156.087 393.658,155.937 391.798 C 155.788 389.938,155.552 386.542,155.413 384.250 C 154.722 372.881,153.125 355.958,152.398 352.292 C 152.284 351.716,151.716 351.658,151.582 352.208 " stroke="none" fill="#fcccac" fill-rule="evenodd"></path><path id="path2" d="M228.167 172.563 C 226.436 173.185,225.398 173.698,223.000 175.112 C 221.762 175.842,220.287 176.685,219.722 176.986 C 216.884 178.494,219.271 181.309,222.833 180.654 C 225.730 180.121,226.326 179.965,227.313 179.480 C 232.665 176.851,233.427 170.672,228.167 172.563 " stroke="none" fill="#fcf4e3" fill-rule="evenodd"></path></g></svg>