<svg id="svg" version="1.1" xmlns="http://www.w3.org/2000/svg" xmlns:xlink="http://www.w3.org/1999/xlink" width="400" height="400" viewBox="0, 0, 400,400"><g id="svgg"><path id="path0" d="M207.917 73.083 C 205.109 73.284,203.581 73.473,201.167 73.921 C 200.479 74.048,199.429 74.239,198.833 74.344 C 198.237 74.449,197.338 74.636,196.833 74.760 C 196.329 74.883,195.467 75.093,194.917 75.225 C 192.485 75.811,190.320 76.434,189.000 76.928 C 188.679 77.048,188.117 77.234,187.750 77.342 C 187.383 77.449,186.858 77.633,186.583 77.749 C 186.308 77.866,185.371 78.248,184.500 78.599 C 182.804 79.282,178.921 81.221,178.487 81.602 C 178.342 81.729,178.168 81.833,178.100 81.833 C 176.972 81.833,168.307 89.157,165.086 92.833 C 164.644 93.337,164.047 94.013,163.760 94.333 C 163.473 94.654,162.903 95.329,162.494 95.833 C 162.085 96.337,161.708 96.787,161.657 96.833 C 161.362 97.099,158.386 101.354,157.461 102.833 C 153.394 109.338,150.106 117.153,147.999 125.327 C 147.822 126.011,147.609 126.761,147.524 126.994 C 147.440 127.226,147.241 127.904,147.081 128.500 C 146.922 129.096,146.624 130.183,146.418 130.917 C 146.213 131.650,145.949 132.700,145.833 133.250 C 145.717 133.800,145.527 134.625,145.411 135.083 C 145.294 135.542,145.114 136.404,145.009 137.000 C 144.905 137.596,144.713 138.646,144.582 139.333 C 143.273 146.230,143.208 149.988,144.335 153.750 C 144.527 154.392,144.746 155.155,144.822 155.445 C 144.897 155.736,145.277 156.636,145.665 157.445 C 147.424 161.114,147.536 164.508,146.066 169.667 C 145.922 170.171,145.741 170.808,145.662 171.083 C 145.262 172.489,144.674 174.354,144.584 174.499 C 144.494 174.645,144.287 175.358,143.811 177.167 C 143.234 179.356,143.033 183.055,143.332 185.972 C 143.423 186.858,143.576 188.371,143.672 189.333 C 143.908 191.693,144.376 193.845,145.286 196.750 C 145.835 198.500,147.218 202.104,148.166 204.250 C 148.328 204.617,148.731 205.573,149.063 206.376 C 149.394 207.178,149.826 208.191,150.021 208.626 C 150.217 209.061,150.509 209.717,150.670 210.083 C 157.338 225.254,163.934 234.011,171.833 238.177 C 172.246 238.395,172.696 238.655,172.833 238.756 C 173.053 238.916,173.817 239.239,176.000 240.092 C 176.321 240.217,176.883 240.393,177.250 240.483 C 177.617 240.573,178.404 240.780,179.000 240.943 C 181.342 241.585,189.432 241.300,192.067 240.483 C 192.332 240.401,192.702 240.333,192.889 240.333 C 193.075 240.333,193.533 240.190,193.906 240.016 C 194.278 239.841,195.558 239.458,196.750 239.165 C 211.377 235.568,227.492 225.221,245.445 207.898 C 250.338 203.177,250.633 203.147,248.659 207.578 C 245.667 214.290,241.247 220.262,233.666 227.833 C 222.276 239.208,212.074 245.496,199.333 248.995 C 195.282 250.107,195.640 249.510,195.488 255.417 C 195.372 259.902,195.204 261.867,194.196 270.500 L 193.894 273.083 193.602 271.917 C 193.366 270.972,193.282 269.502,193.157 264.183 C 193.073 260.570,192.976 257.587,192.941 257.552 C 192.907 257.518,192.272 257.886,191.530 258.370 C 190.789 258.854,189.972 259.372,189.716 259.521 C 189.270 259.781,182.427 264.089,181.125 264.930 C 180.781 265.152,180.219 265.510,179.875 265.725 C 179.531 265.941,178.500 266.603,177.583 267.198 C 176.667 267.792,175.389 268.609,174.744 269.014 C 174.100 269.419,173.425 269.843,173.244 269.957 C 173.064 270.070,172.625 270.333,172.269 270.540 C 171.913 270.747,171.500 270.992,171.352 271.083 C 171.027 271.285,168.435 272.773,167.167 273.486 C 166.169 274.047,158.663 277.778,157.583 278.250 C 156.244 278.835,154.410 279.691,154.167 279.844 C 154.029 279.930,153.729 280.081,153.500 280.178 C 153.054 280.368,148.524 282.641,147.417 283.231 C 145.974 283.999,143.065 285.590,142.750 285.783 C 142.567 285.895,142.304 286.041,142.167 286.106 C 142.029 286.172,141.329 286.587,140.612 287.029 C 139.894 287.472,139.273 287.833,139.231 287.833 C 139.100 287.833,134.082 291.114,133.781 291.397 C 133.672 291.500,133.321 291.782,133.000 292.026 C 132.115 292.697,130.645 294.151,129.908 295.083 C 129.546 295.542,129.206 295.954,129.152 296.000 C 128.667 296.413,126.088 301.175,125.315 303.083 C 124.645 304.739,124.184 305.941,123.399 308.083 C 122.585 310.304,122.323 310.998,121.828 312.250 C 121.688 312.605,121.051 314.762,120.597 316.417 C 120.250 317.681,119.688 320.304,119.507 321.500 C 119.431 322.004,119.290 322.867,119.194 323.417 C 119.099 323.967,118.936 325.092,118.833 325.917 C 118.730 326.742,118.543 328.092,118.419 328.917 C 118.294 329.742,118.106 331.092,118.000 331.917 C 117.894 332.742,117.707 334.092,117.583 334.917 C 117.330 336.607,117.139 338.071,116.749 341.333 C 116.601 342.571,116.326 344.708,116.139 346.083 C 115.951 347.458,115.737 349.146,115.663 349.833 C 115.589 350.521,115.449 351.721,115.352 352.500 C 115.102 354.515,114.832 358.212,114.835 359.583 C 114.836 360.225,114.724 361.988,114.587 363.500 C 114.449 365.012,114.257 367.375,114.160 368.750 C 113.983 371.261,113.648 375.043,113.306 378.373 C 113.125 380.143,113.211 380.667,113.681 380.667 C 113.758 380.667,114.367 380.922,115.035 381.234 C 116.989 382.145,118.518 382.833,118.590 382.833 C 118.660 382.833,120.392 383.597,120.833 383.823 C 120.971 383.893,122.133 384.382,123.417 384.910 C 124.700 385.438,125.900 385.932,126.083 386.009 C 126.994 386.391,129.052 387.182,130.167 387.579 C 130.854 387.824,131.604 388.103,131.833 388.199 C 132.404 388.439,134.181 389.046,136.667 389.849 C 137.813 390.219,138.938 390.600,139.167 390.696 C 139.396 390.791,139.958 390.977,140.417 391.108 C 141.643 391.460,142.355 391.667,142.917 391.836 C 145.031 392.472,145.183 392.515,148.250 393.330 C 152.405 394.435,152.849 394.540,152.949 394.440 C 153.005 394.384,152.965 393.118,152.860 391.627 C 152.754 390.136,152.554 386.967,152.414 384.583 C 152.275 382.200,152.036 378.563,151.884 376.500 C 151.672 373.626,151.605 370.317,151.595 362.333 L 151.583 351.917 151.944 351.865 C 152.433 351.796,152.833 354.232,153.666 362.333 C 154.323 368.721,155.029 377.615,155.573 386.333 C 155.786 389.745,156.106 394.005,156.223 394.995 C 156.240 395.136,156.570 395.319,157.001 395.428 C 158.293 395.753,160.042 396.130,161.167 396.326 C 161.762 396.430,162.775 396.622,163.417 396.754 C 164.695 397.017,166.887 397.388,168.833 397.672 C 169.521 397.773,170.721 397.958,171.500 398.084 C 172.279 398.210,173.704 398.396,174.667 398.498 C 175.629 398.600,177.242 398.788,178.250 398.916 C 180.052 399.143,181.255 399.242,188.583 399.767 C 192.892 400.076,208.952 400.025,212.917 399.690 C 214.200 399.582,216.225 399.417,217.417 399.324 C 218.608 399.232,220.558 399.044,221.750 398.907 C 222.942 398.771,224.592 398.582,225.417 398.487 C 226.787 398.330,227.622 398.211,231.083 397.681 C 232.959 397.393,233.170 397.359,234.833 397.073 C 235.704 396.924,236.464 396.772,236.522 396.736 C 236.581 396.700,237.106 396.594,237.689 396.501 C 239.823 396.160,242.639 395.579,245.833 394.819 C 246.979 394.546,248.254 394.243,248.667 394.146 C 249.079 394.048,249.754 393.865,250.167 393.740 C 250.579 393.615,251.517 393.357,252.250 393.167 C 254.520 392.578,255.896 392.204,256.417 392.035 C 256.692 391.945,257.217 391.788,257.583 391.685 C 258.774 391.351,262.572 390.147,263.000 389.968 C 263.229 389.872,263.867 389.658,264.417 389.491 C 264.967 389.325,266.054 388.952,266.833 388.662 C 267.612 388.372,268.438 388.072,268.667 387.996 C 269.060 387.866,269.803 387.584,272.457 386.561 C 273.077 386.322,273.880 386.018,274.243 385.885 C 275.375 385.472,278.106 384.309,280.380 383.272 C 280.909 383.031,281.377 382.833,281.420 382.833 C 281.490 382.833,282.722 382.265,285.750 380.837 C 286.300 380.577,287.064 380.226,287.448 380.057 C 287.992 379.818,288.130 379.676,288.075 379.417 C 287.983 378.986,286.858 373.005,286.664 371.917 C 286.582 371.458,286.397 370.446,286.252 369.667 C 286.108 368.887,285.879 367.650,285.743 366.917 C 284.456 359.948,284.315 350.578,285.444 347.000 C 285.659 346.318,286.115 347.885,287.410 353.750 C 288.018 356.500,288.620 359.200,288.749 359.750 C 289.377 362.428,291.057 370.484,291.668 373.746 C 292.045 375.761,292.374 377.429,292.398 377.454 C 292.472 377.528,296.392 375.449,297.515 374.740 C 297.870 374.517,298.200 374.333,298.249 374.333 C 298.342 374.333,299.866 373.461,300.640 372.966 C 300.884 372.809,301.346 372.551,301.667 372.391 C 301.987 372.231,302.287 372.049,302.333 371.985 C 302.379 371.922,302.740 371.693,303.134 371.477 C 304.186 370.900,304.370 370.788,304.946 370.375 C 305.233 370.169,305.519 370.000,305.582 370.000 C 305.644 370.000,306.008 369.782,306.389 369.515 C 307.234 368.925,310.030 367.107,310.222 367.024 C 310.298 366.991,310.898 366.596,311.555 366.148 C 312.212 365.699,312.891 365.238,313.063 365.124 C 313.660 364.728,320.585 359.738,320.917 359.464 C 321.100 359.313,322.337 358.337,323.667 357.295 C 325.929 355.522,326.594 354.992,327.061 354.583 C 327.166 354.492,327.702 354.043,328.251 353.587 C 328.801 353.131,329.287 352.718,329.333 352.670 C 329.379 352.623,329.867 352.210,330.417 351.754 C 330.967 351.298,331.529 350.811,331.667 350.671 C 331.925 350.408,334.301 348.299,335.332 347.417 C 336.094 346.765,346.765 336.094,347.417 335.332 C 348.299 334.301,350.408 331.925,350.671 331.667 C 350.811 331.529,351.298 330.967,351.754 330.417 C 352.210 329.867,352.623 329.379,352.670 329.333 C 352.718 329.287,353.131 328.800,353.587 328.250 C 354.043 327.700,354.484 327.201,354.566 327.142 C 354.648 327.082,354.670 326.820,354.615 326.559 C 354.512 326.070,354.037 323.936,353.507 321.583 C 353.255 320.461,352.540 317.709,351.992 315.750 C 351.915 315.475,351.781 314.987,351.693 314.667 C 351.606 314.346,351.339 313.483,351.101 312.750 C 350.863 312.017,350.584 311.117,350.483 310.750 C 350.381 310.383,350.203 309.821,350.087 309.500 C 349.972 309.179,349.788 308.617,349.678 308.250 C 349.495 307.635,349.277 307.047,348.752 305.750 C 348.641 305.475,348.456 304.987,348.341 304.667 C 347.863 303.337,345.779 298.990,345.025 297.751 C 344.060 296.165,344.020 296.097,343.890 295.833 C 343.822 295.696,343.706 295.508,343.632 295.417 C 343.558 295.325,343.001 294.537,342.394 293.667 C 340.248 290.584,337.188 287.157,334.578 284.913 C 333.374 283.878,330.615 281.833,330.421 281.833 C 330.361 281.833,330.072 281.654,329.781 281.436 C 329.352 281.115,326.508 279.690,324.917 278.999 C 324.321 278.741,320.981 277.154,318.250 275.833 C 316.783 275.124,314.796 274.178,313.833 273.731 C 310.390 272.133,305.019 269.401,302.015 267.719 C 298.654 265.838,295.185 264.030,291.000 261.978 C 283.464 258.284,279.093 256.098,277.750 255.353 C 277.017 254.947,276.042 254.414,275.583 254.170 C 274.425 253.552,272.846 252.670,272.250 252.307 C 271.975 252.140,271.637 251.951,271.500 251.887 C 271.362 251.823,270.688 251.428,270.001 251.010 C 269.314 250.592,268.622 250.175,268.464 250.083 C 263.885 247.430,262.236 245.250,260.774 239.917 C 259.831 236.478,259.634 233.983,259.604 225.167 C 259.581 218.099,259.866 213.641,260.580 209.917 C 260.703 209.275,260.896 208.262,261.009 207.667 C 261.194 206.691,261.881 203.950,262.556 201.500 C 262.847 200.443,264.268 196.078,264.482 195.583 C 264.562 195.400,264.740 194.950,264.878 194.583 C 266.086 191.383,266.946 189.447,269.025 185.250 C 269.751 183.783,270.414 182.471,270.499 182.333 C 270.623 182.130,272.279 179.175,273.063 177.756 C 273.166 177.569,273.291 177.379,273.341 177.333 C 273.982 176.745,276.465 172.107,277.578 169.417 C 278.569 167.025,279.954 162.955,280.329 161.333 C 280.446 160.829,280.611 160.192,280.697 159.917 C 281.158 158.431,281.872 154.694,282.174 152.185 C 282.266 151.416,282.381 150.724,282.429 150.647 C 282.722 150.173,283.005 141.877,282.839 138.667 C 282.550 133.107,282.025 129.525,280.713 124.167 C 279.808 120.469,277.291 113.096,276.349 111.385 C 276.258 111.219,275.625 109.921,274.942 108.500 C 273.910 106.353,272.915 104.477,271.918 102.801 C 271.826 102.646,271.496 102.047,271.184 101.470 C 270.873 100.894,270.490 100.233,270.332 100.003 C 270.174 99.772,269.681 98.983,269.237 98.250 C 268.793 97.517,268.369 96.842,268.295 96.750 C 268.221 96.658,267.739 95.983,267.223 95.250 C 266.707 94.517,266.235 93.879,266.174 93.833 C 266.114 93.787,265.956 93.593,265.824 93.401 C 264.734 91.820,260.274 87.264,258.500 85.920 C 257.904 85.468,257.379 85.055,257.333 85.002 C 257.200 84.848,255.489 83.615,254.902 83.250 C 252.034 81.469,250.287 80.482,248.512 79.641 C 246.075 78.485,246.121 78.505,244.167 77.750 C 243.754 77.591,243.267 77.400,243.083 77.327 C 241.802 76.816,237.793 75.581,236.167 75.197 C 233.326 74.526,233.313 74.524,229.833 73.927 C 223.955 72.918,215.041 72.575,207.917 73.083 M167.349 196.565 C 169.903 197.054,170.396 197.577,169.306 198.643 C 168.408 199.520,167.902 199.589,166.478 199.028 C 165.803 198.762,164.650 198.334,163.917 198.078 C 161.971 197.397,161.216 196.746,161.857 196.301 C 162.163 196.089,165.767 196.262,167.349 196.565 M183.952 286.837 C 185.755 287.022,188.022 287.315,188.990 287.488 C 189.958 287.660,191.575 287.855,192.583 287.921 C 195.824 288.132,198.001 288.953,201.686 291.355 C 204.205 292.996,204.500 293.259,204.500 293.859 C 204.500 295.108,203.409 295.049,199.250 293.576 C 196.616 292.643,196.837 292.707,191.083 291.241 C 185.176 289.736,182.639 289.116,181.179 288.824 C 179.546 288.496,179.058 287.760,179.909 286.909 C 180.399 286.420,179.967 286.427,183.952 286.837 M251.992 289.595 C 252.460 289.850,252.818 290.128,252.790 290.215 C 252.586 290.825,246.896 292.254,241.667 293.009 C 235.785 293.858,229.939 295.344,225.369 297.152 C 222.766 298.181,221.724 296.866,223.879 295.272 C 227.562 292.549,231.264 291.000,234.092 291.000 C 236.135 291.000,242.311 290.241,246.917 289.424 C 249.750 288.921,250.820 288.957,251.992 289.595 " stroke="none" fill="#c4846c" fill-rule="evenodd"></path><path id="path1" d="M162.125 196.282 C 161.080 196.555,161.989 197.301,164.417 198.164 C 165.517 198.555,166.619 198.978,166.867 199.104 C 168.103 199.734,170.514 198.250,169.632 197.402 C 168.980 196.776,163.413 195.945,162.125 196.282 M249.218 204.465 C 249.109 204.534,247.571 205.990,245.801 207.700 C 244.031 209.410,242.426 210.946,242.233 211.113 C 242.040 211.280,241.177 212.064,240.316 212.855 C 232.025 220.469,225.378 225.403,215.500 231.278 C 207.292 236.160,203.588 237.693,195.333 239.624 L 194.083 239.917 194.083 247.917 L 194.083 255.917 193.693 256.709 C 193.479 257.145,193.254 257.470,193.193 257.433 C 193.042 257.339,193.251 270.147,193.409 270.667 C 193.478 270.896,193.617 271.383,193.716 271.750 C 193.919 272.499,193.831 273.086,194.641 265.583 C 194.839 263.750,195.082 261.612,195.181 260.833 C 195.280 260.054,195.402 257.504,195.452 255.167 C 195.574 249.530,195.263 250.038,199.264 248.930 C 214.278 244.774,226.734 236.220,239.816 221.081 C 243.390 216.946,246.388 212.438,248.092 208.637 C 248.435 207.874,248.969 206.694,249.281 206.014 C 249.922 204.616,249.898 204.032,249.218 204.465 M179.943 286.914 C 179.121 287.736,179.778 288.491,181.603 288.822 C 182.156 288.922,183.616 289.261,184.846 289.575 C 186.077 289.888,189.183 290.677,191.750 291.327 C 194.317 291.978,197.167 292.776,198.083 293.102 C 202.458 294.658,203.830 294.915,204.260 294.258 C 204.697 293.592,204.442 293.299,202.040 291.711 C 198.262 289.214,196.397 288.418,193.667 288.139 C 192.152 287.984,191.377 287.886,186.083 287.179 C 182.263 286.669,180.274 286.583,179.943 286.914 M247.000 289.513 C 243.349 290.140,239.899 290.606,237.250 290.831 C 231.424 291.324,230.716 291.474,228.132 292.752 C 226.257 293.680,223.080 295.790,222.816 296.282 C 222.162 297.504,223.886 297.647,226.648 296.600 C 230.491 295.143,235.464 293.895,240.667 293.083 C 246.500 292.172,248.471 291.749,251.295 290.803 L 252.839 290.285 252.259 289.891 C 250.942 288.996,250.284 288.948,247.000 289.513 M285.359 347.845 C 284.226 353.626,284.524 359.831,286.432 370.167 C 288.101 379.209,288.150 379.429,288.519 379.429 C 288.692 379.429,288.833 379.377,288.833 379.314 C 288.833 379.252,289.581 378.836,290.494 378.392 C 291.767 377.772,292.157 377.505,292.160 377.250 C 292.164 376.984,290.952 370.305,290.599 368.644 C 290.182 366.685,289.036 361.489,287.664 355.333 C 287.306 353.729,286.900 351.854,286.761 351.167 C 286.467 349.711,285.876 347.547,285.675 347.188 C 285.578 347.015,285.483 347.213,285.359 347.845 M151.781 351.941 C 151.543 352.180,151.658 371.280,151.921 375.083 C 152.061 377.100,152.246 380.063,152.332 381.667 C 152.664 387.844,153.010 393.439,153.091 393.941 C 153.177 394.473,153.338 394.568,154.500 394.772 C 154.729 394.812,155.165 394.925,155.470 395.023 C 156.194 395.255,156.172 395.323,155.990 393.412 C 155.844 391.872,155.543 387.476,155.169 381.417 C 155.084 380.042,154.896 377.454,154.751 375.667 C 154.605 373.879,154.415 371.517,154.328 370.417 C 154.241 369.317,154.054 367.254,153.914 365.833 C 153.773 364.412,153.585 362.500,153.497 361.583 C 153.409 360.667,153.264 359.354,153.175 358.667 C 153.086 357.979,152.889 356.404,152.737 355.167 C 152.354 352.042,152.200 351.522,151.781 351.941 " stroke="none" fill="#74443c" fill-rule="evenodd"></path><path id="path2" d="M165.708 196.448 C 165.869 196.490,166.131 196.490,166.292 196.448 C 166.452 196.406,166.321 196.372,166.000 196.372 C 165.679 196.372,165.548 196.406,165.708 196.448 M247.412 206.042 L 246.250 207.250 247.458 206.088 C 248.581 205.008,248.743 204.833,248.621 204.833 C 248.595 204.833,248.051 205.377,247.412 206.042 M243.329 209.958 L 242.250 211.083 243.375 210.005 C 244.420 209.003,244.576 208.833,244.454 208.833 C 244.428 208.833,243.922 209.340,243.329 209.958 M240.824 212.292 L 240.250 212.917 240.875 212.342 C 241.219 212.026,241.500 211.745,241.500 211.717 C 241.500 211.590,241.359 211.710,240.824 212.292 M238.991 213.958 L 238.417 214.583 239.042 214.009 C 239.623 213.474,239.743 213.333,239.616 213.333 C 239.588 213.333,239.307 213.615,238.991 213.958 M237.406 215.375 L 236.917 215.917 237.458 215.427 C 237.963 214.971,238.077 214.833,237.948 214.833 C 237.919 214.833,237.675 215.077,237.406 215.375 M238.240 222.875 L 237.750 223.417 238.292 222.927 C 238.797 222.471,238.910 222.333,238.781 222.333 C 238.752 222.333,238.509 222.577,238.240 222.875 M236.906 224.375 L 236.417 224.917 236.958 224.427 C 237.463 223.971,237.577 223.833,237.448 223.833 C 237.419 223.833,237.175 224.077,236.906 224.375 M233.411 228.042 L 232.417 229.083 233.458 228.089 C 234.426 227.164,234.576 227.000,234.453 227.000 C 234.427 227.000,233.959 227.469,233.411 228.042 M230.333 230.917 C 229.928 231.329,229.635 231.667,229.681 231.667 C 229.726 231.667,230.095 231.329,230.500 230.917 C 230.905 230.504,231.199 230.167,231.153 230.167 C 231.107 230.167,230.738 230.504,230.333 230.917 M194.066 247.417 C 194.066 248.700,194.092 249.203,194.124 248.534 C 194.156 247.866,194.155 246.816,194.123 246.201 C 194.091 245.586,194.065 246.133,194.066 247.417 M194.069 252.667 C 194.069 254.271,194.094 254.927,194.124 254.125 C 194.155 253.323,194.155 252.010,194.124 251.208 C 194.094 250.406,194.069 251.063,194.069 252.667 M195.539 251.333 C 195.539 251.654,195.573 251.785,195.615 251.625 C 195.657 251.465,195.657 251.202,195.615 251.042 C 195.573 250.881,195.539 251.012,195.539 251.333 M193.372 257.003 C 193.043 257.575,193.004 257.857,193.031 259.450 L 193.062 261.250 193.156 259.333 C 193.229 257.840,193.319 257.314,193.564 256.953 C 193.737 256.698,193.848 256.459,193.812 256.423 C 193.775 256.386,193.577 256.647,193.372 257.003 M195.379 258.500 C 195.379 258.912,195.411 259.081,195.451 258.875 C 195.491 258.669,195.491 258.331,195.451 258.125 C 195.411 257.919,195.379 258.087,195.379 258.500 M195.042 261.917 C 195.044 262.283,195.078 262.414,195.118 262.206 C 195.158 261.999,195.156 261.699,195.115 261.540 C 195.073 261.380,195.040 261.550,195.042 261.917 M194.705 265.333 C 194.705 265.654,194.740 265.785,194.782 265.625 C 194.823 265.465,194.823 265.202,194.782 265.042 C 194.740 264.881,194.705 265.012,194.705 265.333 M193.681 272.167 C 193.686 272.304,193.755 272.567,193.833 272.750 L 193.977 273.083 193.986 272.750 C 193.991 272.567,193.922 272.304,193.833 272.167 C 193.690 271.944,193.673 271.944,193.681 272.167 M180.542 286.615 C 180.702 286.657,180.965 286.657,181.125 286.615 C 181.285 286.573,181.154 286.539,180.833 286.539 C 180.512 286.539,180.381 286.573,180.542 286.615 M182.125 286.784 C 182.331 286.824,182.669 286.824,182.875 286.784 C 183.081 286.745,182.912 286.712,182.500 286.712 C 182.088 286.712,181.919 286.745,182.125 286.784 M191.627 287.951 C 191.834 287.991,192.134 287.990,192.294 287.948 C 192.453 287.906,192.283 287.874,191.917 287.875 C 191.550 287.877,191.420 287.911,191.627 287.951 M193.708 288.115 C 193.869 288.157,194.131 288.157,194.292 288.115 C 194.452 288.073,194.321 288.039,194.000 288.039 C 193.679 288.039,193.548 288.073,193.708 288.115 M252.167 289.818 C 252.396 290.006,252.658 290.160,252.750 290.160 C 252.928 290.162,252.627 289.931,252.083 289.650 C 251.862 289.535,251.890 289.592,252.167 289.818 M239.208 290.615 C 239.369 290.657,239.631 290.657,239.792 290.615 C 239.952 290.573,239.821 290.539,239.500 290.539 C 239.179 290.539,239.048 290.573,239.208 290.615 M235.875 290.948 C 236.035 290.990,236.298 290.990,236.458 290.948 C 236.619 290.906,236.487 290.872,236.167 290.872 C 235.846 290.872,235.715 290.906,235.875 290.948 M233.127 291.118 C 233.334 291.158,233.634 291.156,233.794 291.115 C 233.953 291.073,233.783 291.040,233.417 291.042 C 233.050 291.044,232.920 291.078,233.127 291.118 M223.625 297.451 C 223.831 297.491,224.169 297.491,224.375 297.451 C 224.581 297.411,224.412 297.379,224.000 297.379 C 223.588 297.379,223.419 297.411,223.625 297.451 M151.573 352.050 C 151.527 352.169,151.511 353.276,151.537 354.508 L 151.585 356.750 151.667 354.291 C 151.749 351.871,151.738 351.620,151.573 352.050 M153.039 357.667 C 153.039 357.988,153.073 358.119,153.115 357.958 C 153.157 357.798,153.157 357.535,153.115 357.375 C 153.073 357.215,153.039 357.346,153.039 357.667 M284.705 358.167 C 284.705 358.488,284.740 358.619,284.782 358.458 C 284.823 358.298,284.823 358.035,284.782 357.875 C 284.740 357.715,284.705 357.846,284.705 358.167 M151.575 364.000 C 151.575 367.254,151.597 368.585,151.625 366.958 C 151.652 365.331,151.652 362.669,151.625 361.042 C 151.597 359.415,151.575 360.746,151.575 364.000 M153.542 362.083 C 153.544 362.450,153.578 362.580,153.618 362.373 C 153.658 362.166,153.656 361.866,153.615 361.706 C 153.573 361.547,153.540 361.717,153.542 362.083 M285.039 362.000 C 285.039 362.321,285.073 362.452,285.115 362.292 C 285.157 362.131,285.157 361.869,285.115 361.708 C 285.073 361.548,285.039 361.679,285.039 362.000 M285.372 364.667 C 285.372 364.988,285.406 365.119,285.448 364.958 C 285.490 364.798,285.490 364.535,285.448 364.375 C 285.406 364.215,285.372 364.346,285.372 364.667 M153.879 365.333 C 153.879 365.746,153.911 365.915,153.951 365.708 C 153.991 365.502,153.991 365.165,153.951 364.958 C 153.911 364.752,153.879 364.921,153.879 365.333 M154.379 371.000 C 154.379 371.412,154.411 371.581,154.451 371.375 C 154.491 371.169,154.491 370.831,154.451 370.625 C 154.411 370.419,154.379 370.587,154.379 371.000 M151.717 373.333 C 151.717 373.837,151.748 374.044,151.786 373.792 C 151.824 373.540,151.824 373.127,151.786 372.875 C 151.748 372.623,151.717 372.829,151.717 373.333 M154.539 373.000 C 154.539 373.321,154.573 373.452,154.615 373.292 C 154.657 373.131,154.657 372.869,154.615 372.708 C 154.573 372.548,154.539 372.679,154.539 373.000 M154.714 374.917 C 154.716 375.375,154.748 375.543,154.786 375.289 C 154.825 375.036,154.824 374.661,154.784 374.456 C 154.744 374.251,154.713 374.458,154.714 374.917 M151.883 375.833 C 151.883 376.337,151.915 376.544,151.953 376.292 C 151.991 376.040,151.991 375.627,151.953 375.375 C 151.915 375.123,151.883 375.329,151.883 375.833 M154.875 377.250 C 154.877 377.617,154.911 377.747,154.951 377.540 C 154.991 377.332,154.990 377.032,154.948 376.873 C 154.906 376.714,154.874 376.883,154.875 377.250 M152.042 378.250 C 152.044 378.617,152.078 378.747,152.118 378.540 C 152.158 378.332,152.156 378.032,152.115 377.873 C 152.073 377.714,152.040 377.883,152.042 378.250 M290.623 378.290 C 290.003 378.617,289.522 378.911,289.554 378.943 C 289.638 379.027,291.643 378.006,291.757 377.822 C 291.882 377.620,291.927 377.601,290.623 378.290 M288.023 379.115 C 287.995 379.562,288.185 379.702,288.508 379.473 C 288.708 379.332,288.701 379.318,288.469 379.392 C 288.273 379.454,288.166 379.370,288.116 379.116 L 288.045 378.750 288.023 379.115 M152.221 380.917 C 152.222 381.558,152.252 381.800,152.288 381.455 C 152.324 381.109,152.324 380.584,152.287 380.288 C 152.250 379.992,152.221 380.275,152.221 380.917 M155.218 382.083 C 155.219 382.633,155.250 382.838,155.287 382.539 C 155.325 382.239,155.324 381.789,155.286 381.539 C 155.248 381.288,155.217 381.533,155.218 382.083 M152.372 384.000 C 152.372 384.321,152.406 384.452,152.448 384.292 C 152.490 384.131,152.490 383.869,152.448 383.708 C 152.406 383.548,152.372 383.679,152.372 384.000 M155.379 384.500 C 155.379 384.912,155.411 385.081,155.451 384.875 C 155.491 384.669,155.491 384.331,155.451 384.125 C 155.411 383.919,155.379 384.087,155.379 384.500 M152.542 386.583 C 152.544 386.950,152.578 387.080,152.618 386.873 C 152.658 386.666,152.656 386.366,152.615 386.206 C 152.573 386.047,152.540 386.217,152.542 386.583 M155.550 387.000 C 155.550 387.504,155.581 387.710,155.619 387.458 C 155.658 387.206,155.658 386.794,155.619 386.542 C 155.581 386.290,155.550 386.496,155.550 387.000 M152.718 389.583 C 152.719 390.133,152.750 390.338,152.787 390.039 C 152.825 389.739,152.824 389.289,152.786 389.039 C 152.748 388.788,152.717 389.033,152.718 389.583 M155.718 389.750 C 155.719 390.300,155.750 390.505,155.787 390.205 C 155.825 389.906,155.824 389.456,155.786 389.205 C 155.748 388.955,155.717 389.200,155.718 389.750 M156.045 393.833 C 156.045 394.246,156.078 394.415,156.118 394.208 C 156.157 394.002,156.157 393.665,156.118 393.458 C 156.078 393.252,156.045 393.421,156.045 393.833 M153.019 394.212 C 153.000 394.514,153.717 394.903,154.067 394.780 C 154.168 394.745,154.011 394.663,153.718 394.597 C 153.426 394.532,153.154 394.352,153.113 394.197 C 153.047 393.947,153.037 393.949,153.019 394.212 M154.917 395.000 C 155.100 395.079,155.362 395.143,155.500 395.143 C 155.658 395.143,155.627 395.090,155.417 395.000 C 155.233 394.921,154.971 394.857,154.833 394.857 C 154.676 394.857,154.707 394.910,154.917 395.000 " stroke="none" fill="#945c4e" fill-rule="evenodd"></path></g></svg>