<svg id="svg" version="1.1" xmlns="http://www.w3.org/2000/svg" xmlns:xlink="http://www.w3.org/1999/xlink" viewBox="0, 0, 400,400"><g id="svgg"><path id="path0" d="M209.250 73.009 C 208.333 73.078,207.283 73.149,206.917 73.166 C 204.242 73.293,197.112 74.578,193.583 75.571 C 193.125 75.700,192.412 75.898,192.000 76.012 C 179.966 79.319,170.120 86.044,162.001 96.501 C 161.681 96.913,161.361 97.325,161.290 97.417 C 161.219 97.508,160.972 97.808,160.741 98.083 C 158.264 101.042,153.919 108.709,152.004 113.500 C 151.803 114.004,151.568 114.549,151.483 114.710 C 151.398 114.872,151.213 115.359,151.072 115.794 C 150.932 116.228,150.748 116.733,150.664 116.917 C 150.190 117.950,148.924 121.917,148.163 124.750 C 148.089 125.025,147.902 125.700,147.747 126.250 C 147.395 127.494,147.344 127.679,146.507 130.750 C 146.133 132.125,145.755 133.587,145.669 134.000 C 145.583 134.412,145.394 135.275,145.250 135.917 C 145.105 136.558,144.922 137.496,144.843 138.000 C 144.763 138.504,144.622 139.254,144.530 139.667 C 144.295 140.710,143.982 142.605,143.895 143.500 C 143.856 143.912,143.751 144.700,143.663 145.250 C 143.454 146.555,143.462 148.622,143.683 150.083 C 143.779 150.725,143.887 151.516,143.923 151.842 C 144.073 153.225,144.877 155.726,145.768 157.583 C 147.598 161.399,147.486 166.016,145.419 171.917 C 142.916 179.061,142.729 181.487,143.929 191.250 C 144.277 194.079,146.081 199.472,148.668 205.417 C 148.828 205.783,149.280 206.833,149.673 207.750 C 150.066 208.667,150.676 210.040,151.027 210.801 C 151.379 211.563,151.667 212.224,151.667 212.270 C 151.667 212.937,156.603 222.089,158.459 224.862 C 159.077 225.786,159.681 226.720,159.801 226.938 C 159.920 227.155,160.089 227.333,160.176 227.333 C 160.262 227.333,160.333 227.407,160.333 227.497 C 160.333 227.879,162.706 230.731,164.571 232.590 C 172.343 240.341,180.628 242.790,191.583 240.577 C 192.826 240.326,193.892 240.017,194.083 239.854 C 194.713 239.316,195.752 238.964,197.083 238.840 C 198.408 238.715,199.063 238.513,204.750 236.471 C 211.510 234.044,223.107 226.963,232.250 219.680 C 232.892 219.169,233.454 218.713,233.500 218.666 C 233.546 218.619,234.071 218.170,234.667 217.667 C 238.095 214.775,243.117 210.160,247.139 206.208 C 250.550 202.856,250.655 203.683,247.622 210.000 C 242.926 219.779,226.914 235.929,215.500 242.398 C 212.762 243.950,208.001 246.176,205.476 247.084 C 203.570 247.770,201.058 248.572,199.167 249.099 C 195.409 250.146,195.667 249.798,195.667 253.829 C 195.666 255.718,195.534 258.243,195.325 260.333 C 195.137 262.212,194.921 264.462,194.844 265.333 C 194.768 266.204,194.619 267.479,194.513 268.167 C 194.407 268.854,194.226 270.279,194.111 271.333 L 193.902 273.250 193.533 271.667 C 193.231 270.372,193.160 269.537,193.143 267.083 C 193.131 265.433,193.075 262.611,193.019 260.811 L 192.917 257.539 189.917 259.430 C 186.411 261.641,184.801 262.653,184.237 263.000 C 182.842 263.859,175.640 268.450,175.120 268.812 C 174.774 269.053,174.361 269.326,174.203 269.419 C 174.046 269.512,173.543 269.812,173.087 270.085 C 172.630 270.359,172.129 270.658,171.972 270.750 C 169.313 272.308,169.017 272.476,166.000 274.120 C 164.157 275.124,159.494 277.415,156.583 278.746 C 156.308 278.871,154.771 279.608,153.167 280.382 C 151.563 281.157,149.800 282.005,149.250 282.268 C 148.700 282.531,148.212 282.788,148.167 282.840 C 148.121 282.892,147.596 283.184,147.000 283.489 C 145.231 284.394,143.659 285.273,140.333 287.216 C 138.821 288.100,138.688 288.183,136.000 289.927 C 132.512 292.189,130.276 294.309,128.359 297.169 C 126.878 299.378,124.358 305.150,122.393 310.833 C 122.250 311.246,122.038 311.808,121.920 312.083 C 121.567 312.912,120.571 316.414,120.190 318.167 C 119.746 320.212,119.180 323.357,119.072 324.387 C 119.031 324.770,118.927 325.533,118.840 326.083 C 118.753 326.633,118.596 327.721,118.492 328.500 C 118.215 330.560,118.181 330.806,118.003 332.000 C 117.513 335.287,117.153 338.024,116.754 341.500 C 116.612 342.738,116.382 344.575,116.242 345.583 C 115.342 352.106,115.072 354.707,114.910 358.417 C 114.862 359.517,114.715 361.767,114.584 363.417 C 114.454 365.067,114.265 367.542,114.165 368.917 C 114.065 370.292,113.906 372.129,113.813 373.000 C 113.720 373.871,113.579 375.446,113.500 376.500 C 113.421 377.554,113.304 378.843,113.240 379.363 L 113.124 380.309 114.520 380.972 C 116.789 382.049,118.502 382.833,118.582 382.833 C 118.660 382.833,120.381 383.591,120.840 383.827 C 120.982 383.900,122.144 384.389,123.424 384.913 C 124.703 385.438,125.986 385.972,126.275 386.100 C 126.564 386.228,126.875 386.333,126.966 386.333 C 127.057 386.333,127.683 386.569,128.358 386.856 C 129.032 387.143,129.771 387.439,130.000 387.513 C 130.229 387.587,131.054 387.880,131.833 388.164 C 134.049 388.973,137.033 390.009,137.583 390.161 C 137.858 390.236,138.946 390.575,140.000 390.913 C 142.485 391.709,142.643 391.757,144.417 392.252 C 145.242 392.483,146.142 392.742,146.417 392.829 C 147.650 393.216,152.883 394.506,152.949 394.440 C 152.990 394.399,152.909 392.765,152.768 390.808 C 152.628 388.851,152.434 385.787,152.338 384.000 C 152.241 382.212,152.033 379.100,151.876 377.083 C 151.441 371.506,151.444 352.041,151.880 351.769 C 152.394 351.447,152.415 351.532,153.066 356.667 C 153.200 357.721,153.394 359.408,153.497 360.417 C 153.600 361.425,153.789 363.225,153.916 364.417 C 154.044 365.608,154.233 367.671,154.335 369.000 C 154.437 370.329,154.592 372.129,154.679 373.000 C 154.766 373.871,154.914 375.708,155.009 377.083 C 155.103 378.458,155.289 381.158,155.422 383.083 C 155.555 385.008,155.705 387.483,155.756 388.583 C 155.840 390.385,156.304 395.187,156.405 395.292 C 156.460 395.350,159.275 395.954,160.917 396.261 C 161.650 396.398,162.813 396.616,163.500 396.746 C 165.795 397.179,166.578 397.318,167.250 397.412 C 167.617 397.464,168.329 397.575,168.833 397.659 C 173.733 398.479,179.755 399.139,187.500 399.704 C 191.435 399.991,208.552 399.992,212.500 399.705 C 220.275 399.140,224.695 398.653,231.250 397.639 C 231.892 397.540,232.604 397.431,232.833 397.398 C 234.262 397.188,241.431 395.807,243.167 395.407 C 245.766 394.809,249.845 393.830,250.417 393.666 C 250.692 393.587,251.217 393.445,251.583 393.349 C 253.090 392.957,255.922 392.153,257.833 391.575 C 258.246 391.450,260.383 390.769,262.583 390.060 C 266.236 388.884,267.701 388.382,269.333 387.746 C 269.654 387.621,271.379 386.950,273.167 386.256 C 274.954 385.561,276.642 384.892,276.917 384.767 C 277.192 384.643,277.979 384.299,278.667 384.002 C 281.019 382.986,281.417 382.812,281.917 382.583 C 282.192 382.457,282.979 382.096,283.667 381.781 C 284.354 381.466,285.640 380.863,286.525 380.441 L 288.133 379.674 287.988 379.045 C 287.909 378.699,287.647 377.367,287.408 376.083 C 287.168 374.800,286.791 372.775,286.568 371.583 C 286.346 370.392,286.057 368.854,285.926 368.167 C 284.442 360.370,284.165 353.509,285.126 348.375 C 285.516 346.286,285.885 346.671,286.600 349.917 C 286.742 350.558,286.961 351.533,287.088 352.083 C 287.214 352.633,287.513 353.983,287.752 355.083 C 287.990 356.183,288.300 357.571,288.439 358.167 C 288.775 359.599,289.169 361.399,290.102 365.750 C 290.239 366.392,290.420 367.217,290.503 367.583 C 290.585 367.950,290.774 368.887,290.922 369.667 C 291.070 370.446,291.257 371.383,291.339 371.750 C 291.421 372.117,291.606 373.092,291.750 373.917 C 292.451 377.923,292.227 377.684,294.214 376.555 C 294.967 376.127,296.056 375.526,296.633 375.219 C 297.211 374.912,297.978 374.474,298.338 374.247 C 298.699 374.019,299.027 373.833,299.069 373.833 C 299.197 373.833,303.619 371.193,306.333 369.496 C 309.277 367.655,314.776 363.968,316.333 362.792 C 316.563 362.618,317.162 362.178,317.667 361.813 C 318.171 361.449,318.760 361.023,318.975 360.867 C 319.759 360.299,323.924 357.115,324.167 356.897 C 324.304 356.774,325.392 355.879,326.583 354.907 C 327.775 353.936,328.938 352.984,329.167 352.792 C 330.038 352.060,331.754 350.579,331.833 350.489 C 331.879 350.438,332.629 349.767,333.500 348.999 C 335.996 346.798,336.453 346.359,341.406 341.413 C 345.618 337.207,347.668 335.059,349.351 333.087 C 349.662 332.722,350.067 332.272,350.251 332.087 C 350.435 331.902,351.034 331.225,351.582 330.583 C 352.130 329.942,352.617 329.379,352.665 329.333 C 353.838 328.198,354.628 326.872,354.502 326.250 C 354.428 325.883,354.317 325.321,354.256 325.000 C 353.913 323.209,352.676 318.246,351.889 315.500 C 349.907 308.588,348.118 303.720,346.164 299.918 C 342.496 292.782,335.292 284.457,330.603 281.934 C 330.409 281.830,330.063 281.624,329.833 281.477 C 329.106 281.009,326.787 279.822,325.750 279.386 C 324.201 278.735,323.614 278.460,319.890 276.650 C 316.451 274.977,314.755 274.169,312.333 273.049 C 310.875 272.374,306.825 270.353,305.500 269.639 C 302.794 268.180,301.635 267.552,298.743 265.977 C 295.546 264.237,292.991 262.945,283.667 258.353 C 279.020 256.065,276.885 254.966,274.833 253.808 C 272.959 252.751,270.893 251.570,270.648 251.418 C 270.500 251.325,270.064 251.077,269.679 250.866 C 269.294 250.655,268.575 250.224,268.081 249.908 C 267.587 249.592,267.110 249.333,267.022 249.333 C 266.933 249.333,266.836 249.277,266.806 249.208 C 266.775 249.140,266.375 248.824,265.917 248.508 C 264.136 247.277,262.949 245.679,261.820 242.992 C 259.980 238.612,259.636 235.809,259.608 225.000 C 259.583 215.755,260.000 211.647,261.670 204.667 C 261.987 203.341,262.679 200.952,263.335 198.917 C 263.720 197.725,264.093 196.563,264.164 196.333 C 265.070 193.425,269.082 184.711,271.458 180.490 C 271.966 179.588,273.304 177.342,273.836 176.500 C 276.655 172.034,278.206 168.456,280.160 161.917 C 282.667 153.522,283.525 142.537,282.397 133.250 C 281.988 129.878,280.875 124.295,280.176 122.111 C 280.083 121.821,279.768 120.796,279.475 119.833 C 278.889 117.907,277.832 114.978,277.325 113.877 C 277.146 113.488,277.000 113.119,277.000 113.057 C 277.000 112.534,273.220 104.926,271.921 102.833 C 271.722 102.513,271.505 102.138,271.440 102.000 C 271.374 101.862,271.229 101.598,271.118 101.413 C 271.007 101.228,270.693 100.703,270.419 100.247 C 270.145 99.790,269.845 99.285,269.752 99.124 C 268.970 97.766,266.863 94.670,266.492 94.333 C 266.442 94.287,266.221 93.987,266.002 93.667 C 263.411 89.873,256.021 83.479,251.747 81.333 C 251.290 81.104,250.879 80.876,250.833 80.826 C 250.657 80.635,247.160 78.998,245.333 78.252 C 244.279 77.822,243.267 77.408,243.083 77.332 C 242.900 77.256,242.600 77.155,242.417 77.106 C 242.233 77.058,241.633 76.859,241.083 76.664 C 240.533 76.470,239.971 76.279,239.833 76.241 C 239.696 76.202,239.171 76.050,238.667 75.902 C 234.454 74.663,226.646 73.242,223.833 73.203 C 223.604 73.200,222.218 73.116,220.753 73.015 C 217.822 72.815,211.856 72.812,209.250 73.009 M231.072 172.491 C 234.933 175.036,226.281 181.919,220.771 180.686 C 218.221 180.115,217.576 177.976,219.638 176.931 C 220.077 176.709,221.407 175.954,222.593 175.255 C 227.446 172.393,229.773 171.635,231.072 172.491 M166.250 196.340 C 170.013 196.877,170.821 197.662,168.981 198.994 C 168.136 199.607,167.805 199.620,166.553 199.091 C 166.020 198.865,164.886 198.442,164.034 198.150 C 162.018 197.460,161.241 196.815,161.778 196.278 C 161.946 196.110,164.927 196.151,166.250 196.340 M184.667 286.851 C 185.721 286.954,187.371 287.186,188.333 287.365 C 189.296 287.544,191.021 287.756,192.167 287.836 C 196.120 288.111,197.929 288.799,202.213 291.654 C 204.589 293.237,204.875 293.574,204.428 294.256 C 203.932 295.014,202.385 294.867,199.801 293.817 C 198.144 293.143,193.441 291.806,190.500 291.173 C 190.179 291.104,189.017 290.804,187.917 290.506 C 185.305 289.800,183.069 289.251,181.417 288.912 C 179.875 288.596,179.500 288.332,179.500 287.567 C 179.500 286.415,179.813 286.372,184.667 286.851 M252.143 289.667 C 252.920 290.146,252.997 290.239,252.735 290.385 C 252.166 290.704,249.150 291.657,247.883 291.918 C 247.184 292.063,246.567 292.209,246.512 292.243 C 246.411 292.305,244.581 292.607,241.333 293.097 C 235.686 293.949,230.243 295.323,225.920 296.988 C 224.653 297.476,223.462 297.637,223.067 297.372 C 222.397 296.925,222.536 296.079,223.370 295.533 C 223.608 295.378,224.437 294.823,225.213 294.300 C 228.761 291.911,231.098 291.123,235.500 290.831 C 238.359 290.642,240.508 290.429,242.000 290.186 C 242.596 290.090,244.246 289.824,245.667 289.595 C 247.088 289.367,248.438 289.146,248.667 289.103 C 249.840 288.886,251.244 289.113,252.143 289.667 " stroke="none" fill="#3B241C" fill-rule="evenodd"></path><path id="path1" d="M161.938 196.381 C 161.372 196.794,162.129 197.405,163.960 198.011 C 164.853 198.307,165.986 198.725,166.479 198.941 C 168.153 199.674,170.573 198.509,169.660 197.409 C 169.045 196.668,162.701 195.823,161.938 196.381 M246.640 206.846 C 238.800 214.551,231.713 220.572,225.084 225.161 C 220.761 228.153,211.961 233.487,209.333 234.709 C 205.775 236.363,198.674 238.855,197.330 238.921 C 196.205 238.976,195.250 239.227,194.570 239.645 L 194.057 239.961 194.045 247.959 C 194.037 254.242,193.987 256.043,193.815 256.354 C 193.695 256.572,193.612 256.806,193.631 256.874 C 193.650 256.942,193.535 257.079,193.375 257.179 C 192.919 257.463,193.101 269.644,193.588 271.500 L 193.916 272.750 194.033 271.333 C 194.097 270.554,194.266 269.017,194.409 267.917 C 195.080 262.739,195.389 258.989,195.483 254.879 C 195.605 249.550,195.250 250.117,199.176 248.984 C 209.413 246.031,216.427 242.435,224.317 236.096 C 235.371 227.214,244.630 216.510,248.159 208.535 C 248.594 207.553,249.155 206.316,249.407 205.785 C 249.868 204.811,249.878 204.333,249.437 204.333 C 249.305 204.333,248.046 205.464,246.640 206.846 M179.958 286.835 C 179.601 287.057,179.564 288.041,179.903 288.322 C 180.032 288.429,181.439 288.812,183.028 289.172 C 184.617 289.532,187.042 290.128,188.417 290.497 C 189.792 290.866,191.704 291.353,192.667 291.579 C 195.269 292.189,197.807 292.927,199.189 293.474 C 201.984 294.581,203.750 294.886,204.238 294.347 C 204.815 293.709,204.536 293.353,202.250 291.805 C 198.320 289.143,196.119 288.277,192.565 287.997 C 191.383 287.904,189.804 287.715,189.055 287.578 C 185.614 286.946,180.458 286.525,179.958 286.835 M247.333 289.435 C 242.437 290.289,238.858 290.746,235.075 291.001 C 231.884 291.216,230.265 291.628,227.808 292.853 C 226.284 293.612,222.865 295.972,222.746 296.347 C 222.462 297.240,224.028 297.656,225.438 297.061 C 229.235 295.458,235.703 293.817,241.750 292.922 C 246.236 292.259,248.918 291.663,251.533 290.750 C 253.024 290.229,252.995 290.274,252.138 289.779 C 250.649 288.919,250.399 288.901,247.333 289.435 M285.419 347.458 C 284.320 351.742,284.520 359.832,285.911 367.417 C 286.046 368.150,286.274 369.387,286.419 370.167 C 286.563 370.946,286.749 371.958,286.831 372.417 C 287.055 373.664,287.809 377.627,288.012 378.625 C 288.200 379.549,288.562 379.778,289.000 379.250 C 289.114 379.113,289.342 379.000,289.507 379.000 C 289.671 379.000,289.831 378.924,289.862 378.832 C 289.893 378.739,290.105 378.627,290.333 378.583 C 290.562 378.539,290.774 378.428,290.805 378.335 C 290.836 378.242,291.005 378.167,291.181 378.167 C 291.356 378.167,291.500 378.090,291.500 377.996 C 291.500 377.902,291.678 377.757,291.896 377.674 C 292.263 377.535,292.282 377.470,292.152 376.803 C 292.075 376.407,291.930 375.596,291.830 375.000 C 291.310 371.883,290.119 366.246,287.568 354.833 C 287.434 354.238,287.132 352.813,286.895 351.667 C 286.500 349.753,285.732 347.000,285.594 347.000 C 285.562 347.000,285.483 347.206,285.419 347.458 M151.763 351.979 C 151.362 352.628,151.585 370.848,152.082 378.083 C 152.393 382.606,153.000 393.040,153.000 393.859 C 153.000 394.500,153.164 394.620,154.250 394.775 C 154.525 394.814,154.825 394.871,154.917 394.902 C 155.008 394.933,155.158 394.976,155.250 394.999 C 155.342 395.021,155.585 395.104,155.792 395.183 C 156.241 395.353,156.228 395.641,155.922 392.181 C 155.787 390.661,155.560 387.429,155.416 385.000 C 154.735 373.490,152.971 354.702,152.355 352.398 C 152.225 351.913,151.932 351.705,151.763 351.979 " stroke="none" fill="#040404" fill-rule="evenodd"></path><path id="path2" d="M228.123 172.577 C 226.770 173.046,225.053 173.910,222.583 175.367 C 221.575 175.962,220.287 176.693,219.722 176.991 C 217.022 178.413,219.371 181.409,222.623 180.690 C 223.059 180.593,224.031 180.406,224.781 180.273 C 229.649 179.411,233.839 173.971,230.831 172.416 C 230.171 172.074,229.450 172.117,228.123 172.577 " stroke="none" fill="#73433B" fill-rule="evenodd"></path><path id="path3" d="M244.500 208.750 C 244.095 209.162,243.801 209.500,243.847 209.500 C 243.893 209.500,244.262 209.162,244.667 208.750 C 245.072 208.338,245.365 208.000,245.319 208.000 C 245.274 208.000,244.905 208.338,244.500 208.750 M241.740 211.375 L 241.250 211.917 241.792 211.427 C 242.297 210.971,242.410 210.833,242.281 210.833 C 242.252 210.833,242.009 211.077,241.740 211.375 M235.740 225.708 L 235.250 226.250 235.792 225.760 C 236.297 225.304,236.410 225.167,236.281 225.167 C 236.252 225.167,236.009 225.410,235.740 225.708 M231.573 229.875 L 231.083 230.417 231.625 229.927 C 232.130 229.471,232.243 229.333,232.115 229.333 C 232.086 229.333,231.842 229.577,231.573 229.875 M195.570 254.500 C 195.570 256.287,195.594 257.019,195.624 256.125 C 195.654 255.231,195.654 253.769,195.624 252.875 C 195.594 251.981,195.570 252.713,195.570 254.500 M193.055 262.250 C 193.055 262.892,193.086 263.134,193.122 262.788 C 193.158 262.442,193.157 261.917,193.120 261.621 C 193.083 261.325,193.054 261.608,193.055 262.250 M194.705 266.000 C 194.705 266.321,194.740 266.452,194.782 266.292 C 194.823 266.131,194.823 265.869,194.782 265.708 C 194.740 265.548,194.705 265.679,194.705 266.000 M192.627 287.951 C 192.834 287.991,193.134 287.990,193.294 287.948 C 193.453 287.906,193.283 287.874,192.917 287.875 C 192.550 287.877,192.420 287.911,192.627 287.951 M234.375 290.953 C 234.627 290.991,235.040 290.991,235.292 290.953 C 235.544 290.915,235.338 290.883,234.833 290.883 C 234.329 290.883,234.123 290.915,234.375 290.953 M284.564 355.000 C 284.564 356.146,284.591 356.615,284.623 356.042 C 284.656 355.469,284.656 354.531,284.623 353.958 C 284.591 353.385,284.564 353.854,284.564 355.000 M151.550 357.333 C 151.550 357.837,151.581 358.044,151.619 357.792 C 151.658 357.540,151.658 357.127,151.619 356.875 C 151.581 356.623,151.550 356.829,151.550 357.333 M154.039 366.333 C 154.039 366.654,154.073 366.785,154.115 366.625 C 154.157 366.465,154.157 366.202,154.115 366.042 C 154.073 365.881,154.039 366.012,154.039 366.333 M151.542 370.417 C 151.544 370.783,151.578 370.914,151.618 370.706 C 151.658 370.499,151.656 370.199,151.615 370.040 C 151.573 369.880,151.540 370.050,151.542 370.417 M151.714 374.417 C 151.716 374.875,151.748 375.043,151.786 374.789 C 151.825 374.536,151.824 374.161,151.784 373.956 C 151.744 373.751,151.713 373.958,151.714 374.417 M154.879 376.333 C 154.879 376.746,154.911 376.915,154.951 376.708 C 154.991 376.502,154.991 376.165,154.951 375.958 C 154.911 375.752,154.879 375.921,154.879 376.333 M152.209 382.417 C 152.211 382.783,152.245 382.914,152.285 382.706 C 152.324 382.499,152.323 382.199,152.281 382.040 C 152.239 381.880,152.207 382.050,152.209 382.417 M155.372 383.500 C 155.372 383.821,155.406 383.952,155.448 383.792 C 155.490 383.631,155.490 383.369,155.448 383.208 C 155.406 383.048,155.372 383.179,155.372 383.500 M152.548 387.917 C 152.549 388.375,152.581 388.543,152.620 388.289 C 152.658 388.036,152.657 387.661,152.617 387.456 C 152.578 387.251,152.546 387.458,152.548 387.917 M155.714 388.583 C 155.716 389.042,155.748 389.209,155.786 388.956 C 155.825 388.703,155.824 388.328,155.784 388.123 C 155.744 387.918,155.713 388.125,155.714 388.583 M156.205 394.833 C 156.205 395.154,156.240 395.285,156.282 395.125 C 156.323 394.965,156.323 394.702,156.282 394.542 C 156.240 394.381,156.205 394.512,156.205 394.833 " stroke="none" fill="#2D1C17" fill-rule="evenodd"></path><path id="path4" d="M243.000 210.250 C 242.595 210.662,242.301 211.000,242.347 211.000 C 242.393 211.000,242.762 210.662,243.167 210.250 C 243.572 209.838,243.865 209.500,243.819 209.500 C 243.774 209.500,243.405 209.838,243.000 210.250 M236.906 224.375 L 236.417 224.917 236.958 224.427 C 237.463 223.971,237.577 223.833,237.448 223.833 C 237.419 223.833,237.175 224.077,236.906 224.375 M233.577 227.875 L 232.750 228.750 233.625 227.923 C 234.106 227.468,234.500 227.074,234.500 227.048 C 234.500 226.924,234.346 227.062,233.577 227.875 M230.073 231.208 L 229.583 231.750 230.125 231.260 C 230.630 230.804,230.743 230.667,230.615 230.667 C 230.586 230.667,230.342 230.910,230.073 231.208 M194.065 247.333 C 194.065 248.571,194.092 249.077,194.124 248.458 C 194.156 247.840,194.156 246.827,194.124 246.208 C 194.092 245.590,194.065 246.096,194.065 247.333 M193.063 259.333 C 193.063 260.387,193.090 260.819,193.123 260.292 C 193.156 259.765,193.156 258.902,193.123 258.375 C 193.090 257.848,193.063 258.279,193.063 259.333 M223.625 297.451 C 223.831 297.491,224.169 297.491,224.375 297.451 C 224.581 297.411,224.412 297.379,224.000 297.379 C 223.588 297.379,223.419 297.411,223.625 297.451 M151.560 355.000 C 151.560 355.871,151.588 356.227,151.623 355.792 C 151.657 355.356,151.657 354.644,151.623 354.208 C 151.588 353.773,151.560 354.129,151.560 355.000 M284.705 358.167 C 284.705 358.488,284.740 358.619,284.782 358.458 C 284.823 358.298,284.823 358.035,284.782 357.875 C 284.740 357.715,284.705 357.846,284.705 358.167 M151.566 360.500 C 151.566 361.829,151.592 362.373,151.624 361.708 C 151.655 361.044,151.655 359.956,151.624 359.292 C 151.592 358.627,151.566 359.171,151.566 360.500 M151.553 368.833 C 151.553 369.429,151.584 369.673,151.621 369.375 C 151.658 369.077,151.658 368.590,151.621 368.292 C 151.584 367.994,151.553 368.238,151.553 368.833 M151.709 373.083 C 151.711 373.450,151.745 373.580,151.785 373.373 C 151.824 373.166,151.823 372.866,151.781 372.706 C 151.739 372.547,151.707 372.717,151.709 373.083 M152.214 381.083 C 152.216 381.542,152.248 381.709,152.286 381.456 C 152.325 381.203,152.324 380.828,152.284 380.623 C 152.244 380.418,152.213 380.625,152.214 381.083 M155.212 381.833 C 155.212 382.246,155.245 382.415,155.284 382.208 C 155.324 382.002,155.324 381.665,155.284 381.458 C 155.245 381.252,155.212 381.421,155.212 381.833 M152.372 384.000 C 152.372 384.321,152.406 384.452,152.448 384.292 C 152.490 384.131,152.490 383.869,152.448 383.708 C 152.406 383.548,152.372 383.679,152.372 384.000 M152.539 386.667 C 152.539 386.988,152.573 387.119,152.615 386.958 C 152.657 386.798,152.657 386.535,152.615 386.375 C 152.573 386.215,152.539 386.346,152.539 386.667 M155.539 386.833 C 155.539 387.154,155.573 387.285,155.615 387.125 C 155.657 386.965,155.657 386.702,155.615 386.542 C 155.573 386.381,155.539 386.512,155.539 386.833 M152.705 389.667 C 152.705 389.988,152.740 390.119,152.782 389.958 C 152.823 389.798,152.823 389.535,152.782 389.375 C 152.740 389.215,152.705 389.346,152.705 389.667 M155.712 390.000 C 155.712 390.412,155.745 390.581,155.784 390.375 C 155.824 390.169,155.824 389.831,155.784 389.625 C 155.745 389.419,155.712 389.587,155.712 390.000 " stroke="none" fill="#1E120E" fill-rule="evenodd"></path><path id="path5" d="M231.875 174.083 C 231.877 174.450,231.911 174.580,231.951 174.373 C 231.991 174.166,231.990 173.866,231.948 173.706 C 231.906 173.547,231.874 173.717,231.875 174.083 M229.828 177.625 L 228.917 178.583 229.875 177.672 C 230.402 177.171,230.833 176.740,230.833 176.714 C 230.833 176.590,230.674 176.735,229.828 177.625 " stroke="none" fill="#542C2C" fill-rule="evenodd"></path></g></svg>