<svg id="svg" version="1.1" xmlns="http://www.w3.org/2000/svg" xmlns:xlink="http://www.w3.org/1999/xlink" viewBox="0, 0, 400,400"><g id="svgg"><path id="path0" d="M208.000 73.082 C 204.782 73.319,203.104 73.551,198.833 74.351 C 195.503 74.975,188.518 76.914,186.583 77.752 C 186.308 77.871,185.296 78.292,184.333 78.686 C 182.567 79.411,179.575 80.891,178.500 81.572 C 175.689 83.352,173.034 85.231,172.083 86.113 C 171.900 86.283,171.525 86.596,171.250 86.808 C 170.174 87.639,166.897 90.838,165.419 92.500 C 164.564 93.462,163.627 94.513,163.338 94.833 C 163.049 95.154,162.499 95.829,162.116 96.333 C 161.732 96.837,161.373 97.287,161.317 97.333 C 160.886 97.685,156.833 103.658,156.833 103.941 C 156.833 104.005,156.728 104.175,156.600 104.320 C 155.636 105.405,150.833 115.577,150.833 116.533 C 150.833 116.662,150.766 116.838,150.685 116.925 C 150.542 117.077,149.244 120.859,148.857 122.250 C 148.086 125.023,147.548 126.913,147.156 128.223 C 146.628 129.988,145.359 135.216,145.025 137.000 C 144.931 137.504,144.739 138.517,144.599 139.250 C 143.564 144.674,143.297 147.748,143.657 150.083 C 143.741 150.633,143.855 151.421,143.910 151.833 C 143.964 152.246,144.161 153.108,144.346 153.750 C 144.532 154.392,144.746 155.155,144.822 155.445 C 144.897 155.736,145.277 156.636,145.665 157.445 C 146.938 160.099,147.298 162.056,147.008 164.746 C 146.772 166.940,146.571 167.888,145.662 171.083 C 145.509 171.621,144.938 173.462,144.279 175.542 C 144.054 176.252,143.897 176.833,143.931 176.833 C 143.964 176.833,143.917 177.029,143.826 177.268 C 143.269 178.735,143.027 183.014,143.334 185.972 C 143.426 186.858,143.580 188.333,143.676 189.250 C 144.013 192.470,144.808 195.590,146.398 199.933 C 146.647 200.616,148.973 206.200,149.657 207.760 C 149.856 208.213,150.083 208.733,150.162 208.917 C 150.241 209.100,150.562 209.813,150.875 210.500 C 151.189 211.188,151.698 212.313,152.007 213.000 C 154.209 217.897,159.281 226.836,160.029 227.139 C 160.105 227.169,160.167 227.263,160.167 227.346 C 160.167 228.711,167.886 236.064,171.119 237.778 C 171.943 238.215,172.597 238.589,172.833 238.759 C 173.053 238.917,173.831 239.244,176.000 240.092 C 176.321 240.217,176.883 240.392,177.250 240.482 C 177.617 240.571,178.442 240.780,179.083 240.947 C 182.114 241.734,192.788 240.997,194.000 239.917 C 194.137 239.795,194.550 239.643,194.917 239.579 C 195.739 239.437,199.404 238.471,201.417 237.867 C 202.295 237.603,205.183 236.579,205.750 236.331 C 208.714 235.032,211.589 233.504,215.040 231.392 C 215.841 230.901,216.529 230.500,216.569 230.500 C 217.047 230.500,229.427 222.160,230.167 221.339 C 230.213 221.289,230.963 220.691,231.833 220.011 C 233.541 218.679,234.236 218.084,238.582 214.237 C 241.716 211.463,244.066 209.263,247.067 206.295 C 250.144 203.252,250.553 203.526,248.772 207.439 C 244.074 217.763,234.187 228.958,221.250 238.603 C 215.273 243.058,206.603 247.196,199.333 249.061 C 195.408 250.069,195.738 249.560,195.613 254.784 C 195.556 257.149,195.440 259.646,195.354 260.333 C 195.269 261.021,195.112 262.483,195.005 263.583 C 194.899 264.683,194.730 266.221,194.631 267.000 C 194.532 267.779,194.327 269.504,194.176 270.833 C 193.956 272.769,193.876 273.134,193.774 272.667 C 193.705 272.346,193.545 271.633,193.421 271.083 C 193.265 270.396,193.158 268.128,193.081 263.833 C 193.019 260.396,192.949 257.564,192.927 257.540 C 192.904 257.516,192.330 257.861,191.651 258.308 C 190.972 258.754,188.767 260.149,186.750 261.408 C 184.733 262.667,182.794 263.894,182.440 264.134 C 182.086 264.375,181.658 264.649,181.489 264.744 C 180.906 265.072,178.749 266.412,178.583 266.550 C 178.492 266.625,177.817 267.070,177.083 267.537 C 176.350 268.004,175.145 268.778,174.405 269.258 C 173.665 269.737,172.765 270.291,172.405 270.489 C 172.045 270.687,171.300 271.117,170.750 271.444 C 170.200 271.772,169.412 272.230,169.000 272.461 C 168.587 272.693,167.725 273.178,167.083 273.540 C 165.776 274.276,158.923 277.665,157.002 278.525 C 155.589 279.157,148.549 282.586,148.167 282.827 C 148.029 282.914,147.242 283.338,146.417 283.768 C 145.592 284.198,144.654 284.712,144.333 284.910 C 144.012 285.108,143.487 285.398,143.167 285.556 C 142.846 285.714,142.471 285.915,142.333 286.003 C 141.557 286.500,139.297 287.833,139.230 287.833 C 139.187 287.833,138.596 288.208,137.917 288.667 C 137.237 289.125,136.647 289.500,136.604 289.500 C 136.514 289.500,133.790 291.351,133.667 291.497 C 133.621 291.551,133.358 291.766,133.083 291.975 C 130.882 293.649,128.348 296.859,126.911 299.794 C 126.384 300.870,125.890 301.877,125.814 302.033 C 125.442 302.789,124.238 305.780,123.646 307.417 C 123.281 308.425,122.883 309.512,122.760 309.833 C 122.422 310.719,121.976 311.877,121.828 312.250 C 121.704 312.565,121.192 314.293,120.617 316.333 C 120.476 316.837,120.274 317.700,120.168 318.250 C 120.063 318.800,119.912 319.512,119.833 319.833 C 119.663 320.519,119.100 323.976,118.829 326.000 C 118.725 326.779,118.564 327.904,118.470 328.500 C 118.377 329.096,118.273 329.883,118.237 330.250 C 118.202 330.617,118.099 331.404,118.009 332.000 C 117.488 335.426,117.092 338.376,116.744 341.417 C 116.597 342.700,116.319 344.875,116.126 346.250 C 115.934 347.625,115.725 349.238,115.662 349.833 C 115.599 350.429,115.463 351.667,115.360 352.583 C 115.051 355.343,114.833 358.229,114.836 359.526 C 114.838 360.199,114.728 361.988,114.592 363.500 C 114.456 365.012,114.264 367.375,114.165 368.750 C 113.997 371.110,113.699 374.486,113.329 378.250 C 113.239 379.167,113.165 380.010,113.166 380.125 C 113.167 380.314,114.246 380.874,117.387 382.313 C 118.012 382.599,118.553 382.833,118.590 382.833 C 118.662 382.833,120.406 383.604,120.840 383.827 C 120.982 383.900,122.144 384.389,123.424 384.913 C 124.703 385.438,125.975 385.963,126.250 386.079 C 126.525 386.196,127.500 386.570,128.417 386.910 C 129.333 387.250,130.346 387.628,130.667 387.751 C 130.987 387.874,131.813 388.174,132.500 388.417 C 133.188 388.660,134.012 388.962,134.333 389.088 C 134.654 389.214,135.554 389.519,136.333 389.764 C 137.112 390.010,138.162 390.356,138.667 390.532 C 139.171 390.708,139.958 390.955,140.417 391.081 C 141.202 391.295,142.184 391.596,143.487 392.023 C 143.801 392.125,144.589 392.347,145.237 392.516 C 145.886 392.685,147.242 393.050,148.250 393.327 C 149.258 393.605,150.308 393.876,150.583 393.930 C 150.858 393.984,151.271 394.095,151.500 394.177 C 151.729 394.259,152.171 394.368,152.482 394.419 L 153.047 394.513 152.941 393.298 C 152.790 391.579,152.549 387.819,152.335 383.833 C 152.234 381.954,152.027 378.879,151.876 377.000 C 151.459 371.821,151.452 352.037,151.867 351.774 C 152.350 351.469,152.492 351.913,152.843 354.833 C 153.345 359.010,153.521 360.573,153.661 362.083 C 153.745 363.000,153.890 364.425,153.983 365.250 C 154.075 366.075,154.233 367.800,154.334 369.083 C 154.434 370.367,154.585 372.129,154.670 373.000 C 154.754 373.871,154.865 375.221,154.916 376.000 C 154.967 376.779,155.080 378.354,155.167 379.500 C 155.255 380.646,155.441 383.533,155.582 385.917 C 155.825 390.023,156.067 393.058,156.275 394.617 C 156.369 395.317,156.370 395.318,157.309 395.510 C 157.827 395.617,158.625 395.798,159.083 395.914 C 159.542 396.029,160.479 396.215,161.167 396.326 C 161.854 396.437,162.867 396.631,163.417 396.756 C 163.967 396.882,165.692 397.180,167.250 397.418 C 168.808 397.656,170.721 397.955,171.500 398.082 C 172.279 398.209,173.704 398.398,174.667 398.501 C 175.629 398.605,177.317 398.794,178.417 398.921 C 180.534 399.166,182.746 399.357,187.500 399.704 C 191.428 399.991,208.779 399.993,212.417 399.707 C 213.883 399.592,216.133 399.418,217.417 399.321 C 218.700 399.224,220.612 399.043,221.667 398.918 C 222.721 398.793,224.333 398.606,225.250 398.502 C 226.167 398.399,227.592 398.211,228.417 398.085 C 229.801 397.873,231.391 397.632,232.833 397.414 C 233.154 397.366,233.829 397.249,234.333 397.154 C 234.838 397.059,235.850 396.869,236.583 396.731 C 237.317 396.593,238.329 396.403,238.833 396.309 C 239.338 396.216,240.069 396.069,240.459 395.984 C 240.848 395.898,241.898 395.683,242.792 395.506 C 243.686 395.328,244.642 395.112,244.917 395.025 C 245.192 394.938,246.017 394.738,246.750 394.581 C 247.483 394.423,248.608 394.148,249.250 393.970 C 249.892 393.792,250.717 393.580,251.083 393.497 C 251.450 393.415,252.162 393.230,252.667 393.085 C 253.171 392.941,254.108 392.677,254.750 392.500 C 257.139 391.840,257.672 391.683,257.805 391.601 C 257.879 391.555,258.122 391.483,258.345 391.441 C 258.568 391.399,260.475 390.792,262.583 390.093 C 266.961 388.641,268.396 388.132,271.000 387.112 C 271.596 386.879,272.608 386.489,273.250 386.245 C 274.595 385.735,278.779 384.023,279.160 383.827 C 279.586 383.608,281.338 382.833,281.407 382.833 C 281.485 382.833,284.493 381.427,286.611 380.400 L 288.138 379.660 288.007 379.122 C 287.935 378.826,287.788 378.058,287.679 377.417 C 287.570 376.775,287.378 375.762,287.253 375.167 C 287.127 374.571,286.937 373.596,286.831 373.000 C 286.724 372.404,286.529 371.354,286.397 370.667 C 285.302 364.952,284.928 362.201,284.645 357.793 C 284.427 354.397,284.581 351.393,285.128 348.375 C 285.453 346.581,285.527 346.525,285.980 347.735 C 286.330 348.671,286.387 348.904,287.507 354.000 C 288.141 356.886,288.459 358.309,288.828 359.917 C 288.913 360.283,289.102 361.146,289.250 361.833 C 289.561 363.281,289.742 364.103,289.992 365.209 C 290.091 365.644,290.319 366.750,290.500 367.667 C 290.681 368.583,290.901 369.652,290.991 370.041 C 291.080 370.431,291.345 371.800,291.579 373.083 C 292.447 377.833,292.335 377.548,293.167 377.114 C 294.767 376.278,297.011 375.052,297.500 374.746 C 297.821 374.546,298.252 374.329,298.458 374.263 C 298.665 374.198,298.833 374.074,298.833 373.989 C 298.833 373.903,298.919 373.833,299.024 373.833 C 299.128 373.833,299.689 373.533,300.270 373.167 C 300.850 372.800,301.363 372.500,301.409 372.500 C 301.456 372.500,301.889 372.250,302.372 371.945 C 302.855 371.640,303.362 371.337,303.500 371.272 C 303.882 371.091,304.370 370.789,304.946 370.375 C 305.233 370.169,305.519 370.000,305.582 370.000 C 305.644 370.000,306.008 369.782,306.389 369.515 C 307.320 368.865,310.042 367.102,310.248 367.015 C 310.339 366.977,310.912 366.583,311.522 366.139 C 312.131 365.696,312.679 365.333,312.739 365.333 C 312.798 365.333,312.938 365.257,313.049 365.163 C 313.159 365.069,314.788 363.888,316.669 362.538 C 318.549 361.188,320.471 359.783,320.940 359.417 C 321.409 359.050,322.378 358.300,323.092 357.750 C 323.807 357.200,324.923 356.314,325.571 355.781 C 326.220 355.248,326.865 354.723,327.006 354.614 C 327.379 354.326,329.236 352.773,329.333 352.668 C 329.379 352.618,329.679 352.364,330.000 352.102 C 330.321 351.840,331.183 351.086,331.917 350.425 C 332.650 349.765,333.587 348.930,333.998 348.571 C 335.670 347.110,336.949 345.875,341.412 341.416 C 346.094 336.737,346.845 335.954,349.166 333.329 C 349.853 332.552,350.491 331.836,350.583 331.738 C 350.675 331.639,351.125 331.121,351.583 330.587 C 352.042 330.053,352.493 329.534,352.585 329.433 C 352.678 329.332,353.128 328.800,353.585 328.250 C 354.043 327.700,354.476 327.206,354.549 327.152 C 354.698 327.042,354.652 326.733,354.154 324.500 C 353.960 323.629,353.737 322.617,353.659 322.250 C 353.581 321.883,353.283 320.683,352.998 319.583 C 352.712 318.483,352.453 317.471,352.423 317.333 C 352.393 317.196,352.018 315.921,351.589 314.500 C 351.161 313.079,350.740 311.673,350.655 311.375 C 350.570 311.077,350.429 310.590,350.342 310.292 C 350.176 309.719,349.019 306.429,348.687 305.583 C 348.579 305.308,348.410 304.858,348.311 304.583 C 347.783 303.118,345.719 298.909,344.738 297.299 C 344.241 296.482,343.833 295.750,343.833 295.671 C 343.833 295.592,343.777 295.503,343.708 295.472 C 343.640 295.442,343.175 294.817,342.677 294.083 C 340.617 291.053,337.255 287.242,334.641 284.971 C 333.465 283.949,330.609 281.833,330.406 281.833 C 330.335 281.833,330.158 281.730,330.013 281.604 C 329.656 281.294,326.983 279.902,325.750 279.385 C 324.619 278.910,322.854 278.078,318.750 276.084 C 314.719 274.125,312.001 272.833,311.910 272.833 C 311.799 272.833,307.013 270.442,305.959 269.861 C 305.477 269.595,304.483 269.055,303.750 268.660 C 303.017 268.265,302.042 267.737,301.583 267.487 C 297.020 264.996,294.983 263.934,291.167 262.058 C 281.561 257.337,279.095 256.099,276.750 254.819 C 275.375 254.069,273.924 253.280,273.526 253.066 C 272.936 252.748,270.187 251.143,268.757 250.280 C 267.607 249.586,265.586 248.279,265.407 248.114 C 262.447 245.379,260.359 240.724,259.936 235.917 C 258.966 224.903,259.853 210.004,261.836 204.000 C 261.911 203.771,262.101 203.133,262.256 202.583 C 262.910 200.272,263.380 198.714,263.589 198.167 C 263.712 197.846,263.901 197.283,264.009 196.917 C 264.117 196.550,264.300 196.025,264.416 195.750 C 264.531 195.475,264.944 194.425,265.333 193.417 C 265.722 192.408,266.256 191.118,266.520 190.549 C 266.784 189.980,267.000 189.464,267.000 189.403 C 267.000 189.269,270.127 182.989,270.893 181.583 C 271.193 181.033,271.739 180.058,272.106 179.417 C 272.473 178.775,272.881 178.063,273.012 177.833 C 273.143 177.604,273.294 177.379,273.349 177.333 C 273.470 177.232,276.167 172.673,276.167 172.571 C 276.167 172.531,276.358 172.105,276.593 171.624 C 277.513 169.735,278.297 167.735,279.321 164.667 C 279.944 162.799,280.122 162.173,280.817 159.417 C 283.641 148.215,283.606 135.479,280.720 124.250 C 280.414 123.058,280.125 121.913,280.078 121.705 C 279.719 120.118,277.418 113.770,276.380 111.500 C 275.365 109.280,273.546 105.639,272.831 104.396 C 272.402 103.652,272.002 102.939,271.941 102.813 C 271.880 102.687,271.672 102.321,271.478 102.000 C 271.284 101.679,271.003 101.191,270.854 100.916 C 270.705 100.641,270.433 100.190,270.250 99.915 C 269.723 99.125,269.506 98.769,269.388 98.500 C 269.223 98.127,266.369 93.984,266.172 93.833 C 266.113 93.787,265.956 93.593,265.824 93.401 C 264.707 91.780,260.275 87.278,258.250 85.708 C 256.877 84.643,252.790 81.833,252.614 81.833 C 252.559 81.833,252.241 81.647,251.906 81.420 C 251.142 80.902,246.816 78.790,245.250 78.172 C 245.067 78.099,244.579 77.909,244.167 77.750 C 243.754 77.591,243.267 77.400,243.083 77.327 C 234.455 73.885,220.321 72.175,208.000 73.082 M230.831 172.416 C 233.789 173.945,229.889 179.249,225.083 180.233 C 222.283 180.807,221.610 180.877,220.833 180.673 C 218.408 180.034,217.601 178.046,219.399 177.136 C 219.775 176.945,221.309 176.079,222.806 175.212 C 227.565 172.457,229.564 171.760,230.831 172.416 M167.631 196.570 C 170.163 197.114,170.567 197.929,168.876 199.079 C 168.104 199.603,167.770 199.605,166.553 199.091 C 166.020 198.865,164.886 198.442,164.034 198.150 C 161.992 197.451,161.251 196.825,161.792 196.258 C 161.989 196.051,166.287 196.281,167.631 196.570 M184.583 286.856 C 185.592 286.954,187.242 287.180,188.250 287.359 C 189.258 287.538,191.061 287.754,192.256 287.838 C 195.973 288.099,198.179 288.946,202.217 291.662 C 204.590 293.259,204.868 293.585,204.428 294.256 C 203.897 295.067,202.861 294.902,198.250 293.274 C 197.333 292.951,195.196 292.341,193.500 291.921 C 191.804 291.500,190.004 291.046,189.500 290.911 C 186.177 290.026,185.401 289.827,183.833 289.452 C 182.871 289.222,181.665 288.949,181.154 288.845 C 179.965 288.603,179.500 288.278,179.500 287.689 C 179.500 286.452,179.835 286.397,184.583 286.856 M251.583 289.400 C 253.418 290.274,253.173 290.500,249.250 291.553 C 246.455 292.304,245.517 292.479,239.688 293.346 C 235.568 293.959,229.871 295.466,225.920 296.988 C 223.935 297.753,222.662 297.600,222.669 296.599 C 222.673 296.063,222.784 295.959,224.788 294.605 C 228.522 292.084,231.199 291.081,234.666 290.905 C 237.788 290.747,241.361 290.326,245.417 289.640 C 249.991 288.866,250.426 288.849,251.583 289.400 " stroke="none" fill="#C4846C" fill-rule="evenodd"></path><path id="path1" d="M162.125 196.282 C 161.080 196.555,161.989 197.301,164.417 198.164 C 165.517 198.555,166.619 198.978,166.867 199.104 C 168.103 199.734,170.514 198.250,169.632 197.402 C 168.980 196.776,163.413 195.945,162.125 196.282 M249.218 204.465 C 249.109 204.534,247.571 205.990,245.801 207.700 C 244.031 209.410,242.426 210.946,242.233 211.113 C 242.040 211.280,241.177 212.064,240.316 212.855 C 232.025 220.469,225.378 225.403,215.500 231.278 C 207.292 236.160,203.588 237.693,195.333 239.624 L 194.083 239.917 194.083 247.917 L 194.083 255.917 193.693 256.709 C 193.479 257.145,193.254 257.470,193.193 257.433 C 193.042 257.339,193.251 270.147,193.409 270.667 C 193.478 270.896,193.617 271.383,193.716 271.750 C 193.919 272.499,193.831 273.086,194.641 265.583 C 194.839 263.750,195.082 261.612,195.181 260.833 C 195.280 260.054,195.402 257.504,195.452 255.167 C 195.574 249.530,195.263 250.038,199.264 248.930 C 214.278 244.774,226.734 236.220,239.816 221.081 C 243.390 216.946,246.388 212.438,248.092 208.637 C 248.435 207.874,248.969 206.694,249.281 206.014 C 249.922 204.616,249.898 204.032,249.218 204.465 M179.943 286.914 C 179.121 287.736,179.778 288.491,181.603 288.822 C 182.156 288.922,183.616 289.261,184.846 289.575 C 186.077 289.888,189.183 290.677,191.750 291.327 C 194.317 291.978,197.167 292.776,198.083 293.102 C 202.458 294.658,203.830 294.915,204.260 294.258 C 204.697 293.592,204.442 293.299,202.040 291.711 C 198.262 289.214,196.397 288.418,193.667 288.139 C 192.152 287.984,191.377 287.886,186.083 287.179 C 182.263 286.669,180.274 286.583,179.943 286.914 M247.000 289.513 C 243.349 290.140,239.899 290.606,237.250 290.831 C 231.424 291.324,230.716 291.474,228.132 292.752 C 226.257 293.680,223.080 295.790,222.816 296.282 C 222.162 297.504,223.886 297.647,226.648 296.600 C 230.491 295.143,235.464 293.895,240.667 293.083 C 246.500 292.172,248.471 291.749,251.295 290.803 L 252.839 290.285 252.259 289.891 C 250.942 288.996,250.284 288.948,247.000 289.513 M285.359 347.845 C 284.226 353.626,284.524 359.831,286.432 370.167 C 288.101 379.209,288.150 379.429,288.519 379.429 C 288.692 379.429,288.833 379.377,288.833 379.314 C 288.833 379.252,289.581 378.836,290.494 378.392 C 291.767 377.772,292.157 377.505,292.160 377.250 C 292.164 376.984,290.952 370.305,290.599 368.644 C 290.182 366.685,289.036 361.489,287.664 355.333 C 287.306 353.729,286.900 351.854,286.761 351.167 C 286.467 349.711,285.876 347.547,285.675 347.188 C 285.578 347.015,285.483 347.213,285.359 347.845 M151.781 351.941 C 151.543 352.180,151.658 371.280,151.921 375.083 C 152.061 377.100,152.246 380.063,152.332 381.667 C 152.664 387.844,153.010 393.439,153.091 393.941 C 153.177 394.473,153.338 394.568,154.500 394.772 C 154.729 394.812,155.165 394.925,155.470 395.023 C 156.194 395.255,156.172 395.323,155.990 393.412 C 155.844 391.872,155.543 387.476,155.169 381.417 C 155.084 380.042,154.896 377.454,154.751 375.667 C 154.605 373.879,154.415 371.517,154.328 370.417 C 154.241 369.317,154.054 367.254,153.914 365.833 C 153.773 364.412,153.585 362.500,153.497 361.583 C 153.409 360.667,153.264 359.354,153.175 358.667 C 153.086 357.979,152.889 356.404,152.737 355.167 C 152.354 352.042,152.200 351.522,151.781 351.941 " stroke="none" fill="#74443C" fill-rule="evenodd"></path><path id="path2" d="M247.412 206.042 L 246.250 207.250 247.458 206.088 C 248.581 205.008,248.743 204.833,248.621 204.833 C 248.595 204.833,248.051 205.377,247.412 206.042 M194.065 247.583 C 194.065 248.775,194.092 249.241,194.124 248.618 C 194.156 247.996,194.156 247.021,194.123 246.451 C 194.091 245.882,194.064 246.392,194.065 247.583 M194.069 252.667 C 194.069 254.271,194.094 254.927,194.124 254.125 C 194.155 253.323,194.155 252.010,194.124 251.208 C 194.094 250.406,194.069 251.063,194.069 252.667 M193.259 257.204 C 193.097 257.435,193.009 257.888,193.025 258.412 L 193.049 259.250 193.150 258.317 C 193.205 257.804,193.353 257.261,193.479 257.109 C 193.605 256.957,193.665 256.833,193.613 256.833 C 193.561 256.833,193.402 257.000,193.259 257.204 M223.708 297.448 C 223.869 297.490,224.131 297.490,224.292 297.448 C 224.452 297.406,224.321 297.372,224.000 297.372 C 223.679 297.372,223.548 297.406,223.708 297.448 M151.548 352.917 C 151.549 353.375,151.581 353.543,151.620 353.289 C 151.658 353.036,151.657 352.661,151.617 352.456 C 151.578 352.251,151.546 352.458,151.548 352.917 M151.567 365.417 C 151.568 366.883,151.593 367.461,151.624 366.700 C 151.655 365.940,151.655 364.740,151.624 364.034 C 151.593 363.328,151.567 363.950,151.567 365.417 M151.872 375.500 C 151.872 375.821,151.906 375.952,151.948 375.792 C 151.990 375.631,151.990 375.369,151.948 375.208 C 151.906 375.048,151.872 375.179,151.872 375.500 M152.205 380.333 C 152.205 380.654,152.240 380.785,152.282 380.625 C 152.323 380.465,152.323 380.202,152.282 380.042 C 152.240 379.881,152.205 380.012,152.205 380.333 M155.205 382.500 C 155.205 382.821,155.240 382.952,155.282 382.792 C 155.323 382.631,155.323 382.369,155.282 382.208 C 155.240 382.048,155.205 382.179,155.205 382.500 M155.539 387.333 C 155.539 387.654,155.573 387.785,155.615 387.625 C 155.657 387.465,155.657 387.202,155.615 387.042 C 155.573 386.881,155.539 387.012,155.539 387.333 M152.705 389.167 C 152.705 389.488,152.740 389.619,152.782 389.458 C 152.823 389.298,152.823 389.035,152.782 388.875 C 152.740 388.715,152.705 388.846,152.705 389.167 M153.019 394.212 C 153.000 394.514,153.717 394.903,154.067 394.780 C 154.168 394.745,154.011 394.663,153.718 394.597 C 153.426 394.532,153.154 394.352,153.113 394.197 C 153.047 393.947,153.037 393.949,153.019 394.212 M154.917 395.000 C 155.100 395.079,155.362 395.143,155.500 395.143 C 155.658 395.143,155.627 395.090,155.417 395.000 C 155.233 394.921,154.971 394.857,154.833 394.857 C 154.676 394.857,154.707 394.910,154.917 395.000 " stroke="none" fill="#945c4E" fill-rule="evenodd"></path><path id="path3" d="M167.542 199.448 C 167.702 199.490,167.965 199.490,168.125 199.448 C 168.285 199.406,168.154 199.372,167.833 199.372 C 167.512 199.372,167.381 199.406,167.542 199.448 M244.409 208.875 L 243.750 209.583 244.458 208.925 C 245.117 208.312,245.243 208.167,245.117 208.167 C 245.090 208.167,244.771 208.485,244.409 208.875 M235.244 226.208 L 234.417 227.083 235.292 226.256 C 236.105 225.488,236.243 225.333,236.119 225.333 C 236.092 225.333,235.699 225.727,235.244 226.208 M231.910 229.542 L 231.083 230.417 231.958 229.590 C 232.771 228.821,232.910 228.667,232.785 228.667 C 232.759 228.667,232.365 229.060,231.910 229.542 M195.569 254.167 C 195.569 255.862,195.594 256.556,195.624 255.708 C 195.654 254.860,195.654 253.473,195.624 252.625 C 195.594 251.777,195.569 252.471,195.569 254.167 M193.055 262.250 C 193.055 262.892,193.086 263.134,193.122 262.788 C 193.158 262.442,193.157 261.917,193.120 261.621 C 193.083 261.325,193.054 261.608,193.055 262.250 M192.627 287.951 C 192.834 287.991,193.134 287.990,193.294 287.948 C 193.453 287.906,193.283 287.874,192.917 287.875 C 192.550 287.877,192.420 287.911,192.627 287.951 M234.375 290.953 C 234.627 290.991,235.040 290.991,235.292 290.953 C 235.544 290.915,235.338 290.883,234.833 290.883 C 234.329 290.883,234.123 290.915,234.375 290.953 M284.564 354.917 C 284.564 356.017,284.591 356.445,284.624 355.868 C 284.656 355.292,284.656 354.392,284.623 353.868 C 284.590 353.345,284.563 353.817,284.564 354.917 M151.550 357.333 C 151.550 357.837,151.581 358.044,151.619 357.792 C 151.658 357.540,151.658 357.127,151.619 356.875 C 151.581 356.623,151.550 356.829,151.550 357.333 M284.872 361.000 C 284.872 361.321,284.906 361.452,284.948 361.292 C 284.990 361.131,284.990 360.869,284.948 360.708 C 284.906 360.548,284.872 360.679,284.872 361.000 M151.539 370.333 C 151.539 370.654,151.573 370.785,151.615 370.625 C 151.657 370.465,151.657 370.202,151.615 370.042 C 151.573 369.881,151.539 370.012,151.539 370.333 M151.712 374.333 C 151.712 374.746,151.745 374.915,151.784 374.708 C 151.824 374.502,151.824 374.165,151.784 373.958 C 151.745 373.752,151.712 373.921,151.712 374.333 M154.875 376.417 C 154.877 376.783,154.911 376.914,154.951 376.706 C 154.991 376.499,154.990 376.199,154.948 376.040 C 154.906 375.880,154.874 376.050,154.875 376.417 M155.209 380.917 C 155.211 381.283,155.245 381.414,155.285 381.206 C 155.324 380.999,155.323 380.699,155.281 380.540 C 155.239 380.380,155.207 380.550,155.209 380.917 M152.212 382.167 C 152.212 382.579,152.245 382.748,152.284 382.542 C 152.324 382.335,152.324 381.998,152.284 381.792 C 152.245 381.585,152.212 381.754,152.212 382.167 M152.545 387.833 C 152.545 388.246,152.578 388.415,152.618 388.208 C 152.657 388.002,152.657 387.665,152.618 387.458 C 152.578 387.252,152.545 387.421,152.545 387.833 M155.714 388.917 C 155.716 389.375,155.748 389.543,155.786 389.289 C 155.825 389.036,155.824 388.661,155.784 388.456 C 155.744 388.251,155.713 388.458,155.714 388.917 " stroke="none" fill="#AA715C" fill-rule="evenodd"></path><path id="path4" d="M228.333 172.485 C 226.844 172.973,225.687 173.544,222.806 175.212 C 221.309 176.079,219.775 176.945,219.399 177.136 C 216.835 178.434,219.483 181.228,222.750 180.671 C 227.156 179.921,228.702 179.152,230.664 176.737 C 233.038 173.813,231.705 171.380,228.333 172.485 " stroke="none" fill="#CC9B83" fill-rule="evenodd"></path><path id="path5" d="M233.577 227.875 L 232.750 228.750 233.625 227.923 C 234.106 227.468,234.500 227.074,234.500 227.048 C 234.500 226.924,234.346 227.062,233.577 227.875 M193.053 260.167 C 193.053 260.762,193.084 261.006,193.121 260.708 C 193.158 260.410,193.158 259.923,193.121 259.625 C 193.084 259.327,193.053 259.571,193.053 260.167 M151.559 355.083 C 151.559 355.908,151.587 356.267,151.622 355.880 C 151.657 355.493,151.657 354.818,151.623 354.380 C 151.588 353.942,151.560 354.258,151.559 355.083 M151.566 360.500 C 151.566 361.829,151.592 362.373,151.624 361.708 C 151.655 361.044,151.655 359.956,151.624 359.292 C 151.592 358.627,151.566 359.171,151.566 360.500 M151.552 368.917 C 151.553 369.467,151.584 369.672,151.621 369.372 C 151.658 369.072,151.657 368.622,151.619 368.372 C 151.581 368.122,151.551 368.367,151.552 368.917 " stroke="none" fill="#9D6454" fill-rule="evenodd"></path></g></svg>