<?xml version="1.0" encoding="UTF-8"?><svg id="Base_copy" xmlns="http://www.w3.org/2000/svg" viewBox="0 0 500 500"><defs><style>.cls-1{fill:#e4c1a8;}.cls-2{fill:#bc8561;}.cls-3{fill:#ffd8bd;}</style></defs><path class="cls-1" d="m139.32,499.95c.25-2.57,1.79-18.52,2.91-30.99.43-4.8.72-8.24,1.02-12.33.34-4.72.42-4.76.56-8.15.19-4.71.69-9.45,1.41-14.14.56-3.65.83-7.35,1.33-11.01.82-6.1,1.72-12.2,2.58-18.3.73-5.18,1.81-10.28,3.61-15.21,1.82-5,3.63-10,5.95-14.81,2.42-5.03,6-8.97,10.66-11.99,8.8-5.71,18.03-10.61,27.58-14.96,7.89-3.6,15.54-7.65,22.84-12.36,7.19-4.64,14.45-9.17,21.68-13.75.3-.25.5-.5.62-.68.15-.23.24-.42.27-.49.08-.19.13-.35.16-.46.03-.11.05-.19.06-.21.04-.16.06-.29.07-.38.07-.6.07-1.04.07-1.04,0-.54.01-3.86.03-8.44,0-1.21.02-2.43.03-3.64.02-2.28.04-4.56.06-6.85-2.12.61-4.97,1.26-8.39,1.57-1.99.18-5.08.44-8.72-.08-5.92-.84-10.13-3.27-12.28-4.6-5.19-3.23-9.37-7.4-12.88-12.36-5.5-7.76-8.56-13.96-12.94-24.08-4.66-10.77-7.01-16.31-7.81-23.89-.61-5.81-1.05-9.94.32-15.25,1.08-4.22,3.32-9.25,3.92-15.11.15-1.44.31-4.07-.71-7.06-.43-1.27-.64-1.33-1.32-2.85-2.44-5.5-2.36-10.72-2.31-12.43.03-1.25.14-2.29.38-4,1.14-8.18,2.92-14.84,3.27-16.09,2.34-8.63,3.51-12.94,5.33-17.69,2.17-5.65,6.47-16.59,16.18-27.72,4-4.59,12.25-13.86,25.19-19.46,6.37-2.76,13.48-4.45,15.34-4.89,6.17-1.45,10.89-1.95,12.47-2.11,4.26-.42,7.47-.42,10.95-.42,3.27,0,7.83,0,13.31.59,2.84.3,9.44,1.04,17.02,3.37,4.24,1.31,13.44,4.22,22.58,11.21,10,7.64,14.85,16.27,19.3,24.18,8.71,15.5,11,29.13,11.63,33.45,1.43,9.83.98,17.87.51,22.58-1.41,13.94-5.65,23.84-6.74,26.29-2.69,6.06-3.82,6.58-7.67,13.65-2.65,4.87-8.5,15.81-11.98,30.42-2.5,10.52-2.56,18.76-2.09,35.22.14,4.97,1.49,9.72,3.79,14.21,1.44,2.79,3.82,4.38,6.37,5.91,8.17,4.91,16.57,9.42,25.22,13.42,8.14,3.77,15.87,8.27,23.78,12.44,2.95,1.55,5.96,2.97,9,4.36,4.93,2.26,9.72,4.81,14.7,6.96,8.57,3.7,14.92,10,20.29,17.46,6.51,9.02,9.19,17.66,12.36,28.67,0,0,1.64,5.71,2.78,11.54,2.97,15.22,3.65,48.9.93,92.78H139.32Z"/><g><path class="cls-3" d="m197.7,240.1c1,2.07,3.96,2.76,4.44,2.16.2-.25-.09-.67-.98-2.45-1.83-3.63-1.93-4.5-2.4-4.48-.82.03-2.04,2.74-1.06,4.77Z"/><g id="Cheek_highlight"><path class="cls-3" d="m277.52,225.99c-1.3-.08-2.47-.34-3.43-1.13-1.31-1.08-1.45-2.65.04-3.37,4.02-1.95,7.58-4.82,11.93-6.09,1.72-.5,2.91-.09,3.58,1.03.59.97.3,2.47-.64,3.73-2.26,3.01-5.09,5.03-8.96,5.37-.87.08-1.72.32-2.51.47Z"/></g></g><g id="Ear_copy"><g><path class="cls-2" d="m203.77,246.26c1.3.77,2.17,1.29,3.34,1.79.76.33,1.86.74,3.26,1.07,5.63-.99,6.79-1.51,6.77-1.8-.02-.24-.99-.41-2.93-.73-2.07-.35-3.47-.5-3.47-.5-1.55-.03-3.96-.22-6.73-1.13-3.01-.99-5.02-2.08-5.1-1.93-.05.09.86.68,2.67,1.84,1.02.66,1.54.99,2.2,1.39Z"/><path class="cls-2" d="m206.21,223.11c4.67-10.97,4.62-19.76,4.89-19.73.28.03.81,9.04-3.42,18.91-2.65,6.17-6.34,10.79-6.52,10.68-.16-.1,2.59-4.08,5.05-9.86Z"/><path class="cls-2" d="m242.77,299.77c1.28-.27,3.07-.67,5.18-1.26,1.92-.54,8.72-1.97,17.34-7.03,5.16-3.03,10.32-6.06,15.25-9.46,4.69-3.23,9.23-6.64,13.55-10.37,5.61-4.85,11.07-9.86,16.29-15.13.5-.5.9-1.23,1.76-1.11.44.59.05.99-.14,1.38-.43.89-1.98,4.61-2.83,6.23-6.77,13-22.18,26.59-22.18,26.59-10.1,8.9-15.55,12.36-21.75,15.45-5.79,2.89-11.87,5.09-18.14,6.7-2.35.6-2.6.92-2.66,3.28-.03,1.33-.03,2.67,0,4,.08,4.37-.62,8.68-.98,13.01-.26,3.11-.96,6.18-.94,9.35-.34-1.83-.96-3.56-.95-5.46.02-4.66-.08-9.32-.14-13.98,1.04-.87,1.25-1.99,1.25-3.31,0-6.29.07-12.58.11-18.86Z"/><path class="cls-2" d="m357.21,458.01c-.25-1.38-.67-4.03-.98-7.59-.47-5.41-.62-10.92.75-16.91,1.14,2.57,1.41,4.8,1.89,6.93,2.64,11.77,4.57,20.44,5.38,24.95,1.39,7.72,3.56,18.94,6.97,34.57h-5.9c-.64-3.16-5.57-27.7-8.12-41.95Z"/><path class="cls-2" d="m191.24,490.67c-.5-7.18-.79-14.37-1.34-21.54-.72-9.5-.14-18.98-.4-28.47,0-.35,0-.76.44-.91.14-.04.25-.02.34.02.18.1.22.35.23.44,2.67,18.61,4.12,45.73,4.12,45.73.16,3.07.54,7.96,1.55,14.01h-4.42c-.17-3.09-.35-6.19-.52-9.28Z"/><path class="cls-2" d="m316.19,362.81c-4.59,1.81-8.88,2.65-13.18,3.24-6.99.95-13.8,2.49-20.4,4.99-.96.36-1.92.88-3.01.75-.51-.06-.93-.31-1.12-.77-.21-.51.08-.91.49-1.21,4.24-3.09,8.5-5.82,14.1-6.05,6.23-.26,12.41-1.34,18.57-2.38,1.65-.28,2.89.26,4.55,1.43Z"/><path class="cls-2" d="m226.41,358.24c3.39.39,6.83.52,10.14,1.24,2.26.5,4.52.32,6.77.72,4.52.81,7.95,3.47,11.57,5.87.53.35,1.11.87.63,1.66-.41.67-1.12.8-1.77.59-1.26-.41-2.57-.62-3.81-1.14-3.07-1.27-6.3-2.06-9.54-2.83-4.8-1.14-9.5-2.63-14.36-3.52-.69-.13-1.61-.43-1.52-1.42.1-1.09.97-1.28,1.89-1.19Z"/></g></g></svg>