<svg id="svg" version="1.1" xmlns="http://www.w3.org/2000/svg" xmlns:xlink="http://www.w3.org/1999/xlink" viewBox="0, 0, 400,400"><g id="svgg"><path id="path0" d="M209.167 73.009 C 208.296 73.079,206.983 73.182,206.250 73.238 C 204.497 73.371,202.747 73.632,198.833 74.347 C 197.487 74.593,194.577 75.285,192.583 75.835 C 191.125 76.236,186.949 77.583,186.417 77.824 C 186.233 77.907,185.333 78.276,184.417 78.644 C 181.074 79.986,175.197 83.384,173.637 84.877 C 173.516 84.993,173.079 85.350,172.667 85.669 C 171.018 86.948,169.504 88.301,167.653 90.153 C 165.688 92.117,163.022 95.101,161.906 96.583 C 161.562 97.042,161.038 97.717,160.742 98.083 C 157.921 101.586,153.604 109.236,151.818 113.896 C 151.638 114.366,151.423 114.900,151.341 115.083 C 151.017 115.801,149.198 120.944,149.012 121.667 C 148.930 121.987,148.741 122.662,148.594 123.167 C 148.223 124.438,147.517 126.965,147.337 127.667 C 147.107 128.561,146.529 130.654,146.254 131.583 C 145.814 133.067,144.629 138.798,144.169 141.667 C 143.241 147.444,143.385 151.741,144.603 154.631 C 144.730 154.932,144.833 155.289,144.833 155.425 C 144.833 155.560,144.900 155.801,144.982 155.961 C 147.348 160.574,147.693 164.369,146.193 169.250 C 146.108 169.525,145.945 170.087,145.831 170.500 C 145.717 170.912,145.525 171.550,145.404 171.917 C 144.829 173.666,143.978 176.498,143.902 176.921 C 143.854 177.181,143.777 177.457,143.729 177.535 C 143.545 177.832,143.169 181.318,143.167 182.750 C 143.162 185.850,143.887 191.741,144.603 194.417 C 145.423 197.483,147.610 203.219,149.766 207.962 C 149.986 208.446,150.360 209.308,150.597 209.879 C 151.189 211.302,151.397 211.746,153.338 215.749 C 160.560 230.639,168.331 238.293,178.833 240.863 C 180.932 241.376,187.445 241.419,189.917 240.935 C 192.728 240.384,193.747 240.102,194.315 239.717 C 195.050 239.218,196.360 238.833,197.325 238.833 C 198.712 238.833,207.441 235.645,210.586 233.990 C 222.816 227.554,234.232 218.914,246.745 206.625 C 250.555 202.883,250.717 203.352,247.764 209.583 C 243.510 218.558,231.123 231.790,219.417 239.864 C 213.462 243.971,206.631 247.033,198.307 249.327 C 195.441 250.117,195.658 249.641,195.483 255.531 C 195.403 258.218,195.267 261.054,195.181 261.833 C 195.095 262.612,194.938 264.150,194.833 265.250 C 194.727 266.350,194.579 267.587,194.502 268.000 C 194.425 268.412,194.266 269.755,194.147 270.983 L 193.931 273.215 193.627 272.066 C 193.327 270.930,193.307 270.548,192.960 258.955 L 192.917 257.494 191.500 258.398 C 189.981 259.367,189.916 259.408,185.000 262.502 C 183.213 263.627,181.037 265.010,180.167 265.574 C 179.296 266.139,178.108 266.897,177.528 267.259 C 176.947 267.621,176.188 268.104,175.841 268.333 C 175.310 268.684,172.553 270.381,171.421 271.054 C 171.240 271.162,170.694 271.494,170.209 271.792 C 169.724 272.090,169.289 272.333,169.243 272.333 C 169.198 272.333,168.876 272.513,168.529 272.732 C 168.181 272.951,166.643 273.777,165.110 274.567 C 163.577 275.357,162.194 276.074,162.037 276.161 C 161.604 276.398,158.515 277.833,155.500 279.197 C 154.904 279.466,154.304 279.758,154.167 279.844 C 154.029 279.930,153.761 280.069,153.570 280.152 C 152.941 280.427,148.607 282.606,147.286 283.312 C 144.346 284.883,143.386 285.411,142.795 285.779 C 142.453 285.992,142.097 286.167,142.003 286.167 C 141.910 286.167,141.833 286.233,141.833 286.314 C 141.833 286.395,141.702 286.509,141.542 286.567 C 141.381 286.625,141.100 286.765,140.917 286.878 C 140.733 286.991,140.133 287.341,139.583 287.656 C 139.033 287.971,138.396 288.356,138.167 288.510 C 137.938 288.664,136.881 289.353,135.818 290.041 C 132.584 292.134,130.070 294.538,128.341 297.192 C 126.923 299.370,124.527 304.698,123.108 308.833 C 122.966 309.246,122.693 309.996,122.500 310.500 C 120.764 315.047,119.551 320.200,118.829 326.083 C 118.728 326.908,118.543 328.221,118.417 329.000 C 118.291 329.779,118.103 331.092,118.000 331.917 C 117.897 332.742,117.710 334.092,117.585 334.917 C 117.347 336.493,117.180 337.795,116.740 341.500 C 116.461 343.844,115.788 349.069,115.505 351.083 C 115.415 351.725,115.296 352.813,115.242 353.500 C 115.187 354.188,115.073 355.537,114.988 356.500 C 114.903 357.462,114.834 358.813,114.835 359.500 C 114.835 360.188,114.725 361.988,114.589 363.500 C 114.454 365.012,114.262 367.375,114.165 368.750 C 113.984 371.291,113.641 375.135,113.308 378.373 C 113.122 380.174,113.209 380.667,113.711 380.667 C 113.805 380.667,114.415 380.921,115.066 381.232 C 117.077 382.192,118.482 382.833,118.572 382.833 C 118.655 382.833,120.333 383.567,120.833 383.823 C 120.971 383.893,122.133 384.382,123.417 384.910 C 124.700 385.438,125.900 385.936,126.083 386.018 C 126.267 386.099,126.923 386.352,127.543 386.580 C 128.162 386.808,129.174 387.190,129.793 387.429 C 131.424 388.061,136.909 389.973,138.119 390.332 C 138.689 390.501,139.232 390.687,139.326 390.746 C 139.421 390.804,139.892 390.963,140.374 391.099 C 141.367 391.380,142.187 391.617,142.917 391.834 C 145.051 392.470,149.644 393.730,150.833 394.007 C 151.154 394.082,151.738 394.233,152.131 394.343 C 153.087 394.611,153.064 394.688,152.855 391.883 C 152.754 390.527,152.554 387.317,152.411 384.750 C 152.267 382.183,152.032 378.658,151.887 376.917 C 151.533 372.663,151.355 352.292,151.669 351.914 C 152.224 351.245,152.403 351.738,152.819 355.083 C 153.012 356.642,153.247 358.482,153.339 359.173 C 153.432 359.864,153.575 361.176,153.658 362.089 C 153.740 363.003,153.959 365.363,154.145 367.333 C 154.723 373.480,155.133 378.852,155.583 386.167 C 155.903 391.370,156.202 394.954,156.333 395.166 C 156.434 395.329,158.273 395.768,160.917 396.260 C 161.650 396.396,162.775 396.615,163.417 396.747 C 165.456 397.166,171.761 398.142,174.667 398.489 C 180.178 399.147,181.256 399.249,187.500 399.704 C 191.446 399.992,208.556 399.992,212.500 399.704 C 218.606 399.258,220.718 399.058,225.333 398.485 C 228.421 398.103,232.843 397.422,235.583 396.908 C 237.079 396.627,238.249 396.410,239.542 396.173 C 241.144 395.879,244.285 395.208,244.855 395.039 C 245.164 394.947,245.867 394.778,246.417 394.664 C 246.967 394.550,248.092 394.275,248.917 394.052 C 249.742 393.830,250.717 393.580,251.083 393.498 C 251.450 393.415,252.162 393.230,252.667 393.085 C 253.171 392.941,254.108 392.677,254.750 392.500 C 257.481 391.745,264.327 389.603,265.667 389.084 C 265.987 388.960,266.813 388.660,267.500 388.417 C 268.188 388.174,269.050 387.859,269.417 387.718 C 269.783 387.576,270.233 387.403,270.417 387.333 C 273.521 386.153,276.932 384.775,277.075 384.645 C 277.162 384.565,277.336 384.500,277.460 384.500 C 277.585 384.500,278.077 384.320,278.552 384.099 C 279.028 383.879,279.792 383.534,280.250 383.333 C 280.708 383.132,281.346 382.852,281.667 382.711 C 281.987 382.571,282.850 382.172,283.583 381.827 C 284.317 381.481,285.640 380.861,286.525 380.448 L 288.134 379.697 287.892 378.473 C 287.759 377.800,287.589 376.912,287.514 376.500 C 287.438 376.087,286.957 373.500,286.443 370.750 C 284.449 360.078,284.131 354.811,285.108 348.625 C 285.264 347.640,285.444 346.833,285.509 346.833 C 285.758 346.833,286.361 348.738,286.827 351.000 C 287.025 351.962,287.291 353.200,287.418 353.750 C 287.545 354.300,287.955 356.137,288.330 357.833 C 288.705 359.529,289.085 361.217,289.176 361.583 C 289.558 363.138,291.253 371.415,291.928 375.028 L 292.385 377.472 292.812 377.310 C 293.047 377.220,293.317 377.088,293.411 377.016 C 293.506 376.943,294.146 376.582,294.833 376.213 C 296.389 375.378,297.599 374.703,298.250 374.307 C 298.525 374.140,298.862 373.950,299.000 373.885 C 299.832 373.492,306.560 369.379,310.263 367.000 C 312.394 365.631,318.027 361.638,320.553 359.707 C 323.282 357.620,328.512 353.437,329.191 352.799 C 329.317 352.681,329.944 352.134,330.585 351.586 C 331.226 351.037,331.787 350.550,331.833 350.502 C 331.879 350.455,332.554 349.856,333.333 349.170 C 335.846 346.959,336.671 346.167,341.417 341.416 C 346.236 336.591,347.055 335.737,349.170 333.333 C 349.856 332.554,350.454 331.879,350.500 331.833 C 350.546 331.787,351.033 331.225,351.583 330.583 C 352.133 329.942,352.755 329.229,352.965 329.000 C 354.369 327.470,354.647 326.952,354.485 326.167 C 354.401 325.754,354.264 325.079,354.182 324.667 C 353.630 321.890,352.644 317.974,351.747 315.000 C 350.786 311.810,350.580 311.118,350.348 310.292 C 350.264 309.994,350.102 309.487,349.988 309.167 C 349.873 308.846,349.595 308.058,349.370 307.417 C 348.942 306.197,348.889 306.053,348.416 304.833 C 346.588 300.122,343.010 294.025,340.096 290.658 C 339.814 290.333,339.208 289.623,338.750 289.082 C 337.614 287.740,335.426 285.594,333.952 284.375 C 333.190 283.746,330.510 281.833,330.389 281.833 C 330.327 281.833,330.158 281.730,330.013 281.604 C 329.657 281.293,326.972 279.883,326.019 279.507 C 325.108 279.147,323.018 278.165,318.917 276.170 C 315.975 274.739,314.925 274.241,312.583 273.165 C 310.207 272.073,306.434 270.150,303.500 268.537 C 303.087 268.310,302.188 267.825,301.500 267.458 C 300.813 267.092,299.762 266.529,299.167 266.206 C 295.082 263.992,293.862 263.358,290.667 261.792 C 288.696 260.827,286.258 259.650,285.250 259.178 C 284.242 258.706,283.229 258.219,283.000 258.095 C 282.771 257.972,281.496 257.310,280.167 256.624 C 278.837 255.938,276.962 254.943,276.000 254.413 C 275.037 253.883,273.762 253.185,273.167 252.861 C 272.103 252.284,270.159 251.152,269.667 250.824 C 269.529 250.732,269.285 250.613,269.125 250.559 C 268.965 250.505,268.833 250.395,268.833 250.314 C 268.833 250.233,268.750 250.167,268.648 250.167 C 268.268 250.167,265.219 248.024,264.359 247.153 C 263.312 246.091,262.899 245.425,261.980 243.314 C 260.024 238.819,259.638 235.871,259.604 225.167 C 259.581 218.099,259.867 213.639,260.580 209.917 C 260.703 209.275,260.894 208.262,261.005 207.667 C 261.185 206.697,261.695 204.618,262.396 202.000 C 262.679 200.945,263.783 197.412,263.984 196.917 C 264.059 196.733,264.361 195.946,264.656 195.167 C 265.611 192.645,266.530 190.421,266.683 190.258 C 266.766 190.171,266.833 189.995,266.833 189.867 C 266.833 189.633,269.917 183.306,270.789 181.750 C 272.762 178.230,273.237 177.406,273.332 177.333 C 273.393 177.287,273.586 176.987,273.763 176.667 C 273.939 176.346,274.132 176.046,274.192 176.000 C 274.462 175.792,276.578 171.736,277.278 170.083 C 282.520 157.717,284.092 144.418,281.988 130.250 C 281.705 128.343,280.748 123.993,280.247 122.333 C 279.669 120.421,278.256 116.057,278.142 115.833 C 278.072 115.696,277.740 114.871,277.404 114.000 C 276.364 111.305,274.206 106.800,272.692 104.167 C 272.191 103.296,271.594 102.246,271.363 101.833 C 271.133 101.421,270.809 100.858,270.644 100.583 C 270.478 100.308,270.218 99.858,270.066 99.583 C 269.791 99.086,267.553 95.709,266.917 94.830 C 261.898 87.899,254.907 82.388,246.417 78.668 C 245.541 78.285,245.377 78.218,244.167 77.750 C 243.754 77.591,243.267 77.397,243.083 77.320 C 242.781 77.194,239.530 76.157,237.667 75.593 C 237.254 75.468,236.579 75.288,236.167 75.193 C 232.924 74.445,232.459 74.351,229.917 73.932 C 228.068 73.626,225.794 73.351,224.250 73.246 C 223.608 73.203,221.996 73.093,220.667 73.003 C 217.911 72.815,211.520 72.819,209.167 73.009 M231.361 172.810 C 232.546 174.136,231.516 176.454,228.814 178.544 C 224.983 181.506,217.825 181.304,218.404 178.250 C 218.530 177.585,218.672 177.492,224.739 174.112 C 228.367 172.090,230.367 171.697,231.361 172.810 M167.511 196.572 C 169.918 197.080,170.412 197.657,169.306 198.667 C 168.502 199.401,167.902 199.602,167.271 199.348 C 166.984 199.232,165.813 198.795,164.667 198.376 C 161.957 197.386,161.006 196.667,161.875 196.265 C 162.226 196.102,166.350 196.327,167.511 196.572 M183.344 286.753 C 184.851 286.892,187.208 287.187,188.583 287.408 C 189.958 287.630,191.796 287.860,192.667 287.920 C 196.173 288.159,198.003 288.896,202.445 291.859 C 206.524 294.579,204.615 295.717,199.417 293.665 C 197.921 293.075,194.841 292.173,192.083 291.517 C 190.892 291.234,189.054 290.768,188.000 290.483 C 185.611 289.836,183.125 289.236,181.518 288.918 C 179.435 288.505,178.646 287.159,180.167 286.616 C 180.530 286.486,180.379 286.479,183.344 286.753 M250.973 289.159 C 251.936 289.435,253.088 290.188,252.797 290.350 C 251.327 291.173,246.531 292.309,241.250 293.085 C 235.761 293.892,230.758 295.159,225.864 296.983 C 222.773 298.135,221.495 297.024,223.873 295.253 C 227.604 292.475,230.497 291.289,234.250 290.997 C 239.361 290.599,241.779 290.298,247.000 289.412 C 249.681 288.957,250.162 288.926,250.973 289.159 " stroke="none" fill="#73433b" fill-rule="evenodd"></path><path id="path1" d="M162.125 196.282 C 161.075 196.556,162.003 197.320,164.417 198.168 C 165.517 198.555,166.619 198.975,166.867 199.102 C 168.084 199.727,170.428 198.334,169.679 197.431 C 169.151 196.795,163.470 195.930,162.125 196.282 M247.399 206.125 C 234.453 218.860,223.998 226.831,210.984 233.889 C 207.534 235.760,198.778 238.959,197.083 238.968 C 196.231 238.973,195.053 239.318,194.377 239.761 L 193.998 240.009 194.106 247.547 C 194.221 255.528,194.133 256.722,193.406 257.129 C 193.028 257.341,193.052 268.524,193.435 270.542 C 193.807 272.506,193.935 272.577,194.066 270.894 C 194.129 270.081,194.253 268.967,194.341 268.417 C 194.821 265.413,195.380 258.706,195.477 254.777 L 195.583 250.471 196.024 250.092 C 196.268 249.882,197.088 249.549,197.858 249.347 C 207.843 246.728,216.214 242.572,223.917 236.409 C 227.982 233.156,229.961 231.388,233.594 227.758 C 240.794 220.565,245.631 214.192,248.085 208.667 C 248.431 207.887,248.969 206.694,249.281 206.014 C 250.324 203.739,249.793 203.770,247.399 206.125 M179.958 286.838 C 179.605 287.055,179.563 288.039,179.895 288.316 C 180.021 288.420,180.977 288.686,182.020 288.908 C 183.063 289.129,184.779 289.541,185.833 289.822 C 186.887 290.104,189.700 290.825,192.083 291.424 C 194.467 292.024,197.167 292.779,198.083 293.102 C 202.697 294.728,203.815 294.938,204.260 294.258 C 204.696 293.593,204.437 293.288,202.123 291.740 C 198.471 289.296,196.413 288.420,193.667 288.139 C 192.147 287.983,191.133 287.853,186.167 287.178 C 183.121 286.764,180.329 286.611,179.958 286.838 M248.583 289.248 C 243.311 290.175,238.182 290.829,234.172 291.086 C 230.998 291.290,228.396 292.297,224.799 294.714 C 222.753 296.089,222.440 296.473,222.927 297.012 C 223.402 297.537,224.502 297.428,226.477 296.661 C 230.211 295.211,235.458 293.891,240.667 293.093 C 246.521 292.195,253.036 290.629,252.761 290.184 C 252.311 289.457,250.151 288.972,248.583 289.248 M285.358 347.792 C 283.991 353.988,284.731 362.571,288.009 378.506 C 288.173 379.308,288.833 379.943,288.833 379.300 C 288.833 379.168,289.948 378.613,290.250 378.594 C 290.342 378.588,290.554 378.446,290.721 378.279 C 290.889 378.111,291.126 378.013,291.249 378.060 C 291.372 378.107,291.514 378.038,291.564 377.906 C 291.615 377.774,291.771 377.667,291.911 377.667 C 292.342 377.667,292.338 377.636,290.910 370.250 C 290.680 369.058,290.301 367.221,290.068 366.167 C 289.834 365.113,289.465 363.425,289.246 362.417 C 288.680 359.809,287.524 354.597,287.250 353.417 C 287.123 352.867,286.899 351.817,286.753 351.083 C 286.485 349.738,285.708 347.000,285.595 347.000 C 285.561 347.000,285.455 347.356,285.358 347.792 M151.730 352.076 C 151.567 352.501,151.789 374.674,151.975 376.583 C 152.073 377.592,152.229 379.804,152.322 381.500 C 153.105 395.867,152.921 394.833,154.692 394.833 C 154.953 394.833,155.167 394.890,155.167 394.958 C 155.167 395.027,155.392 395.099,155.667 395.118 C 155.942 395.138,156.165 395.100,156.164 395.035 C 156.162 394.970,156.086 394.204,155.994 393.333 C 155.902 392.462,155.716 389.950,155.579 387.750 C 155.180 381.302,155.019 378.942,154.748 375.583 C 154.608 373.842,154.453 371.892,154.403 371.250 C 154.306 369.983,153.982 366.532,153.589 362.583 C 153.084 357.503,152.420 352.275,152.243 351.988 C 152.099 351.756,151.835 351.802,151.730 352.076 " stroke="none" fill="#3c241c" fill-rule="evenodd"></path><path id="path2" d="M227.822 172.632 C 226.618 173.076,225.273 173.783,221.000 176.221 C 218.134 177.856,217.913 178.154,218.697 179.333 C 220.105 181.454,225.605 181.025,228.814 178.544 C 233.348 175.037,232.647 170.854,227.822 172.632 " stroke="none" fill="#936b63" fill-rule="evenodd"></path><path id="path3" d="M151.559 355.083 C 151.559 355.908,151.587 356.267,151.622 355.880 C 151.657 355.493,151.657 354.818,151.623 354.380 C 151.588 353.942,151.560 354.258,151.559 355.083 M151.566 360.500 C 151.566 361.829,151.592 362.373,151.624 361.708 C 151.655 361.044,151.655 359.956,151.624 359.292 C 151.592 358.627,151.566 359.171,151.566 360.500 M151.550 368.833 C 151.550 369.337,151.581 369.544,151.619 369.292 C 151.658 369.040,151.658 368.627,151.619 368.375 C 151.581 368.123,151.550 368.329,151.550 368.833 " stroke="none" fill="#55342c" fill-rule="evenodd"></path><path id="path4" d="M247.245 206.208 L 246.250 207.250 247.292 206.255 C 248.259 205.331,248.410 205.167,248.286 205.167 C 248.261 205.167,247.792 205.635,247.245 206.208 M194.065 247.583 C 194.065 248.775,194.092 249.241,194.124 248.618 C 194.156 247.996,194.156 247.021,194.123 246.451 C 194.091 245.882,194.064 246.392,194.065 247.583 M194.069 252.667 C 194.069 254.271,194.094 254.927,194.124 254.125 C 194.155 253.323,194.155 252.010,194.124 251.208 C 194.094 250.406,194.069 251.063,194.069 252.667 M193.068 257.564 C 193.019 257.691,193.004 258.123,193.035 258.523 C 193.089 259.227,193.093 259.219,193.170 258.291 C 193.251 257.319,193.227 257.148,193.068 257.564 M151.548 352.917 C 151.549 353.375,151.581 353.543,151.620 353.289 C 151.658 353.036,151.657 352.661,151.617 352.456 C 151.578 352.251,151.546 352.458,151.548 352.917 M151.567 365.417 C 151.568 366.883,151.593 367.461,151.624 366.700 C 151.655 365.940,151.655 364.740,151.624 364.034 C 151.593 363.328,151.567 363.950,151.567 365.417 M152.705 389.167 C 152.705 389.488,152.740 389.619,152.782 389.458 C 152.823 389.298,152.823 389.035,152.782 388.875 C 152.740 388.715,152.705 388.846,152.705 389.167 " stroke="none" fill="#542c2c" fill-rule="evenodd"></path><path id="path5" d="M234.906 226.542 L 234.417 227.083 234.958 226.594 C 235.463 226.138,235.577 226.000,235.448 226.000 C 235.419 226.000,235.175 226.244,234.906 226.542 M232.242 229.208 L 231.583 229.917 232.292 229.258 C 232.950 228.645,233.077 228.500,232.950 228.500 C 232.923 228.500,232.605 228.819,232.242 229.208 M195.539 251.667 C 195.539 251.987,195.573 252.119,195.615 251.958 C 195.657 251.798,195.657 251.535,195.615 251.375 C 195.573 251.215,195.539 251.346,195.539 251.667 M193.065 261.250 C 193.065 262.442,193.092 262.907,193.124 262.285 C 193.156 261.662,193.156 260.687,193.123 260.118 C 193.091 259.549,193.064 260.058,193.065 261.250 M284.555 354.917 C 284.555 355.558,284.586 355.800,284.622 355.455 C 284.658 355.109,284.657 354.584,284.620 354.288 C 284.583 353.992,284.554 354.275,284.555 354.917 M151.550 357.333 C 151.550 357.837,151.581 358.044,151.619 357.792 C 151.658 357.540,151.658 357.127,151.619 356.875 C 151.581 356.623,151.550 356.829,151.550 357.333 M151.542 370.250 C 151.544 370.617,151.578 370.747,151.618 370.540 C 151.658 370.332,151.656 370.032,151.615 369.873 C 151.573 369.714,151.540 369.883,151.542 370.250 M151.705 374.167 C 151.705 374.488,151.740 374.619,151.782 374.458 C 151.823 374.298,151.823 374.035,151.782 373.875 C 151.740 373.715,151.705 373.846,151.705 374.167 M152.205 381.833 C 152.205 382.154,152.240 382.285,152.282 382.125 C 152.323 381.965,152.323 381.702,152.282 381.542 C 152.240 381.381,152.205 381.512,152.205 381.833 M155.705 389.333 C 155.705 389.654,155.740 389.785,155.782 389.625 C 155.823 389.465,155.823 389.202,155.782 389.042 C 155.740 388.881,155.705 389.012,155.705 389.333 " stroke="none" fill="#5c3c34" fill-rule="evenodd"></path></g></svg>