<svg id="svg" version="1.1" xmlns="http://www.w3.org/2000/svg" xmlns:xlink="http://www.w3.org/1999/xlink" viewBox="0, 0, 400,400"><g id="svgg"><path id="path0" d="M209.167 73.006 C 204.879 73.324,203.315 73.507,201.250 73.932 C 200.608 74.064,199.794 74.206,199.439 74.247 C 199.085 74.289,198.646 74.370,198.464 74.428 C 198.282 74.486,197.972 74.557,197.775 74.587 C 197.578 74.616,197.267 74.678,197.083 74.724 C 195.302 75.172,194.532 75.357,194.250 75.406 C 194.067 75.437,193.504 75.581,193.000 75.724 C 192.496 75.867,191.896 76.032,191.667 76.091 C 191.438 76.149,191.155 76.225,191.040 76.260 C 190.924 76.295,190.794 76.330,190.751 76.336 C 190.708 76.343,190.409 76.458,190.087 76.592 C 189.765 76.727,189.461 76.829,189.410 76.818 C 189.360 76.807,189.116 76.875,188.868 76.969 C 188.620 77.062,187.854 77.339,187.167 77.584 C 183.192 78.998,176.701 82.277,176.361 83.042 C 176.331 83.110,176.199 83.167,176.069 83.167 C 175.940 83.167,175.833 83.242,175.833 83.333 C 175.833 83.425,175.750 83.500,175.649 83.500 C 175.489 83.500,174.284 84.357,173.495 85.032 C 173.354 85.152,172.941 85.471,172.578 85.741 C 172.214 86.011,171.879 86.274,171.833 86.325 C 171.787 86.375,171.228 86.867,170.591 87.417 C 169.250 88.574,166.056 91.754,165.083 92.901 C 164.717 93.333,164.154 93.973,163.833 94.323 C 163.512 94.672,162.950 95.315,162.583 95.752 C 162.217 96.188,161.823 96.642,161.708 96.760 C 161.594 96.879,161.500 97.022,161.500 97.078 C 161.500 97.135,161.425 97.271,161.334 97.382 C 160.593 98.279,159.206 100.211,158.257 101.667 C 157.630 102.629,156.978 103.620,156.808 103.868 C 156.639 104.117,156.500 104.357,156.500 104.403 C 156.500 104.448,156.265 104.882,155.977 105.368 C 155.249 106.594,153.667 109.755,153.667 109.980 C 153.667 110.083,153.592 110.167,153.500 110.167 C 153.408 110.167,153.333 110.245,153.333 110.340 C 153.333 110.436,153.098 111.017,152.810 111.632 C 152.522 112.247,152.116 113.200,151.907 113.750 C 151.699 114.300,151.344 115.200,151.119 115.750 C 150.580 117.071,150.458 117.384,150.407 117.583 C 150.383 117.675,150.244 118.031,150.096 118.375 C 149.949 118.719,149.870 119.000,149.920 119.000 C 149.971 119.000,149.926 119.160,149.821 119.357 C 149.617 119.738,148.605 123.062,147.900 125.667 C 147.457 127.304,147.385 127.568,146.918 129.250 C 146.765 129.800,146.612 130.387,146.577 130.555 C 146.542 130.723,146.460 131.023,146.394 131.222 C 146.328 131.421,146.257 131.696,146.236 131.833 C 146.215 131.971,145.999 132.871,145.755 133.833 C 145.512 134.796,145.285 135.787,145.252 136.037 C 145.219 136.286,145.155 136.551,145.109 136.626 C 145.063 136.700,144.982 137.129,144.929 137.580 C 144.876 138.030,144.725 138.853,144.594 139.408 C 144.463 139.963,144.307 140.780,144.249 141.223 C 144.190 141.667,144.118 142.155,144.090 142.307 C 144.061 142.459,143.986 143.033,143.923 143.583 C 143.859 144.133,143.743 144.921,143.664 145.333 C 143.491 146.238,143.589 150.171,143.806 151.033 C 143.891 151.372,143.928 151.683,143.887 151.724 C 143.847 151.764,143.933 152.208,144.079 152.709 C 144.224 153.210,144.375 153.784,144.414 153.984 C 144.484 154.351,144.772 155.301,144.999 155.917 C 145.066 156.100,145.132 156.306,145.145 156.374 C 145.158 156.443,145.420 156.973,145.727 157.552 C 146.965 159.885,147.298 162.043,146.955 165.500 C 146.863 166.420,146.394 168.767,146.257 168.989 C 146.217 169.054,146.148 169.307,146.103 169.552 C 146.059 169.797,145.946 170.242,145.853 170.540 C 145.760 170.839,145.451 171.833,145.167 172.750 C 144.883 173.667,144.604 174.529,144.548 174.667 C 144.403 175.020,144.405 175.013,144.257 175.750 C 144.183 176.117,144.049 176.510,143.958 176.625 C 143.867 176.740,143.834 176.833,143.885 176.833 C 143.935 176.833,143.901 177.077,143.809 177.375 C 143.717 177.673,143.605 178.179,143.559 178.500 C 143.514 178.821,143.413 179.496,143.336 180.000 C 143.163 181.130,143.165 184.374,143.340 185.833 C 143.411 186.429,143.522 187.554,143.586 188.333 C 143.650 189.112,143.726 189.790,143.755 189.839 C 143.785 189.888,143.858 190.376,143.917 190.923 C 143.977 191.469,144.091 192.179,144.172 192.500 C 144.252 192.821,144.355 193.271,144.400 193.500 C 144.576 194.391,145.211 196.609,145.433 197.109 C 145.562 197.397,145.667 197.724,145.667 197.833 C 145.667 197.943,145.770 198.269,145.897 198.558 C 146.024 198.847,146.222 199.346,146.337 199.667 C 146.670 200.592,147.345 202.209,147.600 202.692 C 147.728 202.936,147.833 203.215,147.833 203.313 C 147.833 203.411,148.012 203.887,148.231 204.370 C 148.450 204.854,148.840 205.775,149.097 206.417 C 149.355 207.058,149.663 207.731,149.783 207.912 C 149.902 208.093,150.000 208.365,150.000 208.517 C 150.000 208.668,150.112 208.886,150.250 209.000 C 150.387 209.114,150.500 209.315,150.500 209.447 C 150.500 209.579,150.769 210.264,151.097 210.969 C 151.425 211.673,151.797 212.475,151.922 212.750 C 152.641 214.325,155.241 219.543,155.659 220.250 C 155.930 220.708,156.232 221.233,156.329 221.417 C 156.426 221.600,156.653 221.975,156.834 222.250 C 157.015 222.525,157.215 222.862,157.277 223.000 C 157.404 223.277,158.735 225.301,158.999 225.618 C 159.091 225.729,159.167 225.866,159.167 225.923 C 159.167 225.980,159.438 226.359,159.770 226.764 C 160.102 227.169,160.308 227.501,160.228 227.503 C 160.149 227.504,160.164 227.560,160.262 227.628 C 160.361 227.695,160.921 228.383,161.508 229.156 C 163.479 231.754,166.860 234.968,169.333 236.595 C 170.021 237.047,170.621 237.454,170.667 237.500 C 170.774 237.607,172.345 238.446,173.417 238.968 C 173.875 239.191,174.390 239.446,174.560 239.533 C 175.414 239.972,178.293 240.792,180.167 241.129 C 182.123 241.482,188.261 241.221,191.000 240.669 C 191.963 240.475,192.938 240.278,193.167 240.232 C 193.396 240.185,193.771 240.022,194.000 239.869 C 195.039 239.177,195.608 238.972,196.729 238.889 C 197.869 238.804,200.398 238.048,204.167 236.665 C 204.946 236.379,205.977 236.004,206.458 235.832 C 209.257 234.829,215.965 231.025,222.583 226.688 C 224.552 225.398,228.929 222.308,229.750 221.629 C 229.933 221.478,230.721 220.855,231.500 220.246 C 233.294 218.844,233.799 218.423,236.416 216.148 C 240.011 213.023,244.812 208.541,247.687 205.625 C 249.601 203.685,250.437 203.807,249.498 205.889 C 249.202 206.546,248.777 207.496,248.554 208.000 C 246.596 212.416,243.696 216.786,239.417 221.769 C 235.355 226.499,229.272 232.330,224.167 236.389 C 223.387 237.008,222.487 237.725,222.167 237.982 C 216.525 242.497,207.967 246.627,199.007 249.159 C 195.423 250.172,195.667 249.823,195.667 253.947 C 195.668 256.902,195.555 258.720,195.151 262.250 C 195.057 263.075,194.913 264.500,194.832 265.417 C 194.751 266.333,194.530 268.246,194.342 269.667 C 194.154 271.087,193.995 272.475,193.989 272.750 C 193.979 273.172,193.957 273.198,193.843 272.917 C 193.348 271.688,193.166 270.203,193.144 267.223 C 193.132 265.496,193.075 262.604,193.019 260.796 L 192.917 257.508 191.367 258.504 C 190.515 259.052,189.752 259.500,189.673 259.500 C 189.593 259.500,189.503 259.556,189.472 259.625 C 189.384 259.824,187.601 261.000,187.387 261.000 C 187.281 261.000,187.169 261.058,187.139 261.129 C 187.079 261.267,184.709 262.773,183.980 263.137 C 183.737 263.258,183.379 263.504,183.186 263.685 C 182.992 263.865,182.833 263.969,182.833 263.915 C 182.833 263.861,182.583 264.008,182.276 264.242 C 181.969 264.475,181.664 264.667,181.598 264.667 C 181.532 264.667,181.232 264.854,180.931 265.083 C 180.631 265.313,180.305 265.500,180.206 265.500 C 180.108 265.500,180.003 265.556,179.972 265.625 C 179.942 265.694,179.617 265.947,179.250 266.187 C 177.586 267.279,176.049 268.256,175.670 268.462 C 175.443 268.585,175.218 268.746,175.170 268.818 C 175.083 268.950,174.324 269.399,174.167 269.411 C 174.121 269.415,173.821 269.612,173.500 269.850 C 173.179 270.088,172.467 270.538,171.917 270.850 C 171.367 271.162,170.767 271.506,170.583 271.615 C 170.400 271.724,169.990 271.933,169.673 272.080 C 169.355 272.226,168.980 272.446,168.839 272.569 C 168.606 272.772,165.965 274.202,164.750 274.782 C 164.475 274.914,164.137 275.090,164.000 275.175 C 163.862 275.259,163.487 275.441,163.167 275.579 C 162.846 275.717,162.471 275.904,162.333 275.996 C 161.947 276.252,160.929 276.721,160.808 276.698 C 160.748 276.687,160.607 276.787,160.496 276.922 C 160.384 277.057,160.224 277.167,160.139 277.167 C 160.055 277.167,159.483 277.402,158.868 277.690 C 156.876 278.622,156.252 278.888,156.125 278.861 C 156.056 278.846,156.000 278.908,156.000 279.000 C 156.000 279.092,155.891 279.167,155.757 279.167 C 155.624 279.167,154.874 279.505,154.090 279.918 C 153.307 280.331,152.667 280.633,152.667 280.589 C 152.667 280.545,152.288 280.732,151.826 281.004 C 151.364 281.277,150.891 281.500,150.776 281.500 C 150.661 281.500,150.495 281.567,150.408 281.650 C 150.321 281.732,149.387 282.248,148.333 282.796 C 145.485 284.278,143.839 285.170,143.000 285.688 C 142.587 285.942,141.987 286.282,141.667 286.442 C 141.346 286.602,141.046 286.774,141.000 286.825 C 140.954 286.875,140.691 287.035,140.417 287.179 C 139.602 287.606,139.089 287.910,139.000 288.018 C 138.954 288.074,138.654 288.252,138.333 288.413 C 138.012 288.574,137.600 288.835,137.417 288.994 C 137.233 289.152,136.633 289.558,136.083 289.896 C 134.572 290.824,134.448 290.903,134.221 291.083 C 134.106 291.175,133.914 291.325,133.795 291.417 C 133.432 291.695,131.656 293.223,131.179 293.667 C 130.932 293.896,130.397 294.496,129.990 295.000 C 129.583 295.504,129.194 295.942,129.125 295.972 C 129.056 296.003,129.000 296.102,129.000 296.192 C 129.000 296.282,128.802 296.615,128.560 296.933 C 127.726 298.027,126.117 301.226,125.008 304.000 C 124.806 304.504,124.544 305.142,124.425 305.417 C 124.044 306.293,123.362 308.058,123.104 308.833 C 122.810 309.715,122.156 311.541,121.670 312.833 C 121.367 313.640,120.580 316.378,120.409 317.222 C 120.375 317.389,120.308 317.652,120.261 317.805 C 120.213 317.958,120.130 318.383,120.076 318.750 C 120.022 319.117,119.911 319.679,119.830 320.000 C 119.748 320.321,119.603 321.071,119.507 321.667 C 119.412 322.262,119.301 322.938,119.262 323.167 C 119.223 323.396,119.144 323.958,119.086 324.417 C 119.029 324.875,118.836 326.262,118.656 327.500 C 118.477 328.737,118.291 330.050,118.243 330.417 C 118.195 330.783,118.123 331.271,118.083 331.500 C 118.043 331.729,117.968 332.254,117.917 332.667 C 117.732 334.144,117.623 334.922,117.553 335.250 C 117.514 335.433,117.448 335.958,117.406 336.417 C 117.364 336.875,117.290 337.358,117.241 337.491 C 117.192 337.624,117.078 338.486,116.988 339.408 C 116.898 340.329,116.788 341.308,116.744 341.583 C 116.700 341.858,116.625 342.571,116.577 343.167 C 116.530 343.762,116.419 344.662,116.331 345.167 C 116.243 345.671,116.128 346.529,116.075 347.074 C 116.023 347.619,115.948 348.117,115.908 348.181 C 115.869 348.244,115.793 348.774,115.740 349.357 C 115.687 349.940,115.576 350.867,115.493 351.417 C 115.409 351.967,115.300 353.017,115.250 353.750 C 115.200 354.483,115.091 355.758,115.007 356.583 C 114.924 357.408,114.849 358.863,114.839 359.816 C 114.830 360.770,114.797 361.595,114.766 361.650 C 114.710 361.748,114.658 362.374,114.338 366.833 C 114.069 370.592,113.827 373.403,113.751 373.667 C 113.711 373.804,113.638 374.667,113.588 375.583 C 113.538 376.500,113.460 377.512,113.416 377.833 C 113.107 380.062,113.188 380.667,113.795 380.667 C 113.878 380.667,114.390 380.886,114.932 381.153 C 115.928 381.646,117.414 382.309,120.750 383.750 C 121.758 384.185,122.888 384.682,123.261 384.854 C 123.634 385.026,124.000 385.167,124.076 385.167 C 124.152 385.167,124.522 385.309,124.898 385.483 C 125.704 385.856,128.398 386.899,130.750 387.749 C 131.667 388.081,132.567 388.421,132.750 388.505 C 133.256 388.739,137.007 390.014,137.644 390.170 C 137.952 390.245,138.627 390.455,139.144 390.636 C 140.300 391.042,142.427 391.693,144.417 392.251 C 145.242 392.483,146.254 392.778,146.667 392.907 C 147.079 393.036,147.829 393.231,148.333 393.340 C 148.837 393.448,149.426 393.606,149.640 393.689 C 149.855 393.772,150.305 393.883,150.640 393.937 C 150.976 393.990,151.362 394.093,151.500 394.167 C 151.637 394.240,152.042 394.346,152.399 394.403 L 153.049 394.506 152.943 393.378 C 152.796 391.813,152.536 387.860,152.325 384.000 C 152.227 382.212,152.071 379.738,151.979 378.500 C 151.530 372.526,151.280 352.438,151.648 351.859 C 152.303 350.825,152.673 352.525,153.492 360.333 C 153.583 361.204,153.769 362.967,153.903 364.250 C 154.038 365.533,154.227 367.521,154.322 368.667 C 154.418 369.813,154.605 372.063,154.738 373.667 C 155.247 379.778,155.553 384.263,155.755 388.583 C 155.807 389.683,155.969 391.649,156.116 392.951 C 156.414 395.584,156.259 395.333,157.750 395.596 C 158.025 395.644,158.662 395.785,159.167 395.909 C 159.671 396.033,160.608 396.223,161.250 396.332 C 161.892 396.441,162.717 396.596,163.083 396.677 C 163.853 396.848,166.274 397.268,167.250 397.401 C 167.617 397.451,168.929 397.651,170.167 397.845 C 171.404 398.040,172.529 398.201,172.667 398.203 C 172.804 398.205,173.270 398.270,173.703 398.348 C 174.135 398.426,174.960 398.534,175.536 398.588 C 176.112 398.642,177.146 398.759,177.833 398.848 C 178.986 398.997,181.295 399.214,183.750 399.406 C 184.300 399.449,185.987 399.581,187.500 399.700 C 191.147 399.987,208.972 399.993,212.250 399.708 C 213.533 399.596,215.183 399.466,215.917 399.418 C 216.650 399.371,217.588 399.297,218.000 399.254 C 218.412 399.211,219.237 399.134,219.833 399.084 C 220.429 399.034,221.142 398.961,221.417 398.923 C 221.692 398.884,222.704 398.772,223.667 398.674 C 224.629 398.575,225.625 398.451,225.880 398.399 C 226.135 398.347,226.622 398.281,226.963 398.252 C 227.469 398.210,230.378 397.795,232.917 397.404 C 233.703 397.283,235.139 397.017,236.500 396.741 C 237.188 396.601,238.162 396.412,238.667 396.320 C 240.264 396.029,242.066 395.650,242.583 395.497 C 242.858 395.416,243.398 395.313,243.783 395.268 C 244.169 395.224,244.619 395.116,244.783 395.029 C 244.948 394.942,245.383 394.830,245.750 394.779 C 246.117 394.729,246.529 394.648,246.667 394.599 C 246.804 394.550,247.104 394.472,247.333 394.425 C 247.884 394.313,249.999 393.770,251.250 393.419 C 251.800 393.265,252.401 393.120,252.585 393.097 C 252.769 393.073,253.069 392.978,253.252 392.884 C 253.434 392.790,253.846 392.664,254.167 392.604 C 254.487 392.544,255.275 392.339,255.917 392.149 C 256.558 391.959,257.721 391.615,258.500 391.384 C 260.545 390.779,266.325 388.854,266.942 388.573 C 267.231 388.441,267.547 388.333,267.645 388.333 C 267.742 388.333,268.068 388.223,268.369 388.089 C 268.670 387.954,269.955 387.462,271.225 386.994 C 273.543 386.141,273.993 385.968,274.917 385.579 C 275.192 385.463,275.642 385.277,275.917 385.165 C 276.192 385.053,276.534 384.903,276.678 384.831 C 276.822 384.760,277.535 384.460,278.262 384.165 C 279.669 383.593,280.166 383.375,282.212 382.431 C 282.924 382.102,283.581 381.833,283.670 381.833 C 283.760 381.833,283.833 381.758,283.833 381.667 C 283.833 381.575,283.936 381.500,284.062 381.500 C 284.187 381.500,285.130 381.106,286.156 380.625 L 288.021 379.750 287.916 379.000 C 287.859 378.587,287.627 377.275,287.402 376.083 C 287.176 374.892,286.804 372.904,286.575 371.667 C 286.345 370.429,286.054 368.892,285.927 368.250 C 284.837 362.722,284.316 356.143,284.651 352.121 C 284.768 350.725,284.969 349.110,285.098 348.531 C 285.227 347.953,285.333 347.287,285.333 347.053 C 285.333 345.685,286.260 347.988,286.822 350.750 C 287.248 352.845,287.569 354.326,287.894 355.686 C 288.033 356.271,288.342 357.650,288.580 358.750 C 288.818 359.850,289.118 361.200,289.247 361.750 C 289.787 364.057,290.875 369.147,291.117 370.500 C 291.159 370.729,291.293 371.442,291.417 372.083 C 291.541 372.725,291.723 373.719,291.821 374.292 C 292.361 377.439,292.503 377.760,293.092 377.176 C 293.179 377.090,294.075 376.593,295.083 376.071 C 296.092 375.549,297.029 375.029,297.167 374.915 C 297.304 374.801,297.904 374.451,298.500 374.137 C 299.096 373.824,299.771 373.448,300.000 373.302 C 300.229 373.156,300.732 372.860,301.117 372.644 C 302.617 371.800,306.302 369.553,307.293 368.878 C 307.867 368.487,308.411 368.167,308.502 368.167 C 308.592 368.167,308.667 368.092,308.667 368.000 C 308.667 367.908,308.728 367.833,308.803 367.833 C 308.939 367.833,312.007 365.823,313.939 364.467 C 316.455 362.703,318.266 361.413,318.453 361.255 C 318.983 360.805,319.154 360.678,319.763 360.280 C 320.123 360.046,320.671 359.624,320.981 359.344 C 321.291 359.063,321.592 358.833,321.649 358.833 C 321.707 358.833,321.940 358.660,322.169 358.448 C 322.398 358.236,322.705 357.992,322.851 357.906 C 322.998 357.820,323.447 357.470,323.850 357.127 C 324.253 356.784,324.855 356.297,325.187 356.043 C 325.980 355.438,329.200 352.821,329.429 352.594 C 329.651 352.375,331.460 350.789,332.583 349.828 C 335.362 347.453,344.696 338.283,347.417 335.258 C 348.150 334.442,348.881 333.659,349.042 333.517 C 349.202 333.375,349.333 333.197,349.333 333.122 C 349.333 333.046,349.511 332.819,349.729 332.617 C 349.946 332.415,350.405 331.912,350.749 331.500 C 351.092 331.087,351.720 330.368,352.145 329.900 C 353.015 328.942,353.354 328.541,354.109 327.578 C 354.599 326.954,354.625 326.856,354.484 326.162 C 354.400 325.752,354.254 324.972,354.158 324.429 C 354.062 323.886,353.948 323.384,353.905 323.315 C 353.862 323.246,353.683 322.528,353.506 321.719 C 353.329 320.911,353.025 319.650,352.829 318.917 C 352.634 318.183,352.448 317.471,352.416 317.333 C 352.385 317.196,352.348 317.083,352.334 317.083 C 352.320 317.083,352.279 316.926,352.243 316.735 C 352.206 316.543,351.901 315.493,351.564 314.401 C 351.227 313.310,350.856 312.066,350.738 311.638 C 350.621 311.210,350.452 310.722,350.363 310.555 C 350.273 310.387,350.195 310.193,350.189 310.123 C 350.166 309.833,349.775 308.546,349.562 308.058 C 349.436 307.769,349.333 307.417,349.333 307.276 C 349.333 307.135,349.258 306.973,349.167 306.917 C 349.075 306.860,349.000 306.667,349.000 306.488 C 349.000 306.309,348.927 306.032,348.839 305.873 C 348.750 305.714,348.359 304.796,347.969 303.833 C 347.580 302.871,346.929 301.446,346.523 300.667 C 346.117 299.887,345.637 298.950,345.456 298.583 C 345.145 297.950,343.351 295.010,343.169 294.833 C 343.122 294.787,342.749 294.262,342.340 293.667 C 341.932 293.071,341.538 292.558,341.465 292.528 C 341.393 292.497,341.333 292.391,341.333 292.292 C 341.333 292.193,341.220 291.993,341.081 291.847 C 340.942 291.702,340.370 291.021,339.810 290.333 C 336.918 286.784,332.661 283.022,329.833 281.517 C 329.421 281.297,328.971 281.030,328.833 280.924 C 328.589 280.736,327.002 279.955,325.833 279.450 C 323.908 278.617,322.072 277.770,322.000 277.682 C 321.954 277.626,321.467 277.401,320.917 277.182 C 320.367 276.963,319.804 276.697,319.667 276.591 C 319.449 276.423,318.573 275.981,318.333 275.919 C 318.287 275.907,317.575 275.568,316.750 275.165 C 313.850 273.750,312.096 272.917,312.007 272.912 C 311.744 272.897,301.435 267.552,300.917 267.162 C 300.759 267.044,299.472 266.347,296.417 264.728 C 293.771 263.325,286.972 259.978,285.083 259.147 C 284.900 259.067,284.637 258.930,284.500 258.844 C 284.362 258.757,283.387 258.261,282.333 257.741 C 281.279 257.221,279.667 256.393,278.750 255.901 C 277.833 255.410,276.783 254.855,276.417 254.668 C 276.050 254.481,275.375 254.116,274.917 253.856 C 274.458 253.596,273.596 253.130,273.000 252.820 C 272.404 252.510,271.879 252.209,271.833 252.151 C 271.787 252.092,271.412 251.875,271.000 251.667 C 270.587 251.459,269.950 251.085,269.583 250.836 C 268.598 250.166,267.923 249.765,267.865 249.815 C 267.837 249.839,267.561 249.665,267.252 249.429 C 266.942 249.193,266.622 249.000,266.540 249.000 C 266.373 249.000,264.508 247.372,263.779 246.589 C 261.627 244.279,259.966 238.495,259.710 232.417 C 259.330 223.413,259.614 215.742,260.534 210.167 C 260.647 209.479,260.747 208.842,260.757 208.750 C 260.766 208.658,260.868 208.133,260.984 207.583 C 261.169 206.709,261.260 206.252,261.340 205.795 C 261.352 205.729,261.473 205.279,261.609 204.795 C 261.745 204.312,261.929 203.617,262.018 203.250 C 262.315 202.017,263.507 198.194,263.972 196.981 C 264.056 196.762,264.258 196.171,264.420 195.667 C 264.583 195.162,264.768 194.675,264.831 194.583 C 264.894 194.492,265.120 193.929,265.333 193.333 C 265.547 192.737,265.775 192.175,265.840 192.083 C 265.906 191.992,266.015 191.729,266.083 191.500 C 266.152 191.271,266.420 190.651,266.680 190.122 C 266.940 189.593,267.168 189.105,267.186 189.038 C 267.204 188.971,267.319 188.675,267.443 188.380 C 267.566 188.085,267.667 187.767,267.667 187.672 C 267.667 187.577,267.742 187.500,267.833 187.500 C 267.925 187.500,268.000 187.404,268.000 187.287 C 268.000 186.986,269.836 183.427,271.974 179.583 C 272.127 179.308,272.439 178.784,272.668 178.419 C 272.896 178.054,273.158 177.625,273.250 177.468 C 273.342 177.310,273.953 176.296,274.607 175.215 C 276.283 172.450,276.821 171.331,278.359 167.417 C 278.539 166.958,278.715 166.452,278.750 166.291 C 278.786 166.130,278.866 165.915,278.929 165.813 C 278.992 165.711,279.105 165.392,279.179 165.105 C 279.253 164.818,279.470 164.136,279.660 163.589 C 279.851 163.043,280.036 162.443,280.071 162.256 C 280.107 162.069,280.300 161.317,280.499 160.583 C 280.699 159.850,280.893 159.100,280.929 158.917 C 280.965 158.733,281.034 158.396,281.083 158.167 C 281.132 157.938,281.202 157.600,281.239 157.417 C 281.276 157.233,281.388 156.726,281.488 156.289 C 281.588 155.851,281.709 155.214,281.758 154.872 C 281.807 154.530,281.881 154.063,281.922 153.833 C 282.003 153.393,282.087 152.774,282.251 151.428 C 282.306 150.976,282.378 150.562,282.412 150.508 C 282.445 150.454,282.516 149.773,282.569 148.996 C 282.932 143.656,283.019 141.585,282.932 140.417 C 282.877 139.683,282.795 138.483,282.749 137.750 C 282.539 134.364,282.495 133.840,282.325 132.667 C 282.113 131.205,281.718 128.804,281.475 127.500 C 281.273 126.416,280.337 122.641,280.225 122.460 C 280.183 122.391,280.116 122.166,280.076 121.959 C 279.988 121.496,279.035 118.374,278.842 117.917 C 278.764 117.733,278.539 117.096,278.340 116.500 C 277.950 115.327,277.184 113.412,276.575 112.083 C 276.365 111.625,275.993 110.800,275.748 110.250 C 274.841 108.213,273.219 105.057,272.150 103.250 C 271.879 102.792,271.580 102.267,271.487 102.083 C 271.393 101.900,271.135 101.450,270.914 101.083 C 270.693 100.717,270.350 100.117,270.151 99.750 C 269.951 99.383,269.742 99.046,269.685 99.000 C 269.513 98.860,268.500 97.154,268.500 97.003 C 268.500 96.925,268.439 96.836,268.365 96.806 C 268.291 96.775,267.958 96.337,267.626 95.833 C 267.293 95.329,266.866 94.751,266.677 94.549 C 266.488 94.346,266.333 94.139,266.333 94.089 C 266.333 94.005,265.708 93.254,265.208 92.739 C 265.094 92.621,265.000 92.488,265.000 92.444 C 265.000 92.060,259.071 86.167,258.685 86.167 C 258.599 86.167,258.503 86.106,258.472 86.032 C 258.398 85.852,255.400 83.500,255.244 83.500 C 255.178 83.500,254.758 83.238,254.311 82.917 C 253.865 82.596,253.464 82.333,253.422 82.333 C 253.379 82.333,252.887 82.037,252.327 81.676 C 250.915 80.763,246.517 78.635,244.927 78.095 C 244.478 77.943,244.029 77.767,243.930 77.705 C 243.831 77.643,243.675 77.572,243.583 77.548 C 243.492 77.523,242.210 77.097,240.735 76.602 C 237.745 75.598,235.062 74.903,231.583 74.234 C 228.998 73.737,227.597 73.569,222.000 73.084 C 220.166 72.926,211.007 72.870,209.167 73.006 M230.948 172.492 C 233.670 174.151,229.793 179.268,225.083 180.233 C 222.283 180.807,221.610 180.877,220.833 180.673 C 218.408 180.034,217.601 178.046,219.399 177.136 C 219.775 176.945,221.283 176.096,222.750 175.249 C 227.809 172.329,229.659 171.706,230.948 172.492 M168.704 196.541 C 170.338 196.912,170.338 197.379,168.704 198.081 C 168.087 198.347,167.887 198.361,167.204 198.189 C 166.005 197.886,164.342 197.506,163.442 197.328 C 162.357 197.114,161.767 196.813,161.694 196.434 C 161.622 196.060,166.938 196.141,168.704 196.541 M184.714 286.841 C 185.651 286.945,187.480 287.211,188.780 287.432 C 190.080 287.653,191.678 287.833,192.331 287.833 C 195.562 287.833,198.539 289.055,203.209 292.298 C 204.740 293.361,204.974 293.836,204.266 294.445 C 203.580 295.035,201.867 294.747,199.083 293.572 C 198.039 293.132,195.231 292.331,191.833 291.504 C 190.688 291.226,188.625 290.697,187.250 290.328 C 185.875 289.960,184.450 289.593,184.083 289.512 C 183.717 289.431,182.667 289.200,181.750 288.999 C 179.867 288.587,179.500 288.353,179.500 287.567 C 179.500 286.423,180.147 286.333,184.714 286.841 M251.154 289.163 C 251.467 289.253,252.023 289.525,252.391 289.768 L 253.058 290.210 252.586 290.458 C 252.326 290.594,251.919 290.765,251.682 290.839 C 247.579 292.110,246.605 292.324,241.500 293.082 C 236.628 293.805,229.303 295.568,227.250 296.512 C 225.525 297.305,223.569 297.708,223.067 297.372 C 222.141 296.754,222.514 296.081,224.539 294.712 C 228.489 292.042,231.839 290.833,235.286 290.833 C 237.113 290.833,240.292 290.452,245.750 289.578 C 247.125 289.358,248.438 289.148,248.667 289.112 C 249.493 288.980,250.597 289.003,251.154 289.163 " stroke="none" fill="#fcccac" fill-rule="evenodd"></path><path id="path1" d="M162.001 196.329 C 161.282 196.783,167.281 198.328,168.495 198.001 C 169.246 197.799,169.931 197.293,169.781 197.051 C 169.469 196.546,162.658 195.914,162.001 196.329 M246.745 206.771 C 237.555 215.748,230.536 221.591,222.750 226.742 C 219.791 228.699,213.447 232.553,210.984 233.889 C 207.523 235.765,198.770 238.962,197.083 238.965 C 196.221 238.967,194.437 239.539,194.212 239.886 C 194.141 239.994,194.083 243.646,194.083 248.000 L 194.083 255.917 193.614 256.843 L 193.144 257.770 193.212 264.010 C 193.270 269.416,193.320 270.406,193.588 271.417 L 193.897 272.583 194.093 270.582 C 194.201 269.481,194.335 268.356,194.392 268.082 C 194.448 267.808,194.647 266.008,194.833 264.083 C 195.020 262.158,195.217 260.363,195.273 260.094 C 195.328 259.826,195.421 257.550,195.478 255.038 L 195.583 250.471 196.024 250.092 C 196.268 249.882,197.088 249.549,197.858 249.347 C 207.843 246.728,216.214 242.572,223.917 236.409 C 227.982 233.156,229.961 231.388,233.594 227.758 C 240.794 220.565,245.631 214.192,248.085 208.667 C 248.431 207.887,248.969 206.694,249.281 206.014 C 249.839 204.796,249.888 204.333,249.458 204.333 C 249.338 204.333,248.117 205.430,246.745 206.771 M179.958 286.838 C 179.605 287.055,179.563 288.039,179.895 288.316 C 180.021 288.420,180.977 288.686,182.020 288.908 C 183.063 289.129,184.779 289.541,185.833 289.822 C 186.887 290.104,189.700 290.825,192.083 291.424 C 194.467 292.024,197.167 292.779,198.083 293.102 C 202.697 294.728,203.815 294.938,204.260 294.258 C 204.696 293.593,204.437 293.288,202.123 291.740 C 198.471 289.296,196.413 288.420,193.667 288.139 C 192.147 287.983,191.133 287.853,186.167 287.178 C 183.121 286.764,180.329 286.611,179.958 286.838 M248.583 289.248 C 243.295 290.177,238.461 290.791,234.083 291.089 C 230.981 291.301,228.351 292.327,224.799 294.714 C 222.753 296.089,222.440 296.473,222.927 297.012 C 223.402 297.537,224.502 297.428,226.477 296.661 C 230.211 295.211,235.458 293.891,240.667 293.093 C 246.521 292.195,253.036 290.629,252.761 290.184 C 252.311 289.457,250.151 288.972,248.583 289.248 M285.363 347.708 C 284.436 351.417,284.529 358.912,285.581 365.417 C 285.823 366.914,287.647 376.746,288.011 378.520 C 288.206 379.466,288.509 379.701,288.917 379.220 C 289.008 379.112,289.233 378.999,289.417 378.970 C 289.600 378.941,289.804 378.842,289.869 378.750 C 289.934 378.658,290.047 378.581,290.119 378.579 C 290.191 378.577,290.453 378.439,290.701 378.273 C 290.949 378.107,291.222 378.015,291.309 378.068 C 291.395 378.121,291.508 378.053,291.561 377.916 C 291.613 377.779,291.771 377.667,291.911 377.667 C 292.252 377.667,292.239 377.176,291.844 375.108 C 290.696 369.101,290.425 367.733,290.076 366.167 C 289.861 365.204,289.497 363.554,289.266 362.500 C 288.599 359.445,287.503 354.506,287.250 353.417 C 287.123 352.867,286.899 351.817,286.753 351.083 C 286.489 349.757,285.709 347.000,285.598 347.000 C 285.566 347.000,285.460 347.319,285.363 347.708 M151.778 351.944 C 151.546 352.176,151.664 371.470,151.921 375.250 C 152.058 377.267,152.240 380.154,152.325 381.667 C 153.139 396.073,152.916 394.833,154.692 394.833 C 154.953 394.833,155.167 394.890,155.167 394.958 C 155.167 395.027,155.392 395.099,155.667 395.118 C 155.942 395.138,156.165 395.100,156.164 395.035 C 156.162 394.970,156.087 394.218,155.997 393.365 C 155.908 392.512,155.760 390.562,155.670 389.032 C 155.117 379.647,154.471 371.435,153.590 362.583 C 152.694 353.592,152.321 351.401,151.778 351.944 " stroke="none" fill="#f4b484" fill-rule="evenodd"></path><path id="path2" d="M227.917 172.644 C 226.298 173.215,226.104 173.313,222.750 175.249 C 221.283 176.096,219.775 176.945,219.399 177.136 C 216.835 178.434,219.483 181.228,222.750 180.671 C 226.234 180.078,227.436 179.657,228.827 178.544 C 233.322 174.943,232.707 170.953,227.917 172.644 " stroke="none" fill="#fcdccb" fill-rule="evenodd"></path><path id="path3" d="M247.245 206.208 L 246.250 207.250 247.292 206.255 C 248.259 205.331,248.410 205.167,248.286 205.167 C 248.261 205.167,247.792 205.635,247.245 206.208 M194.065 247.583 C 194.065 248.775,194.092 249.241,194.124 248.618 C 194.156 247.996,194.156 247.021,194.123 246.451 C 194.091 245.882,194.064 246.392,194.065 247.583 M194.069 252.667 C 194.069 254.271,194.094 254.927,194.124 254.125 C 194.155 253.323,194.155 252.010,194.124 251.208 C 194.094 250.406,194.069 251.063,194.069 252.667 M193.104 257.423 C 193.047 257.572,193.011 258.044,193.025 258.472 C 193.048 259.233,193.051 259.229,193.162 258.250 C 193.283 257.182,193.270 256.991,193.104 257.423 M223.708 297.448 C 223.869 297.490,224.131 297.490,224.292 297.448 C 224.452 297.406,224.321 297.372,224.000 297.372 C 223.679 297.372,223.548 297.406,223.708 297.448 M151.548 352.917 C 151.549 353.375,151.581 353.543,151.620 353.289 C 151.658 353.036,151.657 352.661,151.617 352.456 C 151.578 352.251,151.546 352.458,151.548 352.917 M151.567 365.417 C 151.568 366.883,151.593 367.461,151.624 366.700 C 151.655 365.940,151.655 364.740,151.624 364.034 C 151.593 363.328,151.567 363.950,151.567 365.417 M152.205 380.500 C 152.205 380.821,152.240 380.952,152.282 380.792 C 152.323 380.631,152.323 380.369,152.282 380.208 C 152.240 380.048,152.205 380.179,152.205 380.500 M152.705 389.167 C 152.705 389.488,152.740 389.619,152.782 389.458 C 152.823 389.298,152.823 389.035,152.782 388.875 C 152.740 388.715,152.705 388.846,152.705 389.167 " stroke="none" fill="#f4bc94" fill-rule="evenodd"></path><path id="path4" d="M211.042 72.948 C 211.202 72.990,211.465 72.990,211.625 72.948 C 211.785 72.906,211.654 72.872,211.333 72.872 C 211.012 72.872,210.881 72.906,211.042 72.948 M218.127 72.951 C 218.334 72.991,218.634 72.990,218.794 72.948 C 218.953 72.906,218.783 72.874,218.417 72.875 C 218.050 72.877,217.920 72.911,218.127 72.951 M165.625 196.284 C 165.831 196.324,166.169 196.324,166.375 196.284 C 166.581 196.245,166.412 196.212,166.000 196.212 C 165.587 196.212,165.419 196.245,165.625 196.284 M167.542 198.282 C 167.702 198.323,167.965 198.323,168.125 198.282 C 168.285 198.240,168.154 198.205,167.833 198.205 C 167.512 198.205,167.381 198.240,167.542 198.282 M245.079 208.208 L 243.750 209.583 245.125 208.254 C 246.402 207.019,246.576 206.833,246.454 206.833 C 246.429 206.833,245.811 207.452,245.079 208.208 M237.906 223.375 L 237.417 223.917 237.958 223.427 C 238.463 222.971,238.577 222.833,238.448 222.833 C 238.419 222.833,238.175 223.077,237.906 223.375 M235.824 225.625 L 235.250 226.250 235.875 225.676 C 236.219 225.360,236.500 225.078,236.500 225.051 C 236.500 224.923,236.359 225.043,235.824 225.625 M259.542 228.750 C 259.544 229.117,259.578 229.247,259.618 229.040 C 259.658 228.832,259.656 228.532,259.615 228.373 C 259.573 228.214,259.540 228.383,259.542 228.750 M231.333 230.083 C 230.928 230.496,230.635 230.833,230.681 230.833 C 230.726 230.833,231.095 230.496,231.500 230.083 C 231.905 229.671,232.199 229.333,232.153 229.333 C 232.107 229.333,231.738 229.671,231.333 230.083 M195.570 254.583 C 195.570 256.417,195.594 257.189,195.624 256.301 C 195.654 255.412,195.654 253.912,195.624 252.967 C 195.595 252.023,195.570 252.750,195.570 254.583 M195.205 261.167 C 195.205 261.487,195.240 261.619,195.282 261.458 C 195.323 261.298,195.323 261.035,195.282 260.875 C 195.240 260.715,195.205 260.846,195.205 261.167 M193.055 262.250 C 193.055 262.892,193.086 263.134,193.122 262.788 C 193.158 262.442,193.157 261.917,193.120 261.621 C 193.083 261.325,193.054 261.608,193.055 262.250 M194.709 266.083 C 194.711 266.450,194.745 266.580,194.785 266.373 C 194.824 266.166,194.823 265.866,194.781 265.706 C 194.739 265.547,194.707 265.717,194.709 266.083 M181.375 286.615 C 181.535 286.657,181.798 286.657,181.958 286.615 C 182.119 286.573,181.987 286.539,181.667 286.539 C 181.346 286.539,181.215 286.573,181.375 286.615 M192.792 287.951 C 192.998 287.991,193.335 287.991,193.542 287.951 C 193.748 287.911,193.579 287.879,193.167 287.879 C 192.754 287.879,192.585 287.911,192.792 287.951 M234.125 290.954 C 234.423 290.991,234.910 290.991,235.208 290.954 C 235.506 290.917,235.262 290.887,234.667 290.887 C 234.071 290.887,233.827 290.917,234.125 290.954 M151.948 351.775 C 152.149 351.818,152.351 351.980,152.397 352.135 C 152.457 352.338,152.471 352.323,152.447 352.083 C 152.424 351.857,152.280 351.741,151.998 351.723 C 151.651 351.700,151.642 351.708,151.948 351.775 M284.565 354.917 C 284.565 356.108,284.592 356.574,284.624 355.951 C 284.656 355.329,284.656 354.354,284.623 353.785 C 284.591 353.216,284.564 353.725,284.565 354.917 M151.550 357.333 C 151.550 357.837,151.581 358.044,151.619 357.792 C 151.658 357.540,151.658 357.127,151.619 356.875 C 151.581 356.623,151.550 356.829,151.550 357.333 M153.205 358.333 C 153.205 358.654,153.240 358.785,153.282 358.625 C 153.323 358.465,153.323 358.202,153.282 358.042 C 153.240 357.881,153.205 358.012,153.205 358.333 M284.875 361.250 C 284.877 361.617,284.911 361.747,284.951 361.540 C 284.991 361.332,284.990 361.032,284.948 360.873 C 284.906 360.714,284.874 360.883,284.875 361.250 M154.042 366.250 C 154.044 366.617,154.078 366.747,154.118 366.540 C 154.158 366.332,154.156 366.032,154.115 365.873 C 154.073 365.714,154.040 365.883,154.042 366.250 M151.542 370.417 C 151.544 370.783,151.578 370.914,151.618 370.706 C 151.658 370.499,151.656 370.199,151.615 370.040 C 151.573 369.880,151.540 370.050,151.542 370.417 M151.717 374.667 C 151.717 375.171,151.748 375.377,151.786 375.125 C 151.824 374.873,151.824 374.460,151.786 374.208 C 151.748 373.956,151.717 374.162,151.717 374.667 M154.881 376.083 C 154.882 376.542,154.915 376.709,154.953 376.456 C 154.991 376.203,154.990 375.828,154.951 375.623 C 154.911 375.418,154.880 375.625,154.881 376.083 M152.039 379.000 C 152.039 379.321,152.073 379.452,152.115 379.292 C 152.157 379.131,152.157 378.869,152.115 378.708 C 152.073 378.548,152.039 378.679,152.039 379.000 M155.205 380.667 C 155.205 380.988,155.240 381.119,155.282 380.958 C 155.323 380.798,155.323 380.535,155.282 380.375 C 155.240 380.215,155.205 380.346,155.205 380.667 M152.209 382.417 C 152.211 382.783,152.245 382.914,152.285 382.706 C 152.324 382.499,152.323 382.199,152.281 382.040 C 152.239 381.880,152.207 382.050,152.209 382.417 M155.381 383.250 C 155.382 383.708,155.415 383.876,155.453 383.623 C 155.491 383.369,155.490 382.994,155.451 382.789 C 155.411 382.584,155.380 382.792,155.381 383.250 M152.553 388.167 C 152.553 388.762,152.584 389.006,152.621 388.708 C 152.658 388.410,152.658 387.923,152.621 387.625 C 152.584 387.327,152.553 387.571,152.553 388.167 M155.714 388.583 C 155.716 389.042,155.748 389.209,155.786 388.956 C 155.825 388.703,155.824 388.328,155.784 388.123 C 155.744 387.918,155.713 388.125,155.714 388.583 M156.209 394.750 C 156.211 395.117,156.245 395.247,156.285 395.040 C 156.324 394.832,156.323 394.532,156.281 394.373 C 156.239 394.214,156.207 394.383,156.209 394.750 M207.958 399.951 C 208.165 399.991,208.502 399.991,208.708 399.951 C 208.915 399.911,208.746 399.879,208.333 399.879 C 207.921 399.879,207.752 399.911,207.958 399.951 " stroke="none" fill="#fcc8a4" fill-rule="evenodd"></path><path id="path5" d="M233.494 227.958 L 232.583 228.917 233.542 228.006 C 234.069 227.505,234.500 227.073,234.500 227.047 C 234.500 226.924,234.341 227.068,233.494 227.958 M193.053 260.167 C 193.053 260.762,193.084 261.006,193.121 260.708 C 193.158 260.410,193.158 259.923,193.121 259.625 C 193.084 259.327,193.053 259.571,193.053 260.167 M151.559 355.083 C 151.559 355.908,151.587 356.267,151.622 355.880 C 151.657 355.493,151.657 354.818,151.623 354.380 C 151.588 353.942,151.560 354.258,151.559 355.083 M151.566 360.500 C 151.566 361.829,151.592 362.373,151.624 361.708 C 151.655 361.044,151.655 359.956,151.624 359.292 C 151.592 358.627,151.566 359.171,151.566 360.500 M151.552 368.917 C 151.553 369.467,151.584 369.672,151.621 369.372 C 151.658 369.072,151.657 368.622,151.619 368.372 C 151.581 368.122,151.551 368.367,151.552 368.917 " stroke="none" fill="#fcc494" fill-rule="evenodd"></path></g></svg>