<?xml version="1.0" encoding="UTF-8"?><svg id="Base_copy" xmlns="http://www.w3.org/2000/svg" viewBox="0 0 500 500"><defs><style>.cls-1{fill:#dd908e;}.cls-2{fill:#c17a78;}.cls-3{fill:#7a3f3f;}</style></defs><path class="cls-2" d="m442.93,407.17c-1.14-5.82-2.78-11.54-2.78-11.54-3.17-11.01-5.86-19.65-12.36-28.67-5.38-7.45-11.73-13.75-20.3-17.45-4.98-2.15-9.77-4.71-14.7-6.96-3.03-1.39-6.05-2.81-9-4.37-7.91-4.17-15.64-8.67-23.78-12.43-8.64-4-17.04-8.51-25.22-13.43-2.55-1.53-4.93-3.12-6.37-5.91-2.3-4.48-3.65-9.23-3.79-14.21-.47-16.46-.41-24.7,2.09-35.22,3.48-14.61,9.33-25.55,11.98-30.42,3.85-7.07,4.98-7.59,7.67-13.65,1.08-2.45,5.33-12.35,6.74-26.29.48-4.71.92-12.76-.51-22.58-.63-4.32-2.92-17.95-11.63-33.45-4.44-7.92-9.29-16.54-19.29-24.19-9.14-6.98-18.34-9.9-22.58-11.2-7.58-2.34-14.19-3.07-17.02-3.37-5.49-.59-10.04-.59-13.32-.59-3.48-.01-6.69,0-10.95.42-1.58.15-6.31.66-12.47,2.1-1.86.44-8.97,2.13-15.34,4.89-12.94,5.6-21.19,14.87-25.19,19.47-9.71,11.13-14.01,22.07-16.18,27.72-1.82,4.76-2.99,9.07-5.33,17.69-.34,1.26-2.12,7.92-3.26,16.1-.24,1.71-.35,2.75-.38,4-.05,1.71-.13,6.92,2.31,12.43.67,1.52.88,1.58,1.31,2.85,1.02,2.99.86,5.62.72,7.06-.6,5.86-2.84,10.89-3.92,15.11-1.37,5.31-.93,9.44-.32,15.26.8,7.57,3.15,13.11,7.81,23.88,4.38,10.12,7.44,16.33,12.94,24.08,3.51,4.96,7.69,9.13,12.88,12.37,2.15,1.33,6.36,3.76,12.28,4.6,3.63.51,6.73.25,8.71.07,3.42-.31,6.28-.96,8.39-1.57-.02,2.29-.04,4.57-.06,6.85,0,.68,0,1.36-.01,2.04-.03,3.33-.05,6.65-.04,9.98,0,.13,0,.25,0,.37,0,.06,0,.13-.01.19-.01.29-.04.57-.1.83,0,.02,0,.05,0,.08-.01.01-.01.02-.02.04-.02.09-.04.17-.07.25-.02.07-.04.14-.07.21,0,.01,0,.02-.01.03-.01.04-.03.09-.05.14-.01.02-.02.04-.03.07h-.01s-.03.08-.05.11c-.04.07-.08.15-.14.24-.17.26-.39.51-.67.74-7.23,4.58-14.49,9.11-21.67,13.75-7.3,4.72-14.96,8.77-22.84,12.37-9.55,4.35-18.78,9.24-27.58,14.96-4.65,3.02-8.23,6.96-10.66,11.99-2.31,4.81-4.12,9.81-5.94,14.81-1.8,4.93-2.88,10.03-3.61,15.21-.86,6.1-1.76,12.19-2.58,18.3-.49,3.66-.76,7.36-1.32,11.01-.73,4.69-1.22,9.42-1.41,14.14-.14,3.38-.22,3.43-.56,8.15-.3,4.09-.59,7.53-1.02,12.33-.18,2.05-.38,4.18-.58,6.34,15.73,7.58,32.38,13.56,49.73,17.73,1.32.32,2.64.62,3.96.92,17.6,3.93,35.9,6,54.69,6,39.58,0,77-9.2,110.26-25.57,1.73-.85,3.45-1.72,5.16-2.61,30.01-15.65,56.44-37.21,77.76-63.13-.09-.51-.18-1-.27-1.47Z"/><g><path class="cls-1" d="m197.7,240.1c1,2.07,3.96,2.76,4.44,2.16.2-.25-.09-.67-.98-2.45-1.83-3.63-1.93-4.5-2.4-4.48-.82.03-2.04,2.74-1.06,4.77Z"/><g id="Cheek_highlight"><path class="cls-1" d="m277.52,225.99c-1.3-.08-2.47-.34-3.43-1.13-1.31-1.08-1.45-2.65.04-3.37,4.02-1.95,7.58-4.82,11.93-6.09,1.72-.5,2.91-.09,3.58,1.03.59.97.3,2.47-.64,3.73-2.26,3.01-5.09,5.03-8.96,5.37-.87.08-1.72.32-2.51.47Z"/></g></g><g id="Ear_copy"><g><path class="cls-3" d="m203.77,246.26c1.3.77,2.17,1.29,3.34,1.79.76.33,1.86.74,3.26,1.07,5.63-.99,6.79-1.51,6.77-1.8-.02-.24-.99-.41-2.93-.73-2.07-.35-3.47-.5-3.47-.5-1.55-.03-3.96-.22-6.73-1.13-3.01-.99-5.02-2.08-5.1-1.93-.05.09.86.68,2.67,1.84,1.02.66,1.54.99,2.2,1.39Z"/><path class="cls-3" d="m206.21,223.11c4.67-10.97,4.62-19.76,4.89-19.73.28.03.81,9.04-3.42,18.91-2.65,6.17-6.34,10.79-6.52,10.68-.16-.1,2.59-4.08,5.05-9.86Z"/><path class="cls-3" d="m242.77,299.77c1.28-.27,3.07-.67,5.18-1.26,1.92-.54,8.72-1.97,17.34-7.03,5.16-3.03,10.32-6.06,15.25-9.46,4.69-3.23,9.23-6.64,13.55-10.37,5.61-4.85,11.07-9.86,16.29-15.13.5-.5.9-1.23,1.76-1.11.44.59.05.99-.14,1.38-.43.89-1.98,4.61-2.83,6.23-6.77,13-22.18,26.59-22.18,26.59-10.1,8.9-15.55,12.36-21.75,15.45-5.79,2.89-11.87,5.09-18.14,6.7-2.35.6-2.6.92-2.66,3.28-.03,1.33-.03,2.67,0,4,.08,4.37-.62,8.68-.98,13.01-.26,3.11-.96,6.18-.94,9.35-.34-1.83-.96-3.56-.95-5.46.02-4.66-.08-9.32-.14-13.98,1.04-.87,1.25-1.99,1.25-3.31,0-6.29.07-12.58.11-18.86Z"/><path class="cls-3" d="m365.44,471.77c-1.71.89-3.43,1.76-5.16,2.61-1.12-5.82-2.23-11.65-3.07-16.37-.25-1.38-.67-4.03-.98-7.6-.47-5.4-.62-10.91.75-16.91,1.14,2.57,1.41,4.8,1.89,6.93,2.63,11.76,4.57,20.44,5.38,24.95.34,1.91.73,4.04,1.19,6.39Z"/><path class="cls-3" d="m195.33,493.95c-1.32-.3-2.64-.6-3.96-.92-.04-.78-.08-1.57-.13-2.36-.5-7.17-.79-14.37-1.33-21.53-.72-9.5-.14-18.99-.4-28.47-.01-.35-.01-.77.44-.91.15-.04.26-.03.34.02.18.1.22.35.23.44,2.67,18.61,4.12,45.72,4.12,45.72.1,1.98.3,4.7.69,8.01Z"/><path class="cls-3" d="m316.19,362.81c-4.59,1.81-8.88,2.65-13.18,3.24-6.99.95-13.8,2.49-20.4,4.99-.96.36-1.92.88-3.01.75-.51-.06-.93-.31-1.12-.77-.21-.51.08-.91.49-1.21,4.24-3.09,8.5-5.82,14.1-6.05,6.23-.26,12.41-1.34,18.57-2.38,1.65-.28,2.89.26,4.55,1.43Z"/><path class="cls-3" d="m226.41,358.24c3.39.39,6.83.52,10.14,1.24,2.26.5,4.52.32,6.77.72,4.52.81,7.95,3.47,11.57,5.87.53.35,1.11.87.63,1.66-.41.67-1.12.8-1.77.59-1.26-.41-2.57-.62-3.81-1.14-3.07-1.27-6.3-2.06-9.54-2.83-4.8-1.14-9.5-2.63-14.36-3.52-.69-.13-1.61-.43-1.52-1.42.1-1.09.97-1.28,1.89-1.19Z"/></g></g></svg>