<svg id="svg" version="1.1" xmlns="http://www.w3.org/2000/svg" xmlns:xlink="http://www.w3.org/1999/xlink" width="400" height="400" viewBox="0, 0, 400,400"><g id="svgg"><path id="path0" d="M207.917 73.086 C 205.076 73.293,203.497 73.489,201.167 73.921 C 200.479 74.048,199.429 74.239,198.833 74.344 C 198.237 74.449,197.338 74.636,196.833 74.760 C 196.329 74.883,195.467 75.093,194.917 75.225 C 192.284 75.860,187.884 77.191,186.583 77.748 C 186.308 77.865,185.371 78.248,184.500 78.599 C 177.704 81.335,170.919 86.313,165.099 92.834 C 164.650 93.338,164.047 94.013,163.760 94.333 C 163.473 94.654,162.903 95.329,162.494 95.833 C 162.085 96.337,161.710 96.787,161.660 96.833 C 161.006 97.439,156.178 104.653,155.875 105.477 C 155.820 105.627,155.727 105.787,155.669 105.833 C 155.556 105.922,153.088 110.914,152.537 112.167 C 151.227 115.148,149.587 119.656,148.838 122.333 C 148.722 122.746,148.555 123.308,148.467 123.583 C 148.317 124.051,147.677 126.355,147.333 127.667 C 146.980 129.014,146.349 131.286,146.198 131.750 C 146.109 132.025,145.943 132.700,145.829 133.250 C 145.715 133.800,145.527 134.625,145.411 135.083 C 145.294 135.542,145.113 136.404,145.008 137.000 C 144.903 137.596,144.714 138.608,144.588 139.250 C 143.961 142.455,143.500 146.010,143.501 147.632 C 143.504 149.814,144.058 153.340,144.603 154.631 C 144.730 154.932,144.833 155.294,144.833 155.436 C 144.833 155.577,145.179 156.419,145.601 157.305 C 147.374 161.029,147.553 164.828,146.167 169.333 C 146.068 169.654,145.925 170.142,145.849 170.417 C 145.595 171.328,144.798 173.907,144.586 174.500 C 143.343 177.974,142.914 181.896,143.332 185.972 C 143.773 190.276,143.892 191.192,144.186 192.583 C 144.510 194.110,145.138 196.445,145.508 197.500 C 146.078 199.123,147.533 202.820,148.166 204.250 C 148.329 204.617,148.812 205.769,149.242 206.811 C 149.671 207.854,150.087 208.829,150.166 208.978 C 150.245 209.128,150.465 209.606,150.655 210.042 C 152.033 213.202,153.895 217.069,155.250 219.583 C 155.949 220.879,159.147 226.106,159.534 226.583 C 159.608 226.675,160.097 227.350,160.619 228.083 C 161.141 228.817,161.610 229.454,161.661 229.500 C 161.712 229.546,162.278 230.183,162.920 230.917 C 163.965 232.111,165.274 233.394,167.031 234.945 C 167.907 235.719,170.635 237.580,171.764 238.174 C 172.302 238.457,172.819 238.745,172.913 238.813 C 173.459 239.212,176.935 240.427,179.000 240.940 C 182.794 241.882,191.667 241.104,194.770 239.557 C 195.670 239.108,196.235 238.945,197.104 238.883 C 198.348 238.793,201.991 237.646,206.024 236.074 C 213.361 233.214,226.795 224.594,235.083 217.429 C 238.507 214.470,242.782 210.548,245.772 207.625 C 247.623 205.815,249.259 204.333,249.408 204.333 C 249.813 204.333,249.901 204.771,249.615 205.376 C 249.475 205.674,249.048 206.629,248.666 207.500 C 245.828 213.968,241.738 219.542,234.256 227.141 C 222.369 239.213,211.508 245.881,198.140 249.314 C 195.489 249.995,195.500 249.972,195.500 254.693 C 195.500 258.091,195.101 263.029,194.417 268.083 C 194.280 269.092,194.117 270.592,194.055 271.417 L 193.941 272.917 193.619 271.750 C 193.339 270.732,193.283 269.763,193.184 264.132 C 193.122 260.584,193.031 257.642,192.982 257.593 C 192.934 257.545,192.262 257.908,191.489 258.401 C 190.716 258.893,189.746 259.504,189.333 259.758 C 188.921 260.012,188.096 260.532,187.500 260.914 C 186.904 261.295,186.304 261.661,186.167 261.725 C 186.029 261.790,185.129 262.365,184.167 263.004 C 183.204 263.643,182.154 264.319,181.833 264.505 C 181.512 264.692,180.936 265.048,180.553 265.297 C 180.170 265.546,179.096 266.237,178.167 266.833 C 177.237 267.429,176.188 268.104,175.835 268.333 C 175.276 268.696,172.506 270.400,171.198 271.185 C 168.435 272.844,160.613 276.906,157.667 278.211 C 155.567 279.141,154.384 279.690,154.167 279.834 C 154.029 279.926,153.739 280.077,153.522 280.171 C 153.034 280.380,148.177 282.799,147.833 283.003 C 147.696 283.085,146.646 283.657,145.500 284.273 C 144.354 284.890,143.192 285.530,142.917 285.696 C 142.642 285.862,142.304 286.050,142.167 286.114 C 141.882 286.247,138.402 288.332,137.458 288.934 C 137.115 289.154,136.533 289.521,136.167 289.750 C 134.937 290.519,134.224 291.005,133.903 291.295 C 133.727 291.454,133.321 291.782,133.000 292.025 C 132.143 292.675,130.674 294.131,129.915 295.083 C 129.549 295.542,129.208 295.954,129.156 296.000 C 128.775 296.337,127.021 299.339,126.430 300.667 C 126.165 301.262,125.776 302.125,125.566 302.583 C 125.356 303.042,124.949 304.017,124.662 304.750 C 124.376 305.483,123.964 306.533,123.747 307.083 C 123.531 307.633,123.244 308.421,123.109 308.833 C 122.870 309.569,122.680 310.057,122.227 311.109 C 122.102 311.397,122.000 311.717,122.000 311.819 C 122.000 311.921,121.930 312.135,121.845 312.294 C 121.707 312.554,121.426 313.476,120.615 316.333 C 120.115 318.099,119.189 323.077,118.833 325.917 C 118.730 326.742,118.543 328.092,118.419 328.917 C 118.294 329.742,118.106 331.092,118.000 331.917 C 117.894 332.742,117.707 334.092,117.583 334.917 C 117.323 336.653,117.124 338.190,116.752 341.333 C 116.606 342.571,116.372 344.446,116.232 345.500 C 116.092 346.554,115.904 347.979,115.815 348.667 C 115.726 349.354,115.576 350.461,115.482 351.127 C 115.264 352.666,115.028 355.660,114.912 358.333 C 114.863 359.479,114.713 361.729,114.580 363.333 C 114.447 364.938,114.260 367.375,114.164 368.750 C 114.067 370.125,113.882 372.337,113.752 373.667 C 113.072 380.626,113.071 380.667,113.675 380.667 C 113.795 380.667,114.277 380.880,117.250 382.251 C 117.990 382.593,118.840 382.965,120.167 383.529 C 120.396 383.626,120.696 383.761,120.833 383.828 C 120.971 383.895,122.133 384.382,123.417 384.910 C 124.700 385.438,125.900 385.933,126.083 386.011 C 127.019 386.409,128.669 387.050,129.333 387.274 C 129.746 387.414,130.833 387.810,131.750 388.155 C 133.838 388.941,134.116 389.037,136.667 389.854 C 137.813 390.222,138.938 390.600,139.167 390.696 C 139.396 390.791,139.958 390.977,140.417 391.108 C 141.643 391.460,142.355 391.667,142.917 391.836 C 145.031 392.472,145.183 392.515,148.250 393.330 C 152.389 394.431,152.849 394.540,152.942 394.447 C 153.031 394.358,152.875 391.410,152.247 381.250 C 152.117 379.142,151.924 376.142,151.818 374.583 C 151.676 372.497,151.537 353.187,151.655 351.958 C 151.690 351.594,152.315 351.875,152.398 352.292 C 153.141 356.037,154.791 373.815,155.503 385.750 C 155.671 388.559,155.872 391.320,156.110 394.107 L 156.213 395.298 157.231 395.498 C 157.792 395.609,158.625 395.795,159.083 395.912 C 159.542 396.028,160.479 396.215,161.167 396.326 C 161.854 396.437,162.867 396.628,163.417 396.751 C 164.418 396.974,166.488 397.326,168.833 397.671 C 169.521 397.772,170.721 397.958,171.500 398.084 C 172.279 398.210,173.704 398.397,174.667 398.500 C 175.629 398.603,177.242 398.792,178.250 398.919 C 180.039 399.145,181.011 399.225,188.583 399.767 C 192.892 400.076,208.952 400.025,212.917 399.690 C 214.200 399.582,216.225 399.417,217.417 399.324 C 218.608 399.232,220.558 399.044,221.750 398.907 C 222.942 398.771,224.592 398.582,225.417 398.487 C 226.242 398.392,227.592 398.212,228.417 398.086 C 229.242 397.959,230.517 397.770,231.250 397.665 C 232.536 397.481,233.754 397.268,236.583 396.732 C 237.317 396.593,238.329 396.403,238.833 396.309 C 239.338 396.216,240.050 396.074,240.417 395.995 C 240.783 395.916,241.683 395.732,242.417 395.586 C 243.150 395.440,244.537 395.132,245.500 394.903 C 246.463 394.674,247.737 394.370,248.333 394.228 C 248.929 394.087,249.754 393.868,250.167 393.742 C 250.579 393.616,251.517 393.357,252.250 393.167 C 254.955 392.465,256.739 391.956,259.250 391.169 C 260.167 390.882,261.383 390.507,261.953 390.337 C 262.522 390.166,263.069 389.977,263.167 389.917 C 263.265 389.856,263.811 389.668,264.381 389.498 C 265.367 389.205,266.729 388.738,268.000 388.258 C 268.321 388.137,268.883 387.925,269.250 387.787 C 270.569 387.292,274.140 385.914,274.750 385.665 C 276.693 384.873,278.966 383.924,279.167 383.822 C 279.651 383.576,281.343 382.833,281.420 382.833 C 281.463 382.833,282.230 382.490,283.124 382.071 C 286.875 380.312,288.012 379.780,288.132 379.730 C 288.158 379.718,287.797 377.693,287.330 375.230 C 284.941 362.634,284.545 359.386,284.715 353.780 C 284.803 350.867,285.207 347.403,285.494 347.109 C 285.743 346.854,286.284 348.693,287.226 353.000 C 287.737 355.337,288.755 359.988,289.488 363.333 C 290.220 366.679,291.157 371.207,291.569 373.396 C 292.441 378.020,292.259 377.602,293.182 377.111 C 293.586 376.896,294.592 376.362,295.417 375.925 C 296.242 375.488,296.992 375.072,297.083 375.001 C 297.175 374.930,297.850 374.552,298.583 374.161 C 299.317 373.770,300.011 373.376,300.127 373.286 C 300.455 373.031,301.718 372.330,302.042 372.224 C 302.202 372.171,302.333 372.075,302.333 372.010 C 302.333 371.945,302.677 371.710,303.098 371.488 C 304.116 370.949,304.349 370.812,305.106 370.314 C 305.460 370.082,306.050 369.698,306.417 369.463 C 306.783 369.227,307.758 368.598,308.583 368.065 C 309.408 367.531,310.214 367.017,310.374 366.922 C 311.453 366.282,319.872 360.326,320.917 359.464 C 321.100 359.313,322.375 358.310,323.750 357.235 C 325.125 356.160,326.287 355.235,326.333 355.179 C 326.379 355.123,327.054 354.558,327.833 353.924 C 328.612 353.289,329.287 352.728,329.333 352.676 C 329.379 352.625,329.867 352.210,330.417 351.754 C 330.967 351.298,331.529 350.810,331.667 350.670 C 331.804 350.529,332.217 350.158,332.583 349.846 C 334.763 347.987,336.477 346.350,341.414 341.414 C 346.350 336.477,347.987 334.763,349.846 332.583 C 350.158 332.217,350.529 331.804,350.670 331.667 C 350.810 331.529,351.298 330.967,351.754 330.417 C 352.210 329.867,352.623 329.379,352.670 329.333 C 352.718 329.287,353.131 328.800,353.587 328.250 C 354.043 327.700,354.480 327.203,354.558 327.147 C 354.686 327.053,354.393 325.499,353.508 321.583 C 353.042 319.520,351.787 314.921,351.166 313.000 C 350.973 312.404,350.707 311.504,350.573 311.000 C 350.439 310.496,350.228 309.821,350.104 309.500 C 349.979 309.179,349.788 308.617,349.678 308.250 C 349.569 307.883,349.363 307.283,349.220 306.917 C 349.077 306.550,348.903 306.100,348.833 305.917 C 348.578 305.245,348.123 304.074,347.992 303.750 C 347.521 302.590,345.397 298.323,344.914 297.567 C 344.595 297.068,344.333 296.633,344.333 296.599 C 344.333 296.287,341.149 291.881,339.505 289.918 C 337.073 287.014,332.561 282.968,330.606 281.940 C 330.408 281.835,330.021 281.591,329.748 281.397 C 329.278 281.063,325.472 279.167,325.272 279.167 C 325.169 279.167,322.762 278.027,318.417 275.921 C 316.858 275.166,314.796 274.182,313.833 273.736 C 312.049 272.907,305.092 269.410,303.583 268.583 C 303.125 268.331,302.300 267.885,301.750 267.590 C 301.200 267.296,300.337 266.823,299.833 266.540 C 296.853 264.869,296.361 264.619,283.000 258.025 C 280.846 256.961,278.483 255.759,277.750 255.353 C 277.017 254.946,276.042 254.414,275.583 254.170 C 274.425 253.552,272.846 252.670,272.250 252.307 C 271.975 252.140,271.637 251.951,271.500 251.887 C 271.362 251.823,270.688 251.428,270.001 251.010 C 269.314 250.592,268.622 250.175,268.464 250.083 C 263.885 247.430,262.236 245.250,260.774 239.917 C 259.831 236.478,259.634 233.983,259.604 225.167 C 259.581 218.099,259.866 213.641,260.580 209.917 C 260.703 209.275,260.896 208.262,261.009 207.667 C 261.539 204.867,263.644 197.547,264.484 195.583 C 264.563 195.400,264.740 194.950,264.878 194.583 C 266.082 191.395,266.994 189.337,269.016 185.250 C 270.474 182.304,270.759 181.774,273.012 177.833 C 273.143 177.604,273.291 177.379,273.341 177.333 C 273.813 176.900,277.167 170.831,277.167 170.410 C 277.167 170.366,277.315 170.012,277.496 169.623 C 278.182 168.153,279.940 163.010,280.330 161.333 C 280.448 160.829,280.643 160.079,280.764 159.667 C 280.885 159.254,281.103 158.317,281.249 157.583 C 281.395 156.850,281.578 155.987,281.655 155.667 C 281.732 155.346,281.884 154.408,281.993 153.583 C 282.103 152.758,282.295 151.371,282.421 150.500 C 283.055 146.100,283.019 136.467,282.352 132.667 C 282.264 132.162,282.109 131.150,282.008 130.417 C 281.319 125.408,278.154 114.754,276.354 111.385 C 276.265 111.219,275.613 109.883,274.905 108.417 C 273.817 106.164,272.912 104.468,271.882 102.752 C 271.772 102.568,271.605 102.267,271.512 102.083 C 271.419 101.900,271.118 101.375,270.843 100.917 C 270.569 100.458,270.221 99.858,270.071 99.583 C 269.655 98.822,266.729 94.462,266.379 94.083 C 266.210 93.900,265.958 93.586,265.819 93.385 C 264.728 91.810,260.298 87.291,258.500 85.919 C 257.904 85.464,257.282 84.969,257.119 84.819 C 256.955 84.669,256.392 84.262,255.869 83.914 C 255.345 83.567,254.617 83.080,254.250 82.833 C 252.920 81.937,250.377 80.518,248.583 79.672 C 246.139 78.519,246.007 78.461,244.167 77.750 C 243.754 77.591,243.267 77.395,243.083 77.316 C 241.628 76.689,237.603 75.520,234.250 74.753 C 227.007 73.094,216.715 72.442,207.917 73.086 M231.361 172.810 C 232.546 174.136,231.516 176.454,228.814 178.544 C 224.983 181.506,217.825 181.304,218.404 178.250 C 218.530 177.585,218.672 177.492,224.739 174.112 C 228.367 172.090,230.367 171.697,231.361 172.810 M166.000 196.407 C 168.422 196.697,169.833 197.191,169.833 197.749 C 169.833 198.700,167.572 199.810,166.908 199.184 C 166.821 199.102,165.778 198.690,164.590 198.270 C 160.114 196.686,160.797 195.783,166.000 196.407 M184.333 286.921 C 185.846 287.065,187.833 287.324,188.750 287.498 C 189.667 287.671,191.204 287.862,192.167 287.922 C 195.840 288.151,198.388 289.136,202.417 291.885 C 204.197 293.100,204.417 293.303,204.417 293.732 C 204.417 295.084,203.288 294.985,198.167 293.185 C 197.112 292.815,194.300 292.022,191.917 291.424 C 189.533 290.826,186.871 290.145,186.000 289.911 C 185.129 289.677,183.554 289.299,182.500 289.070 C 180.004 288.529,180.034 288.540,179.732 288.080 C 179.217 287.293,180.037 286.449,181.167 286.603 C 181.396 286.634,182.821 286.778,184.333 286.921 M251.799 289.566 C 252.953 290.151,252.970 290.258,251.960 290.635 C 249.343 291.612,246.670 292.223,241.917 292.931 C 235.716 293.854,231.394 294.911,226.542 296.690 C 224.111 297.582,223.498 297.665,223.000 297.167 C 222.281 296.447,222.649 296.021,225.667 294.081 C 228.808 292.061,231.270 291.229,234.782 290.998 C 238.528 290.752,242.271 290.279,246.583 289.506 C 249.658 288.956,250.616 288.967,251.799 289.566 " stroke="none" fill="#73433b" fill-rule="evenodd"></path><path id="path1" d="M161.907 196.407 C 161.329 196.837,162.148 197.406,164.590 198.270 C 165.778 198.690,166.821 199.102,166.908 199.184 C 167.572 199.810,169.833 198.700,169.833 197.749 C 169.833 196.784,162.963 195.621,161.907 196.407 M245.772 207.625 C 242.782 210.548,238.507 214.470,235.083 217.429 C 226.795 224.594,213.361 233.214,206.024 236.074 C 202.018 237.636,198.347 238.794,197.121 238.881 C 196.334 238.938,195.703 239.107,195.038 239.439 L 194.083 239.917 194.048 247.667 C 194.011 255.598,193.952 256.390,193.342 257.083 C 192.896 257.590,193.131 269.976,193.620 271.750 L 193.941 272.917 194.055 271.417 C 194.117 270.592,194.280 269.092,194.417 268.083 C 195.101 263.029,195.500 258.091,195.500 254.693 C 195.500 249.972,195.489 249.995,198.140 249.314 C 211.508 245.881,222.369 239.213,234.256 227.141 C 241.738 219.542,245.828 213.968,248.666 207.500 C 249.048 206.629,249.475 205.674,249.615 205.376 C 249.901 204.771,249.813 204.333,249.408 204.333 C 249.259 204.333,247.623 205.815,245.772 207.625 M180.333 286.655 C 179.715 286.817,179.398 287.569,179.732 288.080 C 180.034 288.540,180.004 288.529,182.500 289.070 C 183.554 289.299,185.129 289.677,186.000 289.911 C 186.871 290.145,189.533 290.826,191.917 291.424 C 194.300 292.022,197.112 292.815,198.167 293.185 C 203.288 294.985,204.417 295.084,204.417 293.732 C 204.417 293.303,204.197 293.100,202.417 291.885 C 198.388 289.136,195.840 288.151,192.167 287.922 C 191.204 287.862,189.667 287.671,188.750 287.498 C 187.833 287.324,185.846 287.065,184.333 286.921 C 182.821 286.778,181.396 286.634,181.167 286.603 C 180.938 286.572,180.563 286.595,180.333 286.655 M246.583 289.506 C 242.271 290.279,238.528 290.752,234.782 290.998 C 231.270 291.229,228.808 292.061,225.667 294.081 C 222.649 296.021,222.281 296.447,223.000 297.167 C 223.498 297.665,224.111 297.582,226.542 296.690 C 231.394 294.911,235.716 293.854,241.917 292.931 C 247.520 292.096,253.063 290.673,252.740 290.151 C 252.102 289.118,249.987 288.897,246.583 289.506 M285.426 347.171 C 284.245 350.320,284.505 359.803,285.999 368.083 C 286.767 372.340,288.143 379.532,288.200 379.589 C 288.282 379.671,290.744 378.458,290.806 378.305 C 290.836 378.229,290.996 378.167,291.160 378.167 C 291.325 378.167,291.553 378.054,291.667 377.917 C 291.781 377.779,291.977 377.667,292.104 377.667 C 292.399 377.667,292.447 378.055,291.576 373.435 C 290.882 369.750,290.199 366.542,287.336 353.500 C 286.126 347.989,285.677 346.502,285.426 347.171 M151.655 351.958 C 151.537 353.187,151.676 372.497,151.818 374.583 C 152.058 378.123,152.404 383.712,152.750 389.667 C 153.062 395.018,152.981 394.619,153.783 394.757 C 154.131 394.817,154.787 394.971,155.239 395.100 C 155.691 395.228,156.095 395.333,156.138 395.333 C 156.181 395.333,156.169 394.790,156.112 394.125 C 155.871 391.317,155.671 388.565,155.503 385.750 C 154.867 375.081,153.717 362.150,152.739 354.667 C 152.381 351.929,152.356 351.833,151.987 351.833 C 151.811 351.833,151.661 351.890,151.655 351.958 " stroke="none" fill="#3c241c" fill-rule="evenodd"></path><path id="path2" d="M227.822 172.632 C 226.618 173.076,225.273 173.783,221.000 176.221 C 218.134 177.856,217.913 178.154,218.697 179.333 C 220.105 181.454,225.605 181.025,228.814 178.544 C 233.348 175.037,232.647 170.854,227.822 172.632 " stroke="none" fill="#936b63" fill-rule="evenodd"></path></g></svg>