<svg id="svg" version="1.1" xmlns="http://www.w3.org/2000/svg" xmlns:xlink="http://www.w3.org/1999/xlink" width="400" height="400" viewBox="0, 0, 400,400"><g id="svgg"><path id="path0" d="M207.917 73.086 C 205.076 73.293,203.497 73.489,201.167 73.921 C 200.479 74.048,199.429 74.239,198.833 74.344 C 198.237 74.449,197.338 74.636,196.833 74.760 C 196.329 74.883,195.467 75.093,194.917 75.225 C 192.550 75.795,190.181 76.474,189.167 76.872 C 188.938 76.962,188.300 77.178,187.750 77.352 C 187.200 77.526,186.600 77.735,186.417 77.817 C 186.233 77.899,185.333 78.269,184.417 78.640 C 177.879 81.286,171.233 86.073,165.871 92.000 C 163.485 94.637,163.304 94.843,162.499 95.833 C 162.090 96.337,161.713 96.787,161.661 96.833 C 160.370 97.985,156.074 104.874,154.021 109.083 C 152.422 112.362,152.331 112.572,150.746 116.583 C 150.323 117.652,149.180 121.095,148.836 122.333 C 148.722 122.746,148.555 123.308,148.467 123.583 C 148.379 123.858,148.123 124.758,147.898 125.583 C 147.673 126.408,147.425 127.308,147.346 127.583 C 146.540 130.381,145.398 135.011,145.024 137.000 C 144.929 137.504,144.741 138.479,144.606 139.167 C 143.964 142.426,143.500 145.989,143.501 147.632 C 143.504 149.814,144.058 153.340,144.603 154.631 C 144.730 154.932,144.833 155.294,144.833 155.436 C 144.833 155.577,145.179 156.419,145.601 157.305 C 147.362 161.003,147.552 164.831,146.193 169.250 C 146.108 169.525,145.944 170.087,145.828 170.500 C 145.567 171.425,144.892 173.576,144.650 174.250 C 143.379 177.796,142.943 181.660,143.334 185.917 C 143.819 191.185,144.043 192.465,145.172 196.417 C 145.305 196.884,145.817 198.352,146.397 199.934 C 146.668 200.671,149.490 207.434,150.041 208.667 C 150.226 209.079,150.517 209.735,150.688 210.125 C 159.113 229.275,167.365 238.231,179.083 240.942 C 183.063 241.862,191.670 241.102,194.770 239.557 C 195.670 239.108,196.235 238.945,197.104 238.883 C 198.911 238.753,206.459 236.101,209.858 234.402 C 221.418 228.622,234.017 219.170,246.428 206.967 C 250.592 202.872,250.756 203.421,247.394 210.212 C 243.132 218.822,231.256 231.448,219.715 239.637 C 214.322 243.464,206.569 246.998,198.989 249.086 C 195.336 250.092,195.503 249.822,195.500 254.750 C 195.499 257.899,194.883 265.440,194.348 268.841 C 194.255 269.433,194.127 270.626,194.063 271.494 L 193.947 273.071 193.624 271.827 C 193.343 270.747,193.286 269.734,193.187 264.134 C 193.125 260.587,193.032 257.643,192.982 257.593 C 192.931 257.542,192.521 257.737,192.070 258.025 C 191.619 258.314,190.969 258.726,190.625 258.942 C 188.761 260.110,186.723 261.403,184.500 262.828 C 183.354 263.563,182.154 264.317,181.833 264.504 C 181.512 264.691,180.932 265.048,180.544 265.297 C 179.784 265.785,176.922 267.631,175.782 268.369 C 175.398 268.618,174.821 268.977,174.500 269.166 C 174.179 269.355,173.692 269.655,173.417 269.833 C 173.142 270.011,172.654 270.311,172.333 270.500 C 172.012 270.688,171.525 270.979,171.250 271.146 C 168.453 272.845,160.668 276.893,157.583 278.252 C 155.859 279.011,148.661 282.519,147.833 283.003 C 147.696 283.083,146.496 283.742,145.167 284.468 C 143.837 285.193,142.450 285.959,142.083 286.171 C 141.717 286.382,141.079 286.747,140.667 286.980 C 140.254 287.213,139.680 287.557,139.390 287.744 C 139.101 287.931,138.431 288.346,137.902 288.667 C 136.797 289.336,133.791 291.336,133.667 291.484 C 133.621 291.539,133.246 291.857,132.833 292.191 C 131.756 293.063,130.684 294.127,129.917 295.085 C 129.550 295.542,129.208 295.954,129.156 296.000 C 128.953 296.179,126.833 299.593,126.833 299.740 C 126.833 299.778,126.566 300.388,126.239 301.095 C 125.214 303.314,123.847 306.681,123.231 308.500 C 123.092 308.912,122.870 309.486,122.739 309.775 C 122.607 310.064,122.500 310.416,122.500 310.557 C 122.500 310.698,122.431 310.856,122.346 310.909 C 122.262 310.961,122.140 311.244,122.075 311.538 C 122.010 311.832,121.898 312.187,121.824 312.328 C 121.696 312.574,121.172 314.318,120.597 316.417 C 120.251 317.676,119.689 320.298,119.506 321.500 C 119.429 322.004,119.292 322.867,119.200 323.417 C 119.109 323.967,118.946 325.092,118.840 325.917 C 118.733 326.742,118.543 328.092,118.419 328.917 C 118.294 329.742,118.106 331.092,118.001 331.917 C 117.896 332.742,117.706 334.092,117.579 334.917 C 117.314 336.634,117.125 338.113,116.748 341.417 C 116.601 342.700,116.377 344.500,116.251 345.417 C 116.124 346.333,115.938 347.721,115.838 348.500 C 115.738 349.279,115.578 350.461,115.483 351.127 C 115.264 352.666,115.028 355.660,114.913 358.333 C 114.865 359.479,114.716 361.729,114.583 363.333 C 114.449 364.938,114.262 367.375,114.166 368.750 C 114.069 370.125,113.912 371.962,113.816 372.833 C 113.721 373.704,113.575 375.317,113.493 376.417 C 113.411 377.517,113.293 378.847,113.232 379.373 L 113.120 380.329 114.935 381.178 C 115.933 381.644,117.139 382.208,117.615 382.430 C 118.090 382.652,118.519 382.833,118.568 382.833 C 118.654 382.833,120.323 383.562,120.833 383.823 C 120.971 383.893,122.133 384.382,123.417 384.910 C 124.700 385.438,125.900 385.934,126.083 386.014 C 128.055 386.865,134.999 389.359,138.333 390.413 C 140.809 391.196,142.464 391.712,142.917 391.842 C 143.192 391.922,143.829 392.108,144.333 392.257 C 145.358 392.560,145.476 392.593,148.167 393.308 C 149.221 393.588,150.646 393.969,151.333 394.154 C 153.193 394.657,153.067 394.771,152.932 392.708 C 152.868 391.723,152.746 389.717,152.661 388.250 C 152.294 381.929,151.984 377.102,151.817 375.083 C 151.629 372.817,151.424 352.860,151.582 352.208 C 151.716 351.658,152.284 351.716,152.398 352.292 C 152.680 353.713,153.618 361.877,154.069 366.833 C 154.645 373.168,155.089 378.921,155.413 384.250 C 155.553 386.542,155.790 389.965,155.941 391.857 L 156.214 395.298 157.232 395.499 C 157.792 395.609,158.625 395.795,159.083 395.912 C 159.542 396.028,160.479 396.216,161.167 396.329 C 161.854 396.442,162.904 396.635,163.500 396.759 C 164.758 397.019,167.046 397.411,168.833 397.672 C 169.521 397.773,170.721 397.958,171.500 398.084 C 172.279 398.210,173.704 398.398,174.667 398.501 C 175.629 398.605,177.242 398.791,178.250 398.916 C 180.081 399.141,181.678 399.273,188.583 399.767 C 192.892 400.076,208.952 400.025,212.917 399.690 C 214.200 399.582,216.225 399.417,217.417 399.323 C 218.608 399.230,220.558 399.041,221.750 398.904 C 222.942 398.767,224.592 398.578,225.417 398.484 C 227.051 398.298,228.940 398.020,232.167 397.492 C 233.313 397.304,234.727 397.078,235.311 396.990 C 235.894 396.902,236.429 396.794,236.500 396.750 C 236.571 396.706,237.106 396.594,237.689 396.501 C 239.752 396.172,242.687 395.571,245.500 394.902 C 246.463 394.673,247.737 394.370,248.333 394.228 C 248.929 394.087,249.754 393.868,250.167 393.742 C 250.579 393.616,251.517 393.357,252.250 393.167 C 255.508 392.322,259.190 391.245,261.083 390.585 C 261.542 390.425,262.142 390.233,262.417 390.159 C 263.173 389.956,267.224 388.549,269.333 387.756 C 270.928 387.157,274.306 385.848,274.750 385.658 C 274.933 385.580,275.936 385.169,276.978 384.747 C 278.020 384.324,278.995 383.914,279.145 383.836 C 279.294 383.758,279.679 383.583,280.000 383.446 C 285.363 381.158,288.183 379.711,288.092 379.293 C 287.667 377.335,285.562 365.807,285.329 364.167 C 284.651 359.378,284.485 353.622,284.928 350.243 C 285.382 346.780,285.527 346.494,286.041 348.042 C 286.523 349.495,290.595 368.173,291.586 373.476 C 292.434 378.016,292.244 377.610,293.265 377.067 C 295.782 375.730,296.935 375.104,297.083 374.994 C 297.175 374.927,297.850 374.552,298.583 374.161 C 299.317 373.770,300.035 373.349,300.180 373.225 C 300.325 373.101,300.494 373.000,300.557 373.000 C 300.619 373.000,301.262 372.629,301.986 372.176 C 302.709 371.722,303.552 371.216,303.859 371.050 C 306.461 369.642,317.663 362.015,320.933 359.423 C 321.401 359.053,322.679 358.057,323.775 357.210 C 324.870 356.363,325.913 355.538,326.091 355.377 C 326.270 355.215,327.054 354.562,327.833 353.926 C 328.612 353.290,329.287 352.727,329.333 352.674 C 329.379 352.621,329.679 352.362,330.000 352.099 C 335.659 347.453,347.334 335.779,352.101 330.000 C 352.366 329.679,352.755 329.229,352.965 329.000 C 353.175 328.771,353.645 328.201,354.009 327.733 L 354.670 326.882 354.236 324.899 C 353.825 323.022,353.639 322.180,353.336 320.833 C 353.264 320.512,352.963 319.350,352.668 318.250 C 352.373 317.150,352.072 316.025,351.998 315.750 C 351.925 315.475,351.628 314.500,351.338 313.583 C 351.048 312.667,350.772 311.767,350.725 311.583 C 350.510 310.744,349.220 306.867,348.840 305.917 C 348.767 305.733,348.576 305.246,348.416 304.833 C 347.694 302.974,345.620 298.671,344.908 297.559 C 344.592 297.065,344.333 296.633,344.333 296.599 C 344.333 296.254,341.062 291.764,339.342 289.750 C 336.686 286.638,331.263 281.833,330.406 281.833 C 330.335 281.833,330.158 281.728,330.013 281.599 C 329.655 281.280,327.132 279.963,325.821 279.412 C 324.706 278.942,322.858 278.073,318.917 276.164 C 315.237 274.383,311.974 272.833,311.900 272.833 C 311.797 272.833,306.959 270.413,305.959 269.861 C 305.477 269.595,304.558 269.097,303.917 268.753 C 302.776 268.142,301.942 267.688,299.917 266.573 C 297.220 265.089,294.728 263.803,291.000 261.974 C 279.399 256.280,275.341 254.188,272.250 252.307 C 271.975 252.140,271.637 251.951,271.500 251.889 C 271.362 251.826,270.663 251.413,269.945 250.971 C 269.227 250.528,268.606 250.167,268.563 250.167 C 268.521 250.167,268.283 250.027,268.035 249.857 C 267.787 249.687,267.093 249.239,266.494 248.861 C 264.301 247.478,263.042 245.848,261.710 242.667 C 260.005 238.596,259.639 235.552,259.604 225.167 C 259.581 218.099,259.866 213.641,260.580 209.917 C 260.703 209.275,260.896 208.262,261.009 207.667 C 261.192 206.699,261.792 204.247,262.416 201.917 C 262.690 200.893,264.278 196.043,264.489 195.583 C 264.574 195.400,264.804 194.800,265.001 194.250 C 266.092 191.200,269.159 184.646,271.070 181.278 C 271.581 180.376,272.000 179.606,272.000 179.566 C 272.000 179.526,272.201 179.176,272.447 178.788 C 272.692 178.401,272.977 177.933,273.078 177.750 C 273.180 177.567,273.606 176.892,274.024 176.250 C 276.084 173.095,277.618 169.759,279.236 164.917 C 279.543 164.000,279.957 162.650,280.157 161.917 C 280.356 161.183,280.623 160.208,280.749 159.750 C 283.240 150.692,283.574 137.587,281.562 127.833 C 280.492 122.644,277.790 114.112,276.348 111.374 C 276.264 111.214,275.612 109.883,274.899 108.417 C 274.185 106.950,273.192 105.037,272.692 104.167 C 272.191 103.296,271.594 102.246,271.363 101.833 C 271.133 101.421,270.809 100.858,270.644 100.583 C 270.478 100.308,270.219 99.858,270.068 99.583 C 269.646 98.814,266.725 94.459,266.379 94.083 C 266.210 93.900,265.958 93.586,265.819 93.385 C 264.724 91.804,260.287 87.281,258.500 85.922 C 257.904 85.469,257.379 85.055,257.333 85.002 C 257.200 84.848,255.489 83.615,254.902 83.250 C 251.398 81.074,249.255 79.917,246.417 78.670 C 245.543 78.286,245.382 78.220,244.167 77.750 C 243.754 77.591,243.267 77.400,243.083 77.327 C 241.802 76.816,237.793 75.581,236.167 75.197 C 230.746 73.917,227.580 73.446,221.917 73.080 C 217.551 72.797,211.827 72.800,207.917 73.086 M231.187 172.597 C 234.469 175.521,225.743 182.091,220.574 180.588 C 218.316 179.931,217.647 178.024,219.368 177.151 C 219.762 176.951,221.164 176.156,222.485 175.383 C 227.765 172.294,230.032 171.568,231.187 172.597 M165.524 196.341 C 169.601 196.753,170.645 197.446,169.137 198.737 C 168.264 199.484,167.670 199.508,166.080 198.858 C 165.440 198.596,164.344 198.180,163.645 197.932 C 160.244 196.726,161.213 195.906,165.524 196.341 M182.667 286.747 C 184.751 286.911,186.817 287.163,188.833 287.499 C 189.887 287.674,191.650 287.893,192.750 287.985 C 196.449 288.296,200.990 290.335,204.208 293.132 C 204.847 293.687,204.099 294.978,203.254 294.778 C 201.884 294.452,200.501 294.023,199.000 293.458 C 197.331 292.829,191.248 291.206,184.417 289.566 C 182.675 289.148,180.968 288.734,180.624 288.646 C 179.030 288.239,179.378 286.327,181.000 286.583 C 181.229 286.620,181.979 286.693,182.667 286.747 M250.903 289.183 C 251.876 289.453,252.940 290.163,252.649 290.348 C 251.788 290.892,247.225 292.100,244.250 292.570 C 236.747 293.756,234.569 294.195,230.833 295.277 C 229.688 295.609,227.757 296.245,226.542 296.690 C 224.111 297.582,223.498 297.665,223.000 297.167 C 222.285 296.452,222.654 296.021,225.630 294.096 C 228.750 292.077,231.221 291.231,234.679 290.995 C 238.652 290.725,242.249 290.270,247.030 289.432 C 249.667 288.970,250.047 288.946,250.903 289.183 " stroke="none" fill="#3b241c" fill-rule="evenodd"></path><path id="path1" d="M161.829 196.422 C 161.489 196.832,162.192 197.416,163.645 197.932 C 164.344 198.180,165.440 198.596,166.080 198.858 C 167.944 199.619,169.833 199.068,169.833 197.762 C 169.833 196.750,162.567 195.533,161.829 196.422 M246.428 206.967 C 234.017 219.170,221.418 228.622,209.858 234.402 C 206.478 236.091,198.911 238.753,197.121 238.881 C 196.334 238.938,195.703 239.107,195.038 239.439 L 194.083 239.917 194.046 247.583 C 194.006 255.941,193.999 256.042,193.446 256.858 L 193.067 257.417 193.184 264.000 C 193.286 269.721,193.344 270.746,193.624 271.827 L 193.947 273.071 194.063 271.494 C 194.127 270.626,194.255 269.433,194.348 268.841 C 194.883 265.440,195.499 257.899,195.500 254.750 C 195.503 249.822,195.336 250.092,198.989 249.086 C 206.569 246.998,214.322 243.464,219.715 239.637 C 231.256 231.448,243.132 218.822,247.394 210.212 C 250.756 203.421,250.592 202.872,246.428 206.967 M180.207 286.670 C 179.181 287.088,179.447 288.345,180.624 288.646 C 180.968 288.734,182.675 289.148,184.417 289.566 C 191.248 291.206,197.331 292.829,199.000 293.458 C 200.501 294.023,201.884 294.452,203.254 294.778 C 204.099 294.978,204.847 293.687,204.208 293.132 C 200.990 290.335,196.449 288.296,192.750 287.985 C 191.650 287.893,189.887 287.674,188.833 287.499 C 186.817 287.163,184.751 286.911,182.667 286.747 C 181.979 286.693,181.229 286.620,181.000 286.583 C 180.771 286.547,180.414 286.586,180.207 286.670 M247.030 289.432 C 242.249 290.270,238.652 290.725,234.679 290.995 C 231.221 291.231,228.750 292.077,225.630 294.096 C 222.654 296.021,222.285 296.452,223.000 297.167 C 223.498 297.665,224.111 297.582,226.542 296.690 C 227.757 296.245,229.688 295.609,230.833 295.277 C 234.569 294.195,236.747 293.756,244.250 292.570 C 247.225 292.100,251.788 290.892,252.649 290.348 C 253.160 290.024,250.869 288.976,249.750 289.022 C 249.475 289.034,248.251 289.218,247.030 289.432 M285.422 347.180 C 283.798 351.516,284.476 360.380,287.743 377.496 C 287.961 378.640,288.111 379.622,288.076 379.679 C 288.013 379.781,291.268 378.175,291.917 377.784 C 292.100 377.674,292.271 377.574,292.298 377.564 C 292.407 377.518,290.766 369.159,289.601 363.833 C 285.851 346.683,285.754 346.296,285.422 347.180 M151.582 352.208 C 151.424 352.860,151.629 372.817,151.817 375.083 C 151.991 377.175,152.320 382.338,152.679 388.583 C 153.030 394.676,153.012 394.555,153.583 394.691 C 153.858 394.757,154.529 394.926,155.073 395.068 C 156.333 395.397,156.251 395.707,155.937 391.798 C 155.788 389.938,155.552 386.542,155.413 384.250 C 154.722 372.881,153.125 355.958,152.398 352.292 C 152.284 351.716,151.716 351.658,151.582 352.208 " stroke="none" fill="#040404" fill-rule="evenodd"></path><path id="path2" d="M228.000 172.562 C 226.587 173.070,225.408 173.673,222.485 175.383 C 221.164 176.156,219.762 176.951,219.368 177.151 C 217.647 178.024,218.316 179.931,220.574 180.588 C 222.646 181.190,227.055 180.044,229.049 178.384 C 233.275 174.865,232.565 170.924,228.000 172.562 " stroke="none" fill="#73433b" fill-rule="evenodd"></path></g></svg>