<svg id="svg" version="1.1" xmlns="http://www.w3.org/2000/svg" xmlns:xlink="http://www.w3.org/1999/xlink" viewBox="0, 0, 400,400"><g id="svgg"><path id="path0" d="M261.750 234.321 C 261.229 234.447,260.477 234.804,260.333 234.993 C 260.287 235.053,260.063 235.235,259.833 235.397 L 259.417 235.691 260.167 235.644 C 261.588 235.554,262.247 236.285,264.843 240.832 C 266.711 244.105,266.888 244.534,266.792 245.539 C 266.625 247.275,265.541 247.483,265.083 245.867 C 264.201 242.747,260.861 237.064,259.792 236.864 C 259.377 236.786,259.415 237.371,259.850 237.765 C 260.960 238.770,263.972 244.251,264.583 246.378 C 264.921 247.558,264.804 248.188,264.142 248.745 C 263.457 249.322,263.429 249.307,263.001 248.125 C 262.389 246.436,261.331 244.162,260.615 243.000 C 260.248 242.404,259.465 241.070,258.876 240.036 C 257.740 238.043,257.187 237.471,256.749 237.834 C 256.359 238.158,256.437 238.362,257.427 239.595 C 259.252 241.869,261.211 245.413,262.226 248.277 L 262.649 249.471 261.819 250.247 C 260.763 251.235,260.720 251.212,260.087 249.325 C 259.325 247.056,258.306 244.867,256.963 242.613 C 256.137 241.226,255.765 240.425,255.707 239.908 C 255.613 239.076,255.561 239.082,254.832 240.001 L 254.307 240.665 254.717 240.821 C 255.428 241.091,256.950 243.680,258.533 247.310 C 260.320 251.409,260.327 251.482,258.986 252.342 C 257.991 252.981,257.997 252.985,257.496 251.250 C 256.244 246.919,253.999 241.500,253.456 241.500 C 253.126 241.500,252.167 242.351,252.167 242.644 C 252.167 242.737,252.448 242.836,252.792 242.865 C 254.371 242.996,257.808 252.525,256.682 253.651 C 256.200 254.134,255.744 253.882,255.588 253.046 C 255.414 252.118,254.082 248.027,253.615 246.985 C 252.838 245.256,251.804 243.167,251.725 243.167 C 250.976 243.167,250.958 243.777,251.667 245.167 C 252.344 246.494,255.000 253.529,255.000 253.995 C 255.000 254.478,254.639 254.893,254.065 255.067 C 253.470 255.248,253.626 255.649,251.249 247.833 C 250.194 244.368,250.147 244.279,249.632 244.794 L 249.267 245.158 249.619 245.538 C 250.206 246.171,252.786 254.860,252.580 255.510 C 252.491 255.791,251.828 256.167,251.422 256.167 C 251.168 256.167,251.029 255.776,249.912 251.917 C 248.284 246.294,248.352 246.478,247.980 246.677 C 247.482 246.944,247.418 247.308,247.799 247.717 C 248.285 248.240,250.459 256.096,250.222 256.476 C 249.301 257.950,248.523 257.100,247.399 253.393 C 246.500 250.427,245.600 248.828,245.115 249.333 C 244.905 249.552,244.975 249.792,245.674 251.250 C 246.113 252.167,246.637 253.517,246.838 254.250 C 247.039 254.983,247.350 255.870,247.529 256.221 C 248.004 257.155,247.884 257.666,247.083 258.118 C 245.995 258.732,245.932 258.683,245.706 257.042 C 245.410 254.892,244.083 251.000,243.646 251.000 C 242.795 251.000,242.713 251.819,243.483 252.629 C 244.255 253.440,244.609 254.416,244.862 256.431 C 245.170 258.874,245.169 258.881,244.524 259.015 C 243.758 259.175,243.444 258.819,243.174 257.487 C 242.828 255.787,241.683 252.958,241.386 253.072 C 241.250 253.124,241.113 253.167,241.080 253.167 C 241.048 253.167,241.470 254.498,242.019 256.125 C 243.156 259.499,243.154 259.689,241.969 260.008 C 241.029 260.262,240.813 260.101,240.472 258.899 C 239.635 255.950,239.500 255.391,239.500 254.886 C 239.500 254.439,239.434 254.333,239.156 254.333 C 238.322 254.333,237.907 254.910,238.429 255.343 C 238.937 255.765,239.346 256.858,239.620 258.526 L 239.897 260.212 239.513 260.523 C 238.440 261.392,238.015 260.979,237.239 258.316 C 236.892 257.128,236.524 256.167,236.415 256.167 C 236.108 256.167,235.651 256.750,235.819 256.927 C 236.853 258.018,237.328 260.882,236.526 261.190 C 235.092 261.743,234.265 261.364,233.990 260.029 C 233.648 258.362,233.510 258.289,232.333 259.154 C 231.245 259.954,231.091 260.399,232.061 259.938 C 232.376 259.789,232.739 259.667,232.867 259.667 C 233.151 259.667,233.720 261.168,233.577 261.541 C 233.463 261.836,233.398 261.869,231.798 262.422 C 229.633 263.171,226.980 265.289,223.755 268.842 C 222.652 270.057,221.500 271.184,221.194 271.346 C 220.453 271.738,220.445 271.750,220.683 272.130 C 220.845 272.390,220.847 273.208,220.692 276.021 C 220.274 283.580,220.510 291.245,221.416 299.583 C 222.247 307.235,222.882 315.668,223.505 327.333 C 223.668 330.392,223.785 331.967,224.162 336.167 C 224.249 337.129,224.402 339.154,224.502 340.667 C 224.602 342.179,224.865 345.292,225.085 347.583 C 225.478 351.674,225.722 354.606,225.918 357.583 C 226.070 359.886,226.632 365.028,227.166 369.000 C 227.430 370.971,227.768 373.558,227.916 374.750 C 228.064 375.942,228.367 378.129,228.589 379.612 C 228.812 381.094,229.220 384.076,229.495 386.238 C 229.895 389.376,231.049 396.009,231.428 397.341 C 231.485 397.544,231.668 397.579,232.292 397.508 C 233.269 397.395,233.263 397.482,232.539 393.667 C 231.332 387.304,230.309 379.462,229.160 367.750 C 229.061 366.742,228.873 364.942,228.742 363.750 C 228.610 362.558,228.354 359.558,228.171 357.083 C 227.989 354.608,227.693 351.121,227.514 349.333 C 227.335 347.546,227.065 344.283,226.915 342.083 C 226.765 339.883,226.501 336.883,226.329 335.417 C 226.158 333.950,225.969 331.962,225.911 331.000 C 225.853 330.037,225.666 327.825,225.496 326.083 C 225.325 324.342,225.141 322.354,225.087 321.667 C 224.309 311.810,223.348 300.860,222.830 295.949 C 222.649 294.225,222.499 292.125,222.498 291.282 C 222.496 290.439,222.310 287.200,222.084 284.083 C 221.366 274.191,221.496 273.362,224.398 269.417 C 227.313 265.453,229.097 264.259,233.736 263.162 C 245.542 260.372,256.912 255.496,261.833 251.113 C 262.337 250.663,262.991 250.192,263.286 250.065 C 263.580 249.938,264.143 249.506,264.536 249.105 C 264.928 248.704,265.593 248.179,266.013 247.939 C 266.804 247.486,267.479 246.878,268.945 245.299 C 271.642 242.393,276.862 242.126,280.365 244.716 C 281.117 245.272,281.115 244.891,280.362 244.175 C 279.411 243.270,278.338 242.671,277.025 242.312 C 275.230 241.822,274.420 241.901,271.766 242.824 C 270.004 243.437,269.654 243.281,269.178 241.667 C 268.565 239.583,268.122 238.658,267.363 237.869 C 266.934 237.424,266.161 236.499,265.644 235.812 C 264.469 234.252,263.529 233.892,261.750 234.321 M263.793 235.090 C 266.595 237.053,269.758 245.167,267.720 245.167 C 267.463 245.167,267.182 244.539,267.047 243.667 C 266.882 242.598,264.282 238.017,263.059 236.639 C 262.255 235.733,262.209 235.581,262.609 235.138 C 262.946 234.766,263.309 234.751,263.793 235.090 M169.809 261.997 C 168.676 262.370,168.051 262.685,167.516 263.151 C 167.020 263.584,166.944 263.588,169.112 263.062 C 173.433 262.013,178.016 263.503,178.421 266.089 C 178.529 266.776,178.484 267.028,177.779 269.689 C 177.544 270.572,177.118 272.822,176.830 274.689 C 176.542 276.556,176.150 278.758,175.959 279.583 C 175.006 283.685,175.837 288.947,178.253 294.116 C 178.669 295.006,179.348 296.788,179.762 298.075 C 180.177 299.363,180.805 301.137,181.158 302.017 C 182.215 304.653,182.567 306.286,182.574 308.583 L 182.579 310.583 180.601 316.417 C 177.996 324.097,177.063 326.754,175.951 329.667 C 175.444 330.996,174.527 333.433,173.915 335.083 C 171.434 341.769,170.561 344.077,169.219 347.500 C 168.446 349.471,166.814 353.671,165.591 356.833 C 162.300 365.349,161.426 367.551,158.249 375.333 C 153.542 386.861,151.737 391.371,151.512 392.167 C 151.396 392.579,151.123 393.152,150.906 393.440 L 150.511 393.964 151.021 394.039 C 151.383 394.092,151.560 394.037,151.630 393.848 C 151.867 393.217,162.031 367.856,164.294 362.250 C 165.663 358.858,167.630 353.946,168.665 351.333 C 169.699 348.721,171.030 345.458,171.622 344.083 C 172.214 342.708,172.993 340.736,173.352 339.701 C 173.712 338.666,174.554 336.754,175.223 335.451 C 176.528 332.913,177.992 328.698,180.503 320.250 C 183.360 310.639,183.456 309.674,182.231 302.863 C 181.995 301.550,181.827 300.458,181.859 300.435 C 181.891 300.411,182.292 300.173,182.750 299.905 C 183.735 299.328,183.243 299.088,182.075 299.576 C 181.731 299.720,181.439 299.818,181.428 299.794 C 181.233 299.388,180.739 298.296,180.570 297.899 L 180.349 297.382 181.591 296.751 C 182.274 296.405,182.833 296.056,182.833 295.977 C 182.833 295.687,181.799 295.845,180.978 296.261 C 180.011 296.751,180.002 296.748,179.885 295.881 C 179.776 295.066,180.310 294.371,181.609 293.638 C 182.413 293.184,182.500 293.079,182.500 292.567 C 182.500 291.854,182.639 291.803,180.909 293.154 L 179.431 294.309 179.054 293.696 C 178.220 292.340,178.814 291.290,181.377 289.588 C 182.091 289.114,182.333 288.853,182.333 288.560 C 182.333 288.026,182.397 287.998,180.205 289.496 C 178.085 290.944,178.166 290.942,177.842 289.558 C 177.526 288.207,178.409 287.259,181.653 285.466 C 182.108 285.215,182.450 284.167,182.077 284.167 C 182.000 284.167,178.447 286.599,177.885 287.036 C 177.471 287.359,176.991 285.819,177.275 285.078 C 177.334 284.923,178.459 284.094,179.775 283.237 C 181.983 281.796,182.167 281.638,182.167 281.172 C 182.167 280.500,182.105 280.519,180.752 281.599 C 179.334 282.730,177.581 283.733,177.246 283.605 C 176.532 283.331,177.114 280.996,178.042 280.407 C 181.316 278.334,182.630 277.241,182.275 276.886 C 182.237 276.849,181.354 277.370,180.312 278.045 C 179.269 278.720,178.140 279.439,177.803 279.643 L 177.189 280.013 177.080 279.286 C 176.920 278.216,177.298 277.444,178.262 276.876 C 181.151 275.173,182.426 274.205,182.466 273.685 C 182.517 273.019,182.709 272.938,180.143 274.666 C 177.560 276.405,177.500 276.422,177.500 275.439 C 177.500 274.378,177.882 274.010,180.506 272.546 C 182.642 271.354,182.827 271.212,182.830 270.774 C 182.834 270.191,182.952 270.148,180.250 271.722 C 178.245 272.889,178.079 272.957,178.026 272.624 C 177.898 271.827,178.818 270.000,179.348 270.000 C 179.413 270.000,179.830 269.756,180.275 269.458 C 180.720 269.160,181.588 268.691,182.204 268.416 C 183.356 267.903,183.600 267.513,183.183 266.854 C 182.997 266.561,181.787 267.193,180.483 268.266 C 179.422 269.139,179.103 269.149,179.033 268.312 C 178.968 267.541,179.537 267.033,181.458 266.149 C 182.828 265.518,183.021 265.296,182.625 264.805 C 182.166 264.235,181.819 264.298,181.116 265.081 C 180.242 266.053,179.797 266.075,179.334 265.169 C 178.091 262.731,172.866 260.992,169.809 261.997 " stroke="none" fill="#929a9a" fill-rule="evenodd"></path><path id="path1" d="M264.165 234.398 C 264.592 234.555,265.080 235.047,266.001 236.251 C 267.559 238.288,267.939 238.471,266.835 236.654 C 266.376 235.897,266.000 235.180,266.000 235.060 C 266.000 234.759,265.230 234.399,264.333 234.282 L 263.583 234.183 264.165 234.398 M262.609 235.138 C 262.209 235.581,262.255 235.733,263.059 236.639 C 264.282 238.017,266.882 242.598,267.047 243.667 C 267.182 244.539,267.463 245.167,267.720 245.167 C 269.338 245.167,267.793 239.854,265.262 236.715 C 263.718 234.799,263.196 234.489,262.609 235.138 M260.067 235.654 C 258.856 235.852,256.937 237.558,257.489 237.944 C 257.667 238.069,258.294 239.014,258.881 240.044 C 259.468 241.074,260.248 242.404,260.615 243.000 C 261.331 244.162,262.389 246.436,263.001 248.125 C 263.429 249.307,263.457 249.322,264.142 248.745 C 264.804 248.188,264.921 247.558,264.583 246.378 C 263.972 244.251,260.960 238.770,259.850 237.765 C 259.415 237.371,259.377 236.786,259.792 236.864 C 260.861 237.064,264.201 242.747,265.083 245.867 C 265.541 247.483,266.625 247.275,266.792 245.539 C 266.888 244.534,266.711 244.105,264.843 240.832 C 262.820 237.289,261.250 235.234,260.784 235.521 C 260.765 235.532,260.442 235.592,260.067 235.654 M256.024 238.790 C 255.392 239.506,255.587 240.303,256.963 242.613 C 258.306 244.867,259.325 247.056,260.087 249.325 C 260.720 251.212,260.763 251.235,261.819 250.247 L 262.649 249.471 262.226 248.277 C 261.257 245.542,259.392 242.112,257.710 239.968 C 256.284 238.150,256.472 238.282,256.024 238.790 M254.035 241.039 C 253.703 241.371,253.704 241.374,254.790 243.811 C 255.826 246.135,256.760 248.703,257.496 251.250 C 257.997 252.985,257.991 252.981,258.986 252.342 C 260.327 251.482,260.320 251.409,258.533 247.310 C 256.291 242.168,254.877 240.197,254.035 241.039 M251.834 243.033 C 251.834 243.152,252.216 244.037,252.682 244.999 C 253.934 247.583,255.245 251.214,255.588 253.046 C 255.886 254.641,257.115 253.973,256.928 252.318 C 256.725 250.522,255.438 246.799,254.198 244.417 L 253.417 242.917 252.625 242.866 C 252.059 242.830,251.833 242.877,251.834 243.033 M273.443 242.997 C 271.850 243.285,268.833 244.806,268.833 245.321 C 268.833 245.601,266.848 247.459,266.076 247.902 C 265.622 248.162,264.928 248.704,264.536 249.105 C 264.143 249.506,263.580 249.938,263.286 250.065 C 262.991 250.192,262.337 250.663,261.833 251.113 C 256.912 255.496,245.542 260.372,233.736 263.162 C 229.097 264.259,227.313 265.453,224.398 269.417 C 221.496 273.362,221.366 274.191,222.084 284.083 C 222.310 287.200,222.496 290.439,222.498 291.282 C 222.499 292.125,222.649 294.225,222.830 295.949 C 223.348 300.860,224.309 311.810,225.087 321.667 C 225.141 322.354,225.325 324.342,225.496 326.083 C 225.666 327.825,225.853 330.037,225.911 331.000 C 225.969 331.962,226.158 333.950,226.329 335.417 C 226.501 336.883,226.765 339.883,226.915 342.083 C 227.065 344.283,227.335 347.546,227.514 349.333 C 227.693 351.121,227.989 354.608,228.171 357.083 C 228.354 359.558,228.610 362.558,228.742 363.750 C 228.873 364.942,229.061 366.742,229.160 367.750 C 230.313 379.503,231.342 387.383,232.543 393.667 C 232.832 395.179,233.072 396.650,233.076 396.935 C 233.083 397.431,233.104 397.447,233.583 397.306 C 233.858 397.226,234.533 397.089,235.083 397.003 C 235.633 396.916,236.721 396.722,237.500 396.571 C 238.279 396.420,239.217 396.240,239.583 396.171 C 241.228 395.861,244.463 395.166,244.917 395.025 C 245.192 394.939,245.867 394.776,246.417 394.663 C 246.967 394.549,248.092 394.275,248.917 394.052 C 249.742 393.830,250.717 393.580,251.083 393.498 C 251.450 393.415,252.162 393.230,252.667 393.085 C 253.171 392.941,254.108 392.682,254.750 392.510 C 255.392 392.338,256.142 392.124,256.417 392.035 C 256.692 391.945,257.217 391.788,257.583 391.685 C 258.774 391.351,262.572 390.147,263.000 389.968 C 263.229 389.872,263.867 389.657,264.417 389.490 C 264.967 389.323,266.054 388.952,266.833 388.667 C 267.612 388.381,268.438 388.082,268.667 388.002 C 268.896 387.922,270.096 387.469,271.333 386.994 C 272.571 386.519,274.036 385.962,274.589 385.754 C 275.142 385.547,276.012 385.180,276.522 384.939 C 277.032 384.697,277.502 384.500,277.568 384.500 C 277.634 384.500,278.076 384.324,278.552 384.109 C 279.028 383.894,279.979 383.471,280.667 383.169 C 284.683 381.404,289.557 379.045,293.250 377.080 C 294.167 376.593,295.179 376.061,295.500 375.898 C 295.821 375.736,296.346 375.441,296.667 375.243 C 296.987 375.046,297.850 374.563,298.583 374.172 C 299.317 373.780,300.029 373.369,300.167 373.258 C 300.304 373.147,300.679 372.929,301.000 372.773 C 301.694 372.437,302.218 372.124,302.333 371.977 C 302.379 371.918,302.717 371.708,303.083 371.510 C 303.894 371.072,304.264 370.851,304.915 370.417 C 305.190 370.233,305.678 369.943,305.999 369.771 C 306.321 369.599,306.621 369.408,306.667 369.347 C 306.712 369.285,307.462 368.791,308.333 368.248 C 309.204 367.705,309.942 367.202,309.972 367.131 C 310.003 367.059,310.096 367.000,310.179 367.000 C 310.262 367.000,310.837 366.656,311.457 366.235 C 314.182 364.385,320.063 360.156,320.268 359.898 C 320.370 359.771,320.501 359.667,320.558 359.667 C 320.616 359.667,320.795 359.559,320.956 359.427 C 321.118 359.295,322.337 358.338,323.667 357.301 C 325.846 355.601,326.452 355.115,327.061 354.583 C 327.166 354.492,327.702 354.043,328.251 353.587 C 328.801 353.131,329.287 352.717,329.333 352.668 C 329.379 352.619,329.829 352.245,330.333 351.836 C 330.837 351.428,331.444 350.904,331.681 350.672 C 331.918 350.440,332.331 350.069,332.598 349.847 C 334.599 348.187,338.208 344.756,342.225 340.694 C 346.475 336.397,346.931 335.916,349.250 333.269 C 349.800 332.641,350.400 331.968,350.583 331.772 C 350.767 331.577,351.292 330.967,351.750 330.417 C 352.208 329.867,352.623 329.379,352.670 329.333 C 352.777 329.231,354.322 327.382,354.667 326.944 C 354.804 326.769,355.032 326.504,355.173 326.355 C 355.314 326.205,355.649 325.783,355.918 325.417 C 356.186 325.050,356.579 324.563,356.791 324.333 C 358.151 322.858,358.154 322.835,357.423 319.583 C 357.299 319.033,357.066 317.983,356.905 317.250 C 356.270 314.359,355.026 310.123,354.401 308.725 C 354.272 308.436,354.167 308.084,354.167 307.943 C 354.167 307.802,354.097 307.644,354.013 307.591 C 353.928 307.539,353.806 307.256,353.742 306.962 C 353.677 306.668,353.567 306.313,353.496 306.172 C 353.425 306.032,353.238 305.579,353.080 305.167 C 352.629 303.987,352.481 303.619,352.242 303.083 C 352.119 302.808,351.904 302.246,351.765 301.833 C 350.900 299.280,349.014 295.230,347.468 292.609 C 346.935 291.707,346.500 290.935,346.500 290.894 C 346.500 290.853,346.360 290.617,346.189 290.368 C 345.623 289.548,343.918 286.919,343.853 286.768 C 343.818 286.687,343.691 286.499,343.570 286.352 C 343.448 286.204,342.882 285.446,342.311 284.667 C 341.740 283.887,341.227 283.212,341.172 283.167 C 341.116 283.121,340.706 282.615,340.261 282.042 C 339.815 281.469,339.387 281.000,339.309 281.000 C 339.231 281.000,339.167 280.921,339.167 280.823 C 339.167 280.581,334.435 275.833,334.193 275.833 C 334.087 275.833,334.000 275.758,334.000 275.666 C 334.000 275.574,333.531 275.154,332.958 274.733 C 332.385 274.311,331.879 273.912,331.833 273.846 C 331.787 273.779,331.506 273.583,331.208 273.410 C 330.910 273.237,330.667 273.036,330.667 272.964 C 330.667 272.892,330.587 272.833,330.489 272.833 C 330.391 272.833,330.065 272.646,329.765 272.417 C 329.464 272.188,329.132 272.000,329.026 272.000 C 328.920 272.000,328.833 271.937,328.833 271.860 C 328.833 271.783,328.665 271.635,328.458 271.530 C 328.252 271.425,327.408 270.961,326.583 270.499 C 323.555 268.803,319.359 266.834,317.333 266.158 C 315.324 265.488,313.700 264.889,312.558 264.394 C 312.269 264.269,311.917 264.167,311.776 264.167 C 311.635 264.167,311.479 264.100,311.429 264.019 C 311.378 263.938,311.130 263.833,310.877 263.785 C 310.624 263.738,309.779 263.463,309.000 263.175 C 308.221 262.887,307.171 262.509,306.667 262.336 C 306.162 262.163,305.112 261.785,304.333 261.496 C 303.554 261.208,302.692 260.907,302.417 260.828 C 301.659 260.610,299.823 260.004,299.167 259.756 C 298.846 259.635,298.246 259.444,297.833 259.332 C 297.421 259.220,296.896 259.062,296.667 258.981 C 296.438 258.900,295.650 258.679,294.917 258.490 C 292.405 257.842,289.500 256.665,289.500 256.295 C 289.500 256.225,289.400 256.167,289.278 256.167 C 289.156 256.167,288.956 255.979,288.833 255.750 C 288.711 255.521,288.550 255.333,288.475 255.333 C 288.401 255.333,288.186 255.052,287.999 254.708 C 287.811 254.365,287.515 253.858,287.341 253.583 C 287.167 253.308,287.019 252.992,287.012 252.880 C 286.998 252.651,285.985 251.114,285.792 251.028 C 285.723 250.997,285.667 250.898,285.667 250.808 C 285.667 250.649,284.965 249.644,284.542 249.196 C 284.427 249.075,284.332 248.925,284.331 248.863 C 284.329 248.801,284.095 248.487,283.811 248.167 C 283.526 247.846,282.838 247.035,282.282 246.364 C 281.726 245.694,281.041 245.035,280.760 244.900 C 280.480 244.765,279.875 244.435,279.417 244.166 C 277.635 243.120,275.296 242.662,273.443 242.997 M250.610 244.020 L 250.150 244.417 250.417 245.167 C 250.564 245.579,251.248 247.792,251.937 250.083 C 252.625 252.375,253.281 254.438,253.394 254.667 C 253.769 255.431,255.000 254.916,255.000 253.995 C 255.000 253.527,252.341 246.489,251.664 245.162 C 251.454 244.752,251.235 244.238,251.176 244.020 L 251.070 243.623 250.610 244.020 M248.858 245.892 L 248.312 246.454 249.498 250.519 C 251.337 256.823,251.137 256.401,252.072 255.975 C 252.728 255.676,252.717 255.424,251.913 252.410 C 250.171 245.873,249.749 244.972,248.858 245.892 M246.468 248.130 C 245.333 249.071,245.366 248.903,246.090 250.105 C 246.414 250.643,246.943 251.946,247.264 253.000 C 248.501 257.057,249.284 257.977,250.222 256.476 C 250.471 256.076,248.285 248.227,247.780 247.713 L 247.417 247.342 246.468 248.130 M244.202 250.249 L 243.653 250.818 244.085 251.671 C 244.758 252.998,245.484 255.397,245.706 257.022 C 245.932 258.685,245.993 258.734,247.083 258.118 C 247.883 257.666,248.003 257.155,247.530 256.221 C 247.352 255.870,247.051 255.015,246.862 254.320 C 246.524 253.084,245.040 249.660,244.847 249.673 C 244.794 249.677,244.503 249.936,244.202 250.249 M242.148 252.364 L 241.547 252.871 242.121 254.227 C 242.437 254.973,242.872 256.294,243.088 257.162 C 243.523 258.906,243.738 259.179,244.544 259.011 C 245.166 258.882,245.168 258.862,244.862 256.431 C 244.605 254.384,244.259 253.447,243.442 252.586 L 242.750 251.857 242.148 252.364 M240.314 253.638 C 240.096 253.806,239.797 253.987,239.651 254.040 C 239.300 254.167,239.488 255.665,240.106 257.667 C 240.346 258.446,240.594 259.265,240.656 259.488 C 240.826 260.094,241.157 260.227,241.959 260.011 C 243.150 259.690,243.155 259.522,242.057 256.236 C 241.056 253.238,240.981 253.126,240.314 253.638 M237.375 255.525 C 236.523 256.119,236.530 255.926,237.263 258.400 C 238.028 260.984,238.451 261.383,239.513 260.523 L 239.897 260.212 239.620 258.526 C 239.143 255.618,238.491 254.747,237.375 255.525 M234.583 257.679 C 234.033 258.140,233.613 258.606,233.648 258.716 C 233.684 258.827,233.820 259.367,233.950 259.917 C 234.248 261.170,234.461 261.390,235.366 261.374 C 237.238 261.341,237.478 260.751,236.539 258.490 C 235.762 256.616,235.823 256.642,234.583 257.679 M231.833 260.012 C 231.421 260.196,230.971 260.417,230.833 260.503 C 230.696 260.590,229.870 261.108,228.999 261.655 C 227.110 262.840,225.536 264.414,224.738 265.914 C 224.640 266.099,224.322 266.675,224.032 267.195 C 223.742 267.715,223.331 268.465,223.119 268.862 C 222.907 269.259,222.597 269.790,222.431 270.042 C 221.858 270.909,222.303 270.496,223.997 268.587 C 226.398 265.880,229.722 263.127,231.167 262.649 C 233.728 261.800,233.831 261.698,233.390 260.470 C 233.063 259.563,232.932 259.524,231.833 260.012 M171.250 262.622 C 170.413 262.727,167.105 263.530,166.750 263.715 C 166.438 263.877,164.684 265.141,164.500 265.337 C 164.454 265.385,164.079 265.681,163.667 265.994 C 162.428 266.932,160.167 269.307,160.167 269.669 C 160.167 269.759,160.105 269.833,160.030 269.833 C 159.897 269.833,159.593 270.392,158.842 272.015 C 158.408 272.954,157.044 274.510,156.206 275.024 C 155.863 275.234,155.508 275.467,155.417 275.541 C 155.325 275.615,154.537 276.141,153.667 276.710 C 152.796 277.280,152.008 277.804,151.917 277.876 C 151.825 277.948,151.262 278.324,150.667 278.712 C 150.071 279.099,149.558 279.473,149.528 279.542 C 149.497 279.610,149.414 279.667,149.343 279.667 C 149.271 279.667,148.644 280.042,147.949 280.500 C 147.254 280.958,146.647 281.333,146.600 281.333 C 146.553 281.333,146.247 281.515,145.921 281.737 C 145.594 281.958,143.639 282.990,141.577 284.028 C 139.514 285.067,137.697 285.993,137.538 286.086 C 137.380 286.178,136.762 286.538,136.167 286.884 C 134.656 287.762,134.486 287.867,133.886 288.291 C 133.594 288.498,133.315 288.667,133.266 288.667 C 133.127 288.667,131.590 289.735,131.528 289.875 C 131.497 289.944,131.404 290.000,131.321 290.000 C 130.902 290.000,126.782 293.188,125.445 294.545 C 124.366 295.642,122.418 298.413,121.704 299.867 C 120.353 302.618,119.500 304.504,119.500 304.740 C 119.500 304.872,119.436 305.020,119.358 305.068 C 119.280 305.116,119.086 305.514,118.927 305.953 C 118.656 306.703,118.299 307.547,117.975 308.206 C 117.897 308.365,117.833 308.631,117.833 308.798 C 117.833 308.964,117.764 309.171,117.678 309.258 C 117.593 309.345,117.328 309.979,117.090 310.667 C 116.377 312.727,115.237 316.199,115.010 317.000 C 114.894 317.412,114.723 317.938,114.631 318.167 C 114.471 318.566,113.806 320.945,113.513 322.167 C 113.385 322.703,113.010 324.183,112.415 326.500 C 112.285 327.004,112.095 327.829,111.992 328.333 C 111.889 328.837,111.704 329.662,111.581 330.167 C 111.458 330.671,111.268 331.533,111.158 332.083 C 111.049 332.633,110.864 333.496,110.746 334.000 C 110.454 335.257,110.054 337.067,109.827 338.167 C 109.723 338.671,109.537 339.496,109.414 340.000 C 109.291 340.504,109.105 341.367,109.000 341.917 C 108.895 342.467,108.708 343.329,108.583 343.833 C 108.459 344.337,108.271 345.200,108.167 345.750 C 108.062 346.300,107.876 347.162,107.753 347.667 C 107.484 348.772,107.097 350.556,106.832 351.917 C 106.725 352.467,106.538 353.404,106.417 354.000 C 106.295 354.596,106.111 355.533,106.007 356.083 C 105.903 356.633,105.714 357.571,105.587 358.167 C 105.460 358.762,105.270 359.738,105.164 360.333 C 104.987 361.333,104.850 362.032,104.247 365.000 C 104.126 365.596,103.939 366.646,103.831 367.333 C 103.722 368.021,103.534 369.108,103.412 369.750 C 103.201 370.862,102.953 372.516,102.748 374.183 L 102.654 374.950 103.784 375.517 C 104.405 375.828,104.989 376.144,105.082 376.219 C 105.371 376.453,113.710 380.645,115.750 381.582 C 118.516 382.853,118.825 382.990,120.083 383.502 C 120.358 383.614,120.696 383.772,120.833 383.854 C 120.971 383.935,121.196 384.046,121.333 384.100 C 121.471 384.153,121.733 384.258,121.917 384.333 C 126.575 386.240,128.121 386.846,131.167 387.955 C 134.322 389.104,134.347 389.113,136.667 389.858 C 137.813 390.226,139.012 390.625,139.333 390.745 C 139.654 390.865,140.367 391.095,140.917 391.255 C 141.467 391.416,142.104 391.604,142.333 391.675 C 142.753 391.803,145.036 392.469,146.583 392.915 C 147.042 393.046,147.936 393.276,148.570 393.425 C 149.204 393.574,149.896 393.762,150.107 393.842 C 150.588 394.025,151.191 393.307,151.512 392.167 C 151.737 391.371,153.542 386.861,158.249 375.333 C 161.426 367.551,162.300 365.349,165.591 356.833 C 166.814 353.671,168.446 349.471,169.219 347.500 C 170.561 344.077,171.434 341.769,173.915 335.083 C 174.527 333.433,175.444 330.996,175.951 329.667 C 177.063 326.754,177.996 324.097,180.601 316.417 L 182.579 310.583 182.574 308.583 C 182.567 306.286,182.215 304.653,181.158 302.017 C 180.805 301.137,180.177 299.363,179.762 298.075 C 179.348 296.788,178.669 295.006,178.253 294.116 C 175.837 288.947,175.006 283.685,175.959 279.583 C 176.150 278.758,176.542 276.556,176.830 274.689 C 177.118 272.822,177.544 270.572,177.779 269.689 C 178.484 267.028,178.529 266.776,178.421 266.089 C 178.124 264.188,174.135 262.260,171.250 262.622 M179.964 264.524 L 179.178 264.871 179.426 265.352 C 179.793 266.061,180.307 265.981,181.108 265.090 C 182.008 264.089,181.510 263.842,179.964 264.524 M181.417 266.161 C 179.533 267.037,178.969 267.546,179.033 268.312 C 179.103 269.152,179.422 269.139,180.500 268.252 C 181.004 267.837,181.807 267.293,182.285 267.043 C 183.054 266.640,183.142 266.540,183.055 266.169 C 182.900 265.507,182.825 265.506,181.417 266.161 M181.534 268.736 C 180.774 269.135,180.018 269.583,179.855 269.731 C 179.691 269.879,179.483 270.000,179.393 270.000 C 178.824 270.000,177.891 271.789,178.026 272.623 C 178.079 272.952,178.276 272.869,180.500 271.581 L 182.917 270.182 183.109 269.382 C 183.507 267.730,183.474 267.717,181.534 268.736 M180.417 272.578 C 177.869 274.029,177.500 274.390,177.500 275.426 C 177.500 276.419,177.536 276.409,180.166 274.649 L 182.435 273.132 182.599 272.232 C 182.690 271.738,182.723 271.336,182.674 271.339 C 182.624 271.342,181.609 271.900,180.417 272.578 M219.917 271.897 C 219.131 272.325,218.025 272.778,214.583 274.081 C 213.942 274.324,213.092 274.649,212.696 274.803 C 209.826 275.919,209.432 277.852,210.096 287.583 C 210.274 290.199,210.340 293.111,210.304 296.750 C 210.137 313.304,210.323 323.782,210.924 331.667 C 211.505 339.303,211.648 340.699,212.246 344.583 C 212.372 345.408,212.563 346.758,212.669 347.583 C 212.775 348.408,212.964 349.646,213.088 350.333 C 213.212 351.021,213.396 352.146,213.495 352.833 C 213.595 353.521,213.782 354.721,213.911 355.500 C 214.039 356.279,214.222 357.442,214.317 358.083 C 214.412 358.725,214.600 359.962,214.736 360.833 C 215.211 363.878,215.491 365.760,215.667 367.083 C 215.764 367.817,215.951 369.129,216.082 370.000 C 216.213 370.871,216.402 372.258,216.502 373.083 C 216.602 373.908,216.796 375.408,216.934 376.417 C 217.071 377.425,217.252 378.813,217.336 379.500 C 218.190 386.492,218.604 389.476,219.092 392.167 C 219.234 392.946,219.426 394.033,219.520 394.583 C 219.615 395.133,219.795 396.033,219.922 396.583 C 220.049 397.133,220.198 397.869,220.252 398.217 C 220.380 399.028,220.555 399.083,222.304 398.860 C 223.099 398.758,224.500 398.593,225.417 398.493 C 226.333 398.392,227.721 398.206,228.500 398.078 C 229.279 397.951,230.276 397.801,230.716 397.745 C 231.361 397.663,231.500 397.590,231.435 397.364 C 231.055 396.039,229.899 389.408,229.495 386.238 C 229.220 384.076,228.812 381.094,228.589 379.612 C 228.367 378.129,228.064 375.942,227.916 374.750 C 227.768 373.558,227.430 370.971,227.166 369.000 C 226.632 365.028,226.070 359.886,225.918 357.583 C 225.722 354.606,225.478 351.674,225.085 347.583 C 224.865 345.292,224.602 342.179,224.502 340.667 C 224.402 339.154,224.249 337.129,224.162 336.167 C 223.785 331.967,223.668 330.392,223.505 327.333 C 222.882 315.668,222.247 307.235,221.416 299.583 C 220.510 291.245,220.274 283.580,220.692 276.021 C 220.844 273.257,220.844 272.388,220.689 272.140 C 220.579 271.964,220.533 271.748,220.588 271.660 C 220.709 271.463,220.726 271.457,219.917 271.897 M180.561 275.396 C 179.724 275.958,178.688 276.624,178.260 276.876 C 177.300 277.444,176.920 278.218,177.079 279.282 L 177.188 280.006 177.822 279.628 C 178.170 279.420,179.328 278.688,180.394 278.000 L 182.333 276.750 182.333 275.542 C 182.333 274.112,182.462 274.122,180.561 275.396 M180.464 278.809 C 179.574 279.418,178.545 280.099,178.177 280.322 C 177.137 280.954,176.470 283.307,177.246 283.605 C 177.573 283.730,179.331 282.734,180.666 281.667 C 181.256 281.195,181.839 280.754,181.960 280.686 C 182.123 280.595,182.168 280.186,182.132 279.131 L 182.083 277.701 180.464 278.809 M179.834 283.177 C 176.987 285.052,176.755 285.388,177.422 286.677 L 177.677 287.170 179.380 285.984 C 180.317 285.331,181.326 284.637,181.623 284.440 C 182.080 284.138,182.554 281.535,182.125 281.681 C 182.102 281.689,181.071 282.362,179.834 283.177 M181.500 285.558 C 178.240 287.421,177.525 288.202,177.842 289.558 C 178.165 290.937,178.078 290.941,180.290 289.452 L 182.323 288.083 182.316 286.917 C 182.307 285.270,182.230 285.141,181.500 285.558 M182.333 288.810 C 182.333 288.888,181.903 289.239,181.377 289.588 C 178.815 291.289,178.220 292.340,179.053 293.694 L 179.429 294.305 180.964 293.114 L 182.500 291.922 182.500 290.294 C 182.500 289.399,182.463 288.667,182.417 288.667 C 182.371 288.667,182.333 288.731,182.333 288.810 M181.565 293.658 C 180.299 294.384,179.777 295.075,179.885 295.881 C 180.002 296.748,180.011 296.751,180.978 296.261 C 181.799 295.845,182.833 295.687,182.833 295.977 C 182.833 296.056,182.274 296.405,181.591 296.751 L 180.349 297.382 180.570 297.899 C 180.739 298.296,181.233 299.388,181.428 299.794 C 181.439 299.818,181.720 299.724,182.052 299.586 C 182.384 299.447,182.842 299.333,183.070 299.333 C 183.541 299.333,183.543 298.888,183.081 296.333 C 182.957 295.646,182.808 294.652,182.749 294.125 C 182.625 293.010,182.667 293.026,181.565 293.658 M182.747 299.930 C 182.382 300.151,182.018 300.354,181.938 300.381 C 181.858 300.408,181.988 301.515,182.227 302.840 C 183.457 309.677,183.362 310.633,180.503 320.250 C 177.992 328.698,176.528 332.913,175.223 335.451 C 174.554 336.754,173.712 338.666,173.352 339.701 C 172.993 340.736,172.214 342.708,171.622 344.083 C 171.030 345.458,169.699 348.721,168.665 351.333 C 167.630 353.946,165.663 358.858,164.294 362.250 C 159.272 374.688,151.667 393.732,151.626 393.970 C 151.580 394.236,151.867 394.348,153.417 394.670 C 153.967 394.784,154.792 394.972,155.250 395.087 C 155.708 395.202,156.533 395.385,157.083 395.495 C 157.633 395.604,158.496 395.791,159.000 395.911 C 159.504 396.031,160.479 396.221,161.167 396.335 C 161.854 396.448,162.824 396.640,163.321 396.762 C 164.339 397.012,164.426 396.990,164.546 396.461 C 164.593 396.253,164.942 395.221,165.321 394.167 C 165.701 393.113,166.264 391.537,166.573 390.667 C 166.882 389.796,167.374 388.446,167.666 387.667 C 167.958 386.887,168.237 386.080,168.285 385.873 C 168.334 385.665,168.439 385.454,168.520 385.404 C 168.601 385.354,168.667 385.147,168.667 384.944 C 168.667 384.741,168.768 384.426,168.891 384.245 C 169.014 384.065,169.159 383.767,169.213 383.583 C 169.326 383.198,170.092 381.108,170.740 379.417 C 170.986 378.775,171.325 377.837,171.492 377.333 C 171.660 376.829,171.872 376.229,171.964 376.000 C 172.127 375.592,172.583 374.411,172.833 373.750 C 172.902 373.567,173.050 373.192,173.162 372.917 C 173.273 372.642,173.475 372.079,173.610 371.667 C 173.745 371.254,173.956 370.692,174.078 370.417 C 174.200 370.142,174.416 369.579,174.558 369.167 C 174.700 368.754,174.975 368.004,175.169 367.500 C 175.363 366.996,175.665 366.148,175.840 365.615 C 176.016 365.083,176.216 364.558,176.286 364.449 C 176.405 364.263,176.726 363.391,177.403 361.417 C 177.560 360.958,177.787 360.358,177.906 360.083 C 178.026 359.808,178.326 359.021,178.574 358.333 C 178.822 357.646,179.128 356.821,179.254 356.500 C 179.380 356.179,179.797 355.054,180.181 354.000 C 180.564 352.946,181.022 351.708,181.198 351.250 C 181.373 350.792,181.631 350.079,181.770 349.667 C 181.909 349.254,182.122 348.692,182.245 348.417 C 182.367 348.142,182.580 347.579,182.718 347.167 C 182.856 346.754,183.045 346.229,183.138 346.000 C 183.231 345.771,183.580 344.833,183.915 343.917 C 184.592 342.062,184.935 341.172,185.273 340.391 C 185.398 340.103,185.500 339.751,185.500 339.610 C 185.500 339.468,185.575 339.307,185.667 339.250 C 185.758 339.193,185.833 338.979,185.833 338.773 C 185.833 338.568,185.906 338.327,185.995 338.239 C 186.083 338.150,186.304 337.629,186.485 337.080 C 187.143 335.085,187.763 333.402,188.273 332.225 C 188.398 331.936,188.500 331.584,188.500 331.443 C 188.500 331.302,188.575 331.140,188.667 331.083 C 188.758 331.027,188.836 330.816,188.839 330.615 C 188.842 330.414,188.954 330.104,189.089 329.926 C 189.223 329.749,189.333 329.466,189.333 329.299 C 189.333 329.132,189.404 328.865,189.491 328.706 C 189.578 328.547,189.846 327.892,190.088 327.250 C 190.330 326.608,190.720 325.596,190.956 325.000 C 192.499 321.107,192.317 315.878,190.586 314.358 C 190.039 313.878,186.761 312.210,185.667 311.856 C 185.346 311.752,184.877 311.490,184.625 311.273 L 184.167 310.878 184.162 308.147 C 184.160 306.645,184.085 304.704,183.996 303.833 C 183.907 302.962,183.785 301.666,183.725 300.953 C 183.596 299.416,183.596 299.416,182.747 299.930 " stroke="none" fill-rule="evenodd"></path></g></svg>