<svg id="svg" version="1.1" xmlns="http://www.w3.org/2000/svg" xmlns:xlink="http://www.w3.org/1999/xlink" viewBox="0, 0, 400,400"><g id="svgg"><path id="path0" d="M190.833 0.083 C 190.696 0.114,189.233 0.223,187.583 0.325 C 183.264 0.590,180.520 0.817,178.333 1.088 C 177.279 1.219,176.079 1.359,175.667 1.399 C 172.960 1.664,169.883 2.125,164.833 3.022 C 163.779 3.209,162.542 3.427,162.083 3.506 C 160.556 3.770,159.597 3.963,158.000 4.327 C 157.129 4.526,156.267 4.715,156.083 4.747 C 155.617 4.829,153.844 5.241,152.167 5.657 C 150.868 5.979,149.868 6.243,146.333 7.195 C 144.492 7.691,142.818 8.184,142.250 8.396 C 141.975 8.499,141.675 8.589,141.583 8.597 C 141.212 8.627,139.406 9.214,139.258 9.352 C 139.171 9.433,138.979 9.500,138.831 9.500 C 138.682 9.500,137.554 9.842,136.322 10.260 C 135.091 10.677,133.858 11.080,133.583 11.154 C 133.308 11.228,132.821 11.405,132.500 11.548 C 131.582 11.956,129.265 12.835,129.109 12.834 C 129.031 12.834,128.731 12.939,128.442 13.068 C 128.153 13.196,127.542 13.434,127.083 13.596 C 126.625 13.758,126.175 13.944,126.083 14.008 C 125.992 14.073,125.729 14.182,125.500 14.251 C 125.271 14.320,124.783 14.509,124.417 14.671 C 124.050 14.833,123.155 15.206,122.428 15.500 C 121.701 15.794,120.989 16.097,120.845 16.174 C 120.405 16.407,118.693 17.167,118.605 17.167 C 118.524 17.167,117.073 17.811,115.333 18.620 C 113.876 19.298,107.008 22.742,106.000 23.301 C 105.496 23.581,104.596 24.058,104.000 24.363 C 103.404 24.667,102.879 24.963,102.833 25.019 C 102.787 25.076,102.412 25.292,102.000 25.501 C 101.146 25.933,96.981 28.382,96.298 28.854 C 96.050 29.026,95.804 29.167,95.751 29.167 C 95.699 29.167,95.115 29.516,94.453 29.944 C 93.791 30.371,92.912 30.928,92.500 31.182 C 92.087 31.435,91.619 31.760,91.458 31.904 C 91.298 32.049,91.110 32.167,91.042 32.167 C 90.973 32.167,90.485 32.467,89.957 32.834 C 89.429 33.200,88.922 33.500,88.832 33.500 C 88.741 33.500,88.667 33.573,88.667 33.662 C 88.667 33.752,88.423 33.950,88.125 34.102 C 87.466 34.440,83.606 37.183,83.527 37.369 C 83.497 37.442,83.403 37.460,83.319 37.408 C 83.235 37.356,83.167 37.393,83.167 37.490 C 83.167 37.587,83.060 37.667,82.931 37.667 C 82.801 37.667,82.669 37.723,82.639 37.792 C 82.569 37.949,81.305 38.941,80.375 39.568 C 79.985 39.830,79.667 40.110,79.667 40.189 C 79.667 40.269,79.584 40.333,79.482 40.333 C 79.381 40.333,79.062 40.522,78.774 40.753 C 78.486 40.983,78.175 41.228,78.083 41.297 C 77.531 41.712,76.841 42.248,76.333 42.659 C 76.012 42.919,75.112 43.643,74.333 44.268 C 73.554 44.893,72.826 45.482,72.714 45.577 C 72.603 45.672,72.380 45.862,72.220 46.000 C 72.059 46.137,71.626 46.502,71.256 46.810 C 69.995 47.860,69.054 48.661,68.639 49.039 C 68.411 49.247,67.672 49.904,66.995 50.500 C 66.319 51.096,65.563 51.771,65.315 52.000 C 65.067 52.229,64.092 53.129,63.148 54.000 C 59.972 56.930,55.189 61.791,52.083 65.243 C 51.350 66.059,50.506 66.977,50.208 67.285 C 49.910 67.593,49.667 67.884,49.667 67.932 C 49.667 67.980,49.373 68.334,49.013 68.718 C 48.164 69.626,47.800 70.047,46.859 71.208 C 46.432 71.734,46.023 72.166,45.948 72.166 C 45.874 72.166,45.860 72.242,45.917 72.333 C 45.973 72.425,45.951 72.500,45.868 72.500 C 45.785 72.500,45.387 72.920,44.983 73.434 C 44.580 73.948,44.172 74.455,44.077 74.559 C 43.982 74.664,43.687 75.050,43.420 75.417 C 43.154 75.783,42.853 76.158,42.753 76.250 C 42.652 76.342,42.348 76.715,42.077 77.080 C 41.805 77.445,41.040 78.444,40.375 79.299 C 39.710 80.155,39.167 80.907,39.167 80.971 C 39.167 81.034,38.976 81.292,38.743 81.544 C 38.510 81.795,37.897 82.618,37.380 83.373 C 36.863 84.128,36.375 84.821,36.296 84.914 C 35.956 85.313,34.333 87.645,34.333 87.734 C 34.333 87.788,33.958 88.358,33.500 89.000 C 33.042 89.642,32.667 90.208,32.667 90.258 C 32.667 90.307,32.587 90.438,32.490 90.549 C 32.392 90.659,31.930 91.350,31.463 92.083 C 30.996 92.817,30.288 93.920,29.890 94.536 C 29.492 95.152,29.167 95.703,29.167 95.761 C 29.167 95.818,28.998 96.100,28.792 96.387 C 28.357 96.993,28.079 97.447,27.856 97.917 C 27.769 98.100,27.280 98.925,26.770 99.750 C 26.260 100.575,25.690 101.550,25.503 101.917 C 25.316 102.283,24.953 102.958,24.696 103.417 C 23.365 105.790,22.597 107.265,20.788 110.917 C 19.698 113.117,18.741 115.067,18.660 115.250 C 18.579 115.433,18.129 116.408,17.658 117.417 C 17.188 118.425,16.665 119.597,16.496 120.021 C 16.326 120.445,16.042 121.120,15.863 121.521 C 15.684 121.922,15.222 123.037,14.836 124.000 C 14.450 124.962,14.069 125.900,13.988 126.083 C 13.771 126.573,13.471 127.417,13.513 127.417 C 13.533 127.417,13.388 127.732,13.191 128.118 C 12.994 128.504,12.833 128.940,12.833 129.087 C 12.833 129.234,12.655 129.743,12.438 130.219 C 11.909 131.375,11.040 133.811,9.931 137.250 C 9.428 138.808,8.931 140.308,8.827 140.583 C 8.723 140.858,8.575 141.308,8.500 141.583 C 8.424 141.858,8.236 142.533,8.083 143.083 C 7.929 143.633,7.786 144.158,7.764 144.250 C 7.742 144.342,7.565 144.942,7.369 145.583 C 6.983 146.848,5.287 153.499,5.074 154.583 C 5.002 154.950,4.931 155.287,4.916 155.333 C 4.843 155.562,4.624 156.507,4.472 157.250 C 4.378 157.708,4.204 158.496,4.086 159.000 C 3.968 159.504,3.780 160.479,3.668 161.167 C 3.555 161.854,3.399 162.642,3.319 162.917 C 3.240 163.192,3.135 163.754,3.087 164.167 C 3.039 164.579,2.927 165.292,2.839 165.750 C 2.750 166.208,2.632 166.919,2.575 167.330 C 2.519 167.740,2.441 168.127,2.403 168.189 C 2.364 168.251,2.292 168.703,2.241 169.193 C 2.190 169.683,2.042 170.668,1.910 171.382 C 1.779 172.096,1.686 172.733,1.705 172.798 C 1.735 172.907,1.620 173.865,1.154 177.378 C 1.059 178.090,0.951 179.140,0.912 179.711 C 0.874 180.283,0.769 181.463,0.679 182.333 C -0.169 190.540,-0.171 209.740,0.676 217.583 C 0.765 218.408,0.867 219.571,0.902 220.167 C 0.938 220.762,1.046 221.850,1.142 222.583 C 1.238 223.317,1.400 224.629,1.502 225.500 C 1.705 227.233,2.086 229.850,2.363 231.417 C 2.461 231.967,2.572 232.679,2.610 233.000 C 2.648 233.321,2.756 233.927,2.850 234.347 C 2.943 234.767,3.049 235.367,3.084 235.680 C 3.119 235.994,3.192 236.438,3.247 236.667 C 3.302 236.896,3.415 237.458,3.498 237.917 C 3.664 238.831,4.014 240.653,4.076 240.917 C 4.275 241.775,4.499 242.851,4.737 244.098 C 4.774 244.290,4.881 244.740,4.976 245.098 C 5.121 245.648,5.326 246.495,6.099 249.750 C 6.512 251.491,8.290 257.819,8.675 258.917 C 8.771 259.192,9.007 259.904,9.199 260.500 C 10.194 263.590,11.436 267.243,11.917 268.500 C 12.215 269.279,12.740 270.667,13.083 271.583 C 13.920 273.817,15.470 277.650,15.747 278.167 C 15.869 278.396,15.979 278.639,15.990 278.706 C 16.024 278.917,16.782 280.652,17.755 282.750 C 18.053 283.392,18.461 284.292,18.662 284.750 C 19.116 285.787,22.956 293.452,23.588 294.583 C 23.844 295.042,24.276 295.829,24.547 296.333 C 25.110 297.378,25.479 298.027,27.000 300.652 C 27.596 301.680,28.215 302.722,28.377 302.969 C 28.538 303.215,28.716 303.548,28.771 303.708 C 28.827 303.869,28.938 304.000,29.019 304.000 C 29.100 304.000,29.167 304.074,29.167 304.164 C 29.167 304.313,30.055 305.850,30.372 306.250 C 30.655 306.606,31.343 307.701,31.605 308.213 C 31.756 308.508,31.927 308.787,31.985 308.833 C 32.043 308.879,32.426 309.442,32.836 310.083 C 33.246 310.725,33.639 311.325,33.709 311.417 C 33.780 311.508,34.357 312.333,34.991 313.250 C 35.625 314.167,36.224 315.007,36.322 315.118 C 36.420 315.229,36.500 315.363,36.500 315.417 C 36.500 315.470,36.574 315.605,36.664 315.715 C 37.437 316.664,37.667 316.988,37.667 317.135 C 37.667 317.229,37.723 317.331,37.792 317.361 C 37.860 317.392,38.398 318.054,38.985 318.833 C 39.573 319.612,40.117 320.275,40.194 320.306 C 40.270 320.336,40.333 320.435,40.333 320.525 C 40.333 320.675,42.280 323.272,42.791 323.806 C 42.909 323.929,43.208 324.304,43.456 324.639 C 43.848 325.171,45.772 327.562,46.249 328.110 C 47.431 329.471,48.317 330.507,49.051 331.391 C 49.344 331.743,49.846 332.315,50.167 332.663 C 50.487 333.010,51.350 333.956,52.083 334.764 C 54.546 337.480,55.569 338.550,58.512 341.490 C 61.418 344.394,64.998 347.798,66.265 348.862 C 67.176 349.628,68.144 350.497,68.693 351.042 C 68.947 351.294,69.233 351.500,69.328 351.500 C 69.422 351.500,69.500 351.564,69.500 351.642 C 69.500 351.720,69.931 352.126,70.458 352.543 C 70.985 352.960,71.567 353.442,71.750 353.614 C 71.933 353.786,72.644 354.374,73.330 354.921 C 75.032 356.281,75.342 356.537,75.695 356.875 C 75.863 357.035,76.071 357.167,76.158 357.167 C 76.245 357.167,76.377 357.263,76.450 357.381 C 76.523 357.498,76.996 357.890,77.500 358.250 C 78.004 358.611,78.454 358.952,78.500 359.008 C 78.546 359.064,79.483 359.776,80.583 360.591 C 81.683 361.405,82.638 362.149,82.706 362.244 C 82.784 362.354,82.831 362.356,82.836 362.250 C 82.840 362.158,82.935 362.202,83.047 362.348 C 83.159 362.493,83.587 362.824,84.000 363.083 C 84.412 363.343,85.132 363.842,85.598 364.194 C 86.065 364.546,86.534 364.833,86.640 364.833 C 86.746 364.833,86.833 364.890,86.834 364.958 C 86.834 365.027,87.227 365.346,87.707 365.667 C 88.187 365.988,88.656 366.311,88.748 366.386 C 88.902 366.511,90.348 367.446,93.167 369.245 C 94.238 369.929,95.310 370.593,95.864 370.917 C 96.021 371.008,96.945 371.556,97.917 372.133 C 100.166 373.469,100.513 373.667,102.833 374.941 C 103.888 375.520,104.862 376.066,105.000 376.153 C 105.682 376.586,110.861 379.229,114.446 380.973 C 115.195 381.338,115.851 381.593,115.904 381.540 C 115.957 381.488,116.000 381.532,116.000 381.639 C 116.000 381.746,116.094 381.834,116.208 381.834 C 116.323 381.835,116.642 381.954,116.917 382.100 C 117.192 382.245,117.764 382.503,118.188 382.671 C 119.034 383.009,120.440 383.621,120.833 383.822 C 120.971 383.893,122.133 384.383,123.417 384.913 C 124.700 385.442,125.975 385.971,126.250 386.088 C 126.525 386.204,127.912 386.726,129.333 387.248 C 130.754 387.769,132.067 388.258,132.250 388.336 C 132.644 388.502,134.510 389.169,134.750 389.229 C 134.842 389.253,136.454 389.771,138.333 390.383 C 140.212 390.994,142.050 391.579,142.417 391.683 C 142.783 391.787,143.283 391.945,143.528 392.034 C 143.772 392.123,144.222 392.257,144.528 392.333 C 144.833 392.409,145.533 392.594,146.083 392.743 C 148.589 393.425,150.401 393.897,152.250 394.349 C 153.350 394.619,154.534 394.916,154.882 395.012 C 155.230 395.107,155.717 395.214,155.965 395.250 C 156.771 395.367,158.397 395.703,159.250 395.929 C 159.708 396.050,160.608 396.235,161.250 396.341 C 161.892 396.446,162.867 396.633,163.417 396.755 C 164.545 397.007,166.746 397.390,167.250 397.422 C 167.433 397.433,168.146 397.536,168.833 397.649 C 171.310 398.058,173.113 398.318,174.750 398.502 C 175.667 398.605,176.979 398.757,177.667 398.841 C 180.174 399.145,182.296 399.326,188.500 399.764 C 192.899 400.075,208.938 400.026,212.917 399.690 C 214.200 399.582,216.225 399.417,217.417 399.324 C 219.409 399.169,222.003 398.893,225.167 398.498 C 225.854 398.412,226.792 398.301,227.250 398.251 C 227.708 398.202,228.496 398.092,229.000 398.008 C 229.504 397.923,230.667 397.733,231.583 397.586 C 232.500 397.438,233.662 397.249,234.167 397.165 C 235.959 396.867,239.779 396.130,241.667 395.718 C 242.721 395.489,243.771 395.267,244.000 395.225 C 244.696 395.100,249.194 394.017,250.083 393.762 C 250.542 393.630,251.404 393.400,252.000 393.252 C 252.596 393.103,253.271 392.919,253.500 392.843 C 253.729 392.767,254.929 392.424,256.167 392.082 C 257.404 391.739,259.374 391.133,260.543 390.735 C 261.713 390.336,262.705 390.001,262.748 389.991 C 263.329 389.843,263.785 389.696,265.379 389.141 C 266.408 388.783,267.325 388.472,267.417 388.449 C 267.646 388.394,268.641 388.009,269.275 387.730 C 269.564 387.604,269.869 387.500,269.953 387.500 C 270.176 387.500,274.931 385.631,276.833 384.796 C 277.246 384.615,277.733 384.409,277.917 384.339 C 278.100 384.269,278.587 384.058,279.000 383.871 C 279.412 383.683,280.200 383.342,280.750 383.113 C 284.872 381.398,294.578 376.516,298.250 374.311 C 298.525 374.146,299.050 373.854,299.417 373.662 C 300.390 373.152,300.768 372.928,301.039 372.703 C 301.172 372.593,301.330 372.552,301.390 372.613 C 301.451 372.673,301.500 372.633,301.500 372.524 C 301.500 372.414,301.669 372.255,301.875 372.170 C 302.471 371.924,309.791 367.422,310.000 367.173 C 310.046 367.118,310.871 366.556,311.833 365.924 C 313.504 364.827,317.658 361.888,317.833 361.678 C 317.879 361.624,318.345 361.288,318.869 360.933 C 319.392 360.578,319.956 360.166,320.121 360.018 C 320.286 359.871,321.171 359.190,322.086 358.506 C 323.548 357.413,326.099 355.406,326.333 355.164 C 326.379 355.116,327.054 354.558,327.833 353.924 C 328.612 353.289,329.287 352.728,329.333 352.676 C 329.379 352.625,329.941 352.133,330.583 351.583 C 331.224 351.033,331.974 350.383,332.249 350.138 C 332.525 349.892,332.938 349.530,333.167 349.333 C 336.597 346.375,346.415 336.557,349.333 333.167 C 349.531 332.938,349.892 332.523,350.138 332.246 C 350.383 331.969,351.032 331.219,351.581 330.579 C 352.130 329.940,352.622 329.379,352.674 329.333 C 352.727 329.287,353.289 328.612,353.924 327.833 C 354.558 327.054,355.118 326.379,355.168 326.333 C 355.218 326.287,355.518 325.912,355.835 325.500 C 356.152 325.087,356.505 324.652,356.620 324.533 C 356.734 324.413,357.485 323.438,358.288 322.366 C 359.091 321.294,359.798 320.379,359.858 320.333 C 360.064 320.177,364.414 314.089,365.574 312.333 C 366.210 311.371,366.791 310.558,366.865 310.528 C 366.939 310.497,367.000 310.372,367.000 310.250 C 367.000 310.128,367.062 310.003,367.139 309.972 C 367.215 309.942,368.364 308.154,369.691 306.000 C 373.250 300.228,373.149 300.395,373.662 299.417 C 373.854 299.050,374.146 298.525,374.311 298.250 C 375.113 296.916,376.844 293.722,377.925 291.583 C 378.342 290.758,378.749 289.971,378.830 289.833 C 378.911 289.696,379.254 288.983,379.592 288.250 C 379.930 287.517,380.269 286.804,380.345 286.667 C 380.928 285.616,383.216 280.640,383.412 279.999 C 383.481 279.770,383.673 279.321,383.838 279.000 C 384.134 278.423,384.347 277.906,384.422 277.583 C 384.444 277.492,384.654 277.004,384.889 276.500 C 385.125 275.996,385.478 275.171,385.674 274.667 C 385.870 274.162,386.206 273.300,386.421 272.750 C 387.615 269.694,388.788 266.450,389.524 264.167 C 389.982 262.746,390.493 261.208,390.660 260.750 C 390.827 260.292,391.127 259.354,391.328 258.667 C 391.529 257.979,391.827 256.967,391.991 256.417 C 392.409 255.012,392.605 254.311,393.083 252.500 C 393.313 251.629,393.573 250.654,393.661 250.333 C 393.749 250.012,393.829 249.695,393.838 249.628 C 393.848 249.561,393.995 249.017,394.166 248.420 C 394.337 247.822,394.446 247.333,394.409 247.333 C 394.372 247.333,394.420 247.127,394.517 246.875 C 394.613 246.623,394.718 246.211,394.750 245.960 C 394.782 245.709,394.918 245.109,395.051 244.627 C 395.185 244.145,395.383 243.262,395.493 242.667 C 395.602 242.071,395.793 241.133,395.917 240.583 C 396.152 239.542,396.326 238.664,396.738 236.417 C 396.873 235.683,397.068 234.633,397.170 234.083 C 397.273 233.533,397.378 232.896,397.404 232.667 C 397.453 232.221,397.747 230.370,398.023 228.772 C 398.115 228.234,398.258 227.184,398.340 226.438 C 398.514 224.862,398.597 224.138,398.916 221.417 C 399.168 219.269,399.350 217.007,399.768 210.833 C 400.075 206.302,400.025 191.634,399.689 187.583 C 399.582 186.300,399.416 184.200,399.318 182.917 C 399.092 179.949,399.035 179.346,398.842 177.917 C 398.755 177.275,398.641 176.338,398.589 175.833 C 398.320 173.232,398.351 173.458,397.659 169.083 C 397.572 168.533,397.455 167.708,397.399 167.250 C 397.343 166.792,397.267 166.365,397.229 166.302 C 397.191 166.239,397.086 165.677,396.995 165.052 C 396.904 164.428,396.718 163.354,396.581 162.667 C 396.443 161.979,396.261 161.042,396.175 160.583 C 396.089 160.125,395.863 159.037,395.672 158.167 C 395.482 157.296,395.295 156.433,395.256 156.250 C 394.760 153.915,394.210 151.674,393.413 148.750 C 393.263 148.200,393.115 147.637,393.083 147.500 C 393.052 147.362,392.902 146.800,392.749 146.250 C 392.596 145.700,392.409 145.000,392.333 144.694 C 392.257 144.388,392.123 143.938,392.034 143.694 C 391.945 143.450,391.751 142.837,391.602 142.333 C 391.453 141.829,391.063 140.592,390.737 139.583 C 390.410 138.575,390.118 137.637,390.089 137.500 C 389.952 136.863,388.621 133.066,388.486 132.925 C 388.402 132.838,388.332 132.650,388.331 132.508 C 388.330 132.278,387.868 131.004,386.425 127.250 C 386.179 126.608,385.636 125.258,385.220 124.250 C 384.803 123.242,384.402 122.267,384.328 122.083 C 384.254 121.900,384.000 121.323,383.763 120.802 C 383.527 120.281,383.333 119.808,383.333 119.751 C 383.333 119.694,383.111 119.201,382.840 118.654 C 382.569 118.107,382.345 117.623,382.342 117.579 C 382.340 117.534,382.153 117.132,381.926 116.686 C 381.700 116.239,381.551 115.838,381.595 115.794 C 381.639 115.750,381.560 115.619,381.421 115.503 C 381.281 115.387,381.167 115.204,381.167 115.096 C 381.167 114.988,380.647 113.872,380.011 112.616 C 379.375 111.361,378.897 110.333,378.948 110.333 C 378.999 110.333,378.963 110.240,378.868 110.125 C 378.773 110.010,378.231 109.017,377.663 107.917 C 376.217 105.114,374.900 102.707,374.224 101.628 C 374.009 101.286,373.833 100.969,373.833 100.923 C 373.833 100.877,373.533 100.349,373.167 99.750 C 372.800 99.151,372.500 98.629,372.500 98.590 C 372.500 98.552,372.049 97.784,371.497 96.885 C 370.946 95.986,370.426 95.138,370.343 95.000 C 369.628 93.823,368.086 91.400,368.009 91.333 C 367.957 91.287,367.766 90.969,367.586 90.625 C 367.405 90.281,367.200 90.000,367.129 90.000 C 367.058 90.000,367.000 89.902,367.000 89.781 C 367.000 89.661,366.866 89.417,366.703 89.240 C 366.539 89.062,366.003 88.317,365.511 87.583 C 364.380 85.898,363.966 85.293,363.798 85.083 C 363.725 84.992,363.131 84.167,362.478 83.250 C 361.825 82.333,361.225 81.558,361.145 81.528 C 361.065 81.497,361.000 81.370,361.000 81.244 C 361.000 81.119,360.869 80.943,360.708 80.853 C 360.548 80.764,360.427 80.629,360.439 80.553 C 360.452 80.478,360.249 80.154,359.988 79.833 C 359.727 79.512,359.005 78.568,358.382 77.734 C 357.759 76.900,356.974 75.888,356.636 75.484 C 356.298 75.080,355.447 74.037,354.744 73.167 C 354.040 72.296,353.192 71.283,352.858 70.915 C 352.523 70.548,351.877 69.798,351.420 69.249 C 350.964 68.699,350.539 68.212,350.476 68.165 C 350.413 68.119,350.140 67.803,349.870 67.463 C 348.456 65.684,337.507 54.480,335.583 52.844 C 335.217 52.532,334.465 51.858,333.913 51.347 C 332.332 49.882,329.370 47.318,327.934 46.171 C 327.649 45.944,326.592 45.076,325.583 44.243 C 324.575 43.410,323.000 42.171,322.083 41.489 C 321.167 40.808,320.269 40.116,320.088 39.953 C 319.907 39.790,319.345 39.377,318.839 39.036 C 318.333 38.696,317.814 38.318,317.686 38.197 C 317.558 38.076,317.258 37.851,317.018 37.697 C 316.779 37.543,316.126 37.077,315.568 36.662 C 315.009 36.247,313.547 35.235,312.318 34.412 C 311.089 33.590,310.046 32.875,310.000 32.825 C 309.954 32.774,308.904 32.106,307.667 31.341 C 306.429 30.575,305.004 29.679,304.500 29.351 C 303.996 29.022,303.321 28.612,303.000 28.439 C 302.679 28.266,302.379 28.078,302.333 28.021 C 302.287 27.964,301.987 27.782,301.667 27.618 C 300.911 27.231,300.424 26.947,300.143 26.727 C 300.018 26.630,299.354 26.247,298.667 25.877 C 297.979 25.507,296.967 24.949,296.417 24.638 C 295.867 24.326,295.154 23.938,294.833 23.775 C 294.512 23.612,293.612 23.140,292.833 22.727 C 290.045 21.249,285.561 19.020,285.167 18.917 C 285.121 18.905,284.483 18.612,283.750 18.267 C 282.307 17.586,281.443 17.193,280.208 16.655 C 279.773 16.465,279.285 16.239,279.124 16.152 C 278.962 16.066,278.250 15.768,277.540 15.490 C 276.831 15.212,275.987 14.870,275.667 14.731 C 274.768 14.340,274.505 14.233,273.250 13.746 C 272.608 13.497,271.746 13.159,271.333 12.994 C 270.921 12.830,270.133 12.545,269.583 12.360 C 269.033 12.175,268.358 11.932,268.083 11.820 C 267.808 11.707,267.508 11.592,267.417 11.563 C 267.325 11.535,266.275 11.167,265.083 10.747 C 263.892 10.326,262.767 9.950,262.583 9.910 C 262.400 9.870,261.744 9.654,261.125 9.428 C 260.506 9.202,260.000 9.053,260.000 9.096 C 260.000 9.140,259.793 9.068,259.540 8.937 C 259.287 8.806,258.855 8.658,258.581 8.608 C 258.307 8.559,257.183 8.249,256.083 7.920 C 254.083 7.323,252.836 6.969,251.583 6.645 C 251.217 6.550,250.542 6.370,250.083 6.246 C 249.625 6.121,248.800 5.907,248.250 5.770 C 247.254 5.521,247.027 5.467,244.333 4.844 C 242.873 4.505,240.567 4.020,239.833 3.896 C 239.193 3.787,237.700 3.496,236.500 3.246 C 235.904 3.121,234.892 2.937,234.250 2.836 C 233.608 2.736,232.633 2.573,232.083 2.475 C 231.533 2.377,230.783 2.268,230.417 2.233 C 230.050 2.198,229.375 2.096,228.917 2.007 C 228.458 1.918,227.783 1.809,227.417 1.766 C 227.050 1.723,226.112 1.610,225.333 1.514 C 222.072 1.111,219.454 0.834,217.417 0.676 C 216.225 0.583,214.200 0.418,212.917 0.309 C 210.828 0.132,191.486 -0.066,190.833 0.083 " stroke="none" fill="#C9E2B7" fill-rule="evenodd"></path></g></svg>