<svg id="svg" version="1.1" xmlns="http://www.w3.org/2000/svg" xmlns:xlink="http://www.w3.org/1999/xlink" viewBox="0, 0, 400,400"><g id="svgg"><path id="path0" d="M200.045 299.958 L 26.674 300.000 26.875 300.458 C 26.986 300.710,27.117 300.954,27.167 301.000 C 27.216 301.046,27.622 301.721,28.068 302.500 C 28.515 303.279,28.944 303.942,29.023 303.972 C 29.102 304.003,29.167 304.097,29.167 304.182 C 29.167 304.390,31.027 307.402,31.198 307.472 C 31.273 307.503,31.333 307.593,31.333 307.672 C 31.333 307.794,33.200 310.722,33.616 311.254 C 33.690 311.348,34.383 312.360,35.156 313.504 C 35.930 314.648,36.611 315.621,36.669 315.667 C 36.727 315.712,36.917 315.994,37.090 316.292 C 37.263 316.590,37.464 316.833,37.536 316.833 C 37.608 316.833,37.667 316.946,37.667 317.083 C 37.667 317.221,37.737 317.333,37.822 317.333 C 37.908 317.333,38.019 317.465,38.070 317.625 C 38.121 317.785,38.333 318.104,38.541 318.333 C 38.749 318.563,39.442 319.462,40.081 320.333 C 40.720 321.204,41.287 321.954,41.341 322.000 C 41.395 322.046,41.771 322.533,42.178 323.083 C 42.584 323.633,42.999 324.158,43.100 324.250 C 43.201 324.342,43.501 324.717,43.766 325.083 C 44.031 325.450,44.291 325.787,44.344 325.833 C 44.397 325.879,44.775 326.329,45.184 326.833 C 46.228 328.122,46.546 328.502,46.841 328.812 C 46.983 328.961,47.432 329.496,47.840 330.000 C 48.247 330.504,48.769 331.115,48.999 331.357 C 49.229 331.599,49.630 332.049,49.891 332.357 C 53.823 336.998,63.767 346.924,67.893 350.328 C 68.063 350.468,68.401 350.771,68.643 351.001 C 68.885 351.231,69.496 351.753,70.000 352.160 C 70.504 352.568,71.039 353.017,71.188 353.159 C 71.337 353.301,71.602 353.529,71.777 353.667 C 72.306 354.082,74.078 355.569,74.167 355.672 C 74.212 355.724,74.550 355.989,74.917 356.259 C 75.594 356.758,77.135 357.967,77.760 358.489 C 77.949 358.647,78.549 359.102,79.093 359.500 C 81.570 361.313,82.587 362.089,82.639 362.207 C 82.669 362.276,82.801 362.333,82.931 362.333 C 83.060 362.333,83.167 362.397,83.167 362.474 C 83.167 362.551,83.429 362.756,83.750 362.928 C 84.071 363.101,84.333 363.284,84.333 363.335 C 84.333 363.386,84.577 363.571,84.875 363.746 C 85.173 363.921,86.056 364.525,86.837 365.088 C 87.618 365.652,88.331 366.144,88.420 366.182 C 88.510 366.219,89.333 366.745,90.250 367.350 C 92.905 369.103,94.704 370.252,95.333 370.597 C 95.654 370.773,95.954 370.965,96.000 371.023 C 96.046 371.082,96.383 371.294,96.750 371.493 C 97.117 371.693,97.642 372.000,97.917 372.176 C 98.192 372.352,98.529 372.550,98.667 372.615 C 98.896 372.723,101.918 374.465,102.500 374.823 C 102.638 374.908,103.237 375.226,103.832 375.530 C 104.427 375.835,104.989 376.144,105.082 376.219 C 105.381 376.461,113.659 380.623,115.583 381.499 C 118.107 382.648,119.399 383.223,120.083 383.502 C 120.358 383.614,120.696 383.761,120.833 383.828 C 122.025 384.412,128.094 386.836,131.167 387.955 C 134.322 389.104,134.347 389.113,136.667 389.858 C 137.813 390.226,139.012 390.624,139.333 390.742 C 139.869 390.938,141.035 391.295,142.500 391.711 C 142.821 391.803,143.346 391.973,143.667 392.091 C 143.987 392.208,144.625 392.393,145.083 392.502 C 145.542 392.610,146.254 392.802,146.667 392.928 C 147.079 393.055,147.867 393.266,148.417 393.398 C 148.967 393.531,150.467 393.905,151.750 394.230 C 154.167 394.842,155.596 395.179,157.167 395.509 C 157.671 395.615,158.533 395.802,159.083 395.925 C 159.633 396.048,160.571 396.231,161.167 396.332 C 161.762 396.434,162.775 396.620,163.417 396.746 C 165.192 397.094,167.287 397.459,168.583 397.646 C 169.225 397.738,170.462 397.926,171.333 398.062 C 172.204 398.199,173.704 398.395,174.667 398.499 C 175.629 398.603,177.242 398.792,178.250 398.919 C 180.039 399.145,181.011 399.225,188.583 399.767 C 192.892 400.076,208.952 400.025,212.917 399.690 C 214.200 399.582,216.225 399.417,217.417 399.324 C 218.608 399.232,220.558 399.043,221.750 398.906 C 222.942 398.769,224.629 398.578,225.500 398.483 C 226.371 398.388,227.721 398.207,228.500 398.081 C 229.279 397.955,230.517 397.766,231.250 397.662 C 232.705 397.454,234.509 397.142,236.583 396.739 C 237.317 396.596,238.329 396.403,238.833 396.309 C 239.338 396.216,240.050 396.074,240.417 395.995 C 240.783 395.916,241.683 395.732,242.417 395.586 C 244.369 395.197,249.831 393.886,250.403 393.669 C 250.594 393.597,251.162 393.448,251.667 393.340 C 252.171 393.231,252.921 393.040,253.333 392.916 C 253.746 392.791,254.421 392.600,254.833 392.490 C 255.246 392.380,255.883 392.195,256.250 392.079 C 256.617 391.963,257.217 391.785,257.583 391.683 C 257.950 391.582,258.850 391.305,259.583 391.068 C 260.317 390.830,261.367 390.498,261.917 390.329 C 263.237 389.924,267.240 388.559,268.083 388.226 C 268.965 387.878,269.589 387.644,271.583 386.913 C 272.500 386.577,273.475 386.201,273.750 386.077 C 274.025 385.954,274.850 385.616,275.583 385.326 C 276.317 385.036,276.988 384.732,277.075 384.650 C 277.162 384.567,277.335 384.500,277.460 384.500 C 277.585 384.500,278.114 384.305,278.635 384.067 C 279.157 383.829,279.979 383.454,280.463 383.234 C 280.947 383.014,281.376 382.833,281.418 382.833 C 281.497 382.833,282.935 382.170,285.833 380.797 C 288.179 379.685,294.400 376.537,295.000 376.159 C 295.336 375.946,297.133 374.949,298.667 374.124 C 299.354 373.754,300.035 373.349,300.180 373.225 C 300.325 373.101,300.494 373.000,300.557 373.000 C 300.649 373.000,302.639 371.822,303.667 371.159 C 303.804 371.070,304.029 370.949,304.167 370.888 C 304.304 370.828,304.641 370.623,304.916 370.431 C 305.191 370.240,305.678 369.943,305.999 369.771 C 306.321 369.599,306.621 369.408,306.667 369.347 C 306.712 369.285,307.462 368.792,308.333 368.250 C 309.204 367.708,309.954 367.221,310.000 367.168 C 310.046 367.114,310.721 366.665,311.500 366.169 C 312.279 365.674,312.992 365.207,313.083 365.133 C 313.175 365.058,314.822 363.870,316.744 362.492 C 318.666 361.114,320.279 359.931,320.328 359.863 C 320.377 359.795,320.829 359.444,321.333 359.083 C 322.360 358.348,326.423 355.159,327.066 354.583 C 327.168 354.492,327.702 354.043,328.251 353.587 C 328.801 353.131,329.287 352.717,329.333 352.668 C 329.379 352.619,329.828 352.242,330.332 351.831 C 330.835 351.420,331.397 350.932,331.582 350.747 C 331.766 350.562,332.217 350.157,332.583 349.847 C 336.136 346.841,344.056 339.051,347.833 334.847 C 348.521 334.081,349.271 333.250,349.500 332.998 C 349.729 332.747,350.097 332.325,350.318 332.062 C 350.539 331.799,350.989 331.279,351.318 330.908 C 352.225 329.884,352.652 329.379,353.919 327.833 C 354.558 327.054,355.161 326.342,355.258 326.250 C 355.356 326.158,355.652 325.783,355.917 325.417 C 356.182 325.050,356.441 324.712,356.492 324.667 C 356.677 324.501,358.444 322.228,359.084 321.333 C 359.444 320.829,359.795 320.376,359.864 320.327 C 359.971 320.250,364.703 313.711,365.166 313.000 C 365.256 312.862,365.649 312.277,366.040 311.699 C 366.430 311.121,366.863 310.472,367.000 310.256 C 367.137 310.041,367.697 309.164,368.242 308.307 C 368.788 307.451,369.281 306.712,369.338 306.667 C 369.395 306.621,369.493 306.471,369.556 306.333 C 369.619 306.196,369.820 305.858,370.004 305.583 C 370.187 305.308,370.383 304.952,370.438 304.792 C 370.494 304.631,370.605 304.500,370.686 304.500 C 370.767 304.500,370.833 304.424,370.833 304.332 C 370.833 304.239,371.321 303.374,371.917 302.410 C 372.512 301.446,373.000 300.609,373.000 300.550 C 373.000 300.491,373.124 300.306,373.276 300.138 C 373.428 299.970,373.521 299.852,373.484 299.875 C 373.447 299.898,295.400 299.935,200.045 299.958 " stroke="none" fill="#f3bcd4" fill-rule="evenodd"></path><path id="path1" d="M187.917 0.261 C 186.267 0.388,183.829 0.573,182.500 0.671 C 181.171 0.769,179.258 0.954,178.250 1.081 C 177.242 1.208,175.629 1.397,174.667 1.501 C 173.704 1.605,172.204 1.801,171.333 1.938 C 170.462 2.074,169.225 2.262,168.583 2.354 C 167.193 2.554,165.028 2.927,163.417 3.244 C 162.775 3.370,161.762 3.558,161.167 3.662 C 160.571 3.767,159.633 3.954,159.083 4.078 C 158.533 4.202,157.633 4.394,157.083 4.505 C 156.533 4.616,155.671 4.805,155.167 4.925 C 154.662 5.045,153.875 5.228,153.417 5.332 C 152.426 5.555,150.874 5.956,149.833 6.256 C 149.421 6.375,148.671 6.562,148.167 6.672 C 147.662 6.781,147.090 6.932,146.896 7.006 C 146.701 7.080,146.026 7.264,145.396 7.414 C 144.765 7.564,143.987 7.786,143.667 7.909 C 143.346 8.031,142.746 8.223,142.333 8.335 C 141.214 8.640,139.990 9.016,139.333 9.258 C 139.012 9.376,137.813 9.774,136.667 10.142 C 134.347 10.887,134.322 10.896,131.167 12.045 C 127.716 13.302,121.706 15.689,121.167 16.017 C 121.029 16.100,120.804 16.213,120.667 16.266 C 119.653 16.661,118.698 17.069,117.667 17.546 C 117.162 17.779,116.225 18.210,115.583 18.504 C 113.520 19.448,105.386 23.535,105.082 23.781 C 104.989 23.856,104.427 24.165,103.832 24.470 C 103.237 24.774,102.638 25.092,102.500 25.177 C 101.764 25.630,98.797 27.333,98.742 27.333 C 98.597 27.333,96.079 28.910,96.028 29.033 C 95.997 29.107,95.904 29.167,95.821 29.167 C 95.686 29.167,92.829 30.881,92.417 31.209 C 92.325 31.282,91.875 31.577,91.417 31.864 C 89.757 32.903,88.749 33.586,88.694 33.708 C 88.664 33.777,88.570 33.833,88.485 33.833 C 88.400 33.833,87.675 34.307,86.874 34.885 C 86.072 35.463,85.173 36.079,84.875 36.254 C 84.577 36.429,84.333 36.614,84.333 36.665 C 84.333 36.716,84.071 36.899,83.750 37.072 C 83.429 37.244,83.167 37.449,83.167 37.526 C 83.167 37.603,83.054 37.667,82.917 37.667 C 82.779 37.667,82.667 37.728,82.667 37.803 C 82.667 37.877,82.372 38.104,82.013 38.306 C 81.653 38.508,81.334 38.730,81.304 38.799 C 81.274 38.868,80.537 39.442,79.667 40.074 C 78.796 40.707,78.046 41.273,78.000 41.333 C 77.954 41.392,77.467 41.768,76.917 42.169 C 76.367 42.570,75.842 42.981,75.750 43.083 C 75.658 43.185,75.283 43.487,74.917 43.753 C 74.550 44.020,74.169 44.316,74.069 44.411 C 73.970 44.506,73.562 44.846,73.163 45.167 C 72.764 45.487,72.246 45.920,72.011 46.128 C 71.076 46.956,70.883 47.119,70.000 47.836 C 69.496 48.246,68.882 48.769,68.635 48.999 C 68.389 49.229,68.014 49.568,67.802 49.754 C 64.160 52.939,62.707 54.307,58.507 58.507 C 54.310 62.704,51.391 65.805,49.672 67.893 C 49.531 68.063,49.229 68.401,48.999 68.643 C 48.769 68.885,48.246 69.496,47.836 70.000 C 47.119 70.883,46.956 71.076,46.128 72.011 C 45.920 72.246,45.487 72.764,45.167 73.163 C 44.846 73.562,44.506 73.970,44.411 74.069 C 44.316 74.169,44.020 74.550,43.753 74.917 C 43.487 75.283,43.185 75.658,43.083 75.750 C 42.981 75.842,42.570 76.367,42.169 76.917 C 41.768 77.467,41.392 77.954,41.333 78.000 C 41.273 78.046,40.709 78.790,40.079 79.653 C 39.448 80.516,38.763 81.406,38.555 81.630 C 38.347 81.854,38.132 82.179,38.077 82.352 C 38.022 82.525,37.908 82.667,37.822 82.667 C 37.737 82.667,37.667 82.779,37.667 82.917 C 37.667 83.054,37.608 83.167,37.536 83.167 C 37.464 83.167,37.264 83.405,37.093 83.696 C 36.921 83.987,36.683 84.343,36.564 84.488 C 36.067 85.091,33.833 88.374,33.833 88.501 C 33.833 88.577,33.777 88.664,33.708 88.694 C 33.640 88.725,33.266 89.237,32.878 89.833 C 32.491 90.429,32.112 90.992,32.037 91.083 C 31.962 91.175,31.754 91.513,31.575 91.833 C 31.396 92.154,31.207 92.454,31.155 92.500 C 30.965 92.668,29.167 95.668,29.167 95.818 C 29.167 95.903,29.107 95.997,29.033 96.028 C 28.862 96.099,27.333 98.627,27.333 98.839 C 27.333 98.928,27.275 99.000,27.203 99.000 C 27.132 99.000,26.988 99.225,26.884 99.500 L 26.696 100.000 200.010 100.000 L 373.324 100.000 372.820 99.125 C 372.542 98.644,372.273 98.119,372.221 97.958 C 372.170 97.798,372.075 97.667,372.010 97.667 C 371.945 97.667,371.726 97.348,371.523 96.958 C 371.113 96.171,370.793 95.626,370.667 95.500 C 370.556 95.390,370.265 94.900,369.824 94.083 C 369.626 93.717,369.412 93.379,369.349 93.333 C 369.254 93.264,367.648 90.802,367.084 89.860 C 366.993 89.708,366.649 89.208,366.320 88.750 C 365.990 88.292,365.624 87.734,365.505 87.510 C 365.386 87.287,365.222 87.025,365.142 86.927 C 365.061 86.830,363.901 85.212,362.563 83.333 C 361.225 81.454,360.026 79.833,359.898 79.732 C 359.771 79.630,359.667 79.467,359.667 79.371 C 359.667 79.274,359.610 79.169,359.542 79.139 C 359.473 79.108,358.877 78.371,358.218 77.500 C 357.559 76.629,356.881 75.767,356.713 75.583 C 356.544 75.400,356.187 74.950,355.918 74.583 C 355.649 74.217,355.314 73.795,355.173 73.645 C 355.032 73.496,354.804 73.231,354.667 73.056 C 354.322 72.618,352.777 70.769,352.670 70.667 C 352.623 70.621,352.208 70.133,351.750 69.583 C 351.292 69.033,350.767 68.423,350.583 68.228 C 350.400 68.032,349.800 67.359,349.250 66.731 C 346.841 63.982,344.836 61.882,340.750 57.832 C 336.773 53.888,334.223 51.487,332.613 50.167 C 332.334 49.938,331.913 49.560,331.678 49.328 C 331.442 49.096,330.837 48.572,330.333 48.164 C 329.829 47.755,329.379 47.381,329.333 47.332 C 329.239 47.231,327.429 45.716,326.945 45.333 C 326.772 45.196,326.519 44.978,326.384 44.849 C 326.249 44.720,325.039 43.760,323.694 42.714 C 322.350 41.669,321.118 40.705,320.956 40.573 C 320.795 40.441,320.616 40.333,320.558 40.333 C 320.501 40.333,320.370 40.229,320.268 40.102 C 320.126 39.923,315.850 36.817,312.917 34.761 C 311.779 33.964,310.270 33.000,310.158 33.000 C 310.087 33.000,310.003 32.941,309.972 32.869 C 309.942 32.798,309.204 32.295,308.333 31.752 C 307.462 31.209,306.712 30.715,306.667 30.653 C 306.621 30.592,306.321 30.401,305.999 30.229 C 305.678 30.057,305.190 29.767,304.915 29.583 C 304.189 29.099,303.836 28.891,303.042 28.477 C 302.652 28.274,302.333 28.055,302.333 27.990 C 302.333 27.925,302.202 27.829,302.042 27.776 C 301.709 27.667,300.442 26.961,300.127 26.709 C 300.011 26.617,299.354 26.240,298.667 25.871 C 297.979 25.502,296.967 24.945,296.417 24.633 C 295.867 24.322,295.304 24.011,295.167 23.942 C 295.029 23.874,294.167 23.417,293.250 22.926 C 289.655 21.004,284.758 18.632,280.667 16.832 C 279.979 16.529,279.028 16.106,278.552 15.891 C 278.076 15.676,277.585 15.500,277.460 15.500 C 277.335 15.500,277.162 15.432,277.075 15.348 C 276.988 15.265,276.317 14.959,275.583 14.668 C 274.850 14.377,274.025 14.040,273.750 13.919 C 273.475 13.797,272.500 13.423,271.583 13.087 C 270.020 12.514,269.621 12.365,268.042 11.761 C 266.863 11.310,265.416 10.810,264.417 10.508 C 263.867 10.342,263.229 10.128,263.000 10.033 C 262.527 9.837,258.801 8.654,257.667 8.340 C 257.254 8.226,256.617 8.037,256.250 7.921 C 255.883 7.805,255.246 7.620,254.833 7.510 C 254.421 7.400,253.746 7.209,253.333 7.084 C 252.921 6.960,252.171 6.769,251.667 6.660 C 251.162 6.552,250.594 6.403,250.403 6.331 C 249.831 6.114,244.369 4.803,242.417 4.414 C 241.683 4.268,240.783 4.084,240.417 4.005 C 240.050 3.926,239.300 3.777,238.750 3.674 C 238.200 3.571,237.225 3.381,236.583 3.252 C 234.835 2.901,232.744 2.541,231.250 2.333 C 230.517 2.232,229.279 2.045,228.500 1.919 C 227.721 1.793,226.371 1.612,225.500 1.517 C 224.629 1.422,222.942 1.231,221.750 1.094 C 220.558 0.957,218.608 0.768,217.417 0.676 C 216.225 0.583,214.200 0.418,212.917 0.309 C 209.345 0.006,191.650 -0.028,187.917 0.261 " stroke="none" fill="#3c3c3c" fill-rule="evenodd"></path><path id="path2" d="M-0.002 204.375 C -0.004 208.411,0.264 213.627,0.670 217.500 C 0.762 218.371,0.835 219.383,0.834 219.750 C 0.833 220.117,0.940 221.204,1.073 222.167 C 1.206 223.129,1.398 224.667,1.499 225.583 C 1.672 227.144,1.948 229.028,2.357 231.447 C 2.453 232.013,2.551 232.688,2.574 232.947 C 2.616 233.411,2.822 234.551,3.248 236.667 C 3.368 237.262,3.556 238.313,3.667 239.000 C 3.777 239.688,3.941 240.475,4.030 240.750 C 4.120 241.025,4.259 241.625,4.339 242.083 C 4.652 243.876,4.821 244.695,4.984 245.212 C 5.135 245.694,5.646 247.771,5.997 249.333 C 6.108 249.824,6.719 252.142,7.360 254.500 C 7.447 254.821,7.583 255.333,7.662 255.639 C 7.740 255.945,7.877 256.395,7.965 256.639 C 8.053 256.883,8.331 257.758,8.583 258.583 C 8.834 259.408,9.190 260.533,9.374 261.083 C 9.558 261.633,9.769 262.308,9.843 262.583 C 9.917 262.858,10.104 263.421,10.259 263.833 C 10.414 264.246,10.600 264.808,10.673 265.083 C 10.745 265.358,10.966 265.996,11.164 266.500 C 11.361 267.004,11.538 267.492,11.557 267.583 C 11.597 267.779,11.949 268.707,12.253 269.417 C 12.371 269.692,12.580 270.254,12.718 270.667 C 12.856 271.079,13.060 271.642,13.172 271.917 C 13.283 272.192,13.433 272.567,13.505 272.750 C 13.576 272.933,13.838 273.608,14.088 274.250 C 14.758 275.974,15.051 276.670,15.898 278.546 C 16.138 279.076,16.333 279.544,16.333 279.587 C 16.333 279.630,16.596 280.234,16.917 280.928 C 17.238 281.623,17.500 282.227,17.500 282.272 C 17.500 282.531,22.349 292.347,23.712 294.849 C 24.191 295.728,25.033 297.245,25.583 298.221 L 26.583 299.996 199.939 299.998 L 373.295 300.000 373.538 299.625 C 373.672 299.419,374.030 298.800,374.335 298.250 C 374.639 297.700,375.020 297.025,375.182 296.750 C 375.625 295.994,378.252 291.010,379.090 289.333 C 379.775 287.963,381.788 283.761,382.125 283.000 C 382.307 282.587,382.621 281.884,382.822 281.438 C 383.023 280.991,383.339 280.241,383.523 279.771 C 383.707 279.301,383.927 278.845,384.012 278.758 C 384.097 278.671,384.167 278.498,384.167 278.373 C 384.167 278.248,384.362 277.719,384.600 277.198 C 384.838 276.677,385.135 276.025,385.259 275.750 C 385.383 275.475,385.753 274.537,386.081 273.667 C 386.409 272.796,386.759 271.896,386.858 271.667 C 386.958 271.438,387.175 270.875,387.341 270.417 C 387.507 269.958,387.801 269.171,387.996 268.667 C 388.190 268.162,388.682 266.761,389.090 265.552 C 389.498 264.343,389.899 263.180,389.982 262.968 C 390.064 262.757,390.223 262.246,390.334 261.833 C 390.445 261.421,390.634 260.821,390.754 260.500 C 390.874 260.179,391.168 259.242,391.408 258.417 C 391.647 257.592,391.928 256.654,392.032 256.333 C 392.135 256.012,392.276 255.525,392.345 255.250 C 392.415 254.975,392.598 254.300,392.752 253.750 C 392.907 253.200,393.171 252.225,393.340 251.583 C 393.509 250.942,393.810 249.817,394.008 249.083 C 394.206 248.350,394.434 247.450,394.514 247.083 C 394.594 246.717,394.769 245.929,394.902 245.333 C 395.735 241.605,396.050 240.164,396.173 239.500 C 396.250 239.088,396.437 238.112,396.588 237.333 C 396.739 236.554,396.895 235.692,396.935 235.417 C 396.975 235.142,397.115 234.354,397.245 233.667 C 397.376 232.979,397.558 231.892,397.649 231.250 C 397.741 230.608,397.927 229.333,398.064 228.417 C 398.200 227.500,398.397 226.000,398.501 225.083 C 398.605 224.167,398.793 222.554,398.919 221.500 C 399.044 220.446,399.225 218.496,399.320 217.167 C 399.416 215.838,399.577 213.700,399.679 212.417 C 399.781 211.133,399.905 207.815,399.954 205.042 L 400.043 200.000 200.022 200.000 L 0.000 200.000 -0.002 204.375 " stroke="none" fill="#fbfbf3" fill-rule="evenodd"></path><path id="path3" d="M26.287 100.542 C 26.135 100.840,25.776 101.496,25.488 102.000 C 24.556 103.629,23.949 104.722,23.220 106.083 C 22.461 107.501,19.056 114.352,18.415 115.750 C 16.987 118.866,16.494 120.000,15.259 123.000 C 14.636 124.513,14.031 125.975,13.914 126.250 C 13.004 128.390,11.318 133.022,10.092 136.750 C 8.536 141.483,8.588 141.317,7.740 144.250 C 6.954 146.971,6.235 149.621,6.000 150.667 C 5.927 150.987,5.712 151.887,5.521 152.667 C 5.118 154.311,4.762 155.869,4.494 157.167 C 4.389 157.671,4.203 158.496,4.078 159.000 C 3.954 159.504,3.769 160.404,3.668 161.000 C 3.566 161.596,3.381 162.608,3.255 163.250 C 2.715 166.011,1.839 171.580,1.511 174.333 C 0.477 183.019,-0.000 189.740,-0.000 195.625 L 0.000 200.000 200.021 200.000 L 400.041 200.000 399.955 194.958 C 399.907 192.185,399.784 188.867,399.681 187.583 C 399.578 186.300,399.416 184.162,399.320 182.833 C 399.225 181.504,399.044 179.554,398.919 178.500 C 398.793 177.446,398.606 175.833,398.502 174.917 C 398.399 174.000,398.210 172.575,398.083 171.750 C 397.956 170.925,397.767 169.650,397.663 168.917 C 397.559 168.183,397.371 167.021,397.244 166.333 C 397.118 165.646,396.899 164.446,396.757 163.667 C 396.242 160.847,395.477 157.071,395.085 155.417 C 394.954 154.867,394.655 153.592,394.420 152.583 C 394.185 151.575,393.889 150.412,393.763 150.000 C 393.636 149.587,393.442 148.875,393.332 148.417 C 393.222 147.958,393.037 147.246,392.920 146.833 C 392.803 146.421,392.615 145.746,392.501 145.333 C 392.387 144.921,392.193 144.246,392.069 143.833 C 391.945 143.421,391.648 142.408,391.408 141.583 C 391.168 140.758,390.876 139.821,390.758 139.500 C 390.640 139.179,390.154 137.717,389.677 136.250 C 388.644 133.072,388.269 132.022,386.759 128.083 C 386.176 126.562,385.037 123.719,384.756 123.083 C 384.635 122.808,384.373 122.218,384.174 121.771 C 383.975 121.324,383.675 120.612,383.507 120.188 C 383.340 119.764,382.981 118.929,382.709 118.333 C 382.438 117.737,381.930 116.612,381.581 115.833 C 380.963 114.454,376.714 106.000,376.052 104.833 C 375.870 104.513,375.492 103.837,375.212 103.333 C 374.932 102.829,374.466 102.004,374.176 101.500 C 373.886 100.996,373.606 100.452,373.555 100.292 C 373.466 100.014,365.055 100.000,200.011 100.000 L 26.562 100.000 26.287 100.542 " stroke="none" fill="#6c6c7c" fill-rule="evenodd"></path></g></svg>