<svg id="svg" version="1.1" xmlns="http://www.w3.org/2000/svg" xmlns:xlink="http://www.w3.org/1999/xlink" width="400" height="400" viewBox="0, 0, 400,400"><g id="svgg"><path id="path0" d="M-0.002 204.375 C -0.005 211.014,0.816 221.365,1.932 228.750 C 2.070 229.667,2.261 230.942,2.357 231.583 C 2.526 232.721,2.773 234.129,3.251 236.667 C 3.380 237.354,3.572 238.404,3.677 239.000 C 3.782 239.596,3.967 240.496,4.087 241.000 C 4.208 241.504,4.393 242.367,4.498 242.917 C 4.604 243.467,4.792 244.329,4.917 244.833 C 5.042 245.338,5.339 246.575,5.577 247.583 C 5.816 248.592,6.121 249.829,6.256 250.333 C 7.674 255.633,8.086 257.085,8.740 259.083 C 8.860 259.450,9.465 261.306,10.086 263.208 L 11.214 266.667 199.982 266.663 L 388.750 266.659 389.645 263.871 C 390.137 262.338,390.637 260.821,390.756 260.500 C 390.875 260.179,391.168 259.242,391.408 258.417 C 391.647 257.592,391.928 256.654,392.032 256.333 C 392.135 256.012,392.276 255.525,392.345 255.250 C 392.415 254.975,392.598 254.300,392.752 253.750 C 393.838 249.887,394.832 245.846,395.519 242.502 C 395.697 241.632,395.912 240.657,395.996 240.335 C 396.080 240.013,396.233 239.262,396.337 238.667 C 396.514 237.655,396.627 237.033,397.237 233.708 C 397.367 232.998,397.559 231.817,397.663 231.083 C 397.767 230.350,397.956 229.075,398.083 228.250 C 398.210 227.425,398.399 226.000,398.502 225.083 C 398.606 224.167,398.793 222.554,398.919 221.500 C 399.044 220.446,399.225 218.496,399.320 217.167 C 399.416 215.838,399.577 213.700,399.679 212.417 C 399.781 211.133,399.905 207.815,399.954 205.042 L 400.043 200.000 200.022 200.000 L 0.000 200.000 -0.002 204.375 " stroke="none" fill="#cce4b4" fill-rule="evenodd"></path><path id="path1" d="M51.252 333.875 C 53.987 337.177,64.051 347.126,67.893 350.325 C 68.063 350.467,68.401 350.771,68.643 351.001 C 68.885 351.231,69.496 351.753,70.000 352.160 C 70.504 352.568,71.039 353.017,71.188 353.159 C 71.500 353.456,71.522 353.473,73.935 355.423 C 74.933 356.229,75.775 356.952,75.806 357.028 C 75.836 357.104,75.967 357.167,76.097 357.167 C 76.227 357.167,76.333 357.236,76.333 357.320 C 76.333 357.404,76.577 357.626,76.875 357.813 C 77.173 358.000,77.616 358.325,77.859 358.535 C 78.103 358.745,79.265 359.626,80.443 360.493 C 81.620 361.361,82.608 362.129,82.639 362.202 C 82.669 362.274,82.801 362.333,82.931 362.333 C 83.060 362.333,83.167 362.392,83.167 362.464 C 83.167 362.536,83.410 362.738,83.708 362.914 C 84.006 363.090,84.325 363.295,84.417 363.370 C 84.855 363.727,88.353 366.167,88.428 366.167 C 88.475 366.167,88.605 366.247,88.715 366.344 C 88.826 366.442,89.629 366.980,90.500 367.540 C 91.371 368.100,92.683 368.948,93.417 369.424 C 94.150 369.900,95.013 370.433,95.333 370.610 C 95.654 370.787,96.329 371.198,96.833 371.524 C 97.337 371.850,98.200 372.365,98.750 372.670 C 99.728 373.210,102.003 374.517,102.500 374.823 C 102.638 374.908,103.237 375.226,103.832 375.530 C 104.427 375.835,104.989 376.144,105.082 376.219 C 105.300 376.396,105.946 376.727,110.750 379.125 C 115.205 381.350,115.434 381.459,119.083 383.077 C 119.358 383.198,119.808 383.390,120.083 383.502 C 120.358 383.614,120.696 383.772,120.833 383.854 C 120.971 383.935,121.196 384.045,121.333 384.099 C 121.471 384.152,122.783 384.683,124.250 385.279 C 128.662 387.071,131.984 388.309,136.000 389.657 C 137.739 390.240,141.512 391.432,142.417 391.684 C 142.783 391.786,143.346 391.967,143.667 392.087 C 143.987 392.206,144.625 392.393,145.083 392.502 C 145.542 392.610,146.254 392.802,146.667 392.928 C 147.079 393.055,147.867 393.266,148.417 393.398 C 148.967 393.531,150.467 393.905,151.750 394.230 C 154.167 394.842,155.596 395.179,157.167 395.509 C 157.671 395.615,158.533 395.802,159.083 395.925 C 159.633 396.048,160.571 396.230,161.167 396.331 C 161.762 396.432,162.775 396.621,163.417 396.751 C 164.894 397.051,167.079 397.429,168.583 397.646 C 169.225 397.738,170.462 397.926,171.333 398.062 C 172.204 398.199,173.704 398.396,174.667 398.500 C 175.629 398.604,177.242 398.791,178.250 398.916 C 180.081 399.141,181.678 399.273,188.583 399.767 C 192.892 400.076,208.952 400.025,212.917 399.690 C 214.200 399.582,216.225 399.417,217.417 399.324 C 218.608 399.232,220.558 399.043,221.750 398.906 C 222.942 398.769,224.629 398.578,225.500 398.483 C 226.371 398.388,227.721 398.208,228.500 398.083 C 229.279 397.958,230.479 397.770,231.167 397.667 C 232.940 397.399,235.209 397.013,236.667 396.732 C 237.354 396.599,238.329 396.411,238.833 396.315 C 239.338 396.218,240.050 396.074,240.417 395.995 C 240.783 395.916,241.683 395.732,242.417 395.586 C 244.273 395.216,248.037 394.315,250.083 393.751 C 250.542 393.625,251.292 393.434,251.750 393.328 C 252.208 393.221,252.921 393.034,253.333 392.912 C 253.746 392.790,254.421 392.600,254.833 392.490 C 255.246 392.380,255.883 392.195,256.250 392.079 C 256.617 391.963,257.254 391.775,257.667 391.661 C 258.079 391.548,258.979 391.271,259.667 391.045 C 260.354 390.820,261.367 390.497,261.917 390.329 C 263.167 389.946,267.205 388.572,268.042 388.244 C 269.134 387.817,269.874 387.539,271.583 386.913 C 272.500 386.577,273.475 386.201,273.750 386.077 C 274.025 385.954,274.850 385.616,275.583 385.326 C 276.317 385.036,276.988 384.732,277.075 384.650 C 277.162 384.567,277.334 384.500,277.457 384.500 C 277.580 384.500,278.146 384.283,278.715 384.018 C 279.284 383.753,280.237 383.332,280.833 383.083 C 282.644 382.327,286.472 380.524,289.500 379.001 C 292.043 377.722,294.690 376.354,295.000 376.159 C 295.336 375.946,297.133 374.949,298.667 374.124 C 299.354 373.754,300.029 373.365,300.167 373.260 C 300.304 373.155,300.640 372.960,300.912 372.826 C 301.184 372.693,301.784 372.331,302.245 372.023 C 302.706 371.715,303.233 371.396,303.417 371.315 C 303.771 371.158,304.111 370.954,304.912 370.417 C 305.523 370.008,306.003 369.718,306.333 369.560 C 306.471 369.495,306.621 369.395,306.667 369.338 C 306.712 369.281,307.462 368.792,308.333 368.250 C 309.204 367.708,309.954 367.223,310.000 367.171 C 310.046 367.119,310.608 366.741,311.250 366.330 C 311.892 365.920,312.442 365.528,312.472 365.459 C 312.503 365.390,312.600 365.333,312.688 365.333 C 312.775 365.333,312.938 365.258,313.049 365.165 C 313.159 365.073,314.822 363.870,316.744 362.492 C 318.666 361.114,320.279 359.931,320.328 359.863 C 320.377 359.795,320.829 359.445,321.333 359.087 C 321.837 358.728,322.485 358.243,322.772 358.009 C 323.059 357.775,323.876 357.133,324.588 356.583 C 325.300 356.033,326.005 355.471,326.154 355.333 C 326.303 355.196,327.061 354.563,327.838 353.926 C 328.614 353.290,329.287 352.727,329.333 352.674 C 329.379 352.622,329.826 352.242,330.326 351.831 C 330.826 351.420,331.431 350.896,331.671 350.667 C 331.911 350.438,332.336 350.063,332.616 349.833 C 336.045 347.022,348.973 334.099,348.996 333.458 C 348.998 333.390,281.906 333.333,199.902 333.333 L 50.804 333.333 51.252 333.875 " stroke="none" fill="#c4bcdc" fill-rule="evenodd"></path><path id="path2" d="M187.917 0.261 C 186.267 0.388,183.829 0.573,182.500 0.671 C 181.171 0.769,179.258 0.953,178.250 1.079 C 177.242 1.206,175.667 1.394,174.750 1.497 C 173.030 1.690,170.502 2.049,168.747 2.349 C 168.195 2.444,167.557 2.542,167.330 2.569 C 166.518 2.663,164.398 3.029,163.333 3.260 C 162.737 3.389,161.425 3.653,160.417 3.846 C 157.712 4.364,155.498 4.823,154.835 5.002 C 154.513 5.089,153.350 5.380,152.250 5.649 C 151.150 5.918,149.350 6.377,148.250 6.669 C 147.150 6.960,145.725 7.333,145.083 7.496 C 144.442 7.659,143.729 7.867,143.500 7.958 C 143.271 8.050,142.821 8.202,142.500 8.297 C 138.002 9.635,135.084 10.614,129.500 12.660 C 127.155 13.519,121.585 15.763,121.167 16.017 C 121.029 16.100,120.804 16.213,120.667 16.266 C 119.785 16.610,119.333 16.806,117.500 17.640 C 116.904 17.911,115.892 18.371,115.250 18.662 C 113.327 19.533,105.186 23.644,105.000 23.837 C 104.954 23.884,104.429 24.173,103.833 24.478 C 103.237 24.783,102.407 25.231,101.989 25.474 C 100.747 26.196,97.534 28.052,96.782 28.483 C 96.398 28.703,96.046 28.928,96.000 28.983 C 95.954 29.038,95.654 29.226,95.333 29.401 C 95.013 29.576,94.089 30.157,93.281 30.693 C 92.473 31.228,91.780 31.667,91.742 31.667 C 91.704 31.667,91.063 32.079,90.319 32.583 C 89.574 33.088,88.904 33.500,88.830 33.500 C 88.755 33.500,88.669 33.562,88.639 33.639 C 88.608 33.715,88.171 34.046,87.667 34.375 C 86.802 34.938,85.230 36.012,84.357 36.636 C 84.140 36.790,83.864 37.010,83.743 37.125 C 83.623 37.240,83.443 37.333,83.345 37.333 C 83.247 37.333,83.167 37.408,83.167 37.500 C 83.167 37.592,83.054 37.667,82.917 37.667 C 82.779 37.667,82.667 37.725,82.667 37.797 C 82.667 37.869,82.444 38.059,82.173 38.220 C 81.901 38.380,81.582 38.604,81.464 38.716 C 81.346 38.828,80.538 39.444,79.668 40.085 C 78.797 40.726,77.935 41.373,77.751 41.524 C 77.567 41.674,76.254 42.727,74.833 43.864 C 72.120 46.034,71.584 46.471,71.273 46.760 C 71.169 46.857,70.558 47.376,69.917 47.913 C 69.275 48.450,68.631 49.008,68.485 49.153 C 68.340 49.298,67.703 49.867,67.070 50.417 C 62.768 54.156,53.698 63.163,51.251 66.125 L 50.804 66.667 199.902 66.667 C 281.906 66.667,348.998 66.610,348.996 66.542 C 348.993 66.473,348.506 65.900,347.912 65.269 C 347.319 64.638,346.833 64.094,346.833 64.060 C 346.833 63.687,335.046 52.171,332.613 50.167 C 332.335 49.938,331.911 49.563,331.671 49.333 C 331.431 49.104,330.826 48.580,330.326 48.169 C 329.826 47.758,329.379 47.378,329.333 47.326 C 329.287 47.273,328.612 46.711,327.833 46.076 C 327.054 45.442,326.379 44.878,326.333 44.824 C 326.182 44.646,322.268 41.589,321.333 40.918 C 320.829 40.557,320.377 40.205,320.328 40.137 C 320.279 40.069,318.666 38.886,316.744 37.508 C 314.822 36.130,313.175 34.946,313.083 34.876 C 312.992 34.807,312.279 34.338,311.500 33.836 C 310.721 33.333,310.046 32.880,310.000 32.828 C 309.954 32.777,309.204 32.292,308.333 31.750 C 307.462 31.208,306.712 30.719,306.667 30.662 C 306.621 30.605,306.471 30.505,306.333 30.440 C 305.947 30.255,305.460 29.952,304.887 29.542 C 304.600 29.335,304.320 29.167,304.264 29.167 C 304.209 29.167,303.374 28.679,302.410 28.083 C 301.446 27.488,300.609 27.000,300.550 27.000 C 300.491 27.000,300.325 26.899,300.180 26.775 C 300.035 26.651,299.354 26.246,298.667 25.876 C 297.979 25.506,296.967 24.948,296.417 24.635 C 295.867 24.322,295.304 24.011,295.167 23.942 C 295.029 23.874,294.167 23.415,293.250 22.922 C 290.366 21.373,285.313 18.916,281.583 17.251 C 280.392 16.719,279.028 16.107,278.552 15.892 C 278.076 15.676,277.575 15.500,277.437 15.500 C 277.299 15.500,277.147 15.436,277.099 15.358 C 277.050 15.280,276.652 15.083,276.214 14.920 C 275.775 14.758,275.192 14.530,274.917 14.414 C 274.382 14.190,272.869 13.597,271.043 12.896 C 269.320 12.234,268.852 12.061,267.500 11.583 C 266.813 11.340,265.987 11.041,265.667 10.917 C 263.406 10.047,256.437 7.924,252.250 6.831 C 251.517 6.639,250.542 6.378,250.083 6.251 C 248.056 5.689,244.390 4.812,242.417 4.416 C 241.683 4.269,240.783 4.084,240.417 4.005 C 240.050 3.926,239.300 3.777,238.750 3.674 C 238.200 3.571,237.225 3.377,236.583 3.243 C 234.756 2.863,227.876 1.798,225.417 1.514 C 224.592 1.419,222.942 1.229,221.750 1.093 C 220.558 0.956,218.608 0.768,217.417 0.676 C 216.225 0.583,214.200 0.418,212.917 0.309 C 209.345 0.006,191.650 -0.028,187.917 0.261 " stroke="none" fill="#f4bcab" fill-rule="evenodd"></path><path id="path3" d="M11.334 266.792 C 11.335 266.918,11.974 268.731,12.289 269.500 C 12.383 269.729,12.574 270.254,12.714 270.667 C 12.854 271.079,13.060 271.642,13.172 271.917 C 13.283 272.192,13.433 272.567,13.505 272.750 C 14.173 274.464,15.053 276.635,15.169 276.855 C 15.247 277.005,15.659 277.970,16.083 278.999 C 17.325 282.013,18.295 284.093,20.940 289.417 C 21.987 291.525,23.091 293.700,23.394 294.250 C 23.696 294.800,24.260 295.840,24.648 296.560 C 25.035 297.281,25.536 298.161,25.760 298.515 C 25.983 298.870,26.167 299.193,26.167 299.233 C 26.167 299.274,26.542 299.912,27.000 300.651 C 27.458 301.390,27.833 302.032,27.833 302.078 C 27.833 302.232,28.902 303.916,29.035 303.972 C 29.107 304.003,29.167 304.097,29.167 304.182 C 29.167 304.310,29.776 305.320,31.212 307.571 C 31.950 308.726,33.505 311.113,33.616 311.259 C 33.690 311.356,33.825 311.560,33.917 311.713 C 34.272 312.306,36.575 315.595,36.782 315.804 C 36.902 315.925,37.000 316.079,37.000 316.147 C 37.000 316.215,37.141 316.422,37.313 316.607 C 37.485 316.792,37.831 317.274,38.081 317.680 C 38.331 318.085,38.624 318.492,38.731 318.583 C 38.838 318.675,39.439 319.454,40.068 320.315 C 40.696 321.176,41.344 322.039,41.508 322.232 C 41.672 322.425,42.304 323.221,42.913 324.000 C 43.522 324.779,44.125 325.545,44.253 325.701 C 44.380 325.858,44.827 326.406,45.246 326.920 C 45.664 327.434,46.160 328.018,46.349 328.219 C 46.537 328.419,47.117 329.108,47.638 329.750 C 48.158 330.392,48.788 331.127,49.038 331.384 C 49.288 331.641,49.766 332.185,50.100 332.592 L 50.707 333.333 199.895 333.375 C 348.898 333.417,349.084 333.416,349.387 333.083 C 350.244 332.144,351.676 330.515,352.099 330.000 C 352.362 329.679,352.621 329.379,352.674 329.333 C 352.727 329.287,353.290 328.617,353.926 327.843 C 354.563 327.068,355.211 326.281,355.366 326.093 C 356.281 324.986,358.524 322.115,359.085 321.333 C 359.447 320.829,359.827 320.342,359.930 320.250 C 360.335 319.889,364.217 314.380,366.623 310.750 C 368.020 308.642,369.238 306.827,369.330 306.718 C 369.421 306.608,369.665 306.210,369.873 305.833 C 370.321 305.019,370.391 304.900,371.240 303.499 C 371.601 302.904,371.938 302.379,371.990 302.333 C 372.041 302.287,372.165 302.100,372.265 301.917 C 373.051 300.476,373.611 299.491,373.943 298.962 C 374.158 298.620,374.333 298.302,374.333 298.256 C 374.333 298.210,374.553 297.814,374.822 297.378 C 375.422 296.401,376.007 295.317,377.273 292.833 C 377.810 291.779,378.287 290.879,378.333 290.833 C 378.421 290.745,378.702 290.176,380.734 285.957 C 381.431 284.512,382.000 283.299,382.000 283.260 C 382.000 283.222,382.253 282.642,382.563 281.971 C 382.873 281.299,383.405 280.075,383.745 279.250 C 384.086 278.425,384.551 277.337,384.779 276.833 C 385.383 275.499,385.442 275.357,385.894 274.167 C 386.121 273.571,386.494 272.596,386.723 272.000 C 386.952 271.404,387.338 270.392,387.581 269.750 C 387.824 269.108,388.125 268.321,388.251 268.000 C 388.378 267.679,388.528 267.248,388.585 267.042 L 388.689 266.667 200.011 266.667 C 96.238 266.667,11.334 266.723,11.334 266.792 " stroke="none" fill="#b4dbf3" fill-rule="evenodd"></path><path id="path4" d="M11.167 133.475 C 11.167 133.598,11.064 133.936,10.938 134.225 C 10.812 134.514,10.316 135.987,9.836 137.500 C 9.355 139.012,8.901 140.438,8.827 140.667 C 8.532 141.570,7.859 143.802,7.595 144.750 C 7.442 145.300,7.208 146.125,7.075 146.583 C 6.740 147.738,6.150 149.965,5.995 150.667 C 5.683 152.076,5.139 154.294,4.984 154.788 C 4.891 155.084,4.740 155.721,4.649 156.205 C 4.557 156.688,4.420 157.421,4.342 157.833 C 4.265 158.246,4.041 159.371,3.844 160.333 C 3.647 161.296,3.381 162.646,3.252 163.333 C 3.123 164.021,2.928 165.033,2.818 165.583 C 2.708 166.133,2.593 166.808,2.562 167.083 C 2.497 167.662,2.216 169.506,1.990 170.833 C 1.904 171.338,1.795 172.088,1.748 172.500 C 1.701 172.912,1.592 173.775,1.507 174.417 C 0.622 181.061,-0.004 189.859,-0.002 195.625 L 0.000 200.000 200.021 200.000 L 400.041 200.000 399.955 194.958 C 399.907 192.185,399.784 188.867,399.682 187.583 C 399.579 186.300,399.417 184.200,399.322 182.917 C 398.902 177.251,397.956 170.150,396.758 163.667 C 396.631 162.979,396.441 161.929,396.337 161.333 C 396.233 160.737,396.081 159.987,395.999 159.667 C 395.916 159.346,395.731 158.483,395.587 157.750 C 395.443 157.017,395.208 155.929,395.066 155.333 C 394.924 154.737,394.734 153.912,394.644 153.500 C 394.414 152.448,394.024 150.899,393.740 149.917 C 393.608 149.458,393.341 148.483,393.147 147.750 C 392.953 147.017,392.734 146.192,392.661 145.917 C 392.588 145.642,392.418 145.042,392.283 144.583 C 392.148 144.125,391.914 143.300,391.763 142.750 C 391.471 141.687,391.047 140.363,389.623 136.083 L 388.737 133.417 199.952 133.333 C 41.613 133.263,11.167 133.286,11.167 133.475 " stroke="none" fill="#fcecbc" fill-rule="evenodd"></path><path id="path5" d="M199.898 66.625 L 50.713 66.667 50.065 67.437 C 49.708 67.861,49.229 68.405,48.999 68.646 C 48.769 68.886,48.247 69.496,47.840 70.000 C 47.432 70.504,46.983 71.039,46.841 71.188 C 46.546 71.498,46.228 71.878,45.184 73.167 C 44.775 73.671,44.394 74.121,44.337 74.167 C 44.279 74.212,44.016 74.550,43.751 74.917 C 43.486 75.283,43.190 75.658,43.093 75.750 C 42.996 75.842,42.584 76.367,42.178 76.917 C 41.771 77.467,41.391 77.954,41.332 78.000 C 41.273 78.046,40.709 78.790,40.079 79.653 C 39.448 80.516,38.763 81.406,38.555 81.630 C 38.347 81.854,38.132 82.179,38.077 82.352 C 38.022 82.525,37.908 82.667,37.822 82.667 C 37.737 82.667,37.667 82.779,37.667 82.917 C 37.667 83.054,37.608 83.167,37.536 83.167 C 37.464 83.167,37.264 83.405,37.093 83.696 C 36.921 83.987,36.683 84.343,36.564 84.488 C 36.038 85.127,33.833 88.378,33.833 88.515 C 33.833 88.598,33.758 88.667,33.667 88.667 C 33.575 88.667,33.500 88.732,33.500 88.812 C 33.500 88.945,33.123 89.534,30.501 93.500 C 29.985 94.279,29.456 95.160,29.325 95.458 C 29.193 95.756,29.042 96.000,28.989 96.000 C 28.936 96.000,28.725 96.319,28.520 96.708 C 28.316 97.098,28.003 97.642,27.826 97.917 C 27.649 98.192,27.453 98.529,27.390 98.667 C 27.292 98.882,26.768 99.767,26.050 100.926 C 25.939 101.104,25.673 101.587,25.458 102.000 C 25.242 102.412,24.854 103.125,24.594 103.583 C 24.334 104.042,23.894 104.829,23.615 105.333 C 22.888 106.644,19.326 113.745,18.847 114.834 C 18.626 115.338,18.091 116.500,17.658 117.417 C 17.225 118.333,16.626 119.683,16.328 120.417 C 16.030 121.150,15.721 121.821,15.643 121.908 C 15.564 121.995,15.500 122.164,15.500 122.283 C 15.500 122.402,15.285 122.968,15.023 123.541 C 14.760 124.114,14.452 124.846,14.338 125.167 C 14.224 125.487,14.034 125.975,13.916 126.250 C 13.798 126.525,13.628 126.938,13.538 127.167 C 13.448 127.396,13.283 127.808,13.172 128.083 C 13.060 128.358,12.854 128.921,12.714 129.333 C 12.574 129.746,12.383 130.271,12.289 130.500 C 11.974 131.269,11.335 133.082,11.334 133.208 C 11.334 133.277,96.238 133.333,200.011 133.333 L 388.689 133.333 388.585 132.958 C 388.528 132.752,388.378 132.321,388.251 132.000 C 388.125 131.679,387.839 130.929,387.614 130.333 C 387.145 129.087,386.484 127.369,385.903 125.888 C 385.681 125.323,385.500 124.817,385.500 124.764 C 385.500 124.711,385.285 124.199,385.023 123.625 C 384.091 121.591,383.808 120.949,383.508 120.187 C 383.341 119.762,382.933 118.828,382.602 118.112 C 382.271 117.395,382.000 116.781,382.000 116.746 C 382.000 116.670,379.654 111.764,379.053 110.583 C 376.855 106.264,375.071 102.946,374.211 101.577 C 374.098 101.397,373.852 100.950,373.663 100.583 C 373.475 100.217,373.096 99.542,372.822 99.083 C 372.547 98.625,372.274 98.138,372.215 98.000 C 372.156 97.862,372.061 97.712,372.004 97.667 C 371.818 97.518,370.833 95.833,370.833 95.664 C 370.833 95.574,370.772 95.500,370.696 95.500 C 370.621 95.500,370.393 95.181,370.190 94.792 C 369.761 93.969,369.454 93.451,369.326 93.333 C 369.276 93.287,368.792 92.537,368.250 91.667 C 367.708 90.796,367.224 90.046,367.174 90.000 C 367.124 89.954,366.560 89.129,365.921 88.167 C 364.485 86.004,360.199 79.977,359.936 79.750 C 359.830 79.658,359.447 79.171,359.085 78.667 C 358.467 77.804,356.689 75.515,356.496 75.333 C 356.448 75.287,356.147 74.913,355.829 74.501 C 355.176 73.655,354.827 73.217,354.583 72.939 C 354.492 72.834,354.043 72.298,353.587 71.749 C 353.131 71.199,352.718 70.712,352.670 70.667 C 352.623 70.621,352.208 70.133,351.750 69.583 C 351.292 69.033,350.767 68.428,350.583 68.238 C 350.400 68.048,349.988 67.598,349.667 67.238 L 349.083 66.583 199.898 66.625 " stroke="none" fill="#fcd494" fill-rule="evenodd"></path></g></svg>