<svg id="svg" version="1.1" xmlns="http://www.w3.org/2000/svg" xmlns:xlink="http://www.w3.org/1999/xlink" viewBox="0, 0, 400,400"><g id="svgg"><path id="path0" d="M3.682 161.042 C 3.574 161.615,3.381 162.646,3.252 163.333 C 3.123 164.021,2.926 165.033,2.814 165.583 C 2.702 166.133,2.593 166.784,2.573 167.028 C 2.536 167.464,2.381 168.477,1.913 171.333 C 1.786 172.112,1.599 173.500,1.498 174.417 C 1.397 175.333,1.206 176.871,1.073 177.833 C 0.940 178.796,0.833 179.883,0.834 180.250 C 0.835 180.617,0.762 181.629,0.670 182.500 C -0.276 191.515,-0.276 208.485,0.670 217.500 C 0.762 218.371,0.835 219.383,0.834 219.750 C 0.833 220.117,0.940 221.204,1.073 222.167 C 1.206 223.129,1.398 224.667,1.499 225.583 C 1.672 227.144,1.948 229.028,2.357 231.447 C 2.453 232.013,2.551 232.688,2.574 232.947 C 2.597 233.205,2.710 233.904,2.824 234.500 C 2.939 235.096,3.134 236.108,3.258 236.750 C 3.382 237.392,3.572 238.385,3.681 238.958 L 3.879 240.000 200.023 240.042 L 396.167 240.083 396.167 239.721 C 396.167 239.522,396.245 238.959,396.341 238.471 C 396.437 237.983,396.619 237.058,396.746 236.417 C 397.311 233.560,398.117 228.366,398.492 225.167 C 399.168 219.394,399.173 219.342,399.705 212.000 C 399.990 208.073,399.989 191.913,399.704 188.000 C 399.225 181.417,399.135 180.334,398.918 178.500 C 398.793 177.446,398.606 175.833,398.503 174.917 C 398.168 171.930,397.228 165.892,396.752 163.667 C 396.625 163.071,396.426 162.002,396.311 161.292 L 396.100 160.000 199.990 160.000 L 3.879 160.000 3.682 161.042 " stroke="none" fill="#fcfbf3" fill-rule="evenodd"></path><path id="path1" d="M187.917 0.261 C 186.267 0.388,183.829 0.573,182.500 0.671 C 181.171 0.769,179.258 0.953,178.250 1.079 C 177.242 1.206,175.667 1.394,174.750 1.497 C 171.737 1.835,165.284 2.832,163.417 3.249 C 162.867 3.372,161.854 3.562,161.167 3.672 C 160.479 3.782,159.504 3.968,159.000 4.086 C 158.496 4.204,157.671 4.387,157.167 4.492 C 155.111 4.920,151.706 5.754,147.833 6.778 C 146.962 7.008,145.725 7.331,145.083 7.495 C 144.442 7.659,143.729 7.867,143.500 7.958 C 143.271 8.050,142.821 8.198,142.500 8.289 C 141.073 8.693,139.872 9.061,139.333 9.258 C 139.012 9.376,137.813 9.774,136.667 10.142 C 134.347 10.887,134.322 10.896,131.167 12.045 C 127.716 13.302,121.706 15.689,121.167 16.017 C 121.029 16.100,120.804 16.213,120.667 16.266 C 119.828 16.593,119.445 16.758,117.583 17.595 C 115.138 18.693,113.856 19.310,110.417 21.039 C 105.167 23.679,105.092 23.718,105.000 23.826 C 104.954 23.879,104.429 24.172,103.833 24.475 C 103.237 24.778,102.638 25.095,102.500 25.178 C 101.573 25.743,98.793 27.333,98.733 27.333 C 98.693 27.333,98.343 27.537,97.955 27.786 C 97.567 28.035,96.987 28.382,96.667 28.557 C 96.346 28.732,96.046 28.922,96.000 28.979 C 95.954 29.036,95.654 29.227,95.333 29.403 C 94.734 29.732,92.991 30.843,90.500 32.483 C 89.721 32.997,89.012 33.447,88.924 33.484 C 88.837 33.520,88.687 33.615,88.591 33.694 C 88.223 33.995,85.360 35.965,84.859 36.261 C 84.570 36.432,84.333 36.614,84.333 36.665 C 84.333 36.716,84.071 36.899,83.750 37.072 C 83.429 37.244,83.167 37.449,83.167 37.526 C 83.167 37.603,83.054 37.667,82.917 37.667 C 82.779 37.667,82.667 37.728,82.667 37.803 C 82.667 37.877,82.372 38.104,82.013 38.306 C 81.653 38.508,81.334 38.730,81.304 38.799 C 81.274 38.868,80.537 39.442,79.667 40.074 C 78.796 40.707,78.046 41.275,78.000 41.335 C 77.954 41.396,77.572 41.702,77.151 42.015 C 76.484 42.510,75.206 43.512,74.299 44.253 C 71.944 46.173,71.519 46.527,71.188 46.841 C 71.039 46.983,70.504 47.432,70.000 47.840 C 69.496 48.247,68.885 48.769,68.643 48.999 C 68.401 49.229,68.058 49.536,67.881 49.681 C 63.759 53.071,54.183 62.635,49.896 67.643 C 49.632 67.951,49.229 68.401,48.999 68.643 C 48.769 68.885,48.247 69.496,47.840 70.000 C 47.432 70.504,46.983 71.039,46.841 71.188 C 46.546 71.498,46.228 71.878,45.184 73.167 C 44.775 73.671,44.397 74.121,44.344 74.167 C 44.291 74.212,44.031 74.550,43.766 74.917 C 43.501 75.283,43.197 75.658,43.091 75.750 C 42.985 75.842,42.570 76.367,42.169 76.917 C 41.768 77.467,41.392 77.954,41.333 78.000 C 41.275 78.046,40.911 78.515,40.525 79.042 L 39.823 80.000 200.012 80.000 L 360.202 80.000 359.854 79.625 C 359.664 79.419,358.987 78.549,358.350 77.692 C 357.714 76.836,357.017 75.936,356.802 75.692 C 356.586 75.449,356.191 74.950,355.923 74.583 C 355.655 74.217,355.356 73.842,355.258 73.750 C 355.161 73.658,354.561 72.946,353.925 72.167 C 353.290 71.387,352.728 70.712,352.676 70.667 C 352.625 70.621,352.208 70.133,351.750 69.583 C 351.292 69.033,350.767 68.427,350.583 68.236 C 350.400 68.045,349.800 67.371,349.250 66.738 C 347.480 64.699,346.806 63.980,343.667 60.780 C 338.690 55.705,334.746 51.918,332.614 50.167 C 332.335 49.938,331.911 49.563,331.671 49.333 C 331.431 49.104,330.826 48.580,330.326 48.169 C 329.826 47.758,329.379 47.378,329.333 47.326 C 329.287 47.273,328.612 46.711,327.833 46.076 C 327.054 45.442,326.379 44.878,326.333 44.823 C 326.180 44.641,322.261 41.578,321.333 40.916 C 320.829 40.556,320.377 40.205,320.328 40.137 C 320.258 40.041,314.613 35.945,312.917 34.760 C 311.742 33.940,310.269 33.000,310.158 33.000 C 310.087 33.000,310.003 32.941,309.972 32.869 C 309.942 32.798,309.204 32.295,308.333 31.752 C 307.462 31.209,306.712 30.719,306.667 30.662 C 306.621 30.605,306.471 30.505,306.333 30.440 C 306.003 30.282,305.523 29.992,304.912 29.583 C 304.199 29.105,303.842 28.894,303.042 28.477 C 302.652 28.274,302.333 28.055,302.333 27.990 C 302.333 27.925,302.202 27.829,302.042 27.776 C 301.709 27.667,300.442 26.961,300.127 26.709 C 300.011 26.617,299.354 26.240,298.667 25.871 C 297.979 25.502,296.967 24.945,296.417 24.633 C 295.867 24.322,295.304 24.011,295.167 23.942 C 295.029 23.874,294.167 23.415,293.250 22.924 C 289.888 21.120,284.657 18.588,280.667 16.832 C 279.979 16.529,279.028 16.106,278.552 15.891 C 278.076 15.676,277.585 15.500,277.460 15.500 C 277.335 15.500,277.162 15.433,277.075 15.350 C 276.879 15.165,272.849 13.550,269.292 12.232 C 268.948 12.104,268.385 11.892,268.042 11.761 C 266.920 11.332,265.436 10.816,264.417 10.501 C 263.867 10.331,263.192 10.111,262.917 10.012 C 262.002 9.683,258.931 8.704,257.917 8.419 C 257.367 8.263,256.617 8.041,256.250 7.923 C 255.883 7.806,255.246 7.620,254.833 7.510 C 254.421 7.400,253.746 7.209,253.333 7.084 C 252.921 6.960,252.171 6.769,251.667 6.660 C 251.162 6.552,250.594 6.403,250.403 6.331 C 249.833 6.115,244.604 4.861,242.000 4.316 C 239.976 3.892,239.109 3.726,237.829 3.519 C 237.323 3.437,236.611 3.292,236.246 3.197 C 235.882 3.102,235.058 2.937,234.417 2.830 C 233.089 2.609,233.056 2.604,231.250 2.339 C 230.517 2.232,229.242 2.041,228.417 1.914 C 227.592 1.788,226.242 1.608,225.417 1.513 C 224.592 1.418,222.942 1.229,221.750 1.093 C 220.558 0.956,218.608 0.768,217.417 0.676 C 216.225 0.583,214.200 0.418,212.917 0.309 C 209.345 0.006,191.650 -0.028,187.917 0.261 M40.525 320.958 C 40.911 321.485,41.275 321.954,41.333 322.000 C 41.392 322.046,41.768 322.533,42.169 323.083 C 42.570 323.633,42.985 324.158,43.091 324.250 C 43.197 324.342,43.501 324.717,43.766 325.083 C 44.031 325.450,44.291 325.787,44.344 325.833 C 44.397 325.879,44.775 326.329,45.184 326.833 C 46.228 328.122,46.546 328.502,46.841 328.812 C 46.983 328.961,47.432 329.496,47.840 330.000 C 48.247 330.504,48.769 331.116,48.999 331.359 C 49.357 331.737,50.082 332.560,51.387 334.066 C 54.697 337.888,64.207 347.256,67.893 350.325 C 68.063 350.467,68.401 350.771,68.643 351.001 C 68.885 351.231,69.496 351.753,70.000 352.160 C 70.504 352.568,71.037 353.017,71.184 353.159 C 71.331 353.301,71.743 353.654,72.101 353.945 C 74.061 355.538,75.296 356.549,75.667 356.863 C 75.896 357.058,76.496 357.519,77.000 357.888 C 77.504 358.258,77.954 358.608,78.000 358.667 C 78.046 358.727,78.796 359.288,79.667 359.915 C 80.537 360.542,81.325 361.141,81.417 361.246 C 81.508 361.352,81.827 361.580,82.125 361.755 C 82.423 361.929,82.667 362.131,82.667 362.203 C 82.667 362.275,82.779 362.333,82.917 362.333 C 83.054 362.333,83.167 362.397,83.167 362.474 C 83.167 362.551,83.429 362.756,83.750 362.928 C 84.071 363.101,84.333 363.284,84.333 363.335 C 84.333 363.386,84.577 363.571,84.875 363.746 C 85.173 363.921,86.072 364.537,86.874 365.115 C 87.675 365.693,88.400 366.167,88.485 366.167 C 88.570 366.167,88.664 366.223,88.694 366.292 C 88.745 366.405,89.819 367.137,91.333 368.089 C 91.654 368.290,92.554 368.865,93.333 369.366 C 94.112 369.867,95.013 370.421,95.333 370.597 C 95.654 370.773,95.954 370.959,96.000 371.010 C 96.103 371.125,98.654 372.667,98.742 372.667 C 98.797 372.667,101.764 374.370,102.500 374.823 C 102.638 374.908,103.237 375.226,103.832 375.530 C 104.427 375.835,104.989 376.144,105.082 376.219 C 105.300 376.396,105.946 376.727,110.750 379.125 C 115.205 381.350,115.434 381.459,119.083 383.077 C 119.358 383.198,119.808 383.390,120.083 383.502 C 120.358 383.614,120.696 383.772,120.833 383.854 C 120.971 383.935,121.196 384.045,121.333 384.099 C 121.471 384.152,122.783 384.683,124.250 385.279 C 127.556 386.622,128.345 386.927,131.167 387.955 C 134.322 389.104,134.347 389.113,136.667 389.858 C 137.813 390.226,139.012 390.624,139.333 390.742 C 139.654 390.859,140.367 391.087,140.917 391.248 C 141.467 391.408,142.104 391.599,142.333 391.671 C 142.736 391.798,144.873 392.423,146.583 392.914 C 147.042 393.046,147.867 393.262,148.417 393.396 C 148.967 393.530,150.467 393.905,151.750 394.230 C 154.167 394.842,155.596 395.179,157.167 395.509 C 157.671 395.615,158.533 395.802,159.083 395.925 C 159.633 396.048,160.571 396.230,161.167 396.331 C 161.762 396.432,162.775 396.621,163.417 396.751 C 164.894 397.051,167.079 397.429,168.583 397.646 C 169.225 397.738,170.462 397.926,171.333 398.062 C 172.204 398.199,173.704 398.395,174.667 398.499 C 175.629 398.603,177.242 398.792,178.250 398.919 C 180.039 399.145,181.011 399.225,188.583 399.767 C 192.892 400.076,208.952 400.025,212.917 399.690 C 214.200 399.582,216.225 399.417,217.417 399.324 C 218.608 399.232,220.558 399.043,221.750 398.906 C 222.942 398.769,224.629 398.578,225.500 398.483 C 226.371 398.388,227.721 398.207,228.500 398.081 C 229.279 397.955,230.517 397.766,231.250 397.662 C 233.197 397.384,238.170 396.480,240.417 395.995 C 240.783 395.916,241.683 395.732,242.417 395.586 C 244.369 395.197,249.831 393.886,250.403 393.669 C 250.594 393.597,251.162 393.448,251.667 393.340 C 252.171 393.231,252.921 393.040,253.333 392.916 C 253.746 392.791,254.421 392.600,254.833 392.490 C 255.246 392.380,255.883 392.195,256.250 392.079 C 256.617 391.963,257.254 391.774,257.667 391.658 C 258.520 391.420,262.162 390.262,262.917 389.989 C 263.192 389.889,263.867 389.667,264.417 389.495 C 265.547 389.141,267.306 388.520,268.667 387.995 C 269.171 387.801,269.771 387.582,270.000 387.509 C 270.443 387.367,273.587 386.144,275.667 385.304 C 276.354 385.026,276.988 384.732,277.075 384.650 C 277.162 384.567,277.335 384.500,277.460 384.500 C 277.585 384.500,278.114 384.305,278.635 384.067 C 279.157 383.829,279.979 383.454,280.463 383.234 C 280.947 383.014,281.376 382.833,281.418 382.833 C 281.498 382.833,282.992 382.144,285.833 380.795 C 289.378 379.113,294.953 376.249,296.835 375.144 C 297.247 374.902,298.108 374.424,298.750 374.082 C 299.392 373.739,300.029 373.371,300.167 373.264 C 300.304 373.157,300.640 372.960,300.912 372.826 C 301.184 372.693,301.784 372.331,302.245 372.023 C 302.706 371.715,303.233 371.396,303.417 371.315 C 303.768 371.159,304.096 370.963,304.915 370.417 C 305.190 370.233,305.678 369.943,305.999 369.771 C 306.321 369.599,306.621 369.408,306.667 369.347 C 306.712 369.285,307.462 368.791,308.333 368.248 C 309.204 367.705,309.942 367.202,309.972 367.131 C 310.003 367.059,310.087 367.000,310.158 367.000 C 310.269 367.000,311.742 366.060,312.917 365.240 C 314.613 364.055,320.258 359.959,320.328 359.863 C 320.377 359.795,320.829 359.444,321.333 359.083 C 322.438 358.292,325.975 355.541,326.355 355.177 C 326.504 355.034,326.769 354.804,326.944 354.667 C 327.407 354.303,329.236 352.773,329.333 352.668 C 329.379 352.619,329.826 352.242,330.326 351.831 C 330.826 351.420,331.433 350.896,331.675 350.667 C 331.917 350.438,332.333 350.070,332.599 349.849 C 333.253 349.309,336.251 346.583,337.105 345.753 C 343.462 339.573,347.128 335.769,350.417 331.938 C 350.508 331.831,350.883 331.404,351.250 330.988 C 352.257 329.846,352.653 329.379,353.919 327.833 C 354.558 327.054,355.161 326.342,355.258 326.250 C 355.356 326.158,355.655 325.783,355.923 325.417 C 356.191 325.050,356.586 324.551,356.802 324.308 C 357.017 324.064,357.714 323.164,358.350 322.308 C 358.987 321.451,359.664 320.581,359.854 320.375 L 360.202 320.000 200.012 320.000 L 39.823 320.000 40.525 320.958 " stroke="none" fill="#b4dcf4" fill-rule="evenodd"></path><path id="path2" d="M39.383 80.625 C 39.127 80.969,38.747 81.438,38.540 81.667 C 38.333 81.896,38.121 82.215,38.070 82.375 C 38.019 82.535,37.908 82.667,37.822 82.667 C 37.737 82.667,37.667 82.779,37.667 82.917 C 37.667 83.054,37.608 83.167,37.536 83.167 C 37.464 83.167,37.264 83.405,37.093 83.696 C 36.921 83.987,36.683 84.343,36.564 84.488 C 36.067 85.091,33.833 88.374,33.833 88.501 C 33.833 88.577,33.777 88.664,33.708 88.694 C 33.638 88.725,33.246 89.275,32.836 89.917 C 32.426 90.558,32.046 91.121,31.991 91.167 C 31.936 91.212,31.747 91.513,31.571 91.833 C 31.394 92.154,31.207 92.454,31.155 92.500 C 30.955 92.677,29.167 95.672,29.167 95.832 C 29.167 95.924,29.105 96.000,29.030 96.000 C 28.954 96.000,28.726 96.319,28.523 96.708 C 28.320 97.098,28.084 97.529,27.998 97.667 C 27.913 97.804,27.529 98.442,27.146 99.083 C 26.452 100.247,26.259 100.584,25.471 102.000 C 25.242 102.412,24.803 103.200,24.496 103.750 C 24.188 104.300,23.690 105.200,23.390 105.750 C 22.746 106.927,19.258 113.934,18.537 115.500 C 18.263 116.096,17.775 117.146,17.453 117.833 C 17.131 118.521,16.517 119.936,16.089 120.978 C 15.661 122.020,15.247 122.995,15.169 123.145 C 15.091 123.294,14.824 123.942,14.576 124.583 C 14.328 125.225,14.030 125.975,13.914 126.250 C 13.499 127.227,12.985 128.565,12.408 130.167 C 12.160 130.854,11.859 131.642,11.739 131.917 C 11.619 132.192,11.220 133.317,10.852 134.417 C 10.484 135.517,10.106 136.642,10.011 136.917 C 9.665 137.920,9.021 139.952,8.586 141.417 C 8.341 142.242,8.065 143.142,7.973 143.417 C 7.882 143.692,7.634 144.554,7.423 145.333 C 7.212 146.112,6.835 147.500,6.585 148.417 C 6.335 149.333,6.074 150.346,6.003 150.667 C 5.865 151.299,5.288 153.694,4.920 155.167 C 4.793 155.671,4.605 156.533,4.500 157.083 C 4.321 158.024,4.086 159.045,3.895 159.708 C 3.815 159.986,13.232 160.000,199.999 160.000 C 334.775 160.000,396.153 159.946,396.080 159.828 C 396.022 159.733,395.798 158.815,395.582 157.786 C 394.926 154.656,394.699 153.665,394.158 151.583 C 393.872 150.483,393.502 149.058,393.336 148.417 C 393.169 147.775,392.907 146.800,392.752 146.250 C 392.598 145.700,392.415 145.025,392.345 144.750 C 392.276 144.475,392.134 143.987,392.029 143.667 C 391.925 143.346,391.643 142.408,391.403 141.583 C 391.163 140.758,390.870 139.821,390.751 139.500 C 390.633 139.179,390.445 138.579,390.334 138.167 C 390.223 137.754,390.064 137.243,389.982 137.032 C 389.899 136.820,389.498 135.657,389.090 134.448 C 388.682 133.239,388.190 131.837,387.996 131.333 C 387.801 130.829,387.503 130.042,387.332 129.583 C 387.162 129.125,386.802 128.188,386.532 127.500 C 385.153 123.981,384.804 123.111,384.672 122.859 C 384.457 122.449,383.854 121.064,383.508 120.187 C 383.341 119.762,382.933 118.828,382.602 118.112 C 382.271 117.395,382.000 116.764,382.000 116.708 C 382.000 116.607,376.622 105.838,375.944 104.581 C 375.746 104.214,375.385 103.576,375.144 103.165 C 374.902 102.753,374.496 102.042,374.241 101.583 C 373.986 101.125,373.641 100.525,373.474 100.250 C 373.306 99.975,373.118 99.638,373.055 99.500 C 372.947 99.265,371.517 96.881,371.155 96.333 C 371.065 96.196,370.946 95.952,370.892 95.792 C 370.839 95.631,370.745 95.500,370.685 95.500 C 370.625 95.500,370.430 95.219,370.253 94.875 C 370.075 94.531,369.727 93.950,369.480 93.583 C 368.993 92.861,367.203 90.095,366.922 89.632 C 366.411 88.786,364.168 85.556,362.289 82.958 L 360.148 80.000 199.999 80.000 L 39.850 80.000 39.383 80.625 M3.895 240.292 C 4.086 240.955,4.321 241.976,4.500 242.917 C 4.605 243.467,4.792 244.329,4.917 244.833 C 5.042 245.338,5.339 246.575,5.577 247.583 C 6.003 249.384,6.161 249.997,6.841 252.500 C 7.028 253.188,7.318 254.281,7.486 254.929 C 7.654 255.578,7.874 256.365,7.976 256.679 C 8.350 257.835,8.964 259.790,9.411 261.250 C 9.664 262.075,9.944 262.937,10.034 263.165 C 10.123 263.393,10.519 264.556,10.914 265.748 C 11.310 266.941,11.726 268.142,11.840 268.417 C 11.954 268.692,12.141 269.142,12.257 269.417 C 12.372 269.692,12.580 270.254,12.718 270.667 C 12.856 271.079,13.060 271.642,13.172 271.917 C 13.283 272.192,13.433 272.567,13.505 272.750 C 14.076 274.215,15.063 276.675,15.244 277.083 C 15.365 277.358,15.627 277.949,15.826 278.396 C 16.025 278.843,16.325 279.555,16.493 279.979 C 17.382 282.229,21.368 290.473,23.271 294.000 C 23.691 294.779,24.258 295.829,24.530 296.333 C 24.802 296.837,25.157 297.475,25.318 297.750 C 25.733 298.457,26.403 299.649,26.770 300.333 C 26.942 300.654,27.128 300.954,27.183 301.000 C 27.238 301.046,27.512 301.496,27.791 302.000 C 28.751 303.732,28.917 303.998,29.042 303.999 C 29.110 304.000,29.167 304.076,29.167 304.168 C 29.167 304.328,30.955 307.323,31.155 307.500 C 31.207 307.546,31.396 307.846,31.575 308.167 C 31.754 308.487,31.962 308.825,32.037 308.917 C 32.451 309.418,33.500 311.038,33.500 311.174 C 33.500 311.262,33.575 311.333,33.667 311.333 C 33.758 311.333,33.833 311.402,33.833 311.485 C 33.833 311.622,36.038 314.873,36.564 315.512 C 36.683 315.657,36.921 316.013,37.093 316.304 C 37.264 316.595,37.464 316.833,37.536 316.833 C 37.608 316.833,37.667 316.946,37.667 317.083 C 37.667 317.221,37.737 317.333,37.822 317.333 C 37.908 317.333,38.019 317.465,38.070 317.625 C 38.121 317.785,38.333 318.104,38.540 318.333 C 38.747 318.563,39.127 319.031,39.384 319.375 L 39.850 320.000 200.032 319.958 L 360.214 319.917 362.565 316.645 C 363.859 314.845,365.009 313.232,365.123 313.061 C 365.236 312.890,365.649 312.277,366.040 311.699 C 366.430 311.121,366.863 310.472,367.000 310.256 C 367.137 310.041,367.697 309.164,368.242 308.307 C 368.788 307.451,369.276 306.712,369.326 306.667 C 369.454 306.549,369.761 306.031,370.190 305.208 C 370.393 304.819,370.612 304.500,370.677 304.500 C 370.741 304.500,370.839 304.369,370.892 304.208 C 370.946 304.048,371.065 303.804,371.155 303.667 C 371.517 303.119,372.947 300.735,373.055 300.500 C 373.118 300.362,373.307 300.025,373.474 299.750 C 373.771 299.262,374.183 298.532,375.401 296.333 C 375.731 295.737,376.072 295.137,376.159 295.000 C 376.395 294.626,381.745 283.867,382.126 283.000 C 382.307 282.587,382.653 281.817,382.894 281.287 C 383.136 280.758,383.333 280.284,383.333 280.235 C 383.333 280.186,383.527 279.719,383.763 279.198 C 384.000 278.677,384.273 278.063,384.370 277.833 C 384.467 277.604,384.644 277.192,384.762 276.917 C 385.289 275.692,386.593 272.378,387.614 269.667 C 387.839 269.071,388.126 268.321,388.254 268.000 C 388.381 267.679,388.948 265.992,389.514 264.250 C 390.079 262.508,390.639 260.821,390.757 260.500 C 390.875 260.179,391.168 259.242,391.408 258.417 C 391.647 257.592,391.928 256.654,392.032 256.333 C 392.135 256.012,392.276 255.525,392.345 255.250 C 392.415 254.975,392.598 254.300,392.752 253.750 C 392.907 253.200,393.169 252.225,393.336 251.583 C 393.502 250.942,393.872 249.517,394.158 248.417 C 394.444 247.317,394.793 245.892,394.934 245.250 C 395.386 243.193,395.996 240.254,395.998 240.125 C 395.999 240.056,307.757 240.000,199.905 240.000 C 13.228 240.000,3.815 240.014,3.895 240.292 " stroke="none" fill="#f4bcd4" fill-rule="evenodd"></path></g></svg>