<svg id="svg" version="1.1" xmlns="http://www.w3.org/2000/svg" xmlns:xlink="http://www.w3.org/1999/xlink" viewBox="0, 0, 400,400"><g id="svgg"><path id="path0" d="M187.917 0.261 C 186.267 0.388,183.829 0.573,182.500 0.671 C 181.171 0.769,179.258 0.953,178.250 1.079 C 177.242 1.206,175.667 1.393,174.750 1.496 C 173.833 1.598,172.408 1.785,171.583 1.911 C 170.758 2.037,169.521 2.224,168.833 2.325 C 166.789 2.628,164.660 2.991,163.417 3.249 C 162.775 3.382,161.575 3.612,160.750 3.759 C 159.925 3.907,158.987 4.091,158.667 4.169 C 158.346 4.246,157.633 4.399,157.083 4.508 C 156.055 4.712,154.773 5.011,153.167 5.421 C 152.662 5.549,151.762 5.773,151.167 5.918 C 149.845 6.240,147.541 6.842,145.750 7.334 C 145.017 7.535,144.342 7.713,144.250 7.729 C 144.158 7.745,143.858 7.839,143.583 7.939 C 143.308 8.039,142.821 8.198,142.500 8.293 C 138.502 9.480,133.979 11.001,129.500 12.666 C 128.813 12.922,127.837 13.283,127.333 13.469 C 126.376 13.823,122.460 15.447,121.167 16.027 C 120.754 16.212,120.229 16.439,120.000 16.533 C 119.390 16.780,118.660 17.108,115.250 18.666 C 113.282 19.565,105.187 23.646,105.000 23.833 C 104.954 23.879,104.542 24.113,104.083 24.354 C 102.339 25.269,98.851 27.247,97.667 27.992 C 97.529 28.079,97.117 28.311,96.750 28.510 C 96.383 28.708,96.046 28.918,96.000 28.977 C 95.954 29.035,95.654 29.227,95.333 29.403 C 93.916 30.180,84.725 36.273,84.196 36.786 C 84.075 36.904,83.921 37.000,83.853 37.000 C 83.785 37.000,83.584 37.134,83.406 37.299 C 83.229 37.463,82.708 37.852,82.250 38.163 C 81.792 38.474,81.379 38.775,81.333 38.833 C 81.287 38.891,80.650 39.377,79.917 39.913 C 79.183 40.449,78.546 40.932,78.500 40.986 C 78.454 41.041,77.967 41.419,77.417 41.827 C 76.867 42.235,76.004 42.897,75.500 43.298 C 74.996 43.700,74.433 44.146,74.250 44.290 C 74.067 44.435,73.653 44.785,73.330 45.068 C 73.007 45.351,72.453 45.808,72.098 46.083 C 71.744 46.358,71.370 46.663,71.269 46.760 C 71.167 46.857,70.558 47.374,69.917 47.909 C 69.275 48.443,68.675 48.964,68.583 49.065 C 68.492 49.167,67.817 49.772,67.083 50.409 C 63.892 53.185,59.508 57.432,54.542 62.560 C 53.327 63.814,52.333 64.873,52.333 64.912 C 52.333 64.952,52.088 65.231,51.789 65.534 C 51.489 65.836,50.796 66.608,50.248 67.250 C 49.700 67.892,49.168 68.492,49.065 68.583 C 48.963 68.675,48.290 69.462,47.569 70.333 C 46.848 71.204,46.217 71.954,46.165 72.000 C 46.114 72.046,45.900 72.308,45.689 72.583 C 45.478 72.858,45.069 73.346,44.778 73.667 C 44.488 73.987,44.033 74.550,43.767 74.917 C 43.501 75.283,43.201 75.658,43.100 75.750 C 42.999 75.842,42.584 76.367,42.176 76.917 C 41.769 77.467,41.376 77.942,41.301 77.972 C 41.227 78.003,41.167 78.128,41.167 78.250 C 41.167 78.372,41.110 78.497,41.040 78.528 C 40.971 78.558,40.665 78.902,40.360 79.292 L 39.805 80.000 200.028 79.995 C 326.003 79.991,360.196 79.946,359.996 79.786 C 359.857 79.675,359.447 79.171,359.085 78.667 C 358.524 77.885,356.281 75.014,355.366 73.907 C 355.211 73.719,354.563 72.932,353.926 72.157 C 353.290 71.383,352.728 70.712,352.676 70.667 C 352.625 70.621,352.210 70.133,351.754 69.583 C 351.298 69.033,350.810 68.471,350.669 68.333 C 350.527 68.196,349.888 67.486,349.248 66.755 C 348.607 66.024,347.802 65.137,347.458 64.783 C 347.115 64.430,346.833 64.106,346.833 64.065 C 346.833 63.972,341.096 58.129,339.250 56.341 C 336.837 54.005,335.956 53.167,335.913 53.167 C 335.890 53.167,335.543 52.848,335.142 52.458 C 334.741 52.069,333.897 51.300,333.267 50.750 C 332.637 50.200,331.922 49.563,331.678 49.333 C 331.435 49.104,330.826 48.580,330.326 48.169 C 329.826 47.758,329.379 47.378,329.333 47.326 C 329.287 47.273,328.612 46.711,327.833 46.076 C 327.054 45.442,326.379 44.878,326.333 44.824 C 326.182 44.646,322.268 41.589,321.333 40.918 C 320.829 40.557,320.377 40.205,320.328 40.137 C 320.279 40.069,318.666 38.886,316.744 37.508 C 314.822 36.130,313.175 34.942,313.083 34.867 C 312.992 34.793,312.317 34.346,311.583 33.874 C 308.924 32.164,306.913 30.847,306.750 30.708 C 306.658 30.630,306.471 30.513,306.333 30.448 C 306.196 30.383,305.879 30.199,305.630 30.040 C 304.967 29.616,301.689 27.638,301.004 27.250 C 300.681 27.066,300.139 26.744,299.800 26.533 C 299.051 26.068,297.325 25.108,296.417 24.652 C 296.050 24.468,295.525 24.177,295.250 24.006 C 294.975 23.834,294.075 23.344,293.250 22.918 C 292.425 22.491,291.262 21.889,290.667 21.580 C 288.374 20.389,283.197 17.946,280.083 16.585 C 279.808 16.464,279.157 16.171,278.635 15.933 C 278.114 15.695,277.585 15.500,277.460 15.500 C 277.335 15.500,277.162 15.433,277.075 15.350 C 276.880 15.166,273.515 13.816,269.333 12.244 C 266.979 11.359,260.986 9.351,258.417 8.586 C 257.592 8.341,256.617 8.043,256.250 7.925 C 255.883 7.807,255.246 7.620,254.833 7.510 C 254.421 7.400,253.746 7.209,253.333 7.084 C 252.921 6.960,252.171 6.769,251.667 6.660 C 251.162 6.552,250.590 6.402,250.396 6.327 C 250.201 6.253,249.526 6.071,248.896 5.922 C 248.265 5.773,246.850 5.433,245.750 5.167 C 242.839 4.461,239.886 3.850,237.689 3.499 C 237.106 3.406,236.554 3.284,236.464 3.228 C 236.374 3.172,235.876 3.071,235.358 3.003 C 234.840 2.935,233.442 2.720,232.250 2.524 C 228.976 1.985,227.073 1.705,225.417 1.516 C 224.592 1.422,222.942 1.233,221.750 1.096 C 220.558 0.959,218.608 0.770,217.417 0.677 C 216.225 0.583,214.200 0.418,212.917 0.309 C 209.345 0.006,191.650 -0.028,187.917 0.261 " stroke="none" fill="#f3bcd4" fill-rule="evenodd"></path><path id="path1" d="M199.981 159.958 L 3.879 160.000 3.681 161.042 C 3.572 161.615,3.381 162.608,3.256 163.250 C 3.023 164.448,2.713 166.198,2.576 167.083 C 2.534 167.358,2.427 168.033,2.340 168.583 C -0.131 184.082,-0.724 201.623,0.675 217.833 C 0.842 219.772,1.196 223.072,1.514 225.667 C 1.678 227.000,1.881 228.405,2.334 231.333 C 2.440 232.021,2.555 232.771,2.590 233.000 C 2.733 233.943,3.041 235.650,3.250 236.667 C 3.373 237.262,3.563 238.256,3.672 238.875 L 3.871 240.000 200.019 240.042 L 396.167 240.083 396.167 239.721 C 396.167 239.522,396.238 238.997,396.324 238.554 C 396.879 235.725,397.436 232.648,397.645 231.250 C 397.741 230.608,397.931 229.333,398.068 228.417 C 398.204 227.500,398.400 226.000,398.503 225.083 C 398.606 224.167,398.793 222.554,398.918 221.500 C 399.135 219.666,399.225 218.583,399.704 212.000 C 399.838 210.163,399.917 205.722,399.917 200.000 C 399.917 194.278,399.838 189.837,399.704 188.000 C 399.225 181.417,399.135 180.334,398.918 178.500 C 398.793 177.446,398.606 175.833,398.502 174.917 C 398.399 174.000,398.210 172.575,398.083 171.750 C 397.956 170.925,397.767 169.650,397.663 168.917 C 397.473 167.573,397.180 165.899,396.759 163.750 C 396.633 163.108,396.441 162.021,396.331 161.333 C 396.221 160.646,396.120 160.046,396.107 160.000 C 396.094 159.954,307.837 159.935,199.981 159.958 " stroke="none" fill="#c4bcdc" fill-rule="evenodd"></path><path id="path2" d="M3.895 240.292 C 4.115 241.058,4.332 242.013,4.509 243.000 C 4.616 243.596,4.805 244.458,4.928 244.917 C 5.136 245.690,5.690 247.974,5.999 249.333 C 6.181 250.136,6.951 253.072,7.149 253.719 C 7.238 254.011,7.399 254.588,7.506 255.000 C 7.613 255.412,7.796 256.050,7.912 256.417 C 8.028 256.783,8.216 257.421,8.330 257.833 C 8.443 258.246,8.630 258.846,8.746 259.167 C 8.861 259.487,9.162 260.425,9.414 261.250 C 9.666 262.075,9.972 263.012,10.093 263.333 C 10.214 263.654,10.402 264.217,10.511 264.583 C 10.620 264.950,10.783 265.438,10.873 265.667 C 10.962 265.896,11.170 266.496,11.333 267.000 C 11.611 267.856,11.709 268.113,12.257 269.417 C 12.372 269.692,12.580 270.254,12.718 270.667 C 12.856 271.079,13.060 271.642,13.172 271.917 C 13.283 272.192,13.433 272.567,13.505 272.750 C 13.576 272.933,13.838 273.608,14.088 274.250 C 14.337 274.892,14.644 275.660,14.770 275.958 C 14.897 276.256,15.102 276.744,15.227 277.042 C 15.679 278.122,15.814 278.433,16.237 279.365 C 16.473 279.886,16.667 280.349,16.667 280.394 C 16.667 280.479,17.478 282.284,18.363 284.167 C 19.200 285.950,22.800 293.174,23.386 294.250 C 24.165 295.678,25.350 297.845,25.620 298.333 C 25.747 298.563,26.038 299.050,26.267 299.417 C 26.496 299.783,26.771 300.290,26.878 300.542 C 26.985 300.794,27.132 301.000,27.203 301.000 C 27.275 301.000,27.333 301.072,27.333 301.161 C 27.333 301.316,28.801 303.831,28.990 304.000 C 29.042 304.046,29.196 304.307,29.334 304.580 C 29.570 305.050,30.825 307.052,31.115 307.422 C 31.189 307.516,31.396 307.854,31.575 308.172 C 31.754 308.490,31.962 308.825,32.037 308.917 C 32.112 309.008,32.490 309.571,32.877 310.167 C 33.264 310.762,33.619 311.287,33.665 311.333 C 33.712 311.379,33.825 311.546,33.917 311.704 C 34.195 312.185,36.549 315.577,36.666 315.667 C 36.726 315.712,36.917 315.994,37.090 316.292 C 37.263 316.590,37.464 316.833,37.536 316.833 C 37.608 316.833,37.667 316.946,37.667 317.083 C 37.667 317.221,37.737 317.333,37.822 317.333 C 37.908 317.333,38.022 317.475,38.077 317.648 C 38.132 317.821,38.344 318.144,38.547 318.365 C 38.750 318.586,39.127 319.045,39.384 319.384 L 39.850 320.000 200.039 319.958 L 360.228 319.917 362.612 316.583 C 363.923 314.750,365.061 313.170,365.142 313.073 C 365.222 312.975,365.386 312.713,365.505 312.490 C 365.624 312.266,365.990 311.708,366.320 311.250 C 366.649 310.792,366.993 310.292,367.084 310.140 C 367.648 309.198,369.254 306.736,369.349 306.667 C 369.412 306.621,369.626 306.283,369.824 305.917 C 370.265 305.100,370.556 304.610,370.667 304.500 C 370.793 304.374,371.113 303.829,371.523 303.042 C 371.726 302.652,371.945 302.333,372.010 302.333 C 372.075 302.333,372.170 302.202,372.222 302.042 C 372.273 301.881,372.539 301.375,372.813 300.917 C 373.086 300.458,373.455 299.821,373.632 299.500 C 374.220 298.437,374.699 297.592,375.144 296.835 C 375.720 295.854,376.122 295.091,378.961 289.583 C 379.551 288.441,381.624 284.121,382.122 283.000 C 382.305 282.587,382.653 281.817,382.894 281.287 C 383.136 280.758,383.333 280.284,383.333 280.235 C 383.333 280.186,383.527 279.719,383.763 279.198 C 384.000 278.677,384.273 278.063,384.370 277.833 C 384.814 276.786,385.061 276.226,385.209 275.931 C 385.298 275.756,385.507 275.231,385.674 274.765 C 385.841 274.298,386.213 273.317,386.500 272.583 C 386.787 271.850,387.162 270.875,387.332 270.417 C 387.503 269.958,387.801 269.171,387.996 268.667 C 388.190 268.162,388.682 266.761,389.090 265.552 C 389.498 264.343,389.899 263.180,389.982 262.968 C 390.064 262.757,390.223 262.246,390.334 261.833 C 390.445 261.421,390.634 260.821,390.754 260.500 C 390.874 260.179,391.168 259.242,391.408 258.417 C 391.648 257.592,391.945 256.579,392.069 256.167 C 392.193 255.754,392.387 255.079,392.501 254.667 C 392.615 254.254,392.803 253.579,392.920 253.167 C 393.037 252.754,393.222 252.042,393.332 251.583 C 393.442 251.125,393.633 250.412,393.755 250.000 C 394.016 249.121,394.412 247.561,394.644 246.500 C 394.734 246.088,394.923 245.262,395.064 244.667 C 395.366 243.397,396.000 240.324,396.000 240.133 C 396.000 240.060,307.757 240.000,199.905 240.000 C 13.228 240.000,3.815 240.014,3.895 240.292 " stroke="none" fill="#3c3c3c" fill-rule="evenodd"></path><path id="path3" d="M39.383 80.616 C 39.127 80.955,38.750 81.414,38.547 81.635 C 38.344 81.856,38.132 82.179,38.077 82.352 C 38.022 82.525,37.908 82.667,37.822 82.667 C 37.737 82.667,37.667 82.779,37.667 82.917 C 37.667 83.054,37.608 83.167,37.536 83.167 C 37.464 83.167,37.264 83.405,37.093 83.696 C 36.921 83.987,36.683 84.343,36.564 84.488 C 36.067 85.091,33.833 88.374,33.833 88.501 C 33.833 88.577,33.777 88.664,33.708 88.694 C 33.640 88.725,33.266 89.237,32.878 89.833 C 32.491 90.429,32.112 90.992,32.037 91.083 C 31.962 91.175,31.754 91.510,31.575 91.828 C 31.396 92.146,31.189 92.484,31.115 92.578 C 30.825 92.948,29.570 94.950,29.334 95.420 C 29.196 95.693,29.042 95.954,28.990 96.000 C 28.801 96.169,27.333 98.684,27.333 98.839 C 27.333 98.928,27.275 99.000,27.203 99.000 C 27.132 99.000,26.985 99.206,26.878 99.458 C 26.771 99.710,26.493 100.217,26.260 100.583 C 26.026 100.950,25.783 101.362,25.718 101.499 C 25.608 101.731,23.894 104.857,23.158 106.167 C 22.827 106.756,19.136 114.207,18.410 115.750 C 17.367 117.970,16.688 119.489,16.416 120.214 C 16.252 120.652,16.053 121.050,15.975 121.099 C 15.897 121.147,15.833 121.299,15.833 121.437 C 15.833 121.575,15.642 122.114,15.408 122.635 C 14.654 124.315,14.548 124.564,14.088 125.750 C 13.838 126.392,13.576 127.067,13.505 127.250 C 13.433 127.433,13.283 127.808,13.172 128.083 C 13.060 128.358,12.856 128.921,12.718 129.333 C 12.580 129.746,12.371 130.308,12.253 130.583 C 11.949 131.293,11.597 132.221,11.557 132.417 C 11.538 132.508,11.361 132.996,11.164 133.500 C 10.966 134.004,10.745 134.642,10.673 134.917 C 10.600 135.192,10.414 135.754,10.259 136.167 C 10.104 136.579,9.917 137.142,9.843 137.417 C 9.769 137.692,9.558 138.367,9.374 138.917 C 9.190 139.467,8.833 140.592,8.580 141.417 C 8.327 142.242,8.026 143.217,7.911 143.583 C 7.796 143.950,7.613 144.587,7.506 145.000 C 7.399 145.412,7.238 145.989,7.149 146.281 C 6.947 146.941,6.177 149.880,6.000 150.667 C 5.840 151.376,5.247 153.805,4.982 154.833 C 4.773 155.649,4.570 156.617,4.337 157.917 C 4.255 158.375,4.108 159.012,4.010 159.332 C 3.913 159.652,3.833 159.934,3.833 159.957 C 3.833 159.981,92.071 160.000,199.917 160.000 C 307.762 160.000,396.000 159.940,396.000 159.867 C 396.000 159.683,395.371 156.625,395.085 155.417 C 394.954 154.867,394.655 153.592,394.420 152.583 C 394.185 151.575,393.889 150.412,393.763 150.000 C 393.636 149.587,393.442 148.875,393.332 148.417 C 393.222 147.958,393.037 147.246,392.920 146.833 C 392.803 146.421,392.615 145.746,392.501 145.333 C 392.387 144.921,392.193 144.246,392.069 143.833 C 391.945 143.421,391.648 142.408,391.408 141.583 C 391.168 140.758,390.874 139.821,390.754 139.500 C 390.634 139.179,390.445 138.579,390.334 138.167 C 390.223 137.754,390.066 137.246,389.985 137.038 C 389.904 136.830,389.501 135.668,389.090 134.455 C 388.679 133.242,388.185 131.837,387.992 131.333 C 387.800 130.829,387.503 130.042,387.332 129.583 C 387.162 129.125,386.787 128.150,386.500 127.417 C 386.213 126.683,385.843 125.708,385.679 125.250 C 385.514 124.792,385.151 123.929,384.873 123.333 C 384.594 122.737,384.087 121.575,383.746 120.750 C 383.405 119.925,382.873 118.701,382.563 118.029 C 382.253 117.358,382.000 116.777,382.000 116.738 C 382.000 116.660,379.706 111.862,379.097 110.667 C 377.730 107.982,375.173 103.141,375.003 102.917 C 374.895 102.773,374.459 102.002,373.543 100.333 C 373.417 100.104,373.089 99.542,372.815 99.083 C 372.540 98.625,372.273 98.119,372.222 97.958 C 372.170 97.798,372.075 97.667,372.010 97.667 C 371.945 97.667,371.726 97.348,371.523 96.958 C 371.113 96.171,370.793 95.626,370.667 95.500 C 370.559 95.392,370.270 94.909,369.840 94.116 C 369.650 93.767,369.419 93.392,369.326 93.282 C 369.232 93.173,368.299 91.771,367.253 90.167 C 366.206 88.563,365.290 87.173,365.217 87.079 C 365.143 86.986,364.826 86.536,364.511 86.079 C 364.196 85.623,363.086 84.069,362.043 82.625 L 360.147 80.000 199.999 80.000 L 39.850 80.000 39.383 80.616 " stroke="none" fill="#fcfcf4" fill-rule="evenodd"></path><path id="path4" d="M40.523 320.948 C 40.909 321.470,41.355 322.051,41.515 322.240 C 41.675 322.429,42.304 323.221,42.913 324.000 C 43.522 324.779,44.125 325.545,44.253 325.701 C 44.380 325.858,44.837 326.421,45.267 326.951 C 45.697 327.482,46.099 327.954,46.159 328.000 C 46.220 328.046,46.789 328.721,47.425 329.500 C 48.060 330.279,48.768 331.115,48.998 331.357 C 49.228 331.599,49.630 332.049,49.890 332.357 C 53.747 336.913,61.736 344.905,67.655 350.128 C 67.890 350.336,68.233 350.641,68.417 350.805 C 68.600 350.969,69.275 351.544,69.917 352.083 C 70.558 352.622,71.167 353.143,71.269 353.240 C 71.371 353.337,71.746 353.654,72.102 353.945 C 72.459 354.235,73.283 354.910,73.936 355.445 C 74.588 355.979,75.705 356.867,76.418 357.417 C 77.131 357.967,77.798 358.496,77.899 358.592 C 78.000 358.689,78.796 359.283,79.667 359.912 C 80.537 360.540,81.325 361.140,81.417 361.243 C 81.508 361.346,81.848 361.592,82.172 361.790 C 82.496 361.988,82.984 362.341,83.256 362.574 C 83.528 362.808,83.801 363.000,83.863 363.000 C 83.925 363.000,84.075 363.096,84.196 363.214 C 84.318 363.332,84.754 363.656,85.167 363.935 C 85.579 364.213,86.667 364.953,87.583 365.578 C 89.881 367.147,90.479 367.547,91.250 368.034 C 91.617 368.266,92.554 368.865,93.333 369.366 C 94.112 369.867,95.013 370.421,95.333 370.597 C 95.654 370.773,95.954 370.965,96.000 371.023 C 96.046 371.082,96.383 371.294,96.750 371.493 C 97.117 371.693,97.642 372.000,97.917 372.176 C 98.192 372.352,98.529 372.550,98.667 372.615 C 98.804 372.681,99.517 373.087,100.250 373.519 C 101.960 374.525,103.593 375.436,104.333 375.798 C 104.654 375.955,104.992 376.144,105.083 376.219 C 105.284 376.382,105.626 376.559,110.377 378.946 C 112.415 379.971,114.608 381.047,115.250 381.338 C 115.892 381.629,116.904 382.089,117.500 382.360 C 119.018 383.051,119.510 383.268,120.083 383.502 C 120.358 383.614,120.696 383.761,120.833 383.828 C 121.658 384.232,128.224 386.891,129.417 387.303 C 129.692 387.398,130.704 387.770,131.667 388.129 C 133.873 388.952,134.133 389.042,136.667 389.855 C 137.813 390.222,139.012 390.620,139.333 390.739 C 139.654 390.858,140.367 391.087,140.917 391.248 C 141.467 391.408,142.104 391.599,142.333 391.671 C 142.736 391.798,144.873 392.423,146.583 392.914 C 147.042 393.046,147.867 393.263,148.417 393.397 C 148.967 393.531,150.317 393.875,151.417 394.162 C 152.517 394.449,153.717 394.749,154.083 394.829 C 157.496 395.572,159.002 395.888,160.500 396.176 C 161.462 396.360,162.775 396.617,163.417 396.746 C 164.713 397.007,167.218 397.440,168.750 397.668 C 169.300 397.750,170.462 397.928,171.333 398.064 C 172.204 398.199,173.704 398.395,174.667 398.499 C 175.629 398.603,177.242 398.792,178.250 398.919 C 180.039 399.145,181.011 399.225,188.583 399.767 C 192.892 400.076,208.952 400.025,212.917 399.690 C 214.200 399.582,216.225 399.417,217.417 399.324 C 218.608 399.232,220.558 399.043,221.750 398.906 C 222.942 398.769,224.629 398.578,225.500 398.483 C 226.371 398.388,227.721 398.207,228.500 398.081 C 229.279 397.955,230.517 397.766,231.250 397.662 C 232.705 397.454,234.509 397.142,236.583 396.739 C 237.317 396.596,238.329 396.403,238.833 396.309 C 239.338 396.216,240.050 396.074,240.417 395.995 C 240.783 395.916,241.683 395.732,242.417 395.586 C 244.369 395.197,249.831 393.886,250.403 393.669 C 250.594 393.597,251.162 393.448,251.667 393.340 C 252.171 393.231,252.921 393.036,253.333 392.907 C 253.746 392.778,254.758 392.482,255.583 392.250 C 256.408 392.018,257.383 391.742,257.750 391.636 C 258.849 391.320,265.038 389.323,265.667 389.082 C 265.987 388.959,266.813 388.660,267.500 388.417 C 268.908 387.919,269.449 387.718,271.000 387.116 C 275.454 385.387,276.937 384.785,277.075 384.652 C 277.162 384.569,277.335 384.500,277.460 384.500 C 277.585 384.500,278.114 384.305,278.635 384.067 C 279.157 383.829,279.979 383.454,280.463 383.234 C 280.947 383.014,281.376 382.833,281.418 382.833 C 281.498 382.833,283.026 382.124,286.083 380.668 C 289.772 378.911,294.953 376.249,296.835 375.144 C 297.247 374.902,298.108 374.424,298.750 374.082 C 299.392 373.739,300.035 373.356,300.180 373.230 C 300.325 373.103,300.494 373.000,300.557 373.000 C 300.649 373.000,302.639 371.822,303.667 371.159 C 303.804 371.070,304.029 370.950,304.167 370.891 C 304.304 370.832,304.642 370.619,304.917 370.417 C 305.192 370.215,305.679 369.915,306.000 369.751 C 306.321 369.588,306.621 369.404,306.667 369.344 C 306.734 369.256,308.948 367.810,310.137 367.078 C 310.671 366.749,312.918 365.265,313.083 365.131 C 313.175 365.058,314.822 363.870,316.744 362.492 C 318.666 361.114,320.279 359.931,320.328 359.863 C 320.377 359.795,320.829 359.442,321.333 359.079 C 322.395 358.315,326.210 355.343,326.333 355.185 C 326.379 355.126,327.054 354.558,327.833 353.924 C 328.612 353.289,329.287 352.727,329.333 352.674 C 329.379 352.622,329.828 352.242,330.332 351.831 C 330.835 351.420,331.397 350.932,331.582 350.747 C 331.766 350.562,332.217 350.157,332.583 349.846 C 336.210 346.771,346.064 336.955,349.366 333.127 C 349.545 332.920,350.125 332.262,350.656 331.667 C 351.186 331.071,351.836 330.321,352.099 330.000 C 352.362 329.679,352.621 329.379,352.674 329.333 C 352.727 329.287,353.290 328.612,353.925 327.833 C 354.561 327.054,355.161 326.342,355.258 326.250 C 355.356 326.158,355.652 325.783,355.917 325.417 C 356.182 325.050,356.441 324.712,356.492 324.667 C 356.674 324.503,358.440 322.234,359.085 321.333 C 359.447 320.829,359.857 320.325,359.996 320.214 C 360.196 320.054,326.005 320.009,200.036 320.005 L 39.823 320.000 40.523 320.948 " stroke="none" fill="#b4dbf4" fill-rule="evenodd"></path></g></svg>