<svg id="svg" version="1.1" xmlns="http://www.w3.org/2000/svg" xmlns:xlink="http://www.w3.org/1999/xlink" viewBox="0, 0, 400,400"><g id="svgg"><path id="path0" d="M39.384 80.616 C 39.127 80.955,38.750 81.414,38.547 81.635 C 38.344 81.856,38.132 82.179,38.077 82.352 C 38.022 82.525,37.908 82.667,37.822 82.667 C 37.737 82.667,37.667 82.779,37.667 82.917 C 37.667 83.054,37.608 83.167,37.536 83.167 C 37.464 83.167,37.263 83.410,37.090 83.708 C 36.917 84.006,36.727 84.287,36.669 84.333 C 36.611 84.379,35.930 85.352,35.156 86.496 C 34.383 87.640,33.689 88.652,33.614 88.746 C 33.539 88.840,33.020 89.629,32.462 90.500 C 31.903 91.371,31.026 92.721,30.514 93.500 C 30.002 94.279,29.471 95.142,29.333 95.417 C 29.196 95.692,29.040 95.954,28.986 96.000 C 28.932 96.046,28.669 96.457,28.402 96.913 C 28.135 97.370,27.826 97.895,27.715 98.080 C 27.604 98.265,27.460 98.529,27.395 98.667 C 27.330 98.804,27.041 99.292,26.753 99.750 C 26.465 100.208,26.177 100.696,26.113 100.833 C 26.049 100.971,25.861 101.308,25.695 101.583 C 25.529 101.858,25.067 102.683,24.668 103.417 C 24.268 104.150,23.755 105.087,23.527 105.500 C 22.860 106.707,19.287 113.834,18.847 114.834 C 18.626 115.338,18.091 116.500,17.658 117.417 C 17.225 118.333,16.626 119.683,16.328 120.417 C 16.030 121.150,15.721 121.821,15.643 121.908 C 15.564 121.995,15.500 122.164,15.500 122.283 C 15.500 122.402,15.285 122.968,15.023 123.541 C 14.760 124.114,14.452 124.846,14.338 125.167 C 14.224 125.487,14.034 125.975,13.916 126.250 C 13.798 126.525,13.628 126.938,13.538 127.167 C 13.448 127.396,13.283 127.808,13.172 128.083 C 13.060 128.358,12.856 128.921,12.718 129.333 C 12.580 129.746,12.372 130.308,12.256 130.583 C 12.140 130.858,11.841 131.646,11.593 132.333 C 11.345 133.021,11.044 133.846,10.926 134.167 C 10.807 134.487,10.621 135.050,10.512 135.417 C 10.402 135.783,10.214 136.346,10.093 136.667 C 9.971 136.987,9.665 137.925,9.412 138.750 C 9.159 139.575,8.774 140.813,8.556 141.500 C 7.993 143.277,7.734 144.142,7.508 145.000 C 7.400 145.412,7.238 145.989,7.149 146.281 C 6.947 146.941,6.177 149.880,6.000 150.667 C 5.927 150.987,5.711 151.887,5.519 152.667 C 5.327 153.446,5.048 154.646,4.898 155.333 C 4.749 156.021,4.561 156.756,4.480 156.966 C 4.399 157.177,4.333 157.566,4.333 157.830 C 4.333 158.095,4.269 158.485,4.191 158.697 C 4.113 158.910,3.999 159.290,3.938 159.542 L 3.827 160.000 199.913 160.000 C 307.761 160.000,396.000 159.940,396.000 159.867 C 396.000 159.683,395.371 156.625,395.085 155.417 C 394.954 154.867,394.655 153.592,394.420 152.583 C 394.185 151.575,393.889 150.412,393.763 150.000 C 393.636 149.587,393.442 148.875,393.332 148.417 C 393.222 147.958,393.037 147.246,392.920 146.833 C 392.803 146.421,392.615 145.746,392.501 145.333 C 392.387 144.921,392.193 144.246,392.069 143.833 C 391.945 143.421,391.648 142.408,391.408 141.583 C 391.168 140.758,390.874 139.821,390.754 139.500 C 390.634 139.179,390.445 138.579,390.334 138.167 C 390.223 137.754,390.064 137.243,389.982 137.032 C 389.899 136.820,389.498 135.657,389.090 134.448 C 388.682 133.239,388.190 131.837,387.996 131.333 C 387.801 130.829,387.503 130.042,387.332 129.583 C 387.162 129.125,386.787 128.150,386.500 127.417 C 386.213 126.683,385.842 125.704,385.675 125.240 C 385.509 124.776,385.187 123.989,384.959 123.490 C 384.057 121.512,383.800 120.928,383.508 120.187 C 383.341 119.762,382.933 118.828,382.602 118.112 C 382.271 117.395,382.000 116.781,382.000 116.746 C 382.000 116.670,379.654 111.764,379.053 110.583 C 376.855 106.264,375.071 102.946,374.211 101.577 C 374.098 101.397,373.852 100.950,373.663 100.583 C 373.475 100.217,373.096 99.542,372.822 99.083 C 372.547 98.625,372.274 98.138,372.215 98.000 C 372.156 97.862,372.061 97.712,372.004 97.667 C 371.827 97.525,370.833 95.837,370.833 95.678 C 370.833 95.595,370.770 95.503,370.692 95.472 C 370.614 95.442,370.304 94.972,370.003 94.428 C 369.702 93.884,369.390 93.359,369.310 93.261 C 369.230 93.163,367.942 91.246,366.449 89.000 C 364.955 86.754,362.944 83.829,361.979 82.500 L 360.224 80.083 200.037 80.042 L 39.850 80.000 39.384 80.616 " stroke="none" fill="#fcd494" fill-rule="evenodd"></path><path id="path1" d="M3.682 161.042 C 3.574 161.615,3.381 162.646,3.252 163.333 C 3.123 164.021,2.926 165.033,2.814 165.583 C 2.702 166.133,2.593 166.784,2.573 167.028 C 2.536 167.464,2.381 168.477,1.913 171.333 C 1.786 172.112,1.599 173.500,1.498 174.417 C 1.397 175.333,1.206 176.871,1.073 177.833 C 0.940 178.796,0.833 179.883,0.834 180.250 C 0.835 180.617,0.762 181.629,0.670 182.500 C -0.276 191.515,-0.276 208.485,0.670 217.500 C 0.762 218.371,0.835 219.383,0.834 219.750 C 0.833 220.117,0.940 221.204,1.073 222.167 C 1.206 223.129,1.398 224.667,1.499 225.583 C 1.672 227.144,1.948 229.028,2.357 231.447 C 2.453 232.013,2.551 232.688,2.574 232.947 C 2.597 233.205,2.710 233.904,2.824 234.500 C 2.939 235.096,3.134 236.108,3.258 236.750 C 3.382 237.392,3.572 238.385,3.681 238.958 L 3.879 240.000 200.023 240.042 L 396.167 240.083 396.167 239.721 C 396.167 239.522,396.245 238.959,396.341 238.471 C 396.437 237.983,396.619 237.058,396.746 236.417 C 397.311 233.560,398.117 228.366,398.492 225.167 C 399.168 219.394,399.173 219.342,399.705 212.000 C 399.990 208.073,399.989 191.913,399.704 188.000 C 399.225 181.417,399.135 180.334,398.918 178.500 C 398.793 177.446,398.606 175.833,398.503 174.917 C 398.168 171.930,397.228 165.892,396.752 163.667 C 396.625 163.071,396.426 162.002,396.311 161.292 L 396.100 160.000 199.990 160.000 L 3.879 160.000 3.682 161.042 " stroke="none" fill="#fcfcf4" fill-rule="evenodd"></path><path id="path2" d="M3.895 240.292 C 4.074 240.916,4.318 241.960,4.508 242.917 C 4.713 243.947,5.055 245.418,5.361 246.578 C 5.457 246.942,5.567 247.430,5.606 247.662 C 5.645 247.894,5.717 248.196,5.767 248.333 C 5.816 248.471,5.918 248.883,5.992 249.250 C 6.066 249.617,6.368 250.779,6.664 251.833 C 6.960 252.887,7.339 254.275,7.507 254.917 C 7.675 255.558,8.049 256.833,8.339 257.750 C 8.628 258.667,8.924 259.642,8.997 259.917 C 9.213 260.735,11.260 266.756,12.086 269.000 C 12.960 271.373,13.253 272.130,13.994 273.917 C 14.070 274.100,14.750 275.750,15.505 277.583 C 17.868 283.319,22.562 293.059,24.421 296.083 C 24.534 296.267,24.868 296.867,25.163 297.417 C 25.459 297.967,26.425 299.641,27.309 301.137 C 28.193 302.633,29.095 304.170,29.312 304.553 C 29.530 304.937,29.886 305.489,30.104 305.781 C 30.322 306.072,30.500 306.360,30.500 306.420 C 30.500 306.480,30.718 306.841,30.984 307.223 C 31.251 307.604,32.258 309.117,33.222 310.583 C 34.187 312.050,35.324 313.737,35.749 314.333 C 36.174 314.929,36.716 315.717,36.953 316.083 C 37.189 316.450,37.436 316.787,37.500 316.833 C 37.564 316.879,37.809 317.223,38.044 317.598 C 38.278 317.973,38.571 318.386,38.694 318.515 C 38.816 318.644,39.127 319.031,39.383 319.375 L 39.850 320.000 199.979 320.041 L 360.109 320.083 362.375 316.917 C 363.622 315.175,365.657 312.212,366.898 310.333 C 368.138 308.454,369.213 306.838,369.285 306.741 C 369.527 306.418,369.834 305.919,369.947 305.667 C 370.009 305.529,370.546 304.629,371.140 303.667 C 374.446 298.313,379.115 289.543,381.876 283.500 C 382.872 281.319,383.162 280.659,383.743 279.246 C 384.082 278.423,384.495 277.450,384.661 277.083 C 385.236 275.813,386.708 272.103,387.371 270.250 C 387.469 269.975,387.642 269.525,387.755 269.250 C 387.867 268.975,388.087 268.375,388.243 267.917 C 388.398 267.458,388.591 266.933,388.671 266.750 C 388.750 266.567,389.204 265.217,389.680 263.750 C 390.155 262.283,390.637 260.821,390.751 260.500 C 390.991 259.823,391.657 257.645,391.847 256.917 C 391.918 256.642,392.098 256.004,392.246 255.500 C 392.681 254.022,393.013 252.829,393.336 251.583 C 393.502 250.942,393.872 249.517,394.158 248.417 C 394.444 247.317,394.782 245.929,394.911 245.333 C 395.830 241.063,396.000 240.251,396.000 240.133 C 396.000 240.060,307.757 240.000,199.905 240.000 C 13.228 240.000,3.815 240.014,3.895 240.292 " stroke="none" fill="#f3bcd4" fill-rule="evenodd"></path><path id="path3" d="M187.917 0.261 C 186.267 0.388,183.829 0.573,182.500 0.671 C 181.171 0.769,179.258 0.953,178.250 1.079 C 177.242 1.206,175.667 1.393,174.750 1.496 C 173.169 1.672,171.586 1.898,168.882 2.334 C 168.221 2.441,167.508 2.548,167.298 2.572 C 166.511 2.664,164.379 3.033,163.333 3.260 C 162.737 3.389,161.425 3.653,160.417 3.846 C 157.712 4.364,155.498 4.823,154.835 5.002 C 154.513 5.089,153.350 5.380,152.250 5.649 C 151.150 5.918,149.350 6.377,148.250 6.669 C 147.150 6.960,145.725 7.333,145.083 7.496 C 144.442 7.659,143.729 7.867,143.500 7.958 C 143.271 8.050,142.821 8.199,142.500 8.290 C 139.183 9.232,131.492 11.857,127.500 13.409 C 125.581 14.155,121.391 15.881,121.167 16.017 C 121.029 16.100,120.804 16.213,120.667 16.266 C 119.629 16.670,119.555 16.703,115.250 18.665 C 113.267 19.568,105.181 23.648,105.000 23.837 C 104.954 23.884,104.429 24.173,103.833 24.478 C 103.237 24.783,102.407 25.231,101.989 25.474 C 100.747 26.196,97.534 28.052,96.782 28.483 C 96.398 28.703,96.046 28.928,96.000 28.983 C 95.954 29.038,95.654 29.226,95.333 29.401 C 95.013 29.576,94.089 30.157,93.281 30.693 C 92.473 31.228,91.780 31.667,91.742 31.667 C 91.704 31.667,91.063 32.079,90.319 32.583 C 89.574 33.088,88.904 33.500,88.830 33.500 C 88.755 33.500,88.669 33.559,88.639 33.630 C 88.608 33.702,88.133 34.061,87.583 34.428 C 85.396 35.889,84.398 36.593,84.002 36.955 C 83.773 37.163,83.492 37.333,83.377 37.333 C 83.261 37.333,83.167 37.408,83.167 37.500 C 83.167 37.592,83.054 37.667,82.917 37.667 C 82.779 37.667,82.667 37.740,82.667 37.829 C 82.667 37.918,82.449 38.104,82.182 38.242 C 81.916 38.380,81.597 38.592,81.474 38.713 C 81.351 38.835,80.537 39.455,79.667 40.092 C 78.796 40.728,77.933 41.374,77.750 41.527 C 77.567 41.680,76.779 42.304,76.000 42.913 C 75.221 43.522,74.470 44.109,74.332 44.218 C 74.194 44.327,73.634 44.792,73.088 45.250 C 72.542 45.708,71.953 46.196,71.779 46.333 C 71.605 46.471,71.377 46.663,71.273 46.760 C 71.169 46.857,70.558 47.374,69.917 47.909 C 69.275 48.443,68.675 48.964,68.583 49.067 C 68.492 49.169,67.497 50.062,66.372 51.052 C 62.080 54.827,54.095 62.766,51.417 65.922 C 50.315 67.220,49.294 68.375,49.065 68.582 C 48.907 68.726,48.292 69.449,46.744 71.310 C 46.564 71.527,46.342 71.790,46.250 71.895 C 46.158 72.000,45.710 72.535,45.254 73.084 C 44.797 73.634,44.385 74.121,44.336 74.167 C 44.288 74.212,44.031 74.550,43.766 74.917 C 43.501 75.283,43.201 75.658,43.100 75.750 C 42.999 75.842,42.584 76.367,42.178 76.917 C 41.771 77.467,41.396 77.954,41.344 78.000 C 41.291 78.046,40.927 78.515,40.535 79.042 L 39.823 80.000 200.036 79.995 C 326.005 79.991,360.196 79.946,359.996 79.786 C 359.857 79.675,359.447 79.171,359.085 78.667 C 358.440 77.766,356.674 75.497,356.492 75.333 C 356.441 75.287,356.182 74.950,355.917 74.583 C 355.652 74.217,355.356 73.842,355.258 73.750 C 355.161 73.658,354.561 72.946,353.925 72.167 C 353.290 71.387,352.728 70.712,352.676 70.667 C 352.625 70.621,352.208 70.133,351.750 69.583 C 351.292 69.033,350.767 68.426,350.583 68.234 C 350.194 67.826,348.342 65.745,347.500 64.768 C 345.153 62.046,336.443 53.502,332.766 50.314 C 332.409 50.004,331.918 49.563,331.676 49.333 C 331.433 49.104,330.826 48.580,330.326 48.169 C 329.826 47.758,329.379 47.378,329.333 47.326 C 329.287 47.273,328.612 46.711,327.833 46.076 C 327.054 45.442,326.379 44.878,326.333 44.824 C 326.182 44.646,322.268 41.589,321.333 40.918 C 320.829 40.557,320.377 40.205,320.328 40.137 C 320.279 40.069,318.666 38.886,316.744 37.508 C 314.822 36.130,313.175 34.946,313.083 34.876 C 312.992 34.807,312.279 34.338,311.500 33.836 C 310.721 33.333,310.046 32.880,310.000 32.828 C 309.954 32.777,309.204 32.292,308.333 31.750 C 307.462 31.208,306.712 30.719,306.667 30.662 C 306.621 30.605,306.471 30.505,306.333 30.440 C 305.947 30.255,305.460 29.952,304.887 29.542 C 304.600 29.335,304.321 29.167,304.266 29.167 C 304.212 29.167,303.371 28.679,302.398 28.083 C 301.425 27.488,300.592 27.000,300.548 27.000 C 300.504 27.000,300.269 26.862,300.026 26.692 C 299.782 26.523,299.058 26.095,298.417 25.742 C 297.775 25.388,296.875 24.891,296.417 24.636 C 295.958 24.381,295.433 24.094,295.250 23.999 C 295.067 23.903,294.167 23.420,293.250 22.925 C 290.460 21.419,285.425 18.971,281.583 17.253 C 280.392 16.720,279.028 16.107,278.552 15.892 C 278.076 15.676,277.585 15.500,277.460 15.500 C 277.335 15.500,277.162 15.433,277.075 15.350 C 276.937 15.221,275.383 14.590,271.000 12.885 C 268.583 11.944,266.442 11.167,266.272 11.167 C 266.196 11.167,265.897 11.062,265.609 10.935 C 265.049 10.688,260.905 9.335,258.417 8.586 C 257.592 8.338,256.692 8.060,256.417 7.969 C 255.915 7.802,254.739 7.481,252.250 6.831 C 251.517 6.639,250.542 6.378,250.083 6.251 C 246.514 5.262,241.457 4.142,237.596 3.485 C 237.052 3.392,236.538 3.274,236.454 3.221 C 236.369 3.169,235.876 3.071,235.358 3.003 C 234.840 2.935,233.442 2.720,232.250 2.524 C 229.001 1.990,227.081 1.706,225.417 1.514 C 224.592 1.419,222.942 1.229,221.750 1.093 C 220.558 0.956,218.608 0.768,217.417 0.676 C 216.225 0.583,214.200 0.418,212.917 0.309 C 209.345 0.006,191.650 -0.028,187.917 0.261 " stroke="none" fill="#f4bcac" fill-rule="evenodd"></path><path id="path4" d="M40.535 320.958 C 40.927 321.485,41.291 321.954,41.344 322.000 C 41.397 322.046,41.767 322.533,42.167 323.083 C 42.566 323.633,42.945 324.121,43.007 324.167 C 43.070 324.212,43.751 325.037,44.521 326.000 C 46.086 327.956,46.467 328.419,46.841 328.812 C 46.983 328.961,47.432 329.496,47.840 330.000 C 48.247 330.504,48.769 331.116,48.999 331.359 C 49.357 331.737,50.082 332.560,51.387 334.066 C 54.036 337.126,62.013 345.109,65.624 348.314 C 66.335 348.946,67.155 349.677,67.447 349.939 C 68.030 350.464,69.217 351.494,69.770 351.956 C 70.815 352.827,71.731 353.604,71.896 353.758 C 71.999 353.854,72.908 354.598,73.917 355.411 C 74.925 356.224,75.775 356.952,75.806 357.028 C 75.836 357.104,75.961 357.167,76.083 357.167 C 76.206 357.167,76.331 357.233,76.361 357.315 C 76.392 357.397,77.542 358.307,78.917 359.339 C 80.292 360.370,81.454 361.265,81.500 361.328 C 81.546 361.390,81.827 361.584,82.125 361.757 C 82.423 361.930,82.667 362.131,82.667 362.203 C 82.667 362.275,82.773 362.333,82.903 362.333 C 83.033 362.333,83.164 362.397,83.194 362.475 C 83.225 362.553,83.550 362.815,83.917 363.057 C 84.761 363.614,85.087 363.841,86.874 365.122 C 87.675 365.697,88.374 366.167,88.427 366.167 C 88.480 366.167,88.624 366.260,88.746 366.375 C 88.868 366.490,89.623 366.996,90.424 367.500 C 91.225 368.004,92.151 368.596,92.482 368.815 C 93.794 369.685,95.701 370.833,95.833 370.833 C 95.909 370.833,95.997 370.893,96.028 370.967 C 96.079 371.090,98.597 372.667,98.742 372.667 C 98.797 372.667,101.764 374.370,102.500 374.823 C 102.638 374.908,103.237 375.226,103.833 375.530 C 104.429 375.835,104.954 376.126,105.000 376.178 C 105.100 376.291,105.600 376.547,110.750 379.125 C 112.950 380.226,115.162 381.315,115.667 381.545 C 117.120 382.209,119.483 383.254,120.167 383.534 C 120.396 383.628,120.696 383.772,120.833 383.854 C 120.971 383.935,121.196 384.045,121.333 384.099 C 121.471 384.152,122.746 384.671,124.167 385.253 C 126.835 386.346,131.434 388.098,133.333 388.746 C 136.249 389.740,137.598 390.184,139.667 390.830 C 140.904 391.217,142.179 391.611,142.500 391.705 C 142.821 391.799,143.250 391.939,143.454 392.016 C 144.596 392.446,154.049 394.855,157.167 395.509 C 157.671 395.615,158.533 395.802,159.083 395.925 C 159.633 396.048,160.571 396.230,161.167 396.331 C 161.762 396.432,162.775 396.621,163.417 396.751 C 165.061 397.085,167.190 397.450,168.750 397.667 C 169.483 397.768,170.721 397.955,171.500 398.082 C 172.279 398.209,173.704 398.398,174.667 398.501 C 175.629 398.605,177.242 398.791,178.250 398.916 C 180.081 399.141,181.678 399.273,188.583 399.767 C 192.892 400.076,208.952 400.025,212.917 399.690 C 214.200 399.582,216.225 399.417,217.417 399.324 C 218.608 399.232,220.558 399.044,221.750 398.907 C 222.942 398.771,224.592 398.581,225.417 398.486 C 226.242 398.391,227.404 398.235,228.000 398.140 C 228.596 398.044,229.552 397.899,230.125 397.817 C 230.698 397.734,231.635 397.598,232.208 397.515 C 233.220 397.367,234.936 397.061,237.500 396.569 C 238.188 396.437,239.125 396.259,239.583 396.173 C 242.292 395.666,247.472 394.471,250.083 393.751 C 250.542 393.625,251.292 393.434,251.750 393.328 C 252.208 393.221,252.921 393.034,253.333 392.912 C 253.746 392.790,254.421 392.600,254.833 392.490 C 255.246 392.380,255.883 392.195,256.250 392.079 C 256.617 391.963,257.254 391.773,257.667 391.657 C 258.079 391.541,259.204 391.187,260.167 390.871 C 261.129 390.555,262.142 390.235,262.417 390.160 C 263.066 389.983,267.482 388.454,268.667 387.996 C 269.171 387.801,269.771 387.582,270.000 387.509 C 271.089 387.161,276.133 385.138,276.889 384.745 C 277.148 384.610,277.434 384.500,277.524 384.500 C 277.614 384.500,278.114 384.305,278.635 384.067 C 279.157 383.829,279.979 383.454,280.463 383.234 C 280.947 383.014,281.376 382.833,281.418 382.833 C 281.559 382.833,286.572 380.465,289.333 379.094 C 291.590 377.973,296.727 375.255,297.083 374.994 C 297.175 374.927,297.850 374.552,298.583 374.161 C 299.317 373.770,300.021 373.367,300.149 373.266 C 300.277 373.166,300.615 372.970,300.899 372.830 C 301.184 372.691,301.829 372.309,302.333 371.981 C 302.837 371.652,303.625 371.177,304.083 370.924 C 304.542 370.672,305.018 370.382,305.143 370.281 C 305.267 370.179,305.507 370.018,305.676 369.923 C 306.280 369.583,309.918 367.269,310.000 367.173 C 310.046 367.120,310.608 366.741,311.250 366.330 C 311.892 365.920,312.442 365.528,312.472 365.459 C 312.503 365.390,312.600 365.333,312.688 365.333 C 312.775 365.333,312.938 365.259,313.049 365.167 C 313.294 364.965,314.491 364.102,317.667 361.837 C 318.996 360.889,320.158 360.030,320.250 359.928 C 320.342 359.826,320.829 359.448,321.333 359.087 C 322.222 358.452,326.330 355.222,327.061 354.583 C 327.166 354.492,327.702 354.043,328.251 353.587 C 328.801 353.131,329.287 352.717,329.333 352.668 C 329.379 352.619,329.826 352.242,330.326 351.831 C 330.826 351.420,331.431 350.896,331.671 350.667 C 331.911 350.438,332.336 350.063,332.616 349.833 C 335.506 347.465,344.109 338.992,347.833 334.847 C 348.521 334.081,349.271 333.250,349.500 332.998 C 349.729 332.747,350.097 332.325,350.318 332.062 C 350.539 331.799,350.989 331.279,351.318 330.908 C 352.231 329.877,352.657 329.373,353.918 327.833 C 354.556 327.054,355.118 326.379,355.168 326.333 C 355.218 326.287,355.519 325.912,355.838 325.500 C 356.156 325.087,356.591 324.551,356.805 324.308 C 357.019 324.064,357.716 323.164,358.354 322.308 C 358.992 321.451,359.624 320.618,359.757 320.456 C 359.891 320.295,360.000 320.126,360.000 320.081 C 360.000 320.037,287.960 320.000,199.911 320.000 L 39.823 320.000 40.535 320.958 " stroke="none" fill="#d4b4d4" fill-rule="evenodd"></path></g></svg>