<svg id="svg" version="1.1" xmlns="http://www.w3.org/2000/svg" xmlns:xlink="http://www.w3.org/1999/xlink" viewBox="0, 0, 400,400"><g id="svgg"><path id="path0" d="M187.917 0.261 C 186.267 0.388,183.829 0.573,182.500 0.671 C 181.171 0.769,179.258 0.953,178.250 1.079 C 177.242 1.206,175.667 1.394,174.750 1.497 C 173.030 1.690,170.502 2.049,168.747 2.349 C 168.195 2.444,167.557 2.542,167.330 2.569 C 166.465 2.669,164.377 3.031,163.417 3.247 C 162.867 3.371,161.854 3.562,161.167 3.672 C 160.479 3.782,159.504 3.968,159.000 4.086 C 158.496 4.204,157.671 4.387,157.167 4.492 C 155.111 4.920,151.706 5.754,147.833 6.778 C 146.962 7.008,145.725 7.331,145.083 7.495 C 144.442 7.659,143.729 7.867,143.500 7.958 C 143.271 8.050,142.821 8.202,142.500 8.297 C 138.002 9.635,135.084 10.614,129.500 12.660 C 127.155 13.519,121.585 15.763,121.167 16.017 C 121.029 16.100,120.804 16.213,120.667 16.266 C 119.785 16.610,119.333 16.806,117.500 17.640 C 116.904 17.911,115.892 18.371,115.250 18.662 C 113.327 19.533,105.185 23.644,105.000 23.837 C 104.954 23.884,104.729 24.013,104.500 24.122 C 103.870 24.421,101.993 25.469,99.619 26.847 C 98.448 27.527,97.173 28.263,96.786 28.483 C 96.400 28.703,96.058 28.947,96.028 29.025 C 95.997 29.103,95.904 29.167,95.821 29.167 C 95.689 29.167,92.857 30.864,92.417 31.207 C 92.103 31.451,88.945 33.500,88.882 33.500 C 88.848 33.500,88.729 33.576,88.618 33.668 C 88.254 33.973,85.396 35.944,84.859 36.261 C 84.570 36.432,84.333 36.626,84.333 36.691 C 84.333 36.757,84.197 36.854,84.029 36.907 C 83.862 36.960,83.581 37.137,83.404 37.300 C 83.228 37.464,82.708 37.852,82.250 38.163 C 81.792 38.474,81.379 38.772,81.333 38.826 C 81.287 38.880,80.537 39.445,79.667 40.083 C 78.796 40.721,78.046 41.287,78.000 41.341 C 77.954 41.395,77.467 41.771,76.917 42.178 C 76.367 42.584,75.842 42.999,75.750 43.100 C 75.658 43.201,75.283 43.501,74.917 43.766 C 74.550 44.031,74.212 44.291,74.167 44.344 C 74.121 44.397,73.671 44.775,73.167 45.184 C 72.048 46.090,71.523 46.528,71.273 46.760 C 71.169 46.857,70.558 47.378,69.917 47.917 C 68.676 48.959,68.247 49.334,67.531 50.001 C 67.285 50.231,66.563 50.869,65.928 51.418 C 62.669 54.234,53.933 62.958,51.417 65.909 C 50.958 66.447,50.338 67.156,50.038 67.485 C 49.738 67.814,49.358 68.233,49.195 68.417 C 48.921 68.723,47.529 70.366,46.744 71.310 C 46.564 71.527,46.334 71.792,46.232 71.900 C 46.131 72.007,45.686 72.543,45.244 73.089 C 44.802 73.636,44.397 74.121,44.344 74.167 C 44.291 74.212,44.031 74.550,43.766 74.917 C 43.501 75.283,43.201 75.658,43.100 75.750 C 42.999 75.842,42.584 76.367,42.178 76.917 C 41.771 77.467,41.395 77.954,41.341 78.000 C 41.287 78.046,40.720 78.796,40.081 79.667 C 39.442 80.537,38.749 81.438,38.541 81.667 C 38.333 81.896,38.121 82.215,38.070 82.375 C 38.019 82.535,37.908 82.667,37.822 82.667 C 37.737 82.667,37.667 82.779,37.667 82.917 C 37.667 83.054,37.608 83.167,37.536 83.167 C 37.464 83.167,37.264 83.405,37.093 83.696 C 36.921 83.987,36.683 84.343,36.564 84.488 C 36.067 85.091,33.833 88.374,33.833 88.501 C 33.833 88.577,33.777 88.664,33.708 88.694 C 33.638 88.725,33.246 89.275,32.836 89.917 C 32.426 90.558,32.046 91.121,31.991 91.167 C 31.936 91.212,31.747 91.513,31.571 91.833 C 31.394 92.154,31.207 92.454,31.155 92.500 C 30.955 92.677,29.167 95.672,29.167 95.832 C 29.167 95.924,29.109 96.000,29.038 96.000 C 28.967 96.000,28.762 96.281,28.583 96.625 C 28.403 96.969,27.986 97.700,27.656 98.250 C 27.326 98.800,26.965 99.419,26.855 99.625 L 26.655 100.000 199.991 100.000 L 373.328 100.000 372.979 99.375 C 372.787 99.031,372.226 98.095,371.732 97.293 C 371.238 96.492,370.833 95.767,370.833 95.682 C 370.833 95.597,370.774 95.503,370.701 95.472 C 370.629 95.442,370.391 95.117,370.173 94.750 C 368.151 91.344,360.705 80.441,359.930 79.750 C 359.827 79.658,359.447 79.171,359.085 78.667 C 358.524 77.885,356.281 75.014,355.366 73.907 C 355.211 73.719,354.563 72.932,353.926 72.157 C 353.290 71.383,352.728 70.712,352.676 70.667 C 352.625 70.621,352.208 70.133,351.750 69.583 C 351.292 69.033,350.767 68.426,350.583 68.233 C 350.400 68.040,349.800 67.368,349.250 66.738 C 348.700 66.109,347.931 65.265,347.542 64.862 C 347.152 64.459,346.833 64.094,346.833 64.051 C 346.833 64.009,345.427 62.548,343.708 60.805 C 338.585 55.610,335.848 52.985,332.766 50.314 C 332.409 50.004,331.918 49.563,331.676 49.333 C 331.433 49.104,330.826 48.580,330.326 48.169 C 329.826 47.758,329.379 47.378,329.333 47.326 C 329.287 47.273,328.612 46.711,327.833 46.076 C 327.054 45.442,326.379 44.878,326.333 44.824 C 326.182 44.646,322.268 41.589,321.333 40.918 C 320.829 40.557,320.377 40.205,320.328 40.137 C 320.279 40.069,318.666 38.886,316.744 37.508 C 314.822 36.130,313.175 34.942,313.083 34.867 C 312.992 34.793,312.279 34.326,311.500 33.831 C 310.721 33.335,310.046 32.886,310.000 32.832 C 309.954 32.779,309.204 32.292,308.333 31.750 C 307.462 31.208,306.712 30.719,306.667 30.662 C 306.621 30.605,306.471 30.505,306.333 30.440 C 305.947 30.255,305.460 29.952,304.887 29.542 C 304.600 29.335,304.320 29.167,304.264 29.167 C 304.209 29.167,303.374 28.679,302.410 28.083 C 301.446 27.488,300.630 27.000,300.596 27.000 C 300.562 27.000,300.040 26.700,299.437 26.333 C 298.833 25.967,298.299 25.667,298.250 25.667 C 298.200 25.667,297.880 25.490,297.538 25.275 C 294.976 23.659,286.187 19.261,280.667 16.832 C 279.979 16.529,279.028 16.106,278.552 15.891 C 278.076 15.676,277.585 15.500,277.460 15.500 C 277.335 15.500,277.162 15.433,277.075 15.350 C 276.893 15.178,275.303 14.531,271.043 12.896 C 269.320 12.234,268.852 12.061,267.500 11.583 C 266.813 11.340,265.987 11.041,265.667 10.918 C 264.925 10.633,260.383 9.173,258.417 8.587 C 257.592 8.341,256.617 8.043,256.250 7.925 C 255.883 7.807,255.246 7.620,254.833 7.510 C 254.421 7.400,253.746 7.209,253.333 7.084 C 252.921 6.960,252.171 6.769,251.667 6.660 C 251.162 6.552,250.590 6.402,250.396 6.327 C 250.201 6.253,249.563 6.078,248.979 5.938 C 248.395 5.797,246.979 5.458,245.833 5.183 C 244.688 4.908,243.150 4.563,242.417 4.416 C 241.683 4.269,240.783 4.084,240.417 4.005 C 240.050 3.926,239.300 3.777,238.750 3.674 C 238.200 3.571,237.225 3.377,236.583 3.243 C 234.738 2.859,227.846 1.793,225.417 1.516 C 224.592 1.422,222.942 1.233,221.750 1.096 C 220.558 0.959,218.608 0.770,217.417 0.677 C 216.225 0.583,214.200 0.418,212.917 0.309 C 209.345 0.006,191.650 -0.028,187.917 0.261 " stroke="none" fill="#fcebbc" fill-rule="evenodd"></path><path id="path1" d="M-0.002 204.375 C -0.004 208.411,0.264 213.627,0.670 217.500 C 0.762 218.371,0.835 219.383,0.834 219.750 C 0.833 220.117,0.940 221.204,1.073 222.167 C 1.206 223.129,1.398 224.667,1.499 225.583 C 1.601 226.500,1.796 227.963,1.933 228.833 C 2.071 229.704,2.257 230.904,2.348 231.500 C 2.563 232.916,2.973 235.287,3.257 236.750 C 3.381 237.392,3.566 238.404,3.668 239.000 C 3.769 239.596,3.955 240.496,4.081 241.000 C 4.207 241.504,4.395 242.367,4.500 242.917 C 4.605 243.467,4.793 244.329,4.920 244.833 C 5.288 246.306,5.865 248.701,6.003 249.333 C 6.404 251.163,7.675 255.721,8.582 258.583 C 8.785 259.225,9.159 260.425,9.411 261.250 C 9.664 262.075,9.943 262.935,10.031 263.161 C 10.120 263.386,10.415 264.249,10.687 265.077 C 11.251 266.796,11.931 268.683,12.250 269.417 C 12.369 269.692,12.580 270.254,12.718 270.667 C 12.856 271.079,13.060 271.642,13.172 271.917 C 13.283 272.192,13.433 272.567,13.505 272.750 C 13.954 273.903,15.070 276.664,15.255 277.083 C 15.923 278.594,16.218 279.285,16.493 279.979 C 17.102 281.522,18.536 284.575,20.766 289.083 C 22.619 292.827,23.932 295.306,26.000 298.964 L 26.583 299.996 200.000 299.997 L 373.417 299.997 373.593 299.624 C 373.779 299.231,374.681 297.600,375.184 296.750 C 375.529 296.165,375.861 295.543,377.453 292.500 C 379.152 289.251,382.000 283.474,382.000 283.276 C 382.000 283.227,382.300 282.540,382.667 281.750 C 383.033 280.960,383.333 280.276,383.333 280.230 C 383.333 280.184,383.527 279.719,383.763 279.198 C 384.000 278.677,384.273 278.063,384.370 277.833 C 384.814 276.786,385.061 276.226,385.209 275.931 C 385.298 275.756,385.507 275.231,385.674 274.765 C 385.841 274.298,386.213 273.317,386.500 272.583 C 386.787 271.850,387.162 270.875,387.332 270.417 C 387.503 269.958,387.801 269.171,387.996 268.667 C 388.190 268.162,388.842 266.250,389.445 264.417 C 390.048 262.583,390.638 260.821,390.757 260.500 C 390.875 260.179,391.168 259.242,391.408 258.417 C 391.647 257.592,391.928 256.654,392.032 256.333 C 392.135 256.012,392.283 255.506,392.360 255.208 C 392.437 254.910,392.566 254.423,392.647 254.125 C 392.728 253.827,392.953 252.983,393.147 252.250 C 393.341 251.517,393.611 250.542,393.748 250.083 C 393.884 249.625,394.187 248.425,394.422 247.417 C 394.656 246.408,394.955 245.133,395.086 244.583 C 395.217 244.033,395.443 242.983,395.587 242.250 C 395.731 241.517,395.916 240.654,395.999 240.333 C 396.081 240.012,396.233 239.262,396.337 238.667 C 396.543 237.489,396.882 235.633,397.249 233.667 C 397.378 232.979,397.558 231.892,397.651 231.250 C 397.744 230.608,397.931 229.333,398.068 228.417 C 398.204 227.500,398.400 226.000,398.503 225.083 C 398.606 224.167,398.793 222.554,398.919 221.500 C 399.044 220.446,399.225 218.496,399.320 217.167 C 399.416 215.838,399.578 213.700,399.681 212.417 C 399.784 211.133,399.907 207.815,399.955 205.042 L 400.041 200.000 200.021 200.000 L 0.000 200.000 -0.002 204.375 " stroke="none" fill="#d4b4d4" fill-rule="evenodd"></path><path id="path2" d="M26.884 300.500 C 26.988 300.775,27.132 301.000,27.203 301.000 C 27.275 301.000,27.333 301.072,27.333 301.161 C 27.333 301.373,28.862 303.901,29.033 303.972 C 29.107 304.003,29.167 304.097,29.167 304.182 C 29.167 304.332,30.965 307.332,31.155 307.500 C 31.207 307.546,31.396 307.846,31.575 308.167 C 31.754 308.487,31.962 308.825,32.037 308.917 C 32.112 309.008,32.490 309.571,32.877 310.167 C 33.264 310.762,33.619 311.287,33.665 311.333 C 33.712 311.379,33.825 311.546,33.917 311.704 C 34.195 312.185,36.549 315.577,36.666 315.667 C 36.726 315.712,36.917 315.994,37.090 316.292 C 37.263 316.590,37.464 316.833,37.536 316.833 C 37.608 316.833,37.667 316.946,37.667 317.083 C 37.667 317.221,37.737 317.333,37.822 317.333 C 37.908 317.333,38.022 317.475,38.077 317.648 C 38.132 317.821,38.347 318.146,38.555 318.370 C 38.763 318.594,39.448 319.484,40.079 320.347 C 40.709 321.210,41.273 321.954,41.333 322.000 C 41.392 322.046,41.768 322.533,42.169 323.083 C 42.570 323.633,42.981 324.158,43.083 324.250 C 43.185 324.342,43.487 324.717,43.753 325.083 C 44.020 325.450,44.316 325.831,44.411 325.931 C 44.506 326.030,44.846 326.438,45.167 326.837 C 45.487 327.236,45.920 327.754,46.128 327.989 C 46.956 328.924,47.119 329.117,47.836 330.000 C 48.246 330.504,48.769 331.115,48.999 331.357 C 49.229 331.599,49.531 331.937,49.672 332.107 C 53.148 336.328,63.614 346.794,67.893 350.328 C 68.063 350.468,68.401 350.771,68.643 351.001 C 68.885 351.231,69.496 351.754,70.000 352.164 C 70.883 352.881,71.076 353.044,72.011 353.872 C 72.246 354.080,72.764 354.512,73.163 354.833 C 73.562 355.154,73.970 355.494,74.069 355.589 C 74.169 355.684,74.550 355.980,74.917 356.247 C 75.283 356.513,75.658 356.815,75.750 356.917 C 75.842 357.019,76.367 357.430,76.917 357.831 C 77.467 358.232,77.954 358.608,78.000 358.667 C 78.046 358.727,78.796 359.293,79.667 359.926 C 80.537 360.558,81.274 361.132,81.304 361.201 C 81.334 361.270,81.653 361.492,82.013 361.694 C 82.372 361.896,82.667 362.123,82.667 362.197 C 82.667 362.272,82.779 362.333,82.917 362.333 C 83.054 362.333,83.167 362.397,83.167 362.474 C 83.167 362.551,83.429 362.756,83.750 362.928 C 84.071 363.101,84.333 363.284,84.333 363.335 C 84.333 363.386,84.577 363.571,84.875 363.746 C 85.173 363.921,86.072 364.537,86.874 365.115 C 87.675 365.693,88.400 366.167,88.485 366.167 C 88.570 366.167,88.664 366.223,88.694 366.292 C 88.745 366.405,89.819 367.137,91.333 368.089 C 91.654 368.290,92.554 368.865,93.333 369.366 C 94.112 369.867,95.013 370.421,95.333 370.597 C 95.654 370.773,95.954 370.959,96.000 371.010 C 96.103 371.125,98.654 372.667,98.742 372.667 C 98.797 372.667,101.764 374.370,102.500 374.823 C 102.638 374.908,103.237 375.226,103.832 375.530 C 104.427 375.835,104.989 376.144,105.082 376.219 C 105.371 376.453,113.710 380.645,115.750 381.582 C 118.516 382.853,118.825 382.990,120.083 383.502 C 120.358 383.614,120.696 383.772,120.833 383.854 C 120.971 383.935,121.196 384.045,121.333 384.099 C 121.471 384.152,122.783 384.683,124.250 385.279 C 127.556 386.622,128.345 386.927,131.167 387.955 C 134.322 389.104,134.347 389.113,136.667 389.858 C 137.813 390.226,139.012 390.624,139.333 390.742 C 139.990 390.984,141.214 391.360,142.333 391.665 C 142.746 391.777,143.346 391.969,143.667 392.091 C 143.987 392.214,144.765 392.436,145.396 392.586 C 146.026 392.736,146.701 392.920,146.896 392.994 C 147.090 393.068,147.662 393.219,148.167 393.328 C 148.671 393.438,149.421 393.625,149.833 393.744 C 150.874 394.044,152.426 394.445,153.417 394.668 C 153.875 394.772,154.662 394.955,155.167 395.075 C 155.671 395.195,156.533 395.384,157.083 395.495 C 157.633 395.606,158.533 395.798,159.083 395.922 C 159.633 396.046,160.571 396.233,161.167 396.338 C 161.762 396.442,162.775 396.630,163.417 396.756 C 165.028 397.073,167.193 397.446,168.583 397.646 C 169.225 397.738,170.462 397.926,171.333 398.062 C 172.204 398.199,173.704 398.395,174.667 398.499 C 175.629 398.603,177.242 398.792,178.250 398.919 C 180.039 399.145,181.011 399.225,188.583 399.767 C 192.892 400.076,208.952 400.025,212.917 399.690 C 214.200 399.582,216.225 399.417,217.417 399.324 C 218.608 399.232,220.558 399.043,221.750 398.906 C 222.942 398.769,224.629 398.578,225.500 398.483 C 226.371 398.388,227.721 398.207,228.500 398.081 C 229.279 397.955,230.517 397.768,231.250 397.667 C 232.704 397.465,234.712 397.119,236.667 396.734 C 237.354 396.598,238.329 396.409,238.833 396.313 C 239.338 396.218,240.050 396.074,240.417 395.995 C 240.783 395.916,241.683 395.732,242.417 395.586 C 244.369 395.197,249.831 393.886,250.403 393.669 C 250.594 393.597,251.162 393.448,251.667 393.340 C 252.171 393.231,252.921 393.040,253.333 392.916 C 253.746 392.791,254.421 392.600,254.833 392.490 C 255.246 392.380,255.883 392.195,256.250 392.079 C 256.617 391.963,257.254 391.774,257.667 391.660 C 258.801 391.346,262.527 390.163,263.000 389.967 C 263.229 389.872,263.867 389.658,264.417 389.492 C 265.695 389.106,267.141 388.594,269.250 387.780 C 269.617 387.639,270.667 387.248,271.583 386.913 C 272.500 386.577,273.475 386.203,273.750 386.081 C 274.025 385.960,274.850 385.623,275.583 385.332 C 276.317 385.041,276.988 384.735,277.075 384.652 C 277.162 384.568,277.335 384.500,277.460 384.500 C 277.585 384.500,278.076 384.324,278.552 384.109 C 279.028 383.894,279.979 383.471,280.667 383.169 C 284.690 381.400,289.673 378.990,293.250 377.083 C 294.167 376.594,295.179 376.061,295.500 375.898 C 295.821 375.736,296.346 375.441,296.667 375.243 C 296.987 375.046,297.850 374.563,298.583 374.172 C 299.317 373.780,300.029 373.369,300.167 373.258 C 300.304 373.147,300.679 372.929,301.000 372.773 C 301.694 372.437,302.218 372.124,302.333 371.977 C 302.379 371.918,302.717 371.708,303.083 371.510 C 303.894 371.072,304.264 370.851,304.915 370.417 C 305.190 370.233,305.678 369.943,305.999 369.771 C 306.321 369.599,306.621 369.408,306.667 369.347 C 306.712 369.285,307.462 368.791,308.333 368.248 C 309.204 367.705,309.942 367.202,309.972 367.131 C 310.003 367.059,310.096 367.000,310.179 367.000 C 310.262 367.000,310.837 366.656,311.457 366.235 C 314.182 364.385,320.063 360.156,320.268 359.898 C 320.370 359.771,320.501 359.667,320.558 359.667 C 320.616 359.667,320.795 359.559,320.956 359.427 C 321.118 359.295,322.337 358.338,323.667 357.301 C 325.846 355.601,326.452 355.115,327.061 354.583 C 327.166 354.492,327.702 354.043,328.251 353.587 C 328.801 353.131,329.287 352.717,329.333 352.668 C 329.379 352.619,329.829 352.245,330.333 351.836 C 330.837 351.428,331.444 350.904,331.681 350.672 C 331.918 350.440,332.331 350.069,332.598 349.847 C 334.599 348.187,338.208 344.756,342.225 340.694 C 346.475 336.397,346.931 335.916,349.250 333.269 C 349.800 332.641,350.400 331.968,350.583 331.772 C 350.767 331.577,351.292 330.967,351.750 330.417 C 352.208 329.867,352.623 329.379,352.670 329.333 C 352.777 329.231,354.322 327.382,354.667 326.944 C 354.804 326.769,355.032 326.504,355.173 326.355 C 355.314 326.205,355.649 325.783,355.918 325.417 C 356.187 325.050,356.544 324.600,356.713 324.417 C 356.881 324.233,357.559 323.371,358.218 322.500 C 358.877 321.629,359.473 320.892,359.542 320.861 C 359.610 320.831,359.667 320.726,359.667 320.629 C 359.667 320.533,359.771 320.370,359.898 320.268 C 360.026 320.167,361.225 318.546,362.563 316.667 C 363.901 314.787,365.061 313.170,365.142 313.073 C 365.222 312.975,365.386 312.713,365.505 312.490 C 365.624 312.266,365.990 311.708,366.320 311.250 C 366.649 310.792,366.993 310.292,367.084 310.140 C 367.648 309.198,369.254 306.736,369.349 306.667 C 369.412 306.621,369.626 306.283,369.824 305.917 C 370.265 305.100,370.556 304.610,370.667 304.500 C 370.793 304.374,371.113 303.829,371.523 303.042 C 371.726 302.652,371.945 302.333,372.010 302.333 C 372.075 302.333,372.170 302.202,372.221 302.042 C 372.273 301.881,372.542 301.356,372.820 300.875 L 373.324 300.000 200.010 300.000 L 26.696 300.000 26.884 300.500 " stroke="none" fill="#3c3c3c" fill-rule="evenodd"></path><path id="path3" d="M25.583 101.780 C 23.684 105.154,22.836 106.765,20.823 110.833 C 19.711 113.079,18.626 115.292,18.412 115.750 C 17.361 117.995,16.667 119.528,16.667 119.603 C 16.667 119.650,16.473 120.114,16.237 120.635 C 16.000 121.157,15.730 121.771,15.636 122.000 C 15.361 122.670,15.027 123.465,14.775 124.044 C 14.646 124.341,14.337 125.108,14.088 125.750 C 13.838 126.392,13.576 127.067,13.504 127.250 C 12.878 128.847,11.603 132.234,11.558 132.417 C 11.499 132.655,11.017 134.021,10.852 134.417 C 10.775 134.600,10.623 135.050,10.513 135.417 C 10.403 135.783,10.215 136.346,10.095 136.667 C 9.840 137.347,9.223 139.290,8.585 141.417 C 8.338 142.242,8.038 143.217,7.919 143.583 C 7.799 143.950,7.613 144.587,7.506 145.000 C 7.399 145.412,7.238 145.989,7.149 146.281 C 6.951 146.928,6.181 149.864,5.999 150.667 C 5.615 152.357,5.133 154.313,4.984 154.788 C 4.891 155.084,4.740 155.721,4.649 156.205 C 4.557 156.688,4.419 157.421,4.342 157.833 C 4.264 158.246,4.127 158.846,4.037 159.167 C 3.946 159.487,3.782 160.313,3.672 161.000 C 3.563 161.688,3.374 162.737,3.254 163.333 C 2.817 165.492,2.615 166.592,2.576 167.028 C 2.536 167.466,2.372 168.529,1.913 171.333 C 1.786 172.112,1.599 173.500,1.498 174.417 C 1.397 175.333,1.206 176.871,1.073 177.833 C 0.940 178.796,0.833 179.883,0.834 180.250 C 0.835 180.617,0.762 181.629,0.670 182.500 C 0.264 186.373,-0.004 191.589,-0.002 195.625 L 0.000 200.000 200.021 200.000 L 400.041 200.000 399.955 194.958 C 399.907 192.185,399.784 188.867,399.681 187.583 C 399.578 186.300,399.416 184.162,399.320 182.833 C 399.225 181.504,399.044 179.554,398.919 178.500 C 398.793 177.446,398.606 175.833,398.503 174.917 C 398.327 173.349,398.027 171.202,397.664 168.917 C 397.576 168.367,397.460 167.581,397.405 167.170 C 397.351 166.760,397.275 166.375,397.238 166.314 C 397.201 166.254,397.098 165.728,397.008 165.144 C 396.919 164.561,396.726 163.446,396.579 162.667 C 396.433 161.887,396.250 160.912,396.173 160.500 C 395.977 159.448,395.371 156.623,395.064 155.333 C 394.923 154.737,394.734 153.912,394.644 153.500 C 394.414 152.448,394.024 150.899,393.740 149.917 C 393.608 149.458,393.341 148.483,393.147 147.750 C 392.953 147.017,392.724 146.154,392.638 145.833 C 392.552 145.512,392.422 145.025,392.350 144.750 C 392.278 144.475,392.135 143.987,392.032 143.667 C 391.928 143.346,391.647 142.408,391.408 141.583 C 391.168 140.758,390.874 139.821,390.754 139.500 C 390.634 139.179,390.445 138.579,390.334 138.167 C 390.223 137.754,390.066 137.246,389.985 137.038 C 389.904 136.830,389.501 135.668,389.090 134.455 C 388.679 133.242,388.185 131.837,387.992 131.333 C 387.800 130.829,387.503 130.042,387.332 129.583 C 387.162 129.125,386.787 128.150,386.500 127.417 C 386.213 126.683,385.841 125.702,385.674 125.235 C 385.507 124.769,385.296 124.244,385.205 124.069 C 384.904 123.489,384.367 122.270,383.743 120.750 C 383.403 119.925,382.873 118.701,382.563 118.029 C 382.253 117.358,382.000 116.777,382.000 116.739 C 382.000 116.677,379.689 111.821,379.348 111.167 C 379.277 111.029,378.555 109.642,377.745 108.083 C 375.835 104.409,375.539 103.851,375.184 103.250 C 374.681 102.400,373.779 100.769,373.593 100.376 L 373.417 100.003 200.000 100.003 L 26.583 100.004 25.583 101.780 " stroke="none" fill="#fcfcf4" fill-rule="evenodd"></path></g></svg>