<svg id="svg" version="1.1" xmlns="http://www.w3.org/2000/svg" xmlns:xlink="http://www.w3.org/1999/xlink" viewBox="0, 0, 400,400"><g id="svgg"><path id="path0" d="M1.755 172.417 C 1.699 172.967,1.585 173.904,1.503 174.500 C 1.041 177.828,0.761 180.814,0.249 187.833 C -0.274 195.010,-0.052 210.618,0.670 217.500 C 0.762 218.371,0.835 219.383,0.834 219.750 C 0.833 220.117,0.940 221.204,1.072 222.167 C 1.204 223.129,1.391 224.592,1.488 225.417 C 1.584 226.242,1.709 227.292,1.764 227.750 L 1.865 228.583 199.921 228.542 C 393.714 228.501,397.980 228.493,398.077 228.186 C 398.183 227.851,398.423 225.987,398.658 223.667 C 398.737 222.887,398.879 221.650,398.974 220.917 C 399.139 219.643,399.220 218.651,399.704 212.000 C 399.990 208.077,399.990 191.923,399.704 188.000 C 399.220 181.349,399.139 180.357,398.974 179.083 C 398.879 178.350,398.737 177.112,398.658 176.333 C 398.423 174.013,398.183 172.149,398.077 171.814 C 397.980 171.507,393.714 171.499,199.917 171.458 L 1.856 171.417 1.755 172.417 " stroke="none" fill="#cce4b4" fill-rule="evenodd"></path><path id="path1" d="M199.917 114.293 L 19.083 114.337 18.557 115.460 C 17.171 118.420,16.667 119.526,16.667 119.603 C 16.667 119.650,16.473 120.114,16.237 120.635 C 16.000 121.157,15.730 121.771,15.636 122.000 C 15.542 122.229,15.373 122.642,15.261 122.917 C 15.148 123.192,14.941 123.679,14.799 124.000 C 14.657 124.321,14.337 125.108,14.088 125.750 C 13.838 126.392,13.576 127.067,13.505 127.250 C 13.433 127.433,13.285 127.805,13.175 128.076 C 13.065 128.348,12.821 129.023,12.632 129.576 C 12.444 130.130,12.235 130.658,12.169 130.750 C 12.102 130.842,12.005 131.067,11.952 131.250 C 11.899 131.433,11.621 132.221,11.333 133.000 C 11.045 133.779,10.750 134.642,10.676 134.917 C 10.601 135.192,10.414 135.754,10.259 136.167 C 10.104 136.579,9.917 137.142,9.843 137.417 C 9.769 137.692,9.558 138.367,9.374 138.917 C 9.190 139.467,8.833 140.592,8.580 141.417 C 8.327 142.242,8.026 143.217,7.911 143.583 C 7.796 143.950,7.613 144.587,7.506 145.000 C 7.399 145.412,7.238 145.989,7.149 146.281 C 6.951 146.928,6.181 149.864,5.999 150.667 C 5.615 152.357,5.133 154.313,4.984 154.788 C 4.821 155.305,4.652 156.124,4.339 157.917 C 4.259 158.375,4.120 158.975,4.030 159.250 C 3.941 159.525,3.778 160.313,3.668 161.000 C 3.558 161.688,3.363 162.705,3.234 163.261 C 3.105 163.817,3.001 164.417,3.002 164.594 C 3.003 164.771,2.895 165.442,2.761 166.083 C 2.455 167.558,2.208 169.123,2.073 170.458 L 1.967 171.500 199.994 171.500 L 398.020 171.500 397.920 170.708 C 397.680 168.825,397.097 165.306,396.753 163.667 C 396.628 163.071,396.437 162.021,396.328 161.333 C 396.219 160.646,396.066 159.858,395.987 159.583 C 395.909 159.308,395.728 158.483,395.585 157.750 C 395.442 157.017,395.208 155.929,395.066 155.333 C 394.924 154.737,394.734 153.912,394.644 153.500 C 394.414 152.448,394.024 150.899,393.740 149.917 C 393.608 149.458,393.341 148.483,393.147 147.750 C 392.953 147.017,392.728 146.173,392.647 145.875 C 392.566 145.577,392.437 145.090,392.360 144.792 C 392.283 144.494,392.135 143.987,392.032 143.667 C 391.928 143.346,391.647 142.408,391.408 141.583 C 391.168 140.758,390.874 139.821,390.754 139.500 C 390.634 139.179,390.445 138.579,390.334 138.167 C 390.223 137.754,390.064 137.243,389.982 137.032 C 389.899 136.820,389.498 135.657,389.090 134.448 C 388.682 133.239,388.190 131.837,387.996 131.333 C 387.801 130.829,387.503 130.042,387.332 129.583 C 387.162 129.125,386.787 128.150,386.500 127.417 C 386.213 126.683,385.841 125.702,385.674 125.235 C 385.507 124.769,385.298 124.244,385.209 124.069 C 385.061 123.774,384.814 123.214,384.370 122.167 C 384.273 121.938,384.000 121.323,383.763 120.802 C 383.527 120.281,383.333 119.817,383.333 119.772 C 383.333 119.728,383.082 119.142,382.774 118.471 C 382.466 117.799,381.932 116.612,381.587 115.833 C 381.241 115.054,380.912 114.379,380.854 114.333 C 380.797 114.287,299.375 114.270,199.917 114.293 M2.073 229.542 C 2.208 230.877,2.455 232.442,2.761 233.917 C 2.895 234.558,3.003 235.229,3.002 235.406 C 3.001 235.583,3.105 236.183,3.234 236.739 C 3.363 237.295,3.558 238.313,3.668 239.000 C 3.778 239.688,3.941 240.475,4.030 240.750 C 4.120 241.025,4.259 241.625,4.339 242.083 C 4.652 243.876,4.821 244.695,4.984 245.212 C 5.133 245.687,5.615 247.643,5.999 249.333 C 6.181 250.136,6.951 253.072,7.149 253.719 C 7.238 254.011,7.399 254.588,7.506 255.000 C 7.613 255.412,7.796 256.050,7.911 256.417 C 8.026 256.783,8.327 257.758,8.580 258.583 C 8.833 259.408,9.190 260.533,9.374 261.083 C 9.558 261.633,9.769 262.308,9.843 262.583 C 9.917 262.858,10.104 263.421,10.259 263.833 C 10.414 264.246,10.601 264.808,10.676 265.083 C 10.750 265.358,11.045 266.221,11.333 267.000 C 11.621 267.779,11.899 268.567,11.952 268.750 C 12.005 268.933,12.102 269.158,12.169 269.250 C 12.235 269.342,12.444 269.870,12.632 270.424 C 12.821 270.977,13.065 271.652,13.175 271.924 C 13.285 272.195,13.433 272.567,13.505 272.750 C 13.576 272.933,13.838 273.608,14.088 274.250 C 14.672 275.753,15.160 276.911,15.898 278.546 C 16.138 279.076,16.333 279.544,16.333 279.587 C 16.333 279.679,17.655 282.663,18.325 284.083 C 18.584 284.633,18.840 285.215,18.893 285.375 C 18.985 285.652,27.811 285.668,199.927 285.708 L 380.864 285.750 381.077 285.250 C 381.194 284.975,381.552 284.188,381.872 283.500 C 382.925 281.239,383.333 280.325,383.333 280.235 C 383.333 280.186,383.527 279.719,383.763 279.198 C 384.000 278.677,384.273 278.063,384.370 277.833 C 384.814 276.786,385.061 276.226,385.209 275.931 C 385.298 275.756,385.507 275.231,385.674 274.765 C 385.841 274.298,386.213 273.317,386.500 272.583 C 386.787 271.850,387.162 270.875,387.332 270.417 C 387.503 269.958,387.801 269.171,387.996 268.667 C 388.190 268.162,388.682 266.761,389.090 265.552 C 389.498 264.343,389.899 263.180,389.982 262.968 C 390.064 262.757,390.223 262.246,390.334 261.833 C 390.445 261.421,390.634 260.821,390.754 260.500 C 390.874 260.179,391.168 259.242,391.408 258.417 C 391.647 257.592,391.928 256.654,392.032 256.333 C 392.135 256.012,392.276 255.525,392.345 255.250 C 392.415 254.975,392.598 254.300,392.752 253.750 C 392.907 253.200,393.171 252.225,393.340 251.583 C 393.509 250.942,393.810 249.817,394.008 249.083 C 394.206 248.350,394.434 247.450,394.514 247.083 C 394.595 246.717,394.773 245.929,394.909 245.333 C 395.046 244.737,395.311 243.500,395.499 242.583 C 395.687 241.667,395.905 240.692,395.985 240.417 C 396.065 240.142,396.219 239.354,396.328 238.667 C 396.437 237.979,396.628 236.929,396.753 236.333 C 397.097 234.694,397.680 231.175,397.920 229.292 L 398.020 228.500 199.994 228.500 L 1.967 228.500 2.073 229.542 " stroke="none" fill="#fcfcf4" fill-rule="evenodd"></path><path id="path2" d="M58.040 58.917 C 56.428 60.567,54.904 62.171,52.166 65.101 C 51.661 65.641,50.798 66.608,50.249 67.250 C 49.699 67.892,49.167 68.492,49.065 68.583 C 48.907 68.726,48.296 69.444,46.744 71.310 C 46.564 71.527,46.337 71.789,46.239 71.894 C 46.142 71.998,45.102 73.283,43.930 74.750 C 42.757 76.217,41.673 77.567,41.522 77.750 C 41.207 78.130,38.778 81.389,38.199 82.207 C 37.988 82.506,37.653 82.963,37.455 83.223 C 37.257 83.483,36.979 83.871,36.839 84.084 C 36.698 84.298,35.983 85.322,35.250 86.361 C 34.517 87.399,33.879 88.324,33.833 88.416 C 33.787 88.508,33.230 89.371,32.595 90.333 C 30.682 93.231,29.731 94.719,29.399 95.333 C 29.225 95.654,29.035 95.954,28.977 96.000 C 28.918 96.046,28.708 96.383,28.510 96.750 C 28.311 97.117,28.080 97.529,27.996 97.667 C 27.592 98.326,26.419 100.305,26.169 100.750 C 26.014 101.025,25.638 101.700,25.333 102.250 C 25.028 102.800,24.631 103.513,24.450 103.833 C 22.684 106.967,19.155 114.013,19.263 114.188 C 19.438 114.470,380.667 114.370,380.667 114.088 C 380.667 113.773,375.545 103.681,374.997 102.917 C 374.931 102.825,374.630 102.300,374.328 101.750 C 374.026 101.200,373.641 100.525,373.474 100.250 C 373.307 99.975,373.118 99.638,373.054 99.500 C 372.991 99.362,372.405 98.388,371.753 97.333 C 371.101 96.279,370.514 95.304,370.449 95.167 C 370.383 95.029,370.199 94.716,370.040 94.471 C 369.880 94.225,369.190 93.138,368.506 92.054 C 367.822 90.970,367.200 90.008,367.123 89.917 C 367.007 89.779,366.445 88.943,365.162 87.000 C 364.616 86.173,359.975 79.752,359.868 79.676 C 359.797 79.625,359.444 79.171,359.084 78.667 C 358.470 77.809,356.692 75.518,356.496 75.333 C 356.448 75.287,356.149 74.912,355.833 74.500 C 355.517 74.087,355.218 73.712,355.168 73.667 C 355.118 73.621,354.558 72.946,353.924 72.167 C 353.289 71.387,352.727 70.712,352.674 70.667 C 352.621 70.621,352.365 70.321,352.104 70.000 C 351.622 69.408,350.719 68.377,348.167 65.509 C 347.387 64.634,345.256 62.399,343.431 60.542 L 340.111 57.167 199.971 57.125 L 59.831 57.083 58.040 58.917 M19.265 285.809 C 19.185 285.939,22.317 292.301,23.666 294.750 C 23.969 295.300,24.476 296.237,24.793 296.833 C 25.110 297.429,25.426 297.992,25.496 298.083 C 25.623 298.251,26.189 299.251,26.770 300.333 C 26.942 300.654,27.129 300.954,27.186 301.000 C 27.242 301.046,27.537 301.533,27.840 302.083 C 28.144 302.633,28.548 303.308,28.738 303.583 C 28.928 303.857,29.225 304.345,29.397 304.666 C 30.068 305.915,36.612 315.736,37.419 316.706 C 37.551 316.866,37.842 317.285,38.065 317.638 C 38.288 317.991,38.572 318.386,38.695 318.515 C 38.819 318.644,39.443 319.462,40.082 320.333 C 40.720 321.204,41.287 321.954,41.341 322.000 C 41.395 322.046,41.771 322.533,42.177 323.083 C 42.583 323.633,42.959 324.121,43.013 324.167 C 43.068 324.212,43.777 325.075,44.589 326.083 C 45.402 327.092,46.146 328.002,46.242 328.106 C 46.338 328.211,46.564 328.473,46.744 328.690 C 47.540 329.647,48.922 331.279,49.195 331.583 C 49.359 331.767,49.664 332.111,49.872 332.349 C 51.712 334.456,54.948 337.916,58.081 341.127 L 59.750 342.838 199.917 342.840 L 340.083 342.842 343.500 339.366 C 346.621 336.190,348.306 334.389,349.846 332.583 C 350.158 332.217,350.529 331.804,350.670 331.667 C 350.810 331.529,351.298 330.967,351.754 330.417 C 352.210 329.867,352.625 329.379,352.676 329.333 C 352.728 329.287,353.289 328.612,353.924 327.833 C 354.558 327.054,355.118 326.379,355.168 326.333 C 355.218 326.287,355.517 325.912,355.833 325.500 C 356.149 325.087,356.450 324.712,356.502 324.667 C 356.554 324.621,357.180 323.833,357.892 322.917 C 358.605 322.000,359.296 321.118,359.428 320.956 C 359.559 320.795,359.667 320.595,359.667 320.512 C 359.667 320.429,359.739 320.336,359.827 320.306 C 359.949 320.263,364.272 314.345,365.162 313.000 C 365.254 312.862,365.952 311.813,366.715 310.667 C 367.935 308.835,369.818 305.885,370.387 304.917 C 370.494 304.733,370.751 304.345,370.958 304.053 C 371.164 303.761,371.333 303.476,371.333 303.420 C 371.333 303.363,371.592 302.913,371.908 302.419 C 372.224 301.925,372.639 301.235,372.829 300.885 C 373.019 300.536,373.311 300.025,373.477 299.750 C 373.643 299.475,374.027 298.800,374.332 298.250 C 374.636 297.700,374.977 297.100,375.089 296.917 C 376.032 295.372,380.667 286.226,380.667 285.908 C 380.667 285.632,19.435 285.533,19.265 285.809 " stroke="none" fill="#6c6c7c" fill-rule="evenodd"></path><path id="path3" d="M187.917 0.261 C 186.267 0.388,183.829 0.573,182.500 0.671 C 181.171 0.769,179.258 0.954,178.250 1.081 C 177.242 1.208,175.629 1.397,174.667 1.501 C 173.704 1.605,172.204 1.801,171.333 1.938 C 170.462 2.074,169.225 2.262,168.583 2.354 C 167.193 2.554,165.028 2.927,163.417 3.244 C 162.775 3.370,161.762 3.558,161.167 3.662 C 160.571 3.767,159.633 3.954,159.083 4.078 C 158.533 4.202,157.633 4.394,157.083 4.504 C 156.533 4.614,155.708 4.798,155.250 4.913 C 154.792 5.028,153.967 5.216,153.417 5.330 C 152.867 5.444,152.079 5.633,151.667 5.749 C 150.823 5.987,149.088 6.443,148.083 6.691 C 147.717 6.782,147.079 6.956,146.667 7.079 C 146.254 7.201,145.542 7.390,145.083 7.498 C 144.625 7.607,143.987 7.794,143.667 7.913 C 143.346 8.033,142.746 8.223,142.333 8.335 C 141.214 8.640,139.990 9.016,139.333 9.258 C 139.012 9.376,137.813 9.774,136.667 10.142 C 134.347 10.887,134.322 10.896,131.167 12.045 C 128.385 13.058,127.528 13.388,124.583 14.583 C 121.339 15.900,121.444 15.856,121.167 16.020 C 121.029 16.102,120.804 16.213,120.667 16.266 C 119.653 16.661,118.698 17.069,117.667 17.546 C 117.162 17.779,116.225 18.210,115.583 18.504 C 113.520 19.448,105.386 23.535,105.082 23.781 C 104.989 23.856,104.427 24.165,103.832 24.470 C 103.237 24.774,102.638 25.092,102.500 25.177 C 101.764 25.630,98.797 27.333,98.742 27.333 C 98.597 27.333,96.079 28.910,96.028 29.033 C 95.997 29.107,95.904 29.167,95.821 29.167 C 95.686 29.167,92.829 30.881,92.417 31.209 C 92.325 31.282,91.875 31.577,91.417 31.864 C 89.757 32.903,88.749 33.586,88.694 33.708 C 88.664 33.777,88.570 33.833,88.485 33.833 C 88.400 33.833,87.675 34.307,86.874 34.885 C 86.072 35.463,85.173 36.079,84.875 36.254 C 84.577 36.429,84.333 36.614,84.333 36.665 C 84.333 36.716,84.071 36.899,83.750 37.072 C 83.429 37.244,83.167 37.449,83.167 37.526 C 83.167 37.603,83.054 37.667,82.917 37.667 C 82.779 37.667,82.667 37.728,82.667 37.803 C 82.667 37.877,82.372 38.104,82.013 38.306 C 81.653 38.508,81.334 38.730,81.304 38.799 C 81.274 38.868,80.537 39.442,79.667 40.074 C 78.796 40.707,78.046 41.273,78.000 41.333 C 77.954 41.392,77.467 41.768,76.917 42.169 C 76.367 42.570,75.842 42.981,75.750 43.083 C 75.658 43.185,75.283 43.487,74.917 43.753 C 74.550 44.020,74.169 44.316,74.069 44.411 C 73.970 44.506,73.562 44.846,73.163 45.167 C 72.764 45.487,72.246 45.920,72.011 46.128 C 71.076 46.956,70.883 47.119,70.000 47.836 C 69.496 48.246,68.882 48.769,68.635 48.999 C 68.389 49.229,68.014 49.568,67.802 49.754 C 67.590 49.939,66.818 50.614,66.086 51.254 C 65.354 51.893,64.372 52.792,63.904 53.250 C 63.435 53.708,62.356 54.742,61.504 55.548 C 60.653 56.353,59.991 57.047,60.034 57.090 C 60.077 57.132,123.097 57.148,200.078 57.125 L 340.046 57.083 338.922 56.000 C 336.430 53.597,335.831 53.032,334.505 51.833 C 333.744 51.146,332.893 50.396,332.613 50.167 C 332.334 49.938,331.913 49.560,331.678 49.328 C 331.442 49.096,330.837 48.572,330.333 48.164 C 329.829 47.755,329.379 47.381,329.333 47.332 C 329.239 47.231,327.429 45.716,326.945 45.333 C 326.772 45.196,326.519 44.978,326.384 44.849 C 326.249 44.720,325.039 43.760,323.694 42.714 C 322.350 41.669,321.118 40.705,320.956 40.573 C 320.795 40.441,320.616 40.333,320.558 40.333 C 320.501 40.333,320.370 40.229,320.268 40.101 C 320.126 39.922,315.489 36.553,312.917 34.760 C 311.722 33.927,310.269 33.000,310.158 33.000 C 310.087 33.000,310.003 32.941,309.972 32.869 C 309.942 32.798,309.204 32.295,308.333 31.752 C 307.462 31.209,306.712 30.715,306.667 30.653 C 306.621 30.592,306.321 30.401,305.999 30.229 C 305.678 30.057,305.190 29.767,304.915 29.583 C 304.189 29.099,303.836 28.891,303.042 28.477 C 302.652 28.274,302.333 28.046,302.333 27.970 C 302.333 27.895,302.266 27.833,302.184 27.833 C 302.102 27.833,301.211 27.346,300.204 26.750 C 299.197 26.154,298.295 25.667,298.200 25.667 C 298.105 25.667,298.003 25.610,297.972 25.542 C 297.942 25.473,297.654 25.278,297.333 25.108 C 297.012 24.938,296.316 24.563,295.786 24.274 C 290.716 21.517,285.170 18.790,280.667 16.841 C 279.979 16.543,279.304 16.243,279.167 16.175 C 279.029 16.106,277.867 15.620,276.583 15.095 C 275.300 14.569,274.025 14.040,273.750 13.919 C 273.475 13.798,272.500 13.423,271.583 13.087 C 270.020 12.514,269.621 12.365,268.042 11.761 C 266.863 11.310,265.416 10.810,264.417 10.508 C 263.867 10.342,263.229 10.128,263.000 10.033 C 262.527 9.837,258.801 8.654,257.667 8.340 C 257.254 8.226,256.617 8.037,256.250 7.921 C 255.883 7.805,255.246 7.620,254.833 7.510 C 254.421 7.400,253.746 7.209,253.333 7.084 C 252.921 6.960,252.171 6.769,251.667 6.660 C 251.162 6.552,250.594 6.403,250.403 6.331 C 249.831 6.114,244.369 4.803,242.417 4.414 C 241.683 4.268,240.783 4.084,240.417 4.005 C 240.050 3.926,239.300 3.777,238.750 3.674 C 238.200 3.571,237.225 3.381,236.583 3.252 C 234.835 2.901,232.744 2.541,231.250 2.333 C 230.517 2.232,229.279 2.045,228.500 1.919 C 227.721 1.793,226.371 1.612,225.500 1.517 C 224.629 1.422,222.942 1.231,221.750 1.094 C 220.558 0.957,218.608 0.768,217.417 0.676 C 216.225 0.583,214.200 0.418,212.917 0.309 C 209.345 0.006,191.650 -0.028,187.917 0.261 M60.000 342.931 C 60.000 342.985,60.687 343.679,61.526 344.473 C 62.365 345.267,63.435 346.292,63.904 346.750 C 64.372 347.208,65.354 348.107,66.086 348.746 C 66.818 349.386,67.590 350.061,67.802 350.246 C 68.014 350.432,68.389 350.771,68.635 351.001 C 68.882 351.231,69.496 351.754,70.000 352.164 C 70.883 352.881,71.076 353.044,72.011 353.872 C 72.246 354.080,72.764 354.512,73.163 354.833 C 73.562 355.154,73.970 355.494,74.069 355.589 C 74.169 355.684,74.550 355.980,74.917 356.247 C 75.283 356.513,75.658 356.815,75.750 356.917 C 75.842 357.019,76.367 357.430,76.917 357.831 C 77.467 358.232,77.954 358.608,78.000 358.667 C 78.046 358.727,78.796 359.293,79.667 359.926 C 80.537 360.558,81.274 361.132,81.304 361.201 C 81.334 361.270,81.653 361.492,82.013 361.694 C 82.372 361.896,82.667 362.123,82.667 362.197 C 82.667 362.272,82.779 362.333,82.917 362.333 C 83.054 362.333,83.167 362.397,83.167 362.474 C 83.167 362.551,83.429 362.756,83.750 362.928 C 84.071 363.101,84.333 363.284,84.333 363.335 C 84.333 363.386,84.577 363.571,84.875 363.746 C 85.173 363.921,86.072 364.537,86.874 365.115 C 87.675 365.693,88.400 366.167,88.485 366.167 C 88.570 366.167,88.664 366.223,88.694 366.292 C 88.749 366.414,89.757 367.097,91.417 368.136 C 91.875 368.423,92.325 368.718,92.417 368.791 C 92.829 369.119,95.686 370.833,95.821 370.833 C 95.904 370.833,95.997 370.893,96.028 370.967 C 96.079 371.090,98.597 372.667,98.742 372.667 C 98.797 372.667,101.764 374.370,102.500 374.823 C 102.638 374.908,103.237 375.226,103.832 375.530 C 104.427 375.835,104.989 376.144,105.082 376.219 C 105.371 376.453,113.710 380.645,115.750 381.582 C 118.516 382.853,118.825 382.990,120.083 383.502 C 120.358 383.614,120.696 383.772,120.833 383.854 C 120.971 383.935,121.196 384.046,121.333 384.100 C 121.471 384.153,121.733 384.258,121.917 384.333 C 126.575 386.240,128.121 386.846,131.167 387.955 C 134.322 389.104,134.347 389.113,136.667 389.858 C 137.813 390.226,139.012 390.624,139.333 390.742 C 139.990 390.984,141.214 391.360,142.333 391.665 C 142.746 391.777,143.346 391.967,143.667 392.087 C 143.987 392.206,144.625 392.393,145.083 392.502 C 145.542 392.610,146.254 392.799,146.667 392.921 C 147.079 393.044,147.717 393.218,148.083 393.309 C 149.088 393.557,150.823 394.013,151.667 394.251 C 152.079 394.367,152.867 394.556,153.417 394.670 C 153.967 394.784,154.792 394.972,155.250 395.087 C 155.708 395.202,156.533 395.386,157.083 395.496 C 157.633 395.606,158.533 395.798,159.083 395.922 C 159.633 396.046,160.571 396.233,161.167 396.338 C 161.762 396.442,162.775 396.630,163.417 396.756 C 165.028 397.073,167.193 397.446,168.583 397.646 C 169.225 397.738,170.462 397.926,171.333 398.062 C 172.204 398.199,173.704 398.395,174.667 398.499 C 175.629 398.603,177.242 398.792,178.250 398.919 C 180.039 399.145,181.011 399.225,188.583 399.767 C 192.892 400.076,208.952 400.025,212.917 399.690 C 214.200 399.582,216.225 399.417,217.417 399.324 C 218.608 399.232,220.558 399.043,221.750 398.906 C 222.942 398.769,224.629 398.578,225.500 398.483 C 226.371 398.388,227.721 398.207,228.500 398.081 C 229.279 397.955,230.517 397.768,231.250 397.667 C 232.704 397.465,234.712 397.119,236.667 396.734 C 237.354 396.598,238.329 396.409,238.833 396.313 C 239.338 396.218,240.050 396.074,240.417 395.995 C 240.783 395.916,241.683 395.732,242.417 395.586 C 244.369 395.197,249.831 393.886,250.403 393.669 C 250.594 393.597,251.162 393.448,251.667 393.340 C 252.171 393.231,252.921 393.040,253.333 392.916 C 253.746 392.791,254.421 392.600,254.833 392.490 C 255.246 392.380,255.883 392.195,256.250 392.079 C 256.617 391.963,257.254 391.774,257.667 391.660 C 258.801 391.346,262.527 390.163,263.000 389.967 C 263.229 389.872,263.867 389.658,264.417 389.492 C 265.416 389.190,266.863 388.690,268.042 388.239 C 269.621 387.635,270.020 387.486,271.583 386.913 C 272.500 386.577,273.475 386.202,273.750 386.081 C 274.025 385.960,275.300 385.431,276.583 384.905 C 277.867 384.380,279.029 383.894,279.167 383.825 C 279.304 383.757,279.979 383.457,280.667 383.160 C 285.196 381.202,290.266 378.711,295.788 375.731 C 296.317 375.445,297.012 375.070,297.333 374.898 C 297.654 374.725,297.942 374.527,297.972 374.458 C 298.003 374.390,298.100 374.333,298.188 374.333 C 298.322 374.333,300.157 373.316,301.415 372.544 C 301.599 372.431,301.881 372.291,302.042 372.233 C 302.202 372.175,302.333 372.075,302.333 372.010 C 302.333 371.945,302.652 371.726,303.042 371.523 C 303.836 371.109,304.189 370.901,304.915 370.417 C 305.190 370.233,305.678 369.943,305.999 369.771 C 306.321 369.599,306.621 369.408,306.667 369.347 C 306.712 369.285,307.462 368.791,308.333 368.248 C 309.204 367.705,309.942 367.202,309.972 367.131 C 310.003 367.059,310.096 367.000,310.179 367.000 C 310.262 367.000,310.837 366.656,311.457 366.235 C 314.182 364.385,320.063 360.156,320.268 359.898 C 320.370 359.771,320.501 359.667,320.558 359.667 C 320.616 359.667,320.795 359.559,320.956 359.427 C 321.118 359.295,322.337 358.338,323.667 357.301 C 325.846 355.601,326.452 355.115,327.061 354.583 C 327.166 354.492,327.702 354.043,328.251 353.587 C 328.801 353.131,329.287 352.717,329.333 352.668 C 329.379 352.619,329.829 352.245,330.333 351.836 C 330.837 351.428,331.444 350.904,331.681 350.672 C 331.918 350.440,332.331 350.069,332.598 349.847 C 333.423 349.163,336.035 346.794,336.932 345.917 C 337.400 345.458,338.189 344.702,338.684 344.236 C 339.178 343.771,339.686 343.264,339.812 343.111 C 340.026 342.852,330.746 342.833,200.020 342.833 C 123.009 342.833,60.000 342.877,60.000 342.931 " stroke="none" fill="#3c3c3c" fill-rule="evenodd"></path></g></svg>