<svg id="svg" version="1.1" xmlns="http://www.w3.org/2000/svg" xmlns:xlink="http://www.w3.org/1999/xlink" viewBox="0, 0, 400,400"><g id="svgg"><path id="path0" d="M187.833 0.263 C 186.137 0.391,183.813 0.575,182.667 0.671 C 181.521 0.767,180.171 0.879,179.667 0.921 C 179.162 0.962,178.225 1.068,177.583 1.155 C 176.942 1.242,175.667 1.399,174.750 1.502 C 172.528 1.753,172.079 1.812,171.000 1.994 C 170.496 2.079,169.483 2.232,168.750 2.334 C 167.257 2.541,165.206 2.892,163.333 3.261 C 162.646 3.397,161.708 3.578,161.250 3.664 C 158.686 4.146,156.969 4.515,154.583 5.096 C 153.575 5.342,152.600 5.564,152.417 5.589 C 152.233 5.615,151.483 5.800,150.750 6.001 C 150.017 6.202,148.967 6.475,148.417 6.607 C 147.498 6.827,146.203 7.187,145.167 7.510 C 144.938 7.582,144.300 7.766,143.750 7.920 C 143.200 8.075,142.563 8.262,142.333 8.337 C 142.104 8.412,141.467 8.599,140.917 8.752 C 140.367 8.906,139.654 9.132,139.333 9.254 C 138.675 9.505,136.839 10.111,136.083 10.326 C 134.819 10.686,127.756 13.262,126.250 13.912 C 125.975 14.031,124.700 14.561,123.417 15.089 C 122.133 15.617,120.971 16.105,120.833 16.172 C 120.696 16.239,120.358 16.386,120.083 16.498 C 118.854 16.999,118.739 17.051,115.083 18.757 C 112.387 20.015,105.200 23.633,105.000 23.833 C 104.954 23.879,104.654 24.046,104.333 24.204 C 103.485 24.622,100.151 26.505,98.583 27.451 C 98.400 27.562,98.100 27.723,97.917 27.809 C 97.733 27.896,97.299 28.162,96.951 28.400 C 96.603 28.638,96.247 28.833,96.159 28.833 C 96.072 28.833,96.000 28.894,96.000 28.969 C 96.000 29.044,95.746 29.226,95.436 29.374 C 94.923 29.619,92.236 31.314,89.781 32.941 C 89.249 33.294,88.690 33.658,88.540 33.750 C 88.390 33.842,87.626 34.368,86.842 34.920 C 86.058 35.472,85.194 36.066,84.921 36.240 C 84.648 36.414,84.348 36.621,84.254 36.700 C 83.549 37.289,82.101 38.333,81.989 38.333 C 81.913 38.333,81.651 38.518,81.407 38.744 C 81.163 38.971,80.512 39.477,79.960 39.869 C 79.408 40.262,78.834 40.696,78.684 40.833 C 78.534 40.971,77.851 41.496,77.167 42.000 C 76.482 42.504,75.805 43.029,75.662 43.167 C 75.519 43.304,75.193 43.567,74.938 43.750 C 74.683 43.933,74.302 44.233,74.092 44.417 C 73.012 45.360,71.915 46.276,71.611 46.490 C 71.424 46.622,71.152 46.847,71.008 46.990 C 70.864 47.133,70.372 47.550,69.915 47.917 C 69.457 48.283,68.885 48.771,68.644 49.000 C 68.402 49.229,67.729 49.829,67.148 50.333 C 63.285 53.687,52.333 64.532,52.333 65.004 C 52.333 65.093,52.265 65.167,52.181 65.167 C 52.097 65.167,51.404 65.897,50.639 66.790 C 49.875 67.683,49.099 68.564,48.914 68.748 C 48.729 68.933,48.151 69.608,47.630 70.250 C 47.108 70.892,46.484 71.642,46.242 71.917 C 46.000 72.192,45.528 72.747,45.193 73.150 C 44.858 73.553,44.506 73.965,44.411 74.066 C 44.316 74.167,44.020 74.550,43.753 74.917 C 43.487 75.283,43.190 75.658,43.093 75.750 C 42.996 75.842,42.584 76.367,42.176 76.917 C 41.769 77.467,41.376 77.942,41.301 77.972 C 41.227 78.003,41.167 78.097,41.167 78.181 C 41.167 78.265,41.035 78.473,40.875 78.644 C 40.715 78.815,40.208 79.488,39.750 80.139 C 39.292 80.790,38.865 81.325,38.802 81.328 C 38.739 81.331,38.519 81.633,38.313 82.000 C 38.107 82.367,37.877 82.667,37.803 82.667 C 37.728 82.667,37.667 82.779,37.667 82.917 C 37.667 83.054,37.608 83.167,37.536 83.167 C 37.464 83.167,37.262 83.410,37.086 83.708 C 36.910 84.006,36.703 84.325,36.625 84.417 C 36.194 84.923,33.833 88.372,33.833 88.494 C 33.833 88.574,33.777 88.664,33.708 88.694 C 33.588 88.748,32.986 89.634,31.858 91.417 C 31.198 92.460,31.165 92.511,30.270 93.864 C 29.864 94.476,29.565 95.009,29.604 95.048 C 29.643 95.087,29.560 95.214,29.421 95.330 C 29.281 95.446,29.167 95.638,29.167 95.757 C 29.167 95.875,29.110 95.997,29.042 96.028 C 28.881 96.099,27.333 98.658,27.333 98.853 C 27.333 98.934,27.258 99.000,27.167 99.000 C 27.075 99.000,27.000 99.077,27.000 99.171 C 27.000 99.265,26.410 100.371,25.689 101.629 C 23.596 105.282,20.739 110.805,18.809 114.928 C 17.086 118.608,16.667 119.523,16.667 119.603 C 16.667 119.650,16.473 120.114,16.237 120.635 C 16.000 121.157,15.730 121.771,15.636 122.000 C 15.361 122.670,15.027 123.465,14.775 124.044 C 14.646 124.341,14.337 125.108,14.088 125.750 C 13.838 126.392,13.576 127.067,13.504 127.250 C 13.063 128.376,12.809 129.056,12.413 130.167 C 12.168 130.854,11.870 131.642,11.750 131.917 C 11.631 132.192,11.411 132.792,11.263 133.250 C 11.114 133.708,10.928 134.233,10.850 134.417 C 10.732 134.694,9.854 137.385,8.757 140.833 C 8.455 141.781,7.775 144.056,7.760 144.167 C 7.754 144.212,7.651 144.587,7.531 145.000 C 7.069 146.589,6.833 147.444,6.657 148.167 C 6.556 148.579,6.371 149.292,6.246 149.750 C 5.746 151.585,5.618 152.098,5.579 152.417 C 5.557 152.600,5.455 153.069,5.353 153.458 C 5.250 153.848,5.084 154.483,4.982 154.870 C 4.881 155.257,4.767 155.763,4.729 155.995 C 4.596 156.809,4.123 158.915,3.895 159.708 C 3.815 159.986,13.228 160.000,199.905 160.000 C 307.757 160.000,396.000 159.940,396.000 159.867 C 396.000 159.683,395.371 156.625,395.085 155.417 C 394.954 154.867,394.655 153.592,394.420 152.583 C 394.185 151.575,393.889 150.412,393.763 150.000 C 393.636 149.587,393.442 148.875,393.332 148.417 C 393.222 147.958,393.037 147.246,392.920 146.833 C 392.803 146.421,392.615 145.746,392.501 145.333 C 392.387 144.921,392.193 144.246,392.069 143.833 C 391.945 143.421,391.648 142.408,391.409 141.583 C 391.169 140.758,390.894 139.896,390.798 139.667 C 390.702 139.438,390.554 138.987,390.469 138.667 C 390.177 137.564,390.022 137.080,389.509 135.667 C 389.226 134.887,388.767 133.575,388.490 132.750 C 388.213 131.925,387.919 131.100,387.835 130.917 C 387.752 130.733,387.372 129.758,386.991 128.750 C 385.311 124.300,385.517 124.817,384.698 123.000 C 384.511 122.587,384.082 121.577,383.743 120.754 C 383.150 119.313,382.875 118.687,381.797 116.333 C 381.284 115.212,379.574 111.607,379.347 111.167 C 376.834 106.296,376.273 105.222,376.172 105.083 C 376.105 104.992,375.749 104.354,375.380 103.667 C 375.011 102.979,374.540 102.117,374.332 101.750 C 374.125 101.383,373.810 100.821,373.632 100.500 C 373.455 100.179,373.086 99.542,372.813 99.083 C 372.539 98.625,372.273 98.119,372.222 97.958 C 372.170 97.798,372.075 97.667,372.010 97.667 C 371.945 97.667,371.726 97.348,371.523 96.958 C 371.070 96.089,370.782 95.610,370.648 95.500 C 370.591 95.454,370.293 94.967,369.986 94.417 C 369.679 93.867,369.365 93.342,369.290 93.250 C 369.214 93.158,368.296 91.771,367.250 90.167 C 366.204 88.563,365.288 87.175,365.216 87.082 C 365.143 86.990,364.747 86.427,364.337 85.832 C 362.765 83.555,359.962 79.748,359.818 79.694 C 359.735 79.664,359.667 79.571,359.667 79.488 C 359.667 79.405,359.558 79.205,359.426 79.044 C 359.294 78.882,358.391 77.737,357.419 76.500 C 355.400 73.928,354.819 73.197,354.583 72.934 C 354.492 72.832,354.043 72.298,353.585 71.749 C 353.128 71.199,352.678 70.670,352.585 70.571 C 352.493 70.473,352.117 70.029,351.750 69.586 C 351.383 69.142,350.933 68.622,350.750 68.430 C 350.567 68.237,349.893 67.481,349.254 66.748 C 348.614 66.016,347.808 65.130,347.462 64.779 C 347.116 64.428,346.833 64.118,346.833 64.090 C 346.833 63.869,336.137 53.167,335.916 53.167 C 335.891 53.167,335.540 52.848,335.137 52.458 C 334.733 52.069,333.891 51.300,333.265 50.750 C 332.639 50.200,331.885 49.525,331.588 49.250 C 331.292 48.975,330.729 48.491,330.337 48.175 C 329.945 47.859,329.540 47.521,329.437 47.424 C 329.217 47.215,327.404 45.696,326.944 45.333 C 326.769 45.196,326.504 44.965,326.355 44.821 C 326.205 44.676,325.786 44.338,325.422 44.071 C 324.890 43.679,322.614 41.894,320.956 40.568 C 320.795 40.439,320.616 40.333,320.558 40.333 C 320.501 40.333,320.370 40.229,320.268 40.102 C 320.167 39.974,318.546 38.775,316.667 37.437 C 314.787 36.099,313.159 34.929,313.049 34.836 C 312.938 34.743,312.775 34.667,312.688 34.667 C 312.600 34.667,312.503 34.610,312.472 34.542 C 312.421 34.426,310.590 33.158,310.279 33.024 C 310.146 32.966,307.226 31.052,306.620 30.626 C 306.457 30.511,306.066 30.267,305.751 30.083 C 305.436 29.900,304.371 29.262,303.382 28.667 C 300.612 26.996,299.785 26.511,299.333 26.292 C 299.104 26.181,298.879 26.045,298.833 25.990 C 298.787 25.935,298.525 25.776,298.250 25.636 C 297.608 25.310,295.945 24.411,294.250 23.476 C 293.517 23.071,292.654 22.609,292.333 22.449 C 292.012 22.288,291.637 22.096,291.500 22.021 C 290.666 21.567,287.410 19.949,286.000 19.287 C 285.496 19.051,284.371 18.523,283.500 18.114 C 282.629 17.705,281.354 17.133,280.667 16.843 C 279.979 16.553,279.028 16.132,278.552 15.908 C 278.077 15.683,277.634 15.500,277.568 15.500 C 277.503 15.500,277.034 15.304,276.528 15.064 C 276.021 14.824,275.526 14.611,275.428 14.589 C 275.224 14.545,274.834 14.392,274.000 14.032 C 273.679 13.894,273.379 13.772,273.333 13.761 C 273.215 13.734,270.000 12.512,269.500 12.304 C 269.271 12.209,268.671 11.992,268.167 11.823 C 266.742 11.345,265.781 11.004,265.417 10.849 C 265.233 10.770,263.883 10.321,262.417 9.850 C 260.950 9.379,259.525 8.916,259.250 8.821 C 258.975 8.725,258.616 8.618,258.451 8.582 C 258.287 8.546,257.874 8.428,257.534 8.320 C 256.135 7.877,255.546 7.700,254.833 7.510 C 254.421 7.401,253.858 7.246,253.583 7.168 C 253.308 7.089,252.596 6.903,252.000 6.754 C 251.404 6.605,250.579 6.382,250.167 6.258 C 249.754 6.134,249.079 5.954,248.667 5.858 C 248.254 5.762,247.092 5.485,246.083 5.242 C 245.075 4.998,244.100 4.771,243.917 4.736 C 243.733 4.702,242.871 4.518,242.000 4.327 C 240.149 3.922,239.149 3.730,237.689 3.498 C 237.106 3.405,236.567 3.291,236.491 3.244 C 236.416 3.198,236.031 3.121,235.635 3.073 C 235.240 3.026,234.429 2.883,233.833 2.756 C 233.237 2.630,232.075 2.439,231.250 2.332 C 230.425 2.225,229.410 2.074,228.995 1.995 C 228.580 1.917,227.868 1.809,227.412 1.756 C 226.956 1.702,225.983 1.587,225.250 1.499 C 222.005 1.112,219.428 0.843,217.417 0.681 C 216.225 0.585,214.200 0.418,212.917 0.309 C 209.340 0.005,191.665 -0.027,187.833 0.263 " stroke="none" fill="#f3bcd4" fill-rule="evenodd"></path><path id="path1" d="M3.895 240.292 C 4.115 241.058,4.332 242.013,4.509 243.000 C 4.616 243.596,4.803 244.458,4.925 244.917 C 5.047 245.375,5.340 246.575,5.576 247.583 C 5.812 248.592,6.112 249.792,6.242 250.250 C 6.372 250.708,6.566 251.458,6.672 251.917 C 6.779 252.375,6.970 253.088,7.097 253.500 C 7.317 254.216,7.966 256.495,8.354 257.917 C 8.454 258.283,8.633 258.846,8.751 259.167 C 8.869 259.487,9.170 260.425,9.419 261.250 C 9.667 262.075,9.945 262.938,10.035 263.167 C 10.126 263.396,10.496 264.483,10.859 265.583 C 11.222 266.683,11.627 267.820,11.759 268.109 C 11.892 268.397,12.000 268.739,12.000 268.867 C 12.000 268.995,12.066 269.171,12.146 269.258 C 12.226 269.345,12.446 269.870,12.634 270.424 C 12.822 270.977,13.065 271.652,13.175 271.924 C 13.285 272.195,13.433 272.567,13.505 272.750 C 13.997 274.013,15.060 276.669,15.238 277.083 C 15.356 277.358,15.532 277.771,15.628 278.000 C 15.725 278.229,15.952 278.754,16.135 279.167 C 16.317 279.579,16.745 280.554,17.086 281.333 C 18.455 284.466,21.873 291.437,23.418 294.250 C 23.921 295.167,24.488 296.217,24.677 296.583 C 24.866 296.950,25.110 297.401,25.219 297.585 C 26.356 299.512,27.000 300.679,27.000 300.812 C 27.000 300.900,27.056 300.997,27.125 301.028 C 27.194 301.058,27.618 301.721,28.066 302.500 C 28.514 303.279,28.926 303.954,28.982 304.000 C 29.038 304.046,29.227 304.346,29.403 304.667 C 29.729 305.260,30.881 307.110,31.119 307.422 C 31.191 307.516,31.394 307.854,31.571 308.172 C 31.747 308.490,31.936 308.787,31.991 308.833 C 32.046 308.879,32.426 309.442,32.836 310.083 C 33.246 310.725,33.638 311.275,33.708 311.306 C 33.777 311.336,33.833 311.423,33.833 311.499 C 33.833 311.626,36.067 314.909,36.564 315.512 C 36.683 315.657,36.921 316.013,37.093 316.304 C 37.264 316.595,37.464 316.833,37.536 316.833 C 37.608 316.833,37.667 316.911,37.667 317.007 C 37.667 317.103,37.739 317.271,37.828 317.382 C 37.916 317.493,38.201 317.846,38.460 318.167 C 38.719 318.487,39.451 319.462,40.087 320.333 C 40.723 321.204,41.287 321.954,41.342 322.000 C 41.396 322.046,41.768 322.533,42.169 323.083 C 42.570 323.633,42.985 324.158,43.091 324.250 C 43.197 324.342,43.501 324.717,43.766 325.083 C 44.031 325.450,44.291 325.787,44.344 325.833 C 44.397 325.879,44.775 326.329,45.184 326.833 C 46.228 328.122,46.546 328.502,46.841 328.812 C 46.983 328.961,47.432 329.496,47.840 330.000 C 48.247 330.504,48.769 331.116,48.999 331.359 C 49.357 331.737,50.082 332.560,51.387 334.066 C 54.666 337.854,64.241 347.284,67.893 350.325 C 68.063 350.467,68.401 350.771,68.643 351.001 C 68.885 351.231,69.496 351.753,70.000 352.160 C 70.504 352.568,71.039 353.017,71.188 353.159 C 71.337 353.301,71.602 353.529,71.777 353.667 C 72.266 354.052,74.043 355.545,74.417 355.885 C 74.600 356.052,74.994 356.340,75.292 356.525 C 75.590 356.709,75.833 356.929,75.833 357.014 C 75.833 357.098,75.946 357.167,76.083 357.167 C 76.221 357.167,76.333 357.236,76.333 357.320 C 76.333 357.404,76.577 357.624,76.875 357.809 C 77.173 357.993,77.567 358.284,77.750 358.455 C 77.933 358.625,78.533 359.093,79.083 359.495 C 81.495 361.255,82.587 362.088,82.639 362.207 C 82.669 362.276,82.794 362.333,82.917 362.333 C 83.039 362.333,83.164 362.397,83.194 362.475 C 83.225 362.553,83.550 362.815,83.917 363.057 C 84.761 363.614,85.087 363.841,86.874 365.122 C 87.675 365.697,88.372 366.167,88.422 366.167 C 88.473 366.167,88.605 366.247,88.715 366.344 C 88.826 366.442,89.629 366.980,90.500 367.540 C 91.371 368.100,92.683 368.945,93.417 369.418 C 94.150 369.890,95.013 370.421,95.333 370.597 C 95.654 370.773,95.954 370.959,96.000 371.010 C 96.103 371.125,98.654 372.667,98.742 372.667 C 98.795 372.667,101.645 374.301,102.500 374.822 C 102.638 374.905,103.237 375.222,103.833 375.525 C 104.429 375.828,104.954 376.116,105.000 376.163 C 105.135 376.303,106.508 377.013,110.583 379.048 C 114.218 380.863,115.245 381.356,117.583 382.406 C 119.155 383.111,119.548 383.284,120.083 383.502 C 120.358 383.614,120.696 383.772,120.833 383.854 C 120.971 383.935,121.196 384.045,121.333 384.099 C 121.471 384.152,122.783 384.683,124.250 385.279 C 129.427 387.382,134.862 389.362,138.167 390.346 C 138.487 390.442,139.012 390.618,139.333 390.738 C 139.867 390.937,140.999 391.285,142.500 391.711 C 142.821 391.803,143.346 391.973,143.667 392.091 C 143.987 392.208,144.625 392.393,145.083 392.502 C 145.542 392.610,146.254 392.802,146.667 392.928 C 147.079 393.055,147.867 393.266,148.417 393.398 C 148.967 393.531,150.467 393.905,151.750 394.230 C 154.167 394.842,155.596 395.179,157.167 395.509 C 157.671 395.615,158.533 395.802,159.083 395.925 C 159.633 396.048,160.571 396.230,161.167 396.331 C 161.762 396.432,162.775 396.621,163.417 396.751 C 164.894 397.051,167.079 397.429,168.583 397.646 C 169.225 397.738,170.462 397.926,171.333 398.062 C 172.204 398.199,173.704 398.396,174.667 398.500 C 175.629 398.604,177.242 398.791,178.250 398.916 C 180.081 399.141,181.678 399.273,188.583 399.767 C 192.892 400.076,208.952 400.025,212.917 399.690 C 214.200 399.582,216.225 399.417,217.417 399.324 C 218.608 399.232,220.558 399.043,221.750 398.906 C 222.942 398.769,224.629 398.578,225.500 398.483 C 226.371 398.388,227.721 398.208,228.500 398.083 C 231.155 397.656,232.250 397.486,232.750 397.420 C 233.283 397.350,235.444 396.963,237.500 396.569 C 238.188 396.437,239.125 396.259,239.583 396.173 C 241.054 395.898,243.700 395.329,245.500 394.901 C 246.463 394.673,247.737 394.370,248.333 394.228 C 248.929 394.087,249.754 393.869,250.167 393.744 C 250.579 393.619,251.404 393.395,252.000 393.246 C 252.596 393.097,253.308 392.910,253.583 392.831 C 256.237 392.066,257.180 391.796,257.750 391.639 C 258.117 391.538,259.204 391.194,260.167 390.874 C 261.129 390.555,262.142 390.233,262.417 390.160 C 262.988 390.007,267.121 388.603,268.000 388.263 C 268.321 388.139,268.883 387.922,269.250 387.780 C 269.617 387.639,270.667 387.248,271.583 386.913 C 272.500 386.577,273.475 386.201,273.750 386.077 C 274.025 385.954,274.850 385.616,275.583 385.326 C 276.317 385.036,276.988 384.732,277.075 384.650 C 277.162 384.567,277.335 384.500,277.460 384.500 C 277.585 384.500,278.114 384.305,278.635 384.067 C 279.157 383.829,279.979 383.454,280.463 383.234 C 280.947 383.014,281.376 382.833,281.418 382.833 C 281.577 382.833,286.876 380.321,289.500 379.001 C 292.043 377.722,294.690 376.354,295.000 376.159 C 295.337 375.946,297.135 374.951,298.667 374.130 C 299.354 373.761,300.029 373.372,300.167 373.264 C 300.304 373.157,300.640 372.960,300.912 372.826 C 301.184 372.693,301.784 372.331,302.245 372.023 C 302.706 371.715,303.233 371.396,303.417 371.315 C 303.768 371.159,304.096 370.963,304.915 370.417 C 305.190 370.233,305.678 369.943,305.999 369.771 C 306.321 369.599,306.621 369.408,306.667 369.347 C 306.712 369.285,307.462 368.791,308.333 368.248 C 309.204 367.705,309.942 367.202,309.972 367.131 C 310.003 367.059,310.087 367.000,310.158 367.000 C 310.269 367.000,311.742 366.060,312.917 365.240 C 314.694 363.998,320.259 359.958,320.328 359.858 C 320.377 359.788,320.904 359.383,321.500 358.960 C 322.594 358.182,326.309 355.261,327.066 354.583 C 327.168 354.492,327.702 354.043,328.251 353.587 C 328.801 353.131,329.287 352.717,329.333 352.668 C 329.379 352.618,329.679 352.365,330.000 352.105 C 332.907 349.747,338.224 344.770,342.645 340.268 C 346.520 336.322,347.306 335.489,349.250 333.262 C 349.800 332.632,350.625 331.692,351.083 331.173 C 352.282 329.816,352.622 329.416,353.919 327.833 C 354.558 327.054,355.161 326.342,355.258 326.250 C 355.356 326.158,355.655 325.783,355.923 325.417 C 356.191 325.050,356.586 324.551,356.802 324.308 C 357.017 324.064,357.716 323.164,358.354 322.308 C 358.992 321.451,359.642 320.600,359.799 320.417 C 360.073 320.095,364.837 313.509,365.164 313.000 C 365.252 312.862,365.664 312.262,366.081 311.667 C 366.497 311.071,366.887 310.471,366.948 310.333 C 367.009 310.196,367.233 309.851,367.446 309.568 C 367.659 309.284,367.833 308.971,367.833 308.873 C 367.833 308.775,367.891 308.669,367.961 308.639 C 368.032 308.608,368.348 308.171,368.664 307.667 C 368.980 307.162,369.284 306.712,369.340 306.667 C 369.396 306.621,369.493 306.471,369.556 306.333 C 369.619 306.196,369.820 305.858,370.004 305.583 C 370.187 305.308,370.383 304.952,370.438 304.792 C 370.494 304.631,370.596 304.500,370.667 304.500 C 370.737 304.500,370.839 304.369,370.892 304.208 C 370.946 304.048,371.065 303.804,371.155 303.667 C 371.517 303.119,372.947 300.735,373.055 300.500 C 373.118 300.362,373.307 300.025,373.474 299.750 C 373.641 299.475,374.028 298.800,374.333 298.250 C 374.638 297.700,375.013 297.025,375.167 296.750 C 376.086 295.101,376.574 294.193,377.562 292.289 C 378.170 291.119,378.740 290.032,378.828 289.872 C 379.349 288.937,382.296 282.673,382.335 282.418 C 382.342 282.375,382.569 281.893,382.840 281.346 C 383.111 280.799,383.333 280.306,383.333 280.249 C 383.333 280.192,383.527 279.719,383.763 279.198 C 384.183 278.274,384.326 277.945,384.756 276.917 C 384.871 276.642,385.044 276.229,385.140 276.000 C 385.594 274.923,386.731 272.012,387.614 269.667 C 387.839 269.071,388.126 268.321,388.254 268.000 C 388.381 267.679,388.948 265.992,389.514 264.250 C 390.079 262.508,390.639 260.821,390.757 260.500 C 390.875 260.179,391.168 259.242,391.408 258.417 C 391.648 257.592,391.945 256.579,392.069 256.167 C 392.193 255.754,392.387 255.079,392.501 254.667 C 392.615 254.254,392.803 253.579,392.920 253.167 C 393.037 252.754,393.222 252.042,393.332 251.583 C 393.442 251.125,393.633 250.412,393.755 250.000 C 394.213 248.458,395.089 244.731,395.597 242.167 C 395.751 241.387,395.940 240.581,396.018 240.375 L 396.158 240.000 199.985 240.000 C 13.232 240.000,3.815 240.014,3.895 240.292 " stroke="none" fill="#c4bcdc" fill-rule="evenodd"></path><path id="path2" d="M199.977 159.958 L 3.871 160.000 3.672 161.125 C 3.563 161.744,3.374 162.737,3.252 163.333 C 2.947 164.821,2.646 166.484,2.573 167.083 C 2.540 167.358,2.437 168.033,2.345 168.583 C 2.065 170.253,1.697 172.832,1.512 174.417 C 1.415 175.242,1.226 176.854,1.091 178.000 C 0.823 180.276,0.634 182.487,0.233 188.083 C -0.075 192.372,-0.021 209.669,0.311 213.417 C 0.417 214.608,0.579 216.558,0.671 217.750 C 0.957 221.432,1.729 227.740,2.345 231.417 C 2.437 231.967,2.540 232.642,2.573 232.917 C 2.646 233.518,2.948 235.182,3.252 236.667 C 3.374 237.262,3.569 238.256,3.684 238.875 L 3.894 240.000 199.997 240.000 L 396.100 240.000 396.313 238.708 C 396.430 237.998,396.630 236.892,396.756 236.250 C 397.164 234.192,397.469 232.451,397.663 231.083 C 397.767 230.350,397.956 229.075,398.083 228.250 C 398.210 227.425,398.399 226.000,398.502 225.083 C 398.606 224.167,398.793 222.554,398.918 221.500 C 399.135 219.666,399.225 218.583,399.704 212.000 C 399.838 210.163,399.917 205.722,399.917 200.000 C 399.917 194.278,399.838 189.837,399.704 188.000 C 399.225 181.417,399.135 180.334,398.918 178.500 C 398.793 177.446,398.606 175.833,398.502 174.917 C 398.399 174.000,398.210 172.575,398.083 171.750 C 397.956 170.925,397.767 169.650,397.663 168.917 C 397.473 167.573,397.180 165.899,396.759 163.750 C 396.633 163.108,396.441 162.021,396.331 161.333 C 396.221 160.646,396.120 160.046,396.107 160.000 C 396.094 159.954,307.836 159.935,199.977 159.958 " stroke="none" fill="#d4b4d4" fill-rule="evenodd"></path></g></svg>