<svg id="svg" version="1.1" xmlns="http://www.w3.org/2000/svg" xmlns:xlink="http://www.w3.org/1999/xlink" viewBox="0, 0, 400,400"><g id="svgg"><path id="path0" d="M187.917 0.261 C 186.267 0.388,183.829 0.573,182.500 0.671 C 181.171 0.769,179.258 0.953,178.250 1.079 C 177.242 1.206,175.667 1.394,174.750 1.497 C 171.737 1.835,165.284 2.832,163.417 3.249 C 162.867 3.372,161.854 3.562,161.167 3.672 C 160.479 3.782,159.504 3.968,159.000 4.086 C 158.496 4.204,157.671 4.387,157.167 4.492 C 155.111 4.920,151.706 5.754,147.833 6.778 C 146.962 7.008,145.725 7.331,145.083 7.495 C 144.442 7.659,143.729 7.867,143.500 7.958 C 143.271 8.050,142.821 8.198,142.500 8.289 C 141.073 8.693,139.872 9.061,139.333 9.258 C 139.012 9.376,137.813 9.774,136.667 10.142 C 134.347 10.887,134.322 10.896,131.167 12.045 C 127.812 13.267,121.700 15.695,121.167 16.018 C 121.029 16.101,120.804 16.213,120.667 16.266 C 119.828 16.593,119.445 16.758,117.583 17.595 C 115.138 18.693,113.856 19.310,110.417 21.039 C 105.167 23.679,105.092 23.718,105.000 23.826 C 104.954 23.879,104.429 24.172,103.833 24.475 C 103.237 24.778,102.638 25.095,102.500 25.178 C 101.828 25.588,98.886 27.281,98.667 27.385 C 98.529 27.450,98.192 27.649,97.917 27.826 C 97.642 28.003,97.098 28.316,96.708 28.520 C 96.319 28.725,96.000 28.954,96.000 29.030 C 96.000 29.105,95.933 29.167,95.850 29.167 C 95.717 29.167,92.838 30.877,92.417 31.206 C 92.106 31.449,88.946 33.500,88.882 33.500 C 88.848 33.500,88.729 33.576,88.618 33.668 C 88.254 33.973,85.396 35.944,84.859 36.261 C 84.570 36.432,84.333 36.614,84.333 36.665 C 84.333 36.716,84.071 36.899,83.750 37.072 C 83.429 37.244,83.167 37.449,83.167 37.526 C 83.167 37.603,83.054 37.667,82.917 37.667 C 82.779 37.667,82.667 37.728,82.667 37.803 C 82.667 37.877,82.372 38.104,82.013 38.306 C 81.653 38.508,81.334 38.730,81.304 38.799 C 81.274 38.868,80.537 39.442,79.667 40.074 C 78.796 40.707,78.046 41.273,78.000 41.333 C 77.954 41.392,77.467 41.768,76.917 42.169 C 76.367 42.570,75.842 42.985,75.750 43.091 C 75.658 43.197,75.283 43.501,74.917 43.766 C 74.550 44.031,74.212 44.291,74.167 44.344 C 74.121 44.397,73.671 44.775,73.167 45.184 C 71.878 46.228,71.498 46.546,71.188 46.841 C 71.039 46.983,70.504 47.432,70.000 47.840 C 69.496 48.247,68.885 48.769,68.643 48.999 C 68.401 49.229,67.951 49.632,67.643 49.896 C 62.501 54.297,53.185 63.627,49.672 67.893 C 49.531 68.063,49.229 68.401,48.999 68.643 C 48.769 68.885,48.247 69.496,47.840 70.000 C 47.432 70.504,46.983 71.039,46.841 71.188 C 46.546 71.498,46.228 71.878,45.184 73.167 C 44.775 73.671,44.397 74.121,44.344 74.167 C 44.291 74.212,44.031 74.550,43.766 74.917 C 43.501 75.283,43.201 75.658,43.100 75.750 C 42.999 75.842,42.584 76.367,42.178 76.917 C 41.771 77.467,41.391 77.954,41.332 78.000 C 41.273 78.046,40.710 78.796,40.080 79.667 C 39.449 80.537,38.764 81.426,38.556 81.642 C 38.348 81.857,38.133 82.176,38.078 82.350 C 38.023 82.524,37.908 82.667,37.822 82.667 C 37.737 82.667,37.667 82.773,37.667 82.903 C 37.667 83.033,37.608 83.164,37.535 83.194 C 37.360 83.268,33.833 88.324,33.833 88.501 C 33.833 88.577,33.777 88.664,33.708 88.694 C 33.640 88.725,33.266 89.237,32.878 89.833 C 32.491 90.429,32.112 90.992,32.037 91.083 C 31.962 91.175,31.754 91.513,31.575 91.833 C 31.396 92.154,31.207 92.454,31.155 92.500 C 30.955 92.677,29.167 95.672,29.167 95.832 C 29.167 95.924,29.105 96.000,29.030 96.000 C 28.954 96.000,28.726 96.319,28.523 96.708 C 28.320 97.098,28.085 97.529,28.000 97.667 C 27.247 98.893,26.211 100.633,26.115 100.834 C 26.050 100.971,25.838 101.346,25.644 101.667 C 25.450 101.987,24.988 102.813,24.617 103.500 C 24.246 104.188,23.696 105.200,23.393 105.750 C 22.805 106.821,19.049 114.365,18.415 115.750 C 18.205 116.208,17.769 117.146,17.447 117.833 C 17.125 118.521,16.710 119.468,16.525 119.938 C 16.222 120.705,15.953 121.338,15.255 122.917 C 15.134 123.192,14.830 123.942,14.580 124.583 C 14.330 125.225,14.030 125.975,13.914 126.250 C 13.797 126.525,13.628 126.938,13.538 127.167 C 13.448 127.396,13.285 127.805,13.175 128.076 C 13.065 128.348,12.822 129.023,12.634 129.576 C 12.446 130.130,12.226 130.655,12.146 130.742 C 12.066 130.829,12.000 131.016,11.999 131.158 C 11.998 131.300,11.893 131.618,11.765 131.864 C 11.636 132.110,11.481 132.541,11.419 132.822 L 11.307 133.333 200.041 133.375 L 388.774 133.417 388.462 132.583 C 388.291 132.125,388.038 131.450,387.900 131.083 C 387.761 130.717,387.508 130.042,387.335 129.583 C 387.163 129.125,386.787 128.150,386.500 127.417 C 386.213 126.683,385.842 125.704,385.675 125.240 C 385.509 124.776,385.171 123.951,384.923 123.407 C 384.676 122.862,384.410 122.267,384.333 122.083 C 384.256 121.900,384.000 121.323,383.763 120.802 C 383.527 120.281,383.333 119.814,383.333 119.765 C 383.333 119.716,383.136 119.242,382.894 118.713 C 382.653 118.183,382.305 117.412,382.122 117.000 C 381.624 115.879,379.551 111.559,378.961 110.417 C 376.122 104.909,375.720 104.146,375.144 103.165 C 374.699 102.408,374.220 101.563,373.632 100.500 C 373.455 100.179,373.086 99.542,372.813 99.083 C 372.539 98.625,372.273 98.119,372.222 97.958 C 372.170 97.798,372.075 97.667,372.010 97.667 C 371.945 97.667,371.726 97.348,371.523 96.958 C 371.113 96.171,370.793 95.626,370.667 95.500 C 370.538 95.371,370.177 94.778,370.058 94.500 C 369.999 94.362,369.789 94.025,369.591 93.750 C 369.394 93.475,368.789 92.537,368.247 91.667 C 367.705 90.796,367.202 90.058,367.131 90.028 C 367.059 89.997,367.000 89.892,367.000 89.793 C 367.000 89.694,366.716 89.232,366.369 88.765 C 366.021 88.298,365.443 87.467,365.084 86.917 C 364.257 85.651,360.212 80.028,359.809 79.583 C 359.643 79.400,358.987 78.549,358.350 77.692 C 357.714 76.836,357.017 75.936,356.802 75.692 C 356.586 75.449,356.191 74.950,355.923 74.583 C 355.655 74.217,355.356 73.842,355.258 73.750 C 355.161 73.658,354.561 72.946,353.925 72.167 C 353.290 71.387,352.727 70.712,352.674 70.667 C 352.622 70.621,352.245 70.171,351.836 69.667 C 351.428 69.162,350.904 68.556,350.672 68.319 C 350.440 68.082,350.069 67.669,349.847 67.402 C 346.736 63.652,336.192 53.106,332.614 50.167 C 332.335 49.938,331.911 49.563,331.671 49.333 C 331.431 49.104,330.826 48.580,330.326 48.169 C 329.826 47.758,329.379 47.378,329.333 47.326 C 329.287 47.273,328.612 46.711,327.833 46.076 C 327.054 45.442,326.379 44.880,326.333 44.828 C 326.240 44.722,322.559 41.818,321.060 40.667 C 320.246 40.042,314.021 35.526,312.917 34.759 C 311.678 33.899,310.269 33.000,310.158 33.000 C 310.087 33.000,310.003 32.941,309.972 32.869 C 309.942 32.798,309.204 32.295,308.333 31.752 C 307.462 31.209,306.712 30.719,306.667 30.662 C 306.621 30.605,306.471 30.505,306.333 30.440 C 306.003 30.282,305.523 29.992,304.912 29.583 C 304.199 29.105,303.842 28.894,303.042 28.477 C 302.652 28.274,302.333 28.046,302.333 27.970 C 302.333 27.895,302.266 27.833,302.184 27.833 C 302.102 27.833,301.211 27.346,300.204 26.750 C 299.197 26.154,298.295 25.667,298.200 25.667 C 298.105 25.667,298.003 25.610,297.972 25.542 C 297.942 25.473,297.654 25.278,297.333 25.108 C 297.012 24.938,296.316 24.563,295.786 24.274 C 290.775 21.550,285.069 18.744,280.667 16.840 C 279.979 16.543,279.294 16.237,279.145 16.161 C 278.995 16.084,278.020 15.676,276.978 15.253 C 275.936 14.831,274.933 14.420,274.750 14.342 C 274.257 14.131,270.586 12.711,269.292 12.232 C 268.948 12.104,268.385 11.892,268.042 11.761 C 266.863 11.310,265.416 10.810,264.417 10.508 C 263.867 10.342,263.229 10.128,263.000 10.032 C 262.526 9.834,259.414 8.848,257.917 8.422 C 257.367 8.265,256.617 8.041,256.250 7.923 C 255.883 7.806,255.246 7.620,254.833 7.510 C 254.421 7.400,253.746 7.209,253.333 7.084 C 252.921 6.960,252.171 6.769,251.667 6.660 C 251.162 6.552,250.594 6.403,250.403 6.331 C 249.833 6.115,244.604 4.861,242.000 4.316 C 239.976 3.892,239.109 3.726,237.829 3.519 C 237.323 3.437,236.611 3.291,236.246 3.195 C 235.618 3.031,233.569 2.669,232.667 2.563 C 232.438 2.537,231.725 2.430,231.083 2.328 C 228.565 1.924,226.853 1.678,225.417 1.513 C 224.592 1.418,222.942 1.229,221.750 1.093 C 220.558 0.956,218.608 0.768,217.417 0.676 C 216.225 0.583,214.200 0.418,212.917 0.309 C 209.345 0.006,191.650 -0.028,187.917 0.261 " stroke="none" fill="#d4b4d4" fill-rule="evenodd"></path><path id="path1" d="M11.333 266.815 C 11.333 266.983,12.598 270.440,13.504 272.750 C 14.288 274.748,15.053 276.635,15.169 276.855 C 15.247 277.005,15.659 277.970,16.083 278.999 C 17.329 282.023,18.302 284.109,20.941 289.417 C 21.990 291.525,23.094 293.700,23.395 294.250 C 23.697 294.800,24.260 295.840,24.648 296.560 C 25.035 297.281,25.536 298.161,25.760 298.515 C 25.983 298.870,26.167 299.193,26.167 299.233 C 26.167 299.274,26.542 299.912,27.000 300.651 C 27.458 301.390,27.833 302.032,27.833 302.078 C 27.833 302.232,28.902 303.916,29.035 303.972 C 29.107 304.003,29.167 304.095,29.167 304.178 C 29.167 304.380,30.202 306.069,30.368 306.139 C 30.441 306.169,30.500 306.275,30.500 306.373 C 30.500 306.471,30.688 306.798,30.917 307.098 C 31.146 307.399,31.333 307.693,31.333 307.753 C 31.333 307.813,31.547 308.174,31.808 308.556 C 32.069 308.938,32.575 309.700,32.933 310.250 C 33.291 310.800,33.621 311.287,33.667 311.333 C 33.712 311.379,33.825 311.546,33.917 311.705 C 34.316 312.394,36.233 315.088,36.360 315.139 C 36.437 315.169,36.500 315.301,36.500 315.431 C 36.500 315.560,36.558 315.667,36.629 315.667 C 36.700 315.667,36.899 315.929,37.072 316.250 C 37.244 316.571,37.449 316.833,37.526 316.833 C 37.603 316.833,37.667 316.946,37.667 317.083 C 37.667 317.221,37.737 317.333,37.822 317.333 C 37.908 317.333,38.022 317.475,38.077 317.648 C 38.132 317.821,38.347 318.146,38.555 318.370 C 38.763 318.594,39.448 319.484,40.079 320.347 C 40.709 321.210,41.273 321.954,41.332 322.000 C 41.391 322.046,41.771 322.533,42.178 323.083 C 42.584 323.633,42.999 324.158,43.100 324.250 C 43.201 324.342,43.501 324.717,43.766 325.083 C 44.031 325.450,44.288 325.787,44.336 325.833 C 44.385 325.879,44.797 326.367,45.254 326.917 C 45.710 327.467,46.125 327.954,46.176 328.000 C 46.228 328.046,46.789 328.721,47.425 329.500 C 48.060 330.279,48.768 331.115,48.998 331.357 C 49.228 331.599,49.631 332.049,49.893 332.357 C 52.676 335.625,58.276 341.418,62.847 345.758 C 65.010 347.811,65.280 348.057,67.246 349.750 C 67.884 350.300,68.559 350.902,68.745 351.088 C 68.931 351.273,69.496 351.757,70.000 352.163 C 70.504 352.569,71.039 353.017,71.188 353.159 C 71.337 353.301,71.602 353.529,71.777 353.667 C 72.226 354.020,74.066 355.558,74.167 355.664 C 74.212 355.712,74.550 355.969,74.917 356.234 C 75.283 356.499,75.658 356.799,75.750 356.900 C 75.842 357.001,76.367 357.416,76.917 357.822 C 77.467 358.229,77.954 358.609,78.000 358.668 C 78.046 358.727,78.796 359.288,79.667 359.915 C 80.537 360.542,81.325 361.140,81.417 361.243 C 81.508 361.346,81.848 361.592,82.172 361.790 C 82.496 361.988,82.984 362.341,83.256 362.576 C 83.528 362.810,83.881 363.044,84.042 363.096 C 84.202 363.147,84.333 363.243,84.333 363.309 C 84.333 363.374,84.577 363.571,84.875 363.746 C 85.173 363.921,86.072 364.537,86.874 365.115 C 87.675 365.693,88.400 366.167,88.485 366.167 C 88.570 366.167,88.664 366.223,88.694 366.292 C 88.749 366.414,89.757 367.097,91.417 368.136 C 91.875 368.423,92.325 368.718,92.417 368.791 C 92.852 369.138,95.690 370.833,95.835 370.833 C 95.926 370.833,96.000 370.895,96.000 370.970 C 96.000 371.046,96.319 371.275,96.708 371.480 C 97.098 371.684,97.642 371.997,97.917 372.174 C 98.192 372.351,98.529 372.550,98.667 372.615 C 98.896 372.723,101.918 374.465,102.500 374.823 C 102.638 374.908,103.237 375.226,103.832 375.530 C 104.427 375.835,104.989 376.144,105.082 376.219 C 105.285 376.383,105.653 376.573,110.377 378.944 C 113.790 380.658,115.192 381.330,117.667 382.443 C 119.129 383.100,119.551 383.285,120.083 383.502 C 120.358 383.614,120.696 383.772,120.833 383.854 C 120.971 383.935,121.196 384.045,121.333 384.099 C 121.471 384.152,122.783 384.683,124.250 385.279 C 127.556 386.622,128.345 386.927,131.167 387.955 C 134.245 389.076,134.309 389.099,136.667 389.855 C 137.813 390.222,139.012 390.620,139.333 390.739 C 139.868 390.938,141.013 391.289,142.500 391.711 C 142.821 391.803,143.346 391.973,143.667 392.091 C 143.987 392.208,144.625 392.393,145.083 392.502 C 145.542 392.610,146.254 392.802,146.667 392.928 C 147.079 393.055,147.867 393.266,148.417 393.399 C 148.967 393.532,150.317 393.875,151.417 394.162 C 152.517 394.449,153.717 394.749,154.083 394.829 C 157.496 395.572,159.002 395.888,160.500 396.176 C 161.462 396.360,162.775 396.617,163.417 396.746 C 164.713 397.007,167.218 397.440,168.750 397.668 C 169.300 397.750,170.462 397.928,171.333 398.064 C 172.204 398.199,173.704 398.395,174.667 398.499 C 175.629 398.603,177.242 398.792,178.250 398.919 C 180.039 399.145,181.011 399.225,188.583 399.767 C 192.892 400.076,208.952 400.025,212.917 399.690 C 214.200 399.582,216.225 399.417,217.417 399.324 C 218.608 399.231,220.483 399.050,221.583 398.922 C 222.683 398.794,224.371 398.605,225.333 398.501 C 226.296 398.398,227.721 398.209,228.500 398.082 C 229.279 397.955,230.517 397.766,231.250 397.662 C 232.705 397.454,234.509 397.142,236.583 396.739 C 237.317 396.596,238.329 396.403,238.833 396.309 C 239.338 396.216,240.050 396.074,240.417 395.995 C 240.783 395.916,241.683 395.732,242.417 395.586 C 243.150 395.440,244.537 395.131,245.500 394.900 C 246.463 394.669,247.737 394.364,248.333 394.222 C 248.929 394.081,249.754 393.863,250.167 393.739 C 250.579 393.615,251.517 393.357,252.250 393.167 C 254.955 392.465,256.739 391.956,259.250 391.169 C 260.167 390.882,261.383 390.507,261.953 390.337 C 262.522 390.166,263.069 389.977,263.167 389.917 C 263.265 389.856,263.811 389.667,264.381 389.496 C 264.951 389.326,266.054 388.952,266.833 388.667 C 267.612 388.381,268.438 388.082,268.667 388.003 C 268.896 387.923,269.608 387.655,270.250 387.407 C 270.892 387.159,271.867 386.797,272.417 386.601 C 272.967 386.406,273.492 386.198,273.583 386.140 C 273.675 386.082,274.462 385.760,275.333 385.425 C 276.204 385.089,276.988 384.744,277.075 384.658 C 277.162 384.571,277.335 384.500,277.460 384.500 C 277.585 384.500,278.114 384.305,278.635 384.067 C 279.157 383.829,279.979 383.454,280.463 383.234 C 280.947 383.014,281.376 382.833,281.418 382.833 C 281.856 382.833,292.853 377.383,295.917 375.647 C 296.558 375.284,297.290 374.898,297.542 374.790 C 297.794 374.682,298.000 374.535,298.000 374.463 C 298.000 374.392,298.107 374.333,298.238 374.333 C 298.369 374.333,298.575 374.240,298.696 374.125 C 298.818 374.010,299.179 373.786,299.500 373.626 C 299.821 373.466,300.196 373.262,300.333 373.172 C 301.187 372.614,304.180 370.833,304.264 370.833 C 304.320 370.833,304.601 370.665,304.890 370.458 C 305.179 370.252,305.678 369.943,305.999 369.771 C 306.321 369.599,306.621 369.408,306.667 369.347 C 306.734 369.256,308.922 367.825,310.137 367.078 C 310.681 366.743,312.919 365.264,313.083 365.130 C 313.175 365.056,314.776 363.904,316.640 362.571 C 318.505 361.237,320.426 359.832,320.910 359.448 C 321.393 359.064,322.711 358.037,323.838 357.167 C 324.965 356.296,326.008 355.471,326.156 355.333 C 326.304 355.196,327.061 354.563,327.838 353.926 C 328.614 353.290,329.287 352.727,329.333 352.674 C 329.379 352.622,329.826 352.242,330.326 351.831 C 330.826 351.420,331.431 350.896,331.671 350.667 C 331.911 350.438,332.336 350.063,332.615 349.833 C 335.735 347.271,346.605 336.391,349.849 332.584 C 350.161 332.217,350.690 331.617,351.023 331.250 C 351.357 330.883,351.843 330.321,352.104 330.000 C 352.365 329.679,352.621 329.379,352.674 329.333 C 352.727 329.287,353.290 328.612,353.925 327.833 C 354.561 327.054,355.161 326.342,355.258 326.250 C 355.356 326.158,355.652 325.783,355.917 325.417 C 356.182 325.050,356.441 324.712,356.492 324.667 C 356.674 324.503,358.440 322.234,359.085 321.333 C 359.447 320.829,359.827 320.342,359.930 320.250 C 360.340 319.885,364.572 313.878,366.798 310.500 C 368.097 308.529,369.226 306.837,369.308 306.739 C 369.389 306.641,369.702 306.116,370.003 305.572 C 370.304 305.028,370.614 304.558,370.692 304.528 C 370.770 304.497,370.833 304.405,370.833 304.322 C 370.833 304.175,371.810 302.498,371.992 302.333 C 372.042 302.287,372.165 302.100,372.265 301.917 C 373.051 300.476,373.611 299.491,373.943 298.962 C 374.158 298.620,374.333 298.302,374.333 298.256 C 374.333 298.210,374.553 297.814,374.822 297.378 C 375.418 296.408,375.974 295.378,377.365 292.667 C 377.953 291.521,378.668 290.133,378.954 289.583 C 379.591 288.356,382.000 283.356,382.000 283.260 C 382.000 283.222,382.271 282.605,382.602 281.888 C 382.933 281.172,383.341 280.238,383.508 279.813 C 383.675 279.389,383.977 278.676,384.178 278.229 C 384.517 277.475,385.001 276.374,385.340 275.583 C 385.418 275.400,385.668 274.762,385.894 274.167 C 386.121 273.571,386.494 272.596,386.723 272.000 C 386.952 271.404,387.338 270.392,387.581 269.750 C 387.824 269.108,388.125 268.321,388.251 268.000 C 388.378 267.679,388.528 267.248,388.585 267.042 L 388.689 266.667 200.011 266.667 C 89.980 266.667,11.333 266.728,11.333 266.815 " stroke="none" fill="#cce4b4" fill-rule="evenodd"></path><path id="path2" d="M11.167 133.453 C 11.167 133.564,11.063 133.902,10.937 134.203 C 10.810 134.504,10.618 135.050,10.510 135.417 C 10.402 135.783,10.214 136.346,10.093 136.667 C 9.972 136.987,9.663 137.925,9.407 138.750 C 9.151 139.575,8.766 140.813,8.551 141.500 C 7.953 143.413,7.724 144.182,7.508 145.000 C 7.400 145.412,7.238 145.989,7.149 146.281 C 6.951 146.928,6.181 149.864,5.999 150.667 C 5.615 152.357,5.133 154.313,4.984 154.788 C 4.891 155.084,4.740 155.721,4.649 156.205 C 4.557 156.688,4.419 157.421,4.342 157.833 C 4.264 158.246,4.127 158.846,4.037 159.167 C 3.946 159.487,3.781 160.313,3.670 161.000 C 3.559 161.688,3.363 162.705,3.234 163.261 C 3.105 163.817,3.001 164.417,3.002 164.594 C 3.003 164.771,2.894 165.442,2.759 166.083 C 2.625 166.725,2.441 167.775,2.350 168.417 C 2.260 169.058,2.073 170.296,1.935 171.167 C 1.797 172.037,1.601 173.500,1.499 174.417 C 1.398 175.333,1.206 176.871,1.073 177.833 C 0.940 178.796,0.833 179.883,0.834 180.250 C 0.835 180.617,0.762 181.629,0.670 182.500 C -0.276 191.515,-0.276 208.485,0.670 217.500 C 0.762 218.371,0.835 219.383,0.834 219.750 C 0.833 220.117,0.940 221.204,1.073 222.167 C 1.206 223.129,1.398 224.667,1.499 225.583 C 1.601 226.500,1.797 227.963,1.935 228.833 C 2.073 229.704,2.260 230.942,2.350 231.583 C 2.441 232.225,2.625 233.275,2.759 233.917 C 2.894 234.558,3.003 235.229,3.002 235.406 C 3.001 235.583,3.105 236.183,3.234 236.739 C 3.363 237.295,3.558 238.313,3.668 239.000 C 3.778 239.688,3.941 240.475,4.030 240.750 C 4.120 241.025,4.259 241.625,4.339 242.083 C 4.652 243.876,4.821 244.695,4.984 245.212 C 5.133 245.687,5.615 247.643,5.999 249.333 C 6.181 250.136,6.951 253.072,7.149 253.719 C 7.238 254.011,7.400 254.588,7.508 255.000 C 7.724 255.818,7.953 256.587,8.551 258.500 C 8.766 259.188,9.151 260.425,9.407 261.250 C 9.663 262.075,9.972 263.012,10.093 263.333 C 10.214 263.654,10.404 264.217,10.515 264.583 C 10.626 264.950,10.837 265.568,10.983 265.958 L 11.250 266.665 200.000 266.663 L 388.750 266.660 389.244 265.122 C 389.516 264.276,389.828 263.358,389.937 263.083 C 390.046 262.808,390.225 262.246,390.335 261.833 C 390.446 261.421,390.634 260.821,390.754 260.500 C 390.874 260.179,391.168 259.242,391.408 258.417 C 391.647 257.592,391.928 256.654,392.032 256.333 C 392.135 256.012,392.276 255.525,392.345 255.250 C 392.415 254.975,392.598 254.300,392.752 253.750 C 392.907 253.200,393.171 252.225,393.340 251.583 C 393.509 250.942,393.810 249.817,394.008 249.083 C 394.206 248.350,394.434 247.450,394.514 247.083 C 394.594 246.717,394.779 245.892,394.925 245.250 C 395.366 243.312,396.019 240.297,396.171 239.500 C 396.249 239.088,396.437 238.112,396.588 237.333 C 396.739 236.554,396.895 235.692,396.935 235.417 C 396.975 235.142,397.115 234.354,397.245 233.667 C 397.376 232.979,397.558 231.892,397.650 231.250 C 397.743 230.608,397.932 229.296,398.072 228.333 C 398.211 227.371,398.400 225.946,398.492 225.167 C 399.168 219.394,399.173 219.342,399.705 212.000 C 399.990 208.073,399.989 191.913,399.704 188.000 C 399.225 181.417,399.135 180.334,398.918 178.500 C 398.793 177.446,398.606 175.833,398.503 174.917 C 398.400 174.000,398.204 172.500,398.068 171.583 C 397.931 170.667,397.744 169.392,397.651 168.750 C 397.558 168.108,397.376 167.021,397.245 166.333 C 397.115 165.646,396.975 164.858,396.935 164.583 C 396.895 164.308,396.739 163.446,396.588 162.667 C 396.437 161.887,396.250 160.912,396.173 160.500 C 395.977 159.448,395.371 156.623,395.064 155.333 C 394.923 154.737,394.734 153.912,394.644 153.500 C 394.414 152.448,394.024 150.899,393.740 149.917 C 393.608 149.458,393.341 148.483,393.147 147.750 C 392.953 147.017,392.728 146.173,392.647 145.875 C 392.566 145.577,392.437 145.090,392.360 144.792 C 392.283 144.494,392.135 143.987,392.032 143.667 C 391.928 143.346,391.647 142.408,391.408 141.583 C 391.168 140.758,390.874 139.821,390.754 139.500 C 390.634 139.179,390.444 138.579,390.332 138.167 C 390.220 137.754,390.056 137.218,389.967 136.975 C 389.879 136.732,389.564 135.832,389.267 134.975 L 388.728 133.417 199.947 133.333 C 51.797 133.268,11.167 133.294,11.167 133.453 " stroke="none" fill="#fcfcf4" fill-rule="evenodd"></path></g></svg>