<svg id="svg" version="1.1" xmlns="http://www.w3.org/2000/svg" xmlns:xlink="http://www.w3.org/1999/xlink" viewBox="0, 0, 400,400"><g id="svgg"><path id="path0" d="M11.426 267.208 C 11.491 267.505,11.641 267.974,11.758 268.249 C 12.367 269.675,12.487 269.976,12.718 270.667 C 12.856 271.079,13.060 271.642,13.172 271.917 C 13.283 272.192,13.433 272.567,13.505 272.750 C 13.997 274.013,15.060 276.669,15.238 277.083 C 15.356 277.358,15.533 277.771,15.630 278.000 C 15.727 278.229,16.000 278.843,16.237 279.365 C 16.473 279.886,16.667 280.349,16.667 280.394 C 16.667 280.479,17.481 282.290,18.363 284.167 C 19.229 286.010,22.814 293.195,23.393 294.250 C 23.696 294.800,24.268 295.850,24.666 296.583 C 25.697 298.485,25.804 298.674,26.262 299.417 C 26.489 299.783,26.765 300.271,26.875 300.500 C 26.986 300.729,27.117 300.954,27.167 301.000 C 27.216 301.046,27.622 301.721,28.068 302.500 C 28.515 303.279,28.944 303.942,29.023 303.972 C 29.102 304.003,29.167 304.097,29.167 304.182 C 29.167 304.332,30.965 307.332,31.155 307.500 C 31.207 307.546,31.396 307.846,31.575 308.167 C 31.754 308.487,31.962 308.825,32.037 308.917 C 32.112 309.008,32.490 309.571,32.877 310.167 C 33.264 310.762,33.619 311.287,33.665 311.333 C 33.712 311.379,33.825 311.546,33.917 311.704 C 34.195 312.185,36.549 315.577,36.666 315.667 C 36.726 315.712,36.917 315.994,37.090 316.292 C 37.263 316.590,37.464 316.833,37.536 316.833 C 37.608 316.833,37.667 316.946,37.667 317.083 C 37.667 317.221,37.737 317.333,37.822 317.333 C 37.908 317.333,38.022 317.475,38.077 317.648 C 38.132 317.821,38.347 318.146,38.555 318.370 C 38.763 318.594,39.448 319.484,40.079 320.347 C 40.709 321.210,41.273 321.954,41.332 322.000 C 41.391 322.046,41.771 322.533,42.178 323.083 C 42.584 323.633,42.999 324.158,43.100 324.250 C 43.201 324.342,43.501 324.717,43.766 325.083 C 44.031 325.450,44.291 325.787,44.344 325.833 C 44.397 325.879,44.775 326.329,45.184 326.833 C 46.228 328.122,46.546 328.502,46.841 328.812 C 46.983 328.961,47.432 329.496,47.840 330.000 C 48.247 330.504,48.769 331.115,48.999 331.357 C 49.229 331.599,49.533 331.937,49.676 332.107 C 53.573 336.762,62.484 345.688,67.643 350.104 C 67.951 350.368,68.401 350.771,68.643 351.001 C 68.885 351.231,69.496 351.753,70.000 352.160 C 70.504 352.568,71.039 353.017,71.188 353.159 C 71.498 353.454,71.878 353.772,73.167 354.816 C 73.671 355.225,74.121 355.606,74.167 355.663 C 74.212 355.721,74.550 355.984,74.917 356.249 C 75.283 356.514,75.658 356.815,75.750 356.917 C 75.842 357.019,76.367 357.430,76.917 357.831 C 77.467 358.232,77.954 358.608,78.000 358.667 C 78.046 358.727,78.796 359.288,79.667 359.915 C 80.537 360.542,81.325 361.141,81.417 361.246 C 81.508 361.352,81.827 361.580,82.125 361.755 C 82.423 361.929,82.667 362.131,82.667 362.203 C 82.667 362.275,82.779 362.333,82.917 362.333 C 83.054 362.333,83.167 362.397,83.167 362.474 C 83.167 362.551,83.429 362.756,83.750 362.928 C 84.071 363.101,84.333 363.284,84.333 363.335 C 84.333 363.386,84.577 363.571,84.875 363.746 C 85.173 363.921,86.072 364.537,86.874 365.115 C 87.675 365.693,88.400 366.167,88.485 366.167 C 88.570 366.167,88.664 366.223,88.694 366.292 C 88.749 366.414,89.757 367.097,91.417 368.136 C 91.875 368.423,92.325 368.718,92.417 368.791 C 92.852 369.138,95.690 370.833,95.835 370.833 C 95.926 370.833,96.000 370.896,96.000 370.973 C 96.000 371.050,96.169 371.198,96.375 371.301 C 96.581 371.404,97.125 371.715,97.583 371.992 C 98.042 372.269,98.529 372.549,98.667 372.614 C 98.897 372.724,101.923 374.468,102.500 374.823 C 102.638 374.908,103.237 375.226,103.832 375.530 C 104.427 375.835,104.989 376.144,105.082 376.219 C 105.300 376.396,105.946 376.727,110.750 379.125 C 115.205 381.350,115.434 381.459,119.083 383.077 C 119.358 383.198,119.808 383.390,120.083 383.502 C 120.358 383.614,120.696 383.772,120.833 383.854 C 120.971 383.935,121.196 384.045,121.333 384.099 C 121.471 384.152,122.783 384.683,124.250 385.279 C 127.556 386.622,128.345 386.927,131.167 387.955 C 134.322 389.104,134.347 389.113,136.667 389.858 C 137.813 390.226,139.012 390.624,139.333 390.742 C 139.869 390.938,141.035 391.295,142.500 391.711 C 142.821 391.803,143.346 391.973,143.667 392.091 C 143.987 392.208,144.625 392.393,145.083 392.502 C 145.542 392.610,146.254 392.802,146.667 392.928 C 147.079 393.055,147.867 393.266,148.417 393.398 C 148.967 393.531,150.467 393.905,151.750 394.230 C 154.220 394.855,155.668 395.197,157.167 395.506 C 157.671 395.610,158.346 395.758,158.667 395.834 C 158.987 395.910,159.925 396.093,160.750 396.241 C 161.575 396.388,162.775 396.617,163.417 396.748 C 164.866 397.046,167.048 397.425,168.583 397.646 C 169.225 397.738,170.462 397.926,171.333 398.062 C 172.204 398.199,173.704 398.395,174.667 398.499 C 175.629 398.603,177.242 398.792,178.250 398.919 C 180.039 399.145,181.011 399.225,188.583 399.767 C 192.892 400.076,208.952 400.025,212.917 399.690 C 214.200 399.582,216.225 399.417,217.417 399.324 C 218.608 399.232,220.558 399.043,221.750 398.906 C 222.942 398.769,224.629 398.578,225.500 398.483 C 226.371 398.388,227.721 398.207,228.500 398.081 C 229.279 397.955,230.517 397.768,231.250 397.667 C 232.550 397.486,234.129 397.213,236.667 396.729 C 239.330 396.221,239.771 396.135,240.417 395.995 C 240.783 395.916,241.683 395.732,242.417 395.586 C 244.369 395.197,249.831 393.886,250.403 393.669 C 250.594 393.597,251.162 393.448,251.667 393.340 C 252.171 393.231,252.921 393.040,253.333 392.916 C 253.746 392.791,254.421 392.600,254.833 392.490 C 255.246 392.380,255.883 392.195,256.250 392.079 C 256.617 391.963,257.254 391.774,257.667 391.660 C 258.801 391.346,262.527 390.163,263.000 389.967 C 263.229 389.872,263.867 389.658,264.417 389.492 C 265.695 389.106,267.141 388.594,269.250 387.780 C 269.617 387.639,270.667 387.248,271.583 386.913 C 272.500 386.577,273.475 386.201,273.750 386.077 C 274.025 385.954,274.850 385.616,275.583 385.326 C 276.317 385.036,276.988 384.732,277.075 384.650 C 277.162 384.567,277.335 384.500,277.460 384.500 C 277.585 384.500,278.114 384.305,278.635 384.067 C 279.157 383.829,279.979 383.454,280.463 383.234 C 280.947 383.014,281.376 382.833,281.418 382.833 C 281.459 382.833,282.076 382.565,282.788 382.237 C 286.971 380.310,293.239 377.164,295.917 375.647 C 296.558 375.284,297.290 374.898,297.542 374.790 C 297.794 374.682,298.000 374.535,298.000 374.463 C 298.000 374.392,298.076 374.333,298.169 374.333 C 298.262 374.333,298.753 374.090,299.261 373.792 C 299.768 373.494,300.461 373.097,300.800 372.911 C 301.329 372.619,302.295 372.029,303.587 371.207 C 303.768 371.092,304.029 370.949,304.167 370.888 C 304.304 370.828,304.641 370.623,304.916 370.431 C 305.191 370.240,305.678 369.943,305.999 369.771 C 306.321 369.599,306.621 369.408,306.667 369.347 C 306.712 369.285,307.462 368.791,308.333 368.248 C 309.204 367.705,309.942 367.202,309.972 367.131 C 310.003 367.059,310.087 367.000,310.158 367.000 C 310.269 367.000,311.722 366.073,312.917 365.240 C 314.709 363.991,320.191 360.019,320.892 359.462 C 321.385 359.070,322.712 358.037,323.842 357.167 C 324.972 356.296,326.064 355.433,326.268 355.250 C 326.473 355.067,326.780 354.804,326.951 354.667 C 327.524 354.206,329.249 352.758,329.333 352.668 C 329.379 352.619,329.826 352.242,330.326 351.831 C 330.826 351.420,331.433 350.896,331.675 350.667 C 331.917 350.438,332.333 350.070,332.599 349.849 C 333.248 349.313,336.244 346.589,337.106 345.753 C 342.910 340.120,348.067 334.778,350.318 332.067 C 350.539 331.801,350.989 331.279,351.318 330.908 C 352.225 329.884,352.652 329.379,353.919 327.833 C 354.558 327.054,355.161 326.342,355.258 326.250 C 355.356 326.158,355.655 325.783,355.923 325.417 C 356.191 325.050,356.586 324.551,356.802 324.308 C 357.017 324.064,357.716 323.164,358.354 322.308 C 358.992 321.451,359.642 320.600,359.799 320.417 C 360.084 320.082,364.738 313.652,365.120 313.063 C 365.232 312.891,365.664 312.262,366.081 311.667 C 366.497 311.071,366.887 310.471,366.948 310.333 C 367.009 310.196,367.105 310.046,367.162 310.000 C 367.219 309.954,367.708 309.204,368.250 308.333 C 368.792 307.462,369.286 306.712,369.349 306.667 C 369.412 306.621,369.626 306.283,369.824 305.917 C 370.265 305.100,370.556 304.610,370.667 304.500 C 370.793 304.374,371.113 303.829,371.523 303.042 C 371.726 302.652,371.945 302.333,372.010 302.333 C 372.075 302.333,372.170 302.202,372.222 302.042 C 372.273 301.881,372.539 301.375,372.813 300.917 C 373.086 300.458,373.455 299.821,373.632 299.500 C 374.220 298.437,374.699 297.592,375.144 296.835 C 375.717 295.859,376.254 294.840,378.961 289.583 C 379.529 288.479,381.593 284.179,382.120 283.000 C 382.304 282.587,382.653 281.817,382.894 281.287 C 383.136 280.758,383.333 280.284,383.333 280.235 C 383.333 280.186,383.527 279.719,383.763 279.198 C 384.000 278.677,384.256 278.100,384.333 277.917 C 384.410 277.733,384.704 277.077,384.987 276.458 C 385.269 275.839,385.500 275.289,385.500 275.236 C 385.500 275.183,385.681 274.677,385.903 274.112 C 386.413 272.810,387.016 271.244,387.581 269.750 C 387.824 269.108,388.125 268.321,388.251 268.000 C 388.378 267.679,388.528 267.248,388.585 267.042 L 388.689 266.667 199.998 266.667 L 11.307 266.667 11.426 267.208 " stroke="none" fill="#b4dbf4" fill-rule="evenodd"></path><path id="path1" d="M187.917 0.261 C 186.267 0.388,183.829 0.573,182.500 0.671 C 181.171 0.769,179.258 0.953,178.250 1.079 C 177.242 1.206,175.667 1.394,174.750 1.497 C 171.735 1.835,165.825 2.749,163.417 3.249 C 162.775 3.382,161.575 3.612,160.750 3.759 C 159.925 3.907,158.987 4.091,158.667 4.169 C 158.346 4.246,157.633 4.399,157.083 4.508 C 156.533 4.617,155.671 4.808,155.167 4.932 C 154.662 5.055,153.350 5.377,152.250 5.647 C 151.150 5.917,149.350 6.377,148.250 6.669 C 147.150 6.960,145.725 7.333,145.083 7.496 C 144.442 7.659,143.729 7.867,143.500 7.958 C 143.271 8.050,142.821 8.202,142.500 8.297 C 138.002 9.635,135.084 10.614,129.500 12.660 C 127.155 13.519,121.585 15.763,121.167 16.017 C 121.029 16.100,120.804 16.213,120.667 16.266 C 119.785 16.610,119.333 16.806,117.500 17.640 C 116.904 17.911,115.892 18.371,115.250 18.662 C 113.327 19.533,105.186 23.644,105.000 23.837 C 104.954 23.884,104.429 24.172,103.833 24.475 C 103.237 24.778,102.638 25.094,102.500 25.178 C 102.362 25.261,101.275 25.893,100.083 26.582 C 98.892 27.270,97.804 27.906,97.667 27.994 C 97.529 28.082,97.098 28.320,96.708 28.523 C 96.319 28.726,96.000 28.954,96.000 29.030 C 96.000 29.105,95.926 29.167,95.835 29.167 C 95.693 29.167,92.882 30.844,92.417 31.207 C 92.103 31.451,88.945 33.500,88.882 33.500 C 88.848 33.500,88.729 33.576,88.618 33.668 C 88.254 33.973,85.396 35.944,84.859 36.261 C 84.570 36.432,84.333 36.614,84.333 36.665 C 84.333 36.716,84.071 36.899,83.750 37.072 C 83.429 37.244,83.167 37.449,83.167 37.526 C 83.167 37.603,83.054 37.667,82.917 37.667 C 82.779 37.667,82.667 37.725,82.667 37.797 C 82.667 37.869,82.444 38.059,82.173 38.220 C 81.901 38.380,81.582 38.604,81.464 38.716 C 81.346 38.828,80.537 39.443,79.667 40.082 C 78.796 40.720,78.046 41.287,78.000 41.341 C 77.954 41.395,77.467 41.771,76.917 42.178 C 76.367 42.584,75.842 42.999,75.750 43.100 C 75.658 43.201,75.283 43.501,74.917 43.766 C 74.550 44.031,74.212 44.288,74.167 44.336 C 74.070 44.438,72.247 45.963,71.779 46.333 C 71.605 46.471,71.377 46.663,71.273 46.760 C 71.169 46.857,70.558 47.374,69.917 47.909 C 69.275 48.443,68.675 48.964,68.583 49.065 C 68.492 49.167,67.892 49.700,67.251 50.250 C 65.316 51.909,65.026 52.173,62.847 54.249 C 57.814 59.047,51.884 65.189,49.672 67.895 C 49.531 68.067,49.298 68.330,49.153 68.479 C 48.927 68.711,47.970 69.836,46.744 71.310 C 46.564 71.527,46.342 71.790,46.250 71.895 C 46.158 72.000,45.710 72.535,45.254 73.084 C 44.797 73.634,44.385 74.121,44.336 74.167 C 44.288 74.212,44.031 74.550,43.766 74.917 C 43.501 75.283,43.201 75.658,43.100 75.750 C 42.999 75.842,42.584 76.367,42.178 76.917 C 41.771 77.467,41.395 77.954,41.341 78.000 C 41.287 78.046,40.720 78.796,40.081 79.667 C 39.442 80.537,38.749 81.438,38.541 81.667 C 38.333 81.896,38.121 82.215,38.070 82.375 C 38.019 82.535,37.908 82.667,37.822 82.667 C 37.737 82.667,37.667 82.747,37.667 82.845 C 37.667 82.943,37.571 83.120,37.453 83.237 C 37.242 83.448,34.239 87.745,33.917 88.298 C 33.825 88.455,33.712 88.621,33.665 88.667 C 33.619 88.712,33.264 89.237,32.877 89.833 C 32.490 90.429,32.112 90.992,32.037 91.083 C 31.962 91.175,31.754 91.513,31.575 91.833 C 31.396 92.154,31.207 92.454,31.155 92.500 C 30.955 92.677,29.167 95.672,29.167 95.832 C 29.167 95.924,29.105 96.000,29.030 96.000 C 28.954 96.000,28.726 96.319,28.523 96.708 C 28.320 97.098,28.084 97.529,27.998 97.667 C 27.678 98.181,26.440 100.268,26.169 100.750 C 26.014 101.025,25.638 101.700,25.333 102.250 C 25.028 102.800,24.589 103.587,24.357 104.000 C 24.126 104.412,23.690 105.200,23.389 105.750 C 22.745 106.928,19.257 113.937,18.537 115.500 C 18.263 116.096,17.775 117.146,17.453 117.833 C 17.131 118.521,16.517 119.936,16.089 120.978 C 15.661 122.020,15.247 122.995,15.169 123.145 C 15.091 123.294,14.824 123.942,14.576 124.583 C 14.328 125.225,14.030 125.975,13.914 126.250 C 13.472 127.292,12.960 128.627,12.316 130.417 C 12.020 131.242,11.723 131.992,11.658 132.083 C 11.592 132.175,11.486 132.494,11.423 132.792 L 11.307 133.333 199.998 133.333 L 388.689 133.333 388.585 132.958 C 388.528 132.752,388.378 132.321,388.251 132.000 C 388.125 131.679,387.824 130.892,387.581 130.250 C 386.533 127.480,384.855 123.227,384.654 122.833 C 384.440 122.413,383.829 121.001,383.508 120.187 C 383.341 119.762,382.933 118.828,382.602 118.112 C 382.271 117.395,382.000 116.760,382.000 116.701 C 382.000 116.596,376.585 105.759,375.917 104.528 C 375.733 104.190,375.385 103.576,375.144 103.165 C 374.902 102.753,374.496 102.042,374.241 101.583 C 373.986 101.125,373.641 100.525,373.474 100.250 C 373.306 99.975,373.118 99.638,373.055 99.500 C 372.947 99.265,371.517 96.881,371.155 96.333 C 371.065 96.196,370.946 95.952,370.892 95.792 C 370.839 95.631,370.745 95.500,370.685 95.500 C 370.625 95.500,370.432 95.219,370.256 94.875 C 370.080 94.531,369.777 94.025,369.584 93.750 C 369.391 93.475,368.790 92.537,368.249 91.667 C 367.708 90.796,367.224 90.046,367.174 90.000 C 367.124 89.954,367.008 89.790,366.917 89.635 C 366.161 88.359,360.311 80.075,359.935 79.750 C 359.829 79.658,359.447 79.171,359.085 78.667 C 358.440 77.766,356.674 75.497,356.492 75.333 C 356.441 75.287,356.182 74.950,355.917 74.583 C 355.652 74.217,355.356 73.842,355.258 73.750 C 355.161 73.658,354.561 72.946,353.925 72.167 C 353.290 71.387,352.727 70.712,352.674 70.667 C 352.622 70.621,352.245 70.171,351.836 69.667 C 351.428 69.162,350.904 68.556,350.672 68.318 C 350.440 68.081,349.938 67.519,349.557 67.068 C 349.176 66.618,348.407 65.767,347.849 65.176 C 347.290 64.586,346.833 64.076,346.833 64.043 C 346.833 63.900,339.581 56.612,336.895 54.056 C 335.711 52.928,333.547 50.970,332.583 50.154 C 332.217 49.843,331.766 49.438,331.582 49.253 C 331.397 49.068,330.835 48.580,330.332 48.169 C 329.828 47.758,329.379 47.378,329.333 47.326 C 329.287 47.273,328.612 46.710,327.833 46.074 C 327.054 45.438,326.270 44.785,326.091 44.623 C 325.913 44.462,324.870 43.637,323.775 42.790 C 322.679 41.943,321.401 40.946,320.933 40.575 C 320.466 40.204,318.546 38.798,316.667 37.450 C 314.787 36.102,313.175 34.939,313.083 34.865 C 312.992 34.792,312.279 34.326,311.500 33.831 C 310.721 33.335,310.046 32.886,310.000 32.832 C 309.954 32.779,309.204 32.292,308.333 31.750 C 307.462 31.208,306.712 30.719,306.667 30.662 C 306.621 30.605,306.471 30.507,306.333 30.444 C 306.196 30.381,305.858 30.183,305.583 30.003 C 305.308 29.823,304.792 29.505,304.436 29.296 C 304.080 29.088,303.666 28.842,303.517 28.750 C 301.195 27.320,298.348 25.667,298.208 25.667 C 298.109 25.667,298.003 25.610,297.972 25.542 C 297.942 25.473,297.654 25.278,297.333 25.108 C 297.012 24.938,296.316 24.563,295.786 24.274 C 290.609 21.459,284.517 18.480,280.000 16.554 C 279.679 16.417,279.301 16.246,279.160 16.173 C 278.850 16.013,274.666 14.297,273.209 13.732 C 270.474 12.671,269.264 12.212,267.583 11.600 C 265.988 11.019,259.701 8.950,258.167 8.502 C 257.479 8.301,256.617 8.040,256.250 7.923 C 255.883 7.806,255.246 7.620,254.833 7.510 C 254.421 7.400,253.746 7.209,253.333 7.084 C 252.921 6.960,252.171 6.769,251.667 6.660 C 251.162 6.552,250.590 6.402,250.396 6.327 C 250.201 6.253,249.563 6.078,248.979 5.938 C 248.395 5.797,246.979 5.458,245.833 5.183 C 244.688 4.908,243.150 4.563,242.417 4.416 C 241.683 4.269,240.783 4.084,240.417 4.005 C 240.050 3.926,239.300 3.777,238.750 3.674 C 238.200 3.571,237.225 3.377,236.583 3.243 C 234.738 2.859,227.846 1.793,225.417 1.516 C 224.592 1.422,222.942 1.233,221.750 1.096 C 220.558 0.959,218.608 0.770,217.417 0.677 C 216.225 0.583,214.200 0.418,212.917 0.309 C 209.345 0.006,191.650 -0.028,187.917 0.261 " stroke="none" fill="#f3bcd4" fill-rule="evenodd"></path><path id="path2" d="M11.167 133.475 C 11.167 133.598,11.066 133.936,10.942 134.225 C 10.819 134.514,10.627 135.050,10.515 135.417 C 10.404 135.783,10.215 136.346,10.095 136.667 C 9.840 137.347,9.223 139.290,8.585 141.417 C 8.338 142.242,8.038 143.217,7.919 143.583 C 7.799 143.950,7.613 144.587,7.506 145.000 C 7.399 145.412,7.238 145.989,7.149 146.281 C 6.951 146.928,6.181 149.864,5.999 150.667 C 5.615 152.357,5.133 154.313,4.984 154.788 C 4.891 155.084,4.740 155.721,4.649 156.205 C 4.557 156.688,4.419 157.421,4.342 157.833 C 4.264 158.246,4.127 158.846,4.037 159.167 C 3.946 159.487,3.781 160.313,3.670 161.000 C 3.559 161.688,3.363 162.705,3.234 163.261 C 3.105 163.817,3.001 164.417,3.002 164.594 C 3.003 164.771,2.894 165.442,2.759 166.083 C 2.625 166.725,2.441 167.775,2.350 168.417 C 2.260 169.058,2.073 170.296,1.935 171.167 C 1.797 172.037,1.601 173.500,1.499 174.417 C 1.398 175.333,1.206 176.871,1.073 177.833 C 0.940 178.796,0.833 179.883,0.834 180.250 C 0.835 180.617,0.762 181.629,0.670 182.500 C -0.276 191.515,-0.276 208.485,0.670 217.500 C 0.762 218.371,0.835 219.383,0.834 219.750 C 0.833 220.117,0.940 221.204,1.073 222.167 C 1.206 223.129,1.398 224.667,1.499 225.583 C 1.601 226.500,1.797 227.963,1.935 228.833 C 2.073 229.704,2.260 230.942,2.350 231.583 C 2.441 232.225,2.625 233.275,2.759 233.917 C 2.894 234.558,3.003 235.229,3.002 235.406 C 3.001 235.583,3.105 236.183,3.234 236.739 C 3.363 237.295,3.559 238.313,3.670 239.000 C 3.781 239.688,3.946 240.512,4.037 240.833 C 4.127 241.154,4.264 241.754,4.342 242.167 C 4.419 242.579,4.557 243.312,4.649 243.795 C 4.740 244.279,4.891 244.916,4.984 245.212 C 5.133 245.687,5.615 247.643,5.999 249.333 C 6.181 250.136,6.951 253.072,7.149 253.719 C 7.238 254.011,7.400 254.588,7.508 255.000 C 7.724 255.818,7.953 256.587,8.551 258.500 C 8.766 259.188,9.151 260.425,9.407 261.250 C 9.663 262.075,9.972 263.012,10.093 263.333 C 10.214 263.654,10.404 264.217,10.515 264.583 C 10.626 264.950,10.837 265.568,10.983 265.958 L 11.250 266.665 200.000 266.663 L 388.750 266.661 389.239 265.122 C 389.508 264.276,389.820 263.358,389.931 263.083 C 390.043 262.808,390.225 262.246,390.335 261.833 C 390.446 261.421,390.634 260.821,390.754 260.500 C 390.874 260.179,391.168 259.242,391.408 258.417 C 391.647 257.592,391.928 256.654,392.032 256.333 C 392.135 256.012,392.276 255.525,392.345 255.250 C 392.415 254.975,392.598 254.300,392.752 253.750 C 392.907 253.200,393.171 252.225,393.340 251.583 C 393.509 250.942,393.810 249.817,394.008 249.083 C 394.206 248.350,394.434 247.450,394.514 247.083 C 394.594 246.717,394.779 245.892,394.925 245.250 C 395.366 243.312,396.019 240.297,396.171 239.500 C 396.249 239.088,396.437 238.112,396.588 237.333 C 396.739 236.554,396.895 235.692,396.935 235.417 C 396.975 235.142,397.115 234.354,397.245 233.667 C 397.376 232.979,397.558 231.892,397.650 231.250 C 397.743 230.608,397.932 229.296,398.072 228.333 C 398.211 227.371,398.400 225.946,398.492 225.167 C 399.168 219.394,399.173 219.342,399.705 212.000 C 399.990 208.073,399.989 191.913,399.704 188.000 C 399.225 181.417,399.135 180.334,398.918 178.500 C 398.793 177.446,398.606 175.833,398.503 174.917 C 398.400 174.000,398.204 172.500,398.068 171.583 C 397.931 170.667,397.744 169.392,397.651 168.750 C 397.558 168.108,397.376 167.021,397.245 166.333 C 397.115 165.646,396.975 164.858,396.935 164.583 C 396.895 164.308,396.739 163.446,396.588 162.667 C 396.437 161.887,396.250 160.912,396.173 160.500 C 395.977 159.448,395.371 156.623,395.064 155.333 C 394.923 154.737,394.734 153.912,394.644 153.500 C 394.414 152.448,394.024 150.899,393.740 149.917 C 393.608 149.458,393.341 148.483,393.147 147.750 C 392.953 147.017,392.728 146.173,392.647 145.875 C 392.566 145.577,392.437 145.090,392.360 144.792 C 392.283 144.494,392.135 143.987,392.032 143.667 C 391.928 143.346,391.648 142.408,391.408 141.583 C 391.169 140.758,390.894 139.896,390.798 139.667 C 390.702 139.438,390.554 138.987,390.469 138.667 C 390.165 137.517,390.018 137.063,389.500 135.667 C 389.211 134.887,388.935 134.044,388.885 133.792 L 388.796 133.334 199.981 133.292 C 41.639 133.257,11.167 133.286,11.167 133.475 " stroke="none" fill="#fcecbc" fill-rule="evenodd"></path></g></svg>