<svg id="svg" version="1.1" xmlns="http://www.w3.org/2000/svg" xmlns:xlink="http://www.w3.org/1999/xlink" viewBox="0, 0, 400,400"><g id="svgg"><path id="path0" d="M209.636 44.977 C 206.857 46.007,204.884 49.316,203.438 55.369 C 203.265 56.095,202.578 58.956,201.913 61.728 C 198.154 77.373,197.946 84.392,201.095 89.225 C 202.829 91.887,203.772 92.216,211.338 92.802 C 220.083 93.480,221.465 93.653,224.595 94.466 C 226.642 94.997,227.442 95.139,231.794 95.741 C 236.502 96.393,238.105 96.790,251.710 100.675 C 263.406 104.015,269.742 106.619,271.970 109.000 C 275.839 113.136,276.441 117.019,274.103 122.755 C 269.914 133.031,269.618 146.732,273.347 157.831 C 275.478 164.176,277.323 167.412,281.588 172.286 C 282.483 173.308,283.901 174.966,284.739 175.970 C 288.316 180.255,291.081 182.671,295.095 185.020 C 301.188 188.585,308.483 195.646,310.506 199.934 C 312.003 203.108,313.093 207.123,312.986 209.074 C 312.520 217.595,307.225 223.702,297.494 226.938 C 294.685 227.873,294.472 228.317,294.901 232.334 C 295.040 233.640,295.212 237.389,295.387 242.951 C 295.463 245.382,295.588 247.497,295.689 248.075 C 295.783 248.617,295.936 249.601,296.028 250.263 C 296.353 252.583,297.040 252.978,299.894 252.485 C 303.008 251.948,303.754 251.575,307.900 248.488 C 321.026 238.717,327.135 228.300,328.384 213.557 C 328.832 208.271,327.328 199.957,324.919 194.402 C 323.749 191.703,320.254 185.294,319.098 183.727 C 317.349 181.354,312.088 176.722,305.219 171.507 C 294.444 163.326,288.972 155.939,285.177 144.451 C 282.719 137.011,282.491 131.982,284.342 126.052 C 285.235 123.191,285.353 122.418,285.358 119.376 C 285.366 114.643,284.606 112.033,282.142 108.344 C 280.752 106.264,280.510 106.723,285.003 102.929 C 292.833 96.320,295.864 91.819,297.885 83.803 C 300.402 73.821,298.760 68.626,293.087 68.626 C 292.433 68.626,290.508 68.541,288.810 68.436 C 281.175 67.966,279.638 68.182,266.527 71.558 C 261.998 72.724,262.253 72.730,262.093 71.450 C 261.732 68.556,260.277 65.636,258.142 63.518 C 256.652 62.039,256.040 61.751,252.430 60.837 C 245.212 59.010,242.278 59.204,238.872 61.735 C 237.348 62.867,235.764 63.947,235.628 63.947 C 235.384 63.947,234.006 62.408,230.907 58.676 C 226.138 52.931,223.584 50.644,219.005 48.017 C 213.740 44.996,211.524 44.277,209.636 44.977 M191.002 185.838 C 185.836 185.958,185.251 186.215,183.498 189.142 C 173.955 205.083,160.104 217.105,142.726 224.529 C 137.499 226.762,133.544 227.543,126.674 227.699 C 122.090 227.803,122.437 227.305,122.533 233.653 C 122.574 236.384,122.688 239.075,122.844 240.972 C 123.095 244.018,123.309 248.103,123.365 250.930 C 123.409 253.083,123.903 254.011,125.457 254.857 C 128.361 256.437,135.394 256.204,143.071 254.271 C 155.187 251.222,170.007 242.453,176.717 234.363 C 182.990 226.798,193.344 204.892,197.579 190.222 C 198.934 185.530,199.114 185.650,191.002 185.838 " stroke="none" fill-rule="evenodd"></path></g></svg>