<svg id="svg" version="1.1" xmlns="http://www.w3.org/2000/svg" xmlns:xlink="http://www.w3.org/1999/xlink" viewBox="0, 0, 400,400"><g id="svgg"><path id="path0" d="M273.949 122.147 C 272.417 122.533,270.858 123.374,266.399 126.216 C 264.152 127.648,261.098 129.558,259.612 130.460 C 258.126 131.362,256.881 132.125,256.846 132.156 C 256.811 132.187,256.877 132.390,256.993 132.606 C 257.239 133.065,258.027 132.620,266.367 127.316 C 273.272 122.925,274.689 122.374,277.201 123.104 C 279.273 123.707,279.937 125.097,278.915 126.690 C 276.842 129.920,262.599 141.591,258.224 143.644 C 257.218 144.117,256.622 144.699,256.622 145.210 C 256.622 145.257,257.070 145.125,257.619 144.917 C 262.999 142.873,279.122 129.416,280.218 126.055 C 281.055 123.486,277.479 121.257,273.949 122.147 " stroke="none" fill="#7d95a4" fill-rule="evenodd"></path><path id="path1" d="M253.141 132.029 C 252.329 132.544,250.860 134.421,250.581 135.301 C 250.471 135.648,250.437 135.647,249.466 135.269 C 243.443 132.926,241.517 140.263,247.061 144.430 C 248.820 145.752,251.983 147.147,254.434 147.681 C 255.061 147.818,256.135 146.501,256.809 144.770 C 256.943 144.427,257.114 144.146,257.189 144.146 C 257.264 144.146,257.331 144.038,257.338 143.906 C 257.346 143.774,257.585 143.018,257.871 142.226 C 260.041 136.222,256.969 129.601,253.141 132.029 " stroke="none" fill="#fcb4b4" fill-rule="evenodd"></path><path id="path2" d="M273.512 123.298 C 271.964 123.855,271.032 124.390,265.739 127.760 C 263.417 129.239,260.584 131.004,259.445 131.683 C 257.996 132.546,257.400 133.004,257.463 133.205 C 257.512 133.364,257.785 134.139,258.069 134.929 C 258.794 136.945,258.696 139.979,257.827 142.370 C 257.144 144.254,257.158 144.260,259.413 142.972 C 265.940 139.243,279.024 127.770,279.402 125.444 C 279.713 123.529,276.313 122.290,273.512 123.298 " stroke="none" fill="#fcf4e4" fill-rule="evenodd"></path></g></svg>