<svg id="svg" version="1.1" xmlns="http://www.w3.org/2000/svg" xmlns:xlink="http://www.w3.org/1999/xlink" viewBox="0, 0, 400,400"><g id="svgg"><path id="path0" d="M249.616 51.133 C 249.299 51.273,248.868 51.580,248.657 51.817 C 248.446 52.053,248.043 52.366,247.762 52.511 C 247.293 52.754,247.241 52.900,247.134 54.267 C 246.389 63.807,245.155 68.194,240.480 77.923 C 238.040 83.002,238.155 82.396,239.288 84.213 C 239.783 85.008,240.458 86.375,240.787 87.251 L 241.387 88.844 241.304 86.677 C 241.206 84.125,241.560 82.037,242.457 79.881 C 243.446 77.503,244.505 76.635,244.140 78.503 C 243.571 81.407,244.341 84.621,246.183 87.034 L 246.872 87.936 249.396 85.455 C 254.160 80.771,255.129 81.122,253.714 87.019 C 253.339 88.582,253.102 90.086,253.090 90.979 L 253.071 92.418 253.616 92.481 C 254.211 92.549,255.028 92.076,256.777 90.651 C 260.581 87.553,260.716 90.450,257.190 99.476 C 256.649 100.861,256.616 100.838,258.636 100.485 C 260.906 100.090,261.996 100.121,261.996 100.581 C 261.996 101.146,257.242 103.037,254.074 103.732 C 253.548 103.847,253.559 103.864,254.938 105.072 C 256.275 106.243,258.458 108.656,259.483 110.098 L 259.968 110.779 260.509 109.180 C 266.224 92.281,263.768 68.344,254.929 54.798 C 252.812 51.553,251.193 50.437,249.616 51.133 M237.740 87.504 C 237.856 88.352,238.347 89.740,238.483 89.604 C 238.550 89.537,238.199 88.280,237.795 87.140 C 237.671 86.792,237.656 86.891,237.740 87.504 " stroke="none" fill="#dccccc" fill-rule="evenodd"></path><path id="path1" d="M249.834 46.146 C 248.176 46.756,247.554 47.952,247.306 51.008 C 247.155 52.863,247.172 52.872,248.646 51.727 C 250.897 49.979,252.527 50.862,255.376 55.374 C 263.907 68.888,266.228 91.978,260.732 108.665 L 260.059 110.708 261.101 112.312 C 261.674 113.194,262.968 115.566,263.976 117.583 C 266.736 123.104,267.445 123.532,269.770 121.074 C 276.334 114.134,279.518 91.623,276.102 76.293 C 274.681 69.914,271.891 63.660,268.346 58.907 C 262.164 50.619,253.643 44.745,249.834 46.146 M147.989 50.979 C 142.380 52.487,141.874 57.016,145.020 77.543 C 145.498 80.657,145.927 83.319,145.975 83.458 C 146.149 83.958,142.422 82.311,140.390 80.988 C 139.749 80.571,139.123 80.230,138.998 80.230 C 137.729 80.230,141.461 83.981,144.517 85.778 C 147.151 87.326,147.200 87.441,145.250 87.492 C 142.614 87.560,139.638 88.396,137.956 89.543 C 136.854 90.293,137.033 90.367,139.875 90.336 C 142.940 90.302,143.938 90.544,146.004 91.822 C 147.932 93.015,147.937 92.940,145.785 95.022 C 140.784 99.860,140.986 101.394,146.455 100.086 C 147.627 99.806,148.612 99.607,148.646 99.644 C 148.830 99.850,149.619 104.257,149.487 104.339 C 149.167 104.537,149.313 105.728,149.671 105.841 C 149.933 105.924,150.168 106.579,150.657 108.589 C 153.096 118.610,156.259 124.466,160.637 127.067 C 168.804 131.919,181.181 131.524,188.114 126.188 C 200.644 116.547,195.897 87.251,178.548 67.156 C 169.638 56.835,155.011 49.092,147.989 50.979 M243.188 78.551 C 242.422 79.879,241.731 82.083,241.455 84.083 C 241.253 85.541,241.273 86.516,241.562 89.251 C 241.644 90.036,241.618 89.998,241.274 88.838 C 240.228 85.318,237.948 81.694,235.539 79.725 C 233.725 78.242,233.557 78.572,234.969 80.839 C 235.516 81.718,236.300 83.215,236.710 84.165 C 237.121 85.115,237.532 86.065,237.625 86.276 C 237.718 86.488,237.978 87.308,238.204 88.100 C 238.907 90.573,240.002 92.048,242.802 94.297 C 243.594 94.933,244.976 96.160,245.873 97.025 C 246.771 97.890,248.369 99.362,249.424 100.297 C 250.480 101.231,251.387 102.048,251.440 102.112 C 251.492 102.175,251.946 102.518,252.447 102.874 C 252.949 103.229,253.359 103.584,253.359 103.662 C 253.359 104.305,261.554 101.343,261.766 100.624 C 261.862 100.297,259.825 100.316,258.061 100.660 C 256.382 100.986,256.434 101.238,257.556 98.244 C 260.904 89.306,260.500 87.808,255.741 91.512 C 252.670 93.902,252.257 93.013,253.651 87.014 C 255.005 81.185,254.062 80.859,249.379 85.539 L 246.838 88.077 246.065 86.998 C 244.189 84.378,243.591 81.927,244.027 78.647 C 244.214 77.242,243.960 77.213,243.188 78.551 " stroke="none" fill="#fcfcfc" fill-rule="evenodd"></path><path id="path2" d="M262.092 52.015 C 262.504 52.438,262.885 52.783,262.938 52.783 C 262.991 52.783,262.696 52.438,262.284 52.015 C 261.872 51.593,261.491 51.248,261.438 51.248 C 261.386 51.248,261.680 51.593,262.092 52.015 M265.163 55.086 C 265.575 55.509,265.956 55.854,266.009 55.854 C 266.062 55.854,265.767 55.509,265.355 55.086 C 264.943 54.664,264.562 54.319,264.509 54.319 C 264.457 54.319,264.751 54.664,265.163 55.086 M263.388 82.821 C 263.390 83.244,263.430 83.394,263.475 83.155 C 263.521 82.916,263.520 82.571,263.472 82.387 C 263.424 82.204,263.386 82.399,263.388 82.821 M263.612 88.772 C 263.612 90.777,263.640 91.572,263.675 90.537 C 263.709 89.502,263.709 87.861,263.675 86.890 C 263.640 85.919,263.611 86.766,263.612 88.772 M247.313 87.523 C 247.049 87.816,246.905 87.856,246.708 87.692 C 246.566 87.574,246.449 87.520,246.449 87.573 C 246.449 88.020,247.009 88.046,247.411 87.618 C 247.658 87.355,247.815 87.140,247.760 87.140 C 247.705 87.140,247.504 87.313,247.313 87.523 M277.619 90.403 C 277.619 91.934,277.649 92.560,277.686 91.795 C 277.722 91.029,277.722 89.777,277.686 89.012 C 277.649 88.246,277.619 88.872,277.619 90.403 M241.382 89.379 C 241.559 90.115,241.651 90.184,241.651 89.583 C 241.651 89.307,241.561 89.027,241.451 88.959 C 241.320 88.878,241.296 89.023,241.382 89.379 M252.832 91.267 C 252.834 91.689,252.873 91.839,252.919 91.600 C 252.965 91.362,252.963 91.016,252.915 90.833 C 252.867 90.649,252.829 90.845,252.832 91.267 M263.388 94.722 C 263.390 95.144,263.430 95.294,263.475 95.055 C 263.521 94.817,263.520 94.471,263.472 94.288 C 263.424 94.104,263.386 94.299,263.388 94.722 M244.906 96.209 C 245.701 97.057,245.873 97.209,245.873 97.065 C 245.873 97.034,245.463 96.624,244.962 96.153 L 244.050 95.298 244.906 96.209 M248.177 99.328 C 248.535 99.698,248.871 100.000,248.924 100.000 C 248.976 100.000,248.727 99.698,248.369 99.328 C 248.010 98.959,247.674 98.656,247.621 98.656 C 247.569 98.656,247.818 98.959,248.177 99.328 M260.319 100.330 C 260.611 100.374,261.043 100.373,261.279 100.327 C 261.515 100.281,261.276 100.245,260.749 100.247 C 260.221 100.248,260.028 100.286,260.319 100.330 M269.569 121.353 L 268.810 122.169 269.626 121.410 C 270.384 120.705,270.530 120.537,270.384 120.537 C 270.353 120.537,269.986 120.905,269.569 121.353 " stroke="none" fill="#e8dcdc" fill-rule="evenodd"></path></g></svg>