<svg id="svg" version="1.1" xmlns="http://www.w3.org/2000/svg" xmlns:xlink="http://www.w3.org/1999/xlink" viewbox="0 0 400 400"><g id="svgg"><path id="path0" d="M190.462 67.559 C 186.026 67.889,180.581 68.996,175.465 70.608 C 153.999 77.370,138.013 92.616,132.463 111.618 C 128.789 124.198,131.628 139.119,139.070 146.334 C 141.057 148.260,142.166 148.491,147.930 148.179 C 152.127 147.951,152.176 147.924,152.297 145.749 C 152.387 144.156,152.748 141.427,153.048 140.072 C 153.450 138.260,154.779 133.382,155.037 132.770 L 155.310 132.122 155.267 135.137 C 155.205 139.482,155.565 142.199,156.654 145.591 C 157.884 149.421,158.775 149.963,164.247 150.206 C 165.666 150.269,167.015 150.377,167.246 150.446 C 168.694 150.875,168.761 150.715,168.586 147.237 C 167.982 135.215,169.746 126.369,174.740 116.386 C 178.719 108.432,180.242 106.485,183.278 105.472 C 185.530 104.720,186.272 105.163,186.616 107.460 C 188.347 119.017,186.854 132.948,182.586 145.088 C 181.605 147.878,181.977 148.889,183.983 148.889 C 185.361 148.889,185.613 148.632,187.025 145.782 C 188.117 143.580,188.401 142.860,189.163 140.372 L 189.622 138.872 189.699 139.952 C 189.742 140.546,189.782 142.168,189.789 143.556 C 189.804 146.430,189.927 147.140,190.581 148.130 C 191.675 149.785,192.312 149.947,198.260 150.090 C 202.604 150.194,205.455 150.356,210.231 150.772 L 212.603 150.979 212.920 150.661 C 213.230 150.352,213.243 150.275,213.456 147.587 C 213.577 146.070,213.865 143.057,214.097 140.891 C 215.147 131.104,215.142 131.165,215.160 128.254 C 215.183 124.419,214.970 121.021,214.587 119.136 C 214.085 116.663,214.265 116.637,215.061 119.065 C 215.817 121.367,216.202 124.155,216.496 129.435 C 216.596 131.239,216.732 133.210,216.797 133.814 C 217.051 136.149,217.153 139.330,217.155 144.901 C 217.157 151.213,217.152 151.170,217.846 151.170 C 217.962 151.170,220.297 151.363,223.035 151.599 C 225.774 151.835,228.249 151.997,228.536 151.959 C 230.206 151.740,232.183 149.877,233.012 147.741 C 233.806 145.696,234.963 140.987,235.212 138.782 C 235.324 137.791,235.439 137.927,235.618 139.262 C 236.952 149.212,241.235 158.932,247.492 166.205 C 248.861 167.797,248.656 167.763,249.635 166.554 C 253.796 161.415,257.645 159.355,262.618 159.604 C 266.796 159.814,271.274 162.886,272.050 166.073 C 273.007 170.003,271.563 178.528,269.057 183.743 C 268.176 185.576,264.986 190.439,263.942 191.542 C 262.639 192.917,262.627 193.376,263.860 194.871 C 264.863 196.088,267.102 194.828,269.475 191.710 C 277.657 180.961,286.319 165.978,289.147 157.683 C 292.004 149.302,292.802 133.959,290.991 122.256 C 287.122 97.261,273.216 81.361,247.990 73.090 C 235.138 68.876,223.380 67.647,215.122 69.653 C 211.847 70.448,211.109 70.439,209.233 69.581 C 205.523 67.883,197.589 67.028,190.462 67.559 " stroke="none" fill-rule="evenodd"></path></g></svg>