<svg id="svg" version="1.1" xmlns="http://www.w3.org/2000/svg" xmlns:xlink="http://www.w3.org/1999/xlink" viewBox="0, 0, 400,400"><g id="svgg"><path id="path0" d="M191.482 67.389 C 188.929 67.581,183.054 68.544,179.844 69.297 C 176.111 70.173,170.960 71.989,167.149 73.774 C 166.180 74.228,164.975 74.787,164.472 75.017 C 158.443 77.773,149.636 84.275,144.772 89.562 C 137.889 97.043,132.375 108.238,131.257 117.003 C 129.849 128.037,132.005 137.612,137.395 144.267 C 140.134 147.649,142.753 148.573,147.570 147.859 C 148.263 147.757,149.397 147.654,150.090 147.631 C 150.783 147.608,151.420 147.585,151.506 147.580 C 151.826 147.561,151.997 146.692,152.428 142.891 C 153.125 136.737,153.456 135.182,154.601 132.681 C 154.892 132.047,155.129 131.473,155.129 131.406 C 155.129 131.338,155.196 131.227,155.279 131.159 C 155.398 131.060,155.431 131.917,155.438 135.373 C 155.453 143.107,156.605 147.607,158.917 148.962 C 159.994 149.593,160.833 149.701,166.767 149.971 C 168.251 150.038,170.573 150.187,171.926 150.302 C 174.583 150.527,182.870 150.597,184.444 150.407 C 185.525 150.277,185.782 150.041,185.676 149.272 C 185.232 146.031,185.051 138.174,185.401 137.343 C 185.832 136.321,185.880 136.412,187.047 140.448 C 188.025 143.834,188.531 145.147,189.937 147.957 C 190.452 148.987,190.729 149.408,190.971 149.531 C 191.690 149.895,197.515 149.857,198.212 149.484 C 198.454 149.355,198.459 149.299,198.362 147.950 C 198.030 143.370,198.862 138.786,199.399 142.232 C 199.737 144.400,201.216 147.967,202.100 148.745 C 203.183 149.699,206.120 150.263,211.278 150.510 C 221.049 150.977,224.571 151.205,226.442 151.491 C 228.338 151.780,229.468 151.457,230.528 150.324 C 231.648 149.127,231.619 149.313,231.577 143.530 C 231.537 138.081,231.580 137.368,232.166 133.773 C 232.610 131.047,233.278 128.323,233.586 127.982 C 233.632 127.932,233.791 128.688,233.939 129.662 C 235.436 139.492,238.861 149.474,243.987 158.939 C 244.621 160.110,245.889 162.566,246.805 164.397 C 247.721 166.228,248.511 167.725,248.561 167.724 C 248.610 167.723,248.862 167.390,249.120 166.984 C 251.155 163.794,255.088 160.587,258.188 159.591 C 263.847 157.773,270.494 160.927,272.177 166.228 C 273.659 170.894,270.968 180.702,265.977 188.821 C 264.902 190.571,264.487 191.087,263.421 191.999 C 262.528 192.763,263.417 195.321,264.576 195.321 C 265.508 195.321,267.619 193.509,269.190 191.362 C 269.649 190.735,270.534 189.601,271.157 188.842 C 273.624 185.837,275.845 182.501,277.746 178.944 C 278.099 178.284,278.963 176.827,279.666 175.705 C 281.066 173.469,283.114 169.893,284.439 167.367 C 290.304 156.190,292.824 137.574,290.512 122.496 C 288.191 107.356,280.542 92.393,271.949 86.182 C 260.192 77.683,247.875 72.227,234.777 69.718 C 227.446 68.314,217.063 68.508,212.449 70.136 C 211.695 70.402,211.277 70.345,209.818 69.775 C 204.864 67.840,197.767 66.917,191.482 67.389 " stroke="none" fill-rule="evenodd"></path></g></svg>