<svg id="svg" version="1.1" xmlns="http://www.w3.org/2000/svg" xmlns:xlink="http://www.w3.org/1999/xlink" viewBox="0, 0, 400,400"><g id="svgg"><path id="path0" d="M222.196 69.906 C 217.929 70.134,214.571 70.754,210.896 71.993 L 209.077 72.606 207.388 72.360 C 194.216 70.437,177.224 74.766,164.283 83.341 C 148.032 94.108,139.509 106.823,139.204 120.756 C 139.076 126.616,141.226 133.740,144.246 137.464 C 144.957 138.340,144.896 138.372,145.467 136.833 C 148.561 128.481,152.607 123.701,160.697 118.838 C 163.476 117.167,164.913 116.605,166.342 116.629 C 167.658 116.650,167.645 116.632,167.165 117.816 C 161.706 131.288,171.822 148.735,186.476 151.120 C 189.467 151.606,189.495 151.099,186.597 148.933 C 181.232 144.922,178.694 140.634,178.143 134.642 C 177.618 128.941,179.813 122.512,183.700 118.366 L 184.497 117.516 185.020 118.115 C 200.111 135.393,216.660 149.413,237.253 162.366 C 237.780 162.698,238.823 163.258,239.568 163.611 C 240.314 163.963,241.462 164.578,242.118 164.977 C 243.965 166.099,247.301 167.487,248.151 167.487 C 248.556 167.487,248.623 167.430,249.138 166.647 C 249.443 166.185,249.744 165.807,249.808 165.807 C 249.872 165.807,250.717 165.033,251.687 164.087 C 253.557 162.262,253.720 162.135,255.967 160.762 C 263.146 156.376,272.656 161.209,272.621 169.226 C 272.579 178.927,266.142 191.624,259.077 195.941 C 257.969 196.618,257.799 196.886,258.062 197.532 C 258.145 197.734,258.365 198.278,258.551 198.740 C 258.737 199.202,259.262 200.498,259.717 201.620 C 260.173 202.741,260.703 204.105,260.895 204.649 C 261.087 205.193,261.292 205.639,261.352 205.639 C 261.978 205.639,266.639 201.563,269.120 198.846 C 277.314 189.869,282.351 178.798,288.596 156.040 C 291.230 146.443,291.461 138.814,289.614 122.376 C 287.698 105.325,281.378 94.680,266.107 82.783 C 254.011 73.360,239.141 68.999,222.196 69.906 " stroke="none" fill-rule="evenodd"></path></g></svg>