<svg id="svg" version="1.1" xmlns="http://www.w3.org/2000/svg" xmlns:xlink="http://www.w3.org/1999/xlink" viewBox="0, 0, 400,400"><g id="svgg"><path id="path0" d="M211.041 69.599 C 210.409 69.752,209.200 70.098,208.353 70.368 C 207.507 70.638,205.920 71.062,204.829 71.311 C 202.689 71.799,202.485 71.899,201.104 73.122 L 200.192 73.929 200.192 75.314 C 200.192 76.923,200.037 77.153,199.045 77.020 C 196.736 76.711,194.447 79.114,194.047 82.267 C 193.700 85.008,193.552 85.252,191.006 87.292 C 189.596 88.422,188.685 90.664,188.678 93.021 C 188.676 93.825,188.556 94.181,188.025 94.953 C 185.294 98.922,185.405 103.590,188.259 104.860 C 190.510 105.861,195.666 106.151,197.020 105.352 C 197.642 104.985,197.888 104.958,199.574 105.071 C 201.189 105.179,201.394 105.160,201.104 104.928 C 200.647 104.564,200.675 104.472,201.355 104.121 C 203.138 103.199,204.239 101.557,204.322 99.697 C 204.404 97.848,204.454 97.777,206.076 97.177 C 208.644 96.227,209.655 94.987,209.985 92.384 C 210.211 90.602,210.368 90.410,212.369 89.463 C 215.992 87.750,217.401 85.365,216.875 81.834 C 216.643 80.274,216.650 80.199,217.062 79.642 C 217.773 78.679,218.064 77.551,218.179 75.304 L 218.290 73.160 217.734 72.539 C 214.818 69.276,213.951 68.896,211.041 69.599 M213.944 73.348 C 216.179 74.692,215.137 78.311,212.515 78.311 C 211.597 78.311,211.434 78.135,210.310 75.932 C 209.358 74.068,209.352 73.841,210.243 73.380 C 211.555 72.701,212.850 72.690,213.944 73.348 M232.511 73.484 C 232.077 73.688,231.451 73.914,231.120 73.987 C 230.619 74.097,230.518 74.209,230.518 74.661 C 230.518 75.002,230.263 75.509,229.831 76.026 C 229.097 76.904,228.408 78.163,228.042 79.295 C 227.745 80.213,227.364 80.518,226.164 80.798 C 223.843 81.340,222.238 82.923,221.501 85.398 C 221.038 86.953,220.725 87.269,219.268 87.650 C 216.339 88.415,214.083 90.633,213.702 93.122 C 213.528 94.262,213.387 94.488,212.010 95.843 C 210.698 97.133,210.203 98.151,209.645 100.706 L 209.344 102.083 209.950 103.748 C 210.283 104.663,210.512 105.484,210.458 105.571 C 210.403 105.659,210.526 105.784,210.730 105.848 C 210.935 105.913,211.673 106.388,212.371 106.903 C 213.719 107.898,214.805 108.253,216.499 108.253 C 217.137 108.253,217.816 108.435,218.649 108.829 C 220.247 109.585,226.296 109.744,226.296 109.030 C 226.296 108.803,226.632 108.424,227.154 108.065 C 228.602 107.069,229.557 105.485,229.946 103.436 C 230.205 102.072,230.467 101.840,232.529 101.153 C 235.675 100.105,236.539 99.032,236.555 96.153 C 236.567 93.782,236.754 93.486,238.842 92.526 C 242.132 91.014,243.788 88.827,243.849 85.917 C 243.886 84.120,244.044 83.625,244.939 82.504 C 245.266 82.094,245.344 81.736,245.339 80.680 C 245.336 79.836,245.436 79.206,245.619 78.917 C 245.877 78.512,245.868 78.380,245.526 77.573 C 245.318 77.082,245.086 76.392,245.012 76.041 C 244.641 74.290,242.446 73.191,239.491 73.277 C 236.495 73.363,236.200 73.361,234.741 73.236 C 233.545 73.134,233.168 73.176,232.511 73.484 M206.893 76.475 C 207.430 77.471,207.869 78.451,207.869 78.653 C 207.869 80.051,203.750 80.821,203.407 79.487 C 203.318 79.138,203.710 75.298,203.847 75.180 C 205.076 74.124,205.790 74.428,206.893 76.475 M241.171 76.832 C 243.023 77.879,242.816 80.332,240.746 81.850 C 239.553 82.725,239.500 82.714,239.127 81.526 C 238.953 80.972,238.588 80.000,238.316 79.367 C 237.217 76.808,238.739 75.457,241.171 76.832 M234.103 77.015 C 234.187 77.147,234.438 77.860,234.660 78.599 C 234.883 79.338,235.254 80.406,235.485 80.973 L 235.905 82.004 234.699 81.873 C 231.841 81.564,231.196 81.348,231.131 80.676 C 230.990 79.227,233.524 76.106,234.103 77.015 M175.778 77.799 C 174.498 78.162,173.554 78.846,172.253 80.355 C 171.629 81.078,170.662 82.173,170.105 82.788 C 168.586 84.463,168.274 85.190,168.176 87.278 L 168.093 89.048 168.883 89.992 C 169.757 91.035,169.864 91.615,169.297 92.219 C 168.941 92.598,168.930 92.776,169.088 95.494 C 169.258 98.411,169.423 99.139,170.307 100.883 C 170.572 101.406,170.938 102.588,171.121 103.508 C 171.304 104.429,171.525 105.182,171.613 105.182 C 171.700 105.182,172.092 105.463,172.483 105.806 L 173.194 106.430 176.280 106.428 C 179.729 106.426,180.905 106.189,182.653 105.143 L 183.636 104.555 184.070 102.642 C 184.730 99.729,184.349 97.629,182.910 96.250 C 182.172 95.543,182.170 94.862,182.904 94.159 C 184.779 92.362,184.941 87.106,183.185 85.004 L 182.534 84.225 182.534 81.838 L 182.534 79.451 181.837 78.833 C 180.491 77.639,177.900 77.197,175.778 77.799 M200.262 80.995 C 200.642 81.415,201.352 82.559,201.841 83.538 C 202.330 84.516,203.026 85.731,203.386 86.237 L 204.042 87.156 203.019 87.624 C 201.993 88.094,198.409 88.651,197.833 88.430 C 197.125 88.158,196.727 84.413,197.215 82.611 C 197.873 80.179,198.990 79.587,200.262 80.995 M179.182 81.321 C 179.436 81.575,179.477 81.831,179.373 82.521 C 179.301 83.003,179.176 83.904,179.096 84.524 C 178.819 86.687,177.570 86.974,175.797 85.283 C 174.477 84.024,174.313 83.599,174.771 82.634 C 175.463 81.175,178.217 80.355,179.182 81.321 M213.389 81.999 C 213.909 82.430,213.623 84.523,212.947 85.236 C 211.216 87.060,207.486 88.031,207.486 86.657 C 207.486 86.529,207.218 86.089,206.891 85.679 C 206.564 85.269,206.135 84.619,205.939 84.236 L 205.582 83.540 207.585 82.834 C 210.997 81.631,212.658 81.392,213.389 81.999 M228.055 84.748 C 228.354 85.261,229.463 90.755,229.300 90.917 C 229.197 91.021,227.200 90.290,226.057 89.730 L 224.989 89.207 224.855 87.509 C 224.663 85.088,225.328 84.017,226.958 84.118 C 227.576 84.156,227.779 84.273,228.055 84.748 M236.552 85.416 C 240.954 86.158,241.134 86.305,239.763 88.035 C 238.989 89.011,235.979 90.764,234.541 91.074 C 234.176 91.153,233.564 91.376,233.181 91.570 L 232.486 91.922 232.358 90.347 C 232.288 89.480,232.092 88.025,231.922 87.113 C 231.430 84.473,231.282 84.528,236.552 85.416 M258.361 86.454 C 258.228 86.614,257.631 86.969,257.035 87.242 C 255.770 87.821,255.313 88.212,254.281 89.598 C 253.865 90.158,253.335 90.689,253.105 90.779 C 252.875 90.869,252.255 91.094,251.727 91.279 C 250.981 91.542,250.300 92.072,248.656 93.670 C 247.367 94.924,246.146 95.926,245.520 96.243 C 244.275 96.873,243.042 97.983,241.882 99.520 C 240.464 101.399,240.103 101.622,237.980 101.923 C 234.428 102.427,231.286 106.240,231.286 110.047 C 231.286 110.539,231.173 110.987,231.017 111.117 C 230.792 111.304,230.789 111.426,230.998 111.860 C 231.135 112.146,231.308 113.157,231.381 114.107 C 231.588 116.798,232.210 119.911,232.815 121.293 C 233.119 121.986,233.427 122.790,233.499 123.081 C 233.592 123.451,233.753 123.608,234.042 123.609 C 234.268 123.609,234.928 123.790,235.509 124.012 C 238.144 125.017,242.955 123.657,245.721 121.123 C 247.026 119.927,247.342 119.798,249.713 119.489 C 251.285 119.284,252.474 118.423,253.189 116.972 C 253.930 115.465,254.238 115.237,255.758 115.061 C 258.804 114.710,260.970 113.436,261.717 111.557 C 262.092 110.613,262.762 110.177,263.858 110.164 C 266.909 110.129,269.798 106.510,268.991 103.734 C 268.609 102.421,268.765 101.884,269.791 100.981 L 270.633 100.240 270.633 97.730 C 270.633 92.019,269.167 89.735,265.077 89.076 C 263.881 88.883,263.148 88.469,263.148 87.985 C 263.148 87.225,262.298 86.728,260.745 86.579 C 259.903 86.498,259.076 86.371,258.908 86.297 C 258.727 86.218,258.504 86.282,258.361 86.454 M181.183 89.238 C 181.369 89.586,181.140 90.922,180.773 91.628 C 180.657 91.851,179.933 92.618,179.165 93.331 C 178.323 94.112,177.596 94.988,177.333 95.538 C 176.600 97.072,176.518 97.054,174.213 94.892 C 171.631 92.470,171.681 92.397,177.624 89.911 C 180.501 88.707,180.862 88.639,181.183 89.238 M195.540 91.570 C 197.157 94.779,197.046 95.232,194.487 95.879 C 192.512 96.378,192.131 95.923,192.131 93.072 C 192.131 91.089,192.381 90.327,193.280 89.570 C 194.143 88.844,194.184 88.881,195.540 91.570 M260.281 90.130 C 260.490 90.382,260.477 90.702,260.207 92.002 C 260.028 92.865,259.808 94.368,259.718 95.342 C 259.516 97.529,259.348 97.768,258.103 97.648 C 256.724 97.516,256.589 97.291,256.396 94.806 C 256.232 92.696,256.238 92.645,256.730 91.804 C 257.602 90.317,259.639 89.357,260.281 90.130 M206.419 90.638 C 206.903 91.329,206.807 92.762,206.232 93.447 C 205.008 94.901,200.457 94.730,199.732 93.202 C 199.124 91.919,199.336 91.731,201.919 91.263 C 202.711 91.119,203.834 90.830,204.415 90.620 C 205.792 90.123,206.060 90.125,206.419 90.638 M221.459 90.825 C 221.804 91.171,221.776 96.353,221.426 96.832 C 220.809 97.676,217.558 96.237,217.127 94.928 C 216.397 92.713,219.966 89.333,221.459 90.825 M265.993 92.904 C 267.064 93.695,267.274 94.317,267.274 96.685 L 267.274 98.841 266.573 99.543 C 265.476 100.641,262.869 100.614,262.442 99.500 C 262.278 99.073,262.933 94.134,263.260 93.327 C 263.690 92.268,264.883 92.083,265.993 92.904 M161.277 92.987 C 159.315 93.600,157.799 94.957,157.108 96.722 C 156.846 97.389,156.381 98.335,156.073 98.823 C 154.140 101.897,154.547 104.605,157.249 106.643 C 157.907 107.139,158.535 107.653,158.645 107.785 C 159.279 108.546,165.149 107.446,166.907 106.235 L 167.916 105.540 168.066 104.066 C 168.718 97.656,168.010 94.997,165.232 93.436 C 164.825 93.207,164.491 92.949,164.491 92.863 C 164.491 92.616,162.178 92.705,161.277 92.987 M227.590 93.881 C 229.403 94.762,230.827 95.196,231.919 95.199 C 232.434 95.201,232.785 95.339,233.118 95.673 C 234.863 97.418,230.715 99.286,227.152 98.359 C 225.261 97.867,225.195 97.785,225.112 95.834 C 224.976 92.678,225.030 92.636,227.590 93.881 M253.271 94.899 C 253.526 95.289,253.543 95.543,253.371 96.470 C 253.259 97.078,253.166 98.877,253.164 100.467 C 253.161 103.937,253.132 104.010,251.882 103.683 C 249.438 103.044,249.101 101.896,250.168 97.838 C 250.625 96.100,251.031 95.464,252.111 94.793 C 252.848 94.336,252.905 94.341,253.271 94.899 M163.990 96.520 C 164.883 97.024,165.259 97.951,165.259 99.645 C 165.259 101.894,165.385 101.829,162.795 100.929 C 159.490 99.781,159.326 99.437,161.213 97.610 C 161.644 97.193,161.996 96.756,161.996 96.641 C 161.996 95.949,162.884 95.895,163.990 96.520 M199.933 98.656 C 202.227 99.740,201.426 101.080,198.258 101.459 C 195.923 101.738,195.368 101.596,194.534 100.502 C 193.729 99.447,194.479 98.932,197.778 98.278 C 198.209 98.192,198.595 98.113,198.638 98.102 C 198.680 98.090,199.263 98.340,199.933 98.656 M180.885 98.863 C 182.630 100.937,180.813 103.106,177.226 103.230 C 172.715 103.385,173.051 101.584,177.863 99.823 C 178.532 99.578,179.262 99.147,179.544 98.831 C 180.166 98.132,180.272 98.135,180.885 98.863 M222.059 100.508 C 226.863 101.482,226.871 101.485,226.871 102.479 C 226.871 106.781,219.848 107.418,218.067 103.278 C 217.198 101.257,216.853 99.295,217.405 99.507 C 217.582 99.575,219.677 100.025,222.059 100.508 M246.244 101.558 C 246.251 102.046,246.120 103.212,245.953 104.150 C 245.786 105.087,245.592 106.236,245.521 106.702 C 245.369 107.713,245.208 107.797,244.384 107.295 C 242.349 106.054,242.571 103.475,244.929 100.957 C 246.045 99.765,246.218 99.844,246.244 101.558 M260.192 102.128 C 262.082 102.981,264.081 103.884,264.635 104.133 C 267.039 105.212,265.524 106.922,261.900 107.221 C 259.466 107.421,257.696 106.873,256.670 105.599 C 256.394 105.256,256.323 100.576,256.593 100.576 C 256.683 100.576,258.303 101.274,260.192 102.128 M239.885 105.413 C 240.341 105.869,238.837 111.923,238.161 112.350 C 237.579 112.717,234.773 111.202,234.703 110.483 C 234.431 107.691,236.311 105.182,238.675 105.182 C 239.214 105.182,239.758 105.286,239.885 105.413 M250.796 106.735 C 252.124 107.140,257.643 109.799,258.136 110.272 C 259.319 111.406,255.174 112.420,251.808 111.819 C 248.810 111.284,247.902 110.094,248.577 107.582 C 248.925 106.285,249.099 106.218,250.796 106.735 M244.950 111.802 C 245.933 112.487,247.342 113.408,248.081 113.848 C 248.820 114.288,249.619 114.766,249.856 114.910 C 251.164 115.703,249.560 116.676,246.929 116.686 C 245.609 116.691,244.809 116.379,242.779 115.066 L 241.412 114.181 241.500 113.281 C 241.625 111.991,242.299 110.557,242.779 110.557 C 242.990 110.557,243.966 111.117,244.950 111.802 M268.799 114.744 C 267.629 115.148,265.152 116.791,263.783 118.071 L 262.787 119.002 261.384 119.006 C 259.490 119.012,258.710 119.401,256.721 121.335 C 254.640 123.359,254.555 123.402,252.581 123.410 C 250.638 123.418,249.298 123.961,248.370 125.116 C 248.062 125.501,247.436 126.287,246.981 126.862 C 245.762 128.403,244.808 128.827,242.155 129.005 C 237.765 129.299,235.915 130.767,234.546 135.042 C 234.031 136.650,234.121 138.071,234.819 139.388 C 235.059 139.841,235.578 140.816,235.971 141.555 C 237.135 143.738,239.302 145.617,240.548 145.523 C 240.958 145.492,241.316 145.718,242.139 146.528 C 245.542 149.878,253.044 150.304,256.972 147.370 C 258.649 146.118,259.557 145.797,261.324 145.834 C 265.214 145.914,268.137 144.594,269.737 142.035 C 270.140 141.390,270.504 141.158,272.724 140.131 C 274.089 139.500,275.580 137.978,276.445 136.331 C 277.111 135.064,278.077 133.973,278.532 133.973 C 278.637 133.973,279.305 133.628,280.016 133.205 C 280.727 132.783,281.519 132.434,281.777 132.429 C 282.700 132.413,284.247 129.455,284.649 126.939 C 285.392 122.289,281.267 116.699,277.093 116.699 C 275.557 116.699,275.468 116.673,274.080 115.835 C 271.722 114.410,270.495 114.157,268.799 114.744 M240.160 117.310 C 241.097 117.838,242.096 118.479,242.381 118.734 L 242.898 119.199 242.226 119.779 C 240.873 120.947,236.806 121.426,236.196 120.489 C 235.818 119.907,234.959 116.891,234.809 115.617 L 234.688 114.589 236.573 115.470 C 237.609 115.954,239.223 116.782,240.160 117.310 M271.341 118.163 C 271.441 118.422,269.970 125.296,269.772 125.493 C 269.603 125.663,266.153 123.454,265.790 122.943 C 265.549 122.604,265.629 121.313,265.928 120.735 C 266.842 118.967,270.908 117.034,271.341 118.163 M278.133 120.510 C 279.827 121.590,281.574 124.212,281.574 125.674 C 281.574 128.589,278.015 131.952,276.569 130.404 C 276.313 130.130,275.536 129.568,274.843 129.155 C 272.838 127.961,272.491 127.522,272.914 126.715 C 273.007 126.537,273.270 125.312,273.499 123.992 C 274.087 120.592,274.268 120.278,275.720 120.140 C 277.051 120.014,277.452 120.076,278.133 120.510 M261.766 122.303 C 262.218 122.755,261.459 125.909,260.264 128.545 L 259.701 129.787 258.977 129.359 C 256.849 128.101,257.003 125.657,259.360 123.273 C 260.566 122.052,261.242 121.780,261.766 122.303 M253.753 126.980 C 254.077 127.370,253.937 127.759,251.956 131.958 C 250.186 135.710,250.193 135.701,249.613 135.701 C 249.103 135.701,248.050 134.590,247.867 133.860 C 247.104 130.821,252.097 124.985,253.753 126.980 M267.036 127.885 C 268.641 129.108,272.925 131.862,273.223 131.862 C 274.646 131.862,274.327 134.374,272.693 136.036 C 271.539 137.210,271.399 137.234,270.250 136.462 C 269.774 136.143,268.243 135.268,266.847 134.518 C 263.607 132.777,262.694 132.027,262.820 131.208 C 262.903 130.669,264.124 127.310,264.399 126.865 C 264.680 126.410,265.535 126.741,267.036 127.885 M258.869 133.212 C 260.114 134.060,261.694 135.147,262.380 135.627 C 263.066 136.107,264.474 136.927,265.507 137.450 C 267.985 138.702,268.167 139.539,266.332 141.231 C 263.939 143.437,260.206 142.919,254.929 139.649 C 252.478 138.129,252.490 138.185,253.915 135.277 C 254.559 133.961,255.086 132.800,255.086 132.697 C 255.086 132.361,255.860 131.670,256.237 131.670 C 256.439 131.670,257.623 132.364,258.869 133.212 M244.111 132.300 C 244.363 132.603,244.251 133.131,242.964 137.705 C 241.581 142.620,241.233 142.957,239.633 140.931 C 236.750 137.280,237.140 133.591,240.534 132.419 C 241.733 132.005,243.809 131.936,244.111 132.300 M249.520 139.850 C 250.945 140.865,252.779 142.084,253.595 142.560 C 255.484 143.662,255.634 143.836,255.264 144.496 C 254.098 146.573,245.484 146.441,244.750 144.335 C 244.535 143.721,244.538 143.705,245.338 140.787 C 246.282 137.347,246.070 137.395,249.520 139.850 M282.376 142.442 C 281.815 142.535,281.194 142.697,280.997 142.803 C 280.450 143.096,278.938 143.031,278.271 142.686 C 276.810 141.930,274.170 142.715,272.588 144.376 C 271.395 145.628,271.020 145.797,269.098 145.951 C 265.871 146.208,263.666 146.990,261.420 148.672 L 260.173 149.607 257.582 149.719 C 254.741 149.841,253.931 150.082,252.511 151.226 C 251.463 152.072,251.047 152.126,249.384 151.632 C 246.605 150.807,243.601 151.867,242.586 154.031 C 241.305 156.760,241.476 159.128,243.210 162.648 C 243.725 163.693,244.146 164.658,244.146 164.793 C 244.146 165.503,247.485 167.754,248.539 167.754 C 248.645 167.754,249.713 166.869,250.911 165.787 C 255.830 161.346,259.231 159.156,261.493 158.975 C 264.325 158.747,268.634 160.953,271.113 163.900 C 271.701 164.599,272.229 165.046,272.476 165.054 C 272.697 165.061,273.690 165.239,274.683 165.448 C 275.675 165.658,276.827 165.830,277.243 165.832 C 277.751 165.834,278.144 165.971,278.443 166.252 C 278.687 166.482,278.887 166.571,278.887 166.451 C 278.887 166.331,279.383 165.893,279.990 165.478 C 282.646 163.660,284.427 160.497,284.196 158.014 L 284.083 156.806 285.219 155.552 C 287.477 153.061,288.202 151.152,288.053 148.094 C 287.839 143.734,285.947 141.850,282.376 142.442 M283.754 146.078 C 286.895 148.549,281.989 156.760,278.490 154.888 C 277.920 154.582,278.023 153.933,279.188 150.492 C 280.717 145.972,282.019 144.713,283.754 146.078 M277.038 146.165 C 277.162 146.487,275.439 151.587,274.958 152.320 C 274.467 153.070,273.470 152.727,273.484 151.813 C 273.510 150.058,273.898 147.690,274.233 147.238 C 275.070 146.107,276.767 145.458,277.038 146.165 M270.176 149.432 C 270.526 149.966,270.281 151.143,269.201 154.127 C 268.953 154.813,268.692 155.633,268.621 155.950 C 268.272 157.509,267.807 157.509,265.164 155.948 C 263.943 155.228,262.830 154.702,262.525 154.702 C 261.873 154.702,261.872 154.595,262.506 152.731 C 263.188 150.723,263.831 150.274,267.274 149.406 C 269.522 148.838,269.789 148.841,270.176 149.432 M258.147 152.906 C 258.960 153.068,258.879 153.383,257.289 156.250 C 256.612 157.471,255.943 158.742,255.803 159.074 L 255.549 159.679 254.982 159.305 C 254.670 159.099,253.987 158.621,253.464 158.243 C 252.940 157.865,252.271 157.508,251.976 157.449 C 251.298 157.313,251.304 157.155,252.032 156.020 C 253.450 153.810,256.050 152.486,258.147 152.906 M274.290 156.262 C 275.531 157.026,278.189 158.243,279.511 158.653 C 280.144 158.849,280.614 159.106,280.614 159.256 C 280.614 159.759,279.828 161.049,278.984 161.930 L 278.131 162.821 276.916 162.707 C 275.459 162.571,273.527 161.898,272.052 161.013 C 270.340 159.986,270.310 159.875,271.199 157.869 C 272.386 155.189,272.473 155.144,274.290 156.262 " stroke="none" fill-rule="evenodd"></path><path id="path1" d="M211.323 72.937 C 209.373 73.478,209.247 73.850,210.310 75.932 C 211.598 78.456,212.245 78.837,213.838 78.014 C 216.720 76.523,214.507 72.053,211.323 72.937 M218.181 75.192 C 218.067 77.543,217.785 78.663,217.062 79.642 C 216.650 80.199,216.643 80.274,216.875 81.834 C 217.401 85.365,215.992 87.750,212.369 89.463 C 210.368 90.410,210.211 90.602,209.985 92.384 C 209.655 94.987,208.644 96.227,206.076 97.177 C 204.454 97.777,204.404 97.848,204.322 99.697 C 204.239 101.557,203.138 103.199,201.355 104.121 C 200.655 104.483,200.623 104.658,201.200 104.959 C 202.246 105.505,210.695 105.839,210.512 105.326 C 210.465 105.194,210.183 104.411,209.885 103.585 L 209.343 102.084 209.645 100.706 C 210.203 98.151,210.698 97.133,212.010 95.843 C 213.387 94.488,213.528 94.262,213.702 93.122 C 214.083 90.633,216.339 88.415,219.268 87.650 C 220.725 87.269,221.038 86.953,221.501 85.398 C 222.238 82.923,223.843 81.340,226.164 80.798 C 227.364 80.518,227.745 80.213,228.042 79.295 C 228.408 78.163,229.097 76.904,229.831 76.026 C 230.655 75.040,230.767 74.150,230.086 74.000 C 227.807 73.498,222.593 72.941,220.134 72.939 L 218.291 72.937 218.181 75.192 M199.136 74.310 C 194.005 75.467,190.262 76.565,184.981 78.462 L 182.534 79.341 182.534 81.783 L 182.534 84.225 183.185 85.004 C 184.941 87.106,184.779 92.362,182.904 94.159 C 182.170 94.862,182.172 95.543,182.910 96.250 C 184.324 97.605,184.741 99.834,184.090 102.558 C 183.867 103.490,183.685 104.289,183.685 104.334 C 183.685 104.378,184.472 104.415,185.433 104.415 C 187.024 104.415,187.168 104.384,187.040 104.079 C 185.501 100.413,185.730 98.289,188.025 94.953 C 188.556 94.181,188.676 93.825,188.678 93.021 C 188.685 90.664,189.596 88.422,191.006 87.292 C 193.552 85.252,193.700 85.008,194.047 82.267 C 194.447 79.114,196.736 76.711,199.045 77.020 C 199.450 77.075,199.865 77.025,199.982 76.908 C 200.215 76.676,200.276 74.074,200.048 74.113 C 199.969 74.126,199.559 74.215,199.136 74.310 M204.319 74.890 C 204.107 75.008,203.895 75.138,203.847 75.180 C 203.710 75.298,203.318 79.138,203.407 79.487 C 203.662 80.480,206.368 80.378,207.524 79.332 C 208.820 78.159,205.845 74.037,204.319 74.890 M238.340 76.693 C 237.654 77.065,237.648 77.811,238.316 79.367 C 238.588 80.000,238.953 80.972,239.127 81.526 C 239.500 82.714,239.553 82.725,240.746 81.850 C 243.926 79.518,241.745 74.846,238.340 76.693 M232.626 77.687 C 231.579 78.875,231.057 79.918,231.131 80.676 C 231.196 81.348,231.841 81.564,234.699 81.873 L 235.905 82.004 235.485 80.973 C 235.254 80.406,234.883 79.338,234.660 78.599 C 234.000 76.402,233.827 76.325,232.626 77.687 M245.604 78.941 C 245.437 79.203,245.336 79.870,245.339 80.680 C 245.344 81.736,245.266 82.094,244.939 82.504 C 244.044 83.625,243.886 84.120,243.849 85.917 C 243.788 88.827,242.132 91.014,238.842 92.526 C 236.754 93.486,236.567 93.782,236.555 96.153 C 236.539 99.032,235.675 100.105,232.529 101.153 C 230.467 101.840,230.205 102.072,229.946 103.436 C 229.557 105.485,228.602 107.069,227.154 108.065 C 225.806 108.992,225.937 109.330,228.071 110.424 C 230.576 111.709,231.286 111.622,231.286 110.032 C 231.286 106.240,234.435 102.426,237.980 101.923 C 240.103 101.622,240.464 101.399,241.882 99.520 C 243.042 97.983,244.275 96.873,245.520 96.243 C 246.146 95.926,247.367 94.924,248.656 93.670 C 250.300 92.072,250.981 91.542,251.727 91.279 C 252.255 91.094,252.875 90.869,253.105 90.779 C 253.335 90.689,253.865 90.158,254.281 89.598 C 255.313 88.212,255.770 87.821,257.035 87.242 C 258.175 86.720,258.648 86.316,258.464 86.019 C 257.835 85.001,252.285 81.450,248.656 79.743 C 245.839 78.419,245.922 78.440,245.604 78.941 M198.027 80.791 C 196.777 82.276,196.633 87.969,197.833 88.430 C 198.409 88.651,201.993 88.094,203.019 87.624 L 204.042 87.156 203.386 86.237 C 203.026 85.731,202.330 84.516,201.841 83.538 C 200.272 80.397,199.080 79.539,198.027 80.791 M175.792 81.466 C 174.158 82.576,174.160 83.722,175.797 85.283 C 177.570 86.974,178.819 86.687,179.096 84.524 C 179.176 83.904,179.301 83.003,179.373 82.521 C 179.610 80.945,177.481 80.318,175.792 81.466 M210.792 81.859 C 210.130 82.007,208.687 82.445,207.585 82.834 L 205.582 83.540 205.939 84.236 C 206.135 84.619,206.564 85.269,206.891 85.679 C 207.218 86.089,207.486 86.529,207.486 86.657 C 207.486 87.731,208.765 87.663,211.132 86.465 C 213.002 85.519,213.497 84.908,213.591 83.434 C 213.701 81.694,213.086 81.348,210.792 81.859 M225.879 84.263 C 225.006 84.786,224.713 85.715,224.855 87.509 L 224.989 89.207 226.057 89.730 C 227.200 90.290,229.197 91.021,229.300 90.917 C 229.463 90.755,228.354 85.261,228.055 84.748 C 227.689 84.118,226.546 83.863,225.879 84.263 M231.731 85.146 C 231.666 85.316,231.752 86.201,231.922 87.113 C 232.092 88.025,232.288 89.480,232.358 90.347 L 232.486 91.922 233.181 91.570 C 233.564 91.376,234.176 91.153,234.541 91.074 C 236.826 90.580,240.499 87.922,240.499 86.763 C 240.499 85.834,232.064 84.278,231.731 85.146 M177.624 89.911 C 171.681 92.397,171.631 92.470,174.213 94.892 C 176.518 97.054,176.600 97.072,177.333 95.538 C 177.596 94.988,178.323 94.112,179.165 93.331 C 180.697 91.909,180.896 91.617,181.171 90.392 C 181.365 89.530,181.221 88.994,180.748 88.813 C 180.604 88.758,179.198 89.252,177.624 89.911 M193.280 89.570 C 192.381 90.327,192.131 91.089,192.131 93.072 C 192.131 95.923,192.512 96.378,194.487 95.879 C 197.046 95.232,197.157 94.779,195.540 91.570 C 194.184 88.881,194.143 88.844,193.280 89.570 M167.083 89.997 C 166.119 90.739,164.491 92.531,164.491 92.849 C 164.491 92.943,164.825 93.207,165.232 93.436 C 168.003 94.993,168.574 97.022,168.089 103.599 L 167.944 105.566 168.591 105.566 C 169.265 105.566,171.218 105.238,171.354 105.101 C 171.534 104.921,170.745 101.751,170.303 100.877 C 169.423 99.138,169.258 98.408,169.088 95.494 C 168.930 92.776,168.941 92.598,169.297 92.219 C 169.848 91.632,169.761 91.054,168.979 90.099 C 168.144 89.080,168.264 89.087,167.083 89.997 M258.116 90.388 C 256.531 91.393,256.197 92.250,256.396 94.806 C 256.589 97.291,256.724 97.516,258.103 97.648 C 259.348 97.768,259.516 97.529,259.718 95.342 C 259.808 94.368,260.028 92.865,260.207 92.002 C 260.682 89.718,260.001 89.192,258.116 90.388 M204.415 90.620 C 203.834 90.830,202.711 91.119,201.919 91.263 C 199.336 91.731,199.124 91.919,199.732 93.202 C 200.101 93.979,200.774 94.229,202.902 94.378 C 205.440 94.556,206.718 93.748,206.718 91.967 C 206.718 90.271,206.208 89.973,204.415 90.620 M218.988 91.139 C 215.873 93.114,216.308 95.877,219.885 96.845 C 221.127 97.182,221.170 97.181,221.426 96.832 C 221.776 96.353,221.804 91.171,221.459 90.825 C 221.049 90.416,219.897 90.562,218.988 91.139 M263.955 92.516 C 263.221 92.823,262.015 98.389,262.442 99.500 C 262.869 100.614,265.476 100.641,266.573 99.543 L 267.274 98.841 267.274 96.685 C 267.274 93.512,265.851 91.724,263.955 92.516 M225.113 93.618 C 224.902 95.119,225.180 97.519,225.596 97.792 C 228.564 99.734,235.286 97.840,233.118 95.673 C 232.785 95.339,232.434 95.201,231.919 95.199 C 230.827 95.196,229.403 94.762,227.590 93.881 C 225.638 92.932,225.216 92.887,225.113 93.618 M252.111 94.793 C 251.031 95.464,250.625 96.100,250.168 97.838 C 249.101 101.896,249.438 103.044,251.882 103.683 C 253.132 104.010,253.161 103.937,253.164 100.467 C 253.166 98.877,253.259 97.078,253.371 96.470 C 253.685 94.771,253.196 94.119,252.111 94.793 M162.222 96.204 C 162.098 96.328,161.996 96.525,161.996 96.641 C 161.996 96.756,161.644 97.193,161.213 97.610 C 159.326 99.437,159.490 99.781,162.795 100.929 C 165.385 101.829,165.259 101.894,165.259 99.645 C 165.259 97.951,164.883 97.024,163.990 96.520 C 163.193 96.070,162.483 95.943,162.222 96.204 M197.778 98.278 C 194.479 98.932,193.729 99.447,194.534 100.502 C 195.965 102.379,201.152 101.751,201.152 99.701 C 201.152 99.296,199.084 97.980,198.638 98.102 C 198.595 98.113,198.209 98.192,197.778 98.278 M179.544 98.831 C 179.262 99.147,178.532 99.578,177.863 99.823 C 175.106 100.831,173.959 101.595,174.176 102.277 C 174.692 103.902,179.926 103.557,180.995 101.828 C 182.071 100.088,180.787 97.436,179.544 98.831 M217.083 99.747 C 217.083 100.313,217.619 102.237,218.067 103.278 C 219.848 107.418,226.871 106.781,226.871 102.479 C 226.871 101.485,226.863 101.482,222.059 100.508 C 219.677 100.025,217.582 99.575,217.405 99.507 C 217.173 99.418,217.083 99.485,217.083 99.747 M244.929 100.957 C 242.571 103.475,242.349 106.054,244.384 107.295 C 245.208 107.797,245.369 107.713,245.521 106.702 C 245.592 106.236,245.786 105.087,245.953 104.150 C 246.615 100.441,246.308 99.485,244.929 100.957 M269.715 101.041 C 268.762 101.903,268.616 102.444,268.991 103.734 C 269.798 106.510,266.909 110.129,263.858 110.164 C 262.762 110.177,262.092 110.613,261.717 111.557 C 260.970 113.436,258.804 114.710,255.758 115.061 C 254.238 115.237,253.930 115.465,253.189 116.972 C 252.474 118.423,251.285 119.284,249.713 119.489 C 247.342 119.798,247.026 119.927,245.721 121.123 C 242.955 123.657,238.144 125.017,235.509 124.012 C 233.549 123.264,233.434 123.366,234.017 125.336 C 234.127 125.705,234.259 128.124,234.311 130.710 L 234.407 135.413 234.738 134.451 C 236.033 130.697,237.954 129.287,242.155 129.005 C 244.808 128.827,245.762 128.403,246.981 126.862 C 247.436 126.287,248.062 125.501,248.370 125.116 C 249.298 123.961,250.638 123.418,252.581 123.410 C 254.555 123.402,254.640 123.359,256.721 121.335 C 258.710 119.401,259.490 119.012,261.384 119.006 L 262.787 119.002 263.783 118.068 C 267.899 114.212,270.469 113.654,274.080 115.835 C 276.412 117.243,279.555 117.037,278.231 115.562 C 278.081 115.395,277.509 114.223,276.959 112.956 C 275.747 110.162,274.892 108.459,272.399 103.867 L 270.486 100.345 269.715 101.041 M256.430 102.938 C 256.430 105.638,256.413 105.601,258.061 106.583 C 259.397 107.378,259.593 107.411,261.900 107.221 C 265.524 106.922,267.039 105.212,264.635 104.133 C 264.081 103.884,262.082 102.981,260.192 102.128 C 258.303 101.274,256.683 100.576,256.593 100.576 C 256.504 100.576,256.430 101.639,256.430 102.938 M154.090 106.385 C 150.673 112.020,148.782 118.474,150.086 120.046 C 150.392 120.414,150.689 120.011,153.118 115.931 C 154.828 113.058,156.358 110.858,157.788 109.215 C 158.970 107.856,158.979 107.932,157.489 106.838 C 156.805 106.336,156.002 105.630,155.705 105.269 L 155.164 104.613 154.090 106.385 M236.811 105.743 C 235.375 106.654,234.518 108.581,234.703 110.483 C 234.773 111.202,237.579 112.717,238.161 112.350 C 238.470 112.155,240.082 106.995,240.103 106.132 C 240.131 104.995,238.326 104.782,236.811 105.743 M249.092 106.574 C 247.871 107.521,248.280 110.488,249.736 111.241 C 252.482 112.661,259.752 111.822,258.136 110.272 C 257.643 109.799,252.124 107.140,250.796 106.735 C 249.239 106.261,249.468 106.282,249.092 106.574 M241.992 111.468 C 241.770 111.970,241.548 112.785,241.500 113.281 L 241.412 114.181 242.779 115.066 C 244.809 116.379,245.609 116.691,246.929 116.686 C 249.560 116.676,251.164 115.703,249.856 114.910 C 249.619 114.766,248.820 114.288,248.081 113.848 C 247.342 113.408,245.933 112.487,244.950 111.802 C 242.774 110.286,242.529 110.258,241.992 111.468 M234.809 115.617 C 234.959 116.891,235.818 119.907,236.196 120.489 C 236.806 121.426,240.873 120.947,242.226 119.779 L 242.898 119.199 242.381 118.734 C 241.707 118.130,238.951 116.581,236.573 115.470 L 234.688 114.589 234.809 115.617 M268.714 118.361 C 266.186 119.845,264.957 121.771,265.790 122.943 C 266.153 123.454,269.603 125.663,269.772 125.493 C 269.970 125.296,271.441 118.422,271.341 118.163 C 271.146 117.655,269.735 117.762,268.714 118.361 M275.720 120.140 C 274.268 120.278,274.087 120.592,273.499 123.992 C 273.270 125.312,273.007 126.537,272.914 126.715 C 272.491 127.522,272.838 127.961,274.843 129.155 C 275.536 129.568,276.313 130.130,276.569 130.404 C 277.775 131.695,280.472 129.744,281.290 126.989 C 281.854 125.091,281.539 124.023,279.883 122.204 C 278.007 120.145,277.634 119.959,275.720 120.140 M259.360 123.273 C 257.003 125.657,256.849 128.101,258.977 129.359 L 259.701 129.787 260.264 128.545 C 262.735 123.094,262.263 120.336,259.360 123.273 M250.341 128.090 C 247.757 130.810,247.113 133.351,248.583 135.025 C 249.783 136.392,249.927 136.261,251.956 131.958 C 254.374 126.831,254.392 126.679,252.592 126.679 C 251.709 126.679,251.639 126.723,250.341 128.090 M264.399 126.865 C 264.124 127.310,262.903 130.669,262.820 131.208 C 262.694 132.027,263.607 132.777,266.847 134.518 C 268.243 135.268,269.774 136.143,270.250 136.462 C 271.399 137.234,271.539 137.210,272.693 136.036 C 274.327 134.374,274.646 131.862,273.223 131.862 C 272.925 131.862,268.641 129.108,267.036 127.885 C 265.535 126.741,264.680 126.410,264.399 126.865 M255.478 132.090 C 255.262 132.321,255.086 132.594,255.086 132.697 C 255.086 132.800,254.559 133.961,253.915 135.277 C 252.490 138.185,252.478 138.129,254.929 139.649 C 260.206 142.919,263.939 143.437,266.332 141.231 C 268.167 139.539,267.985 138.702,265.507 137.450 C 264.474 136.927,263.066 136.107,262.380 135.627 C 256.468 131.492,256.175 131.342,255.478 132.090 M240.534 132.419 C 237.140 133.591,236.750 137.280,239.633 140.931 C 241.233 142.957,241.581 142.620,242.964 137.705 C 244.251 133.131,244.363 132.603,244.111 132.300 C 243.809 131.936,241.733 132.005,240.534 132.419 M280.038 133.194 C 279.352 133.615,278.689 133.963,278.566 133.966 C 278.071 133.981,277.127 135.034,276.445 136.331 C 275.580 137.978,274.089 139.500,272.724 140.131 C 270.504 141.158,270.140 141.390,269.737 142.035 C 268.137 144.594,265.214 145.914,261.324 145.834 C 259.557 145.797,258.649 146.118,256.972 147.370 C 253.046 150.302,245.542 149.878,242.142 146.532 C 240.048 144.471,239.771 145.306,241.429 148.678 C 242.046 149.933,242.661 151.305,242.796 151.727 C 243.155 152.855,243.202 152.865,244.645 152.115 C 246.427 151.189,247.518 151.078,249.384 151.632 C 251.047 152.126,251.463 152.072,252.511 151.226 C 253.931 150.082,254.741 149.841,257.582 149.719 L 260.173 149.607 261.420 148.672 C 263.666 146.990,265.871 146.208,269.098 145.951 C 271.020 145.797,271.395 145.628,272.588 144.376 C 274.170 142.715,276.810 141.930,278.271 142.686 C 279.008 143.067,280.270 143.078,281.286 142.712 C 281.708 142.560,282.334 142.431,282.678 142.427 C 283.416 142.417,283.384 142.736,283.096 138.236 C 282.699 132.034,282.491 131.690,280.038 133.194 M246.094 138.340 C 245.937 138.638,244.920 142.184,244.659 143.343 C 244.254 145.143,245.995 145.861,250.787 145.869 C 253.971 145.874,254.599 145.681,255.264 144.496 C 255.634 143.836,255.484 143.662,253.595 142.560 C 252.779 142.084,250.945 140.865,249.520 139.850 C 246.864 137.960,246.401 137.756,246.094 138.340 M281.616 146.001 C 280.667 146.468,280.352 147.051,279.188 150.492 C 277.744 154.757,277.782 155.086,279.709 155.086 C 281.551 155.086,284.498 151.875,284.771 149.572 C 285.094 146.842,283.521 145.062,281.616 146.001 M275.238 146.305 C 273.995 147.151,273.532 148.606,273.484 151.813 C 273.470 152.727,274.467 153.070,274.958 152.320 C 275.439 151.587,277.162 146.487,277.038 146.165 C 276.874 145.738,275.968 145.808,275.238 146.305 M267.274 149.406 C 263.831 150.274,263.188 150.723,262.506 152.731 C 261.872 154.595,261.873 154.702,262.525 154.702 C 262.830 154.702,263.943 155.228,265.164 155.948 C 267.807 157.509,268.272 157.509,268.621 155.950 C 268.692 155.633,268.953 154.813,269.201 154.127 C 271.053 149.011,270.846 148.504,267.274 149.406 M256.187 152.992 C 253.619 153.597,250.297 157.113,251.976 157.449 C 252.271 157.508,252.940 157.865,253.464 158.243 C 253.987 158.621,254.670 159.099,254.982 159.305 L 255.549 159.679 255.803 159.074 C 255.943 158.742,256.612 157.471,257.289 156.250 C 258.879 153.383,258.960 153.068,258.147 152.906 C 257.408 152.758,257.128 152.770,256.187 152.992 M272.260 155.807 C 271.497 156.699,270.432 159.554,270.708 159.969 C 271.390 160.993,274.835 162.513,276.916 162.707 L 278.131 162.821 278.984 161.930 C 279.828 161.049,280.614 159.759,280.614 159.256 C 280.614 159.106,280.144 158.849,279.511 158.653 C 278.189 158.243,275.531 157.026,274.290 156.262 C 272.996 155.466,272.624 155.383,272.260 155.807 M272.169 165.284 C 272.169 165.404,272.439 166.287,272.768 167.247 C 273.701 169.964,273.177 172.998,270.709 179.168 C 267.046 188.325,264.520 192.270,260.252 195.502 C 257.817 197.346,257.846 197.126,259.585 200.564 C 260.383 202.143,261.036 203.612,261.036 203.829 C 261.036 204.337,261.992 204.377,262.425 203.887 C 263.288 202.911,270.852 186.071,274.129 177.831 C 275.179 175.192,276.648 171.585,277.394 169.816 C 278.944 166.143,278.934 165.838,277.274 165.832 C 276.841 165.830,275.675 165.658,274.683 165.448 C 272.609 165.010,272.169 164.982,272.169 165.284 " stroke="none" fill="currentColor" fill-rule="evenodd"></path></g></svg>