<svg id="svg" version="1.1" xmlns="http://www.w3.org/2000/svg" xmlns:xlink="http://www.w3.org/1999/xlink" viewBox="0, 0, 400,400"><g id="svgg"><path id="path0" d="M204.169 67.086 C 200.839 67.921,197.758 69.999,195.255 73.098 C 194.090 74.542,193.728 74.873,193.401 74.800 C 193.177 74.750,192.131 74.462,191.075 74.161 C 182.605 71.746,172.217 75.872,168.905 82.965 C 168.395 84.059,168.381 84.061,165.786 83.304 C 149.107 78.443,134.424 91.213,137.542 107.869 C 138.037 110.512,137.894 111.032,136.152 112.920 C 130.604 118.934,129.450 126.644,132.340 138.388 C 134.050 145.335,134.075 145.172,131.301 145.267 C 129.249 145.338,128.731 145.183,126.583 143.858 C 125.614 143.260,125.245 143.259,124.651 143.854 C 123.025 145.480,127.140 149.390,132.438 151.253 C 134.323 151.916,134.316 151.888,133.055 153.654 C 127.258 161.763,127.790 170.586,134.339 174.940 C 136.486 176.367,136.531 175.855,133.937 179.518 C 131.953 182.319,132.083 186.969,134.189 188.533 C 135.031 189.158,135.376 188.791,135.664 186.960 C 135.993 184.864,135.966 184.911,137.408 183.979 C 138.105 183.528,139.060 182.851,139.531 182.474 L 140.386 181.789 141.063 182.593 C 143.473 185.455,144.338 185.209,144.338 181.663 C 144.338 180.269,144.476 178.763,144.719 177.509 C 145.142 175.329,145.176 175.435,143.902 174.966 C 139.923 173.502,136.712 168.884,137.427 165.658 C 137.642 164.688,137.800 164.461,139.109 163.244 C 145.057 157.712,145.690 155.877,143.753 149.783 C 142.264 145.097,142.011 143.124,142.493 139.963 C 144.224 128.622,152.494 124.247,164.923 128.096 C 165.741 128.350,166.411 128.534,166.411 128.506 C 166.411 128.478,166.198 128.075,165.938 127.610 C 163.738 123.674,163.299 118.622,164.824 114.789 C 168.306 106.032,181.761 100.067,191.919 102.775 C 194.227 103.390,193.847 103.612,189.893 103.956 C 181.302 104.703,176.034 106.849,171.647 111.386 C 167.340 115.841,166.197 118.932,166.986 123.992 C 167.341 126.266,167.363 126.791,167.170 128.279 C 166.615 132.556,168.096 137.628,170.935 141.173 C 173.975 144.968,174.145 148.210,171.571 153.291 C 170.276 155.845,170.191 156.504,171.128 156.739 C 172.746 157.145,174.394 156.302,177.153 153.657 C 178.371 152.490,180.015 151.012,180.806 150.373 C 186.591 145.702,188.389 141.537,187.883 133.973 C 187.508 128.360,187.531 125.596,187.961 124.808 C 188.438 123.935,188.988 123.976,189.238 124.904 C 189.344 125.300,189.568 126.142,189.735 126.775 C 190.189 128.500,191.248 131.185,192.952 134.933 C 193.792 136.780,194.858 139.285,195.321 140.499 C 196.328 143.136,196.906 143.625,198.360 143.067 C 199.243 142.728,199.502 140.344,198.912 138.004 C 198.161 135.031,198.464 132.560,200.351 126.296 C 200.875 124.554,201.452 122.394,201.632 121.497 C 202.534 117.006,206.666 107.723,207.990 107.215 C 208.993 106.830,213.003 110.634,214.170 113.077 C 215.840 116.574,215.778 118.690,213.787 126.296 C 211.231 136.057,211.304 142.039,214.032 146.289 C 216.101 149.513,224.104 154.004,230.951 155.783 C 236.503 157.226,238.130 155.951,235.641 152.108 C 233.245 148.409,232.817 142.565,234.690 139.110 C 235.175 138.216,235.180 138.171,234.951 136.518 C 234.504 133.288,232.381 123.582,231.549 120.964 C 231.368 120.396,232.967 122.282,234.171 124.056 C 237.468 128.915,239.208 135.024,239.456 142.610 C 239.707 150.277,239.577 151.414,237.934 155.945 C 237.667 156.681,237.319 157.379,237.160 157.495 C 237.001 157.611,236.465 158.261,235.970 158.940 C 235.474 159.618,234.133 161.348,232.989 162.785 C 228.432 168.510,227.026 171.919,227.022 177.255 C 227.019 180.659,227.281 181.560,229.876 187.081 C 230.515 188.441,233.049 190.832,233.763 190.749 C 234.440 190.670,234.503 190.040,233.949 188.903 C 233.559 188.101,233.511 187.713,233.502 185.317 C 233.489 181.278,234.017 180.481,238.837 177.272 C 241.579 175.447,248.726 169.976,249.357 169.219 C 249.545 168.994,249.844 168.508,250.022 168.138 C 251.658 164.736,255.712 161.106,258.925 160.167 C 259.631 159.961,262.415 157.559,263.221 156.462 C 265.632 153.176,264.772 151.579,259.693 149.916 C 254.503 148.215,253.114 146.633,254.023 143.454 C 254.839 140.598,258.826 135.900,261.816 134.273 C 262.961 133.650,263.136 133.856,262.574 135.163 C 261.991 136.517,261.882 137.897,262.256 139.183 C 262.546 140.181,263.067 140.957,265.266 143.666 C 269.049 148.326,269.544 154.938,266.408 158.906 C 265.969 159.461,265.639 159.938,265.674 159.965 C 265.710 159.992,266.121 160.163,266.588 160.345 C 273.195 162.920,275.130 169.778,271.685 178.419 C 267.787 188.199,264.554 193.114,259.885 196.361 C 258.362 197.420,258.302 197.686,259.215 199.319 C 261.140 202.761,261.285 204.037,260.383 209.544 C 259.163 216.995,259.235 218.431,260.860 219.082 C 263.857 220.281,266.097 218.125,264.654 215.430 C 263.997 214.204,263.148 211.396,263.148 210.452 C 263.148 209.684,263.789 209.090,266.614 207.243 C 271.644 203.954,273.035 201.317,273.318 194.530 C 273.571 188.459,275.223 185.036,281.471 177.639 C 289.469 168.170,290.582 159.873,285.137 150.310 C 283.417 147.290,283.452 146.700,285.598 142.384 C 288.647 136.255,289.225 133.010,288.188 127.855 C 286.834 121.124,284.230 116.001,279.307 110.380 L 277.555 108.380 279.342 107.678 C 285.009 105.449,288.679 100.601,286.468 98.266 C 285.670 97.423,285.654 97.418,279.367 96.139 C 278.839 96.032,276.939 95.872,275.144 95.784 C 268.627 95.464,266.492 93.971,256.957 83.067 C 250.441 75.615,247.903 74.566,234.549 73.800 C 230.525 73.570,229.336 73.434,227.865 73.036 C 225.781 72.473,224.793 72.434,223.531 72.864 C 222.271 73.293,221.084 73.131,220.084 72.392 C 213.507 67.534,208.733 65.942,204.169 67.086 M191.589 111.660 C 188.717 114.992,187.717 118.741,188.556 123.028 C 188.794 124.243,188.347 123.828,187.546 122.092 C 185.988 118.712,186.525 115.270,189.007 112.722 C 191.050 110.624,193.269 109.712,191.589 111.660 " stroke="none" fill-rule="evenodd"></path><path id="path1" d="M183.629 102.336 C 168.650 103.875,159.766 116.567,165.938 127.610 C 166.198 128.075,166.411 128.478,166.411 128.506 C 166.411 128.534,165.741 128.350,164.923 128.096 C 152.494 124.247,144.224 128.622,142.493 139.963 C 142.011 143.124,142.264 145.097,143.753 149.783 C 145.690 155.877,145.057 157.712,139.109 163.244 C 135.747 166.371,137.676 171.959,143.003 174.526 C 145.228 175.598,145.174 175.600,145.547 174.417 C 145.724 173.857,146.268 172.583,146.756 171.585 L 147.644 169.770 147.479 168.042 C 147.388 167.092,147.313 164.544,147.313 162.380 C 147.313 160.216,147.237 158.273,147.144 158.061 C 147.051 157.850,146.647 156.987,146.246 156.142 C 145.254 154.049,144.905 152.553,144.724 149.616 C 144.636 148.179,144.440 146.765,144.263 146.281 C 143.956 145.446,143.957 145.434,144.609 143.978 C 144.969 143.173,145.354 141.915,145.465 141.182 C 145.730 139.435,146.008 139.185,148.848 138.130 C 155.094 135.810,159.133 133.777,164.040 130.482 C 165.505 129.498,166.680 128.833,166.843 128.895 C 167.365 129.095,167.428 126.831,166.980 123.957 C 166.198 118.935,167.350 115.830,171.647 111.386 C 176.034 106.849,181.302 104.703,189.893 103.956 C 193.188 103.669,193.505 103.601,193.153 103.249 C 192.337 102.433,187.343 101.955,183.629 102.336 M190.899 111.142 C 186.965 113.637,185.641 117.959,187.546 122.092 C 188.347 123.828,188.794 124.243,188.556 123.028 C 187.717 118.741,188.717 114.992,191.589 111.660 C 192.700 110.372,192.431 110.170,190.899 111.142 M231.549 120.964 C 232.376 123.565,234.495 133.254,234.941 136.468 C 235.157 138.032,238.705 144.249,239.421 144.321 C 239.609 144.340,239.445 140.800,239.138 138.196 C 238.509 132.861,236.753 127.862,234.171 124.056 C 232.967 122.282,231.368 120.396,231.549 120.964 M261.705 134.342 C 258.645 136.099,254.832 140.621,254.023 143.454 C 253.114 146.633,254.503 148.215,259.693 149.916 C 265.848 151.932,266.061 154.503,260.461 159.199 C 259.986 159.597,259.770 159.863,259.981 159.789 C 260.751 159.521,263.465 159.455,264.499 159.680 L 265.547 159.907 266.190 159.176 C 269.547 155.360,269.135 148.431,265.266 143.666 C 261.794 139.389,261.355 137.995,262.583 135.141 C 263.143 133.841,262.924 133.643,261.705 134.342 M237.351 156.833 C 237.162 157.154,237.052 157.461,237.107 157.517 C 237.163 157.572,237.350 157.342,237.524 157.006 C 237.935 156.211,237.799 156.075,237.351 156.833 " stroke="none" fill="currentColor" fill-rule="evenodd"></path></g></svg>