<svg id="svg" version="1.1" xmlns="http://www.w3.org/2000/svg" xmlns:xlink="http://www.w3.org/1999/xlink" viewBox="0, 0, 400,400"><g id="svgg"><path id="path0" d="M191.702 71.792 C 182.875 72.530,176.164 75.993,170.982 82.486 C 169.881 83.865,169.659 83.921,168.096 83.205 C 165.708 82.112,164.373 81.902,159.693 81.881 L 155.374 81.862 153.551 82.498 C 143.492 86.007,137.620 94.737,137.620 106.183 C 137.620 107.809,137.527 107.988,135.760 109.789 C 130.558 115.089,128.332 121.276,128.737 129.307 L 128.915 132.836 129.799 134.604 C 131.281 137.571,131.503 140.953,130.304 142.319 C 129.396 143.352,128.723 143.481,126.276 143.087 C 123.507 142.642,121.651 142.755,120.481 143.441 C 117.799 145.012,115.901 149.300,115.085 155.632 C 114.673 158.828,114.701 158.929,115.413 156.801 C 117.460 150.682,122.286 147.612,128.215 148.656 C 130.571 149.071,132.864 148.931,134.597 148.265 C 135.068 148.083,135.016 148.385,134.424 149.253 C 134.145 149.664,133.424 151.339,132.822 152.975 C 132.221 154.611,131.552 156.296,131.337 156.718 C 128.738 161.812,127.498 171.875,128.897 176.524 C 130.647 182.346,132.964 185.174,139.576 189.559 C 141.549 190.868,143.217 192.025,143.282 192.130 C 143.941 193.196,144.409 191.869,144.147 189.679 C 143.821 186.947,143.840 186.995,142.981 186.850 C 141.496 186.599,136.729 183.440,134.246 181.061 C 129.672 176.679,129.524 170.618,133.801 162.956 C 134.420 161.847,135.325 159.947,135.812 158.733 C 136.800 156.271,136.789 156.290,137.035 156.539 C 137.143 156.648,137.135 157.078,137.014 157.640 C 136.865 158.336,136.892 159.150,137.122 160.947 C 137.290 162.258,137.428 163.799,137.428 164.371 C 137.428 166.047,139.059 168.743,141.836 171.658 C 144.801 174.770,145.000 174.804,145.764 172.328 L 146.206 170.894 145.566 170.455 C 144.398 169.655,141.786 166.091,141.448 164.837 C 140.921 162.877,143.234 153.935,144.268 153.935 C 144.503 153.935,144.547 153.812,144.455 153.407 C 144.389 153.117,144.252 151.756,144.150 150.384 C 144.048 149.012,143.876 147.423,143.767 146.855 C 143.659 146.286,143.570 145.401,143.570 144.887 C 143.570 143.290,142.909 143.671,141.122 146.300 C 139.648 148.469,138.855 149.952,138.196 151.772 C 137.420 153.914,137.293 153.722,137.182 150.245 C 137.086 147.239,137.053 147.033,136.310 144.793 C 133.777 137.155,133.409 129.964,135.358 126.219 C 136.478 124.067,142.181 119.002,143.483 119.002 C 143.766 119.002,144.802 119.755,146.379 121.106 L 148.835 123.210 149.612 121.730 C 150.040 120.916,150.858 119.560,151.431 118.716 C 152.004 117.873,153.220 115.889,154.134 114.308 L 155.795 111.433 154.930 110.861 C 150.088 107.653,149.738 102.059,154.109 97.707 C 157.034 94.794,159.949 94.331,163.865 96.156 C 165.682 97.004,171.688 102.627,172.553 104.291 L 173.033 105.214 174.184 105.088 C 176.369 104.847,176.392 104.837,176.392 104.031 C 176.392 103.635,176.526 102.933,176.690 102.471 C 177.479 100.253,177.195 97.012,175.923 93.723 C 175.232 91.935,175.278 91.627,176.184 91.966 C 176.851 92.216,178.612 93.956,179.197 94.944 C 179.861 96.063,180.074 96.077,181.232 95.078 C 184.823 91.981,186.733 91.159,193.296 89.889 C 193.980 89.757,195.329 90.151,195.473 90.525 C 195.625 90.921,195.263 91.363,194.788 91.363 C 190.870 91.363,187.185 96.488,186.819 102.447 L 186.698 104.415 187.470 104.415 C 188.201 104.415,188.247 104.380,188.349 103.753 C 188.872 100.529,193.849 97.322,197.438 97.894 C 199.337 98.197,199.834 98.655,200.672 100.883 C 200.938 101.591,201.328 102.447,201.538 102.787 C 201.988 103.516,202.038 104.653,201.633 104.989 C 201.384 105.196,201.407 105.299,201.818 105.786 C 202.296 106.354,202.684 107.431,202.686 108.193 C 202.688 109.100,204.063 115.224,204.623 116.826 C 206.798 123.035,214.178 130.783,218.849 131.761 C 219.519 131.901,221.188 132.448,222.557 132.978 C 227.485 134.881,236.708 136.878,243.090 137.424 C 244.357 137.532,245.635 137.671,245.929 137.733 C 246.475 137.848,247.026 137.562,247.023 137.165 C 247.021 136.889,245.006 135.585,244.135 135.295 C 242.822 134.857,242.857 135.037,242.829 128.690 C 242.826 128.054,242.684 125.528,242.513 123.076 C 242.343 120.625,242.254 118.537,242.315 118.437 C 242.525 118.099,242.025 113.971,241.433 111.154 C 239.925 103.974,236.571 96.370,233.121 92.310 C 230.169 88.836,223.291 85.063,219.578 84.882 C 217.033 84.757,216.291 84.314,217.935 83.900 C 221.621 82.972,229.318 85.096,233.382 88.163 C 241.268 94.115,245.190 101.991,246.923 115.359 C 247.190 117.415,247.840 121.430,248.368 124.280 C 249.492 130.344,249.502 130.608,248.749 133.877 C 247.703 138.416,246.796 140.689,245.270 142.601 L 244.435 143.648 244.128 142.313 C 243.928 141.444,243.877 140.783,243.980 140.418 C 244.296 139.296,243.682 139.082,238.964 138.670 C 237.116 138.509,234.439 138.207,233.013 137.999 C 231.588 137.792,230.007 137.622,229.499 137.621 C 228.992 137.620,227.970 137.526,227.229 137.411 C 225.480 137.140,225.492 136.980,227.025 140.078 C 228.935 143.940,229.271 145.259,229.259 148.848 C 229.246 152.547,228.261 155.854,227.172 155.854 C 227.012 155.854,226.957 156.022,227.015 156.329 C 227.072 156.625,226.921 157.119,226.613 157.644 C 225.942 158.790,225.431 160.714,224.755 164.640 C 223.805 170.163,223.975 172.761,225.692 178.892 C 226.211 180.742,226.735 182.772,226.858 183.403 C 227.546 186.930,228.537 188.590,229.707 188.179 C 230.529 187.890,230.650 187.203,230.166 185.571 C 229.055 181.824,230.164 176.578,232.894 172.666 L 233.685 171.533 233.818 173.530 C 234.004 176.316,234.471 178.095,235.575 180.223 C 236.097 181.230,236.813 182.615,237.165 183.301 C 239.716 188.261,238.508 196.307,234.530 200.864 C 232.264 203.459,232.140 203.920,233.738 203.805 C 238.289 203.476,243.101 196.696,245.226 187.620 C 245.784 185.235,245.692 170.141,245.105 167.762 C 244.630 165.838,246.278 160.299,248.006 158.010 C 248.965 156.741,248.941 156.725,250.467 159.669 C 251.112 160.911,251.933 162.213,252.293 162.562 L 252.948 163.197 254.545 161.913 C 259.683 157.784,265.220 157.919,269.582 162.280 C 273.987 166.685,274.234 170.426,270.706 179.329 C 267.225 188.115,263.568 193.656,259.794 195.863 C 257.990 196.918,257.925 197.139,258.880 198.983 C 259.307 199.806,260.055 201.418,260.543 202.564 L 261.430 204.647 260.952 206.594 C 259.791 211.319,259.298 216.942,259.887 218.742 C 261.400 223.365,264.919 228.151,266.511 227.751 C 267.924 227.396,268.394 226.351,267.783 224.920 C 264.060 216.201,265.178 209.717,272.079 199.997 C 274.840 196.108,276.161 193.955,278.311 189.842 C 279.336 187.881,281.121 184.679,282.279 182.726 C 288.657 171.964,290.019 168.383,290.019 162.380 C 290.019 160.829,290.142 159.312,290.355 158.231 C 291.368 153.092,290.582 150.276,286.972 146.107 C 283.114 141.654,282.926 140.984,284.459 137.156 C 286.049 133.185,286.388 128.095,285.497 121.593 C 285.253 119.814,285.217 118.788,285.340 117.083 C 285.839 110.192,285.270 108.297,281.159 103.146 C 278.674 100.032,278.311 99.511,277.060 97.257 C 275.183 93.878,273.137 91.792,269.770 89.822 C 268.467 89.060,267.618 88.366,266.315 86.998 C 260.009 80.376,258.404 79.129,253.935 77.375 C 246.363 74.403,244.574 74.064,235.509 73.884 C 231.036 73.795,227.678 73.635,226.223 73.443 C 220.830 72.731,214.040 72.602,205.930 73.056 C 203.831 73.174,203.599 73.136,199.808 72.070 C 198.493 71.699,194.461 71.561,191.702 71.792 M272.706 106.340 C 272.742 106.903,272.447 108.458,271.866 110.754 C 271.005 114.158,270.966 114.435,270.876 117.706 C 270.800 120.470,270.731 121.113,270.511 121.113 C 268.869 121.113,269.724 109.313,271.628 105.699 C 272.000 104.992,272.642 105.374,272.706 106.340 M211.744 105.957 C 213.104 106.334,213.568 107.176,214.970 111.810 C 216.093 115.523,216.606 118.083,216.889 121.401 C 217.007 122.774,217.151 124.091,217.209 124.328 C 217.570 125.786,215.925 124.213,214.149 121.401 C 211.273 116.848,210.936 115.791,210.446 109.810 C 210.091 105.463,210.080 105.495,211.744 105.957 M146.239 205.687 C 141.878 211.591,140.573 215.155,141.469 218.714 C 141.575 219.136,141.701 219.989,141.748 220.609 C 142.024 224.250,144.338 224.509,144.338 220.899 C 144.338 219.919,144.441 219.168,144.623 218.815 C 144.935 218.212,149.054 215.265,150.944 214.292 C 151.569 213.970,152.163 213.576,152.264 213.415 C 152.427 213.156,150.628 208.710,148.718 204.655 C 148.137 203.421,147.813 203.556,146.239 205.687 " stroke="none" fill-rule="evenodd"></path><path id="path1" d="M217.802 83.916 C 216.297 84.316,217.116 84.761,219.578 84.882 C 223.291 85.063,230.169 88.836,233.121 92.310 C 236.571 96.370,239.925 103.974,241.433 111.154 C 242.025 113.971,242.525 118.099,242.315 118.437 C 242.254 118.537,242.343 120.625,242.513 123.076 C 242.684 125.528,242.826 128.054,242.829 128.690 C 242.857 135.037,242.822 134.857,244.135 135.295 C 245.006 135.585,247.021 136.889,247.023 137.165 C 247.026 137.562,246.475 137.848,245.929 137.733 C 245.635 137.671,244.357 137.532,243.090 137.424 C 236.414 136.853,227.335 134.835,221.689 132.667 C 220.581 132.241,219.336 131.831,218.923 131.754 L 218.172 131.615 218.300 134.282 C 218.735 143.373,221.104 149.838,225.868 154.930 C 227.236 156.393,227.809 156.064,228.731 153.285 C 230.006 149.445,229.422 144.924,227.025 140.078 C 225.492 136.980,225.480 137.140,227.229 137.411 C 227.970 137.526,228.992 137.620,229.499 137.621 C 230.007 137.622,231.588 137.792,233.013 137.999 C 234.439 138.207,237.116 138.509,238.964 138.670 C 243.682 139.082,244.296 139.296,243.980 140.418 C 243.877 140.783,243.928 141.444,244.128 142.313 L 244.435 143.648 245.270 142.601 C 246.796 140.689,247.703 138.416,248.749 133.877 C 249.502 130.608,249.492 130.344,248.368 124.280 C 247.840 121.430,247.190 117.415,246.923 115.359 C 245.190 101.991,241.268 94.115,233.382 88.163 C 229.294 85.078,221.464 82.944,217.802 83.916 M192.561 90.026 C 192.323 90.121,191.363 90.333,190.428 90.495 C 186.986 91.092,184.303 92.429,181.232 95.078 C 180.074 96.077,179.861 96.063,179.197 94.944 C 178.612 93.956,176.851 92.216,176.184 91.966 C 175.278 91.627,175.232 91.935,175.923 93.723 C 177.195 97.012,177.479 100.253,176.690 102.471 C 176.526 102.933,176.392 103.654,176.392 104.073 L 176.392 104.834 177.303 104.726 C 177.805 104.666,180.124 104.561,182.458 104.492 L 186.701 104.368 186.820 102.424 C 187.185 96.489,190.877 91.363,194.788 91.363 C 195.262 91.363,195.625 90.921,195.474 90.527 C 195.258 89.966,193.473 89.659,192.561 90.026 M157.643 95.382 C 152.309 97.301,149.348 104.254,152.140 108.298 C 152.732 109.155,155.328 111.324,155.761 111.324 C 155.907 111.324,156.355 110.914,156.756 110.413 C 159.665 106.777,161.218 106.155,169.146 105.451 C 171.231 105.266,172.937 105.053,172.937 104.978 C 172.937 104.556,171.192 102.341,170.113 101.393 C 169.421 100.785,168.010 99.488,166.977 98.510 C 163.808 95.509,160.431 94.378,157.643 95.382 M195.202 97.916 C 192.227 98.390,188.737 101.363,188.349 103.753 L 188.242 104.415 190.330 104.418 C 191.576 104.419,192.883 104.540,193.570 104.717 C 195.362 105.177,201.155 105.405,201.583 105.031 C 202.036 104.638,202.014 103.557,201.538 102.787 C 201.328 102.447,200.934 101.580,200.663 100.859 C 199.670 98.221,198.213 97.436,195.202 97.916 M271.628 105.699 C 269.724 109.313,268.869 121.113,270.511 121.113 C 270.731 121.113,270.800 120.470,270.876 117.706 C 270.966 114.435,271.005 114.158,271.866 110.754 C 272.869 106.787,272.956 105.514,272.230 105.411 C 271.976 105.374,271.739 105.488,271.628 105.699 M141.339 120.202 C 139.001 121.847,136.130 124.736,135.358 126.219 C 133.409 129.964,133.777 137.155,136.310 144.793 C 137.053 147.033,137.086 147.239,137.182 150.245 C 137.293 153.722,137.420 153.914,138.196 151.772 C 139.312 148.692,142.088 144.388,143.193 144.026 C 144.110 143.725,144.626 142.548,144.793 140.376 C 144.895 139.047,147.127 129.596,148.787 123.461 C 148.883 123.108,144.000 119.002,143.483 119.002 C 143.241 119.002,142.277 119.542,141.339 120.202 M143.550 154.741 C 142.548 156.706,141.116 163.303,141.392 164.684 C 141.666 166.056,145.488 170.986,146.115 170.777 C 146.703 170.581,147.017 168.246,146.625 166.985 C 146.321 166.009,146.371 163.268,146.721 161.648 C 147.305 158.950,147.140 157.740,146.012 156.442 C 145.696 156.080,145.266 155.367,145.055 154.859 C 144.562 153.673,144.113 153.638,143.550 154.741 M135.831 158.685 C 135.338 159.926,134.448 161.804,133.853 162.860 C 130.054 169.597,129.688 175.337,132.793 179.463 C 134.713 182.013,140.887 186.464,143.055 186.861 L 143.787 186.996 143.654 183.757 C 143.519 180.459,143.753 177.829,144.403 175.336 L 144.653 174.376 142.812 172.623 C 139.613 169.577,137.428 166.230,137.428 164.375 C 137.428 163.800,137.290 162.258,137.122 160.947 C 136.893 159.163,136.866 158.332,137.012 157.647 C 137.204 156.748,137.168 156.430,136.875 156.430 C 136.794 156.430,136.324 157.445,135.831 158.685 M248.022 157.990 C 246.039 160.616,244.396 166.872,245.268 168.474 C 245.933 169.696,248.316 168.831,249.590 166.905 C 249.999 166.288,250.922 165.216,251.643 164.523 L 252.953 163.262 252.205 162.451 C 251.793 162.005,251.031 160.791,250.510 159.754 C 249.990 158.718,249.395 157.661,249.188 157.406 L 248.813 156.942 248.022 157.990 " stroke="none" fill="currentColor" fill-rule="evenodd"></path></g></svg>