<svg id="svg" version="1.1" xmlns="http://www.w3.org/2000/svg" xmlns:xlink="http://www.w3.org/1999/xlink" viewBox="0, 0, 400,400"><g id="svgg"><path id="path0" d="M202.416 137.387 C 197.990 137.554,190.816 138.262,188.482 138.761 C 185.364 139.428,183.624 141.474,183.846 144.211 C 184.227 148.896,186.999 149.754,196.641 148.172 C 198.191 147.918,200.000 147.649,200.660 147.575 C 204.706 147.118,215.873 145.315,221.596 144.194 C 224.079 143.708,229.467 141.615,229.427 141.152 C 229.401 140.853,222.309 138.633,218.476 137.724 L 216.497 137.254 210.738 137.272 C 207.570 137.281,203.826 137.333,202.416 137.387 M158.848 139.841 C 158.542 139.912,151.608 140.243,148.890 140.316 C 144.700 140.430,143.928 140.844,143.499 143.208 C 142.905 146.484,143.565 148.665,145.291 149.130 C 146.132 149.357,160.897 149.227,161.687 148.986 C 164.588 148.102,165.437 146.790,164.971 143.911 C 164.507 141.047,161.702 139.183,158.848 139.841 " stroke="none" fill-rule="evenodd"></path></g></svg>