<svg id="svg" version="1.1" xmlns="http://www.w3.org/2000/svg" xmlns:xlink="http://www.w3.org/1999/xlink" viewBox="0, 0, 400,400"><g id="svgg"><path id="path0" d="M189.118 139.044 C 186.139 139.331,184.483 141.811,185.484 144.486 C 186.294 146.652,188.203 146.792,198.920 145.471 C 202.281 145.057,203.425 144.954,208.387 144.625 C 209.932 144.523,212.091 144.337,213.186 144.212 C 215.517 143.946,217.444 143.795,220.996 143.602 C 223.994 143.439,223.715 143.525,223.420 142.860 C 223.041 142.002,222.448 141.705,220.156 141.228 C 217.731 140.723,216.308 140.535,208.278 139.656 C 202.876 139.065,192.376 138.729,189.118 139.044 M153.690 140.506 C 153.195 140.564,151.575 140.827,150.090 141.090 C 148.605 141.353,146.959 141.628,146.431 141.700 C 144.143 142.012,142.611 143.905,143.131 145.778 C 143.458 146.953,144.122 147.103,147.871 146.846 C 149.058 146.765,152.783 146.665,156.149 146.624 C 163.078 146.541,162.858 146.573,163.582 145.548 C 164.829 143.782,163.376 141.274,160.728 140.626 C 160.007 140.449,154.920 140.363,153.690 140.506 " stroke="none" fill-rule="evenodd"></path></g></svg>