<svg id="svg" xmlns="http://www.w3.org/2000/svg" xmlns:xlink="http://www.w3.org/1999/xlink" viewBox="0, 0, 400,400"><g id="svgg"><path id="path0" d="M188.070 139.138 C 184.438 140.325,184.121 145.531,187.637 146.261 C 188.895 146.522,192.302 146.302,198.257 145.575 C 200.413 145.312,202.929 145.043,203.849 144.978 L 205.521 144.859 205.832 142.535 C 206.264 139.308,206.277 139.412,205.422 139.270 C 204.248 139.076,188.625 138.957,188.070 139.138 M208.279 141.583 C 208.148 142.623,207.993 143.756,207.933 144.101 L 207.826 144.727 209.527 144.602 C 211.586 144.450,211.296 144.774,211.645 142.233 C 211.993 139.700,212.173 139.992,210.161 139.827 L 208.517 139.692 208.279 141.583 M153.839 140.421 C 153.522 140.466,151.708 140.765,149.808 141.086 C 147.908 141.407,146.067 141.713,145.718 141.767 C 143.634 142.086,142.248 145.156,143.584 146.492 L 144.173 147.082 146.607 146.932 C 147.945 146.850,152.079 146.729,155.793 146.664 C 163.419 146.530,163.344 146.545,163.896 144.983 C 164.466 143.373,163.246 141.354,161.324 140.724 C 160.569 140.477,155.027 140.252,153.839 140.421 M213.638 142.124 C 213.352 144.397,213.131 144.221,215.964 143.976 C 217.266 143.863,219.518 143.713,220.969 143.642 C 223.737 143.508,223.776 143.491,223.329 142.627 C 222.853 141.706,219.644 140.821,215.238 140.395 L 213.873 140.263 213.638 142.124 " stroke="none" fill-rule="evenodd"></path></g></svg>