<svg id="svg" version="1.1" xmlns="http://www.w3.org/2000/svg" xmlns:xlink="http://www.w3.org/1999/xlink" viewBox="0, 0, 400,400"><g id="svgg"><path id="path0" d="M279.574 159.838 C 279.508 159.921,279.359 160.177,279.243 160.408 C 277.347 164.176,264.947 176.421,258.094 181.291 C 255.224 183.331,253.728 184.796,252.430 186.837 C 251.935 187.615,251.022 188.938,250.402 189.777 C 242.089 201.018,240.434 216.699,246.150 230.054 C 247.428 233.041,248.380 234.589,251.641 238.987 C 255.003 243.520,255.788 244.962,256.564 248.020 C 258.636 256.190,256.297 266.275,250.811 272.819 C 247.207 277.119,243.693 279.478,235.693 282.969 C 230.596 285.193,228.637 286.571,226.427 289.490 C 220.819 296.895,220.897 308.702,226.611 317.277 C 230.965 323.811,234.266 326.162,239.052 326.137 C 241.346 326.125,241.741 325.797,240.140 325.236 C 237.797 324.414,236.324 322.866,234.094 318.883 C 230.379 312.244,230.133 307.925,233.005 299.741 C 234.794 294.640,239.677 290.153,247.211 286.685 C 266.678 277.725,275.393 269.146,278.480 255.909 C 279.504 251.517,278.519 248.797,273.353 241.752 C 268.259 234.806,267.217 233.120,266.303 230.354 C 265.103 226.725,264.532 217.821,265.203 213.197 C 266.121 206.867,271.445 193.569,276.883 184.026 C 279.562 179.325,280.645 176.649,281.245 173.245 C 281.457 172.041,281.458 166.642,281.246 165.027 C 280.917 162.521,280.486 159.992,280.363 159.843 C 280.199 159.645,279.730 159.643,279.574 159.838 " stroke="none" fill-rule="evenodd"></path></g></svg>