<?xml version="1.0" encoding="UTF-8"?><svg id="Eyes" xmlns="http://www.w3.org/2000/svg" viewBox="0 0 500 500"><g id="Eyes_neutral"><path class="cls-1" d="m247.62,211.36c4.91-6.91,8.67-11.82,9.47-12.44.57-.44,1.17-.51,1.17-.51.46-.05.86.07,1.14.19,1.63.15,4.46.65,7.39,2.46,1.79,1.11,3.07,2.36,3.92,3.36-.82,1.38-2.35,1.53-3.65,2.06-4.87,2.02-8.76,3.24-11.29,3.78-2.05.43-4.82.9-8.15,1.1Z" fill="#FFFFFF"></path><path class="cls-1" d="m197.22,209.55c.55-.56,2.17-2.36,2.44-5.16.18-1.83-.3-3.29-.61-4.05,2.93.73,4.6,2.81,6.77,4.05-1.18,1.04-2.72,2.22-4.63,3.31-1.43.81-2.78,1.41-3.97,1.85Z" fill="#FFFFFF"></path><g><path class="cls-3" d="m243.91,211.58c-2.66.02-4.5-.24-6.02-.5-1.49-.26-3-.63-4.38-1.24-2.11-.94-3.07-3.62-2.2-6.23,1.88-5.68,5.03-8.68,11.14-9.57,7.56-1.1,14.89-.01,21.92,2.89,2.29.94,4.41,2.3,6.44,3.75.58.41,1.1.95,1.52,1.52.4.56.98,1.19.52,1.96-.57.96-1.39.49-2.14.26-3.42-2.96-7.6-4.21-11.61-5.48-.48.35-.38.6-.34.83.51,2.95-.09,5.82-1.87,7.9-1.16,1.35-2.44,1.92-4.48,2.71-3,1.16-5.54,1.18-8.49,1.21Z" ></path><path class="cls-3" d="m197.22,209.55c-3.31.68-6.64,1.16-10.02.71-2.79-.37-4.92-2.28-5.36-5.05-.36-2.25-.97-4.56.38-6.78.75-1.25,1.72-1.97,3.08-2.46,3.01-1.08,6.01-.69,9.01-.14,3.81.7,6.89,2.91,10,5.02.83.56,1.24,1.45,1.74,2.27.28.47.21.92-.22,1.28-2.17-1.23-3.84-3.31-6.77-4.05,1.11,3.06.69,5.74-.75,8.27-.23.22-.46.43-.68.65-.13.09-.26.19-.4.28Z" ></path></g><path class="cls-2" d="m193.83,201.13c-.13,0-.07.43-.35.96-.34.63-.79.7-.78,1.05.01.31.38.35.75.81.56.71.44,1.59.58,1.58.15,0-.03-1.06.62-1.78.37-.41.78-.46.77-.71-.01-.28-.53-.27-.98-.78-.47-.53-.45-1.14-.6-1.13Z" fill="#F2F2F2"></path><path class="cls-2" d="m249.75,198.91c-.16.01-.09.53-.43,1.16-.41.77-.96.85-.94,1.27.01.38.47.42.91.99.69.87.54,1.93.7,1.93.18,0-.04-1.29.75-2.16.45-.49.95-.56.93-.86-.02-.34-.65-.33-1.19-.95-.57-.64-.54-1.39-.73-1.38Z" fill="#F2F2F2"></path></g></svg>