<?xml version="1.0" encoding="UTF-8"?><svg id="Eyes" xmlns="http://www.w3.org/2000/svg" viewBox="0 0 500 500"><g id="Eyes_wide"><path class="cls-1" d="m259.41,200.8c.14.2,2.59,3.75.91,7.72-1.19,2.81-3.96,4.7-7.08,4.82,2.26,0,5.55-.24,9.28-1.49,4.67-1.57,7.95-4,9.83-5.64-3.59-5.1-8.06-7.79-11.12-6.68-.55.2-1.19.57-1.81,1.27Z" fill="#FFFFFF"></path><path class="cls-1" d="m182.54,202.26c-.28,1.58-.56,4.61.91,7.72.36.76.77,1.41,1.18,1.97.51-.25,2.15-1.12,2.72-2.92.79-2.5-.99-5.17-3-6.22-.7-.37-1.36-.5-1.8-.55Z" fill="#FFFFFF"></path><g><path class="cls-3" d="m273.97,207.68c-3.14-3-6.3-5.16-9.96-6.53-.45-.17-.89-.38-1.35-.52-1.87-.59-2.13-.38-1.76,1.54.27,1.35.33,2.71.18,4.08-.36,3.43-2.55,5.98-5.94,6.73-1.72.38-3.49.65-5.24.72-2.96.13-5.92.25-8.89-.12-7.4-.91-8.35-7.84-6.45-12.27.33-.76.72-1.44,1.18-2.06,1.51-2.05,3.36-2.99,4.25-3.44,3.53-1.79,9.23-2.39,14.85-1.58,5.52.8,9.37,2.45,11.46,3.89,2.29,1.58,4.68,3.09,6.47,5.33.91,1.14,1.35,2.32,1.19,4.25Z"></path><path class="cls-3" d="m185.57,212.6c-.63-.29-1.02-.76-1.02-.76-.26-.32-.44-.7-.56-1.18-.46-1.82-.49-3.64-.27-5.49.14-1.17.88-2.62-1.19-2.91-.1-.01-.21-.22-.25-.36-.35-1.2.94-3.98,2.07-4.27,3.86-.98,7.71-1.43,11.63-.13,3.95,1.31,6.76,3.91,8.73,7.47.79,1.44.91,3.06.66,4.69-.37,2.31-2.66,3.42-3.78,4.06,0,0-6.07,3.48-16.02-1.12Z"></path></g><path class="cls-2" d="m252.85,199.07c-.16.01-.09.53-.43,1.16-.41.77-.96.85-.94,1.27.01.38.47.42.91.99.69.87.54,1.93.7,1.93.18,0-.04-1.29.75-2.16.45-.49.95-.56.93-.86-.02-.34-.65-.33-1.19-.95-.57-.64-.54-1.39-.73-1.38Z" fill="#F2F2F2"></path><path class="cls-2" d="m197.2,201.16c-.16.01-.09.53-.43,1.16-.41.77-.96.85-.94,1.27.01.38.47.42.91.99.69.87.54,1.93.7,1.93.18,0-.04-1.29.75-2.16.45-.49.95-.56.93-.86-.02-.34-.65-.33-1.19-.95-.57-.64-.54-1.39-.73-1.38Z" fill="#F2F2F2"></path></g></svg>