<svg id="svg" version="1.1" xmlns="http://www.w3.org/2000/svg" xmlns:xlink="http://www.w3.org/1999/xlink" viewBox="0, 0, 400,400"><g id="svgg"><path id="path0" d="M254.769 61.195 C 242.285 62.068,232.320 66.189,222.223 74.653 C 219.831 76.657,219.817 76.702,220.751 79.171 C 223.373 86.103,224.792 92.797,225.255 100.420 C 225.357 102.103,225.522 104.019,225.622 104.679 C 226.291 109.105,226.433 111.260,226.435 117.037 C 226.437 122.857,226.216 127.003,225.550 133.593 C 224.241 146.544,223.284 150.471,218.438 162.763 C 217.180 165.953,216.864 166.640,216.644 166.661 C 216.335 166.691,216.081 166.607,214.157 165.840 C 203.205 161.476,185.674 158.835,172.525 159.569 C 163.743 160.059,152.194 162.229,146.851 164.394 C 130.560 170.992,116.871 188.147,114.043 205.508 C 113.652 207.908,113.440 208.491,112.505 209.751 C 109.828 213.357,105.878 220.296,104.461 223.883 C 100.730 233.331,101.263 244.046,105.812 251.045 C 107.198 253.177,107.238 253.106,103.923 254.422 C 90.349 259.811,78.697 270.223,72.582 282.430 C 70.244 287.099,69.121 290.602,67.607 297.960 C 67.173 300.072,66.685 302.421,66.523 303.179 C 65.726 306.916,65.841 309.568,66.823 310.076 C 68.395 310.889,69.345 309.720,69.594 306.668 C 70.027 301.360,71.741 296.088,74.277 292.263 C 76.324 289.176,81.078 283.652,81.393 283.996 C 81.416 284.022,81.197 284.664,80.906 285.423 C 76.144 297.826,75.814 311.919,80.034 322.682 C 85.929 337.715,102.007 350.815,117.576 353.272 C 120.809 353.781,121.026 353.882,122.975 355.779 C 125.067 357.814,126.494 358.791,129.809 360.461 C 142.427 366.814,153.781 368.614,168.386 366.574 C 180.332 364.906,192.962 360.255,203.261 353.730 C 217.040 345.002,231.432 328.039,237.364 313.535 C 237.749 312.593,238.145 311.800,238.250 311.760 C 238.467 311.676,238.455 311.667,240.496 313.437 C 264.898 334.607,309.602 335.686,334.621 315.711 C 340.193 311.261,343.942 306.548,347.446 299.584 C 352.127 290.280,353.251 286.003,353.522 276.455 C 353.625 272.823,353.760 272.657,354.566 275.165 C 358.042 285.977,356.911 297.737,351.474 307.319 C 348.169 313.142,344.372 317.168,339.472 320.044 C 336.502 321.788,336.053 322.192,336.053 323.121 C 336.053 327.333,345.500 321.450,351.411 313.557 C 361.892 299.564,362.652 279.931,353.293 264.907 C 352.876 264.238,352.668 263.730,352.481 262.927 C 350.895 256.125,350.046 253.485,348.236 249.722 C 345.718 244.486,341.382 238.305,337.103 233.853 C 334.895 231.555,334.291 230.856,333.149 229.274 C 331.921 227.575,330.917 226.419,327.406 222.664 C 322.540 217.460,321.124 216.248,314.877 211.936 C 307.200 206.636,306.909 206.071,309.911 202.280 C 318.464 191.477,327.398 175.468,331.153 164.215 C 335.328 151.701,335.745 138.677,332.390 125.540 C 329.908 115.825,325.923 108.701,319.311 102.160 C 316.870 99.745,316.673 99.488,315.299 96.941 C 308.046 83.491,298.792 73.356,289.502 68.690 C 277.559 62.690,266.745 60.357,254.769 61.195 M323.395 112.717 C 329.723 123.200,332.660 138.583,330.758 151.290 C 330.325 154.185,329.429 158.204,328.739 160.348 C 328.438 161.282,328.440 161.211,328.789 158.727 C 330.836 144.134,328.900 128.528,323.155 113.317 C 322.806 112.394,322.480 111.530,322.431 111.398 C 322.252 110.924,322.597 111.396,323.395 112.717 M186.683 162.623 C 196.427 163.459,205.384 165.471,213.756 168.705 C 215.636 169.431,215.644 169.382,213.012 173.374 C 211.550 175.591,211.797 175.469,209.360 175.164 C 203.291 174.403,201.792 174.335,192.202 174.389 C 177.016 174.474,170.902 175.164,159.734 178.049 C 142.483 182.506,134.127 187.166,121.726 199.246 C 119.747 201.174,118.109 202.732,118.086 202.709 C 117.914 202.537,119.208 198.483,120.110 196.371 C 123.247 189.025,126.735 183.859,132.324 178.279 C 142.539 168.080,154.080 163.508,172.286 162.448 C 174.995 162.291,184.097 162.401,186.683 162.623 " stroke="none" fill-rule="evenodd"></path></g></svg>