<svg id="svg" version="1.1" xmlns="http://www.w3.org/2000/svg" xmlns:xlink="http://www.w3.org/1999/xlink" fill="none" viewBox="0, 0, 400,400"><g id="svgg"><path id="path0" d="M186.390 66.235 C 164.079 67.945,141.969 85.149,136.754 104.859 C 130.545 128.324,149.587 154.779,176.287 159.782 C 178.337 160.166,178.214 160.328,177.529 158.151 C 172.632 142.594,173.941 131.798,181.661 124.079 C 185.941 119.798,190.801 117.606,201.440 115.156 C 211.334 112.878,214.458 111.628,217.260 108.825 C 224.778 101.307,220.841 84.683,208.477 71.743 C 204.687 67.776,195.659 65.524,186.390 66.235 M248.752 71.912 C 244.998 72.500,245.388 72.179,244.934 75.055 C 240.385 103.834,241.403 132.130,247.714 152.347 C 248.356 154.403,248.436 154.548,249.173 155.014 C 255.838 159.221,273.906 155.368,283.428 147.710 C 292.378 140.511,295.381 127.633,291.667 112.379 C 288.344 98.731,279.143 84.539,270.921 80.381 C 270.262 80.047,269.113 79.170,268.234 78.330 C 263.159 73.477,255.299 70.888,248.752 71.912 M282.095 160.653 C 281.942 161.022,280.756 164.108,279.460 167.511 L 277.102 173.697 279.113 175.778 C 300.115 197.517,298.842 228.154,275.867 253.930 L 274.760 255.172 275.816 254.349 C 295.016 239.382,304.171 214.255,298.941 190.881 C 296.571 180.287,290.808 169.211,283.513 161.228 L 282.373 159.981 282.095 160.653 M179.232 168.893 C 168.648 172.277,157.512 192.755,155.951 211.708 C 155.044 222.709,153.048 230.398,148.174 241.668 C 146.242 246.135,146.070 246.943,147.279 245.879 C 150.608 242.949,158.562 229.416,162.963 219.194 L 164.327 216.027 164.222 219.386 C 163.893 229.974,161.489 237.127,154.513 248.273 C 153.060 250.595,151.558 253.119,151.176 253.880 C 146.954 262.299,149.952 270.618,160.171 278.842 C 162.183 280.461,162.195 280.460,161.448 278.757 C 158.066 271.053,158.244 261.792,161.913 254.484 C 163.782 250.762,165.288 248.912,171.501 242.706 C 180.236 233.981,183.816 228.681,186.540 220.441 C 191.164 206.454,189.736 192.770,181.186 169.146 C 180.926 168.427,180.756 168.405,179.232 168.893 M309.559 244.959 C 303.634 253.872,295.608 262.343,283.370 272.598 C 277.158 277.804,276.767 278.868,281.703 277.142 C 293.656 272.962,303.137 263.022,308.690 248.848 C 310.551 244.099,310.763 243.147,309.559 244.959 " stroke="none" fill="currentColor" fill-rule="evenodd"></path><path id="path1" d="M274.986 49.345 C 262.231 50.306,252.220 57.064,246.384 68.652 C 245.835 69.742,245.146 72.290,245.350 72.473 C 245.374 72.495,245.955 72.388,246.641 72.236 C 254.135 70.576,262.633 72.974,268.234 78.330 C 269.113 79.170,270.262 80.047,270.921 80.381 C 279.143 84.539,288.344 98.731,291.667 112.379 C 295.381 127.633,292.378 140.511,283.428 147.710 C 273.897 155.376,255.838 159.221,249.161 155.006 C 248.264 154.440,248.269 154.436,248.647 155.418 C 248.800 155.816,249.309 157.179,249.778 158.445 C 254.085 170.074,258.939 177.759,269.533 189.724 L 271.736 192.213 271.366 193.275 C 265.217 210.947,268.354 230.703,279.513 244.574 L 281.161 246.623 280.181 248.023 C 278.193 250.868,276.041 253.355,272.436 256.978 L 268.738 260.694 264.886 279.034 C 262.767 289.120,261.072 297.412,261.120 297.460 C 261.384 297.724,270.951 294.325,275.336 292.408 C 289.941 286.025,305.670 273.961,317.242 260.267 C 317.910 259.476,319.302 258.052,320.335 257.102 C 334.239 244.311,340.731 225.962,335.420 214.467 L 334.782 213.087 336.345 214.088 C 343.814 218.870,352.854 222.525,361.516 224.265 C 362.889 224.541,364.206 224.810,364.443 224.863 C 365.220 225.036,364.896 224.635,364.060 224.388 C 346.975 219.332,329.006 203.665,320.260 186.198 C 316.098 177.887,315.450 175.321,315.453 167.179 C 315.457 158.146,315.505 158.001,320.950 150.288 C 331.579 135.234,333.594 127.215,330.235 113.340 C 329.589 110.670,329.585 110.624,329.592 106.142 C 329.612 94.096,326.394 81.283,321.123 72.413 C 312.413 57.759,292.888 47.997,274.986 49.345 M165.451 54.054 C 152.689 55.581,141.923 60.251,132.054 68.543 C 120.755 78.035,115.120 88.895,112.689 105.860 C 111.901 111.358,111.855 112.671,111.982 126.008 C 111.991 127.051,111.829 128.251,111.476 129.750 C 108.210 143.596,110.180 151.852,118.383 158.707 L 120.411 160.402 121.412 163.353 L 122.412 166.304 121.172 167.653 C 115.366 173.971,113.132 176.682,110.646 180.422 C 100.697 195.395,98.780 213.983,104.978 235.387 C 105.328 236.595,105.338 236.810,105.097 237.978 C 102.725 249.464,105.642 267.775,111.141 275.924 C 114.884 281.472,121.350 285.624,128.692 287.197 L 130.705 287.628 132.555 289.255 C 133.572 290.150,135.220 291.745,136.217 292.799 L 138.029 294.715 137.262 295.041 C 135.352 295.852,134.359 297.496,132.519 302.892 C 127.940 316.325,121.459 322.097,107.424 325.241 C 103.816 326.050,103.455 326.178,103.455 326.654 C 103.455 327.237,103.911 327.320,107.581 327.405 C 113.535 327.545,129.394 326.183,134.681 325.078 L 135.869 324.830 135.511 325.323 C 132.557 329.388,123.020 336.243,110.653 343.188 C 102.625 347.697,100.768 349.000,100.768 350.124 C 100.768 353.566,121.802 349.660,138.388 343.137 C 166.969 331.896,180.493 316.573,175.129 301.512 C 174.339 299.294,172.867 296.628,170.617 293.337 C 165.541 285.915,163.687 283.099,162.902 281.621 C 162.440 280.750,162.021 280.078,161.971 280.128 C 161.921 280.177,161.111 279.599,160.171 278.842 C 149.952 270.618,146.954 262.299,151.176 253.880 C 151.558 253.119,153.060 250.595,154.513 248.273 C 161.489 237.127,163.893 229.974,164.222 219.386 L 164.327 216.027 162.963 219.194 C 158.562 229.416,150.608 242.949,147.279 245.879 C 146.070 246.943,146.242 246.135,148.174 241.668 C 153.048 230.398,155.044 222.709,155.951 211.708 C 157.538 192.441,169.029 171.634,179.655 168.787 C 180.341 168.603,180.919 168.444,180.939 168.434 C 180.959 168.424,180.344 166.561,179.572 164.294 L 178.167 160.173 176.091 159.746 C 149.094 154.195,130.546 128.317,136.754 104.859 C 143.093 80.905,173.518 61.982,197.804 66.890 C 202.071 67.752,206.036 69.380,207.786 70.988 C 208.320 71.479,207.713 70.843,206.436 69.575 C 198.252 61.445,188.775 56.420,177.976 54.484 C 175.800 54.093,167.502 53.809,165.451 54.054 M330.036 117.179 C 332.012 128.569,329.767 136.090,320.511 149.086 C 319.326 150.750,318.026 152.621,317.623 153.245 C 316.702 154.669,316.707 154.585,317.743 151.016 C 318.839 147.241,319.682 144.815,322.396 137.627 C 326.193 127.571,327.834 122.097,328.809 116.235 L 329.254 113.563 329.495 114.507 C 329.628 115.026,329.871 116.228,330.036 117.179 M112.876 132.939 C 113.967 140.406,116.249 149.177,119.080 156.792 L 119.732 158.547 118.635 157.596 C 111.457 151.377,109.638 144.519,111.924 132.284 C 112.147 131.091,112.365 130.151,112.408 130.194 C 112.451 130.237,112.662 131.472,112.876 132.939 M286.307 164.587 C 299.528 181.463,303.734 202.705,297.762 222.444 C 294.145 234.400,285.749 246.606,275.816 254.349 L 274.760 255.172 275.867 253.930 C 298.842 228.154,300.115 197.517,279.113 175.778 L 277.102 173.697 279.460 167.511 C 280.756 164.108,281.942 161.022,282.095 160.653 L 282.373 159.981 283.513 161.228 C 284.140 161.915,285.397 163.426,286.307 164.587 M128.889 199.280 C 128.630 201.282,123.851 208.512,119.787 213.052 C 117.205 215.935,121.708 208.362,127.120 200.720 C 129.110 197.910,129.060 197.950,128.889 199.280 M127.851 206.457 C 126.218 214.539,123.644 220.633,117.368 231.267 L 114.491 236.143 114.426 235.298 C 114.164 231.907,115.626 223.173,117.282 218.234 C 117.889 216.424,117.909 216.395,120.031 214.203 C 122.395 211.761,124.306 209.297,126.715 205.583 C 128.582 202.707,128.605 202.724,127.851 206.457 M330.518 209.884 C 339.560 217.131,337.812 233.901,326.457 248.853 C 323.799 252.353,323.196 252.843,324.928 250.096 C 329.847 242.294,332.076 235.778,332.070 229.220 C 332.066 224.986,331.579 222.943,328.014 212.180 C 326.963 209.008,326.104 206.342,326.104 206.254 C 326.104 206.167,326.730 206.653,327.495 207.336 C 328.261 208.018,329.621 209.165,330.518 209.884 M286.344 214.491 C 288.237 220.093,288.651 226.140,287.521 231.683 C 286.950 234.487,287.002 234.507,285.834 231.031 C 283.901 225.281,283.460 219.744,284.465 213.850 C 285.018 210.607,285.032 210.612,286.344 214.491 M175.708 238.436 L 175.144 239.060 175.768 238.496 C 176.111 238.186,176.392 237.905,176.392 237.872 C 176.392 237.724,176.233 237.854,175.708 238.436 M108.623 245.681 C 109.791 248.478,109.707 247.956,109.403 250.480 C 107.978 262.298,113.077 272.462,126.008 283.581 C 127.591 284.943,128.967 286.126,129.064 286.210 C 129.162 286.294,128.471 286.156,127.529 285.904 C 119.791 283.833,113.842 279.241,110.483 272.745 C 106.593 265.223,104.324 250.701,105.565 241.267 C 105.937 238.436,105.909 238.442,106.809 240.988 C 107.256 242.250,108.072 244.362,108.623 245.681 M169.286 244.866 L 167.658 246.545 169.338 244.918 C 170.898 243.407,171.105 243.186,170.965 243.186 C 170.936 243.186,170.181 243.942,169.286 244.866 M310.073 245.141 C 304.943 260.973,294.609 272.629,281.703 277.142 C 276.767 278.868,277.158 277.804,283.370 272.598 C 295.608 262.343,303.634 253.872,309.559 244.959 C 310.372 243.736,310.512 243.786,310.073 245.141 " stroke="none" fill-rule="evenodd"></path></g></svg>