<svg id="svg" version="1.1" xmlns="http://www.w3.org/2000/svg" xmlns:xlink="http://www.w3.org/1999/xlink" viewBox="0, 0, 400,400"><g id="svgg"><path id="path0" d="M207.965 33.903 C 206.625 34.084,205.555 34.428,203.809 35.240 C 200.544 36.757,198.463 36.805,195.485 35.429 C 191.877 33.762,189.322 34.535,183.318 39.111 C 182.145 40.005,180.900 40.607,179.449 40.981 C 177.848 41.394,176.974 41.895,176.404 42.727 C 175.196 44.491,171.872 45.434,170.397 44.432 C 168.704 43.281,167.347 43.223,161.708 44.058 C 160.487 44.238,159.559 44.263,158.541 44.142 C 152.816 43.461,150.049 44.244,147.866 47.163 C 146.742 48.664,146.909 48.606,141.444 49.426 C 138.259 49.905,136.521 50.973,135.443 53.112 C 134.544 54.899,133.190 59.229,133.073 60.690 C 132.933 62.444,132.818 62.662,131.804 63.111 C 131.352 63.311,130.554 63.782,130.031 64.158 C 129.507 64.534,128.421 65.141,127.617 65.508 C 124.646 66.861,123.882 68.075,124.033 71.206 C 124.125 73.107,123.827 74.280,123.253 74.280 C 123.160 74.280,122.486 74.867,121.755 75.585 C 120.749 76.574,120.144 76.996,119.262 77.326 C 116.675 78.293,115.744 79.745,115.740 82.821 C 115.735 86.059,115.336 86.836,112.799 88.546 C 111.716 89.276,110.825 90.058,110.328 90.717 C 109.901 91.283,109.484 91.747,109.403 91.747 C 109.321 91.747,108.820 92.138,108.288 92.616 C 107.324 93.482,106.976 94.140,106.513 95.969 C 106.351 96.607,106.027 97.092,105.273 97.823 C 103.930 99.123,103.623 99.769,103.427 101.700 C 103.310 102.855,103.080 103.722,102.613 104.773 C 101.470 107.345,101.454 107.444,101.506 111.691 C 101.588 118.428,102.039 119.580,106.005 123.203 C 107.110 124.213,107.231 124.981,106.619 127.108 C 106.342 128.071,106.043 129.508,105.954 130.302 C 105.768 131.964,105.530 132.246,104.316 132.246 C 99.856 132.246,97.721 137.479,100.763 140.955 C 101.787 142.124,101.836 142.241,101.538 142.798 C 101.378 143.097,101.113 143.152,99.858 143.149 C 95.370 143.137,92.497 148.806,95.663 151.426 C 96.456 152.081,96.641 152.792,96.641 155.182 C 96.641 157.667,96.893 158.504,97.918 159.426 C 99.472 160.824,103.141 160.525,105.140 158.837 C 105.713 158.353,105.879 158.312,106.987 158.383 L 108.204 158.460 107.559 157.522 C 105.165 154.043,106.343 149.694,110.330 147.292 C 110.363 147.271,110.255 146.799,110.090 146.241 C 109.535 144.374,109.841 142.548,110.968 140.989 C 111.292 140.541,111.516 139.987,111.516 139.632 C 111.516 135.465,117.143 132.800,120.694 135.285 C 120.977 135.483,121.585 135.694,122.044 135.753 C 122.528 135.816,123.072 136.043,123.339 136.294 L 123.800 136.727 123.800 135.754 C 123.800 134.760,123.768 134.683,122.002 131.478 C 121.150 129.934,121.100 128.953,121.793 127.462 C 122.266 126.447,122.270 126.406,121.949 125.735 C 121.431 124.650,121.388 123.239,121.843 122.211 C 122.146 121.526,122.208 121.083,122.128 120.195 C 121.997 118.754,122.300 117.821,123.226 116.811 C 123.622 116.380,124.008 115.736,124.085 115.381 C 124.252 114.607,125.356 113.328,125.997 113.168 C 126.335 113.083,126.537 112.812,126.761 112.140 C 127.332 110.428,128.284 109.445,130.519 108.264 C 132.534 107.198,133.729 106.165,136.803 102.831 C 137.754 101.801,139.296 101.017,142.244 100.066 C 143.362 99.705,144.960 99.015,145.795 98.533 C 153.330 94.179,153.477 94.124,157.150 94.292 C 166.761 94.733,167.930 97.798,169.287 126.104 C 171.457 171.411,176.641 190.505,190.338 203.652 C 201.340 214.212,222.435 220.335,244.050 219.244 L 246.161 219.137 247.911 217.841 C 255.583 212.160,262.117 204.491,266.937 195.510 C 267.510 194.443,267.917 193.743,267.842 193.954 C 264.569 203.175,266.526 209.501,272.649 209.496 C 276.424 209.492,278.426 206.285,277.159 202.272 L 276.775 201.056 277.341 200.540 C 277.909 200.022,278.985 199.619,279.808 199.617 C 282.536 199.611,284.923 194.244,283.744 190.766 C 283.418 189.805,283.409 189.643,283.661 189.263 C 283.890 188.919,283.901 188.721,283.720 188.219 C 283.529 187.693,283.553 187.488,283.878 186.850 C 284.089 186.437,284.261 185.867,284.261 185.582 C 284.261 185.175,284.438 184.961,285.095 184.577 C 286.464 183.775,287.524 182.028,287.524 180.576 C 287.524 180.265,287.730 179.650,287.982 179.209 C 288.579 178.165,288.733 177.217,288.486 176.114 C 288.303 175.297,288.326 175.169,288.761 174.599 C 290.162 172.762,290.732 170.017,290.216 167.586 C 290.012 166.622,290.021 166.387,290.287 165.874 C 290.634 165.203,290.693 163.882,290.401 163.337 C 290.235 163.025,290.322 162.925,291.035 162.609 C 291.490 162.408,292.171 161.972,292.549 161.641 L 293.236 161.037 294.171 161.458 C 298.363 163.343,302.969 159.501,301.833 155.066 L 301.535 153.901 302.196 153.128 C 303.428 151.689,303.734 150.807,303.760 148.619 C 303.773 147.527,303.891 146.402,304.028 146.072 C 304.366 145.255,304.165 144.071,303.551 143.266 L 303.037 142.592 303.748 141.921 C 305.079 140.666,307.653 139.744,309.148 139.987 C 309.756 140.086,309.789 140.061,309.789 139.513 C 309.789 138.863,310.688 137.812,311.243 137.812 C 311.544 137.812,311.548 137.780,311.282 137.476 C 310.426 136.496,310.410 134.909,311.245 133.680 C 311.646 133.088,311.670 132.988,311.383 133.103 C 307.269 134.757,300.960 131.116,300.960 127.087 C 300.960 125.624,302.290 123.659,303.723 123.007 C 304.111 122.830,304.153 122.701,304.077 121.910 C 303.984 120.945,304.636 119.962,305.368 119.962 C 305.936 119.962,305.954 119.734,305.435 119.119 C 302.565 115.719,304.787 111.496,309.501 111.391 C 310.451 111.370,311.595 111.250,312.044 111.123 C 312.654 110.952,313.066 110.947,313.676 111.106 C 314.428 111.302,314.513 111.285,314.772 110.889 C 316.312 108.535,319.546 107.590,321.881 108.812 C 322.620 109.198,322.700 109.212,322.438 108.903 C 321.817 108.171,321.947 106.187,322.847 102.662 C 323.805 98.909,322.988 96.677,320.049 95.024 C 316.353 92.944,314.487 89.943,315.355 87.474 C 315.827 86.131,315.839 85.218,315.403 83.864 C 315.129 83.012,315.083 82.332,315.151 80.134 C 315.397 72.141,314.957 71.072,310.908 69.842 L 309.580 69.439 308.939 68.165 C 308.543 67.378,308.212 66.340,308.075 65.451 C 307.838 63.921,307.236 62.402,306.460 61.375 C 306.199 61.031,305.891 60.395,305.776 59.962 C 305.135 57.551,303.042 56.227,299.717 56.128 C 297.065 56.050,296.176 55.503,294.783 53.093 C 292.792 49.650,289.509 48.239,286.798 49.664 C 285.624 50.281,285.485 50.229,284.826 48.922 C 283.907 47.103,280.970 43.349,280.067 42.842 C 278.129 41.752,274.048 41.310,271.779 41.944 C 269.250 42.649,268.590 42.473,266.878 40.639 C 264.421 38.006,262.276 37.742,258.445 39.603 C 257.179 40.218,255.866 40.855,255.529 41.018 C 255.192 41.182,254.435 41.745,253.846 42.270 C 252.775 43.224,252.209 43.360,252.205 42.664 C 252.192 40.282,249.180 38.230,246.065 38.483 C 242.944 38.736,242.934 38.734,241.752 37.920 C 240.501 37.059,239.169 36.660,237.539 36.660 C 236.908 36.660,235.635 36.475,234.711 36.248 C 233.068 35.845,233.001 35.844,231.654 36.171 C 230.289 36.503,230.272 36.502,229.773 36.098 C 227.679 34.398,227.079 34.250,223.425 34.526 C 219.566 34.817,217.535 36.160,217.147 38.679 C 216.850 40.606,215.696 40.443,215.090 38.388 C 214.217 35.422,211.125 33.476,207.965 33.903 " stroke="none" fill-rule="evenodd"></path><path id="path1" d="M153.308 94.516 C 152.490 94.752,150.558 95.785,145.795 98.534 C 144.960 99.016,143.362 99.705,142.244 100.066 C 139.296 101.017,137.754 101.801,136.803 102.831 C 133.729 106.165,132.534 107.198,130.519 108.264 C 128.284 109.445,127.332 110.428,126.761 112.140 C 126.537 112.812,126.335 113.083,125.997 113.168 C 125.356 113.328,124.252 114.607,124.085 115.381 C 124.008 115.736,123.622 116.380,123.226 116.811 C 122.300 117.821,121.997 118.754,122.128 120.195 C 122.208 121.083,122.146 121.526,121.843 122.211 C 121.388 123.239,121.431 124.650,121.949 125.735 C 122.270 126.406,122.266 126.447,121.793 127.462 C 121.100 128.953,121.150 129.934,122.002 131.478 C 123.768 134.683,123.800 134.760,123.800 135.754 L 123.800 136.727 123.339 136.294 C 123.072 136.043,122.528 135.816,122.044 135.753 C 121.585 135.694,120.977 135.483,120.694 135.285 C 117.143 132.800,111.516 135.465,111.516 139.632 C 111.516 139.987,111.292 140.541,110.968 140.989 C 109.841 142.548,109.535 144.374,110.090 146.241 C 110.255 146.799,110.363 147.271,110.330 147.292 C 106.343 149.694,105.165 154.043,107.559 157.522 L 108.204 158.460 106.987 158.383 C 105.879 158.312,105.713 158.353,105.140 158.837 C 103.618 160.122,100.785 160.703,99.122 160.071 C 98.837 159.963,98.565 159.912,98.519 159.959 C 98.372 160.105,100.061 160.996,100.909 161.219 L 101.722 161.434 101.613 163.202 C 101.540 164.383,101.309 165.593,100.917 166.841 C 99.795 170.419,100.206 171.601,104.266 176.476 C 107.194 179.991,108.378 181.057,111.497 182.987 C 115.373 185.385,115.881 186.785,113.911 189.641 C 113.033 190.916,112.476 192.412,112.476 193.500 C 112.476 194.636,114.889 200.999,115.927 202.602 C 116.136 202.925,116.433 203.846,116.586 204.649 C 117.213 207.926,119.253 209.789,122.213 209.789 C 123.091 209.789,123.925 210.254,124.280 210.941 C 124.951 212.238,126.821 213.583,128.407 213.911 C 128.776 213.987,129.511 214.338,130.038 214.689 C 131.327 215.548,132.757 215.931,134.680 215.931 C 136.535 215.931,136.890 216.150,137.233 217.504 C 137.853 219.952,138.848 221.032,141.786 222.448 C 144.304 223.661,145.584 224.598,146.562 225.946 C 147.698 227.510,150.000 230.383,150.415 230.752 C 151.765 231.956,156.133 233.397,158.431 233.397 C 159.273 233.397,160.663 233.499,161.522 233.623 C 164.667 234.078,166.550 233.404,170.602 230.372 C 175.977 226.349,176.585 226.133,182.319 226.198 C 186.644 226.248,186.679 226.252,188.105 226.820 C 189.152 227.237,189.982 227.419,191.181 227.492 C 193.570 227.638,194.589 228.174,196.551 230.321 C 199.087 233.096,200.796 233.352,203.224 231.319 C 205.255 229.618,205.812 229.456,209.437 229.512 L 212.635 229.562 213.179 229.014 C 213.479 228.712,213.966 227.806,214.262 227.000 C 216.008 222.251,221.427 220.653,225.031 223.826 C 227.332 225.851,228.099 229.618,226.975 233.373 C 226.715 234.241,226.283 236.099,226.015 237.503 C 225.485 240.278,225.085 241.599,224.306 243.136 C 223.198 245.321,223.693 245.586,228.599 245.436 C 231.037 245.362,232.119 245.243,233.301 244.918 C 235.193 244.400,236.386 244.379,238.004 244.838 C 240.065 245.424,245.159 245.341,247.793 244.681 C 252.106 243.598,254.926 241.964,258.619 238.405 C 261.769 235.370,261.892 235.311,265.013 235.368 L 267.481 235.413 269.101 234.453 C 270.192 233.807,271.326 232.889,272.573 231.645 C 274.694 229.526,275.399 229.171,278.215 228.801 C 279.468 228.636,280.258 228.407,281.094 227.969 C 282.144 227.419,282.449 227.356,284.549 227.256 C 288.653 227.060,290.474 225.553,291.281 221.683 C 291.736 219.501,292.390 218.866,295.457 217.622 C 297.381 216.841,298.176 216.236,298.948 214.964 C 299.884 213.424,300.818 212.654,302.640 211.919 C 305.242 210.870,306.478 209.508,307.272 206.814 C 307.545 205.887,307.916 205.173,308.468 204.511 C 309.552 203.211,309.981 202.173,310.158 200.418 C 310.316 198.855,310.501 198.389,311.713 196.515 C 312.524 195.259,313.097 194.920,316.835 193.477 C 319.760 192.348,323.754 189.146,324.689 187.180 C 325.076 186.367,325.893 184.837,326.505 183.781 C 327.116 182.726,327.811 181.344,328.049 180.710 C 328.287 180.077,328.671 179.299,328.902 178.983 C 330.054 177.406,330.518 175.747,330.518 173.211 C 330.518 171.933,330.618 171.340,330.984 170.438 C 331.757 168.537,331.860 167.551,331.812 162.558 L 331.766 157.842 331.187 156.711 C 330.770 155.895,330.262 155.301,329.364 154.577 C 327.920 153.414,327.964 153.565,327.680 148.702 C 327.521 145.974,327.489 145.819,326.829 144.556 L 326.144 143.244 326.673 142.049 C 326.964 141.391,327.495 140.460,327.853 139.980 C 330.008 137.087,330.210 135.655,328.839 133.016 C 327.789 130.997,327.786 131.031,329.362 128.293 C 332.260 123.258,331.989 120.931,328.015 116.761 C 326.441 115.109,324.952 112.777,324.952 111.963 C 324.952 109.522,319.867 107.396,317.197 108.721 C 316.420 109.107,315.259 110.144,314.772 110.889 C 314.513 111.285,314.428 111.302,313.676 111.106 C 313.066 110.947,312.654 110.952,312.044 111.123 C 311.595 111.250,310.451 111.370,309.501 111.391 C 304.787 111.496,302.565 115.719,305.435 119.119 C 305.954 119.734,305.936 119.962,305.368 119.962 C 304.636 119.962,303.984 120.945,304.077 121.910 C 304.153 122.701,304.111 122.830,303.723 123.007 C 302.290 123.659,300.960 125.624,300.960 127.087 C 300.960 131.116,307.269 134.757,311.383 133.103 C 311.670 132.988,311.646 133.088,311.245 133.680 C 310.410 134.909,310.426 136.496,311.282 137.476 C 311.548 137.780,311.544 137.812,311.243 137.812 C 310.688 137.812,309.789 138.863,309.789 139.513 C 309.789 140.061,309.756 140.086,309.148 139.987 C 307.653 139.744,305.079 140.666,303.748 141.921 L 303.037 142.592 303.551 143.266 C 304.165 144.071,304.366 145.255,304.028 146.072 C 303.891 146.402,303.773 147.527,303.760 148.619 C 303.734 150.807,303.428 151.689,302.196 153.128 L 301.535 153.901 301.833 155.066 C 302.969 159.501,298.363 163.343,294.171 161.458 L 293.236 161.037 292.549 161.641 C 292.171 161.972,291.490 162.408,291.035 162.609 C 290.322 162.925,290.235 163.025,290.401 163.337 C 290.693 163.882,290.634 165.203,290.287 165.874 C 290.021 166.387,290.012 166.622,290.216 167.586 C 290.732 170.017,290.162 172.762,288.761 174.599 C 288.326 175.169,288.303 175.297,288.486 176.114 C 288.733 177.217,288.579 178.165,287.982 179.209 C 287.730 179.650,287.524 180.265,287.524 180.576 C 287.524 182.028,286.464 183.775,285.095 184.577 C 284.438 184.961,284.261 185.175,284.261 185.582 C 284.261 185.867,284.089 186.437,283.878 186.850 C 283.553 187.488,283.529 187.693,283.720 188.219 C 283.901 188.721,283.890 188.919,283.661 189.263 C 283.409 189.643,283.418 189.805,283.744 190.766 C 284.923 194.244,282.536 199.611,279.808 199.617 C 278.985 199.619,277.909 200.022,277.341 200.540 L 276.775 201.056 277.159 202.272 C 278.426 206.285,276.424 209.492,272.649 209.496 C 266.526 209.501,264.569 203.175,267.842 193.954 C 267.917 193.743,267.510 194.443,266.937 195.510 C 262.117 204.491,255.583 212.160,247.911 217.841 L 246.161 219.137 244.050 219.244 C 222.435 220.335,201.340 214.212,190.338 203.652 C 176.641 190.505,171.457 171.411,169.287 126.104 C 168.242 104.308,167.048 97.862,163.691 95.902 C 161.395 94.561,155.761 93.809,153.308 94.516 " stroke="none" fill="currentColor" fill-rule="evenodd"></path></g></svg>