<svg id="svg" version="1.1" xmlns="http://www.w3.org/2000/svg" xmlns:xlink="http://www.w3.org/1999/xlink" viewBox="0, 0, 400,400"><g id="svgg"><path id="path0" d="M182.150 62.495 C 179.500 63.451,178.327 65.291,178.163 68.746 L 178.065 70.818 177.468 70.918 C 177.140 70.973,175.014 71.198,172.745 71.416 C 169.992 71.682,168.266 71.940,167.562 72.193 C 166.136 72.706,164.490 73.229,162.791 73.711 C 160.128 74.467,158.925 76.259,158.925 79.474 L 158.925 81.144 156.862 81.047 C 152.639 80.848,149.174 82.537,146.829 85.939 L 146.184 86.875 143.914 85.713 C 138.073 82.724,133.271 85.513,134.357 91.266 C 134.628 92.705,134.412 93.256,133.352 93.828 C 132.393 94.346,130.083 96.423,129.215 97.548 C 128.705 98.209,128.036 98.794,127.400 99.134 C 123.731 101.096,122.345 104.810,123.682 109.096 C 124.186 110.713,124.409 114.349,124.037 114.888 C 123.466 115.714,121.098 117.320,119.941 117.664 C 118.589 118.067,115.752 119.915,114.863 120.971 C 113.551 122.531,114.750 125.142,117.128 125.902 C 118.439 126.321,119.022 127.498,118.090 127.846 C 114.350 129.241,113.577 130.835,113.139 138.065 L 113.013 140.141 112.409 140.100 C 108.828 139.859,107.785 141.422,109.827 143.971 C 110.500 144.810,110.452 145.494,109.547 147.985 C 109.020 149.434,108.952 149.863,108.936 151.825 C 108.917 154.176,108.636 155.037,107.700 155.609 C 106.614 156.273,106.240 157.485,106.215 160.417 L 106.192 163.156 105.104 164.298 C 101.396 168.185,102.174 173.727,107.214 179.335 C 109.312 181.670,109.369 181.765,109.153 182.582 L 109.014 183.109 106.448 183.109 C 102.881 183.109,102.262 183.998,103.256 187.692 C 103.629 189.076,103.416 189.475,101.060 191.809 C 97.283 195.550,96.896 197.752,98.931 203.935 C 99.043 204.277,98.841 204.394,97.081 205.011 L 95.106 205.703 94.397 205.334 C 93.026 204.619,92.589 205.406,92.742 208.321 C 92.880 210.942,93.724 212.399,96.406 214.648 C 97.673 215.710,98.039 216.319,98.272 217.753 C 98.364 218.317,99.049 220.167,99.795 221.866 C 101.048 224.718,101.423 226.107,101.008 226.361 C 100.929 226.410,99.499 225.714,97.832 224.814 C 96.164 223.915,94.760 223.218,94.712 223.267 C 94.533 223.445,95.230 226.802,95.608 227.587 C 96.401 229.231,97.574 229.854,100.430 230.149 C 101.513 230.261,102.761 230.395,103.203 230.445 L 104.007 230.538 103.715 231.344 C 103.312 232.460,103.317 235.462,103.725 237.044 C 105.390 243.497,111.351 246.859,119.710 246.060 C 122.842 245.760,122.945 245.796,124.756 247.801 C 127.992 251.385,132.031 252.737,136.468 251.721 C 138.875 251.170,139.165 251.170,140.510 251.720 C 141.190 251.998,142.738 252.486,143.950 252.804 C 147.453 253.725,149.489 255.027,150.563 257.034 C 152.222 260.134,153.921 260.674,154.193 258.187 C 154.471 255.642,156.851 254.008,157.332 256.032 C 158.902 262.644,168.787 264.642,171.172 258.829 L 171.408 258.253 174.236 258.387 C 178.484 258.587,178.506 258.591,179.564 259.400 L 180.511 260.122 181.908 259.995 C 183.091 259.888,183.444 259.930,184.215 260.273 C 187.092 261.550,189.992 261.544,192.930 260.255 L 194.231 259.684 196.300 260.157 C 197.437 260.417,199.330 260.763,200.504 260.925 C 202.746 261.235,203.107 261.336,204.767 262.117 C 211.286 265.185,218.648 261.078,220.236 253.486 C 220.711 251.218,220.463 251.387,226.184 249.420 C 230.866 247.811,231.779 247.651,236.852 247.557 L 239.635 247.505 241.292 248.227 C 243.317 249.109,245.202 249.604,248.036 249.998 C 249.865 250.252,250.498 250.440,252.207 251.240 C 254.927 252.512,256.331 252.944,258.829 253.279 C 259.990 253.435,261.329 253.653,261.804 253.763 C 263.725 254.210,263.819 254.200,266.415 253.254 C 267.850 252.732,268.987 252.415,269.072 252.514 C 270.581 254.275,271.695 255.982,272.180 257.278 C 273.903 261.883,280.250 262.735,282.076 258.606 C 282.390 257.895,282.655 257.564,282.961 257.501 C 285.900 256.897,287.901 256.213,289.739 255.185 C 291.406 254.253,293.649 254.081,296.303 254.684 C 301.780 255.927,306.300 254.520,308.552 250.871 L 309.238 249.760 311.156 249.624 L 313.073 249.488 314.070 250.171 C 316.757 252.010,319.020 252.016,325.784 250.201 C 329.209 249.282,329.707 248.633,327.927 247.409 C 326.755 246.602,326.819 246.509,328.647 246.360 C 331.880 246.097,333.721 245.358,335.599 243.571 C 337.037 242.202,337.355 242.037,339.134 241.728 C 341.839 241.258,343.289 240.277,345.050 237.725 C 345.673 236.821,346.494 235.984,347.601 235.123 C 350.976 232.496,351.818 230.043,350.945 225.382 C 350.778 224.493,350.679 223.729,350.724 223.685 C 350.898 223.510,351.852 224.450,352.516 225.451 C 354.423 228.324,359.861 229.545,360.038 227.140 C 360.113 226.122,359.499 225.209,356.289 221.567 C 353.304 218.180,353.234 218.012,354.275 216.761 C 357.510 212.875,357.003 205.913,353.406 204.835 C 352.759 204.641,352.335 204.280,351.260 203.003 L 349.920 201.411 350.915 199.452 C 352.606 196.123,352.442 192.864,350.432 189.791 L 349.639 188.580 349.686 186.180 C 349.773 181.764,348.321 179.107,344.112 175.984 L 342.831 175.033 343.221 174.150 C 343.527 173.459,343.593 172.992,343.526 171.999 L 343.441 170.729 345.108 169.098 C 347.213 167.039,347.985 165.615,347.985 163.789 C 347.985 162.936,347.913 162.576,347.745 162.586 C 347.080 162.626,345.975 163.330,345.515 164.008 C 344.852 164.983,344.147 165.380,342.610 165.639 C 338.570 166.322,337.756 166.427,336.929 166.374 L 336.015 166.315 337.292 164.858 C 338.833 163.101,340.499 159.783,340.499 158.473 C 340.499 156.711,338.147 153.184,335.338 150.733 C 333.247 148.907,333.220 148.856,333.212 146.614 C 333.208 145.531,333.044 143.979,332.816 142.871 C 332.601 141.831,332.337 139.899,332.228 138.580 C 331.854 134.039,331.027 132.669,327.889 131.390 L 326.775 130.936 326.845 128.568 C 327.012 122.827,324.819 117.411,321.712 115.891 C 320.839 115.464,320.727 115.458,314.587 115.508 C 307.234 115.568,308.197 115.916,305.882 112.361 C 304.003 109.476,304.004 109.479,303.964 106.968 C 303.925 104.537,303.110 102.942,299.247 97.733 C 298.224 96.353,298.138 96.169,298.466 96.065 C 298.987 95.900,300.288 94.370,300.790 93.333 C 302.316 90.180,300.396 86.696,297.121 86.674 C 296.101 86.667,295.940 86.724,293.909 87.812 C 293.574 87.991,293.073 87.985,291.610 87.782 C 287.944 87.275,288.058 87.320,281.218 83.675 L 276.735 81.286 276.899 79.175 C 277.292 74.132,276.118 69.377,274.242 68.406 C 272.434 67.471,270.451 68.662,270.148 70.863 C 269.889 72.746,268.429 74.090,266.405 74.306 C 265.469 74.406,264.541 74.683,263.381 75.210 L 261.708 75.970 257.965 75.907 C 255.907 75.873,254.171 75.838,254.109 75.830 C 254.046 75.822,253.497 75.381,252.889 74.849 C 250.309 72.590,248.571 71.627,243.227 69.493 C 237.412 67.171,236.399 67.000,228.791 67.052 C 222.727 67.093,222.332 67.266,219.459 71.150 C 218.560 72.365,217.796 73.328,217.762 73.292 C 217.727 73.255,217.177 72.442,216.539 71.485 C 213.314 66.650,209.508 64.341,204.446 64.150 C 199.192 63.951,196.892 64.905,195.131 68.012 L 194.501 69.123 193.556 68.374 C 193.036 67.962,191.576 66.706,190.312 65.582 C 186.737 62.404,184.619 61.603,182.150 62.495 M334.158 161.350 C 333.731 162.843,333.735 162.836,333.220 162.673 C 332.739 162.520,332.717 162.237,333.139 161.607 C 333.446 161.147,334.381 160.077,334.475 160.077 C 334.501 160.077,334.358 160.650,334.158 161.350 M104.984 198.021 C 105.435 198.594,105.349 198.707,104.287 198.934 C 103.522 199.097,103.211 198.477,103.755 197.875 C 104.208 197.374,104.503 197.409,104.984 198.021 M107.933 225.403 L 109.003 226.622 107.781 227.107 L 106.558 227.592 106.449 227.184 C 106.303 226.640,106.304 224.869,106.450 224.488 C 106.635 224.008,106.795 224.107,107.933 225.403 " stroke="none" fill-rule="evenodd"></path></g></svg>