<svg id="svg" version="1.1" xmlns="http://www.w3.org/2000/svg" xmlns:xlink="http://www.w3.org/1999/xlink" viewBox="0, 0, 400,400"><g id="svgg"><path id="path0" d="M236.446 221.139 C 224.597 234.247,214.715 245.190,214.486 245.457 L 214.069 245.941 212.265 244.132 C 205.723 237.572,197.865 236.149,189.644 240.038 C 183.063 243.150,177.222 249.499,173.883 257.168 C 173.439 258.187,173.063 259.039,173.046 259.062 C 173.029 259.084,172.204 258.841,171.211 258.522 C 152.394 252.470,134.560 263.963,131.772 283.936 C 131.701 284.444,131.541 284.887,131.417 284.921 C 110.514 290.643,100.529 312.312,110.140 331.094 L 110.680 332.150 108.697 334.041 C 103.314 339.172,99.754 346.731,99.823 352.879 L 99.835 354.031 100.174 352.879 C 101.078 349.802,102.880 347.312,105.468 345.561 C 106.780 344.673,106.793 344.700,105.941 346.518 C 103.567 351.584,103.472 355.577,105.578 361.833 C 107.464 367.437,106.896 369.150,102.751 370.361 C 101.035 370.863,101.014 371.390,102.695 371.764 C 114.299 374.340,122.305 365.765,130.596 341.878 L 132.150 337.402 133.846 336.837 C 146.118 332.746,153.478 320.515,151.400 307.669 L 151.135 306.029 152.967 306.649 C 168.221 311.818,183.248 303.122,186.640 287.163 L 187.063 285.170 189.339 284.324 C 205.004 278.500,235.552 265.018,246.481 259.106 C 269.566 246.618,275.494 233.921,267.551 213.983 C 265.573 209.019,259.456 198.211,258.175 197.420 C 258.073 197.356,248.294 208.030,236.446 221.139 " stroke="none" fill-rule="evenodd"></path><path id="path1" d="" stroke="none" fill-rule="evenodd"></path></g></svg>