<svg id="svg" version="1.1" xmlns="http://www.w3.org/2000/svg" xmlns:xlink="http://www.w3.org/1999/xlink" width="400" height="400" viewBox="0, 0, 400,400"><g id="svgg"><path id="path0" d="M232.199 42.760 C 230.557 43.666,230.507 43.595,233.157 44.128 C 237.487 44.997,243.633 46.816,247.812 48.464 C 249.003 48.934,250.013 49.283,250.056 49.240 C 250.369 48.927,234.055 41.829,233.508 42.040 C 233.500 42.043,232.911 42.367,232.199 42.760 M257.819 60.893 C 257.861 61.024,259.022 61.996,260.398 63.052 C 269.968 70.391,274.781 76.340,280.746 88.196 C 283.455 93.581,284.251 94.895,285.056 95.311 C 285.697 95.643,285.704 95.632,285.881 94.119 C 286.046 92.708,286.813 90.297,287.506 89.015 C 289.424 85.464,285.627 80.593,273.274 70.763 C 264.965 64.150,257.291 59.249,257.819 60.893 M213.148 64.208 C 210.259 64.621,209.563 64.867,209.340 65.552 C 208.859 67.032,209.132 76.603,209.710 78.538 C 209.940 79.307,214.007 80.109,219.770 80.520 C 229.982 81.248,235.414 85.574,246.162 101.536 C 251.703 109.763,253.768 112.460,256.876 115.527 C 258.837 117.462,258.758 117.440,263.916 117.451 C 276.459 117.478,284.659 112.959,286.178 105.182 C 286.690 102.566,278.525 91.540,271.089 84.806 C 259.719 74.509,247.442 67.956,234.645 65.354 C 228.343 64.072,217.961 63.519,213.148 64.208 " stroke="none" fill="currentColor" fill-rule="evenodd"></path><path id="path1" d="M239.644 40.227 C 237.244 40.600,233.781 41.658,233.781 42.018 C 233.781 42.099,234.148 42.274,234.597 42.407 C 237.320 43.212,250.329 48.967,250.053 49.244 C 250.008 49.288,249.236 49.029,248.337 48.666 C 244.200 46.998,238.103 45.168,233.343 44.165 L 230.698 43.608 229.584 44.445 C 228.971 44.906,227.848 45.937,227.089 46.736 L 225.709 48.189 224.158 47.895 C 221.162 47.327,217.303 47.603,214.256 48.603 C 212.602 49.146,212.744 49.328,214.827 49.332 C 218.053 49.338,221.705 49.848,222.007 50.336 C 222.169 50.599,221.814 50.785,220.058 51.360 C 215.005 53.015,212.352 55.429,210.753 59.830 C 210.259 61.188,209.428 64.326,209.409 64.904 C 209.407 64.973,209.813 64.907,210.311 64.757 C 215.984 63.050,229.890 63.881,239.399 66.496 C 257.286 71.415,276.965 86.820,285.387 102.495 L 286.367 104.319 286.366 102.687 C 286.366 101.790,286.239 100.235,286.084 99.232 C 285.930 98.229,285.802 96.941,285.800 96.369 C 285.798 95.797,285.742 95.384,285.676 95.450 C 285.033 96.093,283.825 94.317,280.746 88.196 C 274.781 76.340,269.968 70.391,260.398 63.052 C 257.823 61.077,257.428 60.653,258.161 60.653 C 260.501 60.653,276.129 72.379,283.397 79.590 C 286.317 82.486,288.081 85.422,288.096 87.409 C 288.100 87.958,288.723 87.102,290.660 83.891 L 291.058 83.232 291.346 83.891 C 292.388 86.265,291.053 88.499,287.954 89.570 C 287.016 89.894,286.521 90.423,286.848 90.751 C 287.112 91.015,289.924 90.857,290.660 90.537 C 294.120 89.033,295.122 84.885,292.770 81.802 L 292.277 81.156 292.729 79.685 C 297.745 63.399,261.914 36.767,239.644 40.227 M209.886 79.482 C 212.124 89.901,221.743 101.360,235.004 109.406 C 241.074 113.089,249.863 116.068,257.891 117.163 L 258.680 117.270 256.957 115.593 C 253.833 112.550,251.777 109.874,246.162 101.536 C 235.385 85.531,229.955 81.222,219.674 80.514 C 215.608 80.234,211.713 79.606,210.103 78.970 C 209.783 78.844,209.760 78.897,209.886 79.482 " stroke="none" fill-rule="evenodd"></path></g></svg>