<svg id="svg" version="1.1" xmlns="http://www.w3.org/2000/svg" xmlns:xlink="http://www.w3.org/1999/xlink" viewBox="0, 0, 400,400"><g id="svgg"><path id="path0" d="M261.547 16.503 C 259.191 16.930,256.567 17.983,254.748 19.230 C 253.384 20.166,252.984 20.235,251.100 19.860 C 248.898 19.422,246.278 19.564,243.666 20.262 C 239.826 21.289,239.515 21.334,235.878 21.396 C 229.291 21.510,225.316 23.521,222.841 27.992 C 221.286 30.801,221.102 30.894,217.154 30.868 C 208.331 30.810,203.075 34.945,201.420 43.243 C 201.169 44.507,200.667 46.457,200.305 47.578 C 199.592 49.789,199.040 52.228,199.040 53.165 C 199.040 54.377,198.572 54.978,195.907 57.191 C 192.432 60.076,191.092 61.810,190.110 64.699 C 188.332 69.925,189.621 76.014,193.276 79.655 C 194.970 81.342,199.492 85.403,199.582 85.317 C 199.762 85.144,198.776 83.676,198.169 83.212 C 196.094 81.630,196.077 78.877,198.128 76.635 C 199.455 75.184,200.073 74.311,201.153 72.361 C 204.504 66.311,207.029 64.061,209.503 64.919 C 210.428 65.240,213.437 67.529,214.133 68.442 C 214.637 69.103,215.387 69.321,215.656 68.884 C 216.184 68.031,219.125 67.492,221.839 67.750 C 225.040 68.055,226.714 68.970,227.851 71.035 C 228.428 72.083,228.884 72.175,229.963 71.461 C 231.728 70.292,235.484 70.780,239.662 72.721 C 246.837 76.054,254.302 74.978,259.293 69.889 C 261.618 67.518,262.012 67.398,264.198 68.399 C 268.183 70.223,270.817 74.464,270.824 79.066 C 270.831 83.913,277.694 86.460,281.607 83.069 C 283.649 81.299,283.838 81.081,284.071 80.214 C 284.971 76.872,286.074 75.915,288.964 75.967 C 290.880 76.002,291.323 75.827,292.321 74.644 C 294.984 71.486,299.767 72.873,301.143 77.203 L 301.371 77.919 302.473 77.363 C 303.079 77.057,303.915 76.745,304.330 76.670 C 304.746 76.595,305.208 76.437,305.358 76.319 C 305.546 76.169,305.650 76.166,305.698 76.308 C 306.350 78.245,307.926 79.554,310.853 80.593 C 315.185 82.130,317.044 81.695,318.509 78.800 C 318.812 78.201,319.644 77.068,320.358 76.281 C 322.484 73.941,323.101 71.805,322.468 68.978 C 321.791 65.951,318.451 64.424,315.932 65.989 C 315.377 66.335,314.895 66.591,314.863 66.558 C 314.462 66.158,313.445 62.796,313.439 61.852 C 313.436 61.466,313.530 61.420,314.326 61.420 C 316.738 61.420,320.486 59.814,321.210 58.469 L 321.578 57.785 322.388 58.259 C 323.385 58.843,323.494 58.845,324.572 58.305 L 325.439 57.870 325.427 54.799 C 325.410 50.229,324.271 47.375,321.166 44.125 C 319.843 42.740,319.038 42.126,316.077 40.240 C 315.183 39.670,314.741 39.182,313.737 37.655 C 311.092 33.631,308.205 31.646,303.774 30.805 C 301.807 30.432,301.093 29.962,299.714 28.130 C 295.838 22.980,289.633 21.081,283.601 23.198 C 280.715 24.211,280.288 24.108,278.072 21.865 C 273.851 17.594,267.286 15.464,261.547 16.503 M328.454 80.134 C 327.781 82.331,326.345 83.830,324.388 84.378 C 323.052 84.753,322.649 85.198,322.649 86.297 C 322.649 86.760,322.470 87.656,322.251 88.288 C 321.560 90.284,321.935 90.625,323.457 89.384 C 325.859 87.427,327.687 84.569,328.423 81.621 C 328.841 79.947,328.865 78.793,328.454 80.134 M229.939 82.982 C 228.427 83.997,226.927 84.137,225.432 83.402 C 223.763 82.581,223.214 82.724,221.397 84.452 C 220.189 85.602,219.150 86.231,218.077 86.463 C 217.516 86.584,217.365 86.764,216.806 87.974 C 215.015 91.854,210.229 92.363,208.443 88.863 C 207.882 87.763,207.543 87.650,206.209 88.116 C 205.390 88.403,204.739 88.492,203.802 88.443 C 202.294 88.365,202.307 88.411,204.197 89.801 C 207.770 92.431,214.319 95.168,218.906 95.950 C 221.464 96.387,230.643 96.302,232.369 95.827 L 233.931 95.396 234.968 95.855 C 235.538 96.107,236.606 96.498,237.340 96.724 C 238.075 96.949,239.547 97.474,240.612 97.889 C 243.017 98.826,245.280 99.232,248.101 99.232 C 250.693 99.232,250.591 99.145,251.252 101.919 C 252.069 105.340,253.380 108.528,255.041 111.128 C 255.971 112.583,256.362 113.559,256.916 115.813 C 258.644 122.833,264.329 127.900,273.225 130.347 C 275.171 130.882,283.493 131.423,283.493 131.014 C 283.493 130.966,283.413 130.715,283.314 130.456 C 283.215 130.196,282.992 128.536,282.818 126.765 C 282.375 122.276,282.293 122.115,281.143 123.491 C 278.201 127.010,273.836 125.176,272.669 119.930 C 272.261 118.096,271.525 116.931,270.114 115.887 C 268.376 114.602,267.259 113.389,266.950 112.454 C 266.759 111.878,266.474 111.491,266.046 111.228 C 265.702 111.017,264.687 110.218,263.791 109.453 C 262.895 108.688,262.085 108.061,261.990 108.061 C 261.077 108.061,259.944 106.210,259.676 104.281 C 259.561 103.460,259.341 102.442,259.186 102.018 C 259.030 101.594,258.781 100.698,258.632 100.026 C 258.285 98.468,257.700 97.479,256.090 95.737 C 255.379 94.967,254.616 94.105,254.394 93.820 C 254.173 93.535,253.541 93.131,252.990 92.922 C 251.534 92.368,251.146 92.061,250.369 90.847 C 249.986 90.248,249.222 89.190,248.672 88.497 C 248.122 87.803,247.392 86.790,247.051 86.245 C 246.108 84.739,245.507 84.658,243.634 85.788 C 241.245 87.228,239.888 87.069,236.064 84.897 C 231.666 82.398,231.082 82.215,229.939 82.982 " stroke="none" fill-rule="evenodd"></path><path id="path1" d="M321.210 58.469 C 320.486 59.814,316.738 61.420,314.326 61.420 C 313.530 61.420,313.436 61.466,313.439 61.852 C 313.445 62.796,314.462 66.158,314.863 66.558 C 314.895 66.591,315.377 66.335,315.932 65.989 C 318.451 64.424,321.791 65.951,322.468 68.978 C 323.101 71.805,322.484 73.941,320.358 76.281 C 319.644 77.068,318.812 78.201,318.509 78.800 C 317.044 81.695,315.185 82.130,310.853 80.593 C 307.926 79.554,306.350 78.245,305.698 76.308 C 305.650 76.166,305.546 76.169,305.358 76.319 C 305.208 76.437,304.746 76.595,304.330 76.670 C 303.915 76.745,303.079 77.057,302.473 77.363 L 301.371 77.919 301.143 77.203 C 299.767 72.873,294.984 71.486,292.321 74.644 C 291.323 75.827,290.880 76.002,288.964 75.967 C 286.074 75.915,284.971 76.872,284.071 80.214 C 283.838 81.081,283.649 81.299,281.607 83.069 C 277.694 86.460,270.831 83.913,270.824 79.066 C 270.817 74.464,268.183 70.223,264.198 68.399 C 262.012 67.398,261.618 67.518,259.293 69.889 C 254.302 74.978,246.837 76.054,239.662 72.721 C 235.484 70.780,231.728 70.292,229.963 71.461 C 228.884 72.175,228.428 72.083,227.851 71.035 C 226.714 68.970,225.040 68.055,221.839 67.750 C 219.125 67.492,216.184 68.031,215.656 68.884 C 215.387 69.321,214.637 69.103,214.133 68.442 C 213.437 67.529,210.428 65.240,209.503 64.919 C 207.029 64.061,204.504 66.311,201.153 72.361 C 200.073 74.311,199.455 75.184,198.128 76.635 C 196.055 78.902,196.089 81.572,198.213 83.254 C 198.645 83.597,199.118 84.211,199.312 84.682 C 199.975 86.297,200.272 86.783,200.982 87.425 C 202.214 88.539,204.212 88.797,206.227 88.103 C 207.543 87.651,207.884 87.768,208.443 88.863 C 210.229 92.363,215.015 91.854,216.806 87.974 C 217.365 86.764,217.516 86.584,218.077 86.463 C 219.150 86.231,220.189 85.602,221.397 84.452 C 223.214 82.724,223.763 82.581,225.432 83.402 C 226.927 84.137,228.427 83.997,229.939 82.982 C 231.082 82.215,231.666 82.398,236.064 84.897 C 239.888 87.069,241.245 87.228,243.634 85.788 C 245.507 84.658,246.108 84.739,247.051 86.245 C 247.392 86.790,248.122 87.803,248.672 88.497 C 249.222 89.190,249.986 90.248,250.369 90.847 C 251.146 92.061,251.534 92.368,252.990 92.922 C 253.541 93.131,254.173 93.535,254.394 93.820 C 254.616 94.105,255.379 94.967,256.090 95.737 C 257.700 97.479,258.285 98.468,258.632 100.026 C 258.781 100.698,259.030 101.594,259.186 102.018 C 259.341 102.442,259.561 103.460,259.676 104.281 C 259.944 106.210,261.077 108.061,261.990 108.061 C 262.085 108.061,262.895 108.688,263.791 109.453 C 264.687 110.218,265.702 111.017,266.046 111.228 C 266.474 111.491,266.759 111.878,266.950 112.454 C 267.259 113.389,268.376 114.602,270.114 115.887 C 271.525 116.931,272.261 118.096,272.669 119.930 C 273.836 125.176,278.201 127.010,281.143 123.491 C 282.291 122.118,282.375 122.280,282.808 126.694 C 283.286 131.557,283.245 131.504,286.245 131.097 C 292.863 130.199,297.264 127.138,300.295 121.328 C 301.189 119.614,301.513 119.397,304.174 118.733 C 313.838 116.322,319.281 108.342,319.699 95.969 C 319.818 92.454,319.920 92.102,320.956 91.635 C 321.984 91.172,322.352 90.613,322.058 89.967 C 321.878 89.572,321.912 89.266,322.243 88.311 C 322.466 87.666,322.649 86.760,322.649 86.297 C 322.649 85.198,323.052 84.753,324.388 84.378 C 328.370 83.263,330.102 78.095,328.146 73.168 C 327.233 70.870,327.123 70.033,327.544 68.599 C 328.288 66.064,327.823 61.955,326.493 59.321 C 325.782 57.912,325.500 57.766,324.545 58.316 C 323.624 58.846,323.378 58.840,322.388 58.259 L 321.578 57.785 321.210 58.469 " stroke="none" fill="currentColor" fill-rule="evenodd"></path></g></svg>