<svg id="svg" version="1.1" xmlns="http://www.w3.org/2000/svg" xmlns:xlink="http://www.w3.org/1999/xlink" viewBox="0, 0, 400,400"><g id="svgg"><path id="path0" d="M272.089 175.094 C 271.057 175.367,269.923 176.575,269.045 178.334 C 268.628 179.171,268.139 179.872,267.893 179.989 C 267.659 180.099,266.962 180.425,266.345 180.713 C 265.214 181.240,264.950 181.524,263.716 183.539 C 263.323 184.180,262.755 184.707,261.788 185.327 C 258.202 187.626,256.325 190.603,255.828 194.779 C 255.718 195.697,255.464 197.143,255.262 197.991 C 254.860 199.676,254.785 202.060,255.085 203.637 C 255.253 204.527,255.223 204.753,254.811 205.653 C 254.151 207.095,253.966 207.900,253.768 210.183 C 253.507 213.180,253.097 213.957,251.029 215.369 C 248.110 217.362,246.449 220.961,246.449 225.292 C 246.449 230.220,247.633 233.011,251.481 237.161 C 253.076 238.880,253.319 239.237,253.613 240.297 C 254.114 242.097,254.724 243.151,256.216 244.794 C 257.229 245.909,257.595 246.461,257.674 246.990 C 257.732 247.379,257.906 248.278,258.061 248.989 C 258.424 250.655,258.311 250.940,256.541 252.792 C 251.008 258.583,256.308 267.777,264.875 267.249 L 266.699 267.137 269.098 268.097 C 270.417 268.626,272.318 269.244,273.321 269.471 C 276.802 270.261,277.264 270.399,278.983 271.162 C 284.381 273.561,287.613 274.280,292.987 274.280 C 297.110 274.280,297.157 274.299,297.624 276.095 C 298.730 280.346,300.993 281.535,308.157 281.628 C 311.373 281.669,311.438 281.662,312.668 281.120 C 314.058 280.508,315.245 280.185,317.656 279.762 C 321.663 279.059,324.756 276.188,325.974 272.040 C 326.429 270.492,326.581 270.320,328.265 269.451 C 331.207 267.932,334.595 264.029,335.734 260.845 C 336.141 259.706,336.180 259.277,336.183 255.950 C 336.185 252.687,336.233 252.143,336.636 250.779 C 337.558 247.666,337.023 245.101,335.014 242.995 C 334.199 242.141,333.808 241.529,333.454 240.553 C 332.404 237.661,332.428 237.982,333.036 235.027 C 334.303 228.872,333.904 225.136,331.698 222.486 C 329.931 220.362,329.842 219.327,331.163 216.208 C 333.598 210.457,330.468 205.005,324.723 204.993 C 323.382 204.990,323.344 204.933,323.700 203.423 C 324.973 198.023,323.171 192.921,319.253 190.834 C 318.245 190.297,317.958 190.012,317.202 188.799 C 314.835 185.001,311.213 183.912,306.196 185.489 C 304.074 186.156,304.125 186.181,303.071 183.973 C 301.318 180.300,298.579 178.751,295.106 179.467 C 292.599 179.984,292.690 180.002,291.437 178.777 C 289.994 177.366,288.451 176.630,286.448 176.397 C 285.615 176.299,284.406 176.004,283.762 175.740 C 281.836 174.951,280.293 174.747,278.339 175.023 C 277.106 175.198,276.332 175.207,275.422 175.060 C 273.940 174.819,273.096 174.828,272.089 175.094 " stroke="none" fill-rule="evenodd"></path></g></svg>