<svg id="svg" version="1.1" xmlns="http://www.w3.org/2000/svg" xmlns:xlink="http://www.w3.org/1999/xlink" viewBox="0, 0, 400,400"><g id="svgg"><path id="path0" d="M229.202 42.803 C 216.751 44.115,203.641 54.534,200.605 65.529 C 200.390 66.309,200.443 66.335,201.430 65.922 C 206.278 63.897,215.114 62.671,221.641 63.118 C 245.581 64.757,263.401 79.720,266.707 100.960 L 266.841 101.823 263.507 98.560 C 246.245 81.664,225.134 72.137,202.639 71.091 L 199.808 70.959 199.808 72.099 C 199.808 75.953,202.316 79.982,206.334 82.583 C 209.615 84.707,212.583 85.943,222.310 89.234 C 235.708 93.768,241.719 96.738,247.161 101.517 C 258.413 111.396,262.653 129.089,259.039 151.088 C 258.790 152.601,258.606 153.861,258.629 153.888 C 258.653 153.915,259.744 153.425,261.054 152.799 C 267.477 149.728,274.636 147.396,282.282 145.883 C 285.628 145.221,291.156 144.451,291.328 144.623 C 291.641 144.936,291.798 150.953,291.586 154.511 C 290.333 175.536,280.345 191.338,261.560 202.019 C 252.699 207.057,241.931 210.141,234.632 209.731 L 232.700 209.622 230.602 212.150 C 222.659 221.717,212.254 230.145,202.134 235.208 C 194.720 238.917,189.762 240.225,178.407 241.466 C 164.420 242.995,155.020 246.102,143.570 252.980 C 120.768 266.678,105.751 285.741,101.088 306.910 C 99.906 312.274,100.261 313.084,101.921 308.817 C 105.387 299.909,109.799 294.702,116.887 291.154 C 117.923 290.635,118.813 290.211,118.866 290.211 C 118.918 290.211,118.405 291.269,117.725 292.562 C 106.942 313.079,103.710 327.389,107.303 338.704 C 110.579 349.023,108.743 357.385,101.358 365.772 C 100.506 366.740,99.808 367.594,99.808 367.670 C 99.808 367.866,116.814 367.622,120.058 367.380 C 130.423 366.606,131.612 366.419,139.703 364.293 C 167.092 357.096,190.095 349.298,226.583 334.841 C 257.185 322.717,270.379 315.219,281.862 303.429 C 302.530 282.207,313.053 250.005,311.895 211.522 C 311.198 188.336,307.700 175.229,295.087 148.530 C 282.512 121.912,279.640 111.010,280.155 91.843 C 280.679 72.300,279.079 64.750,272.780 57.043 C 270.743 54.550,261.758 49.101,255.846 46.772 C 248.391 43.836,236.380 42.047,229.202 42.803 " stroke="none" fill-rule="evenodd"></path><path id="path1" d="M214.125 63.171 C 210.416 63.455,206.337 64.298,202.450 65.582 C 200.060 66.372,200.078 66.347,199.871 69.307 L 199.755 70.957 202.613 71.089 C 225.137 72.137,246.236 81.655,263.507 98.560 L 266.841 101.823 266.707 100.960 C 263.025 77.306,240.537 61.145,214.125 63.171 M288.004 144.916 C 278.392 146.245,269.039 148.981,261.048 152.802 C 259.735 153.429,258.639 153.965,258.612 153.992 C 258.585 154.019,258.246 155.464,257.858 157.203 C 254.013 174.464,245.696 192.399,234.851 206.814 L 232.829 209.501 233.353 209.622 C 238.893 210.904,252.281 207.295,261.560 202.019 C 280.150 191.450,290.125 175.850,291.571 155.086 C 291.776 152.146,291.689 146.032,291.427 144.962 C 291.302 144.452,291.350 144.453,288.004 144.916 " stroke="none" fill="currentColor" fill-rule="evenodd"></path></g></svg>