<svg id="svg" version="1.1" xmlns="http://www.w3.org/2000/svg" xmlns:xlink="http://www.w3.org/1999/xlink" viewBox="0, 0, 400,400"><g id="svgg"><path id="path0" d="M274.472 177.534 C 259.790 180.667,248.024 197.545,249.314 213.625 C 250.440 227.674,259.176 240.975,271.142 246.859 C 275.385 248.945,276.224 248.897,273.768 246.706 C 270.376 243.680,267.574 238.904,267.565 236.132 C 267.560 234.677,268.056 235.187,271.065 239.731 C 278.338 250.715,284.041 254.508,294.875 255.566 C 302.192 256.281,303.978 257.647,304.211 262.707 C 304.354 265.814,304.661 266.055,306.593 264.579 C 310.124 261.883,315.067 253.706,317.379 246.737 C 319.932 239.041,320.203 233.531,318.399 226.008 C 316.481 218.012,317.659 217.364,323.608 223.142 C 325.068 224.560,326.356 225.720,326.471 225.720 C 327.751 225.720,322.213 214.826,316.615 206.334 C 302.631 185.120,287.472 174.760,274.472 177.534 " stroke="none" fill-rule="evenodd"></path><path id="path1" d="M301.919 188.352 C 301.919 188.385,302.200 188.666,302.543 188.976 L 303.167 189.539 302.603 188.916 C 302.078 188.334,301.919 188.204,301.919 188.352 M304.031 190.463 C 304.031 190.496,304.311 190.777,304.655 191.087 L 305.278 191.651 304.715 191.027 C 304.189 190.445,304.031 190.315,304.031 190.463 " stroke="none" fill-rule="evenodd"></path></g></svg>