<svg id="svg" version="1.1" xmlns="http://www.w3.org/2000/svg" xmlns:xlink="http://www.w3.org/1999/xlink" viewBox="0, 0, 400,400"><g id="svgg"><path id="path0" d="M236.084 66.033 C 229.695 66.913,226.439 68.230,224.659 70.654 C 223.516 72.212,221.305 75.530,221.305 75.688 C 221.305 75.725,222.709 75.809,224.424 75.874 C 251.413 76.900,268.464 90.554,272.827 114.636 C 273.127 116.287,273.603 118.018,274.185 119.573 C 282.614 142.075,277.766 178.409,263.101 202.639 C 262.191 204.143,261.493 205.374,261.550 205.374 C 262.050 205.374,268.607 199.710,271.778 196.538 C 297.226 171.091,307.661 127.706,295.011 99.944 C 287.242 82.892,269.483 69.851,249.328 66.396 C 246.644 65.935,238.427 65.710,236.084 66.033 " stroke="none" fill="currentColor" fill-rule="evenodd"></path><path id="path1" d="M261.900 48.297 C 249.084 49.364,237.717 55.372,228.396 66.005 C 225.681 69.102,225.704 69.036,227.605 68.215 C 236.596 64.328,251.011 65.241,263.330 70.477 C 291.937 82.638,304.859 108.477,299.117 142.035 C 295.537 162.956,285.651 182.666,271.778 196.538 C 268.607 199.710,262.050 205.374,261.550 205.374 C 261.493 205.374,262.191 204.143,263.101 202.639 C 276.344 180.759,281.842 147.886,276.016 125.432 C 274.937 121.276,272.921 115.666,273.222 117.658 C 274.202 124.146,273.727 139.770,272.263 149.202 C 270.399 161.215,267.262 170.065,259.190 186.084 C 252.025 200.304,250.783 203.915,250.803 210.461 C 250.851 226.901,266.228 241.792,291.902 250.262 C 301.747 253.510,312.862 255.131,313.521 253.414 C 313.756 252.800,312.931 252.107,308.195 248.944 C 297.570 241.848,292.921 236.580,291.088 229.559 C 288.682 220.345,290.739 214.352,301.925 197.985 C 313.932 180.416,318.689 171.137,323.094 156.695 C 331.943 127.684,330.387 100.896,318.769 82.246 C 305.402 60.788,281.716 46.648,261.900 48.297 " stroke="none" fill-rule="evenodd"></path></g></svg>