<svg id="svg" xmlns="http://www.w3.org/2000/svg" xmlns:xlink="http://www.w3.org/1999/xlink" width="400" height="400" viewBox="0, 0, 400,400" version="1.1"><g id="svgg"><path id="path0" d="M284.667 116.619 C 290.900 117.181,301.100 117.181,307.333 116.619 C 313.567 116.058,308.467 115.598,296.000 115.598 C 283.533 115.598,278.433 116.058,284.667 116.619 M221.333 119.178 C 191.586 124.171,177.999 140.659,187.883 159.773 C 197.289 177.963,211.565 178.124,310.667 161.157 C 343.107 155.603,347.501 154.612,346.059 153.170 C 345.378 152.489,335.337 153.753,323.744 155.977 C 239.133 172.213,203.278 173.999,193.570 162.462 C 174.475 139.768,192.087 124.340,241.768 120.243 C 267.739 118.101,267.801 118.080,248.000 118.070 C 237.000 118.064,225.000 118.563,221.333 119.178 M340.000 124.118 C 351.733 127.650,362.533 130.449,364.000 130.339 C 368.129 130.028,327.192 117.342,322.667 117.530 C 320.467 117.621,328.267 120.586,340.000 124.118 M244.730 122.665 C 202.677 125.918,189.333 132.077,189.333 148.234 C 189.333 168.635,204.771 171.610,264.520 162.723 C 335.693 152.137,363.145 145.490,368.626 137.517 C 369.934 135.614,370.599 135.782,370.626 138.022 C 370.648 139.867,365.635 143.390,359.486 145.850 C 353.336 148.311,349.597 150.755,351.176 151.281 C 355.241 152.636,372.000 142.836,372.000 139.104 C 372.000 137.397,371.400 135.962,370.667 135.916 C 369.933 135.870,359.733 132.760,348.000 129.006 C 323.377 121.127,290.620 119.115,244.730 122.665 M59.093 127.765 C 35.642 129.644,29.333 135.029,29.333 153.164 C 29.333 172.853,35.459 176.000,73.778 176.000 C 113.375 176.000,123.437 171.459,124.801 152.974 C 126.556 129.178,111.850 123.536,59.093 127.765 M114.462 134.904 C 126.481 145.017,126.264 160.551,114.000 168.029 C 102.482 175.052,47.497 175.885,37.927 169.182 C 19.628 156.365,32.646 132.555,59.114 130.431 C 100.895 127.079,105.616 127.460,114.462 134.904 M60.563 133.108 C 37.058 134.872,34.770 136.712,34.708 153.906 C 34.653 169.037,38.534 170.667,74.624 170.667 C 112.124 170.667,120.000 167.448,120.000 152.125 C 120.000 131.915,111.731 129.269,60.563 133.108 " stroke="none" fill="#000000" fill-rule="evenodd"></path></g></svg>