<svg id="svg" xmlns="http://www.w3.org/2000/svg" xmlns:xlink="http://www.w3.org/1999/xlink" width="400" height="400" viewBox="0, 0, 400,400" version="1.1"><g id="svgg"><path id="path0" d="M210.462 138.462 C 201.160 147.763,200.543 156.580,208.486 166.679 L 214.306 174.078 243.820 172.167 C 260.052 171.116,281.133 169.281,290.667 168.089 L 308.000 165.922 286.667 167.002 C 274.933 167.596,253.817 168.828,239.740 169.740 C 211.917 171.542,205.333 168.346,205.333 153.035 C 205.333 137.804,212.487 134.788,252.422 133.185 L 289.333 131.704 253.795 131.185 L 218.256 130.667 210.462 138.462 M306.667 135.945 C 339.831 140.496,351.572 141.341,342.667 138.535 C 338.267 137.148,324.467 135.463,312.000 134.790 C 289.772 133.589,289.669 133.612,306.667 135.945 M61.428 140.048 C 36.538 144.975,24.524 160.408,36.877 171.587 C 44.972 178.913,114.038 178.026,123.640 170.473 C 150.781 149.124,111.825 130.072,61.428 140.048 M213.798 142.172 C 194.139 163.098,213.538 172.026,264.474 165.497 C 275.213 164.120,302.338 161.535,324.752 159.751 C 366.013 156.469,371.122 154.515,357.123 147.373 C 352.969 145.253,352.184 144.065,354.920 144.039 C 360.146 143.991,369.592 153.948,366.915 156.683 C 365.847 157.774,352.755 160.103,337.820 161.858 L 310.667 165.050 337.047 164.049 C 369.123 162.833,375.722 159.058,365.254 147.915 C 360.666 143.032,357.077 141.489,352.801 142.562 C 349.497 143.391,331.466 142.265,312.730 140.059 C 258.480 133.672,221.032 134.471,213.798 142.172 M119.795 145.570 C 141.632 163.945,127.755 173.333,78.760 173.333 C 37.244 173.333,31.587 171.237,35.956 157.473 C 41.366 140.427,103.242 131.642,119.795 145.570 M64.710 144.857 C 45.568 148.476,35.726 156.067,38.567 165.020 C 40.964 172.571,113.765 173.854,121.143 166.476 C 138.775 148.845,107.333 136.800,64.710 144.857 " stroke="none" fill="#000000" fill-rule="evenodd"></path></g></svg>