<?xml version="1.0" encoding="UTF-8"?><svg id="Layer_2" xmlns="http://www.w3.org/2000/svg" viewBox="0 0 36.61 37.21"><g id="History_search"><g id="Art"><path class="cls-1" d="m18.32,7.58c.86,2.25,2.17,4.74,4.41,6.95,2.12,2.09,4.46,3.32,6.56,4.14-1.86.78-3.92,1.92-5.85,3.72-2.61,2.44-4.07,5.25-5.02,7.69-.79-2.11-1.98-4.49-4.03-6.67-2.29-2.44-4.9-3.83-7.2-4.74,2.21-.84,4.71-2.13,6.93-4.39,2.12-2.15,3.37-4.54,4.2-6.7M18.31,0h0c-1.94,0-1.31,7.09-6.32,12.18C6.97,17.27.02,16.6,0,18.61c-.02,2.04,7.16,1.51,12.2,6.87,4.77,5.07,4.12,11.7,6.1,11.74,0,0,.01,0,.02,0,2.08,0,1.65-7.46,7.17-12.63,4.94-4.62,11.12-4.13,11.11-5.98-.01-1.94-6.78-1.28-11.77-6.2C19.67,7.3,20.27,0,18.31,0h0Z"/></g></g></svg>