<svg id="svg" version="1.1" xmlns="http://www.w3.org/2000/svg" xmlns:xlink="http://www.w3.org/1999/xlink" viewBox="0, 0, 400,400"><g id="svgg"><path id="path0" d="M257.917 159.307 C 257.183 159.560,256.321 159.933,256.000 160.136 C 255.679 160.339,255.285 160.550,255.125 160.605 C 254.965 160.660,254.833 160.767,254.833 160.842 C 254.833 160.916,254.690 161.023,254.515 161.079 C 254.134 161.199,251.588 163.682,250.903 164.601 C 250.637 164.958,250.380 165.287,250.332 165.333 C 248.503 167.094,242.833 176.357,242.833 177.585 C 242.833 177.734,242.759 177.993,242.669 178.162 C 242.579 178.331,242.462 178.826,242.410 179.261 C 242.357 179.697,242.244 180.427,242.157 180.883 C 241.720 183.187,242.051 187.265,242.844 189.333 C 243.037 189.838,243.236 190.386,243.287 190.553 C 243.363 190.806,244.044 192.165,245.271 194.512 C 245.504 194.959,247.003 195.564,249.000 196.018 C 250.289 196.312,253.990 196.265,255.344 195.938 C 259.499 194.935,261.204 193.681,266.250 187.918 C 266.892 187.186,267.581 186.418,267.781 186.213 C 268.138 185.848,269.872 182.494,270.305 181.333 C 272.485 175.490,273.195 167.442,271.789 164.502 C 269.764 160.266,262.750 157.639,257.917 159.307 M262.583 165.078 C 268.362 166.637,269.610 170.540,266.938 178.696 C 265.539 182.967,260.896 189.580,259.544 189.226 C 258.575 188.973,258.738 188.364,260.447 185.865 C 261.908 183.729,262.389 182.342,263.528 177.000 C 264.326 173.254,263.706 169.649,262.000 168.115 C 259.833 166.167,257.745 166.100,255.363 167.905 C 253.937 168.985,253.379 169.016,253.085 168.030 C 252.846 167.228,255.577 165.407,257.775 164.903 C 258.974 164.628,261.220 164.710,262.583 165.078 M253.633 172.562 C 253.765 172.694,253.923 173.279,253.983 173.863 C 254.142 175.399,255.521 177.232,257.152 178.076 C 261.112 180.124,260.510 186.224,256.196 187.759 C 254.204 188.468,253.566 188.768,252.691 189.404 C 251.107 190.556,248.414 190.972,247.353 190.228 C 246.550 189.666,247.751 187.036,249.346 185.863 C 251.083 184.585,251.162 183.552,249.721 180.927 C 248.055 177.893,251.531 170.460,253.633 172.562 " stroke="none" fill="#3B241C" fill-rule="evenodd"></path><path id="path1" d="M257.417 165.145 C 254.681 165.932,252.627 167.603,253.420 168.396 C 253.828 168.804,254.004 168.745,255.326 167.756 C 257.609 166.047,259.425 166.060,261.877 167.801 C 263.689 169.088,264.456 172.555,263.765 176.333 C 262.803 181.592,262.034 183.802,260.274 186.373 C 259.285 187.818,258.982 188.426,259.100 188.733 C 259.852 190.692,265.162 183.718,266.806 178.613 C 268.258 174.106,268.558 170.739,267.670 168.917 C 266.202 165.902,261.192 164.059,257.417 165.145 M251.741 172.716 C 250.041 174.157,248.851 179.162,249.811 180.833 C 250.593 182.194,250.833 182.882,250.833 183.756 L 250.833 184.651 249.364 186.117 C 247.419 188.057,246.642 189.708,247.466 190.149 C 248.760 190.841,251.033 190.478,252.589 189.329 C 253.189 188.886,254.220 188.329,254.881 188.089 C 258.343 186.837,259.653 185.292,259.663 182.453 C 259.669 180.563,259.058 179.531,257.179 178.258 C 254.935 176.739,253.837 175.228,253.834 173.657 C 253.832 172.450,252.671 171.928,251.741 172.716 M267.088 187.125 C 260.331 195.648,254.249 198.150,246.720 195.504 C 246.193 195.318,245.751 195.167,245.737 195.167 C 245.523 195.167,246.030 196.177,246.530 196.744 C 248.130 198.562,252.031 198.872,256.428 197.530 C 256.888 197.390,257.207 197.244,258.000 196.812 C 258.137 196.737,258.512 196.545,258.833 196.385 C 259.154 196.225,259.492 196.036,259.583 195.964 C 259.675 195.893,260.227 195.484,260.811 195.055 C 262.078 194.125,263.899 192.372,264.679 191.333 C 264.988 190.921,265.284 190.546,265.335 190.500 C 265.493 190.360,267.167 187.663,267.167 187.549 C 267.167 187.491,267.287 187.310,267.434 187.148 C 267.581 186.985,267.674 186.773,267.642 186.676 C 267.610 186.579,267.360 186.781,267.088 187.125 " stroke="none" fill="#040404" fill-rule="evenodd"></path><path id="path2" d="M266.500 167.250 C 266.811 167.571,267.103 167.833,267.149 167.833 C 267.195 167.833,266.978 167.571,266.667 167.250 C 266.356 166.929,266.064 166.667,266.018 166.667 C 265.972 166.667,266.189 166.929,266.500 167.250 M262.250 168.333 C 262.608 168.700,262.938 169.000,262.984 169.000 C 263.030 169.000,262.775 168.700,262.417 168.333 C 262.059 167.967,261.728 167.667,261.682 167.667 C 261.637 167.667,261.892 167.967,262.250 168.333 M263.889 173.833 C 263.889 174.521,263.919 174.802,263.955 174.458 C 263.991 174.115,263.991 173.552,263.955 173.208 C 263.919 172.865,263.889 173.146,263.889 173.833 M253.875 173.750 C 253.877 174.117,253.911 174.247,253.951 174.040 C 253.991 173.832,253.990 173.532,253.948 173.373 C 253.906 173.214,253.874 173.383,253.875 173.750 M255.250 176.667 C 255.608 177.033,255.938 177.333,255.984 177.333 C 256.030 177.333,255.775 177.033,255.417 176.667 C 255.059 176.300,254.728 176.000,254.682 176.000 C 254.637 176.000,254.892 176.300,255.250 176.667 M249.385 179.250 C 249.386 179.800,249.417 180.005,249.454 179.705 C 249.491 179.406,249.490 178.956,249.452 178.705 C 249.414 178.455,249.384 178.700,249.385 179.250 M258.000 178.719 C 258.000 178.748,258.244 178.991,258.542 179.260 L 259.083 179.750 258.594 179.208 C 258.138 178.703,258.000 178.590,258.000 178.719 M258.073 186.542 L 257.583 187.083 258.125 186.594 C 258.630 186.138,258.743 186.000,258.615 186.000 C 258.586 186.000,258.342 186.244,258.073 186.542 M261.667 187.583 C 261.262 187.996,260.968 188.333,261.014 188.333 C 261.060 188.333,261.428 187.996,261.833 187.583 C 262.238 187.171,262.532 186.833,262.486 186.833 C 262.440 186.833,262.072 187.171,261.667 187.583 M263.667 190.750 C 263.262 191.162,262.968 191.500,263.014 191.500 C 263.060 191.500,263.428 191.162,263.833 190.750 C 264.238 190.338,264.532 190.000,264.486 190.000 C 264.440 190.000,264.072 190.338,263.667 190.750 M250.294 196.285 C 250.501 196.324,250.801 196.323,250.960 196.281 C 251.120 196.239,250.950 196.207,250.583 196.209 C 250.217 196.211,250.086 196.245,250.294 196.285 M253.127 196.285 C 253.334 196.324,253.634 196.323,253.794 196.281 C 253.953 196.239,253.783 196.207,253.417 196.209 C 253.050 196.211,252.920 196.245,253.127 196.285 " stroke="none" fill="#2D1C17" fill-rule="evenodd"></path><path id="path3" d="M259.542 164.782 C 259.702 164.823,259.965 164.823,260.125 164.782 C 260.285 164.740,260.154 164.705,259.833 164.705 C 259.512 164.705,259.381 164.740,259.542 164.782 M268.209 171.417 C 268.211 171.783,268.245 171.914,268.285 171.706 C 268.324 171.499,268.323 171.199,268.281 171.040 C 268.239 170.880,268.207 171.050,268.209 171.417 M259.709 182.417 C 259.711 182.783,259.745 182.914,259.785 182.706 C 259.824 182.499,259.823 182.199,259.781 182.040 C 259.739 181.880,259.707 182.050,259.709 182.417 M248.658 186.625 L 248.083 187.250 248.708 186.676 C 249.290 186.141,249.410 186.000,249.283 186.000 C 249.255 186.000,248.974 186.281,248.658 186.625 M260.406 188.708 L 259.917 189.250 260.458 188.760 C 260.963 188.304,261.077 188.167,260.948 188.167 C 260.919 188.167,260.675 188.410,260.406 188.708 M262.744 191.875 L 261.917 192.750 262.792 191.923 C 263.273 191.468,263.667 191.074,263.667 191.048 C 263.667 190.924,263.512 191.062,262.744 191.875 M251.458 196.454 C 251.756 196.491,252.244 196.491,252.542 196.454 C 252.840 196.417,252.596 196.387,252.000 196.387 C 251.404 196.387,251.160 196.417,251.458 196.454 " stroke="none" fill="#100C08" fill-rule="evenodd"></path></g></svg>