<svg id="svg" version="1.1" xmlns="http://www.w3.org/2000/svg" xmlns:xlink="http://www.w3.org/1999/xlink" viewBox="0, 0, 400,400"><g id="svgg"><path id="path0" d="M258.250 159.182 C 257.069 159.555,255.334 160.364,255.334 160.542 C 255.334 160.610,255.221 160.667,255.083 160.667 C 254.946 160.667,254.833 160.725,254.833 160.797 C 254.833 160.869,254.590 161.071,254.292 161.245 C 253.043 161.976,249.508 166.017,247.711 168.769 C 246.403 170.773,245.836 171.664,245.605 172.083 C 245.453 172.358,245.257 172.696,245.169 172.833 C 241.740 178.199,240.962 184.887,243.143 190.250 C 244.217 192.890,245.483 194.899,246.269 195.209 C 250.380 196.830,255.627 196.544,259.249 194.502 C 261.072 193.474,262.296 192.372,265.082 189.250 C 265.982 188.242,267.017 187.084,267.383 186.678 C 268.020 185.970,269.833 182.816,269.833 182.415 C 269.833 182.309,269.885 182.171,269.948 182.108 C 270.146 181.909,271.191 178.833,271.060 178.833 C 271.021 178.833,271.068 178.684,271.165 178.502 C 272.149 176.664,272.846 168.350,272.241 165.667 C 271.213 161.104,263.494 157.527,258.250 159.182 M262.540 165.068 C 268.006 166.555,269.371 169.919,267.416 177.083 C 265.822 182.921,259.988 191.215,259.101 188.903 C 258.896 188.368,259.019 188.029,259.889 186.737 C 261.969 183.645,262.538 182.099,263.591 176.667 C 264.373 172.631,263.588 169.123,261.594 167.750 C 259.284 166.159,257.559 166.172,255.469 167.795 C 254.245 168.746,253.920 168.891,253.509 168.671 C 252.405 168.080,253.640 166.570,256.138 165.456 C 257.940 164.652,260.452 164.500,262.540 165.068 M253.634 172.569 C 253.754 172.685,253.884 173.206,253.923 173.727 C 254.047 175.347,255.164 176.819,257.353 178.246 C 261.400 180.884,260.506 186.109,255.702 187.895 C 254.865 188.206,253.858 188.662,253.465 188.908 C 253.072 189.154,252.341 189.613,251.841 189.928 C 250.187 190.968,247.000 190.704,247.000 189.527 C 247.000 188.903,248.043 187.148,248.875 186.373 C 250.408 184.944,250.627 184.678,250.727 184.128 C 250.863 183.375,250.652 182.611,249.941 181.278 C 249.246 179.975,249.215 179.619,249.586 177.150 C 250.123 173.571,252.222 171.197,253.634 172.569 " stroke="none" fill="#73443C" fill-rule="evenodd"></path><path id="path1" d="M257.583 165.075 C 255.147 165.675,252.894 167.353,253.308 168.261 C 253.580 168.859,253.988 168.764,255.268 167.808 C 256.828 166.641,257.354 166.443,258.616 166.544 C 263.235 166.915,264.927 170.980,263.419 178.083 C 262.502 182.404,261.944 183.842,260.107 186.619 C 258.889 188.459,258.805 188.751,259.408 189.026 C 260.598 189.569,264.564 184.358,266.404 179.833 C 267.944 176.048,268.575 171.272,267.808 169.220 C 266.657 166.145,261.587 164.090,257.583 165.075 M251.510 172.875 C 249.844 174.657,248.915 179.168,249.853 180.923 C 250.715 182.537,250.833 182.860,250.833 183.597 C 250.833 184.540,250.416 185.281,249.542 185.890 C 247.969 186.986,246.674 189.550,247.392 190.146 C 248.204 190.820,251.043 190.496,252.223 189.596 C 253.275 188.792,254.256 188.274,255.518 187.855 C 260.385 186.237,261.248 180.977,257.105 178.182 C 254.899 176.693,253.833 175.202,253.833 173.606 C 253.833 172.301,252.453 171.867,251.510 172.875 M266.005 188.358 C 262.334 192.597,260.263 194.322,257.628 195.338 C 254.129 196.688,250.083 196.750,246.809 195.506 C 245.692 195.081,245.697 195.081,245.792 195.582 C 246.295 198.210,251.333 199.133,256.417 197.528 C 256.919 197.370,259.344 196.167,259.500 195.999 C 259.546 195.949,259.806 195.767,260.078 195.594 C 261.460 194.712,263.660 192.675,264.678 191.333 C 264.991 190.921,265.304 190.558,265.374 190.528 C 265.443 190.497,265.500 190.414,265.500 190.343 C 265.500 190.271,265.875 189.644,266.333 188.949 C 266.792 188.254,267.167 187.631,267.167 187.564 C 267.167 187.497,267.287 187.310,267.434 187.148 C 267.581 186.985,267.674 186.781,267.642 186.694 C 267.610 186.607,266.873 187.356,266.005 188.358 " stroke="none" fill="#3C241C" fill-rule="evenodd"></path><path id="path2" d="M259.542 164.782 C 259.702 164.823,259.965 164.823,260.125 164.782 C 260.285 164.740,260.154 164.705,259.833 164.705 C 259.512 164.705,259.381 164.740,259.542 164.782 M268.214 171.417 C 268.216 171.875,268.248 172.043,268.286 171.789 C 268.325 171.536,268.324 171.161,268.284 170.956 C 268.244 170.751,268.213 170.958,268.214 171.417 M259.714 182.417 C 259.716 182.875,259.748 183.043,259.786 182.789 C 259.825 182.536,259.824 182.161,259.784 181.956 C 259.744 181.751,259.713 181.958,259.714 182.417 M251.542 196.453 C 251.794 196.491,252.206 196.491,252.458 196.453 C 252.710 196.415,252.504 196.383,252.000 196.383 C 251.496 196.383,251.290 196.415,251.542 196.453 " stroke="none" fill="#57342E" fill-rule="evenodd"></path><path id="path3" d="M263.885 173.750 C 263.886 174.300,263.917 174.505,263.954 174.205 C 263.991 173.906,263.990 173.456,263.952 173.205 C 263.914 172.955,263.884 173.200,263.885 173.750 M255.167 176.583 C 255.478 176.904,255.770 177.167,255.815 177.167 C 255.861 177.167,255.644 176.904,255.333 176.583 C 255.022 176.262,254.730 176.000,254.685 176.000 C 254.639 176.000,254.856 176.262,255.167 176.583 M249.385 179.250 C 249.386 179.800,249.417 180.005,249.454 179.705 C 249.491 179.406,249.490 178.956,249.452 178.705 C 249.414 178.455,249.384 178.700,249.385 179.250 M258.000 178.719 C 258.000 178.748,258.244 178.991,258.542 179.260 L 259.083 179.750 258.594 179.208 C 258.138 178.703,258.000 178.590,258.000 178.719 M261.667 187.583 C 261.262 187.996,260.968 188.333,261.014 188.333 C 261.060 188.333,261.428 187.996,261.833 187.583 C 262.238 187.171,262.532 186.833,262.486 186.833 C 262.440 186.833,262.072 187.171,261.667 187.583 " stroke="none" fill="#663C34" fill-rule="evenodd"></path></g></svg>