<svg id="svg" version="1.1" xmlns="http://www.w3.org/2000/svg" xmlns:xlink="http://www.w3.org/1999/xlink" viewBox="0, 0, 400,400"><g id="svgg"><path id="path0" d="M257.417 165.145 C 254.681 165.932,252.627 167.603,253.420 168.396 C 253.828 168.804,254.004 168.745,255.326 167.756 C 257.609 166.047,259.425 166.060,261.877 167.801 C 263.689 169.088,264.456 172.555,263.765 176.333 C 262.764 181.801,262.138 183.550,260.051 186.708 C 258.437 189.151,258.931 189.984,260.947 188.220 C 265.666 184.091,269.583 172.844,267.670 168.917 C 266.198 165.894,261.201 164.056,257.417 165.145 M251.741 172.716 C 250.041 174.157,248.851 179.162,249.811 180.833 C 251.363 183.535,251.280 184.248,249.173 186.320 C 247.419 188.044,246.671 189.723,247.466 190.149 C 248.711 190.815,251.054 190.474,252.467 189.421 C 253.650 188.539,253.925 188.396,255.378 187.901 C 260.350 186.210,261.313 181.057,257.179 178.258 C 254.935 176.739,253.837 175.228,253.834 173.657 C 253.832 172.450,252.671 171.928,251.741 172.716 M267.001 187.218 C 260.479 195.572,254.206 198.135,246.720 195.504 C 246.193 195.318,245.751 195.167,245.737 195.167 C 245.523 195.167,246.030 196.177,246.530 196.744 C 249.913 200.588,259.919 197.604,264.678 191.333 C 264.991 190.921,265.304 190.558,265.374 190.528 C 265.443 190.497,265.500 190.414,265.500 190.343 C 265.500 190.271,265.875 189.644,266.333 188.949 C 266.792 188.254,267.167 187.615,267.167 187.530 C 267.167 187.444,267.279 187.281,267.417 187.167 C 267.680 186.948,267.753 186.660,267.542 186.676 C 267.473 186.681,267.230 186.925,267.001 187.218 " stroke="none" fill="#74443C" fill-rule="evenodd"></path><path id="path1" d="M258.132 159.237 C 256.774 159.695,255.333 160.366,255.333 160.539 C 255.333 160.609,255.250 160.667,255.149 160.667 C 254.680 160.667,252.496 162.688,250.916 164.583 C 250.382 165.225,249.897 165.787,249.840 165.833 C 249.782 165.879,249.308 166.517,248.785 167.250 C 248.263 167.983,247.760 168.674,247.668 168.785 C 247.576 168.895,247.500 169.035,247.500 169.096 C 247.500 169.156,247.250 169.553,246.944 169.978 C 246.638 170.402,246.095 171.237,245.736 171.833 C 245.377 172.428,244.993 173.066,244.882 173.249 C 244.771 173.433,244.626 173.696,244.560 173.833 C 244.495 173.971,244.282 174.346,244.088 174.667 C 241.648 178.700,241.283 185.840,243.277 190.544 C 244.497 193.422,245.430 194.878,246.265 195.207 C 250.380 196.830,255.625 196.545,259.249 194.502 C 261.074 193.473,262.303 192.366,265.079 189.250 C 265.978 188.242,266.990 187.117,267.328 186.750 C 267.666 186.383,267.994 185.971,268.056 185.833 C 268.119 185.696,268.306 185.358,268.472 185.083 C 272.426 178.549,273.786 167.462,271.123 163.475 C 268.744 159.912,262.332 157.820,258.132 159.237 M262.540 165.068 C 268.006 166.555,269.371 169.919,267.416 177.083 C 265.822 182.921,259.988 191.215,259.101 188.903 C 258.896 188.368,259.019 188.029,259.889 186.737 C 261.990 183.614,262.527 182.153,263.591 176.667 C 264.373 172.631,263.588 169.123,261.594 167.750 C 259.281 166.157,257.553 166.171,255.469 167.801 C 254.243 168.759,253.846 168.918,253.429 168.613 C 252.477 167.917,253.633 166.580,256.167 165.445 C 257.934 164.653,260.464 164.503,262.540 165.068 M253.634 172.569 C 253.754 172.685,253.884 173.206,253.923 173.727 C 254.047 175.347,255.164 176.819,257.353 178.246 C 261.400 180.884,260.506 186.109,255.702 187.895 C 254.865 188.206,253.858 188.662,253.465 188.908 C 253.072 189.154,252.341 189.613,251.841 189.928 C 250.187 190.968,247.000 190.704,247.000 189.527 C 247.000 188.903,248.043 187.148,248.875 186.373 C 250.398 184.954,250.621 184.685,250.728 184.150 C 250.866 183.459,250.610 182.545,249.905 181.216 C 249.249 179.980,249.219 179.593,249.586 177.150 C 250.123 173.571,252.222 171.197,253.634 172.569 " stroke="none" fill="#C4846C" fill-rule="evenodd"></path><path id="path2" d="M266.500 167.250 C 266.811 167.571,267.103 167.833,267.149 167.833 C 267.195 167.833,266.978 167.571,266.667 167.250 C 266.356 166.929,266.064 166.667,266.018 166.667 C 265.972 166.667,266.189 166.929,266.500 167.250 M263.889 173.833 C 263.889 174.521,263.919 174.802,263.955 174.458 C 263.991 174.115,263.991 173.552,263.955 173.208 C 263.919 172.865,263.889 173.146,263.889 173.833 M255.167 176.583 C 255.478 176.904,255.770 177.167,255.815 177.167 C 255.861 177.167,255.644 176.904,255.333 176.583 C 255.022 176.262,254.730 176.000,254.685 176.000 C 254.639 176.000,254.856 176.262,255.167 176.583 M249.385 179.250 C 249.386 179.800,249.417 180.005,249.454 179.705 C 249.491 179.406,249.490 178.956,249.452 178.705 C 249.414 178.455,249.384 178.700,249.385 179.250 M258.000 178.719 C 258.000 178.748,258.244 178.991,258.542 179.260 L 259.083 179.750 258.594 179.208 C 258.138 178.703,258.000 178.590,258.000 178.719 M261.667 187.583 C 261.262 187.996,260.968 188.333,261.014 188.333 C 261.060 188.333,261.428 187.996,261.833 187.583 C 262.238 187.171,262.532 186.833,262.486 186.833 C 262.440 186.833,262.072 187.171,261.667 187.583 M263.906 190.542 L 263.417 191.083 263.958 190.594 C 264.463 190.138,264.577 190.000,264.448 190.000 C 264.419 190.000,264.175 190.244,263.906 190.542 " stroke="none" fill="#A8705C" fill-rule="evenodd"></path><path id="path3" d="M259.542 164.782 C 259.702 164.823,259.965 164.823,260.125 164.782 C 260.285 164.740,260.154 164.705,259.833 164.705 C 259.512 164.705,259.381 164.740,259.542 164.782 M268.212 171.333 C 268.212 171.746,268.245 171.915,268.284 171.708 C 268.324 171.502,268.324 171.165,268.284 170.958 C 268.245 170.752,268.212 170.921,268.212 171.333 M259.709 182.417 C 259.711 182.783,259.745 182.914,259.785 182.706 C 259.824 182.499,259.823 182.199,259.781 182.040 C 259.739 181.880,259.707 182.050,259.709 182.417 M248.658 186.625 L 248.083 187.250 248.708 186.676 C 249.290 186.141,249.410 186.000,249.283 186.000 C 249.255 186.000,248.974 186.281,248.658 186.625 M260.406 188.708 L 259.917 189.250 260.458 188.760 C 260.963 188.304,261.077 188.167,260.948 188.167 C 260.919 188.167,260.675 188.410,260.406 188.708 M262.744 191.875 L 261.917 192.750 262.792 191.923 C 263.273 191.468,263.667 191.074,263.667 191.048 C 263.667 190.924,263.512 191.062,262.744 191.875 M251.458 196.454 C 251.756 196.491,252.244 196.491,252.542 196.454 C 252.840 196.417,252.596 196.387,252.000 196.387 C 251.404 196.387,251.160 196.417,251.458 196.454 " stroke="none" fill="#945C4F" fill-rule="evenodd"></path></g></svg>