<?xml version="1.0" encoding="UTF-8"?><svg id="Base_-_ear" xmlns="http://www.w3.org/2000/svg" viewBox="0 0 500 500"><defs><style>.cls-1{fill:#8e4c32;}.cls-2{fill:#c07a59;}</style></defs><path class="cls-2" d="m322.81,200.08c-6.76,1.64-10.41,7.16-13.76,12.24-1.51,2.29-4.26,6.55-5.38,12.82-1.07,5.99-.05,10.49.26,11.74.87,3.47,1.54,6.14,3.9,7.9,3.61,2.68,8.58,1.31,11.83.42,6.81-1.88,10.76-6.42,12.05-7.95,2.18-2.57,3.28-4.89,4.43-7.32,1.42-3,3.34-7.05,3.72-12.29.28-3.95.79-11.03-4.01-15.2-4.8-4.17-11.72-2.68-13.05-2.36Z"/><g id="Ear_copy_2"><g><path class="cls-1" d="m307.84,244.77c3.34,1.01,8.25,1.82,13.21.06,1.49-.53,2.68-1.19,3.3-1.53,4.1-2.28,6.75-5.19,8.28-7.19-.63,1.14-1.63,2.75-3.1,4.49-1.51,1.78-3.48,4.11-6.85,5.71-1.44.69-4.08,1.94-7.62,1.59-3.73-.37-6.25-2.3-7.23-3.14Z"/><path class="cls-1" d="m314.9,215.81c-.6.37-1.17,1.17-1.91,3.71-.27.92-.93,3.3-.33,6.2.51,2.47,1.52,3.27.98,4.56-.4.95-1.08.85-2.14,2.05-1.11,1.25-2.25,3.48-1.61,4.47,1.07,1.64,6.82-.56,7.5-.82,3.12-1.19,6.17-2.36,7.11-5.25.64-2,.26-4.77-1.25-6.44-1.09-1.2-4.52-3.77-5.1-4.61-.16-.23-.28-.47-.28-.47-.25-.5-.33-.92-.36-1.07-.32-1.58-.49-2.39-.98-2.66-.58-.32-1.45.22-1.63.33Z"/><path class="cls-1" d="m316.42,210.88c-.24-.4,2.9-4.07,7.66-4.73.43-.06,6.22-.77,9.62,3.26,2.9,3.43,2.09,7.98,1.63,10.6-1.77,10.01-10.52,16.15-10.92,15.81-.27-.22,3.11-3.25,4.89-9.29.78-2.64.93-4.74,1.14-7.83.29-4.12-.12-5.28-.49-6.03-.12-.24-1.45-2.82-4.24-3.75-4.45-1.49-9.02,2.42-9.29,1.96Z"/></g></g></svg>