<svg id="svg" version="1.1" xmlns="http://www.w3.org/2000/svg" xmlns:xlink="http://www.w3.org/1999/xlink" viewBox="0, 0, 400,400"><g id="svgg"><path id="path0" d="M257.556 165.070 C 255.170 165.649,252.896 167.357,253.308 168.261 C 253.583 168.865,253.943 168.768,255.482 167.670 C 257.408 166.296,258.609 166.159,260.638 167.085 C 263.469 168.377,264.587 171.663,263.759 176.250 C 262.764 181.752,262.125 183.568,260.107 186.619 C 258.967 188.343,258.858 188.624,259.200 188.967 C 260.224 189.991,264.453 184.630,266.404 179.833 C 267.952 176.027,268.580 171.283,267.808 169.220 C 266.656 166.142,261.591 164.092,257.556 165.070 M251.502 172.875 C 250.617 173.807,249.862 175.574,249.670 177.162 C 249.373 179.627,249.427 180.102,250.167 181.566 C 251.179 183.565,251.077 184.593,249.761 185.667 C 247.849 187.226,246.637 189.519,247.392 190.146 C 248.204 190.820,251.043 190.496,252.223 189.596 C 253.275 188.792,254.256 188.274,255.518 187.855 C 260.385 186.237,261.248 180.977,257.105 178.182 C 254.862 176.668,253.833 175.206,253.833 173.532 C 253.833 172.265,252.452 171.876,251.502 172.875 M266.999 187.196 C 261.546 194.019,257.747 196.333,252.000 196.333 C 249.924 196.333,248.309 196.076,246.809 195.506 C 245.687 195.080,245.696 195.079,245.797 195.605 C 246.270 198.083,251.666 199.143,256.083 197.627 C 259.061 196.604,262.731 193.917,264.677 191.333 C 264.987 190.921,265.285 190.546,265.339 190.500 C 265.393 190.454,265.798 189.817,266.241 189.083 C 266.683 188.350,267.190 187.540,267.367 187.283 C 267.908 186.499,267.613 186.429,266.999 187.196 " stroke="none" fill="#FCCCAC" fill-rule="evenodd"></path><path id="path1" d="M258.667 159.094 C 258.346 159.215,257.933 159.325,257.750 159.337 C 257.567 159.350,256.967 159.612,256.417 159.921 C 255.867 160.229,255.143 160.633,254.808 160.819 C 254.205 161.153,251.718 163.566,250.750 164.754 C 250.475 165.092,250.118 165.529,249.957 165.726 C 249.149 166.713,248.167 168.055,248.167 168.173 C 248.167 168.245,248.018 168.480,247.836 168.694 C 247.366 169.248,246.466 170.608,245.927 171.583 C 245.673 172.042,245.382 172.518,245.281 172.643 C 245.055 172.919,244.872 173.235,244.333 174.277 C 244.104 174.721,243.877 175.121,243.828 175.167 C 243.342 175.622,242.423 178.782,242.164 180.891 C 241.627 185.271,242.215 188.660,244.152 192.333 C 244.466 192.929,244.890 193.757,245.095 194.174 C 245.912 195.835,251.698 196.815,255.417 195.922 C 259.450 194.954,261.311 193.578,266.247 187.917 C 266.886 187.183,267.580 186.418,267.788 186.216 C 267.996 186.014,268.167 185.733,268.167 185.591 C 268.167 185.449,268.230 185.333,268.307 185.333 C 268.428 185.333,269.647 183.044,269.771 182.583 C 269.890 182.143,270.374 180.900,270.484 180.751 C 270.776 180.357,271.582 177.191,271.843 175.417 C 271.924 174.867,272.033 174.229,272.085 174.000 C 272.137 173.771,272.215 173.283,272.259 172.917 C 272.975 166.924,272.332 164.068,269.806 162.020 C 269.511 161.780,269.146 161.471,268.996 161.333 C 266.924 159.429,261.112 158.169,258.667 159.094 M261.750 164.897 C 265.857 165.706,268.333 168.126,268.333 171.331 C 268.333 174.253,267.110 179.035,265.667 181.757 C 263.366 186.094,260.313 189.691,259.364 189.183 C 258.643 188.797,258.846 188.118,260.273 186.147 C 261.760 184.091,262.400 182.294,263.528 177.000 C 264.326 173.254,263.706 169.649,262.000 168.115 C 259.833 166.167,257.745 166.100,255.363 167.905 C 254.247 168.750,253.828 168.910,253.466 168.626 C 251.326 166.943,257.661 164.091,261.750 164.897 M253.708 172.680 C 253.888 172.900,254.000 173.319,254.000 173.774 C 254.000 175.241,255.029 176.636,257.188 178.098 C 261.132 180.768,260.574 186.201,256.196 187.759 C 254.204 188.468,253.566 188.768,252.691 189.404 C 251.107 190.556,248.414 190.972,247.353 190.228 C 246.550 189.666,247.751 187.036,249.346 185.863 C 251.085 184.584,251.162 183.558,249.716 180.918 C 248.012 177.807,251.692 170.213,253.708 172.680 " stroke="none" fill="#FCECDC" fill-rule="evenodd"></path><path id="path2" d="M259.375 164.786 C 259.627 164.824,260.040 164.824,260.292 164.786 C 260.544 164.748,260.337 164.717,259.833 164.717 C 259.329 164.717,259.123 164.748,259.375 164.786 M268.217 171.333 C 268.217 171.838,268.248 172.044,268.286 171.792 C 268.324 171.540,268.324 171.127,268.286 170.875 C 268.248 170.623,268.217 170.829,268.217 171.333 M259.717 182.333 C 259.717 182.838,259.748 183.044,259.786 182.792 C 259.824 182.540,259.824 182.127,259.786 181.875 C 259.748 181.623,259.717 181.829,259.717 182.333 M264.406 190.042 L 263.917 190.583 264.458 190.094 C 264.963 189.638,265.077 189.500,264.948 189.500 C 264.919 189.500,264.675 189.744,264.406 190.042 " stroke="none" fill="#FCDCC4" fill-rule="evenodd"></path><path id="path3" d="M261.833 167.885 C 261.833 167.914,262.077 168.158,262.375 168.427 L 262.917 168.917 262.427 168.375 C 261.971 167.870,261.833 167.757,261.833 167.885 M263.885 173.750 C 263.886 174.300,263.917 174.505,263.954 174.205 C 263.991 173.906,263.990 173.456,263.952 173.205 C 263.914 172.955,263.884 173.200,263.885 173.750 M253.875 173.583 C 253.877 173.950,253.911 174.080,253.951 173.873 C 253.991 173.666,253.990 173.366,253.948 173.206 C 253.906 173.047,253.874 173.217,253.875 173.583 M249.372 178.667 C 249.372 178.987,249.406 179.119,249.448 178.958 C 249.490 178.798,249.490 178.535,249.448 178.375 C 249.406 178.215,249.372 178.346,249.372 178.667 M258.000 178.719 C 258.000 178.748,258.244 178.991,258.542 179.260 L 259.083 179.750 258.594 179.208 C 258.138 178.703,258.000 178.590,258.000 178.719 M258.073 186.542 L 257.583 187.083 258.125 186.594 C 258.630 186.138,258.743 186.000,258.615 186.000 C 258.586 186.000,258.342 186.244,258.073 186.542 M263.406 191.042 L 262.917 191.583 263.458 191.094 C 263.963 190.638,264.077 190.500,263.948 190.500 C 263.919 190.500,263.675 190.744,263.406 191.042 M250.375 196.282 C 250.535 196.323,250.798 196.323,250.958 196.282 C 251.119 196.240,250.987 196.205,250.667 196.205 C 250.346 196.205,250.215 196.240,250.375 196.282 M253.042 196.282 C 253.202 196.323,253.465 196.323,253.625 196.282 C 253.785 196.240,253.654 196.205,253.333 196.205 C 253.012 196.205,252.881 196.240,253.042 196.282 " stroke="none" fill="#FCE4CC" fill-rule="evenodd"></path></g></svg>