<svg id="svg" version="1.1" xmlns="http://www.w3.org/2000/svg" xmlns:xlink="http://www.w3.org/1999/xlink" viewBox="0, 0, 400,400"><g id="svgg"><path id="path0" d="M258.417 159.123 C 257.571 159.367,256.155 160.028,254.880 160.774 C 253.911 161.342,251.580 163.670,250.039 165.609 C 249.535 166.244,247.969 168.368,247.711 168.766 C 247.598 168.940,247.140 169.646,246.693 170.333 C 246.247 171.021,245.755 171.808,245.602 172.083 C 245.449 172.358,245.179 172.808,245.003 173.083 C 241.975 177.815,241.153 183.897,242.811 189.294 C 243.312 190.923,245.566 195.323,245.787 195.102 C 245.828 195.061,246.125 195.139,246.448 195.274 C 249.605 196.593,253.844 196.615,257.366 195.332 C 260.072 194.346,261.399 193.325,264.624 189.752 C 265.865 188.376,267.123 186.983,267.418 186.657 C 269.224 184.661,271.259 179.413,272.003 174.833 C 273.137 167.860,272.442 163.931,269.721 161.921 C 269.370 161.662,269.008 161.361,268.917 161.251 C 267.462 159.511,261.362 158.275,258.417 159.123 M261.777 164.916 C 267.666 166.041,269.306 169.409,267.499 176.667 C 266.039 182.528,260.020 191.298,259.101 188.903 C 258.894 188.363,259.030 188.039,260.252 186.174 C 261.996 183.511,262.594 181.807,263.591 176.667 C 264.104 174.023,263.756 170.211,262.887 168.958 C 261.503 166.960,258.004 165.951,256.417 167.092 C 253.923 168.885,253.678 168.990,253.294 168.429 C 252.021 166.569,257.833 164.163,261.777 164.916 M253.634 172.578 C 253.754 172.689,253.884 173.205,253.923 173.725 C 254.046 175.333,255.316 176.989,257.446 178.315 C 261.404 180.780,260.339 186.275,255.583 187.922 C 254.850 188.176,253.709 188.744,253.047 189.184 C 251.128 190.463,251.021 190.500,249.258 190.500 C 246.908 190.500,246.573 190.070,247.495 188.235 C 248.037 187.155,248.423 186.692,249.553 185.766 C 250.999 184.581,251.134 183.488,250.073 181.567 C 248.101 177.996,251.159 170.277,253.634 172.578 " stroke="none" fill="#FCCBAB" fill-rule="evenodd"></path><path id="path1" d="M257.583 165.075 C 254.996 165.712,252.626 167.602,253.420 168.396 C 253.827 168.803,254.018 168.742,255.268 167.808 C 257.736 165.962,260.189 166.111,262.375 168.240 C 265.282 171.072,264.087 180.592,260.060 186.688 C 258.886 188.465,258.807 188.753,259.418 189.031 C 260.306 189.436,262.166 187.353,264.893 182.901 C 267.376 178.847,268.840 171.978,267.808 169.220 C 266.660 166.152,261.578 164.092,257.583 165.075 M251.995 172.441 C 250.373 172.881,248.827 179.003,249.853 180.923 C 250.721 182.549,250.833 182.857,250.832 183.617 C 250.831 184.553,250.490 185.152,249.526 185.915 C 248.278 186.903,247.167 188.600,247.167 189.519 C 247.167 190.207,247.667 190.406,249.417 190.412 C 251.041 190.417,251.147 190.376,253.205 188.920 C 253.639 188.614,254.584 188.166,255.307 187.926 C 260.386 186.234,261.344 181.042,257.105 178.182 C 254.876 176.677,253.837 175.229,253.834 173.625 C 253.833 172.608,253.105 172.140,251.995 172.441 M266.000 188.373 C 262.376 192.577,260.303 194.307,257.675 195.320 C 254.127 196.688,250.101 196.757,246.809 195.506 C 245.692 195.081,245.697 195.081,245.792 195.582 C 246.288 198.176,252.162 199.235,256.417 197.497 C 259.682 196.163,262.780 193.851,264.677 191.333 C 264.987 190.921,265.285 190.546,265.339 190.500 C 265.393 190.454,265.798 189.817,266.241 189.083 C 266.683 188.350,267.190 187.540,267.367 187.283 C 268.169 186.121,267.441 186.701,266.000 188.373 " stroke="none" fill="#F4B484" fill-rule="evenodd"></path><path id="path2" d="M262.573 192.042 L 262.083 192.583 262.625 192.094 C 263.130 191.638,263.243 191.500,263.115 191.500 C 263.086 191.500,262.842 191.744,262.573 192.042 M251.542 196.453 C 251.794 196.491,252.206 196.491,252.458 196.453 C 252.710 196.415,252.504 196.383,252.000 196.383 C 251.496 196.383,251.290 196.415,251.542 196.453 " stroke="none" fill="#F4BC94" fill-rule="evenodd"></path><path id="path3" d="M266.167 166.885 C 266.167 166.914,266.410 167.158,266.708 167.427 L 267.250 167.917 266.760 167.375 C 266.304 166.870,266.167 166.757,266.167 166.885 M268.205 172.000 C 268.205 172.321,268.240 172.452,268.282 172.292 C 268.323 172.131,268.323 171.869,268.282 171.708 C 268.240 171.548,268.205 171.679,268.205 172.000 M263.890 173.750 C 263.891 174.483,263.920 174.763,263.956 174.371 C 263.991 173.979,263.990 173.379,263.954 173.037 C 263.919 172.696,263.890 173.017,263.890 173.750 M255.250 176.667 C 255.608 177.033,255.938 177.333,255.984 177.333 C 256.030 177.333,255.775 177.033,255.417 176.667 C 255.059 176.300,254.728 176.000,254.682 176.000 C 254.637 176.000,254.892 176.300,255.250 176.667 M249.381 179.250 C 249.382 179.708,249.415 179.876,249.453 179.623 C 249.491 179.369,249.490 178.994,249.451 178.789 C 249.411 178.584,249.380 178.792,249.381 179.250 M261.740 187.542 L 261.250 188.083 261.792 187.594 C 262.297 187.138,262.410 187.000,262.281 187.000 C 262.252 187.000,262.009 187.244,261.740 187.542 M263.906 190.542 L 263.417 191.083 263.958 190.594 C 264.463 190.138,264.577 190.000,264.448 190.000 C 264.419 190.000,264.175 190.244,263.906 190.542 " stroke="none" fill="#FCC49C" fill-rule="evenodd"></path></g></svg>