<?xml version="1.0" encoding="UTF-8"?><svg xmlns="http://www.w3.org/2000/svg" viewBox="0 0 500 500"><g id="Makeup"><g id="Cyberpunk_lines"><path class="cls-1" d="m259.99,204.72c5.17,5.45,9.37,11.87,12.44,18.73,3.57,7.07,5.07,14.82,1.76,22.34-1.44,3.55-3.14,6.83-4.21,10.32-1.16,3.46-1.46,7.11-1.33,10.77.65,7.44.72,15.01.27,22.47-.33-7.5-.91-14.91-1.82-22.36-.33-3.8-.04-7.74,1.08-11.43,1.07-3.71,2.82-7.11,4.16-10.5,3.17-6.95,1.73-14.24-1.32-20.98-2.78-6.89-6.46-13.4-11.02-19.36h0Z"/><g id="Layer_47"><path class="cls-1" d="m188.18,206.41c-3.27,6.41-6.19,12.75-8.95,19.39.03-7.29,3.43-14.63,8.95-19.39h0Z"/></g></g></g></svg>