<svg id="svg" version="1.1" xmlns="http://www.w3.org/2000/svg" xmlns:xlink="http://www.w3.org/1999/xlink" viewBox="0, 0, 400,400"><g id="svgg"><path id="path0" d="M198.000 154.950 C 192.639 155.865,188.000 158.969,188.000 161.642 C 188.000 162.768,190.819 162.502,192.548 161.213 C 195.371 159.108,199.620 158.989,206.333 160.826 C 208.517 161.423,209.144 161.587,210.083 161.808 C 210.450 161.894,211.350 162.113,212.083 162.294 C 217.572 163.650,220.666 163.910,224.496 163.340 C 226.595 163.028,227.028 162.926,228.623 162.369 C 229.712 161.989,229.936 161.459,228.922 161.659 C 228.013 161.838,223.791 160.534,218.407 158.410 C 211.201 155.567,202.766 154.136,198.000 154.950 " stroke="none" fill="#343c44" fill-rule="evenodd"></path><path id="path1" d="M199.917 149.912 C 199.825 149.941,199.188 150.058,198.500 150.173 C 194.131 150.901,190.007 153.600,188.633 156.630 C 187.756 158.564,187.349 160.605,187.678 161.417 L 187.881 161.917 187.996 161.417 C 188.421 159.569,190.886 157.236,193.534 156.176 C 199.628 153.736,208.604 154.542,218.407 158.410 C 223.044 160.239,225.737 161.133,227.716 161.498 C 228.991 161.734,229.130 161.696,228.685 161.238 C 228.001 160.531,225.287 158.500,225.027 158.500 C 224.920 158.500,224.833 158.442,224.833 158.371 C 224.833 158.300,224.552 158.095,224.208 157.914 C 223.865 157.734,223.546 157.541,223.500 157.485 C 223.273 157.208,215.365 153.162,214.000 152.625 C 213.771 152.535,213.445 152.390,213.275 152.302 C 212.842 152.079,210.162 151.234,209.210 151.021 C 208.774 150.923,208.042 150.759,207.583 150.656 C 205.141 150.108,200.675 149.674,199.917 149.912 M147.417 151.234 C 147.325 151.268,146.800 151.387,146.250 151.499 C 144.705 151.813,144.364 151.980,144.259 152.475 C 144.138 153.041,144.394 154.558,144.756 155.417 C 145.230 156.545,145.991 158.226,146.252 158.722 C 146.388 158.981,146.500 159.300,146.500 159.430 C 146.500 159.778,147.072 159.719,148.052 159.271 C 152.132 157.406,156.813 158.426,161.167 162.131 C 163.341 163.981,163.412 164.022,163.800 163.633 C 164.056 163.377,164.059 161.660,163.804 160.769 C 163.427 159.454,161.255 156.621,159.317 154.917 C 157.889 153.661,155.497 152.279,154.000 151.845 C 153.587 151.726,153.025 151.552,152.750 151.460 C 152.268 151.299,147.757 151.108,147.417 151.234 " stroke="none" fill-rule="evenodd"></path></g></svg>