<svg id="svg" version="1.1" xmlns="http://www.w3.org/2000/svg" xmlns:xlink="http://www.w3.org/1999/xlink" viewBox="0, 0, 400,400"><path d="M198, 154.95L199.95, 154.75L202.19, 154.75L204.65, 154.94L207.29, 155.31L212.85, 156.56L218.41, 158.41L222.19, 159.84L223.86, 160.42L225.34, 160.9L226.62, 161.27L227.65, 161.53L228.43, 161.66L228.92, 161.66L229.46, 161.63L229.56, 161.8L229.27, 162.07L228.62, 162.37L227.6, 162.71L226.75, 162.95L225.8, 163.13L224.5, 163.34L221.71, 163.61L218.91, 163.54L215.8, 163.11L214.04, 162.75L212.08, 162.29L210.95, 162.02L210.08, 161.81L208.67, 161.46L207.71, 161.2L206.33, 160.83L203.93, 160.23L201.74, 159.82L199.77, 159.59L197.98, 159.54L196.38, 159.68L194.95, 160.01L193.68, 160.52L192.55, 161.21L191.11, 161.98L189.63, 162.33L188.47, 162.23L188.12, 162L188, 161.64L188.21, 160.62L188.81, 159.6L189.75, 158.59L190.99, 157.64L192.48, 156.76L194.18, 156.01L196.03, 155.39L198, 154.95"/><path d="M199.92, 149.91L200.36, 149.85L201.09, 149.85L203.12, 149.99L205.46, 150.28L207.58, 150.66L209.21, 151.02L210.19, 151.28L211.44, 151.66L212.59, 152.04L213.27, 152.3L214, 152.63L214.79, 152.98L216.03, 153.57L219.18, 155.15L220.75, 155.97L222.11, 156.68L223.08, 157.22L223.5, 157.49L223.74, 157.65L224.21, 157.91L224.65, 158.18L224.83, 158.37L225.03, 158.5L225.23, 158.59L225.61, 158.83L226.7, 159.6L227.86, 160.51L228.68, 161.24L228.9, 161.51L228.85, 161.63L228.47, 161.62L227.72, 161.5L226.08, 161.12L224.06, 160.5L221.54, 159.61L218.41, 158.41L214.77, 157.1L211.24, 156.09L207.84, 155.36L204.58, 154.93L201.5, 154.79L198.61, 154.95L195.95, 155.41L193.53, 156.18L191.61, 157.18L189.93, 158.5L188.67, 159.97L188, 161.42L187.88, 161.92L187.68, 161.42L187.57, 160.6L187.7, 159.44L188.07, 158.08L188.63, 156.63L189.27, 155.51L190.14, 154.45L191.21, 153.45L192.44, 152.54L195.31, 151.06L198.5, 150.17L199.43, 150.01L199.92, 149.91"/><path d="M147.42, 151.23L147.72, 151.2L148.33, 151.19L150.03, 151.24L151.76, 151.34L152.4, 151.4L152.75, 151.46L154, 151.85L155.26, 152.33L156.68, 153.07L158.09, 153.97L159.32, 154.92L160.78, 156.37L162.15, 157.99L163.22, 159.54L163.8, 160.77L163.99, 162.44L163.94, 163.2L163.8, 163.63L163.53, 163.82L163.15, 163.72L162.44, 163.2L161.89, 162.74L161.17, 162.13L159.52, 160.87L157.85, 159.86L156.18, 159.11L154.51, 158.61L152.85, 158.38L151.21, 158.41L149.61, 158.71L148.05, 159.27L147.4, 159.53L146.91, 159.65L146.6, 159.61L146.5, 159.43L146.43, 159.12L146.25, 158.72L145.97, 158.15L145.58, 157.31L144.76, 155.42L144.33, 153.84L144.23, 153.05L144.26, 152.48L144.4, 152.16L144.71, 151.92L145.3, 151.71L146.25, 151.5L147.01, 151.34L147.42, 151.23"/></svg>