<svg id="svg" xmlns="http://www.w3.org/2000/svg" xmlns:xlink="http://www.w3.org/1999/xlink" viewBox="0, 0, 400,400" version="1.1"><g id="svgg"><path id="path0" d="M198.667 183.883 L 124.000 185.333 104.832 194.318 C 69.135 211.052,59.086 239.983,86.576 246.882 C 103.995 251.254,308.473 222.326,319.836 213.882 C 339.917 198.960,324.802 180.989,292.922 181.883 C 282.148 182.185,239.733 183.085,198.667 183.883 M318.454 189.643 C 328.652 197.664,327.045 207.891,314.667 213.755 C 304.623 218.513,245.735 227.407,148.528 238.847 L 87.724 246.003 81.195 239.870 C 68.914 228.333,74.333 212.360,93.917 202.369 C 121.188 188.456,122.175 188.322,209.333 186.662 C 254.800 185.796,296.338 184.843,301.640 184.544 C 308.052 184.182,313.683 185.890,318.454 189.643 M212.000 189.347 C 123.052 191.031,121.028 191.287,95.636 204.063 C 77.534 213.171,71.360 230.630,83.442 238.546 C 91.691 243.951,282.028 222.160,312.000 212.379 C 329.516 206.663,322.920 185.710,304.073 187.199 C 300.366 187.492,258.933 188.459,212.000 189.347 " stroke="none" fill-rule="evenodd"></path></g></svg>