<svg id="svg" xmlns="http://www.w3.org/2000/svg" xmlns:xlink="http://www.w3.org/1999/xlink" viewBox="0, 0, 400,400" version="1.1"><g id="svgg"><path id="path0" d="M116.272 149.028 C 113.488 150.120,122.226 150.487,135.690 149.843 C 168.546 148.272,179.052 150.539,295.527 184.330 C 310.667 188.722,324.155 191.944,325.501 191.491 C 326.847 191.038,313.860 186.632,296.641 181.700 C 216.121 158.638,202.836 154.941,186.119 150.943 C 167.887 146.583,125.467 145.420,116.272 149.028 M113.333 155.566 C 85.364 164.841,74.190 178.395,79.999 195.998 C 83.232 205.794,101.559 221.333,109.880 221.333 C 113.028 221.333,116.201 225.059,118.992 232.034 C 130.300 260.298,180.216 271.826,227.196 257.026 C 255.452 248.124,264.521 243.494,298.288 220.730 C 313.480 210.489,327.545 201.870,329.544 201.577 C 331.543 201.283,334.114 200.016,335.256 198.761 C 336.399 197.505,335.833 197.341,334.000 198.397 C 332.167 199.452,330.667 199.292,330.667 198.041 C 330.667 196.791,324.367 194.349,316.667 192.615 C 308.967 190.881,275.067 181.521,241.333 171.815 C 173.678 152.348,137.057 147.699,113.333 155.566 M83.649 166.316 C 64.278 185.687,76.152 218.248,105.250 225.551 C 108.963 226.482,112.000 228.823,112.000 230.751 C 112.000 235.244,124.321 249.937,131.156 253.595 C 134.042 255.140,131.513 251.513,125.535 245.535 C 119.557 239.557,114.667 232.417,114.667 229.667 C 114.667 226.277,112.164 224.166,106.898 223.113 C 75.904 216.914,66.654 180.368,91.519 162.356 C 97.357 158.127,100.596 154.667,98.716 154.667 C 96.836 154.667,90.056 159.909,83.649 166.316 M293.333 226.852 C 241.756 262.495,190.449 275.406,154.826 261.706 C 138.265 255.337,132.774 256.133,148.356 262.644 C 182.706 276.996,233.730 268.588,275.692 241.660 C 304.940 222.891,328.000 207.300,328.000 206.295 C 328.000 203.549,321.338 207.499,293.333 226.852 " stroke="none" fill-rule="evenodd"></path></g></svg>