<svg id="svg" xmlns="http://www.w3.org/2000/svg" xmlns:xlink="http://www.w3.org/1999/xlink" viewBox="0, 0, 400,400" version="1.1"><g id="svgg"><path id="path0" d="M108.623 163.600 C 101.633 165.578,95.033 168.169,93.957 169.357 C 92.881 170.545,94.400 170.622,97.333 169.529 C 117.283 162.094,139.437 162.064,181.333 169.414 C 185.000 170.057,182.600 168.756,176.000 166.522 C 158.882 160.728,124.098 159.219,108.623 163.600 M117.333 168.561 C 109.267 169.855,98.634 171.202,93.706 171.554 C 61.351 173.865,58.474 212.493,89.140 232.855 C 97.313 238.281,104.000 243.817,104.000 245.156 C 104.000 250.601,118.864 264.700,131.681 271.413 C 168.323 290.604,218.265 278.895,287.184 234.955 C 298.633 227.656,315.498 217.203,324.662 211.726 C 333.826 206.249,340.858 201.302,340.289 200.733 C 339.214 199.658,310.576 216.629,292.000 229.349 C 210.475 285.174,130.541 292.130,106.737 245.471 C 103.705 239.529,99.470 234.667,97.326 234.667 C 88.732 234.667,69.333 212.133,69.333 202.150 C 69.333 192.043,76.511 180.721,86.207 175.533 C 89.393 173.828,87.500 176.677,82.000 181.865 C 65.162 197.746,69.815 217.335,93.269 229.301 C 99.340 232.398,106.049 239.027,110.089 245.922 C 137.064 291.950,200.581 283.540,301.333 220.598 C 346.536 192.358,348.051 188.874,314.184 191.044 C 283.402 193.017,250.479 189.149,198.667 177.473 C 151.975 166.951,137.355 165.349,117.333 168.561 M206.667 176.180 C 216.933 178.947,227.733 181.131,230.667 181.032 C 233.600 180.933,227.600 178.588,217.333 175.820 C 207.067 173.053,196.267 170.869,193.333 170.968 C 190.400 171.067,196.400 173.412,206.667 176.180 M246.667 183.863 C 264.505 187.631,307.043 189.423,324.000 187.120 C 337.546 185.280,334.683 184.937,305.333 184.883 C 286.267 184.848,262.867 184.097,253.333 183.214 C 240.497 182.026,238.767 182.194,246.667 183.863 " stroke="none" fill-rule="evenodd"></path></g></svg>