<svg id="svg" xmlns="http://www.w3.org/2000/svg" xmlns:xlink="http://www.w3.org/1999/xlink" viewBox="0, 0, 400,400" version="1.1"><g id="svgg"><path id="path0" d="M235.906 32.153 C 234.927 33.735,232.536 34.420,230.592 33.674 C 228.647 32.927,225.469 34.346,223.528 36.825 C 220.296 40.955,220.448 41.006,225.333 37.435 C 228.267 35.291,227.197 37.334,222.955 41.976 C 218.714 46.617,213.942 50.171,212.352 49.874 C 210.761 49.577,209.190 52.333,208.859 56.000 L 208.258 62.667 210.731 56.000 C 213.016 49.837,213.142 49.992,212.389 58.051 C 211.884 63.464,213.113 68.012,215.633 70.051 C 218.858 72.660,219.280 72.649,217.688 70.000 C 216.406 67.866,217.284 66.667,220.128 66.667 C 223.047 66.667,224.026 68.086,222.983 70.805 C 221.910 73.601,222.466 74.317,224.697 73.013 C 226.514 71.952,225.653 73.757,222.785 77.024 C 218.345 82.082,218.067 83.835,220.916 88.816 C 223.980 94.173,223.801 94.135,218.798 88.371 C 215.792 84.909,213.333 83.014,213.333 84.161 C 213.333 90.789,221.950 95.299,230.799 93.304 C 238.486 91.570,240.000 91.972,240.000 95.747 C 240.000 98.233,241.440 101.707,243.200 103.467 C 245.689 105.956,245.602 107.407,242.809 110.000 C 240.701 111.956,239.918 112.081,240.913 110.302 C 241.845 108.635,240.591 105.635,238.125 103.635 C 234.266 100.505,233.981 100.556,236.078 104.000 C 237.417 106.200,238.861 110.400,239.287 113.333 C 239.713 116.267,240.610 120.167,241.281 122.000 C 242.705 125.896,253.333 126.558,253.333 122.750 C 253.333 121.330,255.433 120.963,258.000 121.934 C 262.444 123.617,262.444 123.477,258.000 118.994 C 252.727 113.674,253.036 114.745,252.130 98.667 C 251.445 86.530,256.766 75.844,261.910 79.023 C 263.302 79.883,262.511 76.855,260.152 72.294 C 255.356 63.020,249.258 61.833,237.539 67.894 C 225.800 73.964,225.687 69.463,237.366 61.003 C 246.991 54.031,248.656 50.972,251.770 34.537 C 252.695 29.661,238.742 27.563,235.906 32.153 M254.701 85.278 C 253.813 86.715,254.180 90.015,255.516 92.612 C 256.853 95.209,257.417 99.133,256.770 101.333 C 255.759 104.773,255.970 104.793,258.278 101.477 C 260.038 98.948,260.065 95.947,258.357 92.755 C 256.925 90.079,256.480 86.715,257.367 85.278 C 258.255 83.842,258.381 82.667,257.648 82.667 C 256.915 82.667,255.588 83.842,254.701 85.278 M240.284 130.437 C 238.159 131.781,237.177 135.114,237.990 138.221 C 238.842 141.481,237.928 144.224,235.705 145.077 C 229.975 147.276,230.905 157.518,236.667 155.665 C 240.606 154.398,240.710 154.612,237.333 157.041 C 235.133 158.624,234.686 159.937,236.340 159.959 C 240.631 160.017,246.101 152.733,244.144 149.567 C 243.238 148.100,240.434 147.538,237.915 148.318 C 234.022 149.523,234.067 149.267,238.217 146.614 C 240.904 144.897,245.402 144.093,248.215 144.829 C 251.027 145.564,254.115 144.893,255.076 143.338 C 256.065 141.738,255.566 141.287,253.927 142.300 C 252.172 143.384,250.695 141.262,250.181 136.918 C 249.246 129.005,245.955 126.850,240.284 130.437 M187.706 142.122 C 191.983 145.249,191.723 145.565,184.962 145.455 C 173.207 145.263,169.740 155.170,173.626 177.852 C 175.335 187.834,176.826 198.043,176.939 200.540 C 177.051 203.037,177.675 204.547,178.326 203.896 C 178.977 203.245,181.104 204.037,183.053 205.654 C 185.219 207.451,189.464 207.791,193.965 206.527 C 198.018 205.389,202.118 204.617,203.078 204.811 C 204.037 205.004,206.437 203.101,208.411 200.581 C 211.677 196.413,211.564 196.342,207.166 199.799 C 202.702 203.306,202.468 203.055,204.108 196.519 C 205.229 192.051,203.609 182.286,199.718 170.053 C 196.326 159.390,193.471 149.467,193.372 148.000 C 193.073 143.564,189.205 138.667,186.000 138.667 C 184.339 138.667,185.107 140.222,187.706 142.122 M197.820 156.497 C 202.530 167.564,205.957 170.584,202.477 160.601 C 200.826 155.865,198.384 151.316,197.051 150.492 C 195.717 149.668,196.063 152.370,197.820 156.497 M222.342 160.058 C 220.758 161.642,217.052 163.120,214.106 163.342 C 209.757 163.669,209.083 164.990,210.520 170.365 C 212.656 178.352,216.768 180.170,221.690 175.303 C 223.694 173.322,227.522 170.872,230.197 169.859 C 235.876 167.707,235.189 159.097,229.247 157.953 C 227.034 157.526,223.926 158.474,222.342 160.058 M175.887 212.136 C 173.927 214.497,173.922 216.049,175.871 217.253 C 177.408 218.204,178.703 218.011,178.748 216.824 C 178.792 215.637,180.052 216.767,181.547 219.333 C 186.355 227.588,196.528 223.954,193.163 215.184 C 191.144 209.923,179.438 207.857,175.887 212.136 M182.674 231.976 C 180.679 238.262,182.874 242.667,188.000 242.667 C 193.534 242.667,195.267 238.104,192.029 232.055 C 188.368 225.214,184.830 225.184,182.674 231.976 M183.055 249.283 C 182.200 251.511,182.267 255.330,183.204 257.771 C 184.468 261.067,183.932 261.652,181.120 260.046 C 178.209 258.384,178.038 258.649,180.380 261.189 C 184.763 265.942,194.593 260.122,194.932 252.573 C 195.184 246.978,195.318 247.018,197.470 253.333 L 199.742 260.000 199.204 253.545 C 198.562 245.835,185.683 242.435,183.055 249.283 M184.215 267.741 C 181.677 270.800,181.666 272.972,184.166 277.643 C 187.284 283.469,187.468 283.493,191.095 278.532 C 197.738 269.447,191.248 259.266,184.215 267.741 M194.061 279.873 C 191.548 282.807,187.284 284.632,184.288 284.056 C 179.809 283.193,179.319 283.946,181.173 288.849 C 182.502 292.364,185.555 294.589,188.887 294.469 C 191.920 294.361,193.676 295.446,192.789 296.881 C 191.902 298.316,192.400 298.734,193.897 297.809 C 195.394 296.884,196.005 292.920,195.256 289.001 C 194.482 284.951,194.965 282.536,196.375 283.408 C 197.740 284.252,198.857 282.630,198.857 279.804 C 198.857 276.979,198.781 274.667,198.688 274.667 C 198.595 274.667,196.513 277.009,194.061 279.873 M182.994 302.776 C 182.071 305.181,182.033 308.308,182.909 309.726 C 185.208 313.445,181.629 325.831,178.766 324.062 C 173.967 321.095,177.991 350.943,184.151 364.000 C 187.611 371.333,190.492 378.133,190.554 379.111 C 190.616 380.089,191.759 381.889,193.094 383.111 C 194.483 384.382,194.775 384.026,193.776 382.279 C 192.816 380.600,193.596 378.625,195.510 377.890 C 199.219 376.467,203.967 362.843,207.681 342.964 C 208.961 336.112,208.945 331.416,207.644 332.220 C 206.373 333.005,205.333 333.075,205.333 332.375 C 205.333 331.676,204.509 328.905,203.501 326.218 C 201.830 321.764,202.123 321.682,206.834 325.287 C 211.915 329.176,211.917 329.145,206.977 323.350 C 204.214 320.110,200.822 318.158,199.439 319.013 C 198.056 319.868,194.358 317.812,191.220 314.444 C 186.454 309.328,186.298 308.621,190.275 310.147 C 194.083 311.608,194.864 310.782,194.184 306.014 C 193.164 298.871,185.359 296.613,182.994 302.776 M196.852 340.694 C 197.499 345.230,196.377 346.667,192.185 346.667 C 188.035 346.667,186.667 344.966,186.667 339.804 C 186.667 331.052,195.588 331.831,196.852 340.694 M189.333 340.000 C 189.333 342.200,190.533 344.000,192.000 344.000 C 193.467 344.000,194.667 342.200,194.667 340.000 C 194.667 337.800,193.467 336.000,192.000 336.000 C 190.533 336.000,189.333 337.800,189.333 340.000 M209.600 346.933 C 208.623 353.045,208.344 358.566,208.980 359.202 C 209.617 359.839,210.975 355.398,212.000 349.333 C 213.025 343.269,213.303 337.748,212.620 337.064 C 211.936 336.381,210.577 340.822,209.600 346.933 M174.787 355.333 C 175.784 358.633,177.697 362.506,179.039 363.939 C 180.381 365.372,180.128 362.672,178.478 357.939 C 175.101 348.252,171.982 346.050,174.787 355.333 " stroke="none" fill-rule="evenodd"></path></g></svg>