<svg id="svg" xmlns="http://www.w3.org/2000/svg" xmlns:xlink="http://www.w3.org/1999/xlink" viewBox="0, 0, 400,400" version="1.1"><g id="svgg"><path id="path0" d="M205.399 80.196 C 200.302 81.319,195.172 81.646,194.000 80.921 C 192.827 80.197,192.198 80.616,192.601 81.853 C 193.476 84.542,182.546 98.991,180.890 97.335 C 180.257 96.702,180.532 103.042,181.501 111.425 C 182.469 119.808,182.643 127.752,181.886 129.079 C 181.129 130.405,181.759 130.719,183.286 129.775 C 186.742 127.639,192.681 134.354,189.977 137.340 C 188.890 138.540,189.490 138.664,191.312 137.617 C 193.134 136.569,196.734 137.067,199.312 138.724 C 203.548 141.446,203.486 141.573,198.667 140.043 C 195.143 138.925,194.238 139.245,196.000 140.985 C 197.713 142.677,203.302 142.743,211.629 141.168 C 218.758 139.820,225.844 139.491,227.374 140.437 C 229.121 141.517,229.344 140.842,227.975 138.626 C 226.410 136.094,226.993 135.555,230.034 136.722 C 234.259 138.343,240.979 132.656,241.554 126.972 C 241.719 125.337,242.037 121.938,242.260 119.417 C 242.484 116.896,244.167 115.200,246.000 115.647 C 247.833 116.094,248.433 115.956,247.333 115.341 C 246.233 114.726,245.333 111.851,245.333 108.954 C 245.333 105.650,246.482 104.395,248.412 105.588 C 250.335 106.776,250.766 106.318,249.561 104.369 C 248.500 102.651,246.514 101.937,245.149 102.781 C 243.784 103.624,242.667 102.373,242.667 100.000 C 242.667 97.627,243.853 96.418,245.303 97.314 C 246.843 98.267,247.243 97.131,246.265 94.582 C 244.925 91.090,244.141 90.930,242.336 93.776 C 240.146 97.231,239.606 96.348,238.803 88.000 C 238.591 85.800,237.055 84.273,235.390 84.606 C 233.725 84.940,228.381 83.624,223.514 81.682 C 217.788 79.398,211.398 78.873,205.399 80.196 M159.798 260.586 C 154.979 265.992,154.691 266.853,158.667 263.965 C 163.933 260.141,163.937 260.166,158.977 265.983 C 156.214 269.223,152.974 271.269,151.777 270.529 C 150.580 269.789,148.275 271.918,146.653 275.259 C 144.155 280.407,144.236 280.683,147.186 277.066 C 150.122 273.467,150.608 275.554,150.289 290.399 C 149.883 309.321,151.491 312.887,163.139 318.911 C 173.714 324.379,172.524 321.583,161.333 314.667 C 156.200 311.494,152.000 307.587,152.000 305.984 C 152.000 304.382,155.096 305.980,158.881 309.535 C 165.373 315.635,202.141 320.289,198.602 314.563 C 197.995 313.580,200.527 309.929,204.230 306.450 C 209.853 301.168,210.644 300.956,209.028 305.167 C 207.787 308.401,208.093 309.591,209.881 308.485 C 214.571 305.587,211.350 268.950,205.929 263.529 C 200.594 258.194,178.880 256.064,168.021 259.810 C 162.057 261.868,161.748 261.653,165.014 257.718 C 171.068 250.423,166.732 252.808,159.798 260.586 " stroke="none" fill-rule="evenodd"></path></g></svg>