<svg id="svg" xmlns="http://www.w3.org/2000/svg" xmlns:xlink="http://www.w3.org/1999/xlink" viewBox="0, 0, 400,400" version="1.1"><g id="svgg"><path id="path0" d="M70.905 79.615 C 70.129 80.870,72.456 81.330,76.076 80.638 C 79.698 79.946,85.656 81.346,89.328 83.752 C 96.868 88.691,98.501 86.487,91.333 81.045 C 86.074 77.053,73.052 76.141,70.905 79.615 M70.667 85.130 C 56.790 90.959,51.097 105.388,57.751 117.867 C 60.332 122.707,62.493 127.762,62.555 129.100 C 62.923 137.115,93.469 129.712,98.452 120.401 C 108.593 101.452,89.502 77.218,70.667 85.130 M101.004 97.024 C 103.385 101.987,105.795 105.626,106.359 105.110 C 107.956 103.648,100.934 88.000,98.680 88.000 C 97.577 88.000,98.623 92.061,101.004 97.024 M97.747 124.877 C 95.319 127.559,93.333 130.742,93.333 131.951 C 93.333 133.160,95.733 131.382,98.667 128.000 C 101.600 124.618,104.000 121.434,104.000 120.925 C 104.000 118.928,101.969 120.211,97.747 124.877 M140.177 133.619 C 141.389 135.581,140.202 136.000,136.640 134.870 C 131.427 133.215,117.333 137.835,117.333 141.198 C 117.333 142.119,123.857 146.827,131.831 151.659 C 142.338 158.027,145.939 161.669,144.913 164.890 C 143.796 168.394,144.051 168.557,146.117 165.658 C 149.570 160.815,154.844 164.224,152.965 170.085 C 151.809 173.693,152.058 173.878,154.140 170.955 C 156.973 166.975,198.492 190.634,195.935 194.772 C 195.269 195.849,196.811 196.567,199.362 196.366 C 201.913 196.165,203.714 197.457,203.365 199.237 C 203.016 201.018,204.216 201.941,206.032 201.289 C 211.489 199.329,260.751 232.700,259.240 237.333 C 258.523 239.533,258.605 240.729,259.421 239.991 C 260.238 239.253,262.693 233.462,264.878 227.122 C 267.062 220.783,268.206 216.239,267.420 217.025 C 265.621 218.824,251.626 211.709,249.181 207.753 C 247.974 205.800,249.496 205.905,253.678 208.060 C 258.443 210.517,259.262 210.533,257.002 208.128 C 255.353 206.373,251.153 204.613,247.669 204.218 C 240.718 203.428,198.667 176.933,198.667 173.344 C 198.667 172.116,197.574 170.111,196.239 168.889 C 194.806 167.577,194.685 168.174,195.944 170.346 C 197.402 172.862,196.905 173.635,194.371 172.790 C 192.334 172.111,190.667 170.256,190.667 168.667 C 190.667 167.078,189.574 164.778,188.239 163.556 C 186.806 162.244,186.685 162.840,187.944 165.013 C 189.402 167.529,188.905 168.302,186.371 167.457 C 184.334 166.778,182.667 164.922,182.667 163.333 C 182.667 161.744,181.574 159.444,180.239 158.222 C 178.806 156.910,178.685 157.507,179.944 159.679 C 181.402 162.196,180.905 162.968,178.371 162.124 C 176.334 161.445,174.667 159.589,174.667 158.000 C 174.667 156.411,173.574 154.111,172.239 152.889 C 170.806 151.577,170.685 152.174,171.944 154.346 C 173.411 156.877,172.920 157.605,170.371 156.679 C 168.334 155.939,166.952 154.027,167.301 152.429 C 167.650 150.832,166.272 150.164,164.238 150.944 C 162.204 151.725,159.633 150.896,158.524 149.103 C 157.115 146.823,157.636 146.522,160.255 148.100 C 163.444 150.022,163.457 149.688,160.340 145.845 C 156.222 140.768,153.360 139.728,156.214 144.346 C 157.354 146.191,156.640 146.837,154.371 146.013 C 152.334 145.272,150.952 143.360,151.301 141.763 C 151.650 140.165,150.272 139.497,148.238 140.278 C 146.204 141.058,143.633 140.230,142.524 138.436 C 141.115 136.157,141.636 135.855,144.255 137.433 C 147.444 139.356,147.457 139.021,144.340 135.179 C 140.249 130.135,137.353 129.050,140.177 133.619 M160.000 176.130 C 169.817 182.793,174.756 184.379,168.371 178.817 C 164.909 175.801,160.709 173.352,159.038 173.374 C 157.367 173.397,157.800 174.637,160.000 176.130 M208.000 178.797 C 217.250 185.075,222.517 186.902,216.000 181.572 C 212.333 178.572,208.133 176.110,206.667 176.100 C 205.200 176.090,205.800 177.303,208.000 178.797 M209.795 205.547 C 213.103 209.551,229.333 219.762,229.333 217.838 C 229.333 217.217,224.233 213.345,218.000 209.234 C 211.767 205.123,208.074 203.464,209.795 205.547 M309.333 242.509 C 309.333 244.063,307.533 245.333,305.333 245.333 C 302.820 245.333,301.333 247.869,301.333 252.157 C 301.333 256.028,300.179 258.268,298.667 257.333 C 294.326 254.651,295.627 257.711,300.512 261.673 C 304.340 264.779,304.688 264.776,302.807 261.654 C 301.290 259.135,301.726 258.353,304.192 259.175 C 306.256 259.863,307.939 264.581,308.135 270.227 C 308.567 282.650,317.369 292.443,329.362 293.843 C 334.275 294.416,338.079 293.786,337.814 292.443 C 337.550 291.099,339.000 289.394,341.038 288.654 C 343.587 287.728,344.077 288.455,342.608 290.987 C 341.434 293.011,343.667 291.757,347.570 288.202 C 351.473 284.646,354.619 279.846,354.560 277.535 C 354.497 275.069,352.759 276.460,350.351 280.902 C 348.095 285.065,345.646 287.868,344.909 287.131 C 344.171 286.393,344.945 283.217,346.628 280.072 C 354.280 265.774,342.272 249.283,324.717 249.983 C 312.571 250.468,306.993 248.428,312.000 245.333 C 314.312 243.904,314.394 242.813,312.285 241.509 C 310.661 240.506,309.333 240.956,309.333 242.509 M303.002 274.667 C 304.664 284.233,305.923 287.066,307.645 285.111 C 308.183 284.500,306.994 279.800,305.002 274.667 L 301.380 265.333 303.002 274.667 M315.503 294.000 C 318.301 296.567,323.758 298.544,327.629 298.394 C 334.082 298.143,333.948 297.950,326.016 296.067 C 321.259 294.938,315.802 292.961,313.891 291.673 C 311.979 290.386,312.705 291.433,315.503 294.000 " stroke="none" fill-rule="evenodd"></path></g></svg>