<svg id="svg" xmlns="http://www.w3.org/2000/svg" xmlns:xlink="http://www.w3.org/1999/xlink" viewBox="0, 0, 400,400" version="1.1"><g id="svgg"><path id="path0" d="M181.644 95.420 C 177.081 103.945,182.736 115.416,196.170 124.885 C 209.528 134.300,213.333 141.716,213.333 158.331 C 213.333 175.768,217.911 180.071,235.064 178.758 C 273.707 175.799,281.221 177.906,294.245 195.350 C 327.242 239.546,183.877 322.954,143.800 282.877 C 126.742 265.819,119.217 201.670,131.482 177.866 C 138.047 165.123,138.055 165.021,133.154 155.199 C 130.447 149.773,127.513 142.962,126.635 140.063 C 125.179 135.260,124.594 135.497,120.037 142.730 C 88.006 193.572,93.960 289.055,130.730 314.216 C 150.029 327.422,215.454 317.430,263.478 293.941 C 350.308 251.473,353.895 152.662,268.965 142.774 C 250.625 140.639,246.901 138.076,237.796 121.320 C 224.973 97.722,189.234 81.237,181.644 95.420 " stroke="none" fill-rule="evenodd"></path></g></svg>