<svg id="svg" xmlns="http://www.w3.org/2000/svg" xmlns:xlink="http://www.w3.org/1999/xlink" viewBox="0, 0, 400,400" version="1.1"><g id="svgg"><path id="path0" d="M185.333 55.110 C 180.204 59.221,180.198 59.315,185.184 57.577 C 189.972 55.908,190.048 56.135,186.175 60.552 C 182.159 65.133,178.015 82.777,181.152 81.938 C 181.985 81.716,185.286 82.987,188.486 84.764 C 195.496 88.655,209.652 87.514,214.110 82.698 C 216.636 79.971,216.621 79.620,214.040 81.075 C 211.603 82.449,211.174 80.799,212.388 74.727 C 213.582 68.758,212.663 65.012,209.014 60.981 C 206.257 57.933,204.200 54.666,204.444 53.720 C 204.689 52.774,204.196 51.400,203.350 50.667 C 202.504 49.933,202.675 50.833,203.730 52.667 C 205.090 55.031,203.230 56.000,197.333 56.000 C 192.469 56.000,189.703 54.893,190.667 53.333 C 192.941 49.653,191.575 50.109,185.333 55.110 M188.232 91.042 C 189.266 92.714,190.236 98.414,190.389 103.708 C 190.671 113.500,207.542 119.214,212.497 111.196 C 213.439 109.671,212.826 109.332,211.079 110.412 C 209.173 111.590,208.000 110.426,208.000 107.357 C 208.000 101.071,202.999 96.000,196.800 96.000 C 194.160 96.000,192.000 94.200,192.000 92.000 C 192.000 89.800,190.729 88.000,189.176 88.000 C 187.623 88.000,187.198 89.369,188.232 91.042 M190.820 126.000 C 187.331 137.487,187.635 141.383,192.352 145.652 C 196.403 149.318,198.136 149.593,200.730 146.979 C 203.318 144.371,203.083 144.033,199.603 145.357 C 197.185 146.277,194.414 145.748,193.446 144.182 C 192.376 142.452,194.303 141.333,198.352 141.333 C 206.507 141.333,209.018 137.751,206.867 129.182 C 205.092 122.109,192.745 119.661,190.820 126.000 M185.549 154.667 C 178.648 162.776,178.322 166.396,185.189 158.667 L 192.296 150.667 187.762 158.121 C 184.075 164.183,183.530 169.491,184.845 186.546 C 186.719 210.849,184.321 214.949,169.625 212.564 C 160.812 211.134,154.583 214.191,154.748 219.867 C 154.792 221.407,156.052 220.567,157.547 218.000 C 159.042 215.433,161.416 213.333,162.822 213.333 C 164.228 213.333,163.877 215.737,162.042 218.676 C 157.189 226.446,162.212 232.822,175.569 235.845 L 186.667 238.358 186.693 278.512 C 186.723 324.480,193.181 347.674,205.431 345.804 C 211.086 344.941,215.967 339.732,215.865 334.667 C 215.835 333.200,213.971 335.000,211.721 338.667 C 209.472 342.333,208.615 342.933,209.816 340.000 C 211.017 337.067,212.256 313.211,212.568 286.987 C 212.881 260.763,213.481 239.023,213.902 238.674 C 217.639 235.580,234.905 234.823,233.168 237.830 C 231.983 239.882,232.150 240.413,233.572 239.111 C 234.908 237.889,236.055 235.489,236.121 233.778 C 236.188 232.067,237.739 230.984,239.569 231.371 C 242.073 231.902,242.199 230.775,240.078 226.813 C 238.529 223.918,237.578 220.148,237.964 218.435 C 238.350 216.722,235.067 214.858,230.667 214.294 C 209.756 211.612,210.712 212.875,210.211 187.283 C 209.610 156.614,209.494 155.272,207.268 153.046 C 203.748 149.526,188.986 150.628,185.549 154.667 M213.952 181.333 C 213.952 186.467,214.501 188.567,215.172 186.000 C 215.842 183.433,215.842 179.233,215.172 176.667 C 214.501 174.100,213.952 176.200,213.952 181.333 M172.039 240.063 C 173.811 242.930,184.000 245.200,184.000 242.728 C 184.000 241.570,181.036 240.055,177.414 239.363 C 173.792 238.670,171.373 238.986,172.039 240.063 M216.799 266.667 C 216.799 274.733,217.299 278.033,217.910 274.000 C 218.521 269.967,218.521 263.367,217.910 259.333 C 217.299 255.300,216.799 258.600,216.799 266.667 M182.342 288.000 C 182.342 304.867,182.775 311.767,183.304 303.333 C 183.833 294.900,183.833 281.100,183.304 272.667 C 182.775 264.233,182.342 271.133,182.342 288.000 " stroke="none" fill-rule="evenodd"></path></g></svg>