<svg id="svg" version="1.1" xmlns="http://www.w3.org/2000/svg" xmlns:xlink="http://www.w3.org/1999/xlink" viewBox="0, 0, 400,400"><g id="svgg"><path id="path0" d="M194.434 209.968 C 194.064 210.037,193.027 210.446,192.129 210.878 C 187.932 212.894,185.529 213.264,177.585 213.115 L 171.689 213.004 171.161 213.968 C 170.336 215.475,170.439 216.800,171.478 218.046 C 172.299 219.031,182.654 218.701,187.210 217.544 C 188.411 217.239,189.409 217.091,189.819 217.156 C 190.701 217.298,193.797 214.257,195.357 211.716 C 196.646 209.616,196.617 209.563,194.434 209.968 " stroke="none" fill="#c58882" fill-rule="evenodd"></path><path id="path1" d="M190.211 210.476 C 186.729 210.875,177.063 211.523,172.697 211.651 C 170.506 211.715,168.714 211.824,168.714 211.893 C 168.714 212.847,170.215 213.028,178.238 213.041 C 185.863 213.055,188.209 212.682,192.035 210.849 C 193.566 210.116,193.488 210.100,190.211 210.476 M186.624 217.758 C 184.156 218.376,180.649 218.684,175.720 218.714 C 170.208 218.748,170.161 218.760,172.121 219.633 C 177.235 221.909,185.567 221.007,189.556 217.746 L 190.115 217.288 189.251 217.302 C 188.776 217.310,187.594 217.515,186.624 217.758 " stroke="none" fill="#faf9f9" fill-rule="evenodd"></path><path id="path2" d="M169.818 211.658 C 170.372 211.697,171.279 211.697,171.833 211.658 C 172.387 211.619,171.934 211.587,170.825 211.587 C 169.717 211.587,169.263 211.619,169.818 211.658 M173.752 211.649 C 173.937 211.697,174.239 211.697,174.424 211.649 C 174.609 211.600,174.458 211.561,174.088 211.561 C 173.719 211.561,173.568 211.600,173.752 211.649 M170.780 212.996 C 171.018 213.042,171.364 213.040,171.547 212.992 C 171.731 212.944,171.536 212.906,171.113 212.908 C 170.691 212.910,170.541 212.950,170.780 212.996 M180.950 213.193 C 181.504 213.232,182.411 213.232,182.965 213.193 C 183.520 213.155,183.066 213.123,181.958 213.123 C 180.849 213.123,180.396 213.155,180.950 213.193 M189.303 217.223 C 189.765 217.271,189.980 217.374,189.898 217.508 C 189.819 217.635,189.857 217.663,189.993 217.579 C 190.393 217.331,190.015 217.082,189.288 217.115 L 188.580 217.147 189.303 217.223 M182.582 218.366 C 182.766 218.415,183.069 218.415,183.253 218.366 C 183.438 218.318,183.287 218.279,182.917 218.279 C 182.548 218.279,182.397 218.318,182.582 218.366 M180.278 218.558 C 180.463 218.607,180.765 218.607,180.950 218.558 C 181.135 218.510,180.984 218.471,180.614 218.471 C 180.245 218.471,180.094 218.510,180.278 218.558 M175.582 218.760 C 176.140 218.799,177.004 218.798,177.502 218.759 C 178.000 218.719,177.543 218.688,176.488 218.688 C 175.432 218.689,175.024 218.721,175.582 218.760 M178.841 221.057 C 179.080 221.103,179.425 221.101,179.609 221.053 C 179.792 221.005,179.597 220.968,179.175 220.970 C 178.752 220.972,178.602 221.011,178.841 221.057 " stroke="none" fill="#ccbcbc" fill-rule="evenodd"></path><path id="path3" d="M177.639 208.047 C 176.568 208.151,175.790 208.355,175.068 208.722 C 174.238 209.143,173.875 209.225,173.244 209.130 C 168.179 208.373,164.302 209.818,164.298 212.466 L 164.297 213.532 166.193 215.355 C 167.236 216.358,169.015 218.238,170.147 219.534 C 173.005 222.804,173.736 223.298,176.924 224.106 C 183.374 225.743,187.983 223.798,194.353 216.751 C 199.922 210.591,199.902 208.354,194.282 208.794 C 191.716 208.996,187.711 208.807,185.029 208.360 C 182.766 207.982,179.662 207.851,177.639 208.047 M196.353 209.941 C 196.353 211.230,191.434 216.696,188.817 218.315 C 184.869 220.757,179.679 221.642,175.048 220.664 C 172.341 220.091,170.200 218.974,171.288 218.701 C 171.859 218.558,171.910 218.385,171.484 218.032 C 170.526 217.237,170.345 215.346,171.108 214.107 C 171.720 213.114,171.712 213.052,170.969 213.051 C 169.510 213.048,168.272 212.305,168.652 211.660 C 168.699 211.581,170.178 211.516,171.940 211.516 C 175.563 211.516,187.399 210.736,192.035 210.192 C 195.586 209.775,196.353 209.731,196.353 209.941 " stroke="none" fill-rule="evenodd"></path></g></svg>