<svg id="svg" version="1.1" xmlns="http://www.w3.org/2000/svg" xmlns:xlink="http://www.w3.org/1999/xlink" width="400" height="400" viewBox="0, 0, 400,400"><g id="svgg"><path id="path0" d="M265.958 246.527 C 265.472 246.705,265.304 247.393,265.708 247.556 C 265.871 247.622,265.869 247.643,265.702 247.654 C 265.526 247.664,265.526 247.709,265.702 247.899 C 265.820 248.027,265.972 248.098,266.040 248.057 C 266.107 248.016,266.124 248.085,266.076 248.209 C 266.028 248.334,266.179 248.656,266.411 248.926 C 266.643 249.196,266.833 249.543,266.833 249.696 C 266.833 249.850,266.949 250.091,267.089 250.232 C 267.230 250.373,267.337 250.531,267.328 250.583 C 267.289 250.792,267.746 251.637,267.860 251.567 C 267.927 251.525,267.953 251.646,267.916 251.836 C 267.831 252.281,267.989 252.693,268.195 252.566 C 268.283 252.511,268.337 252.568,268.313 252.692 C 268.233 253.122,268.528 254.315,268.763 254.511 C 268.893 254.619,269.000 254.890,269.000 255.114 C 269.000 255.337,269.056 255.485,269.125 255.443 C 269.194 255.400,269.266 255.592,269.286 255.868 C 269.306 256.144,269.391 256.455,269.473 256.560 C 269.556 256.664,269.603 256.881,269.577 257.042 C 269.551 257.202,269.617 257.334,269.723 257.336 C 269.846 257.338,269.856 257.383,269.750 257.461 C 269.564 257.597,269.502 259.352,269.687 259.237 C 269.751 259.198,269.779 259.297,269.748 259.458 C 269.717 259.618,269.686 259.811,269.679 259.885 C 269.672 259.959,269.592 259.973,269.500 259.917 C 269.408 259.860,269.333 259.893,269.333 259.990 C 269.333 260.087,269.409 260.167,269.501 260.167 C 269.609 260.167,269.614 260.271,269.515 260.458 C 269.230 260.998,268.784 262.720,268.799 263.226 C 268.806 263.502,268.667 263.932,268.490 264.181 C 268.312 264.431,268.167 264.829,268.167 265.067 C 268.167 265.305,268.085 265.500,267.986 265.500 C 267.887 265.500,267.838 265.594,267.878 265.708 C 267.918 265.823,267.811 266.096,267.642 266.314 C 267.472 266.533,267.333 266.852,267.333 267.022 C 267.333 267.193,267.250 267.333,267.149 267.333 C 267.047 267.333,267.008 267.446,267.060 267.583 C 267.113 267.721,267.079 267.833,266.985 267.833 C 266.891 267.833,266.860 267.908,266.917 268.000 C 266.973 268.092,266.936 268.167,266.833 268.167 C 266.731 268.167,266.688 268.234,266.739 268.316 C 266.790 268.398,266.715 268.510,266.572 268.565 C 266.429 268.619,266.359 268.740,266.416 268.832 C 266.473 268.924,266.438 269.000,266.338 269.000 C 266.238 269.000,266.106 269.131,266.044 269.292 C 265.983 269.452,265.710 269.827,265.438 270.126 C 264.238 271.445,263.952 271.776,263.657 272.185 C 263.484 272.425,263.384 272.662,263.434 272.712 C 263.484 272.762,263.370 272.852,263.180 272.913 C 262.990 272.973,262.788 273.204,262.733 273.427 C 262.675 273.654,262.554 273.783,262.454 273.722 C 262.343 273.653,262.316 273.716,262.383 273.889 C 262.452 274.068,262.405 274.167,262.253 274.167 C 262.122 274.167,261.881 274.360,261.716 274.596 C 261.329 275.151,260.620 275.917,260.455 275.958 C 260.236 276.012,259.516 276.554,258.790 277.208 C 258.410 277.552,258.032 277.833,257.950 277.833 C 257.763 277.833,256.994 278.433,256.950 278.614 C 256.932 278.689,256.858 278.731,256.787 278.707 C 256.716 278.683,256.614 278.777,256.561 278.915 C 256.508 279.053,256.372 279.167,256.259 279.167 C 256.146 279.167,255.969 279.352,255.866 279.579 C 255.762 279.805,255.488 280.039,255.256 280.097 C 254.969 280.169,254.833 280.318,254.831 280.560 C 254.829 280.829,254.792 280.860,254.682 280.686 C 254.564 280.500,254.501 280.520,254.357 280.789 C 254.259 280.973,254.232 281.182,254.298 281.255 C 254.363 281.327,254.334 281.340,254.234 281.282 C 253.990 281.144,253.295 281.803,253.439 282.036 C 253.506 282.145,253.475 282.171,253.359 282.099 C 253.253 282.034,253.167 282.060,253.167 282.157 C 253.167 282.254,253.054 282.333,252.917 282.333 C 252.709 282.333,252.584 282.544,252.695 282.708 C 252.738 282.772,251.595 283.938,251.500 283.927 C 251.454 283.921,251.417 283.965,251.417 284.025 C 251.417 284.084,251.023 284.499,250.542 284.946 C 250.060 285.393,249.667 285.834,249.667 285.926 C 249.667 286.018,249.513 286.224,249.326 286.384 C 249.139 286.544,249.038 286.760,249.102 286.864 C 249.169 286.971,249.144 287.006,249.044 286.944 C 248.948 286.885,248.755 287.004,248.614 287.210 C 248.474 287.415,248.167 287.808,247.933 288.083 C 247.698 288.358,247.443 288.660,247.366 288.754 C 247.288 288.847,247.259 289.035,247.302 289.170 C 247.344 289.306,247.319 289.361,247.246 289.293 C 247.078 289.136,246.283 290.284,246.413 290.495 C 246.466 290.580,246.360 290.730,246.178 290.828 C 245.982 290.932,245.885 291.106,245.941 291.253 C 245.993 291.389,245.967 291.500,245.883 291.500 C 245.799 291.500,245.592 291.819,245.422 292.208 C 245.252 292.598,245.065 292.954,245.007 293.000 C 244.948 293.046,244.702 293.507,244.460 294.026 C 244.217 294.544,243.940 295.017,243.843 295.077 C 243.746 295.137,243.667 295.332,243.667 295.510 C 243.667 295.688,243.592 295.833,243.500 295.833 C 243.408 295.833,243.333 295.944,243.333 296.079 C 243.333 296.215,243.184 296.571,243.001 296.871 C 242.818 297.171,242.668 297.548,242.667 297.708 C 242.667 297.869,242.587 298.000,242.490 298.000 C 242.393 298.000,242.356 298.069,242.408 298.152 C 242.460 298.236,242.445 298.330,242.376 298.361 C 242.206 298.436,241.667 299.477,241.667 299.730 C 241.667 299.842,241.582 300.018,241.479 300.121 C 241.097 300.503,240.623 301.741,240.957 301.485 C 241.118 301.361,241.081 301.450,240.875 301.682 C 240.669 301.915,240.500 302.309,240.500 302.558 C 240.500 302.807,240.392 303.052,240.260 303.102 C 240.040 303.187,239.736 304.056,239.862 304.240 C 239.892 304.283,239.767 304.440,239.583 304.589 C 239.400 304.737,239.361 304.800,239.497 304.729 C 239.643 304.652,239.595 304.788,239.381 305.060 C 239.182 305.314,239.060 305.628,239.110 305.759 C 239.160 305.890,239.081 306.043,238.935 306.099 C 238.788 306.156,238.715 306.277,238.772 306.369 C 238.829 306.462,238.786 306.593,238.677 306.660 C 238.567 306.728,238.462 306.888,238.443 307.017 C 238.423 307.145,238.349 307.344,238.277 307.458 C 238.206 307.573,238.194 307.667,238.252 307.667 C 238.309 307.667,238.201 307.884,238.011 308.151 C 237.822 308.417,237.667 308.750,237.667 308.891 C 237.667 309.032,237.600 309.188,237.519 309.238 C 237.438 309.289,237.325 309.574,237.268 309.873 C 237.211 310.172,237.053 310.631,236.917 310.892 C 236.780 311.154,236.717 311.447,236.777 311.543 C 236.840 311.645,236.805 311.669,236.692 311.599 C 236.571 311.524,236.500 311.604,236.500 311.814 C 236.500 311.997,236.422 312.195,236.327 312.254 C 236.231 312.313,236.203 312.524,236.264 312.722 C 236.325 312.921,236.317 313.028,236.245 312.961 C 236.104 312.827,235.694 313.522,235.590 314.072 C 235.554 314.261,235.510 314.454,235.493 314.500 C 235.475 314.546,235.469 314.640,235.480 314.708 C 235.491 314.777,235.417 314.833,235.316 314.833 C 235.214 314.833,235.171 314.937,235.219 315.063 C 235.267 315.189,235.200 315.497,235.070 315.748 C 234.780 316.308,234.775 316.382,235.042 316.247 C 235.156 316.189,235.137 316.241,235.000 316.363 C 234.862 316.484,234.724 316.733,234.692 316.917 C 234.661 317.100,234.571 317.328,234.492 317.424 C 234.413 317.520,234.356 317.745,234.365 317.924 C 234.384 318.331,234.286 318.723,234.135 318.837 C 234.027 318.919,233.827 319.672,233.793 320.125 C 233.785 320.240,233.715 320.333,233.639 320.333 C 233.563 320.333,233.500 320.481,233.500 320.661 C 233.500 320.946,233.238 321.674,232.838 322.500 C 232.772 322.637,232.737 322.881,232.761 323.042 C 232.784 323.202,232.738 323.333,232.657 323.333 C 232.576 323.333,232.551 323.438,232.600 323.566 C 232.649 323.695,232.608 323.850,232.509 323.911 C 232.409 323.973,232.371 324.093,232.424 324.178 C 232.477 324.264,232.440 324.333,232.343 324.333 C 232.246 324.333,232.167 324.467,232.167 324.630 C 232.167 324.793,232.041 325.105,231.888 325.324 C 231.735 325.543,231.699 325.666,231.809 325.599 C 231.918 325.531,231.856 325.746,231.671 326.076 C 231.279 326.773,231.254 326.899,231.542 326.731 C 231.656 326.664,231.611 326.768,231.442 326.961 C 231.268 327.159,231.189 327.401,231.259 327.515 C 231.339 327.645,231.315 327.675,231.192 327.599 C 231.087 327.534,231.000 327.560,231.000 327.657 C 231.000 328.024,230.977 328.093,230.735 328.463 C 230.598 328.672,230.533 328.919,230.591 329.012 C 230.648 329.105,230.605 329.290,230.494 329.424 C 230.383 329.557,230.345 329.667,230.408 329.667 C 230.472 329.667,230.406 329.785,230.262 329.929 C 230.118 330.073,229.989 330.335,229.975 330.512 C 229.961 330.689,229.942 330.927,229.933 331.042 C 229.924 331.156,229.865 331.289,229.802 331.337 C 229.739 331.385,229.649 331.635,229.602 331.893 C 229.555 332.151,229.434 332.462,229.334 332.583 C 229.225 332.714,229.213 332.843,229.305 332.899 C 229.393 332.953,229.322 333.276,229.142 333.638 C 228.840 334.250,228.657 334.834,228.626 335.292 C 228.618 335.406,228.551 335.500,228.477 335.500 C 228.404 335.500,228.387 335.612,228.440 335.750 C 228.492 335.887,228.457 336.000,228.361 336.000 C 228.265 336.000,228.214 336.148,228.249 336.330 C 228.286 336.522,228.230 336.644,228.115 336.622 C 228.004 336.600,227.917 336.768,227.917 337.000 C 227.917 337.229,227.824 337.492,227.712 337.583 C 227.599 337.675,227.489 337.994,227.468 338.292 C 227.447 338.590,227.370 338.833,227.298 338.833 C 227.226 338.833,227.181 338.890,227.198 338.958 C 227.215 339.027,227.091 339.383,226.922 339.750 C 226.753 340.117,226.630 340.482,226.648 340.563 C 226.666 340.643,226.553 340.849,226.398 341.021 C 226.242 341.193,226.173 341.333,226.245 341.333 C 226.316 341.333,226.281 341.446,226.167 341.583 C 226.053 341.721,226.025 341.836,226.105 341.839 C 226.185 341.842,226.105 341.953,225.929 342.087 C 225.752 342.221,225.654 342.376,225.711 342.433 C 225.768 342.490,225.672 342.803,225.497 343.128 C 225.323 343.454,225.214 343.775,225.256 343.843 C 225.297 343.910,225.214 344.010,225.071 344.065 C 224.892 344.134,224.846 344.276,224.923 344.520 C 225.007 344.783,224.981 344.841,224.823 344.744 C 224.671 344.650,224.641 344.692,224.718 344.893 C 224.784 345.065,224.699 345.301,224.500 345.500 C 224.301 345.699,224.216 345.935,224.282 346.107 C 224.355 346.297,224.327 346.349,224.195 346.268 C 224.080 346.196,224.000 346.248,224.000 346.393 C 224.000 346.528,223.921 346.665,223.825 346.697 C 223.729 346.729,223.609 347.017,223.558 347.336 C 223.508 347.655,223.396 347.961,223.309 348.015 C 223.221 348.069,223.138 348.270,223.124 348.462 C 223.109 348.653,223.042 348.776,222.974 348.734 C 222.808 348.631,222.459 349.300,222.578 349.492 C 222.630 349.576,222.536 349.743,222.369 349.864 C 222.066 350.084,221.551 351.137,221.629 351.380 C 221.651 351.451,221.557 351.553,221.418 351.606 C 221.280 351.659,221.167 351.844,221.167 352.018 C 221.167 352.191,221.098 352.333,221.013 352.333 C 220.929 352.333,220.810 352.559,220.750 352.835 C 220.683 353.136,220.567 353.292,220.458 353.224 C 220.342 353.153,220.315 353.212,220.383 353.389 C 220.442 353.542,220.419 353.667,220.332 353.667 C 220.147 353.667,219.500 355.028,219.500 355.417 C 219.500 355.565,219.432 355.645,219.350 355.593 C 219.182 355.490,218.500 356.554,218.500 356.918 C 218.500 357.046,218.381 357.217,218.235 357.298 C 218.089 357.380,217.977 357.496,217.985 357.557 C 218.031 357.892,217.982 358.008,217.833 357.917 C 217.742 357.860,217.667 357.885,217.667 357.973 C 217.667 358.060,217.442 358.372,217.167 358.667 C 216.892 358.961,216.667 359.311,216.667 359.444 C 216.667 359.577,216.587 359.637,216.489 359.576 C 216.391 359.516,216.270 359.623,216.220 359.815 C 216.170 360.006,216.062 360.122,215.981 360.072 C 215.900 360.021,215.833 360.064,215.833 360.167 C 215.833 360.269,215.747 360.299,215.641 360.234 C 215.518 360.158,215.494 360.189,215.574 360.319 C 215.654 360.448,215.573 360.556,215.350 360.614 C 215.158 360.664,215.000 360.814,215.000 360.946 C 215.000 361.078,214.932 361.144,214.848 361.092 C 214.764 361.041,214.715 361.126,214.738 361.282 C 214.760 361.438,214.923 361.644,215.098 361.741 C 215.273 361.838,215.765 362.282,216.191 362.729 C 216.838 363.406,217.585 363.709,217.243 363.155 C 217.190 363.070,217.251 363.000,217.379 363.000 C 217.714 363.000,218.844 361.821,218.719 361.602 C 218.661 361.500,218.676 361.474,218.753 361.543 C 218.905 361.682,219.667 361.043,219.667 360.776 C 219.667 360.684,219.798 360.460,219.958 360.276 C 220.175 360.029,220.185 359.975,220.000 360.067 C 219.862 360.135,219.896 360.073,220.074 359.929 C 220.252 359.785,220.416 359.541,220.438 359.387 C 220.461 359.234,220.596 359.043,220.740 358.963 C 220.883 358.882,221.000 358.708,221.000 358.575 C 221.000 358.442,221.087 358.333,221.194 358.333 C 221.301 358.333,221.342 358.287,221.285 358.229 C 221.228 358.172,221.365 357.884,221.591 357.589 C 221.816 357.293,222.000 356.969,222.000 356.868 C 222.000 356.766,222.131 356.607,222.292 356.513 C 222.452 356.420,222.525 356.341,222.454 356.338 C 222.384 356.336,222.440 356.159,222.580 355.945 C 222.720 355.731,222.778 355.500,222.709 355.431 C 222.640 355.362,222.658 355.331,222.750 355.361 C 222.842 355.392,222.930 355.354,222.947 355.276 C 222.964 355.199,223.107 355.041,223.266 354.926 C 223.430 354.805,223.511 354.603,223.454 354.455 C 223.396 354.302,223.461 354.153,223.611 354.096 C 223.760 354.039,223.826 353.889,223.769 353.740 C 223.715 353.598,223.732 353.521,223.807 353.567 C 223.967 353.666,225.071 351.682,224.933 351.544 C 224.881 351.492,224.995 351.316,225.185 351.151 C 225.375 350.986,225.486 350.778,225.431 350.690 C 225.376 350.601,225.390 350.503,225.463 350.473 C 225.535 350.442,225.761 350.131,225.964 349.782 C 226.168 349.432,226.240 349.202,226.125 349.269 C 226.011 349.336,226.052 349.236,226.217 349.047 C 226.383 348.858,226.530 348.546,226.544 348.352 C 226.559 348.158,226.621 348.000,226.683 348.000 C 226.799 348.000,227.050 347.345,227.018 347.125 C 227.008 347.056,227.079 347.000,227.177 347.000 C 227.274 347.000,227.314 346.936,227.266 346.859 C 227.218 346.781,227.329 346.556,227.512 346.359 C 227.711 346.145,227.764 346.000,227.641 346.000 C 227.529 346.000,227.575 345.899,227.744 345.775 C 227.937 345.634,228.001 345.470,227.916 345.333 C 227.827 345.189,227.847 345.155,227.974 345.234 C 228.145 345.339,228.251 345.034,228.186 344.625 C 228.176 344.556,228.233 344.500,228.313 344.500 C 228.480 344.500,228.889 343.586,228.922 343.138 C 228.934 342.973,229.069 342.700,229.222 342.531 C 229.375 342.362,229.500 342.065,229.500 341.872 C 229.500 341.678,229.575 341.473,229.667 341.417 C 229.758 341.360,229.833 341.146,229.833 340.940 C 229.833 340.735,229.906 340.494,229.995 340.405 C 230.084 340.316,230.181 340.094,230.210 339.913 C 230.239 339.732,230.390 339.392,230.545 339.159 C 230.700 338.925,230.796 338.570,230.757 338.369 C 230.718 338.168,230.802 337.889,230.943 337.748 C 231.084 337.607,231.155 337.377,231.101 337.237 C 231.046 337.092,231.075 337.026,231.169 337.085 C 231.259 337.141,231.333 337.036,231.333 336.853 C 231.333 336.670,231.410 336.473,231.503 336.415 C 231.596 336.357,231.633 336.248,231.586 336.171 C 231.539 336.095,231.684 335.636,231.908 335.153 C 232.132 334.669,232.278 334.211,232.231 334.136 C 232.185 334.061,232.226 334.000,232.323 334.000 C 232.421 334.000,232.500 333.706,232.500 333.347 C 232.500 332.988,232.574 332.669,232.665 332.639 C 232.756 332.608,232.983 332.133,233.171 331.583 C 233.358 331.033,233.578 330.433,233.660 330.250 C 233.742 330.067,233.841 329.729,233.881 329.500 C 234.002 328.815,234.076 328.589,234.217 328.485 C 234.290 328.431,234.362 328.225,234.377 328.027 C 234.392 327.829,234.447 327.667,234.500 327.667 C 234.553 327.667,234.606 327.535,234.618 327.373 C 234.657 326.857,234.745 326.597,234.960 326.366 C 235.075 326.241,235.130 326.076,235.082 325.998 C 235.034 325.920,235.068 325.811,235.157 325.756 C 235.246 325.701,235.277 325.546,235.225 325.411 C 235.173 325.277,235.218 325.167,235.325 325.167 C 235.432 325.167,235.481 325.104,235.433 325.027 C 235.386 324.950,235.500 324.602,235.686 324.253 C 235.955 323.751,235.981 323.591,235.809 323.485 C 235.642 323.382,235.658 323.326,235.879 323.242 C 236.036 323.181,236.123 323.065,236.073 322.983 C 236.022 322.900,236.060 322.833,236.157 322.833 C 236.254 322.833,236.333 322.621,236.333 322.361 C 236.333 322.101,236.385 321.837,236.449 321.773 C 236.512 321.710,236.588 321.503,236.617 321.314 C 236.646 321.124,236.781 320.810,236.918 320.614 C 237.221 320.182,237.244 319.774,236.958 319.919 C 236.844 319.977,236.862 319.925,237.000 319.803 C 237.261 319.573,237.377 319.278,237.394 318.804 C 237.400 318.650,237.464 318.561,237.536 318.605 C 237.660 318.682,237.713 318.437,237.712 317.795 C 237.711 317.637,237.772 317.546,237.848 317.592 C 237.975 317.671,238.270 316.801,238.445 315.833 C 238.486 315.604,238.585 315.351,238.664 315.271 C 238.743 315.191,238.763 315.010,238.709 314.869 C 238.649 314.713,238.679 314.655,238.787 314.721 C 238.893 314.787,239.016 314.581,239.094 314.207 C 239.227 313.571,239.261 313.429,239.332 313.208 C 239.355 313.140,239.364 313.027,239.353 312.958 C 239.342 312.890,239.408 312.833,239.500 312.833 C 239.592 312.833,239.667 312.702,239.668 312.542 C 239.668 312.381,239.783 312.030,239.924 311.761 C 240.064 311.492,240.135 311.157,240.081 311.016 C 240.027 310.875,240.038 310.815,240.105 310.883 C 240.257 311.035,240.700 310.023,240.573 309.816 C 240.522 309.734,240.568 309.667,240.675 309.667 C 240.782 309.667,240.824 309.551,240.770 309.408 C 240.715 309.266,240.737 309.190,240.817 309.240 C 240.941 309.317,241.053 309.064,241.199 308.376 C 241.214 308.307,241.326 308.150,241.448 308.028 C 241.570 307.906,241.627 307.738,241.575 307.653 C 241.523 307.569,241.564 307.500,241.667 307.500 C 241.769 307.500,241.806 307.424,241.749 307.332 C 241.692 307.240,241.767 307.043,241.916 306.894 C 242.064 306.745,242.147 306.523,242.100 306.401 C 242.053 306.278,242.091 306.130,242.184 306.073 C 242.380 305.952,243.518 303.667,243.383 303.667 C 243.333 303.667,243.376 303.566,243.478 303.443 C 243.580 303.320,243.614 303.170,243.554 303.110 C 243.494 303.049,243.523 303.000,243.619 303.000 C 243.773 303.000,243.977 302.596,244.082 302.083 C 244.132 301.840,244.778 300.389,245.299 299.348 C 245.547 298.852,245.754 298.402,245.758 298.348 C 245.786 298.018,246.048 297.500,246.188 297.500 C 246.279 297.500,246.307 297.425,246.250 297.333 C 246.193 297.242,246.225 297.167,246.320 297.167 C 246.416 297.167,246.544 296.960,246.607 296.708 C 246.669 296.456,246.904 296.006,247.130 295.708 C 247.402 295.348,247.465 295.167,247.316 295.167 C 247.193 295.167,247.260 295.049,247.466 294.905 C 247.671 294.761,247.797 294.577,247.747 294.495 C 247.696 294.413,247.807 294.193,247.994 294.006 C 248.181 293.819,248.294 293.667,248.246 293.667 C 248.098 293.667,248.611 292.778,249.058 292.260 C 249.291 291.991,249.443 291.710,249.397 291.635 C 249.351 291.561,249.398 291.500,249.500 291.500 C 249.602 291.500,249.640 291.425,249.583 291.333 C 249.527 291.242,249.572 291.167,249.685 291.167 C 249.797 291.167,249.839 291.117,249.779 291.057 C 249.718 290.996,249.818 290.842,250.001 290.714 C 250.184 290.586,250.333 290.368,250.333 290.231 C 250.333 290.093,250.400 290.021,250.481 290.071 C 250.562 290.121,250.720 289.939,250.833 289.667 C 250.946 289.394,251.096 289.207,251.167 289.250 C 251.289 289.326,251.556 288.723,251.518 288.458 C 251.508 288.390,251.556 288.351,251.625 288.373 C 251.782 288.423,252.994 287.216,252.891 287.113 C 252.850 287.072,253.017 286.879,253.264 286.686 C 253.510 286.492,253.622 286.333,253.512 286.333 C 253.403 286.333,253.561 286.106,253.865 285.829 C 254.168 285.552,254.426 285.252,254.438 285.163 C 254.486 284.782,254.513 284.763,254.667 285.000 C 254.810 285.222,254.829 285.222,254.836 285.000 C 254.846 284.691,255.407 284.000,255.647 284.000 C 255.745 284.000,255.933 283.791,256.065 283.536 C 256.197 283.280,256.496 282.969,256.730 282.844 C 256.964 282.719,257.119 282.558,257.075 282.487 C 257.031 282.416,257.162 282.305,257.365 282.240 C 257.723 282.126,258.299 281.667,258.083 281.667 C 258.024 281.667,258.093 281.549,258.237 281.406 C 258.380 281.263,258.565 281.187,258.648 281.238 C 258.731 281.290,258.842 281.219,258.895 281.081 C 258.947 280.943,259.049 280.847,259.120 280.868 C 259.341 280.933,260.667 279.968,260.571 279.813 C 260.521 279.733,260.602 279.667,260.750 279.667 C 260.898 279.667,260.972 279.590,260.914 279.496 C 260.856 279.402,260.870 279.336,260.946 279.349 C 261.310 279.412,261.500 279.307,261.503 279.042 C 261.504 278.828,261.541 278.807,261.640 278.963 C 261.755 279.143,263.667 277.380,263.667 277.094 C 263.667 277.056,263.892 276.801,264.167 276.526 C 264.442 276.251,264.668 275.889,264.669 275.721 C 264.671 275.464,264.697 275.455,264.833 275.667 C 264.928 275.813,264.996 275.835,264.997 275.720 C 264.999 275.612,265.131 275.393,265.292 275.232 C 265.452 275.072,265.587 274.860,265.591 274.762 C 265.595 274.664,265.678 274.598,265.775 274.617 C 265.873 274.636,266.051 274.467,266.171 274.242 C 266.291 274.017,266.452 273.833,266.528 273.833 C 266.604 273.833,266.667 273.716,266.667 273.573 C 266.667 273.431,266.742 273.360,266.833 273.417 C 266.925 273.473,267.000 273.421,267.000 273.302 C 267.000 273.182,267.188 272.865,267.417 272.599 C 267.646 272.333,267.833 272.178,267.833 272.256 C 267.833 272.334,267.937 272.255,268.065 272.081 C 268.192 271.906,268.254 271.655,268.203 271.521 C 268.146 271.372,268.181 271.322,268.293 271.392 C 268.394 271.454,268.521 271.363,268.576 271.189 C 268.631 271.015,268.823 270.704,269.001 270.498 C 269.180 270.292,269.286 270.058,269.237 269.978 C 269.187 269.899,269.256 269.833,269.389 269.833 C 269.657 269.833,269.887 269.388,269.741 269.152 C 269.689 269.068,269.731 269.000,269.833 269.000 C 269.936 269.000,269.973 268.925,269.917 268.833 C 269.860 268.742,269.877 268.667,269.954 268.667 C 270.098 268.667,270.561 267.682,270.522 267.458 C 270.510 267.390,270.579 267.333,270.677 267.333 C 270.774 267.333,270.807 267.258,270.750 267.167 C 270.693 267.075,270.708 267.000,270.783 267.000 C 270.969 267.000,271.323 266.165,271.369 265.617 C 271.389 265.369,271.469 265.167,271.546 265.167 C 271.623 265.167,271.637 265.087,271.577 264.989 C 271.517 264.892,271.584 264.684,271.726 264.526 C 271.868 264.369,271.989 264.093,271.994 263.912 C 272.024 262.868,272.099 262.334,272.215 262.333 C 272.288 262.333,272.339 262.052,272.330 261.708 C 272.321 261.365,272.353 260.858,272.402 260.583 C 272.642 259.230,272.470 255.021,272.167 254.833 C 272.009 254.736,272.015 254.686,272.189 254.616 C 272.335 254.558,272.357 254.476,272.250 254.388 C 272.158 254.312,272.059 254.137,272.029 254.000 C 271.999 253.862,271.914 253.728,271.839 253.700 C 271.763 253.673,271.743 253.493,271.794 253.299 C 271.857 253.060,271.824 252.986,271.693 253.067 C 271.523 253.172,271.408 252.751,271.480 252.292 C 271.491 252.223,271.427 252.167,271.339 252.167 C 271.250 252.167,271.220 252.054,271.273 251.917 C 271.326 251.779,271.282 251.667,271.175 251.667 C 271.068 251.667,271.030 251.587,271.090 251.490 C 271.268 251.201,270.034 248.834,269.703 248.831 C 269.475 248.829,269.463 248.799,269.647 248.682 C 269.828 248.568,269.800 248.512,269.520 248.423 C 269.323 248.360,269.200 248.248,269.246 248.174 C 269.292 248.099,269.218 247.945,269.081 247.832 C 268.882 247.666,268.832 247.671,268.827 247.855 C 268.824 247.980,268.718 247.896,268.591 247.667 C 268.464 247.438,268.277 247.250,268.174 247.250 C 268.072 247.250,267.917 247.137,267.830 247.000 C 267.743 246.862,267.671 246.805,267.669 246.872 C 267.668 246.939,267.402 246.846,267.078 246.664 C 266.755 246.482,266.473 246.339,266.453 246.346 C 266.433 246.354,266.210 246.435,265.958 246.527 M192.711 265.625 C 192.561 265.969,192.452 266.306,192.469 266.375 C 192.486 266.444,192.425 266.500,192.333 266.500 C 192.242 266.500,192.167 266.650,192.167 266.833 C 192.167 267.017,192.092 267.167,192.000 267.167 C 191.908 267.167,191.847 267.223,191.863 267.292 C 191.917 267.523,191.475 268.883,191.217 269.277 C 191.010 269.593,191.005 269.667,191.189 269.669 C 191.326 269.671,191.351 269.720,191.250 269.794 C 191.036 269.951,190.961 270.266,190.954 271.036 C 190.951 271.376,190.896 271.622,190.832 271.582 C 190.768 271.543,190.714 271.714,190.713 271.963 C 190.711 272.475,190.574 273.118,190.330 273.760 C 190.239 273.999,190.208 274.265,190.261 274.351 C 190.314 274.436,190.274 274.759,190.172 275.068 C 190.070 275.377,189.953 276.069,189.911 276.607 C 189.870 277.144,189.803 277.749,189.762 277.952 C 189.722 278.155,189.645 279.205,189.593 280.286 C 189.541 281.366,189.455 282.794,189.402 283.458 C 189.326 284.403,189.354 284.667,189.527 284.669 C 189.712 284.671,189.713 284.696,189.528 284.812 C 189.289 284.964,189.325 297.495,189.576 301.500 C 189.642 302.554,189.708 303.878,189.723 304.442 C 189.738 305.007,189.805 305.434,189.872 305.392 C 189.940 305.351,189.949 305.545,189.893 305.825 C 189.820 306.194,189.855 306.334,190.021 306.336 C 190.210 306.338,190.211 306.363,190.027 306.480 C 189.905 306.557,189.805 306.679,189.805 306.750 C 189.805 306.821,189.905 306.943,190.027 307.020 C 190.207 307.135,190.208 307.162,190.032 307.164 C 189.904 307.166,189.865 307.250,189.938 307.368 C 190.065 307.573,190.117 308.114,190.149 309.552 C 190.161 310.088,190.227 310.316,190.350 310.240 C 190.479 310.160,190.477 310.231,190.344 310.480 C 190.197 310.755,190.203 310.834,190.369 310.836 C 190.520 310.838,190.509 310.886,190.333 311.000 C 190.196 311.089,190.163 311.163,190.261 311.164 C 190.358 311.166,190.447 311.448,190.457 311.792 C 190.468 312.135,190.527 312.792,190.588 313.250 C 190.650 313.708,190.720 314.421,190.744 314.833 C 190.769 315.246,190.803 315.583,190.820 315.583 C 190.837 315.583,190.887 316.329,190.931 317.240 C 190.976 318.152,191.080 318.979,191.163 319.079 C 191.252 319.186,191.253 319.360,191.166 319.501 C 191.071 319.654,191.090 319.787,191.217 319.868 C 191.359 319.958,191.362 319.996,191.226 319.997 C 191.086 319.999,191.081 320.168,191.206 320.625 C 191.300 320.969,191.411 321.681,191.453 322.208 C 191.495 322.735,191.579 323.167,191.640 323.167 C 191.700 323.167,191.761 323.410,191.775 323.708 C 191.804 324.346,191.878 324.673,192.056 324.958 C 192.128 325.073,192.140 325.242,192.083 325.333 C 192.027 325.425,192.037 325.592,192.107 325.705 C 192.177 325.818,192.257 326.043,192.284 326.205 C 192.391 326.842,192.474 327.254,192.511 327.333 C 192.533 327.379,192.568 327.492,192.589 327.583 C 192.611 327.675,192.642 327.787,192.659 327.833 C 192.676 327.879,192.719 328.248,192.756 328.653 C 192.792 329.058,192.899 329.438,192.994 329.496 C 193.088 329.554,193.179 329.823,193.196 330.093 C 193.213 330.363,193.337 330.715,193.473 330.876 C 193.609 331.037,193.676 331.213,193.623 331.266 C 193.569 331.320,193.641 331.675,193.783 332.057 C 193.925 332.438,194.036 332.883,194.031 333.045 C 194.025 333.208,194.084 333.301,194.161 333.253 C 194.239 333.205,194.260 333.328,194.208 333.526 C 194.144 333.772,194.175 333.848,194.307 333.766 C 194.490 333.653,194.587 334.072,194.509 334.642 C 194.489 334.781,194.556 334.818,194.684 334.739 C 194.826 334.652,194.858 334.695,194.788 334.877 C 194.732 335.023,194.798 335.235,194.934 335.348 C 195.070 335.461,195.143 335.654,195.096 335.777 C 195.049 335.900,195.102 336.001,195.214 336.003 C 195.342 336.004,195.325 336.064,195.167 336.167 C 195.000 336.274,194.986 336.329,195.125 336.331 C 195.240 336.332,195.333 336.481,195.333 336.660 C 195.333 337.123,195.956 338.646,196.276 338.967 C 196.461 339.152,196.484 339.255,196.349 339.300 C 196.212 339.346,196.205 339.428,196.325 339.573 C 196.420 339.687,196.642 340.235,196.820 340.791 C 196.997 341.347,197.274 341.955,197.435 342.143 C 197.597 342.332,197.744 342.592,197.763 342.722 C 197.848 343.303,198.038 343.663,198.204 343.560 C 198.307 343.497,198.337 343.526,198.275 343.627 C 198.118 343.880,198.412 344.569,198.865 345.009 C 199.077 345.214,199.156 345.329,199.042 345.265 C 198.750 345.100,198.781 345.416,199.081 345.665 C 199.218 345.778,199.289 345.938,199.238 346.019 C 199.188 346.100,199.226 346.167,199.323 346.167 C 199.421 346.167,199.500 346.271,199.500 346.399 C 199.500 346.527,199.623 346.678,199.774 346.736 C 199.924 346.794,200.006 346.883,199.954 346.935 C 199.788 347.101,200.192 348.000,200.433 348.000 C 200.562 348.000,200.650 348.056,200.630 348.125 C 200.550 348.403,201.002 349.352,201.166 349.250 C 201.263 349.191,201.331 349.204,201.318 349.279 C 201.305 349.355,201.308 349.454,201.326 349.500 C 201.344 349.546,201.386 349.728,201.419 349.904 C 201.452 350.081,201.598 350.292,201.743 350.373 C 201.888 350.454,201.967 350.586,201.917 350.665 C 201.868 350.745,201.904 350.857,201.997 350.915 C 202.090 350.973,202.167 351.149,202.167 351.306 C 202.167 351.464,202.320 351.724,202.507 351.884 C 202.694 352.044,202.802 352.249,202.747 352.338 C 202.692 352.427,202.710 352.500,202.787 352.500 C 202.864 352.500,203.020 352.706,203.133 352.958 C 203.527 353.832,203.888 354.418,204.204 354.696 C 204.379 354.849,204.529 355.037,204.537 355.112 C 204.586 355.544,204.723 355.818,204.850 355.739 C 204.931 355.690,204.955 355.756,204.905 355.886 C 204.849 356.034,204.951 356.159,205.179 356.218 C 205.414 356.280,205.510 356.401,205.449 356.560 C 205.397 356.695,205.467 356.849,205.604 356.902 C 205.742 356.954,205.808 357.073,205.751 357.165 C 205.694 357.258,205.726 357.333,205.823 357.333 C 205.921 357.333,206.000 357.496,206.000 357.694 C 206.000 357.893,206.050 358.006,206.110 357.946 C 206.278 357.778,206.703 358.473,206.567 358.693 C 206.494 358.812,206.522 358.840,206.641 358.766 C 206.756 358.695,206.833 358.755,206.833 358.917 C 206.833 359.080,206.910 359.139,207.028 359.066 C 207.155 358.988,207.190 359.032,207.128 359.193 C 207.074 359.335,207.171 359.526,207.356 359.642 C 207.534 359.753,207.641 359.907,207.593 359.984 C 207.546 360.061,207.664 360.302,207.856 360.520 C 208.049 360.738,208.382 361.192,208.596 361.528 C 208.811 361.864,209.066 362.188,209.163 362.248 C 209.260 362.307,209.296 362.426,209.243 362.512 C 209.190 362.597,209.268 362.667,209.417 362.667 C 209.565 362.667,209.643 362.736,209.590 362.822 C 209.304 363.285,209.824 363.035,210.250 362.504 C 210.774 361.851,211.236 361.578,212.110 361.403 L 212.634 361.298 212.275 360.877 C 211.626 360.114,211.475 359.996,211.294 360.108 C 211.196 360.168,211.162 360.142,211.220 360.048 C 211.278 359.954,211.177 359.744,210.996 359.580 C 210.815 359.416,210.667 359.186,210.667 359.070 C 210.667 358.953,210.469 358.702,210.228 358.512 C 209.974 358.312,209.886 358.164,210.019 358.161 C 210.146 358.158,210.063 358.048,209.833 357.917 C 209.581 357.773,209.515 357.675,209.667 357.670 C 209.889 357.663,209.889 357.644,209.667 357.500 C 209.529 357.411,209.486 357.337,209.571 357.336 C 209.655 357.334,209.573 357.165,209.386 356.958 C 209.200 356.752,208.911 356.344,208.743 356.051 C 208.576 355.758,208.365 355.564,208.274 355.620 C 208.178 355.679,208.154 355.607,208.216 355.444 C 208.275 355.291,208.242 355.167,208.144 355.167 C 208.045 355.167,208.009 355.050,208.064 354.908 C 208.121 354.760,208.093 354.693,207.998 354.751 C 207.907 354.807,207.833 354.738,207.833 354.597 C 207.833 354.457,207.571 354.103,207.250 353.811 C 206.929 353.519,206.667 353.139,206.667 352.968 C 206.667 352.797,206.554 352.613,206.417 352.560 C 206.279 352.508,206.167 352.360,206.167 352.232 C 206.167 352.104,206.087 352.000,205.990 352.000 C 205.893 352.000,205.860 351.926,205.916 351.835 C 205.972 351.744,205.792 351.341,205.516 350.939 C 205.239 350.538,205.060 350.162,205.118 350.105 C 205.175 350.047,205.135 350.000,205.028 350.000 C 204.921 350.000,204.844 349.944,204.857 349.875 C 204.899 349.653,204.472 348.667,204.333 348.667 C 204.260 348.667,204.121 348.442,204.025 348.167 C 203.929 347.892,203.772 347.667,203.675 347.667 C 203.579 347.667,203.498 347.498,203.496 347.292 C 203.494 347.085,203.346 346.729,203.167 346.500 C 202.987 346.271,202.839 345.990,202.837 345.875 C 202.835 345.760,202.763 345.667,202.678 345.667 C 202.592 345.667,202.475 345.498,202.418 345.292 C 202.246 344.675,201.759 343.671,201.630 343.669 C 201.564 343.668,201.552 343.559,201.603 343.427 C 201.654 343.293,201.549 343.096,201.364 342.980 C 201.182 342.867,201.068 342.684,201.110 342.575 C 201.152 342.466,201.069 342.259,200.926 342.117 C 200.783 341.974,200.667 341.748,200.667 341.616 C 200.667 341.483,200.555 341.281,200.419 341.168 C 200.282 341.055,200.211 340.896,200.262 340.814 C 200.312 340.733,200.290 340.667,200.213 340.667 C 200.136 340.667,200.056 340.465,200.036 340.218 C 200.015 339.971,199.905 339.709,199.791 339.637 C 199.677 339.564,199.642 339.504,199.714 339.503 C 199.786 339.501,199.752 339.331,199.639 339.125 C 199.525 338.919,199.415 338.645,199.394 338.517 C 199.373 338.388,199.291 338.238,199.211 338.183 C 199.132 338.128,199.056 337.897,199.041 337.670 C 199.027 337.442,198.918 337.180,198.799 337.087 C 198.680 336.993,198.562 336.767,198.537 336.583 C 198.493 336.266,198.396 335.846,198.326 335.667 C 198.308 335.621,198.303 335.527,198.314 335.458 C 198.324 335.390,198.258 335.333,198.167 335.333 C 198.075 335.333,198.009 335.277,198.020 335.208 C 198.084 334.799,197.978 334.494,197.808 334.599 C 197.690 334.672,197.660 334.645,197.732 334.529 C 197.883 334.284,197.519 333.010,197.180 332.596 C 196.983 332.356,196.976 332.311,197.154 332.416 C 197.336 332.523,197.329 332.467,197.125 332.175 C 196.978 331.966,196.895 331.699,196.941 331.581 C 196.986 331.463,196.941 331.317,196.842 331.255 C 196.743 331.194,196.701 331.079,196.750 331.000 C 196.799 330.921,196.763 330.809,196.669 330.752 C 196.576 330.694,196.500 330.497,196.500 330.314 C 196.500 330.130,196.438 330.019,196.363 330.065 C 196.287 330.112,196.225 330.023,196.226 329.867 C 196.227 328.897,196.151 328.490,195.986 328.592 C 195.878 328.659,195.822 328.579,195.845 328.393 C 195.867 328.223,195.834 327.968,195.771 327.827 C 195.709 327.686,195.633 327.311,195.603 326.994 C 195.524 326.167,195.321 325.500,195.149 325.500 C 195.067 325.500,195.000 325.421,195.000 325.323 C 195.000 325.226,195.088 325.201,195.195 325.268 C 195.325 325.348,195.356 325.298,195.288 325.121 C 195.078 324.575,194.802 323.420,194.744 322.845 C 194.710 322.518,194.638 322.025,194.583 321.750 C 194.528 321.475,194.459 321.063,194.430 320.833 C 194.400 320.604,194.358 320.379,194.335 320.333 C 194.312 320.287,194.304 320.189,194.317 320.114 C 194.330 320.040,194.268 319.702,194.180 319.364 C 194.091 319.026,193.973 318.188,193.917 317.500 C 193.813 316.224,193.750 315.742,193.595 314.994 C 193.546 314.761,193.486 314.038,193.462 313.386 C 193.437 312.734,193.379 312.223,193.333 312.251 C 193.287 312.278,193.225 311.577,193.193 310.692 C 193.142 309.245,193.085 308.332,193.022 307.948 C 193.010 307.874,192.938 307.852,192.861 307.899 C 192.785 307.947,192.722 307.876,192.722 307.743 C 192.722 307.609,192.779 307.500,192.849 307.500 C 192.919 307.500,192.915 307.286,192.840 307.024 C 192.765 306.763,192.690 305.656,192.673 304.566 C 192.608 300.468,192.512 297.987,192.410 297.822 C 192.271 297.598,192.268 284.258,192.406 283.500 C 192.464 283.179,192.555 282.776,192.607 282.604 C 192.675 282.381,192.642 282.329,192.492 282.422 C 192.341 282.515,192.324 282.485,192.430 282.317 C 192.511 282.189,192.591 281.896,192.608 281.667 C 192.752 279.712,192.833 278.945,192.905 278.873 C 192.951 278.827,192.913 278.649,192.822 278.478 C 192.708 278.266,192.711 278.167,192.830 278.167 C 192.926 278.167,192.998 277.960,192.988 277.708 C 192.979 277.456,193.017 277.025,193.074 276.750 C 193.131 276.475,193.257 275.800,193.353 275.250 C 193.450 274.700,193.616 274.145,193.723 274.016 C 193.911 273.789,194.018 271.333,193.839 271.333 C 193.790 271.333,193.753 271.015,193.757 270.625 C 193.760 270.235,193.701 269.692,193.624 269.417 C 193.548 269.142,193.480 268.374,193.473 267.711 C 193.466 267.047,193.403 266.541,193.331 266.585 C 193.260 266.629,193.227 266.290,193.258 265.832 C 193.326 264.839,193.092 264.750,192.711 265.625 " stroke="none" fill="#d4d4d4" fill-rule="evenodd"></path><path id="path1" d="M209.000 367.415 C 209.000 367.630,208.954 367.925,208.899 368.070 C 208.816 368.287,208.934 368.333,209.572 368.333 C 210.011 368.333,210.623 368.474,210.984 368.658 C 212.185 369.271,213.590 369.403,214.917 369.028 C 217.251 368.368,217.826 368.111,217.654 367.805 C 217.513 367.553,217.451 367.550,217.000 367.775 C 215.424 368.561,211.723 368.428,209.966 367.523 L 209.000 367.024 209.000 367.415 M207.944 371.125 C 206.238 376.474,211.088 386.010,214.619 384.249 C 217.659 382.732,219.780 376.322,218.905 371.292 C 218.790 370.625,218.603 370.525,218.180 370.900 C 216.613 372.293,209.188 371.933,208.614 370.437 C 208.432 369.963,208.258 370.142,207.944 371.125 M210.800 371.867 C 211.118 372.184,211.079 378.560,210.758 378.827 C 210.018 379.441,209.102 377.828,209.132 375.963 C 209.186 372.539,209.847 370.914,210.800 371.867 " stroke="none" fill="#fbdb8c" fill-rule="evenodd"></path><path id="path2" d="M212.009 361.552 C 211.510 361.742,210.816 362.184,210.467 362.533 C 210.119 362.881,209.777 363.169,209.708 363.171 C 209.246 363.186,208.661 365.626,208.896 366.561 C 209.391 368.533,217.135 368.764,217.811 366.827 C 218.236 365.607,216.528 362.742,214.874 361.901 C 214.531 361.726,214.213 361.538,214.167 361.482 C 213.930 361.196,212.850 361.230,212.009 361.552 M214.286 362.112 C 215.314 362.599,216.662 364.831,216.665 366.051 C 216.670 368.005,210.054 367.987,209.864 366.033 C 209.615 363.472,212.242 361.142,214.286 362.112 M218.333 369.445 C 218.196 369.492,217.761 369.676,217.366 369.853 C 214.933 370.950,212.296 371.106,210.284 370.273 C 208.575 369.566,207.908 370.181,209.538 370.960 C 211.752 372.017,215.793 372.041,217.819 371.008 C 218.148 370.840,218.483 370.699,218.565 370.696 C 218.646 370.692,218.828 370.453,218.968 370.163 C 219.286 369.506,219.024 369.209,218.333 369.445 " stroke="none" fill="#757c7c" fill-rule="evenodd"></path><path id="path3" d="M272.556 258.167 C 272.556 258.854,272.585 259.135,272.621 258.792 C 272.657 258.448,272.657 257.885,272.621 257.542 C 272.585 257.198,272.556 257.479,272.556 258.167 M268.535 263.650 C 268.268 264.400,268.281 264.483,268.595 264.034 C 268.739 263.829,268.830 263.531,268.797 263.372 C 268.756 263.175,268.673 263.263,268.535 263.650 M193.288 266.101 C 193.221 266.168,193.167 266.337,193.167 266.478 C 193.167 266.665,193.216 266.684,193.352 266.548 C 193.454 266.446,193.509 266.276,193.474 266.171 C 193.438 266.065,193.355 266.034,193.288 266.101 M270.347 267.975 C 270.075 268.483,270.131 268.625,270.434 268.193 C 270.581 267.983,270.662 267.773,270.614 267.725 C 270.566 267.677,270.446 267.790,270.347 267.975 M267.195 272.850 C 266.887 273.343,267.024 273.380,267.383 272.900 C 267.547 272.680,267.622 272.500,267.548 272.500 C 267.474 272.500,267.315 272.657,267.195 272.850 M260.958 275.310 C 260.706 275.567,260.500 275.830,260.500 275.895 C 260.500 275.959,260.725 275.781,261.000 275.500 C 261.438 275.052,261.597 274.823,261.458 274.838 C 261.435 274.841,261.210 275.053,260.958 275.310 M189.669 277.292 C 189.668 277.590,189.695 277.833,189.731 277.833 C 189.882 277.833,189.947 277.184,189.815 276.977 C 189.718 276.823,189.671 276.923,189.669 277.292 M258.375 277.353 C 257.841 277.695,257.714 277.839,257.958 277.827 C 258.096 277.821,259.134 277.000,259.000 277.004 C 258.954 277.005,258.673 277.162,258.375 277.353 M255.531 279.673 C 255.331 279.860,255.167 280.050,255.167 280.096 C 255.167 280.272,255.799 279.829,255.892 279.588 C 256.020 279.254,255.968 279.266,255.531 279.673 M258.186 281.439 C 257.987 281.665,257.996 281.692,258.256 281.641 C 258.421 281.609,258.587 281.490,258.625 281.375 C 258.721 281.087,258.465 281.125,258.186 281.439 M189.385 282.583 C 189.386 283.133,189.417 283.338,189.454 283.039 C 189.491 282.739,189.490 282.289,189.452 282.039 C 189.414 281.788,189.384 282.033,189.385 282.583 M251.937 283.281 C 251.313 284.014,251.431 284.080,252.110 283.379 C 252.400 283.079,252.587 282.808,252.527 282.775 C 252.466 282.743,252.201 282.970,251.937 283.281 M256.441 283.075 C 256.198 283.300,256.000 283.532,256.000 283.590 C 256.000 283.647,256.225 283.483,256.500 283.223 C 256.775 282.963,257.000 282.732,257.000 282.709 C 257.000 282.599,256.846 282.700,256.441 283.075 M192.372 284.167 C 192.372 284.487,192.406 284.619,192.448 284.458 C 192.490 284.298,192.490 284.035,192.448 283.875 C 192.406 283.715,192.372 283.846,192.372 284.167 M255.097 284.464 L 254.777 284.917 255.222 284.513 C 255.689 284.088,255.747 283.997,255.542 284.005 C 255.473 284.008,255.273 284.214,255.097 284.464 M253.766 285.917 C 253.518 286.146,253.414 286.331,253.533 286.328 C 253.652 286.325,253.885 286.138,254.049 285.911 C 254.431 285.387,254.335 285.389,253.766 285.917 M192.212 287.500 C 192.212 287.912,192.245 288.081,192.284 287.875 C 192.324 287.669,192.324 287.331,192.284 287.125 C 192.245 286.919,192.212 287.087,192.212 287.500 M249.926 290.755 C 249.749 290.890,249.674 291.001,249.760 291.003 C 249.846 291.004,249.804 291.078,249.667 291.167 C 249.529 291.256,249.502 291.329,249.606 291.331 C 249.710 291.332,249.918 291.146,250.068 290.917 C 250.382 290.437,250.368 290.421,249.926 290.755 M192.209 292.083 C 192.211 292.450,192.245 292.580,192.285 292.373 C 192.324 292.166,192.323 291.866,192.281 291.706 C 192.239 291.547,192.207 291.717,192.209 292.083 M245.202 292.339 C 245.091 292.517,245.000 292.757,245.001 292.873 C 245.002 292.989,245.115 292.866,245.254 292.600 C 245.543 292.046,245.505 291.854,245.202 292.339 M192.389 296.667 C 192.389 297.354,192.419 297.635,192.455 297.292 C 192.491 296.948,192.491 296.385,192.455 296.042 C 192.419 295.698,192.389 295.979,192.389 296.667 M189.353 299.125 C 189.342 299.606,189.393 300.000,189.467 300.000 C 189.540 300.000,189.573 299.719,189.540 299.375 C 189.438 298.303,189.373 298.216,189.353 299.125 M192.539 299.333 C 192.539 299.654,192.573 299.785,192.615 299.625 C 192.657 299.465,192.657 299.202,192.615 299.042 C 192.573 298.881,192.539 299.012,192.539 299.333 M192.539 301.167 C 192.539 301.487,192.573 301.619,192.615 301.458 C 192.657 301.298,192.657 301.035,192.615 300.875 C 192.573 300.715,192.539 300.846,192.539 301.167 M189.707 305.628 C 189.679 306.028,189.697 306.046,189.855 305.776 C 189.959 305.597,189.973 305.406,189.887 305.320 C 189.801 305.234,189.726 305.363,189.707 305.628 M242.385 305.766 C 242.176 306.087,242.089 306.368,242.181 306.425 C 242.269 306.480,242.323 306.463,242.300 306.387 C 242.278 306.312,242.399 306.041,242.569 305.786 C 242.739 305.532,242.850 305.297,242.814 305.265 C 242.779 305.233,242.586 305.459,242.385 305.766 M236.861 310.658 C 236.764 310.938,236.719 311.167,236.763 311.167 C 236.875 311.167,237.190 310.301,237.107 310.218 C 237.069 310.181,236.959 310.378,236.861 310.658 M193.246 311.875 C 193.203 311.990,193.234 312.308,193.315 312.583 C 193.454 313.060,193.461 313.050,193.461 312.375 C 193.461 311.661,193.388 311.492,193.246 311.875 M190.721 316.051 C 190.693 316.551,190.701 316.559,190.851 316.180 C 190.938 315.958,190.952 315.719,190.880 315.647 C 190.809 315.576,190.737 315.758,190.721 316.051 M232.708 332.593 C 232.594 332.717,232.500 332.954,232.501 333.118 C 232.502 333.325,232.580 333.268,232.754 332.934 C 233.037 332.390,233.019 332.256,232.708 332.593 M194.755 335.333 C 194.839 335.471,194.910 335.689,194.912 335.819 C 194.915 335.949,195.012 336.074,195.129 336.098 C 195.246 336.122,195.269 336.105,195.180 336.060 C 195.091 336.015,195.055 335.883,195.100 335.766 C 195.145 335.649,195.052 335.448,194.892 335.318 C 194.640 335.114,194.622 335.116,194.755 335.333 M229.006 342.822 C 228.795 343.217,228.785 343.383,228.980 343.262 C 229.127 343.172,229.356 342.500,229.240 342.500 C 229.206 342.500,229.101 342.645,229.006 342.822 M202.334 345.030 C 202.334 345.184,202.446 345.422,202.583 345.560 C 202.721 345.697,202.833 345.885,202.833 345.978 C 202.833 346.071,202.907 346.193,202.998 346.249 C 203.206 346.377,203.039 345.918,202.636 345.250 C 202.441 344.926,202.334 344.849,202.334 345.030 M224.442 345.203 C 224.314 345.692,224.430 345.776,224.654 345.358 C 224.755 345.168,224.769 344.980,224.686 344.929 C 224.605 344.878,224.495 345.002,224.442 345.203 M227.026 347.125 C 227.068 347.321,226.793 347.904,226.595 348.039 C 226.473 348.123,226.478 348.162,226.613 348.164 C 226.721 348.166,226.927 347.930,227.071 347.641 C 227.380 347.021,227.383 347.000,227.167 347.000 C 227.075 347.000,227.012 347.056,227.026 347.125 M205.928 351.816 C 205.865 351.917,205.893 352.000,205.990 352.000 C 206.087 352.000,206.167 352.104,206.167 352.232 C 206.167 352.360,206.281 352.508,206.421 352.562 C 206.621 352.639,206.640 352.598,206.509 352.371 C 206.132 351.713,206.043 351.628,205.928 351.816 M206.680 353.013 C 206.673 353.157,206.873 353.457,207.125 353.679 L 207.583 354.083 207.230 353.667 C 207.035 353.438,206.835 353.137,206.784 353.000 C 206.706 352.786,206.691 352.788,206.680 353.013 M205.101 356.403 C 205.157 356.548,205.276 356.667,205.365 356.667 C 205.584 356.667,205.447 356.288,205.198 356.205 C 205.076 356.164,205.039 356.240,205.101 356.403 M206.173 357.917 C 206.174 358.008,206.327 358.271,206.515 358.500 C 206.741 358.777,206.798 358.805,206.683 358.583 C 206.402 358.040,206.172 357.738,206.173 357.917 M208.151 361.137 C 208.252 361.327,208.417 361.532,208.518 361.594 C 208.648 361.675,208.648 361.609,208.516 361.363 C 208.414 361.173,208.249 360.968,208.149 360.906 C 208.018 360.825,208.019 360.891,208.151 361.137 M214.833 360.972 C 214.833 361.079,214.723 361.167,214.589 361.167 C 214.280 361.167,214.431 361.604,214.786 361.741 C 214.990 361.819,215.006 361.791,214.861 361.617 C 214.723 361.451,214.725 361.342,214.868 361.199 C 214.974 361.093,215.010 360.954,214.947 360.892 C 214.885 360.829,214.833 360.865,214.833 360.972 M211.083 361.715 C 210.900 361.811,210.529 362.158,210.259 362.486 L 209.768 363.083 210.342 362.552 C 210.658 362.259,211.142 361.904,211.417 361.761 C 211.692 361.619,211.804 361.511,211.667 361.521 C 211.529 361.532,211.267 361.619,211.083 361.715 M212.250 362.065 C 210.632 362.775,209.267 365.767,210.156 366.656 C 211.074 367.574,215.591 367.579,216.420 366.663 C 216.775 366.271,216.655 365.461,216.070 364.307 C 215.040 362.275,213.643 361.455,212.250 362.065 M216.198 362.868 C 216.781 363.697,216.944 363.820,216.944 363.426 C 216.944 363.294,216.887 363.200,216.816 363.218 C 216.746 363.235,216.453 362.988,216.167 362.667 L 215.646 362.083 216.198 362.868 M217.909 362.678 C 217.849 362.776,217.638 362.922,217.441 363.001 C 217.197 363.100,217.168 363.149,217.349 363.156 C 217.495 363.162,217.751 363.017,217.917 362.833 C 218.083 362.650,218.174 362.500,218.119 362.500 C 218.064 362.500,217.970 362.580,217.909 362.678 M216.750 368.433 C 214.320 369.414,212.597 369.482,210.984 368.658 C 209.588 367.946,208.167 368.343,208.167 369.444 C 208.167 370.097,208.292 370.201,208.733 369.913 C 209.055 369.702,209.209 369.722,210.153 370.104 C 212.369 370.999,214.447 370.947,216.929 369.935 C 217.741 369.604,218.576 369.333,218.786 369.333 C 218.995 369.333,219.167 369.235,219.167 369.115 C 219.167 368.328,217.898 367.970,216.750 368.433 " stroke="none" fill="#cdcbcb" fill-rule="evenodd"></path><path id="path4" d="M209.701 371.876 C 209.482 372.139,209.155 374.488,209.132 375.963 C 209.102 377.828,210.018 379.441,210.758 378.827 C 211.079 378.560,211.118 372.184,210.800 371.867 C 210.539 371.605,209.921 371.610,209.701 371.876 " stroke="none" fill="#fcfbf9" fill-rule="evenodd"></path><path id="path5" d="M212.458 367.454 C 212.756 367.491,213.244 367.491,213.542 367.454 C 213.840 367.417,213.596 367.387,213.000 367.387 C 212.404 367.387,212.160 367.417,212.458 367.454 M212.875 368.288 C 213.219 368.324,213.781 368.324,214.125 368.288 C 214.469 368.252,214.188 368.223,213.500 368.223 C 212.813 368.223,212.531 368.252,212.875 368.288 " stroke="none" fill="#a99c84" fill-rule="evenodd"></path></g></svg>