<svg id="svg" version="1.1" xmlns="http://www.w3.org/2000/svg" xmlns:xlink="http://www.w3.org/1999/xlink" width="400" height="400" viewBox="0, 0, 400,400"><g id="svgg"><path id="path0" d="M265.861 246.479 C 265.714 246.573,265.806 246.614,266.136 246.602 C 266.410 246.592,266.599 246.527,266.557 246.458 C 266.456 246.294,266.138 246.304,265.861 246.479 M267.833 247.157 C 267.833 247.254,267.908 247.333,268.000 247.333 C 268.092 247.333,268.317 247.483,268.500 247.667 C 268.683 247.850,268.833 247.937,268.833 247.859 C 268.833 247.714,268.411 247.309,268.042 247.099 C 267.927 247.034,267.833 247.060,267.833 247.157 M269.167 248.135 C 269.167 248.288,269.799 249.000,269.935 249.000 C 269.983 249.000,269.862 248.775,269.667 248.500 C 269.305 247.992,269.167 247.891,269.167 248.135 M266.350 248.833 C 266.347 248.971,266.530 249.308,266.755 249.583 C 266.981 249.858,267.165 249.999,267.166 249.895 C 267.166 249.792,267.046 249.607,266.898 249.485 C 266.750 249.362,266.568 249.109,266.492 248.922 C 266.407 248.713,266.353 248.679,266.350 248.833 M271.126 251.919 C 271.170 252.150,271.273 252.379,271.353 252.429 C 271.524 252.535,271.535 252.396,271.395 251.875 C 271.257 251.361,271.027 251.399,271.126 251.919 M268.906 254.979 C 269.042 255.242,269.100 255.517,269.035 255.589 C 268.970 255.661,269.010 255.666,269.124 255.601 C 269.323 255.487,268.979 254.500,268.741 254.500 C 268.696 254.500,268.770 254.715,268.906 254.979 M272.556 258.167 C 272.556 258.854,272.585 259.135,272.621 258.792 C 272.657 258.448,272.657 257.885,272.621 257.542 C 272.585 257.198,272.556 257.479,272.556 258.167 M269.611 259.278 C 269.550 259.339,269.500 259.539,269.500 259.722 C 269.500 260.131,269.652 260.007,269.746 259.523 C 269.818 259.146,269.791 259.097,269.611 259.278 M268.635 263.250 C 268.574 263.525,268.471 263.900,268.408 264.083 C 268.307 264.373,268.329 264.368,268.574 264.040 C 268.728 263.832,268.831 263.457,268.801 263.206 L 268.746 262.750 268.635 263.250 M193.255 266.216 C 193.184 266.380,193.172 266.561,193.229 266.618 C 193.399 266.788,193.535 266.550,193.457 266.221 C 193.388 265.930,193.379 265.930,193.255 266.216 M270.233 268.091 C 270.040 268.499,269.929 268.833,269.987 268.833 C 270.071 268.833,270.399 268.274,270.793 267.458 C 270.826 267.390,270.792 267.337,270.718 267.341 C 270.644 267.345,270.426 267.683,270.233 268.091 M193.539 269.167 C 193.539 269.487,193.573 269.619,193.615 269.458 C 193.657 269.298,193.657 269.035,193.615 268.875 C 193.573 268.715,193.539 268.846,193.539 269.167 M269.667 269.236 C 269.667 269.366,269.573 269.510,269.458 269.556 C 269.301 269.620,269.300 269.644,269.452 269.654 C 269.564 269.661,269.735 269.517,269.833 269.333 C 269.954 269.107,269.956 269.000,269.839 269.000 C 269.744 269.000,269.667 269.106,269.667 269.236 M190.667 271.944 C 190.667 272.659,190.744 272.635,190.889 271.875 C 190.948 271.564,190.923 271.333,190.829 271.333 C 190.740 271.333,190.667 271.608,190.667 271.944 M267.096 272.843 C 266.919 273.021,266.852 273.167,266.945 273.167 C 267.039 273.167,267.251 273.017,267.417 272.833 C 267.803 272.406,267.521 272.415,267.096 272.843 M190.209 274.220 C 190.194 274.420,190.135 274.771,190.077 275.000 C 190.020 275.229,190.023 275.366,190.084 275.305 C 190.261 275.128,190.478 274.006,190.351 273.927 C 190.287 273.888,190.224 274.020,190.209 274.220 M265.810 274.494 C 265.594 274.675,265.476 274.825,265.549 274.828 C 265.621 274.831,265.842 274.683,266.038 274.500 C 266.500 274.070,266.324 274.066,265.810 274.494 M261.042 275.228 C 260.433 275.855,260.292 276.186,260.877 275.617 C 261.306 275.199,261.738 274.666,261.645 274.668 C 261.611 274.669,261.340 274.921,261.042 275.228 M264.958 275.399 C 264.798 275.520,264.667 275.681,264.667 275.755 C 264.667 275.830,264.543 276.028,264.391 276.195 C 264.239 276.363,264.148 276.500,264.189 276.500 C 264.230 276.500,264.540 276.200,264.877 275.833 C 265.484 275.173,265.522 274.971,264.958 275.399 M192.917 277.083 C 192.917 277.313,192.973 277.500,193.042 277.500 C 193.110 277.500,193.167 277.313,193.167 277.083 C 193.167 276.854,193.110 276.667,193.042 276.667 C 192.973 276.667,192.917 276.854,192.917 277.083 M258.375 277.353 C 258.077 277.543,257.833 277.776,257.833 277.870 C 257.833 278.037,258.087 277.876,258.738 277.292 C 259.168 276.906,259.039 276.927,258.375 277.353 M189.669 277.542 C 189.671 277.845,189.703 277.869,189.833 277.667 C 190.042 277.344,190.042 277.167,189.833 277.167 C 189.742 277.167,189.668 277.335,189.669 277.542 M192.793 278.583 C 192.836 278.813,192.901 279.000,192.936 279.000 C 192.971 279.000,193.000 278.813,193.000 278.583 C 193.000 278.354,192.935 278.167,192.856 278.167 C 192.777 278.167,192.749 278.354,192.793 278.583 M261.333 279.167 C 261.232 279.355,261.067 279.458,260.966 279.396 C 260.851 279.325,260.829 279.359,260.907 279.485 C 261.002 279.637,261.123 279.613,261.392 279.388 C 261.589 279.222,261.774 279.075,261.803 279.060 C 261.832 279.045,261.779 278.986,261.686 278.929 C 261.593 278.871,261.434 278.978,261.333 279.167 M255.406 279.856 C 254.919 280.377,254.919 280.378,255.361 280.096 C 255.605 279.941,255.847 279.705,255.897 279.573 C 256.030 279.227,255.954 279.271,255.406 279.856 M192.705 280.000 C 192.705 280.321,192.740 280.452,192.782 280.292 C 192.823 280.131,192.823 279.869,192.782 279.708 C 192.740 279.548,192.705 279.679,192.705 280.000 M189.539 280.500 C 189.539 280.821,189.573 280.952,189.615 280.792 C 189.657 280.631,189.657 280.369,189.615 280.208 C 189.573 280.048,189.539 280.179,189.539 280.500 M258.186 281.439 C 257.987 281.665,257.996 281.692,258.256 281.641 C 258.421 281.609,258.587 281.490,258.625 281.375 C 258.721 281.087,258.465 281.125,258.186 281.439 M189.333 283.917 C 189.333 285.093,189.378 286.011,189.433 285.956 C 189.557 285.832,189.549 281.993,189.424 281.869 C 189.374 281.819,189.333 282.740,189.333 283.917 M256.399 283.121 C 256.134 283.371,255.855 283.556,255.779 283.533 C 255.704 283.510,255.692 283.572,255.753 283.671 C 255.840 283.812,256.989 282.923,256.998 282.708 C 257.003 282.594,256.839 282.707,256.399 283.121 M251.918 283.332 C 251.656 283.606,251.473 283.857,251.512 283.891 C 251.551 283.924,251.829 283.700,252.130 283.393 C 252.430 283.085,252.613 282.833,252.536 282.833 C 252.459 282.833,252.181 283.058,251.918 283.332 M192.379 284.000 C 192.379 284.412,192.411 284.581,192.451 284.375 C 192.491 284.169,192.491 283.831,192.451 283.625 C 192.411 283.419,192.379 283.587,192.379 284.000 M254.853 284.613 C 254.543 284.924,254.323 285.212,254.364 285.253 C 254.405 285.294,254.730 285.029,255.086 284.664 C 255.443 284.299,255.663 284.011,255.575 284.024 C 255.488 284.037,255.163 284.302,254.853 284.613 M253.766 285.917 C 253.518 286.146,253.414 286.331,253.533 286.328 C 253.652 286.325,253.885 286.138,254.049 285.911 C 254.431 285.387,254.335 285.389,253.766 285.917 M192.212 287.500 C 192.212 287.912,192.245 288.081,192.284 287.875 C 192.324 287.669,192.324 287.331,192.284 287.125 C 192.245 286.919,192.212 287.087,192.212 287.500 M251.554 288.443 C 251.614 288.503,251.572 288.672,251.460 288.818 C 251.335 288.981,251.400 288.960,251.628 288.766 C 252.073 288.386,252.085 288.333,251.722 288.333 C 251.569 288.333,251.494 288.383,251.554 288.443 M250.197 290.416 C 250.093 290.646,249.926 290.833,249.827 290.833 C 249.728 290.833,249.689 290.902,249.741 290.986 C 249.793 291.070,249.741 291.176,249.626 291.223 C 249.483 291.280,249.478 291.311,249.611 291.320 C 249.818 291.334,250.591 290.202,250.463 290.074 C 250.421 290.032,250.302 290.186,250.197 290.416 M192.214 292.250 C 192.216 292.708,192.248 292.876,192.286 292.623 C 192.325 292.369,192.324 291.994,192.284 291.789 C 192.244 291.584,192.213 291.792,192.214 292.250 M244.096 294.526 C 243.951 294.815,243.833 295.094,243.833 295.146 C 243.833 295.291,244.264 294.622,244.384 294.292 C 244.557 293.815,244.378 293.960,244.096 294.526 M192.389 296.667 C 192.389 297.354,192.419 297.635,192.455 297.292 C 192.491 296.948,192.491 296.385,192.455 296.042 C 192.419 295.698,192.389 295.979,192.389 296.667 M189.375 296.583 C 189.377 296.950,189.411 297.080,189.451 296.873 C 189.491 296.666,189.490 296.366,189.448 296.206 C 189.406 296.047,189.374 296.217,189.375 296.583 M189.350 298.597 C 189.359 299.323,189.424 300.104,189.494 300.333 C 189.565 300.563,189.585 300.000,189.539 299.083 C 189.437 297.063,189.327 296.780,189.350 298.597 M192.539 299.333 C 192.539 299.654,192.573 299.785,192.615 299.625 C 192.657 299.465,192.657 299.202,192.615 299.042 C 192.573 298.881,192.539 299.012,192.539 299.333 M192.465 301.292 C 192.547 302.558,192.626 302.667,192.647 301.542 C 192.658 300.969,192.610 300.500,192.540 300.500 C 192.471 300.500,192.437 300.856,192.465 301.292 M240.886 301.292 C 240.829 301.452,240.745 301.658,240.700 301.750 C 240.655 301.842,240.718 301.824,240.841 301.710 C 241.055 301.511,241.215 301.000,241.063 301.000 C 241.023 301.000,240.943 301.131,240.886 301.292 M189.545 302.000 C 189.545 302.412,189.578 302.581,189.618 302.375 C 189.657 302.169,189.657 301.831,189.618 301.625 C 189.578 301.419,189.545 301.587,189.545 302.000 M240.292 302.752 C 240.197 303.250,240.261 303.279,240.495 302.843 C 240.593 302.660,240.603 302.481,240.520 302.429 C 240.438 302.378,240.336 302.524,240.292 302.752 M242.413 305.713 C 242.238 306.009,242.074 306.400,242.050 306.583 C 242.025 306.767,242.188 306.545,242.412 306.090 C 242.881 305.139,242.882 304.926,242.413 305.713 M189.833 306.861 C 189.833 307.151,189.884 307.338,189.946 307.277 C 190.105 307.117,190.120 306.333,189.964 306.333 C 189.892 306.333,189.833 306.571,189.833 306.861 M192.667 306.740 C 192.667 306.964,192.728 307.185,192.803 307.231 C 192.878 307.278,192.907 307.095,192.868 306.825 C 192.780 306.229,192.667 306.181,192.667 306.740 M241.618 307.333 C 241.570 307.517,241.599 307.667,241.682 307.667 C 241.765 307.667,241.833 307.635,241.833 307.597 C 241.833 307.559,241.879 307.409,241.934 307.264 C 241.990 307.119,241.961 307.000,241.871 307.000 C 241.780 307.000,241.666 307.150,241.618 307.333 M236.894 310.615 C 236.725 311.056,236.586 311.467,236.585 311.528 C 236.584 311.589,236.527 311.695,236.458 311.764 C 236.390 311.833,236.336 311.970,236.338 312.069 C 236.344 312.261,236.714 311.700,236.770 311.417 C 236.788 311.325,236.927 310.961,237.078 310.607 C 237.229 310.253,237.319 309.930,237.277 309.889 C 237.236 309.847,237.063 310.174,236.894 310.615 M190.167 310.583 C 190.167 310.813,190.223 311.000,190.292 311.000 C 190.360 311.000,190.417 310.813,190.417 310.583 C 190.417 310.354,190.360 310.167,190.292 310.167 C 190.223 310.167,190.167 310.354,190.167 310.583 M193.274 312.250 C 193.322 312.892,193.393 313.448,193.431 313.486 C 193.565 313.621,193.474 311.745,193.331 311.417 C 193.239 311.207,193.218 311.515,193.274 312.250 M238.595 315.095 C 238.534 315.339,238.521 315.577,238.567 315.623 C 238.613 315.668,238.701 315.506,238.762 315.262 C 238.823 315.018,238.836 314.780,238.790 314.734 C 238.744 314.689,238.657 314.851,238.595 315.095 M190.715 316.009 C 190.696 316.273,190.734 316.522,190.799 316.562 C 190.931 316.644,190.964 315.741,190.833 315.612 C 190.787 315.566,190.734 315.745,190.715 316.009 M190.875 317.417 C 190.877 317.783,190.911 317.914,190.951 317.706 C 190.991 317.499,190.990 317.199,190.948 317.040 C 190.906 316.880,190.874 317.050,190.875 317.417 M191.003 319.292 C 191.004 319.625,191.046 319.686,191.154 319.515 C 191.236 319.386,191.264 319.180,191.217 319.057 C 191.082 318.704,191.000 318.794,191.003 319.292 M191.315 320.875 C 191.271 321.369,191.375 321.929,191.539 322.083 C 191.659 322.197,191.680 322.186,191.603 322.050 C 191.541 321.940,191.480 321.584,191.468 321.258 C 191.447 320.686,191.352 320.450,191.315 320.875 M236.686 320.861 C 236.675 321.014,236.624 321.277,236.571 321.445 C 236.480 321.734,236.485 321.735,236.665 321.453 C 236.770 321.290,236.822 321.027,236.781 320.870 C 236.713 320.612,236.703 320.611,236.686 320.861 M232.460 323.578 C 232.417 323.805,232.437 323.956,232.504 323.914 C 232.683 323.803,232.825 323.167,232.670 323.167 C 232.598 323.167,232.503 323.352,232.460 323.578 M191.927 325.250 C 192.107 326.014,192.345 326.347,192.225 325.667 C 192.169 325.346,192.052 325.008,191.966 324.917 C 191.868 324.812,191.854 324.936,191.927 325.250 M231.702 325.708 C 231.447 326.385,231.518 326.436,231.868 325.826 C 232.021 325.559,232.091 325.306,232.023 325.264 C 231.954 325.222,231.810 325.421,231.702 325.708 M192.461 327.591 C 192.504 327.819,192.595 328.039,192.662 328.081 C 192.730 328.122,192.750 327.970,192.706 327.742 C 192.662 327.515,192.572 327.294,192.504 327.253 C 192.437 327.211,192.417 327.363,192.461 327.591 M233.887 329.125 C 233.714 329.678,233.719 329.713,233.929 329.426 C 234.128 329.155,234.266 328.500,234.124 328.500 C 234.101 328.500,233.994 328.781,233.887 329.125 M193.338 330.833 C 193.338 330.971,193.411 331.196,193.500 331.333 C 193.644 331.556,193.662 331.556,193.662 331.333 C 193.662 331.196,193.589 330.971,193.500 330.833 C 193.356 330.611,193.338 330.611,193.338 330.833 M228.443 335.284 C 228.277 335.815,228.104 336.344,228.057 336.458 C 228.010 336.573,228.053 336.667,228.153 336.667 C 228.252 336.667,228.318 336.610,228.299 336.542 C 228.280 336.473,228.399 336.023,228.563 335.541 C 228.726 335.059,228.835 334.587,228.803 334.492 C 228.771 334.396,228.609 334.753,228.443 335.284 M194.773 335.238 C 194.844 335.778,194.945 335.944,195.107 335.782 C 195.166 335.723,195.137 335.579,195.042 335.462 C 194.947 335.346,194.833 335.137,194.789 335.000 C 194.746 334.862,194.738 334.970,194.773 335.238 M195.667 337.886 C 195.667 338.161,196.219 339.333,196.349 339.333 C 196.429 339.333,196.333 339.015,196.135 338.625 C 195.734 337.836,195.667 337.729,195.667 337.886 M230.217 339.481 C 230.091 339.683,230.084 339.856,230.198 340.015 C 230.334 340.206,230.349 340.200,230.279 339.979 C 230.231 339.829,230.276 339.624,230.377 339.523 C 230.478 339.422,230.526 339.304,230.483 339.260 C 230.439 339.217,230.320 339.316,230.217 339.481 M196.333 339.708 C 196.333 339.892,196.988 341.333,197.071 341.333 C 197.117 341.333,197.003 340.979,196.817 340.545 C 196.488 339.778,196.333 339.510,196.333 339.708 M200.000 340.385 C 200.000 340.505,200.111 340.749,200.248 340.926 C 200.474 341.222,200.480 341.204,200.315 340.708 C 200.126 340.143,200.000 340.013,200.000 340.385 M226.369 340.839 C 226.258 341.017,226.170 341.257,226.173 341.373 C 226.177 341.489,226.295 341.370,226.436 341.110 C 226.729 340.570,226.674 340.349,226.369 340.839 M229.046 342.708 C 228.850 342.962,228.649 343.500,228.751 343.500 C 228.792 343.500,228.941 343.275,229.083 343.000 C 229.349 342.485,229.331 342.340,229.046 342.708 M202.169 344.517 C 202.163 344.796,202.552 345.667,202.683 345.667 C 202.766 345.667,202.833 345.775,202.833 345.907 C 202.833 346.039,202.907 346.193,202.998 346.249 C 203.097 346.310,203.117 346.231,203.048 346.050 C 202.895 345.652,202.171 344.389,202.169 344.517 M224.711 344.704 C 224.617 344.821,224.490 345.104,224.428 345.333 C 224.322 345.729,224.329 345.734,224.569 345.434 C 224.709 345.260,224.787 345.060,224.744 344.990 C 224.700 344.919,224.759 344.828,224.874 344.787 C 224.989 344.746,225.038 344.663,224.982 344.602 C 224.926 344.542,224.804 344.588,224.711 344.704 M227.583 345.833 C 227.527 345.925,227.531 346.000,227.593 346.000 C 227.654 346.000,227.579 346.206,227.426 346.458 L 227.147 346.917 227.490 346.523 C 227.679 346.307,227.833 346.026,227.833 345.898 C 227.833 345.626,227.728 345.599,227.583 345.833 M226.833 347.583 C 226.719 347.721,226.691 347.834,226.771 347.836 C 226.851 347.837,226.804 347.918,226.667 348.015 C 226.474 348.152,226.470 348.178,226.651 348.129 C 226.779 348.094,226.946 347.901,227.020 347.700 C 227.179 347.271,227.122 347.236,226.833 347.583 M201.667 350.458 C 201.667 350.538,201.775 350.749,201.908 350.926 C 202.142 351.239,202.147 351.237,202.055 350.872 C 201.960 350.496,201.667 350.183,201.667 350.458 M205.958 351.944 C 206.073 351.990,206.167 352.126,206.167 352.246 C 206.167 352.366,206.279 352.508,206.417 352.560 C 206.631 352.642,206.628 352.596,206.398 352.245 C 206.250 352.019,206.043 351.839,205.939 351.846 C 205.818 351.855,205.825 351.890,205.958 351.944 M220.787 352.409 C 220.385 353.252,220.427 353.548,220.835 352.747 C 221.019 352.386,221.148 352.027,221.122 351.949 C 221.096 351.871,220.945 352.078,220.787 352.409 M206.682 353.000 C 206.678 353.137,206.903 353.512,207.182 353.833 C 207.479 354.175,207.614 354.265,207.510 354.051 C 207.412 353.850,207.252 353.636,207.154 353.576 C 207.056 353.515,206.912 353.305,206.832 353.108 C 206.748 352.899,206.685 352.854,206.682 353.000 M223.874 353.444 C 223.759 353.490,223.701 353.587,223.746 353.659 C 223.790 353.731,223.678 353.961,223.497 354.171 C 223.315 354.380,223.167 354.625,223.167 354.715 C 223.167 354.905,223.694 354.254,223.981 353.708 C 224.090 353.502,224.157 353.339,224.131 353.346 C 224.105 353.354,223.989 353.398,223.874 353.444 M204.246 354.958 C 204.504 355.491,204.667 355.643,204.667 355.352 C 204.667 355.270,204.513 355.027,204.325 354.810 L 203.984 354.417 204.246 354.958 M219.386 355.125 C 219.329 355.285,219.252 355.473,219.214 355.542 C 219.177 355.610,219.218 355.667,219.304 355.667 C 219.390 355.667,219.497 355.479,219.541 355.250 C 219.632 354.771,219.539 354.695,219.386 355.125 M205.101 356.403 C 205.157 356.548,205.276 356.667,205.365 356.667 C 205.584 356.667,205.447 356.288,205.198 356.205 C 205.076 356.164,205.039 356.240,205.101 356.403 M205.505 356.926 C 205.502 357.024,205.610 357.249,205.745 357.426 C 205.879 357.604,205.992 357.671,205.995 357.574 C 205.998 357.476,205.890 357.251,205.755 357.074 C 205.621 356.896,205.508 356.829,205.505 356.926 M218.157 357.291 C 217.781 358.042,217.786 358.116,218.175 357.535 C 218.377 357.233,218.507 356.951,218.465 356.909 C 218.422 356.867,218.284 357.038,218.157 357.291 M209.625 357.777 C 209.740 357.823,209.833 357.949,209.833 358.057 C 209.833 358.165,209.988 358.350,210.178 358.468 C 210.505 358.673,210.504 358.659,210.147 358.175 C 209.940 357.895,209.691 357.673,209.594 357.680 C 209.496 357.687,209.510 357.731,209.625 357.777 M221.168 358.162 C 220.705 359.281,220.134 359.719,219.405 359.517 C 219.045 359.417,218.397 359.335,217.967 359.334 C 217.394 359.334,217.139 359.255,217.020 359.042 C 216.873 358.779,216.840 358.792,216.695 359.167 C 216.404 359.918,215.656 360.425,214.507 360.650 C 211.180 361.301,206.809 363.730,205.931 365.417 C 205.465 366.310,205.472 367.980,205.952 370.583 C 206.154 371.683,206.472 373.708,206.658 375.083 C 206.843 376.458,207.116 378.033,207.263 378.583 C 207.410 379.133,207.598 380.296,207.681 381.167 C 207.844 382.872,207.894 383.170,208.559 386.333 C 209.369 390.190,209.575 390.702,210.781 391.860 C 212.752 393.752,217.762 394.931,220.965 394.257 C 222.197 393.998,222.478 393.899,224.167 393.126 C 224.762 392.853,225.488 392.607,225.778 392.579 C 227.303 392.431,228.197 389.269,227.537 386.352 C 227.425 385.858,227.331 384.546,227.329 383.436 C 227.327 382.325,227.253 381.105,227.165 380.723 C 227.077 380.342,226.966 379.629,226.918 379.140 C 226.870 378.650,226.757 377.875,226.666 377.417 C 226.401 376.072,226.030 373.543,225.835 371.750 C 225.480 368.502,224.754 364.167,224.563 364.167 C 224.461 364.167,223.748 363.546,222.980 362.787 C 221.628 361.451,221.424 361.327,219.865 360.908 C 219.422 360.789,219.535 360.529,220.487 359.487 C 221.008 358.917,221.587 357.865,221.453 357.731 C 221.412 357.690,221.284 357.884,221.168 358.162 M206.167 357.908 C 206.167 357.976,206.335 358.268,206.541 358.558 C 206.748 358.847,206.916 359.122,206.916 359.170 C 206.917 359.355,207.656 360.240,207.661 360.062 C 207.664 359.959,207.554 359.781,207.417 359.667 C 207.279 359.553,207.167 359.393,207.167 359.311 C 207.167 359.230,206.942 358.853,206.667 358.474 C 206.392 358.094,206.167 357.839,206.167 357.908 M214.070 362.434 C 214.422 362.570,214.402 362.774,213.994 363.212 C 212.773 364.522,214.127 365.543,215.809 364.581 C 216.712 364.065,216.667 364.057,216.667 364.736 C 216.667 366.582,214.386 366.916,212.871 365.293 C 211.720 364.059,212.632 361.883,214.070 362.434 M219.915 367.497 C 219.970 367.586,219.927 367.824,219.820 368.025 C 219.658 368.327,219.675 368.427,219.916 368.604 C 220.339 368.913,220.120 369.269,219.388 369.463 L 218.750 369.632 219.357 369.649 C 220.067 369.670,220.363 370.111,219.896 370.452 C 219.578 370.685,219.586 370.703,220.125 370.983 C 220.349 371.100,220.500 371.333,220.500 371.563 C 220.500 371.775,220.653 372.087,220.841 372.257 C 221.120 372.510,221.173 372.731,221.132 373.491 L 221.083 374.417 220.292 374.467 C 219.328 374.529,219.132 375.000,220.070 375.000 C 220.970 375.000,221.167 375.139,221.167 375.776 C 221.167 376.092,221.283 376.575,221.425 376.850 C 221.780 377.537,221.616 377.900,220.788 378.254 L 220.083 378.555 221.049 378.655 C 222.367 378.792,222.557 379.157,222.134 380.740 C 221.956 381.406,221.969 381.523,222.252 381.836 C 222.645 382.270,222.484 382.401,221.203 382.690 C 220.149 382.928,219.900 382.783,220.166 382.086 C 220.317 381.689,220.291 381.569,219.996 381.294 C 219.527 380.856,219.648 380.619,220.426 380.458 C 220.784 380.383,221.149 380.251,221.236 380.164 C 221.538 379.862,221.173 379.788,220.423 379.998 C 219.306 380.311,218.643 379.552,219.506 378.948 C 219.833 378.719,219.827 378.707,219.318 378.605 C 218.792 378.500,218.791 378.497,218.899 377.682 C 218.988 377.010,218.917 376.616,218.504 375.483 C 217.908 373.849,217.874 373.239,218.353 372.729 L 218.707 372.353 218.187 371.722 C 217.545 370.944,217.459 369.691,218.000 369.000 C 218.436 368.443,218.416 368.348,217.875 368.385 C 217.270 368.427,217.241 367.849,217.833 367.549 C 218.327 367.299,219.770 367.263,219.915 367.497 M216.500 368.500 C 216.773 368.773,216.833 369.056,216.833 370.063 C 216.833 371.582,216.653 371.805,215.732 371.420 C 215.049 371.134,214.667 371.185,214.667 371.560 C 214.667 371.878,215.033 372.000,215.993 372.000 C 216.994 372.000,217.102 372.132,217.410 373.742 C 217.697 375.244,217.603 375.552,216.771 375.826 C 215.550 376.229,215.482 376.667,216.641 376.667 C 217.725 376.667,218.028 376.993,217.417 377.500 C 217.068 377.790,217.105 378.125,217.500 378.250 C 218.235 378.483,217.664 378.938,216.423 379.108 L 215.667 379.212 215.667 378.017 C 215.667 376.524,215.526 376.451,214.135 377.222 C 212.650 378.046,211.753 378.067,211.594 377.281 C 211.321 375.926,211.345 374.733,211.655 374.224 C 211.973 373.704,211.973 373.693,211.655 373.406 C 211.052 372.860,211.448 372.327,212.447 372.339 C 213.147 372.347,213.547 372.739,213.669 373.541 L 213.778 374.250 213.973 373.778 C 214.130 373.399,214.111 373.026,213.879 371.899 C 213.549 370.295,213.654 369.920,214.435 369.911 C 215.148 369.902,215.135 369.446,214.408 369.017 C 213.903 368.719,213.834 368.616,214.004 368.412 C 214.330 368.019,216.080 368.080,216.500 368.500 M212.561 368.845 C 213.435 369.533,212.860 370.687,211.533 370.911 C 210.606 371.068,210.500 370.963,210.500 369.899 C 210.500 368.629,211.583 368.076,212.561 368.845 M219.375 372.944 C 218.880 373.144,219.282 373.667,219.930 373.667 C 220.253 373.667,220.231 373.060,219.903 372.934 C 219.758 372.879,219.627 372.839,219.611 372.846 C 219.596 372.854,219.490 372.897,219.375 372.944 M213.695 375.695 C 213.766 376.197,214.417 376.246,214.417 375.750 C 214.417 375.528,214.287 375.398,214.028 375.362 C 213.705 375.316,213.649 375.372,213.695 375.695 M218.059 381.083 C 218.329 381.353,218.599 383.001,218.441 383.414 C 218.370 383.598,218.092 383.667,217.422 383.667 C 216.410 383.667,216.363 383.605,216.792 382.838 C 217.092 382.301,216.785 381.781,215.970 381.445 C 215.805 381.377,215.831 381.289,216.074 381.094 C 216.488 380.760,217.730 380.754,218.059 381.083 " stroke="none" fill="#cccccc" fill-rule="evenodd"></path><path id="path1" d="M266.042 246.555 C 265.494 246.717,265.220 247.497,265.708 247.503 C 265.859 247.504,265.853 247.546,265.686 247.651 C 265.506 247.765,265.533 247.821,265.814 247.910 C 266.011 247.973,266.133 248.087,266.085 248.164 C 265.965 248.357,266.172 248.850,266.332 248.751 C 266.455 248.675,266.723 249.275,266.685 249.542 C 266.675 249.610,266.751 249.648,266.854 249.625 C 266.957 249.602,267.080 249.688,267.126 249.815 C 267.177 249.956,267.137 250.001,267.024 249.931 C 266.905 249.858,266.873 249.910,266.936 250.075 C 266.991 250.217,267.107 250.333,267.194 250.333 C 267.282 250.333,267.320 250.390,267.279 250.458 C 267.178 250.628,267.761 251.684,267.886 251.558 C 267.941 251.504,267.949 251.662,267.904 251.910 C 267.856 252.175,267.888 252.319,267.982 252.261 C 268.139 252.164,268.378 252.659,268.311 252.941 C 268.249 253.201,268.536 254.336,268.687 254.429 C 268.769 254.480,268.954 254.750,269.098 255.029 C 269.255 255.332,269.281 255.488,269.164 255.415 C 269.014 255.322,269.012 255.377,269.156 255.647 C 269.260 255.841,269.296 256.000,269.237 256.000 C 269.177 256.000,269.238 256.169,269.372 256.375 C 269.505 256.581,269.587 256.975,269.554 257.250 C 269.511 257.597,269.539 257.679,269.646 257.518 C 269.830 257.238,269.769 258.700,269.583 259.001 C 269.517 259.108,269.540 259.273,269.635 259.368 C 269.836 259.570,269.703 260.042,269.483 259.906 C 269.400 259.855,269.333 259.893,269.333 259.990 C 269.333 260.087,269.418 260.167,269.520 260.167 C 269.647 260.167,269.654 260.234,269.543 260.375 C 269.452 260.490,269.337 260.771,269.287 261.000 C 269.237 261.229,269.142 261.604,269.075 261.833 C 269.009 262.063,268.921 262.599,268.879 263.026 C 268.837 263.453,268.677 263.941,268.522 264.110 C 268.368 264.279,268.224 264.637,268.203 264.907 C 268.182 265.177,268.081 265.450,267.978 265.514 C 267.875 265.577,267.840 265.710,267.901 265.809 C 267.962 265.907,267.859 266.141,267.673 266.327 C 267.298 266.702,267.214 267.080,267.542 266.914 C 267.656 266.856,267.594 266.946,267.404 267.116 C 267.214 267.285,267.089 267.516,267.126 267.628 C 267.164 267.741,267.109 267.833,267.004 267.833 C 266.899 267.833,266.860 267.908,266.917 268.000 C 266.973 268.092,266.936 268.167,266.833 268.167 C 266.731 268.167,266.688 268.234,266.739 268.316 C 266.790 268.398,266.715 268.510,266.572 268.565 C 266.429 268.619,266.359 268.740,266.417 268.833 C 266.474 268.926,266.404 269.047,266.261 269.102 C 266.117 269.157,266.000 269.307,266.000 269.434 C 266.000 269.562,265.930 269.667,265.845 269.667 C 265.759 269.667,265.641 269.818,265.583 270.002 C 265.524 270.187,265.406 270.295,265.321 270.243 C 265.236 270.190,265.167 270.264,265.167 270.407 C 265.167 270.550,265.087 270.667,264.990 270.667 C 264.893 270.667,264.860 270.742,264.917 270.833 C 264.973 270.925,264.900 271.000,264.755 271.000 C 264.609 271.000,264.444 271.120,264.387 271.266 C 264.331 271.412,264.075 271.763,263.817 272.045 C 263.560 272.326,263.381 272.608,263.419 272.671 C 263.458 272.733,263.304 272.869,263.078 272.972 C 262.833 273.084,262.667 273.299,262.667 273.506 C 262.667 273.729,262.597 273.810,262.472 273.732 C 262.341 273.651,262.312 273.703,262.383 273.889 C 262.460 274.091,262.399 274.167,262.157 274.167 C 261.960 274.167,261.763 274.329,261.673 274.567 C 261.526 274.954,260.713 275.888,260.458 275.963 C 260.390 275.983,260.338 276.050,260.345 276.110 C 260.351 276.171,260.127 276.317,259.847 276.434 C 259.568 276.552,259.033 276.951,258.660 277.321 C 258.286 277.691,257.928 277.977,257.865 277.956 C 257.714 277.908,257.063 278.369,256.981 278.583 C 256.945 278.675,256.858 278.731,256.787 278.707 C 256.716 278.683,256.614 278.777,256.561 278.915 C 256.508 279.053,256.360 279.167,256.232 279.167 C 256.104 279.167,256.000 279.246,256.000 279.343 C 256.000 279.440,255.926 279.474,255.835 279.418 C 255.743 279.361,255.712 279.424,255.765 279.562 C 255.855 279.796,255.242 280.283,254.958 280.202 C 254.890 280.183,254.832 280.335,254.831 280.542 C 254.829 280.845,254.797 280.869,254.667 280.667 C 254.578 280.529,254.495 280.473,254.482 280.542 C 254.469 280.610,254.440 280.742,254.417 280.833 C 254.394 280.925,254.366 281.079,254.354 281.177 C 254.343 281.274,254.258 281.307,254.167 281.250 C 254.075 281.193,254.000 281.226,254.000 281.323 C 254.000 281.421,253.875 281.500,253.722 281.500 C 253.569 281.500,253.488 281.544,253.542 281.597 C 253.660 281.716,253.066 282.333,252.833 282.333 C 252.690 282.333,252.632 282.473,252.626 282.833 C 252.624 282.943,251.541 283.994,251.377 284.044 C 251.307 284.066,251.269 284.140,251.292 284.208 C 251.315 284.277,251.221 284.333,251.083 284.333 C 250.946 284.333,250.852 284.395,250.875 284.470 C 250.898 284.545,250.646 284.864,250.315 285.178 C 249.984 285.493,249.660 285.920,249.595 286.127 C 249.529 286.335,249.406 286.462,249.321 286.409 C 249.179 286.321,249.094 286.559,249.151 286.887 C 249.164 286.963,249.098 286.977,249.003 286.918 C 248.908 286.860,248.780 286.948,248.717 287.114 C 248.655 287.281,248.393 287.616,248.135 287.859 C 247.878 288.102,247.667 288.385,247.667 288.489 C 247.667 288.592,247.559 288.718,247.427 288.769 C 247.289 288.822,247.231 288.973,247.289 289.124 C 247.344 289.269,247.321 289.346,247.237 289.295 C 247.152 289.244,246.987 289.306,246.868 289.434 C 246.698 289.619,246.697 289.667,246.864 289.667 C 246.980 289.667,246.902 289.787,246.693 289.934 C 246.483 290.081,246.350 290.304,246.398 290.429 C 246.447 290.555,246.322 290.772,246.123 290.912 C 245.875 291.086,245.837 291.168,246.005 291.172 C 246.205 291.176,246.199 291.216,245.972 291.388 C 245.820 291.505,245.558 291.915,245.391 292.300 C 245.225 292.685,245.031 293.000,244.961 293.000 C 244.891 293.000,244.833 293.098,244.833 293.217 C 244.833 293.336,244.744 293.523,244.635 293.632 C 244.526 293.741,244.418 293.959,244.395 294.116 C 244.336 294.517,243.971 295.167,243.805 295.167 C 243.729 295.167,243.667 295.317,243.667 295.500 C 243.667 295.683,243.585 295.833,243.486 295.833 C 243.387 295.833,243.339 295.927,243.379 296.042 C 243.419 296.156,243.297 296.472,243.106 296.744 C 242.915 297.016,242.736 297.391,242.708 297.578 C 242.680 297.764,242.584 297.942,242.494 297.973 C 242.405 298.003,242.374 298.097,242.425 298.181 C 242.477 298.265,242.444 298.333,242.351 298.333 C 242.258 298.333,242.133 298.596,242.072 298.917 C 242.012 299.237,241.896 299.500,241.815 299.500 C 241.733 299.500,241.667 299.598,241.667 299.717 C 241.667 299.836,241.573 300.027,241.458 300.142 C 241.344 300.256,241.241 300.421,241.229 300.508 C 241.218 300.595,241.190 300.704,241.167 300.750 C 241.144 300.796,241.112 301.002,241.097 301.208 C 241.079 301.442,240.977 301.562,240.826 301.528 C 240.692 301.497,240.639 301.528,240.707 301.596 C 240.775 301.664,240.748 301.819,240.647 301.941 C 240.545 302.063,240.507 302.278,240.561 302.418 C 240.617 302.565,240.500 302.833,240.288 303.045 C 240.084 303.250,239.907 303.548,239.896 303.708 C 239.884 303.869,239.857 304.056,239.834 304.125 C 239.812 304.194,239.803 304.306,239.814 304.375 C 239.824 304.444,239.721 304.500,239.583 304.500 C 239.446 304.500,239.333 304.579,239.333 304.677 C 239.333 304.774,239.408 304.807,239.500 304.750 C 239.779 304.577,239.686 304.814,239.337 305.163 C 239.156 305.344,239.051 305.606,239.104 305.745 C 239.160 305.891,239.089 306.040,238.935 306.099 C 238.788 306.156,238.713 306.273,238.767 306.361 C 238.822 306.449,238.727 306.674,238.558 306.861 C 238.389 307.049,238.269 307.231,238.292 307.267 C 238.315 307.304,238.324 307.371,238.313 307.417 C 238.301 307.462,238.282 307.573,238.271 307.661 C 238.259 307.750,238.119 307.976,237.958 308.163 C 237.798 308.351,237.667 308.653,237.667 308.835 C 237.667 309.018,237.610 309.167,237.542 309.167 C 237.473 309.167,237.406 309.358,237.392 309.592 C 237.379 309.825,237.186 310.384,236.963 310.833 C 236.741 311.282,236.627 311.608,236.709 311.557 C 236.791 311.507,236.759 311.623,236.639 311.816 C 236.518 312.009,236.355 312.167,236.275 312.167 C 236.196 312.167,236.178 312.354,236.235 312.583 C 236.293 312.813,236.279 313.000,236.206 313.000 C 236.001 313.000,235.468 313.980,235.576 314.155 C 235.629 314.241,235.595 314.358,235.500 314.417 C 235.405 314.475,235.371 314.593,235.424 314.678 C 235.477 314.764,235.431 314.833,235.324 314.833 C 235.211 314.833,235.164 314.972,235.213 315.159 C 235.260 315.338,235.196 315.619,235.071 315.784 C 234.784 316.162,234.770 316.385,235.042 316.247 C 235.156 316.189,235.137 316.241,235.000 316.363 C 234.862 316.484,234.724 316.733,234.692 316.917 C 234.661 317.100,234.561 317.340,234.470 317.450 C 234.380 317.561,234.358 317.814,234.421 318.013 C 234.493 318.242,234.473 318.336,234.366 318.270 C 234.270 318.211,234.217 318.293,234.243 318.458 C 234.269 318.618,234.222 318.836,234.139 318.941 C 233.992 319.126,233.822 319.705,233.792 320.118 C 233.784 320.228,233.673 320.359,233.544 320.409 C 233.396 320.466,233.349 320.621,233.416 320.833 C 233.475 321.016,233.459 321.167,233.381 321.167 C 233.303 321.167,233.224 321.358,233.204 321.592 C 233.185 321.826,233.077 322.182,232.966 322.384 C 232.854 322.585,232.778 322.806,232.798 322.875 C 232.817 322.944,232.740 323.001,232.625 323.003 C 232.463 323.005,232.462 323.034,232.619 323.134 C 232.778 323.235,232.776 323.352,232.609 323.673 C 232.492 323.899,232.373 324.158,232.345 324.250 C 232.317 324.342,232.228 324.588,232.149 324.797 C 232.069 325.007,232.022 325.269,232.044 325.381 C 232.065 325.492,231.992 325.565,231.881 325.544 C 231.770 325.522,231.718 325.606,231.766 325.731 C 231.813 325.855,231.736 326.074,231.593 326.217 C 231.283 326.527,231.245 326.905,231.542 326.731 C 231.656 326.664,231.611 326.768,231.442 326.961 C 231.268 327.159,231.189 327.401,231.259 327.515 C 231.339 327.645,231.315 327.675,231.192 327.599 C 231.037 327.503,230.915 327.708,231.028 327.875 C 231.044 327.898,230.953 328.104,230.826 328.333 C 230.700 328.563,230.583 328.953,230.568 329.200 C 230.552 329.448,230.418 329.772,230.270 329.921 C 230.028 330.162,229.910 330.647,229.989 331.068 C 230.005 331.151,229.943 331.265,229.852 331.322 C 229.761 331.378,229.649 331.635,229.602 331.893 C 229.555 332.151,229.434 332.462,229.334 332.583 C 229.215 332.725,229.209 332.840,229.315 332.906 C 229.470 333.001,229.056 334.018,228.816 334.131 C 228.760 334.157,228.753 334.374,228.798 334.614 C 228.861 334.942,228.828 335.016,228.665 334.916 C 228.521 334.827,228.489 334.847,228.569 334.978 C 228.636 335.085,228.595 335.453,228.478 335.795 C 228.361 336.137,228.280 336.473,228.299 336.542 C 228.318 336.610,228.215 336.667,228.071 336.667 C 227.902 336.667,227.820 336.799,227.840 337.042 C 227.890 337.662,227.842 337.858,227.667 337.750 C 227.499 337.646,227.462 337.771,227.457 338.458 C 227.456 338.665,227.390 338.833,227.310 338.833 C 227.231 338.833,227.179 338.890,227.194 338.958 C 227.250 339.217,226.959 339.994,226.735 340.179 C 226.608 340.285,226.540 340.429,226.584 340.501 C 226.700 340.688,226.016 342.167,225.814 342.167 C 225.721 342.167,225.688 342.306,225.743 342.476 C 225.799 342.655,225.734 342.875,225.587 342.997 C 225.448 343.113,225.333 343.386,225.333 343.604 C 225.333 343.837,225.235 344.000,225.094 344.000 C 224.930 344.000,224.879 344.131,224.931 344.417 C 224.973 344.650,224.928 344.833,224.827 344.833 C 224.728 344.833,224.692 344.906,224.746 344.994 C 224.801 345.082,224.694 345.306,224.510 345.490 C 224.304 345.696,224.216 345.934,224.282 346.107 C 224.355 346.297,224.327 346.349,224.195 346.268 C 224.078 346.195,224.000 346.251,224.000 346.407 C 224.000 346.550,223.921 346.667,223.823 346.667 C 223.726 346.667,223.693 346.742,223.750 346.833 C 223.807 346.925,223.769 347.000,223.667 347.000 C 223.564 347.000,223.527 347.075,223.583 347.167 C 223.640 347.258,223.609 347.333,223.515 347.333 C 223.421 347.333,223.390 347.453,223.446 347.600 C 223.502 347.747,223.459 347.922,223.349 347.990 C 223.240 348.058,223.138 348.270,223.124 348.462 C 223.109 348.653,223.042 348.776,222.974 348.734 C 222.811 348.633,222.526 349.196,222.615 349.443 C 222.653 349.549,222.511 349.757,222.300 349.904 C 222.089 350.052,221.926 350.228,221.938 350.295 C 221.950 350.362,221.882 350.604,221.786 350.833 C 221.691 351.063,221.626 351.308,221.641 351.380 C 221.657 351.451,221.557 351.553,221.418 351.606 C 221.280 351.659,221.167 351.791,221.167 351.899 C 221.167 352.253,220.546 353.323,220.411 353.202 C 220.339 353.137,220.327 353.215,220.385 353.375 C 220.442 353.535,220.420 353.667,220.336 353.667 C 220.166 353.667,219.500 355.077,219.500 355.438 C 219.500 355.564,219.391 355.667,219.258 355.667 C 219.125 355.667,218.894 355.948,218.745 356.292 C 218.195 357.564,217.949 357.988,217.810 357.902 C 217.731 357.853,217.667 357.916,217.667 358.042 C 217.667 358.167,217.549 358.415,217.404 358.593 C 217.260 358.771,217.196 358.804,217.262 358.667 C 217.357 358.470,217.337 358.459,217.169 358.614 C 216.749 359.002,217.109 359.333,217.953 359.334 C 218.391 359.335,219.045 359.417,219.405 359.517 C 220.132 359.719,220.705 359.281,221.165 358.170 C 221.279 357.895,221.430 357.707,221.502 357.751 C 221.573 357.795,221.679 357.641,221.737 357.409 C 221.801 357.153,221.917 357.032,222.031 357.102 C 222.152 357.177,222.171 357.142,222.085 357.003 C 222.000 356.865,222.096 356.671,222.351 356.463 C 222.570 356.284,222.656 356.186,222.542 356.245 C 222.256 356.393,222.280 356.196,222.585 355.891 C 222.723 355.753,222.787 355.559,222.726 355.461 C 222.663 355.359,222.693 355.330,222.796 355.394 C 222.896 355.455,223.024 355.429,223.082 355.336 C 223.139 355.243,223.088 355.162,222.968 355.156 C 222.848 355.150,222.919 355.078,223.125 354.995 C 223.331 354.912,223.499 354.748,223.497 354.630 C 223.496 354.481,223.446 354.492,223.333 354.667 C 223.244 354.804,223.171 354.834,223.169 354.734 C 223.168 354.633,223.315 354.380,223.497 354.171 C 223.678 353.961,223.789 353.730,223.744 353.657 C 223.699 353.584,223.813 353.476,223.998 353.417 C 224.185 353.358,224.333 353.165,224.333 352.982 C 224.333 352.801,224.497 352.432,224.696 352.162 C 224.896 351.892,225.010 351.621,224.950 351.561 C 224.889 351.500,224.995 351.316,225.185 351.151 C 225.375 350.986,225.487 350.780,225.433 350.693 C 225.379 350.606,225.458 350.488,225.608 350.430 C 225.758 350.373,225.835 350.279,225.779 350.223 C 225.723 350.167,225.839 349.893,226.038 349.614 C 226.245 349.323,226.296 349.167,226.158 349.249 C 226.011 349.335,226.034 349.257,226.217 349.047 C 226.383 348.858,226.530 348.546,226.544 348.352 C 226.559 348.158,226.634 348.000,226.712 348.000 C 226.790 348.000,226.812 347.933,226.762 347.852 C 226.711 347.771,226.781 347.612,226.917 347.500 C 227.052 347.388,227.122 347.229,227.072 347.148 C 227.021 347.067,227.060 347.000,227.157 347.000 C 227.254 347.000,227.317 346.944,227.298 346.875 C 227.278 346.806,227.356 346.581,227.470 346.375 C 227.585 346.169,227.620 345.998,227.548 345.995 C 227.476 345.992,227.555 345.884,227.725 345.756 C 227.895 345.627,227.983 345.440,227.921 345.340 C 227.859 345.240,227.904 345.179,228.022 345.204 C 228.139 345.229,228.238 345.097,228.242 344.909 C 228.247 344.722,228.396 344.347,228.574 344.076 C 228.751 343.805,228.886 343.435,228.873 343.253 C 228.859 343.071,229.004 342.756,229.196 342.553 C 229.394 342.342,229.552 341.938,229.563 341.613 C 229.577 341.228,229.652 341.069,229.794 341.123 C 229.931 341.176,229.968 341.110,229.900 340.933 C 229.843 340.784,229.888 340.552,230.000 340.417 C 230.112 340.282,230.164 340.066,230.114 339.937 C 230.065 339.808,230.178 339.539,230.365 339.337 C 230.553 339.136,230.724 338.708,230.745 338.386 C 230.767 338.064,230.881 337.740,231.000 337.667 C 231.118 337.594,231.168 337.410,231.110 337.258 C 231.048 337.097,231.072 337.025,231.169 337.085 C 231.261 337.141,231.333 336.998,231.333 336.760 C 231.333 336.525,231.406 336.333,231.495 336.333 C 231.584 336.333,231.613 336.221,231.560 336.083 C 231.506 335.942,231.556 335.833,231.677 335.833 C 231.793 335.833,231.845 335.790,231.792 335.736 C 231.739 335.683,231.798 335.393,231.924 335.091 C 232.050 334.789,232.106 334.495,232.049 334.438 C 231.991 334.380,232.036 334.333,232.149 334.333 C 232.261 334.333,232.307 334.258,232.250 334.167 C 232.193 334.075,232.245 333.999,232.365 333.997 C 232.524 333.996,232.515 333.951,232.333 333.833 C 232.167 333.726,232.153 333.671,232.292 333.669 C 232.406 333.668,232.491 333.610,232.480 333.542 C 232.402 333.044,232.518 332.603,232.667 332.833 C 232.795 333.032,232.829 332.997,232.832 332.667 C 232.834 332.438,232.947 332.036,233.083 331.774 C 233.220 331.513,233.293 331.237,233.246 331.161 C 233.200 331.085,233.239 330.975,233.333 330.917 C 233.428 330.858,233.466 330.747,233.418 330.669 C 233.370 330.591,233.447 330.410,233.590 330.267 C 233.733 330.124,233.834 329.912,233.814 329.795 C 233.763 329.489,234.025 328.600,234.201 328.485 C 234.283 328.431,234.362 328.206,234.377 327.985 C 234.392 327.764,234.497 327.401,234.610 327.179 C 234.724 326.956,234.783 326.720,234.742 326.654 C 234.702 326.589,234.788 326.489,234.935 326.433 C 235.084 326.376,235.160 326.223,235.108 326.087 C 235.057 325.953,235.083 325.802,235.167 325.750 C 235.250 325.698,235.277 325.546,235.225 325.411 C 235.173 325.275,235.225 325.167,235.343 325.167 C 235.460 325.167,235.506 325.117,235.446 325.057 C 235.386 324.997,235.429 324.832,235.543 324.692 C 235.707 324.489,235.707 324.462,235.544 324.560 C 235.403 324.644,235.369 324.601,235.436 324.425 C 235.491 324.283,235.607 324.167,235.694 324.167 C 235.782 324.167,235.811 324.098,235.759 324.014 C 235.707 323.930,235.759 323.824,235.874 323.777 C 236.033 323.712,236.025 323.651,235.838 323.522 C 235.625 323.374,235.628 323.338,235.861 323.248 C 236.028 323.184,236.098 323.023,236.045 322.823 C 235.999 322.645,236.031 322.500,236.116 322.500 C 236.201 322.500,236.371 322.108,236.493 321.630 C 236.616 321.151,236.818 320.659,236.941 320.535 C 237.227 320.249,237.240 319.777,236.958 319.919 C 236.844 319.977,236.880 319.918,237.039 319.788 C 237.198 319.657,237.281 319.503,237.224 319.446 C 237.166 319.388,237.211 319.230,237.324 319.095 C 237.437 318.959,237.480 318.770,237.421 318.674 C 237.362 318.578,237.398 318.500,237.500 318.500 C 237.602 318.500,237.640 318.425,237.583 318.333 C 237.527 318.242,237.555 318.167,237.647 318.167 C 237.739 318.167,237.785 318.017,237.750 317.833 C 237.710 317.624,237.776 317.500,237.926 317.500 C 238.070 317.500,238.167 317.336,238.167 317.093 C 238.167 316.869,238.245 316.638,238.341 316.578 C 238.462 316.504,238.460 316.402,238.333 316.250 C 238.224 316.118,238.213 315.991,238.306 315.933 C 238.392 315.880,238.512 315.572,238.573 315.247 C 238.634 314.923,238.755 314.701,238.842 314.755 C 238.929 314.809,239.006 314.717,239.012 314.552 C 239.035 313.996,239.172 313.445,239.335 313.248 C 239.424 313.140,239.448 313.003,239.387 312.943 C 239.327 312.883,239.370 312.833,239.482 312.833 C 239.594 312.833,239.647 312.769,239.599 312.691 C 239.550 312.613,239.654 312.269,239.828 311.927 C 240.003 311.585,240.100 311.186,240.044 311.042 C 239.978 310.868,240.009 310.819,240.138 310.899 C 240.255 310.971,240.333 310.916,240.333 310.760 C 240.333 310.617,240.398 310.500,240.477 310.500 C 240.556 310.500,240.600 310.313,240.575 310.083 C 240.550 309.854,240.606 309.667,240.699 309.667 C 240.793 309.667,240.827 309.558,240.776 309.425 C 240.714 309.263,240.764 309.214,240.927 309.277 C 241.099 309.343,241.140 309.291,241.067 309.102 C 241.011 308.954,241.043 308.833,241.139 308.833 C 241.235 308.833,241.286 308.689,241.253 308.513 C 241.219 308.337,241.289 308.156,241.408 308.110 C 241.527 308.064,241.625 307.824,241.625 307.578 C 241.625 307.331,241.707 307.078,241.808 307.015 C 241.909 306.953,242.015 306.748,242.044 306.559 C 242.073 306.370,242.230 306.011,242.393 305.762 C 242.557 305.513,242.721 305.149,242.759 304.954 C 242.796 304.760,242.938 304.538,243.073 304.462 C 243.209 304.387,243.277 304.214,243.225 304.079 C 243.173 303.944,243.198 303.833,243.280 303.833 C 243.362 303.833,243.442 303.666,243.457 303.461 C 243.473 303.256,243.564 303.062,243.659 303.030 C 243.755 302.998,243.833 302.828,243.833 302.653 C 243.833 302.477,243.912 302.333,244.007 302.333 C 244.103 302.333,244.165 302.240,244.145 302.125 C 244.105 301.892,244.274 301.477,245.146 299.667 C 245.477 298.979,245.752 298.379,245.757 298.333 C 245.794 297.999,246.052 297.500,246.188 297.500 C 246.279 297.500,246.307 297.425,246.250 297.333 C 246.193 297.242,246.225 297.167,246.320 297.167 C 246.416 297.167,246.544 296.960,246.607 296.708 C 246.669 296.456,246.904 296.006,247.130 295.708 C 247.402 295.348,247.465 295.167,247.316 295.167 C 247.193 295.167,247.260 295.049,247.466 294.905 C 247.671 294.761,247.797 294.577,247.747 294.495 C 247.696 294.413,247.807 294.193,247.994 294.006 C 248.181 293.819,248.333 293.629,248.333 293.583 C 248.333 293.537,248.333 293.405,248.333 293.290 C 248.333 293.174,248.521 292.878,248.750 292.631 C 248.979 292.383,249.167 292.103,249.167 292.007 C 249.167 291.912,249.246 291.833,249.343 291.833 C 249.440 291.833,249.473 291.758,249.417 291.667 C 249.360 291.575,249.398 291.500,249.500 291.500 C 249.602 291.500,249.640 291.425,249.583 291.333 C 249.527 291.242,249.564 291.167,249.667 291.167 C 249.769 291.167,249.799 291.079,249.732 290.972 C 249.652 290.841,249.703 290.811,249.887 290.882 C 250.039 290.940,250.149 290.934,250.132 290.869 C 250.069 290.630,250.361 289.998,250.496 290.081 C 250.572 290.128,250.715 289.936,250.813 289.654 C 250.911 289.372,251.060 289.184,251.143 289.236 C 251.283 289.322,251.560 288.748,251.518 288.458 C 251.508 288.390,251.563 288.333,251.640 288.333 C 251.716 288.333,252.110 288.018,252.515 287.632 C 252.919 287.247,253.137 286.990,253.000 287.062 C 252.862 287.134,252.960 287.000,253.218 286.763 C 253.475 286.527,253.598 286.333,253.492 286.333 C 253.386 286.333,253.532 286.129,253.816 285.880 C 254.101 285.630,254.333 285.333,254.333 285.219 C 254.333 284.963,254.912 284.634,255.075 284.798 C 255.141 284.863,255.176 284.842,255.154 284.750 C 255.082 284.452,255.363 284.000,255.619 284.000 C 255.776 284.000,255.832 283.904,255.770 283.741 C 255.715 283.599,255.741 283.526,255.827 283.579 C 255.913 283.633,256.056 283.540,256.145 283.373 C 256.235 283.206,256.498 282.968,256.731 282.843 C 256.965 282.719,257.117 282.555,257.071 282.480 C 257.024 282.405,257.176 282.295,257.409 282.237 C 257.641 282.179,257.790 282.064,257.739 281.982 C 257.688 281.900,257.776 281.833,257.935 281.833 C 258.093 281.833,258.176 281.787,258.119 281.730 C 257.973 281.584,258.466 281.126,258.648 281.238 C 258.731 281.290,258.841 281.221,258.893 281.085 C 258.947 280.945,259.098 280.881,259.244 280.937 C 259.385 280.992,259.500 280.948,259.500 280.839 C 259.500 280.503,259.917 280.167,260.333 280.167 C 260.425 280.167,260.500 280.054,260.500 279.917 C 260.500 279.779,260.611 279.667,260.746 279.667 C 260.882 279.667,261.112 279.484,261.259 279.260 C 261.405 279.036,261.623 278.891,261.743 278.937 C 261.862 278.983,262.164 278.772,262.414 278.468 C 262.663 278.165,262.809 278.029,262.738 278.167 C 262.653 278.332,262.733 278.309,262.971 278.099 C 263.345 277.771,263.459 277.570,263.169 277.749 C 263.074 277.807,263.046 277.740,263.103 277.592 C 263.158 277.450,263.307 277.333,263.434 277.333 C 263.562 277.333,263.669 277.240,263.671 277.125 C 263.674 277.010,263.899 276.698,264.171 276.431 C 264.444 276.163,264.667 275.861,264.667 275.758 C 264.667 275.656,264.893 275.438,265.170 275.275 C 265.446 275.111,265.629 274.908,265.577 274.822 C 265.524 274.737,265.747 274.509,266.074 274.317 C 266.433 274.105,266.667 273.838,266.667 273.640 C 266.667 273.451,266.742 273.360,266.844 273.424 C 266.944 273.485,266.999 273.431,266.969 273.301 C 266.940 273.173,267.123 272.862,267.375 272.610 C 267.627 272.358,267.833 272.207,267.833 272.274 C 267.833 272.342,267.937 272.255,268.065 272.081 C 268.192 271.906,268.262 271.674,268.219 271.564 C 268.177 271.454,268.299 271.314,268.490 271.253 C 268.682 271.192,268.799 271.079,268.751 271.001 C 268.703 270.924,268.782 270.742,268.926 270.598 C 269.070 270.454,269.138 270.255,269.077 270.157 C 269.015 270.056,269.127 269.936,269.331 269.882 C 269.605 269.810,269.640 269.752,269.472 269.646 C 269.306 269.541,269.302 269.504,269.458 269.503 C 269.573 269.501,269.667 269.387,269.667 269.250 C 269.667 269.112,269.798 268.994,269.958 268.987 C 270.119 268.980,270.164 268.939,270.060 268.896 C 269.863 268.815,270.412 267.543,270.750 267.294 C 270.861 267.213,270.861 267.170,270.750 267.167 C 270.639 267.163,270.639 267.121,270.750 267.039 C 271.046 266.822,271.439 265.928,271.409 265.542 C 271.392 265.335,271.448 265.167,271.533 265.167 C 271.617 265.167,271.637 265.087,271.577 264.989 C 271.517 264.892,271.591 264.676,271.742 264.509 C 271.927 264.304,271.981 264.065,271.907 263.770 C 271.842 263.510,271.867 263.333,271.969 263.333 C 272.065 263.333,272.118 263.075,272.087 262.750 C 272.058 262.429,272.101 262.124,272.185 262.072 C 272.269 262.020,272.333 261.777,272.329 261.531 C 272.324 261.285,272.360 260.746,272.408 260.333 C 272.618 258.534,272.455 255.011,272.152 254.825 C 272.017 254.741,272.027 254.681,272.189 254.616 C 272.378 254.541,272.379 254.499,272.194 254.369 C 272.072 254.283,271.978 254.165,271.986 254.106 C 272.037 253.723,271.978 253.494,271.849 253.574 C 271.766 253.625,271.740 253.505,271.792 253.308 C 271.856 253.061,271.825 252.985,271.693 253.067 C 271.573 253.141,271.500 253.069,271.500 252.877 C 271.500 252.706,271.431 252.495,271.347 252.408 C 271.188 252.244,270.974 251.302,270.978 250.788 C 270.979 250.626,270.909 250.536,270.823 250.590 C 270.737 250.643,270.667 250.532,270.667 250.343 C 270.667 250.154,270.531 249.864,270.365 249.698 C 270.198 249.532,270.090 249.313,270.124 249.212 C 270.157 249.111,270.038 248.982,269.859 248.925 C 269.679 248.868,269.404 248.551,269.248 248.222 C 269.034 247.771,268.927 247.680,268.818 247.853 C 268.709 248.025,268.671 248.029,268.669 247.871 C 268.668 247.755,268.479 247.574,268.250 247.470 C 268.021 247.365,267.833 247.167,267.833 247.029 C 267.833 246.891,267.789 246.822,267.734 246.877 C 267.679 246.932,267.398 246.846,267.109 246.686 C 266.698 246.459,266.465 246.431,266.042 246.555 M193.000 265.260 C 193.000 265.403,192.925 265.473,192.833 265.417 C 192.742 265.360,192.667 265.459,192.667 265.636 C 192.667 265.814,192.554 266.053,192.417 266.167 C 192.279 266.281,192.167 266.552,192.167 266.770 C 192.167 266.988,192.092 267.167,192.000 267.167 C 191.908 267.167,191.847 267.223,191.863 267.292 C 191.917 267.523,191.475 268.883,191.217 269.277 C 191.010 269.593,191.005 269.667,191.189 269.669 C 191.326 269.671,191.351 269.720,191.250 269.794 C 191.041 269.947,190.999 270.146,190.909 271.384 C 190.869 271.931,190.742 272.492,190.627 272.631 C 190.511 272.771,190.441 272.912,190.471 272.945 C 190.501 272.978,190.471 273.248,190.405 273.544 C 190.339 273.841,190.269 274.308,190.249 274.583 C 190.230 274.858,190.161 275.271,190.098 275.500 C 190.034 275.729,189.949 276.292,189.908 276.750 C 189.867 277.208,189.796 277.996,189.749 278.500 C 189.418 282.075,189.315 295.023,189.577 300.167 C 189.654 301.679,189.725 303.491,189.734 304.192 C 189.743 304.894,189.808 305.432,189.880 305.388 C 189.951 305.344,189.969 305.539,189.919 305.821 C 189.869 306.103,189.888 306.333,189.961 306.333 C 190.121 306.333,190.109 307.023,189.944 307.289 C 189.880 307.392,189.893 307.517,189.973 307.567 C 190.053 307.616,190.105 307.921,190.089 308.245 C 190.073 308.569,190.114 308.833,190.181 308.833 C 190.247 308.833,190.273 309.133,190.237 309.500 C 190.202 309.867,190.234 310.167,190.308 310.167 C 190.488 310.167,190.456 310.888,190.270 311.023 C 190.186 311.084,190.186 311.226,190.270 311.356 C 190.457 311.647,190.528 312.297,190.528 313.737 C 190.528 314.537,190.578 314.818,190.691 314.653 C 190.805 314.488,190.823 314.575,190.750 314.942 C 190.691 315.246,190.722 315.514,190.824 315.577 C 190.921 315.637,190.999 315.776,190.997 315.885 C 190.996 316.007,190.927 315.987,190.820 315.833 C 190.681 315.636,190.666 315.659,190.746 315.945 C 190.931 316.604,190.993 317.058,191.022 317.940 C 191.038 318.420,191.109 318.907,191.180 319.022 C 191.252 319.138,191.238 319.367,191.149 319.533 C 191.033 319.750,191.048 319.834,191.202 319.836 C 191.353 319.838,191.342 319.886,191.167 320.000 C 190.983 320.119,190.975 320.162,191.136 320.164 C 191.281 320.166,191.319 320.282,191.247 320.508 C 191.188 320.696,191.228 320.956,191.336 321.086 C 191.444 321.216,191.529 321.702,191.526 322.165 C 191.522 322.629,191.576 322.973,191.646 322.929 C 191.716 322.886,191.762 323.147,191.749 323.509 C 191.735 323.871,191.780 324.167,191.847 324.167 C 191.915 324.167,191.949 324.298,191.923 324.458 C 191.897 324.619,191.936 324.826,192.009 324.919 C 192.083 325.012,192.190 325.425,192.249 325.836 C 192.422 327.053,192.427 327.081,192.550 327.280 C 192.615 327.384,192.681 327.683,192.698 327.943 C 192.714 328.204,192.807 328.525,192.905 328.657 C 193.046 328.847,193.031 328.868,192.833 328.758 C 192.637 328.648,192.626 328.663,192.779 328.829 C 192.886 328.945,192.930 329.156,192.875 329.298 C 192.811 329.466,192.844 329.513,192.972 329.434 C 193.162 329.317,193.217 329.504,193.209 330.239 C 193.207 330.417,193.315 330.672,193.449 330.806 C 193.583 330.940,193.656 331.189,193.612 331.358 C 193.568 331.528,193.583 331.667,193.647 331.667 C 193.749 331.667,193.815 331.946,193.871 332.625 C 193.881 332.740,193.949 332.833,194.023 332.833 C 194.096 332.833,194.108 332.958,194.050 333.111 C 193.973 333.312,194.004 333.351,194.164 333.252 C 194.318 333.157,194.345 333.179,194.254 333.326 C 194.181 333.445,194.211 333.591,194.322 333.660 C 194.432 333.727,194.527 334.016,194.536 334.302 C 194.544 334.588,194.614 334.783,194.692 334.734 C 194.770 334.686,194.833 334.797,194.833 334.980 C 194.833 335.164,194.913 335.363,195.011 335.424 C 195.109 335.484,195.149 335.639,195.100 335.767 C 195.051 335.895,195.102 336.001,195.214 336.003 C 195.342 336.004,195.325 336.064,195.167 336.167 C 195.000 336.274,194.986 336.329,195.125 336.331 C 195.240 336.332,195.334 336.502,195.334 336.708 C 195.335 336.915,195.595 337.590,195.912 338.208 C 196.230 338.827,196.415 339.333,196.324 339.333 C 196.233 339.333,196.280 339.518,196.427 339.743 C 196.575 339.968,196.640 340.242,196.572 340.352 C 196.498 340.471,196.519 340.508,196.623 340.444 C 196.783 340.345,197.005 340.863,197.077 341.504 C 197.093 341.644,197.245 341.921,197.416 342.121 C 197.587 342.321,197.752 342.656,197.783 342.867 C 197.814 343.078,197.932 343.325,198.045 343.417 C 198.158 343.508,198.271 343.769,198.296 343.996 C 198.322 344.223,198.542 344.616,198.786 344.871 C 199.052 345.149,199.140 345.333,199.005 345.333 C 198.837 345.333,198.850 345.409,199.058 345.639 C 199.210 345.806,199.284 345.994,199.223 346.055 C 199.161 346.117,199.211 346.167,199.333 346.167 C 199.456 346.167,199.506 346.216,199.446 346.277 C 199.385 346.337,199.486 346.492,199.671 346.621 C 199.855 346.751,199.966 346.920,199.917 346.999 C 199.784 347.214,200.190 348.000,200.434 348.000 C 200.559 348.000,200.621 348.140,200.582 348.338 C 200.547 348.524,200.583 348.635,200.663 348.585 C 200.744 348.536,200.861 348.665,200.925 348.873 C 200.989 349.080,201.122 349.351,201.221 349.475 C 201.321 349.599,201.419 349.818,201.441 349.963 C 201.462 350.107,201.588 350.286,201.721 350.360 C 201.944 350.485,202.255 351.257,202.196 351.537 C 202.182 351.603,202.325 351.740,202.515 351.841 C 202.712 351.947,202.820 352.127,202.768 352.263 C 202.718 352.393,202.750 352.500,202.839 352.500 C 202.927 352.500,203.000 352.601,203.000 352.724 C 203.000 352.848,203.131 353.104,203.292 353.294 C 204.072 354.216,204.152 354.333,204.006 354.333 C 203.919 354.333,204.033 354.517,204.258 354.742 C 204.483 354.967,204.667 355.309,204.667 355.502 C 204.667 355.695,204.741 355.807,204.831 355.751 C 204.923 355.695,204.956 355.755,204.905 355.886 C 204.849 356.034,204.950 356.158,205.175 356.217 C 205.373 356.269,205.504 356.405,205.465 356.520 C 205.427 356.635,205.532 356.865,205.698 357.031 C 205.864 357.197,206.000 357.496,206.000 357.694 C 206.000 357.893,206.050 358.006,206.110 357.946 C 206.267 357.788,206.707 358.466,206.581 358.671 C 206.523 358.765,206.568 358.821,206.682 358.796 C 206.796 358.771,206.981 358.925,207.092 359.139 C 207.204 359.353,207.378 359.612,207.481 359.714 C 207.583 359.816,207.667 359.993,207.667 360.106 C 207.667 360.377,208.610 361.408,208.689 361.224 C 208.723 361.147,209.275 360.825,209.917 360.510 C 210.558 360.195,211.114 359.914,211.152 359.886 C 211.189 359.858,211.096 359.698,210.943 359.530 C 210.791 359.361,210.667 359.141,210.667 359.041 C 210.667 358.940,210.479 358.710,210.250 358.530 C 210.021 358.350,209.833 358.119,209.833 358.018 C 209.833 357.916,209.740 357.832,209.625 357.831 C 209.486 357.829,209.500 357.774,209.667 357.667 C 209.833 357.559,209.847 357.504,209.708 357.503 C 209.594 357.501,209.509 357.444,209.520 357.375 C 209.571 357.052,209.485 356.823,209.345 356.909 C 209.197 357.001,208.899 356.383,208.967 356.125 C 208.985 356.056,208.887 356.000,208.750 356.000 C 208.612 356.000,208.500 355.883,208.500 355.740 C 208.500 355.597,208.425 355.527,208.333 355.583 C 208.174 355.682,208.092 355.341,208.158 354.858 C 208.175 354.734,208.109 354.683,208.011 354.743 C 207.913 354.804,207.833 354.754,207.833 354.633 C 207.833 354.512,207.677 354.316,207.486 354.197 C 207.295 354.077,207.178 353.877,207.226 353.752 C 207.274 353.627,207.187 353.425,207.032 353.304 C 206.773 353.101,206.770 353.110,207.000 353.417 C 207.232 353.726,207.229 353.733,206.958 353.521 C 206.798 353.395,206.667 353.149,206.667 352.974 C 206.667 352.799,206.554 352.613,206.417 352.560 C 206.279 352.508,206.167 352.360,206.167 352.232 C 206.167 352.104,206.087 352.000,205.990 352.000 C 205.893 352.000,205.860 351.926,205.916 351.835 C 205.972 351.744,205.792 351.341,205.516 350.939 C 205.239 350.538,205.061 350.161,205.119 350.103 C 205.178 350.044,205.061 349.843,204.859 349.655 C 204.658 349.467,204.536 349.243,204.589 349.157 C 204.643 349.071,204.602 349.000,204.500 349.000 C 204.398 349.000,204.360 348.925,204.417 348.833 C 204.473 348.742,204.448 348.667,204.359 348.667 C 204.271 348.667,204.121 348.442,204.025 348.167 C 203.929 347.892,203.772 347.667,203.675 347.667 C 203.579 347.667,203.500 347.476,203.500 347.243 C 203.500 347.010,203.350 346.658,203.167 346.462 C 202.983 346.265,202.833 346.005,202.833 345.885 C 202.833 345.765,202.764 345.667,202.680 345.667 C 202.595 345.667,202.435 345.385,202.325 345.042 C 202.214 344.698,202.049 344.323,201.958 344.208 C 201.867 344.094,201.858 343.998,201.938 343.995 C 202.018 343.992,201.945 343.884,201.775 343.756 C 201.605 343.627,201.513 343.447,201.569 343.356 C 201.626 343.264,201.540 343.091,201.378 342.970 C 201.216 342.849,201.058 342.600,201.026 342.417 C 200.995 342.233,200.901 342.058,200.818 342.028 C 200.735 341.997,200.667 341.859,200.667 341.721 C 200.667 341.582,200.517 341.279,200.333 341.045 C 200.150 340.812,200.000 340.407,200.000 340.144 C 200.000 339.882,199.925 339.667,199.833 339.667 C 199.742 339.667,199.667 339.549,199.667 339.405 C 199.667 339.261,199.551 339.027,199.409 338.885 C 199.268 338.744,199.180 338.544,199.214 338.440 C 199.249 338.337,199.184 338.160,199.070 338.046 C 198.956 337.932,198.902 337.689,198.950 337.505 C 199.003 337.303,198.943 337.134,198.797 337.078 C 198.665 337.028,198.569 336.820,198.585 336.618 C 198.600 336.416,198.493 336.151,198.348 336.029 C 198.143 335.858,198.140 335.837,198.333 335.936 C 198.540 336.042,198.547 336.020,198.376 335.808 C 198.263 335.668,198.219 335.503,198.279 335.443 C 198.340 335.383,198.297 335.333,198.185 335.333 C 198.072 335.333,198.022 335.265,198.074 335.182 C 198.206 334.968,197.995 334.483,197.818 334.593 C 197.737 334.643,197.716 334.567,197.771 334.423 C 197.826 334.280,197.788 334.063,197.687 333.941 C 197.586 333.819,197.552 333.670,197.613 333.610 C 197.673 333.549,197.642 333.500,197.543 333.500 C 197.445 333.500,197.404 333.350,197.452 333.167 C 197.500 332.983,197.463 332.833,197.371 332.833 C 197.278 332.833,197.158 332.717,197.103 332.575 C 197.036 332.400,197.071 332.355,197.210 332.437 C 197.324 332.503,197.276 332.397,197.105 332.202 C 196.933 332.006,196.836 331.733,196.889 331.595 C 196.942 331.457,196.912 331.299,196.823 331.244 C 196.734 331.189,196.704 331.074,196.757 330.988 C 196.810 330.903,196.774 330.833,196.677 330.833 C 196.579 330.833,196.500 330.641,196.500 330.407 C 196.500 330.172,196.444 330.015,196.375 330.058 C 196.256 330.131,196.182 329.703,196.170 328.866 C 196.167 328.635,196.093 328.526,195.985 328.592 C 195.878 328.658,195.822 328.578,195.845 328.393 C 195.883 328.096,195.827 327.885,195.485 327.031 C 195.383 326.777,195.388 326.681,195.499 326.749 C 195.718 326.885,195.711 326.728,195.467 326.053 C 195.356 325.749,195.206 325.500,195.133 325.500 C 195.060 325.500,195.000 325.421,195.000 325.323 C 195.000 325.226,195.075 325.193,195.167 325.250 C 195.258 325.307,195.333 325.274,195.333 325.177 C 195.333 325.079,195.274 325.000,195.202 325.000 C 195.130 325.000,195.063 324.869,195.053 324.708 C 195.043 324.548,194.986 324.229,194.926 324.000 C 194.867 323.771,194.781 323.283,194.735 322.917 C 194.609 321.897,194.553 321.608,194.423 321.300 C 194.358 321.144,194.351 320.939,194.409 320.846 C 194.467 320.753,194.379 320.471,194.215 320.219 C 194.051 319.968,194.010 319.821,194.125 319.891 C 194.373 320.044,194.382 319.982,194.182 319.457 C 194.099 319.239,193.978 318.465,193.913 317.738 C 193.768 316.102,193.704 315.533,193.606 315.000 C 193.367 313.707,193.246 312.281,193.111 309.167 C 193.080 308.448,192.986 307.930,192.890 307.949 C 192.798 307.967,192.722 307.873,192.722 307.741 C 192.722 307.608,192.772 307.500,192.833 307.500 C 192.894 307.500,192.944 307.391,192.944 307.257 C 192.944 307.124,192.879 307.055,192.799 307.104 C 192.720 307.154,192.660 306.944,192.667 306.639 C 192.704 305.029,192.645 302.937,192.530 301.792 C 192.459 301.081,192.455 300.500,192.520 300.500 C 192.647 300.500,192.603 299.316,192.421 297.820 C 192.125 295.383,192.260 283.416,192.593 282.598 C 192.685 282.373,192.666 282.314,192.529 282.399 C 192.388 282.486,192.374 282.413,192.476 282.135 C 192.606 281.781,192.694 280.672,192.734 278.875 C 192.743 278.486,192.808 278.167,192.879 278.167 C 192.950 278.167,192.983 277.829,192.952 277.417 C 192.921 277.004,192.946 276.667,193.007 276.667 C 193.068 276.667,193.205 276.137,193.312 275.489 C 193.419 274.841,193.626 274.129,193.773 273.906 C 193.985 273.581,193.993 273.499,193.811 273.497 C 193.671 273.496,193.649 273.448,193.753 273.372 C 193.937 273.239,193.964 272.242,193.788 272.066 C 193.728 272.005,193.753 271.816,193.845 271.645 C 193.937 271.473,193.950 271.333,193.874 271.333 C 193.798 271.333,193.742 271.015,193.751 270.625 C 193.760 270.235,193.706 269.833,193.632 269.731 C 193.558 269.629,193.479 268.898,193.457 268.107 C 193.435 267.315,193.367 266.668,193.306 266.667 C 193.246 266.667,193.218 266.292,193.245 265.833 C 193.272 265.375,193.228 265.000,193.147 265.000 C 193.066 265.000,193.000 265.117,193.000 265.260 " stroke="none" fill="#d4d4d4" fill-rule="evenodd"></path><path id="path2" d="M213.238 359.332 C 212.773 359.401,212.239 359.539,212.052 359.639 C 211.864 359.739,211.663 359.774,211.605 359.716 C 211.547 359.658,211.500 359.686,211.500 359.778 C 211.500 359.924,208.654 361.443,208.540 361.359 C 208.478 361.313,207.493 361.833,207.212 362.059 C 207.082 362.164,206.831 362.381,206.655 362.542 C 206.478 362.702,206.265 362.833,206.181 362.833 C 205.206 362.833,204.249 365.166,204.506 366.917 C 204.599 367.558,204.705 368.346,204.739 368.667 C 204.799 369.213,204.945 370.220,205.345 372.833 C 205.436 373.429,205.543 374.254,205.582 374.667 C 205.622 375.079,205.736 375.904,205.835 376.500 C 206.202 378.701,206.484 380.449,206.670 381.667 C 206.775 382.354,206.960 383.404,207.081 384.000 C 207.203 384.596,207.390 385.608,207.498 386.250 C 207.606 386.892,207.794 387.792,207.917 388.250 C 208.039 388.708,208.175 389.346,208.218 389.667 C 208.262 389.988,208.378 390.456,208.478 390.708 C 208.577 390.960,208.621 391.167,208.576 391.167 C 207.890 391.167,210.050 393.396,211.525 394.211 C 213.899 395.522,218.252 396.127,220.731 395.490 C 223.245 394.844,225.251 393.951,225.828 393.221 L 226.200 392.750 225.780 392.699 C 225.550 392.670,224.998 392.830,224.555 393.053 C 221.157 394.765,218.046 394.949,214.028 393.677 C 210.153 392.449,209.435 391.400,208.259 385.250 C 208.014 383.967,207.743 382.602,207.656 382.218 C 207.570 381.834,207.500 381.156,207.500 380.711 C 207.500 380.267,207.396 379.494,207.269 378.993 C 206.978 377.846,206.587 375.549,206.334 373.500 C 206.227 372.629,205.981 371.092,205.788 370.083 C 204.972 365.814,205.472 364.705,209.140 362.642 C 210.932 361.634,212.874 360.872,214.390 360.584 C 215.343 360.402,215.654 360.257,216.146 359.765 L 216.744 359.167 215.414 359.187 C 214.682 359.199,213.703 359.264,213.238 359.332 M219.923 360.264 C 219.767 360.502,219.665 360.712,219.695 360.731 C 219.725 360.751,220.196 360.903,220.741 361.069 C 221.587 361.327,221.922 361.562,223.039 362.685 C 224.652 364.307,224.970 364.377,224.278 362.958 C 223.998 362.385,223.709 361.892,223.635 361.861 C 223.561 361.831,223.500 361.708,223.500 361.589 C 223.500 361.165,222.440 360.339,221.572 360.087 C 220.400 359.747,220.251 359.762,219.923 360.264 M213.074 362.628 C 212.724 362.870,212.333 363.582,212.333 363.976 C 212.333 366.005,216.162 367.087,216.581 365.176 C 216.752 364.397,216.570 364.312,215.680 364.759 C 213.951 365.627,212.669 364.602,213.830 363.280 C 214.102 362.969,214.277 362.666,214.218 362.607 C 214.073 362.462,213.292 362.476,213.074 362.628 M217.708 367.610 C 217.259 367.792,217.478 368.333,218.000 368.333 C 218.604 368.333,218.604 368.332,218.083 369.099 C 217.448 370.035,217.713 371.534,218.605 372.051 C 218.791 372.159,218.755 372.292,218.418 372.733 C 217.884 373.433,217.893 373.637,218.519 375.247 C 218.955 376.368,219.020 376.717,218.933 377.459 C 218.820 378.426,219.276 378.888,219.964 378.502 C 220.121 378.414,220.531 378.231,220.875 378.096 C 221.572 377.822,221.667 377.472,221.257 376.681 C 221.124 376.422,221.030 375.995,221.049 375.731 C 221.082 375.270,221.048 375.246,220.251 375.167 C 219.640 375.105,219.405 375.008,219.365 374.798 C 219.308 374.493,219.974 374.224,220.390 374.383 C 221.029 374.629,221.371 373.138,220.832 372.453 C 220.649 372.221,220.500 371.885,220.500 371.708 C 220.500 371.302,220.043 370.885,219.500 370.795 L 219.083 370.726 219.542 370.534 C 220.172 370.269,220.133 369.868,219.471 369.802 C 218.785 369.734,218.627 369.333,219.286 369.333 C 220.016 369.333,220.266 368.993,219.796 368.638 C 219.492 368.409,219.458 368.310,219.625 368.142 C 220.158 367.608,218.710 367.206,217.708 367.610 M214.178 368.403 C 213.918 368.716,213.908 368.702,214.635 369.072 C 215.286 369.403,215.302 369.903,214.664 369.942 C 214.436 369.956,214.165 369.975,214.061 369.984 C 213.726 370.013,213.698 370.613,213.965 371.995 C 214.148 372.937,214.179 373.482,214.068 373.798 C 213.838 374.452,213.591 374.353,213.533 373.583 C 213.473 372.787,213.152 372.500,212.322 372.500 C 211.500 372.500,211.134 372.912,211.640 373.267 C 212.061 373.562,212.100 373.876,211.750 374.167 C 211.565 374.320,211.500 374.728,211.500 375.733 C 211.500 377.967,212.041 378.305,213.928 377.250 C 214.501 376.929,215.098 376.667,215.253 376.667 C 215.408 376.667,215.678 376.485,215.853 376.263 C 216.028 376.041,216.390 375.811,216.657 375.752 C 217.485 375.570,217.567 375.334,217.322 373.829 C 217.068 372.263,216.972 372.156,215.708 372.019 C 214.959 371.939,214.741 371.850,214.695 371.607 C 214.595 371.087,214.883 370.999,215.716 371.298 C 216.707 371.654,216.827 371.521,216.831 370.060 C 216.834 368.674,216.534 368.308,215.313 368.207 C 214.610 368.148,214.352 368.193,214.178 368.403 M210.916 368.852 C 210.643 368.985,210.585 369.172,210.594 369.882 C 210.607 370.847,211.193 371.124,212.163 370.623 C 213.731 369.814,212.508 368.077,210.916 368.852 M220.165 373.081 C 220.506 373.492,220.238 373.887,219.707 373.756 C 219.119 373.611,218.931 373.420,219.056 373.095 C 219.183 372.763,219.894 372.755,220.165 373.081 M214.472 375.646 C 214.549 376.188,214.289 376.410,213.851 376.176 C 213.455 375.964,213.402 375.665,213.705 375.362 C 214.012 375.055,214.409 375.202,214.472 375.646 M215.667 378.015 L 215.667 379.196 216.375 379.079 C 217.571 378.880,217.769 378.714,217.345 378.263 L 216.993 377.887 217.330 377.459 C 217.805 376.855,217.782 376.833,216.667 376.833 L 215.667 376.833 215.667 378.015 M219.529 379.052 C 219.102 379.507,219.092 379.569,219.403 379.879 C 219.592 380.068,219.804 380.081,220.482 379.942 C 221.818 379.668,221.901 380.186,220.573 380.520 C 219.770 380.722,219.643 380.967,220.170 381.297 C 220.438 381.464,220.473 381.573,220.337 381.826 C 220.018 382.423,220.119 382.886,220.542 382.761 C 220.748 382.699,221.204 382.605,221.556 382.551 C 222.283 382.439,222.489 382.132,222.100 381.742 C 221.769 381.412,221.769 381.333,222.101 380.503 C 222.706 378.992,220.667 377.842,219.529 379.052 M216.064 381.198 C 215.996 381.308,216.034 381.428,216.148 381.466 C 216.262 381.504,216.552 381.704,216.792 381.910 L 217.228 382.285 216.878 382.879 C 216.470 383.569,216.521 383.667,217.289 383.667 C 218.488 383.667,218.746 382.978,218.148 381.375 C 217.989 380.949,216.306 380.806,216.064 381.198 " stroke="none" fill="#acacac" fill-rule="evenodd"></path><path id="path3" d="M218.542 367.453 C 218.794 367.491,219.206 367.491,219.458 367.453 C 219.710 367.415,219.504 367.383,219.000 367.383 C 218.496 367.383,218.290 367.415,218.542 367.453 M219.960 375.118 C 220.168 375.158,220.468 375.156,220.627 375.115 C 220.786 375.073,220.617 375.040,220.250 375.042 C 219.883 375.044,219.753 375.078,219.960 375.118 M207.550 380.833 C 207.550 381.337,207.581 381.544,207.619 381.292 C 207.658 381.040,207.658 380.627,207.619 380.375 C 207.581 380.123,207.550 380.329,207.550 380.833 M216.711 380.953 C 216.964 380.991,217.339 380.990,217.544 380.951 C 217.749 380.911,217.542 380.880,217.083 380.881 C 216.625 380.882,216.457 380.915,216.711 380.953 " stroke="none" fill="#bcbcbc" fill-rule="evenodd"></path><path id="path4" d="M205.372 367.333 C 205.372 367.654,205.406 367.785,205.448 367.625 C 205.490 367.465,205.490 367.202,205.448 367.042 C 205.406 366.881,205.372 367.012,205.372 367.333 M216.125 376.787 C 216.423 376.824,216.910 376.824,217.208 376.787 C 217.506 376.750,217.262 376.720,216.667 376.720 C 216.071 376.720,215.827 376.750,216.125 376.787 " stroke="none" fill="#b4bcba" fill-rule="evenodd"></path></g></svg>