<svg id="svg" version="1.1" xmlns="http://www.w3.org/2000/svg" xmlns:xlink="http://www.w3.org/1999/xlink" viewBox="0, 0, 400,400"><g id="svgg"><path id="path0" d="M280.192 257.090 C 278.769 258.129,275.479 262.038,272.703 265.987 C 265.370 276.419,255.695 287.420,249.459 292.417 C 233.328 305.341,223.251 308.377,205.999 305.509 C 194.258 303.557,189.999 298.565,188.830 285.386 C 188.281 279.201,190.008 268.149,192.913 259.253 C 193.308 258.045,193.609 257.036,193.582 257.009 C 193.556 256.983,189.738 259.416,185.099 262.416 C 174.042 269.567,173.823 269.706,172.720 270.320 C 170.947 271.307,169.704 272.913,166.607 278.222 C 165.715 279.752,156.169 298.825,154.067 303.279 C 146.549 319.207,145.622 322.015,144.570 332.034 C 143.837 339.014,142.503 350.400,141.808 355.609 C 140.659 364.208,140.362 367.172,140.131 372.286 C 139.996 375.301,139.786 378.270,139.401 382.603 C 139.269 384.088,139.129 386.494,139.089 387.949 L 139.017 390.595 142.064 391.510 C 157.761 396.228,172.369 398.760,189.802 399.785 C 193.278 399.990,206.636 399.989,210.138 399.784 C 234.488 398.361,255.761 393.533,277.265 384.549 C 283.448 381.965,295.786 375.966,296.684 375.106 C 296.822 374.974,296.750 374.590,296.234 372.688 C 294.963 368.001,294.501 365.669,292.867 355.669 C 292.209 351.644,291.402 346.801,291.072 344.907 C 288.298 328.956,289.156 318.674,295.210 295.321 C 297.408 286.843,300.625 279.594,305.511 272.106 C 306.049 271.281,306.530 270.540,306.579 270.460 C 306.765 270.156,302.852 267.852,298.380 265.632 C 293.530 263.223,282.927 257.801,281.992 257.250 C 280.983 256.656,280.808 256.641,280.192 257.090 " stroke="none" fill-rule="evenodd"></path></g></svg>