<svg id="svg" version="1.1" xmlns="http://www.w3.org/2000/svg" xmlns:xlink="http://www.w3.org/1999/xlink" viewBox="0, 0, 400,400"><g id="svgg"><path id="path0" d="M261.018 221.020 C 260.378 221.196,259.671 221.936,259.038 223.095 C 251.065 237.695,225.544 245.424,196.467 242.044 C 192.685 241.605,192.735 241.511,192.761 248.958 C 192.782 254.961,192.805 255.219,193.402 255.969 C 194.065 256.804,193.815 257.014,187.161 261.209 C 184.160 263.102,179.773 265.882,177.413 267.388 C 175.053 268.894,172.570 270.423,171.895 270.786 C 170.044 271.782,169.392 272.481,168.425 274.506 C 168.000 275.397,167.132 277.044,166.497 278.165 C 165.862 279.287,164.859 281.284,164.268 282.603 C 162.790 285.905,161.983 287.646,160.377 291.002 C 159.016 293.848,158.552 294.969,157.625 297.660 C 157.363 298.419,156.822 299.823,156.422 300.780 C 154.428 305.545,153.076 310.970,151.523 320.432 C 150.320 327.763,149.927 329.553,148.367 334.798 C 145.115 345.736,142.482 358.211,141.100 369.226 C 140.489 374.099,138.906 390.416,139.032 390.543 C 139.139 390.653,143.819 392.063,146.731 392.863 C 160.744 396.715,174.104 398.862,189.802 399.785 C 193.278 399.990,206.636 399.989,210.138 399.784 C 236.416 398.248,259.461 392.669,282.543 382.253 C 285.431 380.950,293.706 376.855,294.146 376.511 L 294.410 376.305 293.106 370.066 C 292.388 366.635,291.281 361.425,290.645 358.488 C 288.269 347.518,287.592 343.542,286.630 334.910 C 284.447 315.337,284.808 305.031,288.082 293.401 C 291.857 279.992,296.090 272.317,301.590 268.912 C 302.200 268.534,302.699 268.193,302.697 268.155 C 302.694 268.047,299.585 265.820,297.852 264.686 C 294.471 262.472,292.106 261.227,280.804 255.705 C 278.707 254.680,276.012 253.249,274.625 252.422 C 273.272 251.616,271.424 250.562,270.518 250.081 C 267.081 248.255,265.508 246.803,264.249 244.291 C 263.217 242.234,263.116 241.412,263.780 240.492 C 264.855 239.000,264.909 238.587,264.772 232.873 C 264.585 224.983,264.537 224.376,264.005 223.054 C 263.235 221.144,262.470 220.623,261.018 221.020 " stroke="none" fill-rule="evenodd"></path></g></svg>