<svg id="svg" version="1.1" xmlns="http://www.w3.org/2000/svg" xmlns:xlink="http://www.w3.org/1999/xlink" viewBox="0, 0, 400,400"><g id="svgg"><path id="path0" d="M280.955 256.265 C 280.734 256.440,280.531 256.851,280.258 257.680 C 279.666 259.476,278.504 262.391,277.088 265.627 C 276.381 267.244,274.992 270.483,274.002 272.825 C 273.012 275.168,271.558 278.506,270.771 280.244 C 269.107 283.920,267.804 286.964,265.962 291.482 C 265.236 293.263,264.102 296.043,263.442 297.658 C 258.900 308.789,253.547 318.411,247.095 327.042 C 240.420 335.972,236.225 338.811,226.875 340.728 C 219.580 342.223,213.713 342.173,207.353 340.561 C 201.645 339.114,194.567 334.041,190.137 328.221 C 187.644 324.946,184.283 316.226,182.612 308.698 C 178.672 290.941,179.652 272.021,184.969 263.190 C 185.200 262.807,185.365 262.470,185.336 262.441 C 185.307 262.412,183.614 263.448,181.574 264.744 C 173.571 269.828,171.943 270.843,170.079 271.915 C 165.948 274.290,162.738 275.907,154.169 279.925 C 147.473 283.066,140.168 287.135,135.025 290.590 C 131.660 292.850,129.221 295.599,126.454 300.251 C 125.150 302.443,124.259 304.669,121.274 313.197 C 119.558 318.100,117.641 328.160,116.553 337.973 C 116.382 339.523,116.109 341.702,115.949 342.815 C 115.277 347.462,115.188 347.166,117.738 348.786 C 122.043 351.523,131.660 355.174,139.348 356.990 C 141.633 357.530,141.549 357.361,141.087 360.524 C 140.592 363.901,140.399 366.075,140.320 369.167 C 140.281 370.652,140.117 373.324,139.956 375.106 C 139.482 380.315,139.269 383.693,139.014 390.035 L 138.992 390.568 140.672 391.093 C 156.134 395.929,172.026 398.740,189.802 399.785 C 193.278 399.990,206.636 399.989,210.138 399.784 C 236.372 398.251,259.547 392.646,282.424 382.303 C 286.640 380.396,296.339 375.522,296.855 375.050 C 296.907 375.003,296.138 372.028,295.146 368.439 C 293.277 361.681,293.253 361.574,293.477 361.082 C 293.699 360.594,294.066 360.547,298.200 360.485 C 305.780 360.372,312.484 359.368,322.354 356.870 L 324.911 356.223 325.773 355.531 C 334.964 348.160,344.835 338.500,352.725 329.154 C 354.938 326.533,356.929 324.056,356.929 323.924 C 356.929 323.741,355.409 317.719,354.812 315.537 C 354.115 312.986,353.226 310.258,352.427 308.218 C 352.079 307.328,351.457 305.708,351.046 304.619 C 347.896 296.271,340.829 287.256,333.804 282.624 C 331.892 281.363,330.169 280.469,327.180 279.185 C 325.633 278.521,323.932 277.743,323.401 277.458 C 318.071 274.589,314.813 272.863,311.158 270.972 C 306.876 268.757,294.315 262.447,291.662 261.179 C 290.903 260.816,288.404 259.540,286.109 258.343 C 281.505 255.941,281.414 255.904,280.955 256.265 " stroke="none" fill-rule="evenodd"></path></g></svg>