<svg id="svg" version="1.1" xmlns="http://www.w3.org/2000/svg" xmlns:xlink="http://www.w3.org/1999/xlink" viewBox="0, 0, 400,400"><g id="svgg"><path id="path0" d="M271.846 251.313 C 271.742 251.432,271.508 251.989,271.327 252.549 C 269.443 258.380,264.825 267.130,261.101 271.926 C 258.844 274.833,248.760 284.841,241.752 291.130 C 237.245 295.175,236.287 296.156,231.809 301.320 C 218.909 316.193,217.811 317.292,214.318 318.826 C 212.895 319.451,212.895 319.451,211.411 317.895 C 203.610 309.715,196.638 296.166,194.794 285.602 C 194.266 282.575,194.198 281.315,194.314 276.725 C 194.568 266.747,194.287 256.629,193.756 256.629 C 193.704 256.629,192.753 257.260,191.642 258.032 C 186.456 261.634,176.721 267.920,171.374 271.118 C 166.497 274.036,165.079 274.755,153.886 279.984 C 138.443 287.199,135.636 288.899,131.153 293.749 C 127.663 297.526,126.025 300.483,122.988 308.488 C 119.961 316.466,119.376 318.754,118.105 327.590 C 117.678 330.562,117.142 334.194,116.915 335.663 C 116.688 337.131,116.392 339.381,116.258 340.664 C 116.123 341.947,115.876 343.659,115.709 344.468 C 115.261 346.630,115.472 347.457,116.738 348.493 C 119.122 350.446,127.707 353.899,133.658 355.300 C 134.353 355.463,135.811 355.872,136.897 356.208 C 137.983 356.544,139.321 356.932,139.869 357.070 C 141.580 357.502,141.582 357.509,141.041 360.719 C 140.828 361.985,140.616 364.314,140.318 368.686 C 139.260 384.216,138.895 390.409,139.031 390.541 C 139.246 390.749,146.670 392.892,150.750 393.923 C 163.430 397.129,175.545 398.947,189.802 399.785 C 193.278 399.990,206.636 399.989,210.138 399.784 C 237.110 398.208,260.620 392.388,284.403 381.399 C 289.337 379.120,296.991 375.110,296.894 374.856 C 296.770 374.534,294.645 366.702,294.195 364.907 C 293.930 363.851,293.629 362.751,293.527 362.462 C 292.879 360.629,292.938 360.604,298.183 360.510 C 305.543 360.379,313.713 359.216,322.185 357.095 C 324.655 356.476,324.550 356.521,325.735 355.564 C 336.471 346.893,346.922 336.436,355.589 325.695 C 356.326 324.782,356.929 323.999,356.929 323.955 C 356.929 323.793,355.369 317.580,354.834 315.610 C 353.140 309.369,349.759 301.077,347.344 297.241 C 341.704 288.279,335.043 282.333,327.115 279.182 C 326.257 278.841,324.607 278.086,323.448 277.504 C 322.289 276.921,319.806 275.706,317.929 274.803 C 311.499 271.708,306.236 269.027,302.519 266.952 C 297.529 264.166,295.485 263.097,292.142 261.525 C 286.049 258.660,279.694 255.360,274.843 252.541 C 272.337 251.085,272.122 250.997,271.846 251.313 " stroke="none" fill-rule="evenodd"></path></g></svg>