<svg id="svg" version="1.1" xmlns="http://www.w3.org/2000/svg" xmlns:xlink="http://www.w3.org/1999/xlink" viewBox="0, 0, 400,400"><g id="svgg"><path id="path0" d="M262.363 247.481 C 260.447 250.322,259.020 252.524,257.017 255.729 C 253.850 260.795,253.440 261.416,250.532 265.567 C 243.804 275.168,240.567 278.623,232.911 284.381 C 219.045 294.808,205.447 294.890,197.850 284.591 C 196.445 282.687,195.375 280.052,194.795 277.070 C 194.107 273.527,194.066 272.950,194.107 267.307 C 194.147 261.964,194.035 256.269,193.891 256.269 C 193.847 256.269,193.354 256.656,192.796 257.129 C 190.335 259.217,188.063 260.758,183.023 263.755 C 181.440 264.697,178.281 266.655,176.005 268.106 C 168.881 272.648,165.805 274.396,160.762 276.765 C 135.580 288.596,131.833 291.044,127.428 298.543 C 125.242 302.265,121.247 312.393,119.992 317.397 C 118.942 321.584,117.324 331.280,116.560 337.972 C 116.391 339.457,116.091 341.851,115.894 343.293 C 115.334 347.404,115.296 347.254,117.173 348.437 C 122.096 351.540,130.091 354.631,139.157 356.935 C 141.617 357.561,141.537 357.435,141.146 360.050 C 140.775 362.528,140.489 365.439,140.368 367.966 C 140.299 369.385,140.165 371.707,140.068 373.125 C 139.733 378.068,139.030 390.543,139.085 390.592 C 139.269 390.758,147.276 393.045,150.750 393.923 C 163.430 397.129,175.545 398.947,189.802 399.785 C 193.278 399.990,206.636 399.989,210.138 399.784 C 237.389 398.192,261.185 392.252,285.063 381.083 C 289.528 378.994,295.861 375.714,295.861 375.491 C 295.861 375.428,295.375 372.966,294.781 370.019 C 294.187 367.072,293.701 364.420,293.701 364.124 C 293.700 363.829,293.620 363.056,293.522 362.407 C 293.239 360.531,293.143 360.576,297.571 360.478 C 306.850 360.273,316.310 359.020,322.887 357.124 C 324.234 356.736,324.333 356.684,325.461 355.781 C 336.198 347.184,346.931 336.447,355.846 325.384 L 356.854 324.134 356.574 322.745 C 354.445 312.146,350.665 302.220,346.235 295.594 C 340.560 287.107,335.159 282.563,326.095 278.651 C 324.478 277.953,322.076 276.835,320.756 276.167 C 319.436 275.499,317.313 274.475,316.037 273.891 C 312.559 272.298,304.638 268.141,300.180 265.569 C 297.423 263.978,296.549 263.533,294.061 262.447 C 290.119 260.728,282.318 256.611,268.059 248.727 C 265.536 247.332,263.419 246.191,263.353 246.191 C 263.287 246.191,262.841 246.771,262.363 247.481 " stroke="none" fill-rule="evenodd"></path></g></svg>