<svg id="svg" version="1.1" xmlns="http://www.w3.org/2000/svg" xmlns:xlink="http://www.w3.org/1999/xlink" viewBox="0, 0, 400,400"><g id="svgg"><path id="path0" d="M261.048 221.013 C 260.359 221.204,259.739 221.832,259.097 222.989 C 252.149 235.511,234.000 242.754,209.538 242.768 C 203.502 242.772,202.184 242.705,197.614 242.162 C 192.466 241.551,192.605 241.347,192.734 249.347 L 192.822 254.769 193.162 255.751 C 193.669 257.213,193.954 256.898,189.922 259.327 C 189.031 259.864,186.180 261.640,183.586 263.274 C 178.180 266.678,175.868 268.082,172.406 270.062 C 166.971 273.171,164.983 274.209,157.579 277.808 C 131.770 290.353,129.128 292.633,123.287 307.413 C 120.943 313.346,119.394 320.425,116.691 337.558 C 115.254 346.666,115.277 346.459,115.611 347.162 C 116.654 349.361,132.504 355.806,140.068 357.107 C 141.360 357.330,141.509 357.609,141.268 359.354 C 140.514 364.809,140.535 364.595,140.369 368.326 C 140.214 371.810,140.081 373.794,139.649 379.004 C 139.249 383.830,138.892 390.411,139.024 390.540 C 139.144 390.657,143.730 392.041,146.671 392.848 C 160.814 396.727,174.078 398.861,189.802 399.785 C 193.278 399.990,206.636 399.989,210.138 399.784 C 236.582 398.239,259.543 392.652,282.963 382.064 C 286.425 380.499,296.326 375.514,296.806 375.094 C 296.831 375.072,296.658 374.310,296.421 373.400 C 296.185 372.490,295.743 370.585,295.439 369.166 C 294.782 366.093,294.309 364.278,293.743 362.652 C 293.113 360.842,293.557 360.232,295.288 360.529 C 296.280 360.699,303.560 360.486,305.459 360.231 C 312.164 359.332,319.822 357.797,323.427 356.632 L 325.138 356.079 327.986 353.704 C 338.045 345.317,347.359 335.870,355.505 325.795 C 356.199 324.937,356.805 324.170,356.851 324.090 C 357.150 323.582,353.722 311.626,351.750 306.299 C 347.173 293.934,338.022 283.645,327.954 279.544 C 326.965 279.141,324.346 277.928,322.136 276.849 C 319.925 275.769,316.524 274.109,314.577 273.158 C 312.630 272.208,308.824 270.238,306.119 268.782 C 294.542 262.549,285.755 258.013,279.928 255.263 C 278.035 254.370,275.994 253.281,274.109 252.159 C 272.512 251.208,270.666 250.145,270.006 249.796 C 265.391 247.357,262.233 242.637,263.780 240.492 C 264.855 239.000,264.909 238.587,264.772 232.873 C 264.581 224.947,264.536 224.374,264.005 223.054 C 263.240 221.157,262.465 220.621,261.048 221.013 " stroke="none" fill-rule="evenodd"></path></g></svg>