<svg id="svg" version="1.1" xmlns="http://www.w3.org/2000/svg" xmlns:xlink="http://www.w3.org/1999/xlink" viewBox="0, 0, 400,400"><g id="svgg"><path id="path0" d="M261.048 221.013 C 260.359 221.204,259.739 221.832,259.097 222.989 C 252.149 235.511,234.000 242.754,209.538 242.768 C 203.502 242.772,202.184 242.705,197.614 242.162 C 192.471 241.551,192.605 241.357,192.732 249.288 C 192.817 254.631,192.819 254.652,193.123 255.489 C 193.698 257.069,193.605 257.350,192.209 258.251 C 171.279 271.749,167.662 273.859,156.329 279.179 C 144.118 284.912,134.007 290.836,130.525 294.299 C 126.424 298.375,122.151 308.542,119.506 320.516 C 117.893 327.815,115.816 342.452,114.338 356.929 C 113.631 363.856,111.946 378.601,111.772 379.376 C 111.723 379.596,112.036 379.762,115.897 381.555 C 137.287 391.489,160.613 397.590,184.103 399.394 C 190.273 399.868,192.282 399.937,199.940 399.938 C 259.403 399.944,314.597 374.309,352.986 328.854 C 354.606 326.935,356.942 324.039,357.009 323.866 C 357.153 323.489,354.702 314.582,353.445 310.918 C 350.863 303.391,348.599 298.744,345.251 294.094 C 340.029 286.845,334.539 282.226,327.954 279.544 C 326.965 279.141,324.346 277.928,322.136 276.849 C 319.925 275.769,316.524 274.109,314.577 273.158 C 312.630 272.208,308.824 270.238,306.119 268.782 C 294.542 262.549,285.755 258.013,279.928 255.263 C 278.035 254.370,275.994 253.281,274.109 252.159 C 272.512 251.208,270.666 250.145,270.006 249.796 C 265.391 247.357,262.233 242.637,263.780 240.492 C 264.855 239.000,264.909 238.587,264.772 232.873 C 264.581 224.947,264.536 224.374,264.005 223.054 C 263.240 221.157,262.465 220.621,261.048 221.013 " stroke="none" fill-rule="evenodd"></path></g></svg>