<svg id="svg" version="1.1" xmlns="http://www.w3.org/2000/svg" xmlns:xlink="http://www.w3.org/1999/xlink" viewBox="0, 0, 400,400"><g id="svgg"><path id="path0" d="M270.403 161.880 C 270.160 162.027,269.485 162.554,268.904 163.052 C 268.322 163.549,267.415 164.284,266.887 164.685 C 265.225 165.946,264.541 166.855,264.301 168.118 C 263.793 170.798,266.383 172.125,268.806 170.426 C 269.202 170.148,269.931 169.684,270.426 169.396 C 273.140 167.812,274.449 164.752,273.335 162.595 C 272.829 161.613,271.413 161.268,270.403 161.880 M273.425 170.566 C 272.058 170.807,267.875 173.027,266.726 174.123 C 264.787 175.974,266.618 178.318,269.549 177.737 C 271.150 177.419,271.626 177.861,271.626 179.666 C 271.626 181.396,273.418 181.942,274.181 180.444 C 274.575 179.672,274.553 179.381,274.020 178.253 C 273.343 176.823,273.560 176.016,274.883 175.034 C 275.856 174.313,275.990 174.078,275.965 173.138 C 275.913 171.179,275.029 170.284,273.425 170.566 M272.164 182.741 C 270.947 183.810,271.096 185.844,272.433 186.402 C 273.619 186.897,275.038 185.614,274.791 184.269 C 274.502 182.700,273.124 181.898,272.164 182.741 M271.543 188.124 C 270.615 188.497,270.596 190.711,271.517 191.187 C 272.972 191.940,274.253 190.461,273.649 188.727 C 273.436 188.116,272.341 187.802,271.543 188.124 M255.244 191.945 C 254.717 192.266,254.244 192.870,253.820 193.761 L 253.449 194.541 253.458 196.761 C 253.473 201.073,254.468 205.949,255.605 207.294 C 256.730 208.625,259.065 208.481,260.557 206.989 C 261.729 205.817,261.610 203.282,260.174 198.829 C 259.754 197.526,259.327 196.164,259.224 195.801 C 258.397 192.885,256.584 191.128,255.244 191.945 M269.808 192.144 C 269.130 192.512,268.769 193.953,269.164 194.716 C 270.055 196.439,272.320 195.150,271.749 193.246 C 271.440 192.214,270.579 191.725,269.808 192.144 M267.050 195.781 C 266.052 196.673,266.707 198.433,267.984 198.289 C 269.657 198.100,269.679 195.441,268.007 195.441 C 267.543 195.441,267.356 195.507,267.050 195.781 M264.459 197.058 C 262.960 197.710,263.347 200.241,264.946 200.240 C 266.729 200.238,267.436 197.468,265.771 197.005 C 265.190 196.844,264.929 196.854,264.459 197.058 M256.449 209.340 C 255.312 209.710,255.225 211.067,256.274 212.088 C 257.266 213.053,258.761 212.148,258.497 210.741 C 258.319 209.793,257.268 209.074,256.449 209.340 M256.485 214.487 C 255.562 215.473,255.553 216.790,256.462 217.506 C 257.125 218.027,257.987 217.631,258.369 216.631 C 258.898 215.246,257.385 213.525,256.485 214.487 M256.840 218.904 C 255.675 219.537,256.063 222.196,257.321 222.196 C 257.642 222.196,257.840 222.092,258.193 221.740 C 259.467 220.465,258.336 218.093,256.840 218.904 M256.862 224.320 C 256.151 224.917,255.982 225.717,256.381 226.595 C 256.858 227.644,257.599 227.724,258.192 226.790 C 259.253 225.117,258.211 223.184,256.862 224.320 M256.720 228.360 C 255.941 228.952,255.932 231.427,256.708 231.780 C 258.217 232.468,259.388 229.623,258.057 228.503 C 257.652 228.163,257.063 228.100,256.720 228.360 M256.762 233.161 C 255.944 233.614,255.922 235.910,256.731 236.343 C 258.162 237.109,259.619 235.145,258.780 233.578 C 258.509 233.072,257.354 232.833,256.762 233.161 M257.049 237.064 C 256.552 237.275,256.275 237.726,256.170 238.490 C 256.078 239.164,256.019 239.277,255.564 239.667 C 253.705 241.258,253.973 244.195,256.450 249.370 C 256.892 250.294,257.413 251.455,257.607 251.950 C 258.072 253.138,258.799 253.619,259.460 253.178 C 259.734 252.995,260.390 251.120,261.568 247.151 C 262.732 243.229,261.907 239.712,259.554 238.560 C 259.154 238.365,258.829 238.108,258.724 237.905 C 258.402 237.282,257.547 236.853,257.049 237.064 M259.075 241.599 C 260.305 242.472,260.353 245.392,259.141 245.634 C 257.478 245.967,256.839 245.490,256.509 243.674 C 256.121 241.532,257.456 240.451,259.075 241.599 " stroke="none" fill-rule="evenodd"></path></g></svg>