<svg id="svg" version="1.1" xmlns="http://www.w3.org/2000/svg" xmlns:xlink="http://www.w3.org/1999/xlink" viewBox="0, 0, 400,400"><g id="svgg"><path id="path0" d="M250.559 193.628 C 248.860 194.665,249.661 197.254,251.629 197.084 C 253.519 196.921,254.069 194.435,252.405 193.570 C 251.940 193.328,251.003 193.357,250.559 193.628 M250.804 198.735 C 250.108 199.431,250.600 200.600,251.590 200.600 C 252.550 200.600,253.031 199.532,252.421 198.756 C 252.075 198.316,251.234 198.305,250.804 198.735 M251.148 201.796 C 250.426 202.099,250.419 203.422,251.137 203.793 C 251.841 204.157,252.669 203.655,252.669 202.865 C 252.669 202.064,251.861 201.496,251.148 201.796 M250.666 205.789 C 250.041 206.475,249.942 207.291,250.140 210.098 C 250.331 212.798,250.355 212.752,248.603 213.022 C 247.341 213.216,246.985 213.454,246.934 214.135 C 246.860 215.128,247.317 215.478,248.853 215.605 C 250.463 215.738,250.317 215.203,250.396 221.269 L 250.463 226.455 250.784 227.272 C 251.082 228.031,252.035 229.634,252.188 229.634 C 252.342 229.634,252.933 228.568,253.119 227.954 C 253.353 227.180,253.395 223.866,253.229 219.171 L 253.129 216.326 253.419 216.036 C 253.659 215.796,253.881 215.730,254.690 215.659 C 257.353 215.423,257.057 212.957,254.366 212.957 C 253.126 212.957,253.129 212.963,253.015 210.008 C 252.886 206.637,252.789 206.144,252.164 205.706 C 251.754 205.419,250.963 205.463,250.666 205.789 " stroke="none" fill-rule="evenodd"></path></g></svg>