<svg id="svg" version="1.1" xmlns="http://www.w3.org/2000/svg" xmlns:xlink="http://www.w3.org/1999/xlink" viewBox="0, 0, 400,400"><g id="svgg"><path id="path0" d="M250.707 161.141 C 248.349 161.694,248.748 165.207,251.170 165.207 C 253.111 165.207,253.882 162.832,252.371 161.506 C 252.135 161.298,251.840 161.128,251.715 161.128 C 251.591 161.128,251.417 161.106,251.330 161.080 C 251.242 161.054,250.962 161.081,250.707 161.141 M255.521 165.760 C 255.216 165.916,254.935 166.093,254.897 166.154 C 254.833 166.257,267.884 174.628,267.971 174.540 C 267.993 174.519,268.044 174.232,268.085 173.903 L 268.158 173.305 263.161 170.066 C 260.412 168.284,257.694 166.523,257.120 166.152 L 256.077 165.478 255.521 165.760 M271.581 175.915 C 271.433 176.467,271.503 176.699,271.889 176.944 C 272.246 177.170,272.270 177.227,272.240 177.789 C 272.108 180.275,275.396 180.819,275.674 178.357 C 275.841 176.876,274.806 175.922,273.380 176.241 C 272.847 176.361,272.784 176.347,272.288 176.007 C 271.659 175.574,271.672 175.575,271.581 175.915 " stroke="none" fill-rule="evenodd"></path></g></svg>