<svg id="svg" version="1.1" xmlns="http://www.w3.org/2000/svg" xmlns:xlink="http://www.w3.org/1999/xlink" viewBox="0, 0, 400,400"><g id="svgg"><path id="path0" d="M256.523 172.619 C 256.317 173.003,256.572 173.519,257.176 173.945 C 257.777 174.369,257.948 174.702,257.948 175.450 C 257.948 176.234,258.154 176.428,258.926 176.369 C 260.665 176.236,261.003 176.330,261.589 177.115 C 263.073 179.104,256.623 182.856,254.820 181.053 C 254.053 180.286,253.714 177.400,254.266 176.329 C 254.561 175.755,254.562 175.751,254.341 175.309 C 254.219 175.065,254.087 174.758,254.048 174.628 C 253.982 174.412,253.956 174.422,253.751 174.748 C 252.310 177.035,252.578 181.331,254.232 182.463 C 255.100 183.057,258.044 182.608,260.204 181.551 C 264.111 179.640,264.272 175.195,260.451 174.750 C 259.626 174.654,259.459 174.539,259.049 173.785 C 258.472 172.723,256.864 171.981,256.523 172.619 " stroke="none" fill-rule="evenodd"></path></g></svg>